%TF.GenerationSoftware,KiCad,Pcbnew,8.0.6*%
%TF.CreationDate,2024-11-27T18:57:58+00:00*%
%TF.ProjectId,wmk,776d6b2e-6b69-4636-9164-5f7063625858,rev?*%
%TF.SameCoordinates,Original*%
%TF.FileFunction,Legend,Top*%
%TF.FilePolarity,Positive*%
%FSLAX46Y46*%
G04 Gerber Fmt 4.6, Leading zero omitted, Abs format (unit mm)*
G04 Created by KiCad (PCBNEW 8.0.6) date 2024-11-27 18:57:58*
%MOMM*%
%LPD*%
G01*
G04 APERTURE LIST*
%ADD10C,0.065024*%
%ADD11C,0.150000*%
%ADD12C,0.114300*%
%ADD13C,0.083185*%
%ADD14C,0.032512*%
%ADD15C,0.093472*%
%ADD16C,0.120000*%
%ADD17C,0.152400*%
%ADD18C,0.254000*%
%ADD19C,0.050800*%
%ADD20C,0.063400*%
%ADD21C,0.125000*%
%ADD22C,0.127000*%
%ADD23C,0.200000*%
%ADD24C,0.203200*%
G04 APERTURE END LIST*
D10*
X162196088Y-100141679D02*
X162231697Y-100177287D01*
X162231697Y-100177287D02*
X162267305Y-100284113D01*
X162267305Y-100284113D02*
X162267305Y-100355329D01*
X162267305Y-100355329D02*
X162231697Y-100462154D01*
X162231697Y-100462154D02*
X162160480Y-100533371D01*
X162160480Y-100533371D02*
X162089263Y-100568980D01*
X162089263Y-100568980D02*
X161946829Y-100604588D01*
X161946829Y-100604588D02*
X161840004Y-100604588D01*
X161840004Y-100604588D02*
X161697571Y-100568980D01*
X161697571Y-100568980D02*
X161626354Y-100533371D01*
X161626354Y-100533371D02*
X161555137Y-100462154D01*
X161555137Y-100462154D02*
X161519529Y-100355329D01*
X161519529Y-100355329D02*
X161519529Y-100284113D01*
X161519529Y-100284113D02*
X161555137Y-100177287D01*
X161555137Y-100177287D02*
X161590746Y-100141679D01*
X162267305Y-99714378D02*
X162231697Y-99785595D01*
X162231697Y-99785595D02*
X162160480Y-99821204D01*
X162160480Y-99821204D02*
X161519529Y-99821204D01*
X162267305Y-99322686D02*
X162231697Y-99393903D01*
X162231697Y-99393903D02*
X162196088Y-99429512D01*
X162196088Y-99429512D02*
X162124871Y-99465120D01*
X162124871Y-99465120D02*
X161911221Y-99465120D01*
X161911221Y-99465120D02*
X161840004Y-99429512D01*
X161840004Y-99429512D02*
X161804396Y-99393903D01*
X161804396Y-99393903D02*
X161768788Y-99322686D01*
X161768788Y-99322686D02*
X161768788Y-99215861D01*
X161768788Y-99215861D02*
X161804396Y-99144645D01*
X161804396Y-99144645D02*
X161840004Y-99109036D01*
X161840004Y-99109036D02*
X161911221Y-99073428D01*
X161911221Y-99073428D02*
X162124871Y-99073428D01*
X162124871Y-99073428D02*
X162196088Y-99109036D01*
X162196088Y-99109036D02*
X162231697Y-99144645D01*
X162231697Y-99144645D02*
X162267305Y-99215861D01*
X162267305Y-99215861D02*
X162267305Y-99322686D01*
X162231697Y-98432477D02*
X162267305Y-98503694D01*
X162267305Y-98503694D02*
X162267305Y-98646127D01*
X162267305Y-98646127D02*
X162231697Y-98717344D01*
X162231697Y-98717344D02*
X162196088Y-98752953D01*
X162196088Y-98752953D02*
X162124871Y-98788561D01*
X162124871Y-98788561D02*
X161911221Y-98788561D01*
X161911221Y-98788561D02*
X161840004Y-98752953D01*
X161840004Y-98752953D02*
X161804396Y-98717344D01*
X161804396Y-98717344D02*
X161768788Y-98646127D01*
X161768788Y-98646127D02*
X161768788Y-98503694D01*
X161768788Y-98503694D02*
X161804396Y-98432477D01*
X162267305Y-98112002D02*
X161519529Y-98112002D01*
X161982438Y-98040785D02*
X162267305Y-97827135D01*
X161768788Y-97827135D02*
X162053655Y-98112002D01*
X146991697Y-100922088D02*
X147027305Y-100815263D01*
X147027305Y-100815263D02*
X147027305Y-100637221D01*
X147027305Y-100637221D02*
X146991697Y-100566004D01*
X146991697Y-100566004D02*
X146956088Y-100530396D01*
X146956088Y-100530396D02*
X146884871Y-100494787D01*
X146884871Y-100494787D02*
X146813655Y-100494787D01*
X146813655Y-100494787D02*
X146742438Y-100530396D01*
X146742438Y-100530396D02*
X146706829Y-100566004D01*
X146706829Y-100566004D02*
X146671221Y-100637221D01*
X146671221Y-100637221D02*
X146635613Y-100779654D01*
X146635613Y-100779654D02*
X146600004Y-100850871D01*
X146600004Y-100850871D02*
X146564396Y-100886480D01*
X146564396Y-100886480D02*
X146493179Y-100922088D01*
X146493179Y-100922088D02*
X146421962Y-100922088D01*
X146421962Y-100922088D02*
X146350746Y-100886480D01*
X146350746Y-100886480D02*
X146315137Y-100850871D01*
X146315137Y-100850871D02*
X146279529Y-100779654D01*
X146279529Y-100779654D02*
X146279529Y-100601613D01*
X146279529Y-100601613D02*
X146315137Y-100494787D01*
X146528788Y-100281137D02*
X146528788Y-99996270D01*
X146279529Y-100174312D02*
X146920480Y-100174312D01*
X146920480Y-100174312D02*
X146991697Y-100138703D01*
X146991697Y-100138703D02*
X147027305Y-100067486D01*
X147027305Y-100067486D02*
X147027305Y-99996270D01*
X146991697Y-99782619D02*
X147027305Y-99711402D01*
X147027305Y-99711402D02*
X147027305Y-99568969D01*
X147027305Y-99568969D02*
X146991697Y-99497752D01*
X146991697Y-99497752D02*
X146920480Y-99462144D01*
X146920480Y-99462144D02*
X146884871Y-99462144D01*
X146884871Y-99462144D02*
X146813655Y-99497752D01*
X146813655Y-99497752D02*
X146778046Y-99568969D01*
X146778046Y-99568969D02*
X146778046Y-99675794D01*
X146778046Y-99675794D02*
X146742438Y-99747011D01*
X146742438Y-99747011D02*
X146671221Y-99782619D01*
X146671221Y-99782619D02*
X146635613Y-99782619D01*
X146635613Y-99782619D02*
X146564396Y-99747011D01*
X146564396Y-99747011D02*
X146528788Y-99675794D01*
X146528788Y-99675794D02*
X146528788Y-99568969D01*
X146528788Y-99568969D02*
X146564396Y-99497752D01*
X146528788Y-99248494D02*
X146528788Y-98963627D01*
X146279529Y-99141669D02*
X146920480Y-99141669D01*
X146920480Y-99141669D02*
X146991697Y-99106060D01*
X146991697Y-99106060D02*
X147027305Y-99034843D01*
X147027305Y-99034843D02*
X147027305Y-98963627D01*
X146528788Y-98393892D02*
X147027305Y-98393892D01*
X146528788Y-98714368D02*
X146920480Y-98714368D01*
X146920480Y-98714368D02*
X146991697Y-98678759D01*
X146991697Y-98678759D02*
X147027305Y-98607542D01*
X147027305Y-98607542D02*
X147027305Y-98500717D01*
X147027305Y-98500717D02*
X146991697Y-98429501D01*
X146991697Y-98429501D02*
X146956088Y-98393892D01*
X146991697Y-98073417D02*
X147027305Y-98002200D01*
X147027305Y-98002200D02*
X147027305Y-97859767D01*
X147027305Y-97859767D02*
X146991697Y-97788550D01*
X146991697Y-97788550D02*
X146920480Y-97752942D01*
X146920480Y-97752942D02*
X146884871Y-97752942D01*
X146884871Y-97752942D02*
X146813655Y-97788550D01*
X146813655Y-97788550D02*
X146778046Y-97859767D01*
X146778046Y-97859767D02*
X146778046Y-97966592D01*
X146778046Y-97966592D02*
X146742438Y-98037809D01*
X146742438Y-98037809D02*
X146671221Y-98073417D01*
X146671221Y-98073417D02*
X146635613Y-98073417D01*
X146635613Y-98073417D02*
X146564396Y-98037809D01*
X146564396Y-98037809D02*
X146528788Y-97966592D01*
X146528788Y-97966592D02*
X146528788Y-97859767D01*
X146528788Y-97859767D02*
X146564396Y-97788550D01*
X159727305Y-100568980D02*
X158979529Y-100568980D01*
X158979529Y-100568980D02*
X158979529Y-100390938D01*
X158979529Y-100390938D02*
X159015137Y-100284113D01*
X159015137Y-100284113D02*
X159086354Y-100212896D01*
X159086354Y-100212896D02*
X159157571Y-100177287D01*
X159157571Y-100177287D02*
X159300004Y-100141679D01*
X159300004Y-100141679D02*
X159406829Y-100141679D01*
X159406829Y-100141679D02*
X159549263Y-100177287D01*
X159549263Y-100177287D02*
X159620480Y-100212896D01*
X159620480Y-100212896D02*
X159691697Y-100284113D01*
X159691697Y-100284113D02*
X159727305Y-100390938D01*
X159727305Y-100390938D02*
X159727305Y-100568980D01*
X159727305Y-99500728D02*
X159335613Y-99500728D01*
X159335613Y-99500728D02*
X159264396Y-99536337D01*
X159264396Y-99536337D02*
X159228788Y-99607553D01*
X159228788Y-99607553D02*
X159228788Y-99749987D01*
X159228788Y-99749987D02*
X159264396Y-99821204D01*
X159691697Y-99500728D02*
X159727305Y-99571945D01*
X159727305Y-99571945D02*
X159727305Y-99749987D01*
X159727305Y-99749987D02*
X159691697Y-99821204D01*
X159691697Y-99821204D02*
X159620480Y-99856812D01*
X159620480Y-99856812D02*
X159549263Y-99856812D01*
X159549263Y-99856812D02*
X159478046Y-99821204D01*
X159478046Y-99821204D02*
X159442438Y-99749987D01*
X159442438Y-99749987D02*
X159442438Y-99571945D01*
X159442438Y-99571945D02*
X159406829Y-99500728D01*
X159228788Y-99251470D02*
X159228788Y-98966603D01*
X158979529Y-99144645D02*
X159620480Y-99144645D01*
X159620480Y-99144645D02*
X159691697Y-99109036D01*
X159691697Y-99109036D02*
X159727305Y-99037819D01*
X159727305Y-99037819D02*
X159727305Y-98966603D01*
X159727305Y-98396868D02*
X159335613Y-98396868D01*
X159335613Y-98396868D02*
X159264396Y-98432477D01*
X159264396Y-98432477D02*
X159228788Y-98503693D01*
X159228788Y-98503693D02*
X159228788Y-98646127D01*
X159228788Y-98646127D02*
X159264396Y-98717344D01*
X159691697Y-98396868D02*
X159727305Y-98468085D01*
X159727305Y-98468085D02*
X159727305Y-98646127D01*
X159727305Y-98646127D02*
X159691697Y-98717344D01*
X159691697Y-98717344D02*
X159620480Y-98752952D01*
X159620480Y-98752952D02*
X159549263Y-98752952D01*
X159549263Y-98752952D02*
X159478046Y-98717344D01*
X159478046Y-98717344D02*
X159442438Y-98646127D01*
X159442438Y-98646127D02*
X159442438Y-98468085D01*
X159442438Y-98468085D02*
X159406829Y-98396868D01*
X148855137Y-100494787D02*
X148819529Y-100566004D01*
X148819529Y-100566004D02*
X148819529Y-100672829D01*
X148819529Y-100672829D02*
X148855137Y-100779654D01*
X148855137Y-100779654D02*
X148926354Y-100850871D01*
X148926354Y-100850871D02*
X148997571Y-100886480D01*
X148997571Y-100886480D02*
X149140004Y-100922088D01*
X149140004Y-100922088D02*
X149246829Y-100922088D01*
X149246829Y-100922088D02*
X149389263Y-100886480D01*
X149389263Y-100886480D02*
X149460480Y-100850871D01*
X149460480Y-100850871D02*
X149531697Y-100779654D01*
X149531697Y-100779654D02*
X149567305Y-100672829D01*
X149567305Y-100672829D02*
X149567305Y-100601613D01*
X149567305Y-100601613D02*
X149531697Y-100494787D01*
X149531697Y-100494787D02*
X149496088Y-100459179D01*
X149496088Y-100459179D02*
X149246829Y-100459179D01*
X149246829Y-100459179D02*
X149246829Y-100601613D01*
X149567305Y-100138704D02*
X148819529Y-100138704D01*
X148819529Y-100138704D02*
X149567305Y-99711403D01*
X149567305Y-99711403D02*
X148819529Y-99711403D01*
X149567305Y-99355320D02*
X148819529Y-99355320D01*
X148819529Y-99355320D02*
X148819529Y-99177278D01*
X148819529Y-99177278D02*
X148855137Y-99070453D01*
X148855137Y-99070453D02*
X148926354Y-98999236D01*
X148926354Y-98999236D02*
X148997571Y-98963627D01*
X148997571Y-98963627D02*
X149140004Y-98928019D01*
X149140004Y-98928019D02*
X149246829Y-98928019D01*
X149246829Y-98928019D02*
X149389263Y-98963627D01*
X149389263Y-98963627D02*
X149460480Y-98999236D01*
X149460480Y-98999236D02*
X149531697Y-99070453D01*
X149531697Y-99070453D02*
X149567305Y-99177278D01*
X149567305Y-99177278D02*
X149567305Y-99355320D01*
X157187305Y-100141679D02*
X156831221Y-100390938D01*
X157187305Y-100568980D02*
X156439529Y-100568980D01*
X156439529Y-100568980D02*
X156439529Y-100284113D01*
X156439529Y-100284113D02*
X156475137Y-100212896D01*
X156475137Y-100212896D02*
X156510746Y-100177287D01*
X156510746Y-100177287D02*
X156581962Y-100141679D01*
X156581962Y-100141679D02*
X156688788Y-100141679D01*
X156688788Y-100141679D02*
X156760004Y-100177287D01*
X156760004Y-100177287D02*
X156795613Y-100212896D01*
X156795613Y-100212896D02*
X156831221Y-100284113D01*
X156831221Y-100284113D02*
X156831221Y-100568980D01*
X157151697Y-99536337D02*
X157187305Y-99607553D01*
X157187305Y-99607553D02*
X157187305Y-99749987D01*
X157187305Y-99749987D02*
X157151697Y-99821204D01*
X157151697Y-99821204D02*
X157080480Y-99856812D01*
X157080480Y-99856812D02*
X156795613Y-99856812D01*
X156795613Y-99856812D02*
X156724396Y-99821204D01*
X156724396Y-99821204D02*
X156688788Y-99749987D01*
X156688788Y-99749987D02*
X156688788Y-99607553D01*
X156688788Y-99607553D02*
X156724396Y-99536337D01*
X156724396Y-99536337D02*
X156795613Y-99500728D01*
X156795613Y-99500728D02*
X156866829Y-99500728D01*
X156866829Y-99500728D02*
X156938046Y-99856812D01*
X157151697Y-99215861D02*
X157187305Y-99144644D01*
X157187305Y-99144644D02*
X157187305Y-99002211D01*
X157187305Y-99002211D02*
X157151697Y-98930994D01*
X157151697Y-98930994D02*
X157080480Y-98895386D01*
X157080480Y-98895386D02*
X157044871Y-98895386D01*
X157044871Y-98895386D02*
X156973655Y-98930994D01*
X156973655Y-98930994D02*
X156938046Y-99002211D01*
X156938046Y-99002211D02*
X156938046Y-99109036D01*
X156938046Y-99109036D02*
X156902438Y-99180253D01*
X156902438Y-99180253D02*
X156831221Y-99215861D01*
X156831221Y-99215861D02*
X156795613Y-99215861D01*
X156795613Y-99215861D02*
X156724396Y-99180253D01*
X156724396Y-99180253D02*
X156688788Y-99109036D01*
X156688788Y-99109036D02*
X156688788Y-99002211D01*
X156688788Y-99002211D02*
X156724396Y-98930994D01*
X157151697Y-98290044D02*
X157187305Y-98361260D01*
X157187305Y-98361260D02*
X157187305Y-98503694D01*
X157187305Y-98503694D02*
X157151697Y-98574911D01*
X157151697Y-98574911D02*
X157080480Y-98610519D01*
X157080480Y-98610519D02*
X156795613Y-98610519D01*
X156795613Y-98610519D02*
X156724396Y-98574911D01*
X156724396Y-98574911D02*
X156688788Y-98503694D01*
X156688788Y-98503694D02*
X156688788Y-98361260D01*
X156688788Y-98361260D02*
X156724396Y-98290044D01*
X156724396Y-98290044D02*
X156795613Y-98254435D01*
X156795613Y-98254435D02*
X156866829Y-98254435D01*
X156866829Y-98254435D02*
X156938046Y-98610519D01*
X156688788Y-98040785D02*
X156688788Y-97755918D01*
X156439529Y-97933960D02*
X157080480Y-97933960D01*
X157080480Y-97933960D02*
X157151697Y-97898351D01*
X157151697Y-97898351D02*
X157187305Y-97827134D01*
X157187305Y-97827134D02*
X157187305Y-97755918D01*
X144804805Y-100886480D02*
X144057029Y-100886480D01*
X144306288Y-100530396D02*
X144804805Y-100530396D01*
X144377504Y-100530396D02*
X144341896Y-100494787D01*
X144341896Y-100494787D02*
X144306288Y-100423570D01*
X144306288Y-100423570D02*
X144306288Y-100316745D01*
X144306288Y-100316745D02*
X144341896Y-100245529D01*
X144341896Y-100245529D02*
X144413113Y-100209920D01*
X144413113Y-100209920D02*
X144804805Y-100209920D01*
X144306288Y-99533361D02*
X144804805Y-99533361D01*
X144306288Y-99853837D02*
X144697980Y-99853837D01*
X144697980Y-99853837D02*
X144769197Y-99818228D01*
X144769197Y-99818228D02*
X144804805Y-99747011D01*
X144804805Y-99747011D02*
X144804805Y-99640186D01*
X144804805Y-99640186D02*
X144769197Y-99568970D01*
X144769197Y-99568970D02*
X144733588Y-99533361D01*
X144769197Y-99212886D02*
X144804805Y-99141669D01*
X144804805Y-99141669D02*
X144804805Y-98999236D01*
X144804805Y-98999236D02*
X144769197Y-98928019D01*
X144769197Y-98928019D02*
X144697980Y-98892411D01*
X144697980Y-98892411D02*
X144662371Y-98892411D01*
X144662371Y-98892411D02*
X144591155Y-98928019D01*
X144591155Y-98928019D02*
X144555546Y-98999236D01*
X144555546Y-98999236D02*
X144555546Y-99106061D01*
X144555546Y-99106061D02*
X144519938Y-99177278D01*
X144519938Y-99177278D02*
X144448721Y-99212886D01*
X144448721Y-99212886D02*
X144413113Y-99212886D01*
X144413113Y-99212886D02*
X144341896Y-99177278D01*
X144341896Y-99177278D02*
X144306288Y-99106061D01*
X144306288Y-99106061D02*
X144306288Y-98999236D01*
X144306288Y-98999236D02*
X144341896Y-98928019D01*
X144769197Y-98287069D02*
X144804805Y-98358285D01*
X144804805Y-98358285D02*
X144804805Y-98500719D01*
X144804805Y-98500719D02*
X144769197Y-98571936D01*
X144769197Y-98571936D02*
X144697980Y-98607544D01*
X144697980Y-98607544D02*
X144413113Y-98607544D01*
X144413113Y-98607544D02*
X144341896Y-98571936D01*
X144341896Y-98571936D02*
X144306288Y-98500719D01*
X144306288Y-98500719D02*
X144306288Y-98358285D01*
X144306288Y-98358285D02*
X144341896Y-98287069D01*
X144341896Y-98287069D02*
X144413113Y-98251460D01*
X144413113Y-98251460D02*
X144484329Y-98251460D01*
X144484329Y-98251460D02*
X144555546Y-98607544D01*
X152957329Y-92436005D02*
X152957329Y-92008704D01*
X153705105Y-92222354D02*
X152957329Y-92222354D01*
X153705105Y-91830662D02*
X153206588Y-91438970D01*
X153206588Y-91830662D02*
X153705105Y-91438970D01*
X153899529Y-100675805D02*
X154647305Y-100426546D01*
X154647305Y-100426546D02*
X153899529Y-100177287D01*
X154576088Y-99500728D02*
X154611697Y-99536336D01*
X154611697Y-99536336D02*
X154647305Y-99643162D01*
X154647305Y-99643162D02*
X154647305Y-99714378D01*
X154647305Y-99714378D02*
X154611697Y-99821203D01*
X154611697Y-99821203D02*
X154540480Y-99892420D01*
X154540480Y-99892420D02*
X154469263Y-99928029D01*
X154469263Y-99928029D02*
X154326829Y-99963637D01*
X154326829Y-99963637D02*
X154220004Y-99963637D01*
X154220004Y-99963637D02*
X154077571Y-99928029D01*
X154077571Y-99928029D02*
X154006354Y-99892420D01*
X154006354Y-99892420D02*
X153935137Y-99821203D01*
X153935137Y-99821203D02*
X153899529Y-99714378D01*
X153899529Y-99714378D02*
X153899529Y-99643162D01*
X153899529Y-99643162D02*
X153935137Y-99536336D01*
X153935137Y-99536336D02*
X153970746Y-99500728D01*
X154576088Y-98752952D02*
X154611697Y-98788560D01*
X154611697Y-98788560D02*
X154647305Y-98895386D01*
X154647305Y-98895386D02*
X154647305Y-98966602D01*
X154647305Y-98966602D02*
X154611697Y-99073427D01*
X154611697Y-99073427D02*
X154540480Y-99144644D01*
X154540480Y-99144644D02*
X154469263Y-99180253D01*
X154469263Y-99180253D02*
X154326829Y-99215861D01*
X154326829Y-99215861D02*
X154220004Y-99215861D01*
X154220004Y-99215861D02*
X154077571Y-99180253D01*
X154077571Y-99180253D02*
X154006354Y-99144644D01*
X154006354Y-99144644D02*
X153935137Y-99073427D01*
X153935137Y-99073427D02*
X153899529Y-98966602D01*
X153899529Y-98966602D02*
X153899529Y-98895386D01*
X153899529Y-98895386D02*
X153935137Y-98788560D01*
X153935137Y-98788560D02*
X153970746Y-98752952D01*
X149605105Y-92101879D02*
X149249021Y-92351138D01*
X149605105Y-92529180D02*
X148857329Y-92529180D01*
X148857329Y-92529180D02*
X148857329Y-92244313D01*
X148857329Y-92244313D02*
X148892937Y-92173096D01*
X148892937Y-92173096D02*
X148928546Y-92137487D01*
X148928546Y-92137487D02*
X148999762Y-92101879D01*
X148999762Y-92101879D02*
X149106588Y-92101879D01*
X149106588Y-92101879D02*
X149177804Y-92137487D01*
X149177804Y-92137487D02*
X149213413Y-92173096D01*
X149213413Y-92173096D02*
X149249021Y-92244313D01*
X149249021Y-92244313D02*
X149249021Y-92529180D01*
X149605105Y-91852620D02*
X149106588Y-91460928D01*
X149106588Y-91852620D02*
X149605105Y-91460928D01*
D11*
X156866666Y-82409819D02*
X156866666Y-83124104D01*
X156866666Y-83124104D02*
X156819047Y-83266961D01*
X156819047Y-83266961D02*
X156723809Y-83362200D01*
X156723809Y-83362200D02*
X156580952Y-83409819D01*
X156580952Y-83409819D02*
X156485714Y-83409819D01*
X157295238Y-82505057D02*
X157342857Y-82457438D01*
X157342857Y-82457438D02*
X157438095Y-82409819D01*
X157438095Y-82409819D02*
X157676190Y-82409819D01*
X157676190Y-82409819D02*
X157771428Y-82457438D01*
X157771428Y-82457438D02*
X157819047Y-82505057D01*
X157819047Y-82505057D02*
X157866666Y-82600295D01*
X157866666Y-82600295D02*
X157866666Y-82695533D01*
X157866666Y-82695533D02*
X157819047Y-82838390D01*
X157819047Y-82838390D02*
X157247619Y-83409819D01*
X157247619Y-83409819D02*
X157866666Y-83409819D01*
D12*
X154333320Y-95542636D02*
X155158820Y-95542636D01*
X155158820Y-95542636D02*
X155323920Y-95597669D01*
X155323920Y-95597669D02*
X155433987Y-95707736D01*
X155433987Y-95707736D02*
X155489020Y-95872836D01*
X155489020Y-95872836D02*
X155489020Y-95982903D01*
X155489020Y-94992303D02*
X154333320Y-94992303D01*
X154333320Y-94992303D02*
X154333320Y-94552036D01*
X154333320Y-94552036D02*
X154388353Y-94441970D01*
X154388353Y-94441970D02*
X154443387Y-94386936D01*
X154443387Y-94386936D02*
X154553453Y-94331903D01*
X154553453Y-94331903D02*
X154718553Y-94331903D01*
X154718553Y-94331903D02*
X154828620Y-94386936D01*
X154828620Y-94386936D02*
X154883653Y-94441970D01*
X154883653Y-94441970D02*
X154938687Y-94552036D01*
X154938687Y-94552036D02*
X154938687Y-94992303D01*
X154333320Y-93946670D02*
X154333320Y-93231236D01*
X154333320Y-93231236D02*
X154773587Y-93616470D01*
X154773587Y-93616470D02*
X154773587Y-93451370D01*
X154773587Y-93451370D02*
X154828620Y-93341303D01*
X154828620Y-93341303D02*
X154883653Y-93286270D01*
X154883653Y-93286270D02*
X154993720Y-93231236D01*
X154993720Y-93231236D02*
X155268887Y-93231236D01*
X155268887Y-93231236D02*
X155378953Y-93286270D01*
X155378953Y-93286270D02*
X155433987Y-93341303D01*
X155433987Y-93341303D02*
X155489020Y-93451370D01*
X155489020Y-93451370D02*
X155489020Y-93781570D01*
X155489020Y-93781570D02*
X155433987Y-93891636D01*
X155433987Y-93891636D02*
X155378953Y-93946670D01*
D13*
X137011704Y-90608669D02*
X136995860Y-90624514D01*
X136995860Y-90624514D02*
X136948325Y-90640358D01*
X136948325Y-90640358D02*
X136916636Y-90640358D01*
X136916636Y-90640358D02*
X136869102Y-90624514D01*
X136869102Y-90624514D02*
X136837412Y-90592824D01*
X136837412Y-90592824D02*
X136821567Y-90561134D01*
X136821567Y-90561134D02*
X136805723Y-90497755D01*
X136805723Y-90497755D02*
X136805723Y-90450221D01*
X136805723Y-90450221D02*
X136821567Y-90386842D01*
X136821567Y-90386842D02*
X136837412Y-90355153D01*
X136837412Y-90355153D02*
X136869102Y-90323463D01*
X136869102Y-90323463D02*
X136916636Y-90307618D01*
X136916636Y-90307618D02*
X136948325Y-90307618D01*
X136948325Y-90307618D02*
X136995860Y-90323463D01*
X136995860Y-90323463D02*
X137011704Y-90339308D01*
X137328600Y-90640358D02*
X137138463Y-90640358D01*
X137233531Y-90640358D02*
X137233531Y-90307618D01*
X137233531Y-90307618D02*
X137201842Y-90355153D01*
X137201842Y-90355153D02*
X137170152Y-90386842D01*
X137170152Y-90386842D02*
X137138463Y-90402687D01*
X137439513Y-90307618D02*
X137645495Y-90307618D01*
X137645495Y-90307618D02*
X137534581Y-90434376D01*
X137534581Y-90434376D02*
X137582116Y-90434376D01*
X137582116Y-90434376D02*
X137613805Y-90450221D01*
X137613805Y-90450221D02*
X137629650Y-90466066D01*
X137629650Y-90466066D02*
X137645495Y-90497755D01*
X137645495Y-90497755D02*
X137645495Y-90576979D01*
X137645495Y-90576979D02*
X137629650Y-90608669D01*
X137629650Y-90608669D02*
X137613805Y-90624514D01*
X137613805Y-90624514D02*
X137582116Y-90640358D01*
X137582116Y-90640358D02*
X137487047Y-90640358D01*
X137487047Y-90640358D02*
X137455358Y-90624514D01*
X137455358Y-90624514D02*
X137439513Y-90608669D01*
D14*
X152421509Y-61720307D02*
X152546139Y-61720307D01*
X152599551Y-61916153D02*
X152421509Y-61916153D01*
X152421509Y-61916153D02*
X152421509Y-61542265D01*
X152421509Y-61542265D02*
X152599551Y-61542265D01*
X153222698Y-61916153D02*
X153044656Y-61916153D01*
X153044656Y-61916153D02*
X153044656Y-61542265D01*
X153632194Y-61720307D02*
X153756824Y-61720307D01*
X153810236Y-61916153D02*
X153632194Y-61916153D01*
X153632194Y-61916153D02*
X153632194Y-61542265D01*
X153632194Y-61542265D02*
X153810236Y-61542265D01*
X154468992Y-61880544D02*
X154451188Y-61898349D01*
X154451188Y-61898349D02*
X154397775Y-61916153D01*
X154397775Y-61916153D02*
X154362167Y-61916153D01*
X154362167Y-61916153D02*
X154308754Y-61898349D01*
X154308754Y-61898349D02*
X154273146Y-61862740D01*
X154273146Y-61862740D02*
X154255341Y-61827132D01*
X154255341Y-61827132D02*
X154237537Y-61755915D01*
X154237537Y-61755915D02*
X154237537Y-61702502D01*
X154237537Y-61702502D02*
X154255341Y-61631286D01*
X154255341Y-61631286D02*
X154273146Y-61595677D01*
X154273146Y-61595677D02*
X154308754Y-61560069D01*
X154308754Y-61560069D02*
X154362167Y-61542265D01*
X154362167Y-61542265D02*
X154397775Y-61542265D01*
X154397775Y-61542265D02*
X154451188Y-61560069D01*
X154451188Y-61560069D02*
X154468992Y-61577873D01*
X154860684Y-61542265D02*
X155074334Y-61542265D01*
X154967509Y-61916153D02*
X154967509Y-61542265D01*
X155697481Y-61916153D02*
X155572851Y-61738111D01*
X155483830Y-61916153D02*
X155483830Y-61542265D01*
X155483830Y-61542265D02*
X155626264Y-61542265D01*
X155626264Y-61542265D02*
X155661872Y-61560069D01*
X155661872Y-61560069D02*
X155679677Y-61577873D01*
X155679677Y-61577873D02*
X155697481Y-61613481D01*
X155697481Y-61613481D02*
X155697481Y-61666894D01*
X155697481Y-61666894D02*
X155679677Y-61702502D01*
X155679677Y-61702502D02*
X155661872Y-61720307D01*
X155661872Y-61720307D02*
X155626264Y-61738111D01*
X155626264Y-61738111D02*
X155483830Y-61738111D01*
X156213802Y-61542265D02*
X156285019Y-61542265D01*
X156285019Y-61542265D02*
X156320627Y-61560069D01*
X156320627Y-61560069D02*
X156356236Y-61595677D01*
X156356236Y-61595677D02*
X156374040Y-61666894D01*
X156374040Y-61666894D02*
X156374040Y-61791523D01*
X156374040Y-61791523D02*
X156356236Y-61862740D01*
X156356236Y-61862740D02*
X156320627Y-61898349D01*
X156320627Y-61898349D02*
X156285019Y-61916153D01*
X156285019Y-61916153D02*
X156213802Y-61916153D01*
X156213802Y-61916153D02*
X156178194Y-61898349D01*
X156178194Y-61898349D02*
X156142585Y-61862740D01*
X156142585Y-61862740D02*
X156124781Y-61791523D01*
X156124781Y-61791523D02*
X156124781Y-61666894D01*
X156124781Y-61666894D02*
X156142585Y-61595677D01*
X156142585Y-61595677D02*
X156178194Y-61560069D01*
X156178194Y-61560069D02*
X156213802Y-61542265D01*
X156819144Y-61916153D02*
X156819144Y-61542265D01*
X156819144Y-61542265D02*
X157032795Y-61916153D01*
X157032795Y-61916153D02*
X157032795Y-61542265D01*
X157495703Y-61916153D02*
X157495703Y-61542265D01*
X158172263Y-61880544D02*
X158154459Y-61898349D01*
X158154459Y-61898349D02*
X158101046Y-61916153D01*
X158101046Y-61916153D02*
X158065438Y-61916153D01*
X158065438Y-61916153D02*
X158012025Y-61898349D01*
X158012025Y-61898349D02*
X157976417Y-61862740D01*
X157976417Y-61862740D02*
X157958612Y-61827132D01*
X157958612Y-61827132D02*
X157940808Y-61755915D01*
X157940808Y-61755915D02*
X157940808Y-61702502D01*
X157940808Y-61702502D02*
X157958612Y-61631286D01*
X157958612Y-61631286D02*
X157976417Y-61595677D01*
X157976417Y-61595677D02*
X158012025Y-61560069D01*
X158012025Y-61560069D02*
X158065438Y-61542265D01*
X158065438Y-61542265D02*
X158101046Y-61542265D01*
X158101046Y-61542265D02*
X158154459Y-61560069D01*
X158154459Y-61560069D02*
X158172263Y-61577873D01*
X158599563Y-61898349D02*
X158652976Y-61916153D01*
X158652976Y-61916153D02*
X158741997Y-61916153D01*
X158741997Y-61916153D02*
X158777605Y-61898349D01*
X158777605Y-61898349D02*
X158795409Y-61880544D01*
X158795409Y-61880544D02*
X158813214Y-61844936D01*
X158813214Y-61844936D02*
X158813214Y-61809328D01*
X158813214Y-61809328D02*
X158795409Y-61773719D01*
X158795409Y-61773719D02*
X158777605Y-61755915D01*
X158777605Y-61755915D02*
X158741997Y-61738111D01*
X158741997Y-61738111D02*
X158670780Y-61720307D01*
X158670780Y-61720307D02*
X158635172Y-61702502D01*
X158635172Y-61702502D02*
X158617367Y-61684698D01*
X158617367Y-61684698D02*
X158599563Y-61649090D01*
X158599563Y-61649090D02*
X158599563Y-61613481D01*
X158599563Y-61613481D02*
X158617367Y-61577873D01*
X158617367Y-61577873D02*
X158635172Y-61560069D01*
X158635172Y-61560069D02*
X158670780Y-61542265D01*
X158670780Y-61542265D02*
X158759801Y-61542265D01*
X158759801Y-61542265D02*
X158813214Y-61560069D01*
D15*
X160331415Y-63526148D02*
X160331415Y-63918324D01*
X160947692Y-63918324D02*
X159771164Y-63918324D01*
X159771164Y-63918324D02*
X159771164Y-63358072D01*
X160947692Y-62293594D02*
X160947692Y-62965896D01*
X160947692Y-62629745D02*
X159771164Y-62629745D01*
X159771164Y-62629745D02*
X159939239Y-62741795D01*
X159939239Y-62741795D02*
X160051289Y-62853846D01*
X160051289Y-62853846D02*
X160107315Y-62965896D01*
D13*
X135793486Y-103224564D02*
X135777642Y-103240409D01*
X135777642Y-103240409D02*
X135730107Y-103256253D01*
X135730107Y-103256253D02*
X135698418Y-103256253D01*
X135698418Y-103256253D02*
X135650884Y-103240409D01*
X135650884Y-103240409D02*
X135619194Y-103208719D01*
X135619194Y-103208719D02*
X135603349Y-103177029D01*
X135603349Y-103177029D02*
X135587505Y-103113650D01*
X135587505Y-103113650D02*
X135587505Y-103066116D01*
X135587505Y-103066116D02*
X135603349Y-103002737D01*
X135603349Y-103002737D02*
X135619194Y-102971048D01*
X135619194Y-102971048D02*
X135650884Y-102939358D01*
X135650884Y-102939358D02*
X135698418Y-102923513D01*
X135698418Y-102923513D02*
X135730107Y-102923513D01*
X135730107Y-102923513D02*
X135777642Y-102939358D01*
X135777642Y-102939358D02*
X135793486Y-102955203D01*
X135904400Y-102923513D02*
X136110382Y-102923513D01*
X136110382Y-102923513D02*
X135999468Y-103050271D01*
X135999468Y-103050271D02*
X136047003Y-103050271D01*
X136047003Y-103050271D02*
X136078692Y-103066116D01*
X136078692Y-103066116D02*
X136094537Y-103081961D01*
X136094537Y-103081961D02*
X136110382Y-103113650D01*
X136110382Y-103113650D02*
X136110382Y-103192874D01*
X136110382Y-103192874D02*
X136094537Y-103224564D01*
X136094537Y-103224564D02*
X136078692Y-103240409D01*
X136078692Y-103240409D02*
X136047003Y-103256253D01*
X136047003Y-103256253D02*
X135951934Y-103256253D01*
X135951934Y-103256253D02*
X135920245Y-103240409D01*
X135920245Y-103240409D02*
X135904400Y-103224564D01*
X137074358Y-61850386D02*
X136741618Y-61850386D01*
X136741618Y-61850386D02*
X136741618Y-61723628D01*
X136741618Y-61723628D02*
X136757463Y-61691938D01*
X136757463Y-61691938D02*
X136773308Y-61676093D01*
X136773308Y-61676093D02*
X136804997Y-61660249D01*
X136804997Y-61660249D02*
X136852532Y-61660249D01*
X136852532Y-61660249D02*
X136884221Y-61676093D01*
X136884221Y-61676093D02*
X136900066Y-61691938D01*
X136900066Y-61691938D02*
X136915911Y-61723628D01*
X136915911Y-61723628D02*
X136915911Y-61850386D01*
X136741618Y-61454267D02*
X136741618Y-61390888D01*
X136741618Y-61390888D02*
X136757463Y-61359198D01*
X136757463Y-61359198D02*
X136789153Y-61327509D01*
X136789153Y-61327509D02*
X136852532Y-61311664D01*
X136852532Y-61311664D02*
X136963445Y-61311664D01*
X136963445Y-61311664D02*
X137026824Y-61327509D01*
X137026824Y-61327509D02*
X137058514Y-61359198D01*
X137058514Y-61359198D02*
X137074358Y-61390888D01*
X137074358Y-61390888D02*
X137074358Y-61454267D01*
X137074358Y-61454267D02*
X137058514Y-61485956D01*
X137058514Y-61485956D02*
X137026824Y-61517646D01*
X137026824Y-61517646D02*
X136963445Y-61533490D01*
X136963445Y-61533490D02*
X136852532Y-61533490D01*
X136852532Y-61533490D02*
X136789153Y-61517646D01*
X136789153Y-61517646D02*
X136757463Y-61485956D01*
X136757463Y-61485956D02*
X136741618Y-61454267D01*
X136741618Y-61200750D02*
X137074358Y-61121526D01*
X137074358Y-61121526D02*
X136836687Y-61058147D01*
X136836687Y-61058147D02*
X137074358Y-60994768D01*
X137074358Y-60994768D02*
X136741618Y-60915545D01*
X136900066Y-60788787D02*
X136900066Y-60677873D01*
X137074358Y-60630339D02*
X137074358Y-60788787D01*
X137074358Y-60788787D02*
X136741618Y-60788787D01*
X136741618Y-60788787D02*
X136741618Y-60630339D01*
X137074358Y-60297600D02*
X136915911Y-60408513D01*
X137074358Y-60487737D02*
X136741618Y-60487737D01*
X136741618Y-60487737D02*
X136741618Y-60360979D01*
X136741618Y-60360979D02*
X136757463Y-60329289D01*
X136757463Y-60329289D02*
X136773308Y-60313444D01*
X136773308Y-60313444D02*
X136804997Y-60297600D01*
X136804997Y-60297600D02*
X136852532Y-60297600D01*
X136852532Y-60297600D02*
X136884221Y-60313444D01*
X136884221Y-60313444D02*
X136900066Y-60329289D01*
X136900066Y-60329289D02*
X136915911Y-60360979D01*
X136915911Y-60360979D02*
X136915911Y-60487737D01*
X136741618Y-60091618D02*
X136741618Y-60059928D01*
X136741618Y-60059928D02*
X136757463Y-60028239D01*
X136757463Y-60028239D02*
X136773308Y-60012394D01*
X136773308Y-60012394D02*
X136804997Y-59996549D01*
X136804997Y-59996549D02*
X136868376Y-59980704D01*
X136868376Y-59980704D02*
X136947600Y-59980704D01*
X136947600Y-59980704D02*
X137010979Y-59996549D01*
X137010979Y-59996549D02*
X137042669Y-60012394D01*
X137042669Y-60012394D02*
X137058514Y-60028239D01*
X137058514Y-60028239D02*
X137074358Y-60059928D01*
X137074358Y-60059928D02*
X137074358Y-60091618D01*
X137074358Y-60091618D02*
X137058514Y-60123307D01*
X137058514Y-60123307D02*
X137042669Y-60139152D01*
X137042669Y-60139152D02*
X137010979Y-60154997D01*
X137010979Y-60154997D02*
X136947600Y-60170841D01*
X136947600Y-60170841D02*
X136868376Y-60170841D01*
X136868376Y-60170841D02*
X136804997Y-60154997D01*
X136804997Y-60154997D02*
X136773308Y-60139152D01*
X136773308Y-60139152D02*
X136757463Y-60123307D01*
X136757463Y-60123307D02*
X136741618Y-60091618D01*
D11*
X158014266Y-96740819D02*
X158014266Y-97455104D01*
X158014266Y-97455104D02*
X157966647Y-97597961D01*
X157966647Y-97597961D02*
X157871409Y-97693200D01*
X157871409Y-97693200D02*
X157728552Y-97740819D01*
X157728552Y-97740819D02*
X157633314Y-97740819D01*
X159014266Y-97740819D02*
X158442838Y-97740819D01*
X158728552Y-97740819D02*
X158728552Y-96740819D01*
X158728552Y-96740819D02*
X158633314Y-96883676D01*
X158633314Y-96883676D02*
X158538076Y-96978914D01*
X158538076Y-96978914D02*
X158442838Y-97026533D01*
D13*
X137505053Y-64041913D02*
X137346606Y-64152826D01*
X137505053Y-64232050D02*
X137172313Y-64232050D01*
X137172313Y-64232050D02*
X137172313Y-64105292D01*
X137172313Y-64105292D02*
X137188158Y-64073602D01*
X137188158Y-64073602D02*
X137204003Y-64057757D01*
X137204003Y-64057757D02*
X137235692Y-64041913D01*
X137235692Y-64041913D02*
X137283227Y-64041913D01*
X137283227Y-64041913D02*
X137314916Y-64057757D01*
X137314916Y-64057757D02*
X137330761Y-64073602D01*
X137330761Y-64073602D02*
X137346606Y-64105292D01*
X137346606Y-64105292D02*
X137346606Y-64232050D01*
X137172313Y-63930999D02*
X137172313Y-63725017D01*
X137172313Y-63725017D02*
X137299071Y-63835931D01*
X137299071Y-63835931D02*
X137299071Y-63788396D01*
X137299071Y-63788396D02*
X137314916Y-63756707D01*
X137314916Y-63756707D02*
X137330761Y-63740862D01*
X137330761Y-63740862D02*
X137362450Y-63725017D01*
X137362450Y-63725017D02*
X137441674Y-63725017D01*
X137441674Y-63725017D02*
X137473364Y-63740862D01*
X137473364Y-63740862D02*
X137489209Y-63756707D01*
X137489209Y-63756707D02*
X137505053Y-63788396D01*
X137505053Y-63788396D02*
X137505053Y-63883465D01*
X137505053Y-63883465D02*
X137489209Y-63915154D01*
X137489209Y-63915154D02*
X137473364Y-63930999D01*
D15*
X152392775Y-86338464D02*
X152392775Y-87290891D01*
X152392775Y-87290891D02*
X152448800Y-87402941D01*
X152448800Y-87402941D02*
X152504826Y-87458967D01*
X152504826Y-87458967D02*
X152616876Y-87514992D01*
X152616876Y-87514992D02*
X152840976Y-87514992D01*
X152840976Y-87514992D02*
X152953027Y-87458967D01*
X152953027Y-87458967D02*
X153009052Y-87402941D01*
X153009052Y-87402941D02*
X153065077Y-87290891D01*
X153065077Y-87290891D02*
X153065077Y-86338464D01*
X153569303Y-86450514D02*
X153625328Y-86394489D01*
X153625328Y-86394489D02*
X153737379Y-86338464D01*
X153737379Y-86338464D02*
X154017504Y-86338464D01*
X154017504Y-86338464D02*
X154129555Y-86394489D01*
X154129555Y-86394489D02*
X154185580Y-86450514D01*
X154185580Y-86450514D02*
X154241605Y-86562564D01*
X154241605Y-86562564D02*
X154241605Y-86674615D01*
X154241605Y-86674615D02*
X154185580Y-86842690D01*
X154185580Y-86842690D02*
X153513278Y-87514992D01*
X153513278Y-87514992D02*
X154241605Y-87514992D01*
D13*
X138024553Y-98193350D02*
X137691813Y-98193350D01*
X137992864Y-97844765D02*
X138008709Y-97860609D01*
X138008709Y-97860609D02*
X138024553Y-97908144D01*
X138024553Y-97908144D02*
X138024553Y-97939833D01*
X138024553Y-97939833D02*
X138008709Y-97987367D01*
X138008709Y-97987367D02*
X137977019Y-98019057D01*
X137977019Y-98019057D02*
X137945329Y-98034902D01*
X137945329Y-98034902D02*
X137881950Y-98050746D01*
X137881950Y-98050746D02*
X137834416Y-98050746D01*
X137834416Y-98050746D02*
X137771037Y-98034902D01*
X137771037Y-98034902D02*
X137739348Y-98019057D01*
X137739348Y-98019057D02*
X137707658Y-97987367D01*
X137707658Y-97987367D02*
X137691813Y-97939833D01*
X137691813Y-97939833D02*
X137691813Y-97908144D01*
X137691813Y-97908144D02*
X137707658Y-97860609D01*
X137707658Y-97860609D02*
X137723503Y-97844765D01*
X138024553Y-97527869D02*
X138024553Y-97718006D01*
X138024553Y-97622938D02*
X137691813Y-97622938D01*
X137691813Y-97622938D02*
X137739348Y-97654627D01*
X137739348Y-97654627D02*
X137771037Y-97686317D01*
X137771037Y-97686317D02*
X137786882Y-97718006D01*
D12*
X160996900Y-105127258D02*
X160996900Y-105952758D01*
X160996900Y-105952758D02*
X160941867Y-106117858D01*
X160941867Y-106117858D02*
X160831800Y-106227925D01*
X160831800Y-106227925D02*
X160666700Y-106282958D01*
X160666700Y-106282958D02*
X160556634Y-106282958D01*
X161547233Y-106282958D02*
X161547233Y-105127258D01*
X161547233Y-105127258D02*
X161987500Y-105127258D01*
X161987500Y-105127258D02*
X162097567Y-105182291D01*
X162097567Y-105182291D02*
X162152600Y-105237325D01*
X162152600Y-105237325D02*
X162207633Y-105347391D01*
X162207633Y-105347391D02*
X162207633Y-105512491D01*
X162207633Y-105512491D02*
X162152600Y-105622558D01*
X162152600Y-105622558D02*
X162097567Y-105677591D01*
X162097567Y-105677591D02*
X161987500Y-105732625D01*
X161987500Y-105732625D02*
X161547233Y-105732625D01*
X162647900Y-105237325D02*
X162702933Y-105182291D01*
X162702933Y-105182291D02*
X162813000Y-105127258D01*
X162813000Y-105127258D02*
X163088167Y-105127258D01*
X163088167Y-105127258D02*
X163198233Y-105182291D01*
X163198233Y-105182291D02*
X163253267Y-105237325D01*
X163253267Y-105237325D02*
X163308300Y-105347391D01*
X163308300Y-105347391D02*
X163308300Y-105457458D01*
X163308300Y-105457458D02*
X163253267Y-105622558D01*
X163253267Y-105622558D02*
X162592867Y-106282958D01*
X162592867Y-106282958D02*
X163308300Y-106282958D01*
D13*
X164313853Y-64854113D02*
X164155406Y-64965026D01*
X164313853Y-65044250D02*
X163981113Y-65044250D01*
X163981113Y-65044250D02*
X163981113Y-64917492D01*
X163981113Y-64917492D02*
X163996958Y-64885802D01*
X163996958Y-64885802D02*
X164012803Y-64869957D01*
X164012803Y-64869957D02*
X164044492Y-64854113D01*
X164044492Y-64854113D02*
X164092027Y-64854113D01*
X164092027Y-64854113D02*
X164123716Y-64869957D01*
X164123716Y-64869957D02*
X164139561Y-64885802D01*
X164139561Y-64885802D02*
X164155406Y-64917492D01*
X164155406Y-64917492D02*
X164155406Y-65044250D01*
X164092027Y-64568907D02*
X164313853Y-64568907D01*
X163965269Y-64648131D02*
X164202940Y-64727354D01*
X164202940Y-64727354D02*
X164202940Y-64521373D01*
X161433069Y-61443261D02*
X161448914Y-61459105D01*
X161448914Y-61459105D02*
X161464758Y-61506640D01*
X161464758Y-61506640D02*
X161464758Y-61538329D01*
X161464758Y-61538329D02*
X161448914Y-61585863D01*
X161448914Y-61585863D02*
X161417224Y-61617553D01*
X161417224Y-61617553D02*
X161385534Y-61633398D01*
X161385534Y-61633398D02*
X161322155Y-61649242D01*
X161322155Y-61649242D02*
X161274621Y-61649242D01*
X161274621Y-61649242D02*
X161211242Y-61633398D01*
X161211242Y-61633398D02*
X161179553Y-61617553D01*
X161179553Y-61617553D02*
X161147863Y-61585863D01*
X161147863Y-61585863D02*
X161132018Y-61538329D01*
X161132018Y-61538329D02*
X161132018Y-61506640D01*
X161132018Y-61506640D02*
X161147863Y-61459105D01*
X161147863Y-61459105D02*
X161163708Y-61443261D01*
X161132018Y-61237279D02*
X161132018Y-61173900D01*
X161132018Y-61173900D02*
X161147863Y-61142210D01*
X161147863Y-61142210D02*
X161179553Y-61110521D01*
X161179553Y-61110521D02*
X161242932Y-61094676D01*
X161242932Y-61094676D02*
X161353845Y-61094676D01*
X161353845Y-61094676D02*
X161417224Y-61110521D01*
X161417224Y-61110521D02*
X161448914Y-61142210D01*
X161448914Y-61142210D02*
X161464758Y-61173900D01*
X161464758Y-61173900D02*
X161464758Y-61237279D01*
X161464758Y-61237279D02*
X161448914Y-61268968D01*
X161448914Y-61268968D02*
X161417224Y-61300658D01*
X161417224Y-61300658D02*
X161353845Y-61316502D01*
X161353845Y-61316502D02*
X161242932Y-61316502D01*
X161242932Y-61316502D02*
X161179553Y-61300658D01*
X161179553Y-61300658D02*
X161147863Y-61268968D01*
X161147863Y-61268968D02*
X161132018Y-61237279D01*
X161464758Y-60952073D02*
X161132018Y-60952073D01*
X161132018Y-60952073D02*
X161464758Y-60761936D01*
X161464758Y-60761936D02*
X161132018Y-60761936D01*
X161464758Y-60603488D02*
X161132018Y-60603488D01*
X161132018Y-60603488D02*
X161464758Y-60413351D01*
X161464758Y-60413351D02*
X161132018Y-60413351D01*
X161290466Y-60254903D02*
X161290466Y-60143989D01*
X161464758Y-60096455D02*
X161464758Y-60254903D01*
X161464758Y-60254903D02*
X161132018Y-60254903D01*
X161132018Y-60254903D02*
X161132018Y-60096455D01*
X161433069Y-59763716D02*
X161448914Y-59779560D01*
X161448914Y-59779560D02*
X161464758Y-59827095D01*
X161464758Y-59827095D02*
X161464758Y-59858784D01*
X161464758Y-59858784D02*
X161448914Y-59906318D01*
X161448914Y-59906318D02*
X161417224Y-59938008D01*
X161417224Y-59938008D02*
X161385534Y-59953853D01*
X161385534Y-59953853D02*
X161322155Y-59969697D01*
X161322155Y-59969697D02*
X161274621Y-59969697D01*
X161274621Y-59969697D02*
X161211242Y-59953853D01*
X161211242Y-59953853D02*
X161179553Y-59938008D01*
X161179553Y-59938008D02*
X161147863Y-59906318D01*
X161147863Y-59906318D02*
X161132018Y-59858784D01*
X161132018Y-59858784D02*
X161132018Y-59827095D01*
X161132018Y-59827095D02*
X161147863Y-59779560D01*
X161147863Y-59779560D02*
X161163708Y-59763716D01*
X161132018Y-59668647D02*
X161132018Y-59478510D01*
X161464758Y-59573578D02*
X161132018Y-59573578D01*
X161132018Y-59304218D02*
X161132018Y-59272528D01*
X161132018Y-59272528D02*
X161147863Y-59240839D01*
X161147863Y-59240839D02*
X161163708Y-59224994D01*
X161163708Y-59224994D02*
X161195397Y-59209149D01*
X161195397Y-59209149D02*
X161258776Y-59193304D01*
X161258776Y-59193304D02*
X161338000Y-59193304D01*
X161338000Y-59193304D02*
X161401379Y-59209149D01*
X161401379Y-59209149D02*
X161433069Y-59224994D01*
X161433069Y-59224994D02*
X161448914Y-59240839D01*
X161448914Y-59240839D02*
X161464758Y-59272528D01*
X161464758Y-59272528D02*
X161464758Y-59304218D01*
X161464758Y-59304218D02*
X161448914Y-59335907D01*
X161448914Y-59335907D02*
X161433069Y-59351752D01*
X161433069Y-59351752D02*
X161401379Y-59367597D01*
X161401379Y-59367597D02*
X161338000Y-59383441D01*
X161338000Y-59383441D02*
X161258776Y-59383441D01*
X161258776Y-59383441D02*
X161195397Y-59367597D01*
X161195397Y-59367597D02*
X161163708Y-59351752D01*
X161163708Y-59351752D02*
X161147863Y-59335907D01*
X161147863Y-59335907D02*
X161132018Y-59304218D01*
D12*
X130523020Y-89173036D02*
X131348520Y-89173036D01*
X131348520Y-89173036D02*
X131513620Y-89228069D01*
X131513620Y-89228069D02*
X131623687Y-89338136D01*
X131623687Y-89338136D02*
X131678720Y-89503236D01*
X131678720Y-89503236D02*
X131678720Y-89613303D01*
X131678720Y-88622703D02*
X130523020Y-88622703D01*
X130523020Y-88622703D02*
X130523020Y-88182436D01*
X130523020Y-88182436D02*
X130578053Y-88072370D01*
X130578053Y-88072370D02*
X130633087Y-88017336D01*
X130633087Y-88017336D02*
X130743153Y-87962303D01*
X130743153Y-87962303D02*
X130908253Y-87962303D01*
X130908253Y-87962303D02*
X131018320Y-88017336D01*
X131018320Y-88017336D02*
X131073353Y-88072370D01*
X131073353Y-88072370D02*
X131128387Y-88182436D01*
X131128387Y-88182436D02*
X131128387Y-88622703D01*
X131678720Y-86861636D02*
X131678720Y-87522036D01*
X131678720Y-87191836D02*
X130523020Y-87191836D01*
X130523020Y-87191836D02*
X130688120Y-87301903D01*
X130688120Y-87301903D02*
X130798187Y-87411970D01*
X130798187Y-87411970D02*
X130853220Y-87522036D01*
D16*
%TO.C,J2*%
X158530000Y-81955000D02*
X157200000Y-81955000D01*
X158530000Y-80625000D02*
X158530000Y-81955000D01*
X158530000Y-79355000D02*
X158530000Y-76755000D01*
X158530000Y-79355000D02*
X155870000Y-79355000D01*
X158530000Y-76755000D02*
X155870000Y-76755000D01*
X155870000Y-79355000D02*
X155870000Y-76755000D01*
D17*
%TO.C,JP3*%
X153706000Y-93480000D02*
X151674000Y-93480000D01*
X153706000Y-93480000D02*
X153960000Y-93734000D01*
X151166000Y-93480000D02*
X149134000Y-93480000D01*
X151420000Y-93734000D02*
X151674000Y-93480000D01*
X151420000Y-93734000D02*
X151166000Y-93480000D01*
X148880000Y-93734000D02*
X149134000Y-93480000D01*
X148880000Y-93734000D02*
X148880000Y-95766000D01*
X153960000Y-95766000D02*
X153960000Y-93734000D01*
X151420000Y-95766000D02*
X151674000Y-96020000D01*
X151420000Y-95766000D02*
X151166000Y-96020000D01*
X148880000Y-95766000D02*
X149134000Y-96020000D01*
X153706000Y-96020000D02*
X153960000Y-95766000D01*
X153706000Y-96020000D02*
X151674000Y-96020000D01*
X151166000Y-96020000D02*
X149134000Y-96020000D01*
D18*
%TO.C,X1*%
X155901100Y-68113600D02*
X155901100Y-53813600D01*
X155901100Y-53813600D02*
X141101100Y-53813600D01*
D17*
X153581100Y-61133600D02*
X152311100Y-55283600D01*
D19*
X152336100Y-64903600D02*
X152336100Y-62903600D01*
X152336100Y-62903600D02*
X151711100Y-62903600D01*
D17*
X152311100Y-55283600D02*
X151041100Y-55283600D01*
D19*
X151711100Y-64903600D02*
X152336100Y-64903600D01*
X151711100Y-64903600D02*
X150961100Y-64403600D01*
X151711100Y-63903600D02*
X151711100Y-64903600D01*
X151711100Y-63903600D02*
X150961100Y-63403600D01*
X151711100Y-62903600D02*
X151711100Y-63903600D01*
D17*
X151041100Y-55283600D02*
X149771100Y-61133600D01*
D19*
X150961100Y-64903600D02*
X151711100Y-64903600D01*
X150961100Y-64403600D02*
X151711100Y-63903600D01*
X150961100Y-63403600D02*
X151711100Y-62903600D01*
X150961100Y-62903600D02*
X151711100Y-62903600D01*
X150211100Y-64903600D02*
X150211100Y-62903600D01*
X150211100Y-62903600D02*
X148461100Y-62903600D01*
X149586100Y-64403600D02*
X148461100Y-64403600D01*
X149586100Y-64153600D02*
X149586100Y-64403600D01*
X149586100Y-63653600D02*
X148461100Y-63653600D01*
X149586100Y-63403600D02*
X149586100Y-63653600D01*
X148461100Y-64903600D02*
X150211100Y-64903600D01*
X148461100Y-64403600D02*
X148461100Y-64903600D01*
X148461100Y-64153600D02*
X149586100Y-64153600D01*
X148461100Y-63653600D02*
X148461100Y-64153600D01*
X148461100Y-63403600D02*
X149586100Y-63403600D01*
X148461100Y-62903600D02*
X148461100Y-63403600D01*
X148211100Y-64903600D02*
X148211100Y-62903600D01*
X148211100Y-64903600D02*
X146836100Y-64903600D01*
X148211100Y-62903600D02*
X147586100Y-62903600D01*
X147586100Y-64403600D02*
X147586100Y-64028600D01*
X147586100Y-64403600D02*
X147211100Y-64403600D01*
X147586100Y-64028600D02*
X147211100Y-64028600D01*
X147586100Y-63653600D02*
X147086100Y-62903600D01*
X147586100Y-62903600D02*
X147586100Y-63653600D01*
D17*
X147231100Y-61133600D02*
X145961100Y-55283600D01*
D19*
X147086100Y-62903600D02*
X146336100Y-62903600D01*
X146336100Y-62903600D02*
X146836100Y-63653600D01*
D17*
X145961100Y-55283600D02*
X144691100Y-55283600D01*
D19*
X144836100Y-63903600D02*
X144836100Y-63403600D01*
X144836100Y-63903600D02*
X144336100Y-63903600D01*
D17*
X144691100Y-55283600D02*
X143421100Y-61133600D01*
D19*
X144341100Y-64403600D02*
X144341100Y-64848600D01*
X144336100Y-63903600D02*
X144336100Y-63028600D01*
D18*
X141101100Y-68113600D02*
X155901100Y-68113600D01*
X141101100Y-53813600D02*
X141101100Y-68113600D01*
D19*
X150961100Y-64903600D02*
G75*
G02*
X150961100Y-63903600I0J500000D01*
G01*
X150961100Y-63903600D02*
G75*
G02*
X150961100Y-62903600I0J500000D01*
G01*
X147211100Y-64403600D02*
G75*
G02*
X147211100Y-64028600I0J187500D01*
G01*
X146836100Y-64903600D02*
G75*
G02*
X146836100Y-63653600I0J625000D01*
G01*
X145086100Y-64903600D02*
G75*
G02*
X144326100Y-64848599I-119600J3625700D01*
G01*
X145086100Y-62903600D02*
G75*
G02*
X145086100Y-64903600I0J-1000000D01*
G01*
X144836100Y-64403600D02*
G75*
G02*
X144336100Y-64403600I-250000J1875028D01*
G01*
X144836100Y-63403600D02*
G75*
G02*
X144836100Y-64403600I0J-500000D01*
G01*
X144336100Y-63028600D02*
G75*
G02*
X145086100Y-62903600I760400J-2249900D01*
G01*
D20*
%TO.C,POWER0*%
X135745100Y-60687600D02*
X135920100Y-60862600D01*
X135595100Y-60837600D02*
X135745100Y-60687600D01*
X135920100Y-60862600D02*
X135770100Y-61012600D01*
X135770100Y-61012600D02*
X135595100Y-60837600D01*
D21*
X136232600Y-60587600D02*
G75*
G02*
X136107600Y-60587600I-62500J0D01*
G01*
X136107600Y-60587600D02*
G75*
G02*
X136232600Y-60587600I62500J0D01*
G01*
D16*
%TO.C,J1*%
X159830000Y-92520000D02*
X158500000Y-92520000D01*
X159830000Y-91190000D02*
X159830000Y-92520000D01*
X159830000Y-89920000D02*
X159830000Y-84780000D01*
X159830000Y-89920000D02*
X157170000Y-89920000D01*
X159830000Y-84780000D02*
X157170000Y-84780000D01*
X157170000Y-89920000D02*
X157170000Y-84780000D01*
D22*
%TO.C,U2*%
X152627200Y-84387300D02*
X152627200Y-83997300D01*
X152627200Y-77577300D02*
X152627200Y-77187300D01*
X152627200Y-77187300D02*
X152237200Y-77187300D01*
X152237200Y-84387300D02*
X152627200Y-84387300D01*
X145817200Y-77187300D02*
X145427200Y-77187300D01*
X145427200Y-84387300D02*
X145817200Y-84387300D01*
X145427200Y-83997300D02*
X145427200Y-84387300D01*
X145427200Y-77187300D02*
X145427200Y-77577300D01*
D23*
X155177200Y-83737300D02*
G75*
G02*
X154877200Y-83737300I-150000J0D01*
G01*
X154877200Y-83737300D02*
G75*
G02*
X155177200Y-83737300I150000J0D01*
G01*
D24*
%TO.C,IC1*%
X140466600Y-94534100D02*
X140466600Y-101088100D01*
X136910600Y-94534100D02*
X140466600Y-94534100D01*
X140466600Y-101088100D02*
X136910600Y-101088100D01*
X136910600Y-101088100D02*
X136910600Y-94534100D01*
D17*
%TO.C,JP2*%
X163527431Y-103884369D02*
X163527431Y-102614369D01*
X163527431Y-102614369D02*
X162892431Y-101979369D01*
X162892431Y-104519369D02*
X163527431Y-103884369D01*
X162892431Y-104519369D02*
X161622431Y-104519369D01*
X161622431Y-104519369D02*
X160987431Y-103884369D01*
X161622431Y-101979369D02*
X162892431Y-101979369D01*
X160987431Y-103884369D02*
X160987431Y-102614369D01*
X160987431Y-103884369D02*
X160352431Y-104519369D01*
X160987431Y-102614369D02*
X161622431Y-101979369D01*
X160352431Y-104519369D02*
X159082431Y-104519369D01*
X160352431Y-101979369D02*
X160987431Y-102614369D01*
X159082431Y-104519369D02*
X158447431Y-103884369D01*
X159082431Y-101979369D02*
X160352431Y-101979369D01*
X158447431Y-103884369D02*
X158447431Y-102614369D01*
X158447431Y-103884369D02*
X157812431Y-104519369D01*
X158447431Y-102614369D02*
X159082431Y-101979369D01*
X157812431Y-104519369D02*
X156542431Y-104519369D01*
X157812431Y-101979369D02*
X158447431Y-102614369D01*
X156542431Y-104519369D02*
X155907431Y-103884369D01*
X156542431Y-101979369D02*
X157812431Y-101979369D01*
X155907431Y-103884369D02*
X155907431Y-102614369D01*
X155907431Y-102614369D02*
X156542431Y-101979369D01*
X155907431Y-102614369D02*
X155272431Y-101979369D01*
X155272431Y-104519369D02*
X155907431Y-103884369D01*
X155272431Y-104519369D02*
X154002431Y-104519369D01*
X154002431Y-104519369D02*
X153367431Y-103884369D01*
X154002431Y-101979369D02*
X155272431Y-101979369D01*
X153367431Y-103884369D02*
X153367431Y-102614369D01*
X153367431Y-103884369D02*
X152732431Y-104519369D01*
X153367431Y-102614369D02*
X154002431Y-101979369D01*
X152732431Y-104519369D02*
X151462431Y-104519369D01*
X152732431Y-101979369D02*
X153367431Y-102614369D01*
X151462431Y-104519369D02*
X150827431Y-103884369D01*
X151462431Y-101979369D02*
X152732431Y-101979369D01*
X150827431Y-103884369D02*
X150827431Y-102614369D01*
X150827431Y-103884369D02*
X150192431Y-104519369D01*
X150827431Y-102614369D02*
X151462431Y-101979369D01*
X150192431Y-104519369D02*
X148922431Y-104519369D01*
X150192431Y-101979369D02*
X150827431Y-102614369D01*
X148922431Y-104519369D02*
X148287431Y-103884369D01*
X148922431Y-101979369D02*
X150192431Y-101979369D01*
X148287431Y-103884369D02*
X148287431Y-102614369D01*
X148287431Y-102614369D02*
X148922431Y-101979369D01*
X148287431Y-102614369D02*
X147652431Y-101979369D01*
X147652431Y-104519369D02*
X148287431Y-103884369D01*
X147652431Y-104519369D02*
X146382431Y-104519369D01*
X146382431Y-104519369D02*
X145747431Y-103884369D01*
X146382431Y-101979369D02*
X147652431Y-101979369D01*
X145747431Y-103884369D02*
X145747431Y-102614369D01*
X145747431Y-102614369D02*
X146382431Y-101979369D01*
X145747431Y-102614369D02*
X145112431Y-101979369D01*
X145112431Y-104519369D02*
X145747431Y-103884369D01*
X145112431Y-104519369D02*
X143842431Y-104519369D01*
X143842431Y-104519369D02*
X143207431Y-103884369D01*
X143842431Y-101979369D02*
X145112431Y-101979369D01*
X143207431Y-103884369D02*
X143207431Y-102614369D01*
X143207431Y-102614369D02*
X143842431Y-101979369D01*
D20*
%TO.C,CONNECT0*%
X162747900Y-60611400D02*
X162922900Y-60786400D01*
X162597900Y-60761400D02*
X162747900Y-60611400D01*
X162922900Y-60786400D02*
X162772900Y-60936400D01*
X162772900Y-60936400D02*
X162597900Y-60761400D01*
D21*
X163235400Y-60511400D02*
G75*
G02*
X163110400Y-60511400I-62500J0D01*
G01*
X163110400Y-60511400D02*
G75*
G02*
X163235400Y-60511400I62500J0D01*
G01*
D17*
%TO.C,JP1*%
X133096100Y-89853600D02*
X132461100Y-89218600D01*
X136906100Y-89853600D02*
X133096100Y-89853600D01*
X136906100Y-89853600D02*
X137541100Y-89218600D01*
X132461100Y-89218600D02*
X132461100Y-87948600D01*
X137541100Y-89218600D02*
X137541100Y-87948600D01*
X132461100Y-87948600D02*
X133096100Y-87313600D01*
X137541100Y-87948600D02*
X136906100Y-87313600D01*
X133096100Y-87313600D02*
X136906100Y-87313600D01*
X133096100Y-87313600D02*
X132461100Y-86678600D01*
X136906100Y-87313600D02*
X137541100Y-86678600D01*
X132461100Y-86678600D02*
X132461100Y-85408600D01*
X137541100Y-86678600D02*
X137541100Y-85408600D01*
X132461100Y-85408600D02*
X133096100Y-84773600D01*
X137541100Y-85408600D02*
X136906100Y-84773600D01*
X133096100Y-84773600D02*
X136906100Y-84773600D01*
X133096100Y-84773600D02*
X132461100Y-84138600D01*
X136906100Y-84773600D02*
X137541100Y-84138600D01*
X132461100Y-84138600D02*
X132461100Y-82868600D01*
X137541100Y-84138600D02*
X137541100Y-82868600D01*
X132461100Y-82868600D02*
X133096100Y-82233600D01*
X137541100Y-82868600D02*
X136906100Y-82233600D01*
X133096100Y-82233600D02*
X136906100Y-82233600D01*
X133096100Y-82233600D02*
X132461100Y-81598600D01*
X136906100Y-82233600D02*
X137541100Y-81598600D01*
X132461100Y-81598600D02*
X132461100Y-80328600D01*
X137541100Y-81598600D02*
X137541100Y-80328600D01*
X132461100Y-80328600D02*
X133096100Y-79693600D01*
X137541100Y-80328600D02*
X136906100Y-79693600D01*
X133096100Y-79693600D02*
X136906100Y-79693600D01*
X133096100Y-79693600D02*
X132461100Y-79058600D01*
X136906100Y-79693600D02*
X137541100Y-79058600D01*
X132461100Y-79058600D02*
X132461100Y-77788600D01*
X137541100Y-79058600D02*
X137541100Y-77788600D01*
X132461100Y-77788600D02*
X133096100Y-77153600D01*
X137541100Y-77788600D02*
X136906100Y-77153600D01*
X133096100Y-77153600D02*
X136906100Y-77153600D01*
%TD*%
M02*
