M48
; DRILL file {KiCad 8.0.6} date 2024-11-27T18:57:54+0000
; FORMAT={-:-/ absolute / inch / decimal}
; #@! TF.CreationDate,2024-11-27T18:57:54+00:00
; #@! TF.GenerationSoftware,Kicad,Pcbnew,8.0.6
; #@! TF.FileFunction,Plated,1,4,PTH
FMAT,2
INCH
; #@! TA.AperFunction,Plated,PTH,ViaDrill
T1C0.0118
; #@! TA.AperFunction,Plated,PTH,ViaDrill
T2C0.0138
; #@! TA.AperFunction,Plated,PTH,ViaDrill
T3C0.0197
; #@! TA.AperFunction,Plated,PTH,ComponentDrill
T4C0.0360
; #@! TA.AperFunction,Plated,PTH,ComponentDrill
T5C0.0374
; #@! TA.AperFunction,Plated,PTH,ComponentDrill
T6C0.0394
; #@! TA.AperFunction,Plated,PTH,ComponentDrill
T7C0.0400
; #@! TA.AperFunction,Plated,PTH,ComponentDrill
T8C0.0906
%
G90
G05
T1
X5.824Y-3.264
X5.828Y-3.512
X5.848Y-3.294
X5.8515Y-3.5331
X5.8927Y-3.3987
X5.9488Y-3.2008
X6.0118Y-3.4667
X6.0972Y-3.1063
T2
X5.3352Y-3.6246
X5.3382Y-3.7116
X5.3472Y-2.3046
X5.3952Y-4.0626
X5.4162Y-3.9426
X5.5062Y-3.6816
X5.5092Y-2.9766
X5.5812Y-3.7566
X5.6382Y-3.2586
X5.7042Y-3.4596
X5.7132Y-3.8676
X5.7146Y-3.4055
X5.7162Y-3.7986
X5.7582Y-2.9556
X5.7702Y-3.2826
X5.7792Y-3.0816
X5.8002Y-3.4386
X5.8002Y-3.4866
X5.9504Y-3.2858
X5.9705Y-3.1457
X5.9862Y-3.4086
X5.9952Y-2.9436
X6.0942Y-3.2886
X6.0972Y-3.0396
X6.2022Y-2.3526
X6.2892Y-2.8236
X6.4032Y-2.2686
T3
X5.5032Y-4.0576
X5.6332Y-3.9651
X6.3207Y-4.7026
T4
X5.9114Y-3.7303
X6.0114Y-3.7303
T5
X5.7087Y-2.6265
X5.8071Y-2.6265
X5.8859Y-2.6265
X5.9843Y-2.6265
T6
X6.189Y-3.0742
X6.189Y-3.1742
X6.2402Y-3.3902
X6.2402Y-3.4902
X6.2402Y-3.5902
T7
X5.265Y-3.0875
X5.265Y-3.1875
X5.265Y-3.2875
X5.265Y-3.3875
X5.265Y-3.4875
X5.365Y-3.0875
X5.365Y-3.1875
X5.365Y-3.2875
X5.365Y-3.3875
X5.365Y-3.4875
X5.6881Y-4.0649
X5.7881Y-4.0649
X5.8881Y-4.0649
X5.9881Y-4.0649
X6.0881Y-4.0649
X6.1881Y-4.0649
X6.2881Y-4.0649
X6.3881Y-4.0649
T8
X5.5878Y-2.5198
X6.1052Y-2.5198
M30
