%TF.GenerationSoftware,KiCad,Pcbnew,8.0.6*%
%TF.CreationDate,2024-11-27T18:57:57+00:00*%
%TF.ProjectId,wmk,776d6b2e-6b69-4636-9164-5f7063625858,rev?*%
%TF.SameCoordinates,Original*%
%TF.FileFunction,Copper,L3,Inr*%
%TF.FilePolarity,Positive*%
%FSLAX46Y46*%
G04 Gerber Fmt 4.6, Leading zero omitted, Abs format (unit mm)*
G04 Created by KiCad (PCBNEW 8.0.6) date 2024-11-27 18:57:57*
%MOMM*%
%LPD*%
G01*
G04 APERTURE LIST*
G04 Aperture macros list*
%AMOutline5P*
0 Free polygon, 5 corners , with rotation*
0 The origin of the aperture is its center*
0 number of corners: always 5*
0 $1 to $10 corner X, Y*
0 $11 Rotation angle, in degrees counterclockwise*
0 create outline with 5 corners*
4,1,5,$1,$2,$3,$4,$5,$6,$7,$8,$9,$10,$1,$2,$11*%
%AMOutline6P*
0 Free polygon, 6 corners , with rotation*
0 The origin of the aperture is its center*
0 number of corners: always 6*
0 $1 to $12 corner X, Y*
0 $13 Rotation angle, in degrees counterclockwise*
0 create outline with 6 corners*
4,1,6,$1,$2,$3,$4,$5,$6,$7,$8,$9,$10,$11,$12,$1,$2,$13*%
%AMOutline7P*
0 Free polygon, 7 corners , with rotation*
0 The origin of the aperture is its center*
0 number of corners: always 7*
0 $1 to $14 corner X, Y*
0 $15 Rotation angle, in degrees counterclockwise*
0 create outline with 7 corners*
4,1,7,$1,$2,$3,$4,$5,$6,$7,$8,$9,$10,$11,$12,$13,$14,$1,$2,$15*%
%AMOutline8P*
0 Free polygon, 8 corners , with rotation*
0 The origin of the aperture is its center*
0 number of corners: always 8*
0 $1 to $16 corner X, Y*
0 $17 Rotation angle, in degrees counterclockwise*
0 create outline with 8 corners*
4,1,8,$1,$2,$3,$4,$5,$6,$7,$8,$9,$10,$11,$12,$13,$14,$15,$16,$1,$2,$17*%
G04 Aperture macros list end*
%TA.AperFunction,ComponentPad*%
%ADD10R,1.700000X1.700000*%
%TD*%
%TA.AperFunction,ComponentPad*%
%ADD11O,1.700000X1.700000*%
%TD*%
%TA.AperFunction,ComponentPad*%
%ADD12O,1.422400X2.844800*%
%TD*%
%TA.AperFunction,ComponentPad*%
%ADD13O,1.458000X2.916000*%
%TD*%
%TA.AperFunction,ComponentPad*%
%ADD14C,2.900000*%
%TD*%
%TA.AperFunction,ComponentPad*%
%ADD15O,1.524000X3.048000*%
%TD*%
%TA.AperFunction,ComponentPad*%
%ADD16Outline8P,-0.762000X0.315631X-0.315631X0.762000X0.315631X0.762000X0.762000X0.315631X0.762000X-0.315631X0.315631X-0.762000X-0.315631X-0.762000X-0.762000X-0.315631X90.000000*%
%TD*%
%TA.AperFunction,ViaPad*%
%ADD17C,0.600000*%
%TD*%
%TA.AperFunction,ViaPad*%
%ADD18C,0.756400*%
%TD*%
%TA.AperFunction,ViaPad*%
%ADD19C,0.906400*%
%TD*%
G04 APERTURE END LIST*
D10*
%TO.N,/SWCLK*%
%TO.C,J2*%
X157200000Y-80625000D03*
D11*
%TO.N,/SWDIO*%
X157200000Y-78085000D03*
%TD*%
D12*
%TO.N,/RX*%
%TO.C,JP3*%
X150150000Y-94750000D03*
%TO.N,/TX*%
X152690000Y-94750000D03*
%TD*%
D13*
%TO.N,Net-(F1-Pad2)*%
%TO.C,X1*%
X152001100Y-66713600D03*
%TO.N,/USB_DM*%
X149501100Y-66713600D03*
%TO.N,/USB_DP*%
X147501100Y-66713600D03*
%TO.N,GND*%
X145001100Y-66713600D03*
D14*
%TO.N,unconnected-(X1-PadS1)*%
X155071100Y-64003600D03*
%TO.N,unconnected-(X1-PadS2)*%
X141931100Y-64003600D03*
%TD*%
D10*
%TO.N,GND*%
%TO.C,J1*%
X158500000Y-91190000D03*
D11*
%TO.N,Net-(J1-Pin_2)*%
X158500000Y-88650000D03*
%TO.N,VDD*%
X158500000Y-86110000D03*
%TD*%
D15*
%TO.N,/CLOCK*%
%TO.C,JP2*%
X162257431Y-103249369D03*
%TO.N,/DATA*%
X159717431Y-103249369D03*
%TO.N,/RESET*%
X157177431Y-103249369D03*
%TO.N,VCC*%
X154637431Y-103249369D03*
%TO.N,unconnected-(JP2-Pad5)*%
X152097431Y-103249369D03*
%TO.N,GND*%
X149557431Y-103249369D03*
%TO.N,/STATUS*%
X147017431Y-103249369D03*
%TO.N,/INUSE*%
X144477431Y-103249369D03*
%TD*%
D16*
%TO.N,Net-(U2-PB15)*%
%TO.C,JP1*%
X136271100Y-88583600D03*
%TO.N,Net-(U2-PB9)*%
X133731100Y-88583600D03*
%TO.N,VCC*%
X136271100Y-86043600D03*
%TO.N,Net-(U2-PB8)*%
X133731100Y-86043600D03*
%TO.N,GND*%
X136271100Y-83503600D03*
%TO.N,Net-(U2-PB5)*%
X133731100Y-83503600D03*
%TO.N,Net-(U2-PB14)*%
X136271100Y-80963600D03*
%TO.N,Net-(U2-PB4)*%
X133731100Y-80963600D03*
%TO.N,Net-(U2-PB13)*%
X136271100Y-78423600D03*
%TO.N,Net-(U2-PB3)*%
X133731100Y-78423600D03*
%TD*%
D17*
%TO.N,VDD*%
X154869200Y-78900000D03*
%TO.N,/SWCLK*%
X152700000Y-88053200D03*
%TO.N,/NRST*%
X151100000Y-81300000D03*
D18*
%TO.N,GND*%
X151140550Y-83459450D03*
X151650000Y-79900000D03*
X146792000Y-78272700D03*
X143210600Y-82768500D03*
X135590600Y-94274700D03*
X135819200Y-58536900D03*
D19*
X160546100Y-119446100D03*
X143083600Y-100713600D03*
D18*
X135514400Y-92064900D03*
D19*
X139781600Y-103063100D03*
D18*
%TO.N,VDD*%
X139857800Y-93512700D03*
X154793000Y-83530500D03*
X139934000Y-75605700D03*
X146563400Y-83378100D03*
X159746000Y-71719500D03*
X141762800Y-95417700D03*
X152049800Y-86578500D03*
X146258600Y-75072300D03*
%TO.N,VCC*%
X157536200Y-59756100D03*
X137038400Y-103190100D03*
X137571800Y-100142100D03*
%TO.N,Net-(U2-PA3)*%
X152278400Y-74767500D03*
X162641600Y-57622500D03*
%TO.N,Net-(U2-PB3)*%
X144887000Y-87873900D03*
%TO.N,Net-(U2-PB4)*%
X147325400Y-87340500D03*
%TO.N,Net-(U2-PB5)*%
X147325400Y-88559700D03*
D17*
%TO.N,Net-(U2-PB8)*%
X148031200Y-89204800D03*
%TO.N,Net-(U2-PB9)*%
X148627844Y-89741779D03*
D18*
%TO.N,/TX*%
X145115600Y-98237100D03*
%TO.N,/RX*%
X145191800Y-96484500D03*
%TO.N,/SWCLK*%
X145150000Y-86500000D03*
D17*
%TO.N,Net-(U2-BOOT0)*%
X149674500Y-86326084D03*
%TO.N,/USB_DP*%
X147929600Y-82905600D03*
%TO.N,/USB_DM*%
X148539200Y-83667600D03*
D18*
%TO.N,unconnected-(U2-PA2-Pad12)*%
X154869200Y-77205900D03*
%TD*%
%TA.AperFunction,Conductor*%
%TO.N,GND*%
G36*
X164376094Y-55060506D02*
G01*
X164394400Y-55104700D01*
X164394400Y-154902500D01*
X164376094Y-154946694D01*
X164331900Y-154965000D01*
X131332200Y-154965000D01*
X131288006Y-154946694D01*
X131269700Y-154902500D01*
X131269700Y-103190096D01*
X136349880Y-103190096D01*
X136349880Y-103190103D01*
X136369885Y-103354866D01*
X136369887Y-103354877D01*
X136404238Y-103445450D01*
X136428746Y-103510071D01*
X136523035Y-103646673D01*
X136647276Y-103756741D01*
X136794247Y-103833877D01*
X136955408Y-103873600D01*
X137121392Y-103873600D01*
X137282553Y-103833877D01*
X137429524Y-103756741D01*
X137553765Y-103646673D01*
X137648054Y-103510071D01*
X137706913Y-103354874D01*
X137726920Y-103190100D01*
X137706913Y-103025326D01*
X137706912Y-103025324D01*
X137706912Y-103025322D01*
X137648055Y-102870132D01*
X137648054Y-102870129D01*
X137553765Y-102733527D01*
X137429524Y-102623459D01*
X137429523Y-102623458D01*
X137282555Y-102546324D01*
X137282554Y-102546323D01*
X137282553Y-102546323D01*
X137174109Y-102519593D01*
X137121393Y-102506600D01*
X137121392Y-102506600D01*
X136955408Y-102506600D01*
X136955406Y-102506600D01*
X136849972Y-102532587D01*
X136794247Y-102546323D01*
X136794246Y-102546323D01*
X136794244Y-102546324D01*
X136647276Y-102623458D01*
X136523036Y-102733525D01*
X136428744Y-102870132D01*
X136369887Y-103025322D01*
X136369885Y-103025333D01*
X136349880Y-103190096D01*
X131269700Y-103190096D01*
X131269700Y-102382248D01*
X143410131Y-102382248D01*
X143410131Y-104116489D01*
X143451146Y-104322687D01*
X143451146Y-104322688D01*
X143531347Y-104516309D01*
X143531602Y-104516925D01*
X143648405Y-104691733D01*
X143797067Y-104840395D01*
X143971875Y-104957198D01*
X144166111Y-105037653D01*
X144372311Y-105078669D01*
X144582551Y-105078669D01*
X144788751Y-105037653D01*
X144982987Y-104957198D01*
X145157795Y-104840395D01*
X145306457Y-104691733D01*
X145423260Y-104516925D01*
X145503715Y-104322689D01*
X145544731Y-104116489D01*
X145544731Y-102382249D01*
X145544731Y-102382248D01*
X145950131Y-102382248D01*
X145950131Y-104116489D01*
X145991146Y-104322687D01*
X145991146Y-104322688D01*
X146071347Y-104516309D01*
X146071602Y-104516925D01*
X146188405Y-104691733D01*
X146337067Y-104840395D01*
X146511875Y-104957198D01*
X146706111Y-105037653D01*
X146912311Y-105078669D01*
X147122551Y-105078669D01*
X147328751Y-105037653D01*
X147522987Y-104957198D01*
X147697795Y-104840395D01*
X147846457Y-104691733D01*
X147963260Y-104516925D01*
X148043715Y-104322689D01*
X148084731Y-104116489D01*
X148084731Y-102382376D01*
X148491431Y-102382376D01*
X148491431Y-103097369D01*
X149072239Y-103097369D01*
X149049431Y-103182489D01*
X149049431Y-103316249D01*
X149072239Y-103401369D01*
X148491431Y-103401369D01*
X148491431Y-104116361D01*
X148532396Y-104322308D01*
X148532396Y-104322309D01*
X148612754Y-104516309D01*
X148612755Y-104516311D01*
X148729414Y-104690903D01*
X148877896Y-104839385D01*
X149052488Y-104956044D01*
X149052490Y-104956045D01*
X149246488Y-105036402D01*
X149246491Y-105036403D01*
X149405430Y-105068018D01*
X149405431Y-105068017D01*
X149405431Y-103734561D01*
X149490551Y-103757369D01*
X149624311Y-103757369D01*
X149709431Y-103734561D01*
X149709431Y-105068018D01*
X149868370Y-105036403D01*
X149868373Y-105036402D01*
X150062371Y-104956045D01*
X150062373Y-104956044D01*
X150236965Y-104839385D01*
X150385447Y-104690903D01*
X150502106Y-104516311D01*
X150502107Y-104516309D01*
X150582465Y-104322309D01*
X150582465Y-104322308D01*
X150623430Y-104116361D01*
X150623431Y-104116361D01*
X150623431Y-103401369D01*
X150042623Y-103401369D01*
X150065431Y-103316249D01*
X150065431Y-103182489D01*
X150042623Y-103097369D01*
X150623431Y-103097369D01*
X150623431Y-102382377D01*
X150623430Y-102382376D01*
X150623405Y-102382248D01*
X151030131Y-102382248D01*
X151030131Y-104116489D01*
X151071146Y-104322687D01*
X151071146Y-104322688D01*
X151151347Y-104516309D01*
X151151602Y-104516925D01*
X151268405Y-104691733D01*
X151417067Y-104840395D01*
X151591875Y-104957198D01*
X151786111Y-105037653D01*
X151992311Y-105078669D01*
X152202551Y-105078669D01*
X152408751Y-105037653D01*
X152602987Y-104957198D01*
X152777795Y-104840395D01*
X152926457Y-104691733D01*
X153043260Y-104516925D01*
X153123715Y-104322689D01*
X153164731Y-104116489D01*
X153164731Y-102382249D01*
X153164731Y-102382248D01*
X153570131Y-102382248D01*
X153570131Y-104116489D01*
X153611146Y-104322687D01*
X153611146Y-104322688D01*
X153691347Y-104516309D01*
X153691602Y-104516925D01*
X153808405Y-104691733D01*
X153957067Y-104840395D01*
X154131875Y-104957198D01*
X154326111Y-105037653D01*
X154532311Y-105078669D01*
X154742551Y-105078669D01*
X154948751Y-105037653D01*
X155142987Y-104957198D01*
X155317795Y-104840395D01*
X155466457Y-104691733D01*
X155583260Y-104516925D01*
X155663715Y-104322689D01*
X155704731Y-104116489D01*
X155704731Y-102382249D01*
X155704731Y-102382248D01*
X156110131Y-102382248D01*
X156110131Y-104116489D01*
X156151146Y-104322687D01*
X156151146Y-104322688D01*
X156231347Y-104516309D01*
X156231602Y-104516925D01*
X156348405Y-104691733D01*
X156497067Y-104840395D01*
X156671875Y-104957198D01*
X156866111Y-105037653D01*
X157072311Y-105078669D01*
X157282551Y-105078669D01*
X157488751Y-105037653D01*
X157682987Y-104957198D01*
X157857795Y-104840395D01*
X158006457Y-104691733D01*
X158123260Y-104516925D01*
X158203715Y-104322689D01*
X158244731Y-104116489D01*
X158244731Y-102382249D01*
X158244731Y-102382248D01*
X158650131Y-102382248D01*
X158650131Y-104116489D01*
X158691146Y-104322687D01*
X158691146Y-104322688D01*
X158771347Y-104516309D01*
X158771602Y-104516925D01*
X158888405Y-104691733D01*
X159037067Y-104840395D01*
X159211875Y-104957198D01*
X159406111Y-105037653D01*
X159612311Y-105078669D01*
X159822551Y-105078669D01*
X160028751Y-105037653D01*
X160222987Y-104957198D01*
X160397795Y-104840395D01*
X160546457Y-104691733D01*
X160663260Y-104516925D01*
X160743715Y-104322689D01*
X160784731Y-104116489D01*
X160784731Y-102382249D01*
X160784731Y-102382248D01*
X161190131Y-102382248D01*
X161190131Y-104116489D01*
X161231146Y-104322687D01*
X161231146Y-104322688D01*
X161311347Y-104516309D01*
X161311602Y-104516925D01*
X161428405Y-104691733D01*
X161577067Y-104840395D01*
X161751875Y-104957198D01*
X161946111Y-105037653D01*
X162152311Y-105078669D01*
X162362551Y-105078669D01*
X162568751Y-105037653D01*
X162762987Y-104957198D01*
X162937795Y-104840395D01*
X163086457Y-104691733D01*
X163203260Y-104516925D01*
X163283715Y-104322689D01*
X163324731Y-104116489D01*
X163324731Y-102382249D01*
X163283715Y-102176049D01*
X163203260Y-101981813D01*
X163086457Y-101807005D01*
X162937795Y-101658343D01*
X162764713Y-101542693D01*
X162762989Y-101541541D01*
X162762987Y-101541540D01*
X162568749Y-101461084D01*
X162362551Y-101420069D01*
X162152311Y-101420069D01*
X161946112Y-101461084D01*
X161946111Y-101461084D01*
X161751874Y-101541540D01*
X161751872Y-101541541D01*
X161577067Y-101658342D01*
X161428404Y-101807005D01*
X161311603Y-101981810D01*
X161311602Y-101981812D01*
X161231146Y-102176049D01*
X161231146Y-102176050D01*
X161190131Y-102382248D01*
X160784731Y-102382248D01*
X160743715Y-102176049D01*
X160663260Y-101981813D01*
X160546457Y-101807005D01*
X160397795Y-101658343D01*
X160224713Y-101542693D01*
X160222989Y-101541541D01*
X160222987Y-101541540D01*
X160028749Y-101461084D01*
X159822551Y-101420069D01*
X159612311Y-101420069D01*
X159406112Y-101461084D01*
X159406111Y-101461084D01*
X159211874Y-101541540D01*
X159211872Y-101541541D01*
X159037067Y-101658342D01*
X158888404Y-101807005D01*
X158771603Y-101981810D01*
X158771602Y-101981812D01*
X158691146Y-102176049D01*
X158691146Y-102176050D01*
X158650131Y-102382248D01*
X158244731Y-102382248D01*
X158203715Y-102176049D01*
X158123260Y-101981813D01*
X158006457Y-101807005D01*
X157857795Y-101658343D01*
X157684713Y-101542693D01*
X157682989Y-101541541D01*
X157682987Y-101541540D01*
X157488749Y-101461084D01*
X157282551Y-101420069D01*
X157072311Y-101420069D01*
X156866112Y-101461084D01*
X156866111Y-101461084D01*
X156671874Y-101541540D01*
X156671872Y-101541541D01*
X156497067Y-101658342D01*
X156348404Y-101807005D01*
X156231603Y-101981810D01*
X156231602Y-101981812D01*
X156151146Y-102176049D01*
X156151146Y-102176050D01*
X156110131Y-102382248D01*
X155704731Y-102382248D01*
X155663715Y-102176049D01*
X155583260Y-101981813D01*
X155466457Y-101807005D01*
X155317795Y-101658343D01*
X155144713Y-101542693D01*
X155142989Y-101541541D01*
X155142987Y-101541540D01*
X154948749Y-101461084D01*
X154742551Y-101420069D01*
X154532311Y-101420069D01*
X154326112Y-101461084D01*
X154326111Y-101461084D01*
X154131874Y-101541540D01*
X154131872Y-101541541D01*
X153957067Y-101658342D01*
X153808404Y-101807005D01*
X153691603Y-101981810D01*
X153691602Y-101981812D01*
X153611146Y-102176049D01*
X153611146Y-102176050D01*
X153570131Y-102382248D01*
X153164731Y-102382248D01*
X153123715Y-102176049D01*
X153043260Y-101981813D01*
X152926457Y-101807005D01*
X152777795Y-101658343D01*
X152604713Y-101542693D01*
X152602989Y-101541541D01*
X152602987Y-101541540D01*
X152408749Y-101461084D01*
X152202551Y-101420069D01*
X151992311Y-101420069D01*
X151786112Y-101461084D01*
X151786111Y-101461084D01*
X151591874Y-101541540D01*
X151591872Y-101541541D01*
X151417067Y-101658342D01*
X151268404Y-101807005D01*
X151151603Y-101981810D01*
X151151602Y-101981812D01*
X151071146Y-102176049D01*
X151071146Y-102176050D01*
X151030131Y-102382248D01*
X150623405Y-102382248D01*
X150582465Y-102176429D01*
X150582465Y-102176428D01*
X150502107Y-101982428D01*
X150502106Y-101982426D01*
X150385447Y-101807834D01*
X150236965Y-101659352D01*
X150062373Y-101542693D01*
X150062371Y-101542692D01*
X149868370Y-101462334D01*
X149709431Y-101430719D01*
X149709431Y-102764176D01*
X149624311Y-102741369D01*
X149490551Y-102741369D01*
X149405431Y-102764176D01*
X149405431Y-101430719D01*
X149405430Y-101430719D01*
X149246491Y-101462334D01*
X149246490Y-101462334D01*
X149052490Y-101542692D01*
X149052488Y-101542693D01*
X148877896Y-101659352D01*
X148729414Y-101807834D01*
X148612755Y-101982426D01*
X148612754Y-101982428D01*
X148532396Y-102176428D01*
X148532396Y-102176429D01*
X148491431Y-102382376D01*
X148084731Y-102382376D01*
X148084731Y-102382249D01*
X148043715Y-102176049D01*
X147963260Y-101981813D01*
X147846457Y-101807005D01*
X147697795Y-101658343D01*
X147524713Y-101542693D01*
X147522989Y-101541541D01*
X147522987Y-101541540D01*
X147328749Y-101461084D01*
X147122551Y-101420069D01*
X146912311Y-101420069D01*
X146706112Y-101461084D01*
X146706111Y-101461084D01*
X146511874Y-101541540D01*
X146511872Y-101541541D01*
X146337067Y-101658342D01*
X146188404Y-101807005D01*
X146071603Y-101981810D01*
X146071602Y-101981812D01*
X145991146Y-102176049D01*
X145991146Y-102176050D01*
X145950131Y-102382248D01*
X145544731Y-102382248D01*
X145503715Y-102176049D01*
X145423260Y-101981813D01*
X145306457Y-101807005D01*
X145157795Y-101658343D01*
X144984713Y-101542693D01*
X144982989Y-101541541D01*
X144982987Y-101541540D01*
X144788749Y-101461084D01*
X144582551Y-101420069D01*
X144372311Y-101420069D01*
X144166112Y-101461084D01*
X144166111Y-101461084D01*
X143971874Y-101541540D01*
X143971872Y-101541541D01*
X143797067Y-101658342D01*
X143648404Y-101807005D01*
X143531603Y-101981810D01*
X143531602Y-101981812D01*
X143451146Y-102176049D01*
X143451146Y-102176050D01*
X143410131Y-102382248D01*
X131269700Y-102382248D01*
X131269700Y-100142096D01*
X136883280Y-100142096D01*
X136883280Y-100142103D01*
X136903285Y-100306866D01*
X136903287Y-100306877D01*
X136962144Y-100462067D01*
X136962146Y-100462071D01*
X137056435Y-100598673D01*
X137180676Y-100708741D01*
X137327647Y-100785877D01*
X137488808Y-100825600D01*
X137654792Y-100825600D01*
X137815953Y-100785877D01*
X137962924Y-100708741D01*
X138087165Y-100598673D01*
X138181454Y-100462071D01*
X138240313Y-100306874D01*
X138260320Y-100142100D01*
X138240313Y-99977326D01*
X138240312Y-99977324D01*
X138240312Y-99977322D01*
X138181455Y-99822132D01*
X138181454Y-99822129D01*
X138087165Y-99685527D01*
X137962924Y-99575459D01*
X137962923Y-99575458D01*
X137815955Y-99498324D01*
X137815954Y-99498323D01*
X137815953Y-99498323D01*
X137707509Y-99471593D01*
X137654793Y-99458600D01*
X137654792Y-99458600D01*
X137488808Y-99458600D01*
X137488806Y-99458600D01*
X137383372Y-99484587D01*
X137327647Y-99498323D01*
X137327646Y-99498323D01*
X137327644Y-99498324D01*
X137180676Y-99575458D01*
X137056436Y-99685525D01*
X136962144Y-99822132D01*
X136903287Y-99977322D01*
X136903285Y-99977333D01*
X136883280Y-100142096D01*
X131269700Y-100142096D01*
X131269700Y-98237096D01*
X144427080Y-98237096D01*
X144427080Y-98237103D01*
X144447085Y-98401866D01*
X144447087Y-98401877D01*
X144505944Y-98557067D01*
X144505946Y-98557071D01*
X144600235Y-98693673D01*
X144724476Y-98803741D01*
X144871447Y-98880877D01*
X145032608Y-98920600D01*
X145198592Y-98920600D01*
X145359753Y-98880877D01*
X145506724Y-98803741D01*
X145630965Y-98693673D01*
X145725254Y-98557071D01*
X145784113Y-98401874D01*
X145804120Y-98237100D01*
X145784113Y-98072326D01*
X145784112Y-98072324D01*
X145784112Y-98072322D01*
X145725255Y-97917132D01*
X145725254Y-97917129D01*
X145630965Y-97780527D01*
X145506724Y-97670459D01*
X145506723Y-97670458D01*
X145359755Y-97593324D01*
X145359754Y-97593323D01*
X145359753Y-97593323D01*
X145251309Y-97566593D01*
X145198593Y-97553600D01*
X145198592Y-97553600D01*
X145032608Y-97553600D01*
X145032606Y-97553600D01*
X144927172Y-97579587D01*
X144871447Y-97593323D01*
X144871446Y-97593323D01*
X144871444Y-97593324D01*
X144724476Y-97670458D01*
X144600236Y-97780525D01*
X144505944Y-97917132D01*
X144447087Y-98072322D01*
X144447085Y-98072333D01*
X144427080Y-98237096D01*
X131269700Y-98237096D01*
X131269700Y-96484496D01*
X144503280Y-96484496D01*
X144503280Y-96484503D01*
X144523285Y-96649266D01*
X144523287Y-96649277D01*
X144582144Y-96804467D01*
X144582146Y-96804471D01*
X144676435Y-96941073D01*
X144800676Y-97051141D01*
X144947647Y-97128277D01*
X145108808Y-97168000D01*
X145274792Y-97168000D01*
X145435953Y-97128277D01*
X145582924Y-97051141D01*
X145707165Y-96941073D01*
X145801454Y-96804471D01*
X145860313Y-96649274D01*
X145880320Y-96484500D01*
X145879494Y-96477700D01*
X145860314Y-96319733D01*
X145860312Y-96319722D01*
X145801455Y-96164532D01*
X145801454Y-96164529D01*
X145707165Y-96027927D01*
X145582924Y-95917859D01*
X145582923Y-95917858D01*
X145435955Y-95840724D01*
X145435954Y-95840723D01*
X145435953Y-95840723D01*
X145327509Y-95813993D01*
X145274793Y-95801000D01*
X145274792Y-95801000D01*
X145108808Y-95801000D01*
X145108806Y-95801000D01*
X145003372Y-95826987D01*
X144947647Y-95840723D01*
X144947646Y-95840723D01*
X144947644Y-95840724D01*
X144800676Y-95917858D01*
X144676436Y-96027925D01*
X144582144Y-96164532D01*
X144523287Y-96319722D01*
X144523285Y-96319733D01*
X144503280Y-96484496D01*
X131269700Y-96484496D01*
X131269700Y-95417696D01*
X141074280Y-95417696D01*
X141074280Y-95417703D01*
X141094285Y-95582466D01*
X141094287Y-95582477D01*
X141153144Y-95737667D01*
X141153146Y-95737671D01*
X141224278Y-95840724D01*
X141247436Y-95874274D01*
X141371676Y-95984341D01*
X141518647Y-96061477D01*
X141679808Y-96101200D01*
X141845792Y-96101200D01*
X142006953Y-96061477D01*
X142153924Y-95984341D01*
X142278165Y-95874273D01*
X142372454Y-95737671D01*
X142431313Y-95582474D01*
X142451320Y-95417700D01*
X142431313Y-95252926D01*
X142431312Y-95252924D01*
X142431312Y-95252922D01*
X142372455Y-95097732D01*
X142372454Y-95097729D01*
X142278165Y-94961127D01*
X142153924Y-94851059D01*
X142153923Y-94851058D01*
X142006955Y-94773924D01*
X142006954Y-94773923D01*
X142006953Y-94773923D01*
X141898509Y-94747193D01*
X141845793Y-94734200D01*
X141845792Y-94734200D01*
X141679808Y-94734200D01*
X141679806Y-94734200D01*
X141574372Y-94760187D01*
X141518647Y-94773923D01*
X141518646Y-94773923D01*
X141518644Y-94773924D01*
X141371676Y-94851058D01*
X141247436Y-94961125D01*
X141153144Y-95097732D01*
X141094287Y-95252922D01*
X141094285Y-95252933D01*
X141074280Y-95417696D01*
X131269700Y-95417696D01*
X131269700Y-93512696D01*
X139169280Y-93512696D01*
X139169280Y-93512703D01*
X139189285Y-93677466D01*
X139189287Y-93677477D01*
X139248144Y-93832667D01*
X139248146Y-93832671D01*
X139342435Y-93969273D01*
X139466676Y-94079341D01*
X139613647Y-94156477D01*
X139774808Y-94196200D01*
X139940792Y-94196200D01*
X140101953Y-94156477D01*
X140248924Y-94079341D01*
X140373165Y-93969273D01*
X140394280Y-93938683D01*
X149133500Y-93938683D01*
X149133500Y-95561316D01*
X149172563Y-95757700D01*
X149249190Y-95942693D01*
X149249191Y-95942696D01*
X149360432Y-96109180D01*
X149502019Y-96250767D01*
X149668503Y-96362008D01*
X149668505Y-96362008D01*
X149668507Y-96362010D01*
X149853498Y-96438636D01*
X150049884Y-96477700D01*
X150250116Y-96477700D01*
X150446502Y-96438636D01*
X150631493Y-96362010D01*
X150797981Y-96250767D01*
X150939567Y-96109181D01*
X151050810Y-95942693D01*
X151127436Y-95757702D01*
X151166500Y-95561316D01*
X151166500Y-93938684D01*
X151166500Y-93938683D01*
X151673500Y-93938683D01*
X151673500Y-95561316D01*
X151712563Y-95757700D01*
X151789190Y-95942693D01*
X151789191Y-95942696D01*
X151900432Y-96109180D01*
X152042019Y-96250767D01*
X152208503Y-96362008D01*
X152208505Y-96362008D01*
X152208507Y-96362010D01*
X152393498Y-96438636D01*
X152589884Y-96477700D01*
X152790116Y-96477700D01*
X152986502Y-96438636D01*
X153171493Y-96362010D01*
X153337981Y-96250767D01*
X153479567Y-96109181D01*
X153590810Y-95942693D01*
X153667436Y-95757702D01*
X153706500Y-95561316D01*
X153706500Y-93938684D01*
X153667436Y-93742298D01*
X153590810Y-93557307D01*
X153590808Y-93557305D01*
X153590808Y-93557303D01*
X153479567Y-93390819D01*
X153337980Y-93249232D01*
X153171496Y-93137991D01*
X153171493Y-93137990D01*
X152986500Y-93061363D01*
X152790116Y-93022300D01*
X152589884Y-93022300D01*
X152393499Y-93061363D01*
X152208506Y-93137990D01*
X152208503Y-93137991D01*
X152042019Y-93249232D01*
X151900432Y-93390819D01*
X151789191Y-93557303D01*
X151789190Y-93557306D01*
X151712563Y-93742299D01*
X151673500Y-93938683D01*
X151166500Y-93938683D01*
X151127436Y-93742298D01*
X151050810Y-93557307D01*
X151050808Y-93557305D01*
X151050808Y-93557303D01*
X150939567Y-93390819D01*
X150797980Y-93249232D01*
X150631496Y-93137991D01*
X150631493Y-93137990D01*
X150446500Y-93061363D01*
X150250116Y-93022300D01*
X150049884Y-93022300D01*
X149853499Y-93061363D01*
X149668506Y-93137990D01*
X149668503Y-93137991D01*
X149502019Y-93249232D01*
X149360432Y-93390819D01*
X149249191Y-93557303D01*
X149249190Y-93557306D01*
X149172563Y-93742299D01*
X149133500Y-93938683D01*
X140394280Y-93938683D01*
X140467454Y-93832671D01*
X140526313Y-93677474D01*
X140540904Y-93557306D01*
X140546320Y-93512703D01*
X140546320Y-93512696D01*
X140526314Y-93347933D01*
X140526312Y-93347922D01*
X140467455Y-93192732D01*
X140467454Y-93192729D01*
X140373165Y-93056127D01*
X140248924Y-92946059D01*
X140248923Y-92946058D01*
X140101955Y-92868924D01*
X140101954Y-92868923D01*
X140101953Y-92868923D01*
X139993509Y-92842193D01*
X139940793Y-92829200D01*
X139940792Y-92829200D01*
X139774808Y-92829200D01*
X139774806Y-92829200D01*
X139669372Y-92855187D01*
X139613647Y-92868923D01*
X139613646Y-92868923D01*
X139613644Y-92868924D01*
X139466676Y-92946058D01*
X139342436Y-93056125D01*
X139248144Y-93192732D01*
X139189287Y-93347922D01*
X139189285Y-93347933D01*
X139169280Y-93512696D01*
X131269700Y-93512696D01*
X131269700Y-88217285D01*
X132663799Y-88217285D01*
X132663799Y-88949916D01*
X132665199Y-88963333D01*
X132665202Y-88963345D01*
X132708876Y-89068783D01*
X132708878Y-89068786D01*
X132708880Y-89068790D01*
X132717383Y-89079274D01*
X133235430Y-89597322D01*
X133245910Y-89605820D01*
X133351362Y-89649500D01*
X133364782Y-89650900D01*
X134097414Y-89650901D01*
X134110838Y-89649500D01*
X134216290Y-89605820D01*
X134226774Y-89597317D01*
X134744822Y-89079270D01*
X134753320Y-89068790D01*
X134797000Y-88963338D01*
X134798400Y-88949918D01*
X134798401Y-88217286D01*
X134798401Y-88217285D01*
X135203799Y-88217285D01*
X135203799Y-88949916D01*
X135205199Y-88963333D01*
X135205202Y-88963345D01*
X135248876Y-89068783D01*
X135248878Y-89068786D01*
X135248880Y-89068790D01*
X135257383Y-89079274D01*
X135775430Y-89597322D01*
X135785910Y-89605820D01*
X135891362Y-89649500D01*
X135904782Y-89650900D01*
X136637414Y-89650901D01*
X136650838Y-89649500D01*
X136756290Y-89605820D01*
X136766774Y-89597317D01*
X137284822Y-89079270D01*
X137293320Y-89068790D01*
X137337000Y-88963338D01*
X137338400Y-88949918D01*
X137338401Y-88217286D01*
X137337000Y-88203862D01*
X137295274Y-88103127D01*
X137293323Y-88098416D01*
X137293321Y-88098414D01*
X137293320Y-88098410D01*
X137284817Y-88087926D01*
X137070787Y-87873896D01*
X144198480Y-87873896D01*
X144198480Y-87873903D01*
X144218485Y-88038666D01*
X144218487Y-88038677D01*
X144277344Y-88193867D01*
X144277346Y-88193871D01*
X144371635Y-88330473D01*
X144495876Y-88440541D01*
X144642847Y-88517677D01*
X144804008Y-88557400D01*
X144969992Y-88557400D01*
X145131153Y-88517677D01*
X145278124Y-88440541D01*
X145402365Y-88330473D01*
X145496654Y-88193871D01*
X145550005Y-88053198D01*
X145555512Y-88038677D01*
X145555514Y-88038666D01*
X145575520Y-87873903D01*
X145575520Y-87873896D01*
X145555514Y-87709133D01*
X145555512Y-87709122D01*
X145496655Y-87553932D01*
X145496654Y-87553929D01*
X145402365Y-87417327D01*
X145315641Y-87340496D01*
X146636880Y-87340496D01*
X146636880Y-87340503D01*
X146656885Y-87505266D01*
X146656887Y-87505277D01*
X146700963Y-87621493D01*
X146715746Y-87660471D01*
X146776122Y-87747941D01*
X146810036Y-87797074D01*
X146929960Y-87903318D01*
X146950901Y-87946327D01*
X146935297Y-87991545D01*
X146929960Y-87996882D01*
X146810036Y-88103125D01*
X146715744Y-88239732D01*
X146656887Y-88394922D01*
X146656885Y-88394933D01*
X146636880Y-88559696D01*
X146636880Y-88559703D01*
X146656885Y-88724466D01*
X146656887Y-88724477D01*
X146715744Y-88879667D01*
X146715746Y-88879671D01*
X146773495Y-88963335D01*
X146810036Y-89016274D01*
X146934276Y-89126341D01*
X147081247Y-89203477D01*
X147242408Y-89243200D01*
X147370921Y-89243200D01*
X147415115Y-89261506D01*
X147432886Y-89297542D01*
X147441478Y-89362808D01*
X147441481Y-89362818D01*
X147502470Y-89510059D01*
X147502472Y-89510062D01*
X147599494Y-89636505D01*
X147725937Y-89733527D01*
X147725940Y-89733529D01*
X147745860Y-89741780D01*
X147873185Y-89794520D01*
X147873191Y-89794520D01*
X147873192Y-89794521D01*
X147895377Y-89797441D01*
X147979380Y-89808500D01*
X148020807Y-89832417D01*
X148033188Y-89862307D01*
X148038122Y-89899786D01*
X148038125Y-89899797D01*
X148099114Y-90047038D01*
X148099116Y-90047041D01*
X148196138Y-90173484D01*
X148293161Y-90247931D01*
X148322582Y-90270507D01*
X148469829Y-90331499D01*
X148469833Y-90331499D01*
X148469835Y-90331500D01*
X148627842Y-90352302D01*
X148627844Y-90352302D01*
X148627846Y-90352302D01*
X148785852Y-90331500D01*
X148785852Y-90331499D01*
X148785859Y-90331499D01*
X148874914Y-90294611D01*
X157346000Y-90294611D01*
X157346000Y-91038000D01*
X158023091Y-91038000D01*
X158000000Y-91124174D01*
X158000000Y-91255826D01*
X158023091Y-91342000D01*
X157346001Y-91342000D01*
X157346001Y-92085388D01*
X157348949Y-92110807D01*
X157348949Y-92110808D01*
X157394857Y-92214778D01*
X157475221Y-92295142D01*
X157579194Y-92341051D01*
X157604611Y-92343999D01*
X158348000Y-92343999D01*
X158348000Y-91666909D01*
X158434174Y-91690000D01*
X158565826Y-91690000D01*
X158652000Y-91666909D01*
X158652000Y-92343999D01*
X159395388Y-92343999D01*
X159420807Y-92341050D01*
X159420808Y-92341050D01*
X159524778Y-92295142D01*
X159605142Y-92214778D01*
X159651051Y-92110805D01*
X159654000Y-92085388D01*
X159654000Y-91342000D01*
X158976909Y-91342000D01*
X159000000Y-91255826D01*
X159000000Y-91124174D01*
X158976909Y-91038000D01*
X159653999Y-91038000D01*
X159653999Y-90294611D01*
X159651050Y-90269192D01*
X159651050Y-90269191D01*
X159605142Y-90165221D01*
X159524778Y-90084857D01*
X159420805Y-90038948D01*
X159395389Y-90036000D01*
X158652000Y-90036000D01*
X158652000Y-90713090D01*
X158565826Y-90690000D01*
X158434174Y-90690000D01*
X158348000Y-90713090D01*
X158348000Y-90036000D01*
X157604611Y-90036000D01*
X157579192Y-90038949D01*
X157579191Y-90038949D01*
X157475221Y-90084857D01*
X157394857Y-90165221D01*
X157348948Y-90269194D01*
X157346000Y-90294611D01*
X148874914Y-90294611D01*
X148933106Y-90270507D01*
X149059549Y-90173484D01*
X149156572Y-90047041D01*
X149217564Y-89899794D01*
X149230004Y-89805300D01*
X149238367Y-89741780D01*
X149238367Y-89741777D01*
X149217565Y-89583770D01*
X149217564Y-89583768D01*
X149217564Y-89583764D01*
X149156572Y-89436518D01*
X149059549Y-89310074D01*
X149059547Y-89310073D01*
X149059547Y-89310072D01*
X148933106Y-89213051D01*
X148933103Y-89213049D01*
X148785862Y-89152060D01*
X148785852Y-89152057D01*
X148679661Y-89138077D01*
X148638234Y-89114160D01*
X148625854Y-89084271D01*
X148620920Y-89046785D01*
X148559928Y-88899539D01*
X148462905Y-88773095D01*
X148462903Y-88773094D01*
X148462903Y-88773093D01*
X148336462Y-88676072D01*
X148336459Y-88676070D01*
X148189218Y-88615081D01*
X148189216Y-88615080D01*
X148189215Y-88615080D01*
X148189213Y-88615079D01*
X148189207Y-88615078D01*
X148065951Y-88598851D01*
X148024524Y-88574933D01*
X148012065Y-88544419D01*
X147993914Y-88394933D01*
X147993912Y-88394922D01*
X147935055Y-88239732D01*
X147935054Y-88239729D01*
X147840765Y-88103127D01*
X147835447Y-88098416D01*
X147784407Y-88053198D01*
X152089477Y-88053198D01*
X152089477Y-88053201D01*
X152110278Y-88211208D01*
X152110281Y-88211218D01*
X152171270Y-88358459D01*
X152171272Y-88358462D01*
X152268294Y-88484905D01*
X152394737Y-88581927D01*
X152394740Y-88581929D01*
X152443820Y-88602258D01*
X152541985Y-88642920D01*
X152541989Y-88642920D01*
X152541991Y-88642921D01*
X152699998Y-88663723D01*
X152700000Y-88663723D01*
X152700002Y-88663723D01*
X152804268Y-88649996D01*
X157339751Y-88649996D01*
X157339751Y-88650003D01*
X157359504Y-88863187D01*
X157359506Y-88863198D01*
X157418001Y-89068783D01*
X157418100Y-89069130D01*
X157513536Y-89260792D01*
X157642566Y-89431655D01*
X157749887Y-89529491D01*
X157800789Y-89575895D01*
X157800790Y-89575896D01*
X157800794Y-89575899D01*
X157982833Y-89688612D01*
X158182483Y-89765957D01*
X158392946Y-89805300D01*
X158392949Y-89805300D01*
X158607051Y-89805300D01*
X158607054Y-89805300D01*
X158817517Y-89765957D01*
X159017167Y-89688612D01*
X159199206Y-89575899D01*
X159357434Y-89431655D01*
X159486464Y-89260792D01*
X159581900Y-89069130D01*
X159640494Y-88863195D01*
X159657833Y-88676072D01*
X159660249Y-88650003D01*
X159660249Y-88649996D01*
X159640495Y-88436812D01*
X159640493Y-88436801D01*
X159610240Y-88330474D01*
X159581900Y-88230870D01*
X159486464Y-88039208D01*
X159357434Y-87868345D01*
X159258171Y-87777855D01*
X159199210Y-87724104D01*
X159199207Y-87724102D01*
X159199206Y-87724101D01*
X159017167Y-87611388D01*
X159017165Y-87611387D01*
X158868856Y-87553932D01*
X158817517Y-87534043D01*
X158817516Y-87534042D01*
X158817514Y-87534042D01*
X158607056Y-87494700D01*
X158607054Y-87494700D01*
X158392946Y-87494700D01*
X158392943Y-87494700D01*
X158182485Y-87534042D01*
X157982834Y-87611387D01*
X157800789Y-87724104D01*
X157642564Y-87868347D01*
X157642562Y-87868349D01*
X157513536Y-88039208D01*
X157418100Y-88230869D01*
X157359506Y-88436801D01*
X157359504Y-88436812D01*
X157339751Y-88649996D01*
X152804268Y-88649996D01*
X152858008Y-88642921D01*
X152858008Y-88642920D01*
X152858015Y-88642920D01*
X153005262Y-88581928D01*
X153131705Y-88484905D01*
X153228728Y-88358462D01*
X153289720Y-88211215D01*
X153304571Y-88098409D01*
X153310523Y-88053201D01*
X153310523Y-88053198D01*
X153289721Y-87895191D01*
X153289720Y-87895189D01*
X153289720Y-87895185D01*
X153228728Y-87747939D01*
X153131705Y-87621495D01*
X153131703Y-87621494D01*
X153131703Y-87621493D01*
X153005262Y-87524472D01*
X153005259Y-87524470D01*
X152858018Y-87463481D01*
X152858008Y-87463478D01*
X152700002Y-87442677D01*
X152699998Y-87442677D01*
X152541991Y-87463478D01*
X152541981Y-87463481D01*
X152394741Y-87524470D01*
X152394738Y-87524472D01*
X152268295Y-87621495D01*
X152171272Y-87747938D01*
X152171270Y-87747941D01*
X152110281Y-87895181D01*
X152110278Y-87895191D01*
X152089477Y-88053198D01*
X147784407Y-88053198D01*
X147720839Y-87996882D01*
X147699898Y-87953874D01*
X147715502Y-87908655D01*
X147720839Y-87903318D01*
X147840765Y-87797073D01*
X147935054Y-87660471D01*
X147993913Y-87505274D01*
X148013920Y-87340500D01*
X148004388Y-87262000D01*
X147993914Y-87175733D01*
X147993912Y-87175722D01*
X147935055Y-87020532D01*
X147935054Y-87020529D01*
X147840765Y-86883927D01*
X147716524Y-86773859D01*
X147716523Y-86773858D01*
X147569555Y-86696724D01*
X147569554Y-86696723D01*
X147569553Y-86696723D01*
X147461109Y-86669993D01*
X147408393Y-86657000D01*
X147408392Y-86657000D01*
X147242408Y-86657000D01*
X147242406Y-86657000D01*
X147136972Y-86682987D01*
X147081247Y-86696723D01*
X147081246Y-86696723D01*
X147081244Y-86696724D01*
X146934276Y-86773858D01*
X146810036Y-86883925D01*
X146715744Y-87020532D01*
X146656887Y-87175722D01*
X146656885Y-87175733D01*
X146636880Y-87340496D01*
X145315641Y-87340496D01*
X145278124Y-87307259D01*
X145278123Y-87307258D01*
X145249173Y-87292064D01*
X145218548Y-87255317D01*
X145222877Y-87207678D01*
X145259624Y-87177053D01*
X145263252Y-87176041D01*
X145394153Y-87143777D01*
X145541124Y-87066641D01*
X145665365Y-86956573D01*
X145759654Y-86819971D01*
X145818513Y-86664774D01*
X145828988Y-86578503D01*
X145838520Y-86500003D01*
X145838520Y-86499996D01*
X145818514Y-86335233D01*
X145818512Y-86335222D01*
X145815046Y-86326082D01*
X149063977Y-86326082D01*
X149063977Y-86326085D01*
X149084778Y-86484092D01*
X149084781Y-86484102D01*
X149145770Y-86631343D01*
X149145772Y-86631346D01*
X149242794Y-86757789D01*
X149323827Y-86819967D01*
X149369238Y-86854812D01*
X149516485Y-86915804D01*
X149516489Y-86915804D01*
X149516491Y-86915805D01*
X149674498Y-86936607D01*
X149674500Y-86936607D01*
X149674502Y-86936607D01*
X149832508Y-86915805D01*
X149832508Y-86915804D01*
X149832515Y-86915804D01*
X149979762Y-86854812D01*
X150106205Y-86757789D01*
X150203228Y-86631346D01*
X150225119Y-86578496D01*
X151361280Y-86578496D01*
X151361280Y-86578503D01*
X151381285Y-86743266D01*
X151381287Y-86743277D01*
X151440144Y-86898467D01*
X151440146Y-86898471D01*
X151524396Y-87020529D01*
X151534436Y-87035074D01*
X151570068Y-87066641D01*
X151658676Y-87145141D01*
X151805647Y-87222277D01*
X151966808Y-87262000D01*
X152132792Y-87262000D01*
X152293953Y-87222277D01*
X152440924Y-87145141D01*
X152565165Y-87035073D01*
X152659454Y-86898471D01*
X152718313Y-86743274D01*
X152727846Y-86664766D01*
X152738320Y-86578503D01*
X152738320Y-86578496D01*
X152718314Y-86413733D01*
X152718312Y-86413722D01*
X152659455Y-86258532D01*
X152659454Y-86258529D01*
X152565165Y-86121927D01*
X152551698Y-86109996D01*
X157339751Y-86109996D01*
X157339751Y-86110003D01*
X157359504Y-86323187D01*
X157359506Y-86323198D01*
X157418001Y-86528783D01*
X157418100Y-86529130D01*
X157513536Y-86720792D01*
X157588430Y-86819967D01*
X157636728Y-86883925D01*
X157642566Y-86891655D01*
X157713778Y-86956573D01*
X157800789Y-87035895D01*
X157800790Y-87035896D01*
X157800794Y-87035899D01*
X157982833Y-87148612D01*
X158182483Y-87225957D01*
X158392946Y-87265300D01*
X158392949Y-87265300D01*
X158607051Y-87265300D01*
X158607054Y-87265300D01*
X158817517Y-87225957D01*
X159017167Y-87148612D01*
X159199206Y-87035899D01*
X159357434Y-86891655D01*
X159486464Y-86720792D01*
X159581900Y-86529130D01*
X159640494Y-86323195D01*
X159654868Y-86168075D01*
X159660249Y-86110003D01*
X159660249Y-86109996D01*
X159640495Y-85896812D01*
X159640493Y-85896801D01*
X159612198Y-85797356D01*
X159581900Y-85690870D01*
X159486464Y-85499208D01*
X159357434Y-85328345D01*
X159258171Y-85237855D01*
X159199210Y-85184104D01*
X159199207Y-85184102D01*
X159199206Y-85184101D01*
X159017167Y-85071388D01*
X159017165Y-85071387D01*
X158817514Y-84994042D01*
X158607056Y-84954700D01*
X158607054Y-84954700D01*
X158392946Y-84954700D01*
X158392943Y-84954700D01*
X158182485Y-84994042D01*
X157982834Y-85071387D01*
X157800789Y-85184104D01*
X157642564Y-85328347D01*
X157642562Y-85328349D01*
X157513536Y-85499208D01*
X157418100Y-85690869D01*
X157359506Y-85896801D01*
X157359504Y-85896812D01*
X157339751Y-86109996D01*
X152551698Y-86109996D01*
X152440924Y-86011859D01*
X152440923Y-86011858D01*
X152293955Y-85934724D01*
X152293954Y-85934723D01*
X152293953Y-85934723D01*
X152140144Y-85896812D01*
X152132793Y-85895000D01*
X152132792Y-85895000D01*
X151966808Y-85895000D01*
X151966806Y-85895000D01*
X151861372Y-85920987D01*
X151805647Y-85934723D01*
X151805646Y-85934723D01*
X151805644Y-85934724D01*
X151658676Y-86011858D01*
X151534436Y-86121925D01*
X151440144Y-86258532D01*
X151381287Y-86413722D01*
X151381285Y-86413733D01*
X151361280Y-86578496D01*
X150225119Y-86578496D01*
X150264220Y-86484099D01*
X150283819Y-86335233D01*
X150285023Y-86326085D01*
X150285023Y-86326082D01*
X150264221Y-86168075D01*
X150264220Y-86168073D01*
X150264220Y-86168069D01*
X150203228Y-86020823D01*
X150106205Y-85894379D01*
X150106203Y-85894378D01*
X150106203Y-85894377D01*
X149979762Y-85797356D01*
X149979759Y-85797354D01*
X149832518Y-85736365D01*
X149832508Y-85736362D01*
X149674502Y-85715561D01*
X149674498Y-85715561D01*
X149516491Y-85736362D01*
X149516481Y-85736365D01*
X149369241Y-85797354D01*
X149369238Y-85797356D01*
X149242795Y-85894379D01*
X149145772Y-86020822D01*
X149145770Y-86020825D01*
X149084781Y-86168065D01*
X149084778Y-86168075D01*
X149063977Y-86326082D01*
X145815046Y-86326082D01*
X145759655Y-86180032D01*
X145759654Y-86180029D01*
X145665365Y-86043427D01*
X145639850Y-86020823D01*
X145541123Y-85933358D01*
X145394155Y-85856224D01*
X145394154Y-85856223D01*
X145394153Y-85856223D01*
X145285709Y-85829493D01*
X145232993Y-85816500D01*
X145232992Y-85816500D01*
X145067008Y-85816500D01*
X145067006Y-85816500D01*
X144961572Y-85842487D01*
X144905847Y-85856223D01*
X144905846Y-85856223D01*
X144905844Y-85856224D01*
X144758876Y-85933358D01*
X144634636Y-86043425D01*
X144540344Y-86180032D01*
X144481487Y-86335222D01*
X144481485Y-86335233D01*
X144461480Y-86499996D01*
X144461480Y-86500003D01*
X144481485Y-86664766D01*
X144481487Y-86664777D01*
X144540344Y-86819967D01*
X144540346Y-86819971D01*
X144606495Y-86915805D01*
X144634636Y-86956574D01*
X144758876Y-87066641D01*
X144787826Y-87081835D01*
X144818451Y-87118582D01*
X144814122Y-87166221D01*
X144777375Y-87196846D01*
X144773739Y-87197860D01*
X144677983Y-87221462D01*
X144642847Y-87230123D01*
X144642846Y-87230123D01*
X144642844Y-87230124D01*
X144495876Y-87307258D01*
X144371636Y-87417325D01*
X144277344Y-87553932D01*
X144218487Y-87709122D01*
X144218485Y-87709133D01*
X144198480Y-87873896D01*
X137070787Y-87873896D01*
X136766770Y-87569878D01*
X136756290Y-87561380D01*
X136756289Y-87561379D01*
X136667182Y-87524470D01*
X136650838Y-87517700D01*
X136650837Y-87517699D01*
X136650835Y-87517699D01*
X136639780Y-87516546D01*
X136637418Y-87516300D01*
X136637416Y-87516299D01*
X136637407Y-87516299D01*
X135904783Y-87516299D01*
X135891366Y-87517699D01*
X135891354Y-87517702D01*
X135785916Y-87561376D01*
X135785909Y-87561381D01*
X135775428Y-87569881D01*
X135775418Y-87569890D01*
X135257381Y-88087926D01*
X135257376Y-88087932D01*
X135248879Y-88098410D01*
X135205199Y-88203864D01*
X135203799Y-88217285D01*
X134798401Y-88217285D01*
X134797000Y-88203862D01*
X134755274Y-88103127D01*
X134753323Y-88098416D01*
X134753321Y-88098414D01*
X134753320Y-88098410D01*
X134744817Y-88087926D01*
X134226770Y-87569878D01*
X134216290Y-87561380D01*
X134216289Y-87561379D01*
X134127182Y-87524470D01*
X134110838Y-87517700D01*
X134110837Y-87517699D01*
X134110835Y-87517699D01*
X134099780Y-87516546D01*
X134097418Y-87516300D01*
X134097416Y-87516299D01*
X134097407Y-87516299D01*
X133364783Y-87516299D01*
X133351366Y-87517699D01*
X133351354Y-87517702D01*
X133245916Y-87561376D01*
X133245909Y-87561381D01*
X133235428Y-87569881D01*
X133235418Y-87569890D01*
X132717381Y-88087926D01*
X132717376Y-88087932D01*
X132708879Y-88098410D01*
X132665199Y-88203864D01*
X132663799Y-88217285D01*
X131269700Y-88217285D01*
X131269700Y-85677285D01*
X132663799Y-85677285D01*
X132663799Y-86409916D01*
X132665199Y-86423333D01*
X132665202Y-86423345D01*
X132708876Y-86528783D01*
X132708878Y-86528786D01*
X132708880Y-86528790D01*
X132717383Y-86539274D01*
X133235430Y-87057322D01*
X133245910Y-87065820D01*
X133351362Y-87109500D01*
X133364782Y-87110900D01*
X134097414Y-87110901D01*
X134110838Y-87109500D01*
X134216290Y-87065820D01*
X134226774Y-87057317D01*
X134744822Y-86539270D01*
X134753320Y-86528790D01*
X134797000Y-86423338D01*
X134798400Y-86409918D01*
X134798401Y-85677286D01*
X134798401Y-85677285D01*
X135203799Y-85677285D01*
X135203799Y-86409916D01*
X135205199Y-86423333D01*
X135205202Y-86423345D01*
X135248876Y-86528783D01*
X135248878Y-86528786D01*
X135248880Y-86528790D01*
X135257383Y-86539274D01*
X135775430Y-87057322D01*
X135785910Y-87065820D01*
X135891362Y-87109500D01*
X135904782Y-87110900D01*
X136637414Y-87110901D01*
X136650838Y-87109500D01*
X136756290Y-87065820D01*
X136766774Y-87057317D01*
X137284822Y-86539270D01*
X137293320Y-86528790D01*
X137337000Y-86423338D01*
X137338400Y-86409918D01*
X137338401Y-85677286D01*
X137337000Y-85663862D01*
X137336997Y-85663854D01*
X137293323Y-85558416D01*
X137293321Y-85558414D01*
X137293320Y-85558410D01*
X137284817Y-85547926D01*
X136766770Y-85029878D01*
X136756290Y-85021380D01*
X136756289Y-85021379D01*
X136681722Y-84990493D01*
X136650838Y-84977700D01*
X136650837Y-84977699D01*
X136650835Y-84977699D01*
X136639780Y-84976546D01*
X136637418Y-84976300D01*
X136637416Y-84976299D01*
X136637407Y-84976299D01*
X135904783Y-84976299D01*
X135891366Y-84977699D01*
X135891354Y-84977702D01*
X135785916Y-85021376D01*
X135785909Y-85021381D01*
X135775428Y-85029881D01*
X135775418Y-85029890D01*
X135257381Y-85547926D01*
X135257376Y-85547932D01*
X135248879Y-85558410D01*
X135205199Y-85663864D01*
X135203799Y-85677285D01*
X134798401Y-85677285D01*
X134797000Y-85663862D01*
X134796997Y-85663854D01*
X134753323Y-85558416D01*
X134753321Y-85558414D01*
X134753320Y-85558410D01*
X134744817Y-85547926D01*
X134226770Y-85029878D01*
X134216290Y-85021380D01*
X134216289Y-85021379D01*
X134141722Y-84990493D01*
X134110838Y-84977700D01*
X134110837Y-84977699D01*
X134110835Y-84977699D01*
X134099780Y-84976546D01*
X134097418Y-84976300D01*
X134097416Y-84976299D01*
X134097407Y-84976299D01*
X133364783Y-84976299D01*
X133351366Y-84977699D01*
X133351354Y-84977702D01*
X133245916Y-85021376D01*
X133245909Y-85021381D01*
X133235428Y-85029881D01*
X133235418Y-85029890D01*
X132717381Y-85547926D01*
X132717376Y-85547932D01*
X132708879Y-85558410D01*
X132665199Y-85663864D01*
X132663799Y-85677285D01*
X131269700Y-85677285D01*
X131269700Y-83137285D01*
X132663799Y-83137285D01*
X132663799Y-83869916D01*
X132665199Y-83883333D01*
X132665202Y-83883345D01*
X132708876Y-83988783D01*
X132708878Y-83988786D01*
X132708880Y-83988790D01*
X132717383Y-83999274D01*
X133235430Y-84517322D01*
X133245910Y-84525820D01*
X133351362Y-84569500D01*
X133364782Y-84570900D01*
X134097414Y-84570901D01*
X134110838Y-84569500D01*
X134216290Y-84525820D01*
X134226774Y-84517317D01*
X134744822Y-83999270D01*
X134753320Y-83988790D01*
X134797000Y-83883338D01*
X134798400Y-83869918D01*
X134798401Y-83137499D01*
X135205100Y-83137499D01*
X135205100Y-83351600D01*
X135785908Y-83351600D01*
X135763100Y-83436720D01*
X135763100Y-83570480D01*
X135785908Y-83655600D01*
X135205100Y-83655600D01*
X135205100Y-83869703D01*
X135205101Y-83869725D01*
X135206493Y-83883062D01*
X135206495Y-83883069D01*
X135249984Y-83988062D01*
X135249989Y-83988069D01*
X135258442Y-83998492D01*
X135258451Y-83998502D01*
X135776190Y-84516242D01*
X135776202Y-84516253D01*
X135786631Y-84524713D01*
X135891637Y-84568206D01*
X135891634Y-84568206D01*
X135904999Y-84569600D01*
X136119100Y-84569600D01*
X136119100Y-83988792D01*
X136204220Y-84011600D01*
X136337980Y-84011600D01*
X136423100Y-83988792D01*
X136423100Y-84569600D01*
X136637204Y-84569600D01*
X136637225Y-84569598D01*
X136650562Y-84568206D01*
X136650569Y-84568204D01*
X136755562Y-84524715D01*
X136755569Y-84524710D01*
X136765992Y-84516257D01*
X136766002Y-84516248D01*
X137283742Y-83998509D01*
X137283753Y-83998497D01*
X137292213Y-83988068D01*
X137335706Y-83883063D01*
X137337100Y-83869700D01*
X137337100Y-83655600D01*
X136756292Y-83655600D01*
X136779100Y-83570480D01*
X136779100Y-83436720D01*
X136763392Y-83378096D01*
X145874880Y-83378096D01*
X145874880Y-83378103D01*
X145894885Y-83542866D01*
X145894887Y-83542877D01*
X145952682Y-83695266D01*
X145953746Y-83698071D01*
X146034815Y-83815520D01*
X146048036Y-83834674D01*
X146087814Y-83869914D01*
X146172276Y-83944741D01*
X146319247Y-84021877D01*
X146480408Y-84061600D01*
X146646392Y-84061600D01*
X146807553Y-84021877D01*
X146954524Y-83944741D01*
X147078765Y-83834673D01*
X147173054Y-83698071D01*
X147231913Y-83542874D01*
X147233415Y-83530503D01*
X147251920Y-83378103D01*
X147251920Y-83378096D01*
X147231914Y-83213333D01*
X147231912Y-83213322D01*
X147175136Y-83063618D01*
X147173054Y-83058129D01*
X147078765Y-82921527D01*
X147060788Y-82905601D01*
X147060785Y-82905598D01*
X147319077Y-82905598D01*
X147319077Y-82905601D01*
X147339878Y-83063608D01*
X147339881Y-83063618D01*
X147400870Y-83210859D01*
X147400872Y-83210862D01*
X147497894Y-83337305D01*
X147624337Y-83434327D01*
X147624340Y-83434329D01*
X147673420Y-83454658D01*
X147771585Y-83495320D01*
X147771591Y-83495320D01*
X147771592Y-83495321D01*
X147810623Y-83500459D01*
X147886328Y-83510426D01*
X147927755Y-83534343D01*
X147940136Y-83580548D01*
X147928677Y-83667596D01*
X147928677Y-83667602D01*
X147949478Y-83825608D01*
X147949481Y-83825618D01*
X148010470Y-83972859D01*
X148010472Y-83972862D01*
X148107494Y-84099305D01*
X148204517Y-84173752D01*
X148233938Y-84196328D01*
X148381185Y-84257320D01*
X148381189Y-84257320D01*
X148381191Y-84257321D01*
X148539198Y-84278123D01*
X148539200Y-84278123D01*
X148539202Y-84278123D01*
X148697208Y-84257321D01*
X148697208Y-84257320D01*
X148697215Y-84257320D01*
X148844462Y-84196328D01*
X148970905Y-84099305D01*
X149067928Y-83972862D01*
X149128920Y-83825615D01*
X149130249Y-83815520D01*
X149149723Y-83667601D01*
X149149723Y-83667598D01*
X149131673Y-83530496D01*
X154104480Y-83530496D01*
X154104480Y-83530503D01*
X154124485Y-83695266D01*
X154124487Y-83695277D01*
X154183344Y-83850467D01*
X154183346Y-83850471D01*
X154248416Y-83944741D01*
X154277636Y-83987074D01*
X154401876Y-84097141D01*
X154548847Y-84174277D01*
X154710008Y-84214000D01*
X154875992Y-84214000D01*
X155037153Y-84174277D01*
X155184124Y-84097141D01*
X155308365Y-83987073D01*
X155402654Y-83850471D01*
X155461513Y-83695274D01*
X155464873Y-83667600D01*
X155481520Y-83530503D01*
X155481520Y-83530496D01*
X155461514Y-83365733D01*
X155461512Y-83365722D01*
X155402655Y-83210532D01*
X155402654Y-83210529D01*
X155308365Y-83073927D01*
X155296717Y-83063608D01*
X155184123Y-82963858D01*
X155037155Y-82886724D01*
X155037154Y-82886723D01*
X155037153Y-82886723D01*
X154928709Y-82859993D01*
X154875993Y-82847000D01*
X154875992Y-82847000D01*
X154710008Y-82847000D01*
X154710006Y-82847000D01*
X154604572Y-82872987D01*
X154548847Y-82886723D01*
X154548846Y-82886723D01*
X154548844Y-82886724D01*
X154401876Y-82963858D01*
X154277636Y-83073925D01*
X154183344Y-83210532D01*
X154124487Y-83365722D01*
X154124485Y-83365733D01*
X154104480Y-83530496D01*
X149131673Y-83530496D01*
X149128921Y-83509591D01*
X149128920Y-83509589D01*
X149128920Y-83509585D01*
X149074458Y-83378103D01*
X149067929Y-83362341D01*
X149067927Y-83362338D01*
X148970905Y-83235895D01*
X148970903Y-83235894D01*
X148970903Y-83235893D01*
X148844462Y-83138872D01*
X148844459Y-83138870D01*
X148697218Y-83077881D01*
X148697208Y-83077878D01*
X148582469Y-83062773D01*
X148541042Y-83038856D01*
X148528662Y-82992651D01*
X148540123Y-82905600D01*
X148519320Y-82747585D01*
X148458328Y-82600339D01*
X148361305Y-82473895D01*
X148361303Y-82473894D01*
X148361303Y-82473893D01*
X148234862Y-82376872D01*
X148234859Y-82376870D01*
X148087618Y-82315881D01*
X148087608Y-82315878D01*
X147929602Y-82295077D01*
X147929598Y-82295077D01*
X147771591Y-82315878D01*
X147771581Y-82315881D01*
X147624341Y-82376870D01*
X147624338Y-82376872D01*
X147497895Y-82473895D01*
X147400872Y-82600338D01*
X147400870Y-82600341D01*
X147339881Y-82747581D01*
X147339878Y-82747591D01*
X147319077Y-82905598D01*
X147060785Y-82905598D01*
X146954523Y-82811458D01*
X146807555Y-82734324D01*
X146807554Y-82734323D01*
X146807553Y-82734323D01*
X146699109Y-82707593D01*
X146646393Y-82694600D01*
X146646392Y-82694600D01*
X146480408Y-82694600D01*
X146480406Y-82694600D01*
X146374972Y-82720587D01*
X146319247Y-82734323D01*
X146319246Y-82734323D01*
X146319244Y-82734324D01*
X146172276Y-82811458D01*
X146048036Y-82921525D01*
X145953744Y-83058132D01*
X145894887Y-83213322D01*
X145894885Y-83213333D01*
X145874880Y-83378096D01*
X136763392Y-83378096D01*
X136756292Y-83351600D01*
X137337100Y-83351600D01*
X137337100Y-83137496D01*
X137337098Y-83137474D01*
X137335706Y-83124137D01*
X137335704Y-83124130D01*
X137292215Y-83019137D01*
X137292210Y-83019130D01*
X137283757Y-83008707D01*
X137283748Y-83008697D01*
X136766009Y-82490957D01*
X136765997Y-82490946D01*
X136755568Y-82482486D01*
X136650562Y-82438993D01*
X136650565Y-82438993D01*
X136637201Y-82437600D01*
X136423100Y-82437600D01*
X136423100Y-83018407D01*
X136337980Y-82995600D01*
X136204220Y-82995600D01*
X136119100Y-83018407D01*
X136119100Y-82437600D01*
X135904996Y-82437600D01*
X135904974Y-82437601D01*
X135891637Y-82438993D01*
X135891630Y-82438995D01*
X135786637Y-82482484D01*
X135786630Y-82482489D01*
X135776207Y-82490942D01*
X135776197Y-82490951D01*
X135258457Y-83008690D01*
X135258446Y-83008702D01*
X135249986Y-83019131D01*
X135206493Y-83124136D01*
X135205100Y-83137499D01*
X134798401Y-83137499D01*
X134798401Y-83137286D01*
X134797000Y-83123862D01*
X134777954Y-83077881D01*
X134753323Y-83018416D01*
X134753321Y-83018414D01*
X134753320Y-83018410D01*
X134744817Y-83007926D01*
X134226770Y-82489878D01*
X134217654Y-82482486D01*
X134216289Y-82481379D01*
X134113964Y-82438995D01*
X134110838Y-82437700D01*
X134110837Y-82437699D01*
X134110835Y-82437699D01*
X134099780Y-82436546D01*
X134097418Y-82436300D01*
X134097416Y-82436299D01*
X134097407Y-82436299D01*
X133364783Y-82436299D01*
X133351366Y-82437699D01*
X133351354Y-82437702D01*
X133245916Y-82481376D01*
X133245909Y-82481381D01*
X133235428Y-82489881D01*
X133235418Y-82489890D01*
X132717381Y-83007926D01*
X132717376Y-83007932D01*
X132708879Y-83018410D01*
X132665199Y-83123864D01*
X132663799Y-83137285D01*
X131269700Y-83137285D01*
X131269700Y-80597285D01*
X132663799Y-80597285D01*
X132663799Y-81329916D01*
X132665199Y-81343333D01*
X132665202Y-81343345D01*
X132708876Y-81448783D01*
X132708878Y-81448786D01*
X132708880Y-81448790D01*
X132717383Y-81459274D01*
X133235430Y-81977322D01*
X133245910Y-81985820D01*
X133351362Y-82029500D01*
X133364782Y-82030900D01*
X134097414Y-82030901D01*
X134110838Y-82029500D01*
X134216290Y-81985820D01*
X134226774Y-81977317D01*
X134744822Y-81459270D01*
X134753320Y-81448790D01*
X134797000Y-81343338D01*
X134798400Y-81329918D01*
X134798401Y-80597286D01*
X134798401Y-80597285D01*
X135203799Y-80597285D01*
X135203799Y-81329916D01*
X135205199Y-81343333D01*
X135205202Y-81343345D01*
X135248876Y-81448783D01*
X135248878Y-81448786D01*
X135248880Y-81448790D01*
X135257383Y-81459274D01*
X135775430Y-81977322D01*
X135785910Y-81985820D01*
X135891362Y-82029500D01*
X135904782Y-82030900D01*
X136637414Y-82030901D01*
X136650838Y-82029500D01*
X136756290Y-81985820D01*
X136766774Y-81977317D01*
X137284822Y-81459270D01*
X137293320Y-81448790D01*
X137337000Y-81343338D01*
X137338400Y-81329918D01*
X137338400Y-81299998D01*
X150489477Y-81299998D01*
X150489477Y-81300001D01*
X150510278Y-81458008D01*
X150510281Y-81458018D01*
X150571270Y-81605259D01*
X150571272Y-81605262D01*
X150668294Y-81731705D01*
X150727765Y-81777338D01*
X150794738Y-81828728D01*
X150941985Y-81889720D01*
X150941989Y-81889720D01*
X150941991Y-81889721D01*
X151099998Y-81910523D01*
X151100000Y-81910523D01*
X151100002Y-81910523D01*
X151258008Y-81889721D01*
X151258008Y-81889720D01*
X151258015Y-81889720D01*
X151405262Y-81828728D01*
X151531705Y-81731705D01*
X151628728Y-81605262D01*
X151689720Y-81458015D01*
X151689721Y-81458008D01*
X151710523Y-81300001D01*
X151710523Y-81299998D01*
X151689721Y-81141991D01*
X151689720Y-81141989D01*
X151689720Y-81141985D01*
X151628728Y-80994739D01*
X151531705Y-80868295D01*
X151531703Y-80868294D01*
X151531703Y-80868293D01*
X151405262Y-80771272D01*
X151405259Y-80771270D01*
X151258018Y-80710281D01*
X151258008Y-80710278D01*
X151100002Y-80689477D01*
X151099998Y-80689477D01*
X150941991Y-80710278D01*
X150941981Y-80710281D01*
X150794741Y-80771270D01*
X150794738Y-80771272D01*
X150668295Y-80868295D01*
X150571272Y-80994738D01*
X150571270Y-80994741D01*
X150510281Y-81141981D01*
X150510278Y-81141991D01*
X150489477Y-81299998D01*
X137338400Y-81299998D01*
X137338401Y-80597286D01*
X137337000Y-80583862D01*
X137336997Y-80583854D01*
X137293323Y-80478416D01*
X137293321Y-80478414D01*
X137293320Y-80478410D01*
X137284817Y-80467926D01*
X136766770Y-79949878D01*
X136756290Y-79941380D01*
X136756289Y-79941379D01*
X136681722Y-79910493D01*
X136650838Y-79897700D01*
X136650837Y-79897699D01*
X136650835Y-79897699D01*
X136639780Y-79896546D01*
X136637418Y-79896300D01*
X136637416Y-79896299D01*
X136637407Y-79896299D01*
X135904783Y-79896299D01*
X135891366Y-79897699D01*
X135891354Y-79897702D01*
X135785916Y-79941376D01*
X135785909Y-79941381D01*
X135775428Y-79949881D01*
X135775418Y-79949890D01*
X135257381Y-80467926D01*
X135257376Y-80467932D01*
X135248879Y-80478410D01*
X135205199Y-80583864D01*
X135203799Y-80597285D01*
X134798401Y-80597285D01*
X134797000Y-80583862D01*
X134796997Y-80583854D01*
X134753323Y-80478416D01*
X134753321Y-80478414D01*
X134753320Y-80478410D01*
X134744817Y-80467926D01*
X134226770Y-79949878D01*
X134216290Y-79941380D01*
X134216289Y-79941379D01*
X134141722Y-79910493D01*
X134110838Y-79897700D01*
X134110837Y-79897699D01*
X134110835Y-79897699D01*
X134099780Y-79896546D01*
X134097418Y-79896300D01*
X134097416Y-79896299D01*
X134097407Y-79896299D01*
X133364783Y-79896299D01*
X133351366Y-79897699D01*
X133351354Y-79897702D01*
X133245916Y-79941376D01*
X133245909Y-79941381D01*
X133235428Y-79949881D01*
X133235418Y-79949890D01*
X132717381Y-80467926D01*
X132717376Y-80467932D01*
X132708879Y-80478410D01*
X132665199Y-80583864D01*
X132663799Y-80597285D01*
X131269700Y-80597285D01*
X131269700Y-79729421D01*
X156044700Y-79729421D01*
X156044700Y-81520578D01*
X156047662Y-81546107D01*
X156047662Y-81546109D01*
X156093766Y-81650525D01*
X156174475Y-81731234D01*
X156278891Y-81777338D01*
X156304421Y-81780300D01*
X158095578Y-81780299D01*
X158121109Y-81777338D01*
X158225525Y-81731234D01*
X158306234Y-81650525D01*
X158352338Y-81546109D01*
X158355300Y-81520579D01*
X158355299Y-79729422D01*
X158352338Y-79703891D01*
X158306234Y-79599475D01*
X158225525Y-79518766D01*
X158121109Y-79472662D01*
X158121107Y-79472661D01*
X158098928Y-79470088D01*
X158095579Y-79469700D01*
X158095578Y-79469700D01*
X156304421Y-79469700D01*
X156278890Y-79472662D01*
X156278889Y-79472662D01*
X156174473Y-79518767D01*
X156093767Y-79599473D01*
X156047661Y-79703892D01*
X156044700Y-79729421D01*
X131269700Y-79729421D01*
X131269700Y-78057285D01*
X132663799Y-78057285D01*
X132663799Y-78789916D01*
X132665199Y-78803333D01*
X132665202Y-78803345D01*
X132708876Y-78908783D01*
X132708878Y-78908786D01*
X132708880Y-78908790D01*
X132717383Y-78919274D01*
X133235430Y-79437322D01*
X133245910Y-79445820D01*
X133351362Y-79489500D01*
X133364782Y-79490900D01*
X134097414Y-79490901D01*
X134110838Y-79489500D01*
X134216290Y-79445820D01*
X134226774Y-79437317D01*
X134744822Y-78919270D01*
X134753320Y-78908790D01*
X134797000Y-78803338D01*
X134798400Y-78789918D01*
X134798401Y-78057286D01*
X134798401Y-78057285D01*
X135203799Y-78057285D01*
X135203799Y-78789916D01*
X135205199Y-78803333D01*
X135205202Y-78803345D01*
X135248876Y-78908783D01*
X135248878Y-78908786D01*
X135248880Y-78908790D01*
X135257383Y-78919274D01*
X135775430Y-79437322D01*
X135785910Y-79445820D01*
X135891362Y-79489500D01*
X135904782Y-79490900D01*
X136637414Y-79490901D01*
X136650838Y-79489500D01*
X136756290Y-79445820D01*
X136766774Y-79437317D01*
X137284822Y-78919270D01*
X137293320Y-78908790D01*
X137296962Y-78899998D01*
X154258677Y-78899998D01*
X154258677Y-78900001D01*
X154279478Y-79058008D01*
X154279481Y-79058018D01*
X154340470Y-79205259D01*
X154340472Y-79205262D01*
X154437494Y-79331705D01*
X154563937Y-79428727D01*
X154563940Y-79428729D01*
X154605209Y-79445823D01*
X154711185Y-79489720D01*
X154711189Y-79489720D01*
X154711191Y-79489721D01*
X154869198Y-79510523D01*
X154869200Y-79510523D01*
X154869202Y-79510523D01*
X155027208Y-79489721D01*
X155027208Y-79489720D01*
X155027215Y-79489720D01*
X155174462Y-79428728D01*
X155300905Y-79331705D01*
X155397928Y-79205262D01*
X155458920Y-79058015D01*
X155465123Y-79010899D01*
X155479723Y-78900001D01*
X155479723Y-78899998D01*
X155458921Y-78741991D01*
X155458920Y-78741989D01*
X155458920Y-78741985D01*
X155397928Y-78594739D01*
X155300905Y-78468295D01*
X155300903Y-78468294D01*
X155300903Y-78468293D01*
X155174462Y-78371272D01*
X155174459Y-78371270D01*
X155027218Y-78310281D01*
X155027208Y-78310278D01*
X154869202Y-78289477D01*
X154869198Y-78289477D01*
X154711191Y-78310278D01*
X154711181Y-78310281D01*
X154563941Y-78371270D01*
X154563938Y-78371272D01*
X154437495Y-78468295D01*
X154340472Y-78594738D01*
X154340470Y-78594741D01*
X154279481Y-78741981D01*
X154279478Y-78741991D01*
X154258677Y-78899998D01*
X137296962Y-78899998D01*
X137337000Y-78803338D01*
X137338400Y-78789918D01*
X137338401Y-78084996D01*
X156039751Y-78084996D01*
X156039751Y-78085003D01*
X156059504Y-78298187D01*
X156059506Y-78298198D01*
X156080298Y-78371272D01*
X156118100Y-78504130D01*
X156213536Y-78695792D01*
X156342566Y-78866655D01*
X156449887Y-78964491D01*
X156500789Y-79010895D01*
X156500790Y-79010896D01*
X156500794Y-79010899D01*
X156682833Y-79123612D01*
X156882483Y-79200957D01*
X157092946Y-79240300D01*
X157092949Y-79240300D01*
X157307051Y-79240300D01*
X157307054Y-79240300D01*
X157517517Y-79200957D01*
X157717167Y-79123612D01*
X157899206Y-79010899D01*
X158057434Y-78866655D01*
X158186464Y-78695792D01*
X158281900Y-78504130D01*
X158340494Y-78298195D01*
X158360249Y-78085000D01*
X158356437Y-78043866D01*
X158340495Y-77871812D01*
X158340493Y-77871801D01*
X158331012Y-77838481D01*
X158281900Y-77665870D01*
X158186464Y-77474208D01*
X158057434Y-77303345D01*
X157950538Y-77205896D01*
X157899210Y-77159104D01*
X157899207Y-77159102D01*
X157899206Y-77159101D01*
X157717167Y-77046388D01*
X157717165Y-77046387D01*
X157517514Y-76969042D01*
X157307056Y-76929700D01*
X157307054Y-76929700D01*
X157092946Y-76929700D01*
X157092943Y-76929700D01*
X156882485Y-76969042D01*
X156682834Y-77046387D01*
X156500789Y-77159104D01*
X156342564Y-77303347D01*
X156342562Y-77303349D01*
X156213536Y-77474208D01*
X156118100Y-77665869D01*
X156059506Y-77871801D01*
X156059504Y-77871812D01*
X156039751Y-78084996D01*
X137338401Y-78084996D01*
X137338401Y-78057286D01*
X137337000Y-78043862D01*
X137336997Y-78043854D01*
X137293323Y-77938416D01*
X137293321Y-77938414D01*
X137293320Y-77938410D01*
X137284817Y-77927926D01*
X136766770Y-77409878D01*
X136756290Y-77401380D01*
X136756289Y-77401379D01*
X136681722Y-77370493D01*
X136650838Y-77357700D01*
X136650837Y-77357699D01*
X136650835Y-77357699D01*
X136639780Y-77356546D01*
X136637418Y-77356300D01*
X136637416Y-77356299D01*
X136637407Y-77356299D01*
X135904783Y-77356299D01*
X135891366Y-77357699D01*
X135891354Y-77357702D01*
X135785916Y-77401376D01*
X135785909Y-77401381D01*
X135775428Y-77409881D01*
X135775418Y-77409890D01*
X135257381Y-77927926D01*
X135257376Y-77927932D01*
X135248879Y-77938410D01*
X135205199Y-78043864D01*
X135203799Y-78057285D01*
X134798401Y-78057285D01*
X134797000Y-78043862D01*
X134796997Y-78043854D01*
X134753323Y-77938416D01*
X134753321Y-77938414D01*
X134753320Y-77938410D01*
X134744817Y-77927926D01*
X134226770Y-77409878D01*
X134216290Y-77401380D01*
X134216289Y-77401379D01*
X134141722Y-77370493D01*
X134110838Y-77357700D01*
X134110837Y-77357699D01*
X134110835Y-77357699D01*
X134099780Y-77356546D01*
X134097418Y-77356300D01*
X134097416Y-77356299D01*
X134097407Y-77356299D01*
X133364783Y-77356299D01*
X133351366Y-77357699D01*
X133351354Y-77357702D01*
X133245916Y-77401376D01*
X133245909Y-77401381D01*
X133235428Y-77409881D01*
X133235418Y-77409890D01*
X132717381Y-77927926D01*
X132717376Y-77927932D01*
X132708879Y-77938410D01*
X132665199Y-78043864D01*
X132663799Y-78057285D01*
X131269700Y-78057285D01*
X131269700Y-77205896D01*
X154180680Y-77205896D01*
X154180680Y-77205903D01*
X154200685Y-77370666D01*
X154200687Y-77370677D01*
X154259544Y-77525867D01*
X154259546Y-77525871D01*
X154353835Y-77662473D01*
X154478076Y-77772541D01*
X154625047Y-77849677D01*
X154786208Y-77889400D01*
X154952192Y-77889400D01*
X155113353Y-77849677D01*
X155260324Y-77772541D01*
X155384565Y-77662473D01*
X155478854Y-77525871D01*
X155537713Y-77370674D01*
X155557720Y-77205900D01*
X155537713Y-77041126D01*
X155537712Y-77041124D01*
X155537712Y-77041122D01*
X155478855Y-76885932D01*
X155478854Y-76885929D01*
X155384565Y-76749327D01*
X155260324Y-76639259D01*
X155260323Y-76639258D01*
X155113355Y-76562124D01*
X155113354Y-76562123D01*
X155113353Y-76562123D01*
X155004909Y-76535393D01*
X154952193Y-76522400D01*
X154952192Y-76522400D01*
X154786208Y-76522400D01*
X154786206Y-76522400D01*
X154680772Y-76548387D01*
X154625047Y-76562123D01*
X154625046Y-76562123D01*
X154625044Y-76562124D01*
X154478076Y-76639258D01*
X154353836Y-76749325D01*
X154259544Y-76885932D01*
X154200687Y-77041122D01*
X154200685Y-77041133D01*
X154180680Y-77205896D01*
X131269700Y-77205896D01*
X131269700Y-75605696D01*
X139245480Y-75605696D01*
X139245480Y-75605703D01*
X139265485Y-75770466D01*
X139265487Y-75770477D01*
X139324344Y-75925667D01*
X139324346Y-75925671D01*
X139418635Y-76062273D01*
X139542876Y-76172341D01*
X139689847Y-76249477D01*
X139851008Y-76289200D01*
X140016992Y-76289200D01*
X140178153Y-76249477D01*
X140325124Y-76172341D01*
X140449365Y-76062273D01*
X140543654Y-75925671D01*
X140602513Y-75770474D01*
X140622520Y-75605700D01*
X140602513Y-75440926D01*
X140602512Y-75440924D01*
X140602512Y-75440922D01*
X140543655Y-75285732D01*
X140543654Y-75285729D01*
X140449365Y-75149127D01*
X140362641Y-75072296D01*
X145570080Y-75072296D01*
X145570080Y-75072303D01*
X145590085Y-75237066D01*
X145590087Y-75237077D01*
X145648944Y-75392267D01*
X145648946Y-75392271D01*
X145743235Y-75528873D01*
X145867476Y-75638941D01*
X146014447Y-75716077D01*
X146175608Y-75755800D01*
X146341592Y-75755800D01*
X146502753Y-75716077D01*
X146649724Y-75638941D01*
X146773965Y-75528873D01*
X146868254Y-75392271D01*
X146927113Y-75237074D01*
X146927114Y-75237066D01*
X146947120Y-75072303D01*
X146947120Y-75072296D01*
X146927114Y-74907533D01*
X146927112Y-74907522D01*
X146874006Y-74767496D01*
X151589880Y-74767496D01*
X151589880Y-74767503D01*
X151609885Y-74932266D01*
X151609887Y-74932277D01*
X151662992Y-75072300D01*
X151668746Y-75087471D01*
X151763035Y-75224073D01*
X151887276Y-75334141D01*
X152034247Y-75411277D01*
X152195408Y-75451000D01*
X152361392Y-75451000D01*
X152522553Y-75411277D01*
X152669524Y-75334141D01*
X152793765Y-75224073D01*
X152888054Y-75087471D01*
X152946913Y-74932274D01*
X152966920Y-74767500D01*
X152965078Y-74752332D01*
X152946914Y-74602733D01*
X152946912Y-74602722D01*
X152888055Y-74447532D01*
X152888054Y-74447529D01*
X152793765Y-74310927D01*
X152669524Y-74200859D01*
X152669523Y-74200858D01*
X152522555Y-74123724D01*
X152522554Y-74123723D01*
X152522553Y-74123723D01*
X152414109Y-74096993D01*
X152361393Y-74084000D01*
X152361392Y-74084000D01*
X152195408Y-74084000D01*
X152195406Y-74084000D01*
X152089972Y-74109987D01*
X152034247Y-74123723D01*
X152034246Y-74123723D01*
X152034244Y-74123724D01*
X151887276Y-74200858D01*
X151763036Y-74310925D01*
X151668744Y-74447532D01*
X151609887Y-74602722D01*
X151609885Y-74602733D01*
X151589880Y-74767496D01*
X146874006Y-74767496D01*
X146868255Y-74752332D01*
X146868254Y-74752329D01*
X146773965Y-74615727D01*
X146759285Y-74602722D01*
X146649723Y-74505658D01*
X146502755Y-74428524D01*
X146502754Y-74428523D01*
X146502753Y-74428523D01*
X146394309Y-74401793D01*
X146341593Y-74388800D01*
X146341592Y-74388800D01*
X146175608Y-74388800D01*
X146175606Y-74388800D01*
X146070172Y-74414787D01*
X146014447Y-74428523D01*
X146014446Y-74428523D01*
X146014444Y-74428524D01*
X145867476Y-74505658D01*
X145743236Y-74615725D01*
X145648944Y-74752332D01*
X145590087Y-74907522D01*
X145590085Y-74907533D01*
X145570080Y-75072296D01*
X140362641Y-75072296D01*
X140325124Y-75039059D01*
X140325123Y-75039058D01*
X140178155Y-74961924D01*
X140178154Y-74961923D01*
X140178153Y-74961923D01*
X140057876Y-74932277D01*
X140016993Y-74922200D01*
X140016992Y-74922200D01*
X139851008Y-74922200D01*
X139851006Y-74922200D01*
X139745572Y-74948187D01*
X139689847Y-74961923D01*
X139689846Y-74961923D01*
X139689844Y-74961924D01*
X139542876Y-75039058D01*
X139418636Y-75149125D01*
X139324344Y-75285732D01*
X139265487Y-75440922D01*
X139265485Y-75440933D01*
X139245480Y-75605696D01*
X131269700Y-75605696D01*
X131269700Y-71719496D01*
X159057480Y-71719496D01*
X159057480Y-71719503D01*
X159077485Y-71884266D01*
X159077487Y-71884277D01*
X159136344Y-72039467D01*
X159136346Y-72039471D01*
X159230635Y-72176073D01*
X159354876Y-72286141D01*
X159501847Y-72363277D01*
X159663008Y-72403000D01*
X159828992Y-72403000D01*
X159990153Y-72363277D01*
X160137124Y-72286141D01*
X160261365Y-72176073D01*
X160355654Y-72039471D01*
X160414513Y-71884274D01*
X160434520Y-71719500D01*
X160414513Y-71554726D01*
X160414512Y-71554724D01*
X160414512Y-71554722D01*
X160355655Y-71399532D01*
X160355654Y-71399529D01*
X160261365Y-71262927D01*
X160137124Y-71152859D01*
X160137123Y-71152858D01*
X159990155Y-71075724D01*
X159990154Y-71075723D01*
X159990153Y-71075723D01*
X159881709Y-71048993D01*
X159828993Y-71036000D01*
X159828992Y-71036000D01*
X159663008Y-71036000D01*
X159663006Y-71036000D01*
X159557572Y-71061987D01*
X159501847Y-71075723D01*
X159501846Y-71075723D01*
X159501844Y-71075724D01*
X159354876Y-71152858D01*
X159230636Y-71262925D01*
X159136344Y-71399532D01*
X159077487Y-71554722D01*
X159077485Y-71554733D01*
X159057480Y-71719496D01*
X131269700Y-71719496D01*
X131269700Y-65882857D01*
X143968100Y-65882857D01*
X143968100Y-66561600D01*
X144550072Y-66561600D01*
X144526100Y-66651065D01*
X144526100Y-66776135D01*
X144550072Y-66865600D01*
X143968100Y-66865600D01*
X143968100Y-67544342D01*
X144007797Y-67743913D01*
X144085667Y-67931910D01*
X144198716Y-68101098D01*
X144342601Y-68244983D01*
X144511789Y-68358032D01*
X144699785Y-68435901D01*
X144849099Y-68465602D01*
X144849100Y-68465601D01*
X144849100Y-67164628D01*
X144938565Y-67188600D01*
X145063635Y-67188600D01*
X145153100Y-67164628D01*
X145153100Y-68465602D01*
X145302414Y-68435901D01*
X145490410Y-68358032D01*
X145659598Y-68244983D01*
X145803483Y-68101098D01*
X145916532Y-67931910D01*
X145994402Y-67743913D01*
X146034099Y-67544342D01*
X146034100Y-67544342D01*
X146034100Y-66865600D01*
X145452128Y-66865600D01*
X145476100Y-66776135D01*
X145476100Y-66651065D01*
X145452128Y-66561600D01*
X146034100Y-66561600D01*
X146034100Y-65882858D01*
X146034099Y-65882857D01*
X146034074Y-65882729D01*
X146466800Y-65882729D01*
X146466800Y-67544470D01*
X146506546Y-67744292D01*
X146506547Y-67744295D01*
X146584515Y-67932525D01*
X146584516Y-67932528D01*
X146697705Y-68101927D01*
X146841772Y-68245994D01*
X147011171Y-68359183D01*
X147011173Y-68359183D01*
X147011175Y-68359185D01*
X147199406Y-68437153D01*
X147399230Y-68476900D01*
X147602970Y-68476900D01*
X147802794Y-68437153D01*
X147991025Y-68359185D01*
X148160428Y-68245994D01*
X148304494Y-68101928D01*
X148417685Y-67932525D01*
X148443358Y-67870544D01*
X148477183Y-67836720D01*
X148525018Y-67836721D01*
X148558842Y-67870545D01*
X148584515Y-67932525D01*
X148584516Y-67932528D01*
X148697705Y-68101927D01*
X148841772Y-68245994D01*
X149011171Y-68359183D01*
X149011173Y-68359183D01*
X149011175Y-68359185D01*
X149199406Y-68437153D01*
X149399230Y-68476900D01*
X149602970Y-68476900D01*
X149802794Y-68437153D01*
X149991025Y-68359185D01*
X150160428Y-68245994D01*
X150304494Y-68101928D01*
X150417685Y-67932525D01*
X150495653Y-67744294D01*
X150535400Y-67544470D01*
X150535400Y-65882730D01*
X150535400Y-65882729D01*
X150966800Y-65882729D01*
X150966800Y-67544470D01*
X151006546Y-67744292D01*
X151006547Y-67744295D01*
X151084515Y-67932525D01*
X151084516Y-67932528D01*
X151197705Y-68101927D01*
X151341772Y-68245994D01*
X151511171Y-68359183D01*
X151511173Y-68359183D01*
X151511175Y-68359185D01*
X151699406Y-68437153D01*
X151899230Y-68476900D01*
X152102970Y-68476900D01*
X152302794Y-68437153D01*
X152491025Y-68359185D01*
X152660428Y-68245994D01*
X152804494Y-68101928D01*
X152917685Y-67932525D01*
X152995653Y-67744294D01*
X153035400Y-67544470D01*
X153035400Y-65882730D01*
X152995653Y-65682906D01*
X152917685Y-65494675D01*
X152917683Y-65494673D01*
X152917683Y-65494671D01*
X152804494Y-65325272D01*
X152660427Y-65181205D01*
X152491028Y-65068016D01*
X152491025Y-65068015D01*
X152302795Y-64990047D01*
X152302792Y-64990046D01*
X152102970Y-64950300D01*
X151899230Y-64950300D01*
X151699407Y-64990046D01*
X151699404Y-64990047D01*
X151511174Y-65068015D01*
X151511171Y-65068016D01*
X151341772Y-65181205D01*
X151197705Y-65325272D01*
X151084516Y-65494671D01*
X151084515Y-65494674D01*
X151006547Y-65682904D01*
X151006546Y-65682907D01*
X150966800Y-65882729D01*
X150535400Y-65882729D01*
X150495653Y-65682906D01*
X150417685Y-65494675D01*
X150417683Y-65494673D01*
X150417683Y-65494671D01*
X150304494Y-65325272D01*
X150160427Y-65181205D01*
X149991028Y-65068016D01*
X149991025Y-65068015D01*
X149802795Y-64990047D01*
X149802792Y-64990046D01*
X149602970Y-64950300D01*
X149399230Y-64950300D01*
X149199407Y-64990046D01*
X149199404Y-64990047D01*
X149011174Y-65068015D01*
X149011171Y-65068016D01*
X148841772Y-65181205D01*
X148697705Y-65325272D01*
X148584516Y-65494671D01*
X148584515Y-65494674D01*
X148558842Y-65556655D01*
X148525017Y-65590480D01*
X148477182Y-65590479D01*
X148443358Y-65556655D01*
X148417939Y-65495289D01*
X148417685Y-65494675D01*
X148417683Y-65494673D01*
X148417683Y-65494671D01*
X148304494Y-65325272D01*
X148160427Y-65181205D01*
X147991028Y-65068016D01*
X147991025Y-65068015D01*
X147802795Y-64990047D01*
X147802792Y-64990046D01*
X147602970Y-64950300D01*
X147399230Y-64950300D01*
X147199407Y-64990046D01*
X147199404Y-64990047D01*
X147011174Y-65068015D01*
X147011171Y-65068016D01*
X146841772Y-65181205D01*
X146697705Y-65325272D01*
X146584516Y-65494671D01*
X146584515Y-65494674D01*
X146506547Y-65682904D01*
X146506546Y-65682907D01*
X146466800Y-65882729D01*
X146034074Y-65882729D01*
X145994402Y-65683286D01*
X145916532Y-65495289D01*
X145803483Y-65326101D01*
X145659598Y-65182216D01*
X145490410Y-65069167D01*
X145302413Y-64991297D01*
X145153100Y-64961597D01*
X145153100Y-66262571D01*
X145063635Y-66238600D01*
X144938565Y-66238600D01*
X144849100Y-66262571D01*
X144849100Y-64961597D01*
X144849099Y-64961597D01*
X144699786Y-64991297D01*
X144511789Y-65069167D01*
X144342601Y-65182216D01*
X144198716Y-65326101D01*
X144085667Y-65495289D01*
X144007797Y-65683286D01*
X143968100Y-65882857D01*
X131269700Y-65882857D01*
X131269700Y-64003596D01*
X140170878Y-64003596D01*
X140170878Y-64003603D01*
X140190538Y-64265946D01*
X140190538Y-64265948D01*
X140249077Y-64522428D01*
X140249080Y-64522435D01*
X140345195Y-64767332D01*
X140476736Y-64995168D01*
X140476738Y-64995171D01*
X140476742Y-64995177D01*
X140640759Y-65200847D01*
X140640762Y-65200850D01*
X140640766Y-65200855D01*
X140833620Y-65379797D01*
X140833625Y-65379800D01*
X140833628Y-65379803D01*
X140970924Y-65473409D01*
X141050989Y-65527997D01*
X141288019Y-65642144D01*
X141288024Y-65642145D01*
X141288027Y-65642147D01*
X141539406Y-65719688D01*
X141539409Y-65719688D01*
X141539414Y-65719690D01*
X141799558Y-65758900D01*
X141799564Y-65758900D01*
X142062636Y-65758900D01*
X142062642Y-65758900D01*
X142322786Y-65719690D01*
X142322791Y-65719688D01*
X142322794Y-65719688D01*
X142574172Y-65642147D01*
X142574173Y-65642146D01*
X142574181Y-65642144D01*
X142811211Y-65527997D01*
X143028580Y-65379797D01*
X143221434Y-65200855D01*
X143385464Y-64995168D01*
X143517005Y-64767332D01*
X143613120Y-64522435D01*
X143671662Y-64265947D01*
X143691322Y-64003600D01*
X143691322Y-64003596D01*
X153310878Y-64003596D01*
X153310878Y-64003603D01*
X153330538Y-64265946D01*
X153330538Y-64265948D01*
X153389077Y-64522428D01*
X153389080Y-64522435D01*
X153485195Y-64767332D01*
X153616736Y-64995168D01*
X153616738Y-64995171D01*
X153616742Y-64995177D01*
X153780759Y-65200847D01*
X153780762Y-65200850D01*
X153780766Y-65200855D01*
X153973620Y-65379797D01*
X153973625Y-65379800D01*
X153973628Y-65379803D01*
X154110924Y-65473409D01*
X154190989Y-65527997D01*
X154428019Y-65642144D01*
X154428024Y-65642145D01*
X154428027Y-65642147D01*
X154679406Y-65719688D01*
X154679409Y-65719688D01*
X154679414Y-65719690D01*
X154939558Y-65758900D01*
X154939564Y-65758900D01*
X155202636Y-65758900D01*
X155202642Y-65758900D01*
X155462786Y-65719690D01*
X155462791Y-65719688D01*
X155462794Y-65719688D01*
X155714172Y-65642147D01*
X155714173Y-65642146D01*
X155714181Y-65642144D01*
X155951211Y-65527997D01*
X156168580Y-65379797D01*
X156361434Y-65200855D01*
X156525464Y-64995168D01*
X156657005Y-64767332D01*
X156753120Y-64522435D01*
X156811662Y-64265947D01*
X156831322Y-64003600D01*
X156811662Y-63741253D01*
X156784560Y-63622516D01*
X156753122Y-63484771D01*
X156753120Y-63484765D01*
X156657005Y-63239868D01*
X156525464Y-63012032D01*
X156525459Y-63012026D01*
X156525457Y-63012022D01*
X156361440Y-62806352D01*
X156361437Y-62806349D01*
X156361434Y-62806345D01*
X156168580Y-62627403D01*
X156168574Y-62627399D01*
X156168571Y-62627396D01*
X155951211Y-62479203D01*
X155714181Y-62365056D01*
X155714178Y-62365055D01*
X155714176Y-62365054D01*
X155714172Y-62365052D01*
X155462793Y-62287511D01*
X155462794Y-62287511D01*
X155312625Y-62264877D01*
X155202642Y-62248300D01*
X154939558Y-62248300D01*
X154679405Y-62287511D01*
X154428027Y-62365052D01*
X154428023Y-62365054D01*
X154190988Y-62479203D01*
X153973628Y-62627396D01*
X153780764Y-62806347D01*
X153780759Y-62806352D01*
X153616742Y-63012022D01*
X153485196Y-63239865D01*
X153389077Y-63484771D01*
X153330538Y-63741251D01*
X153330538Y-63741253D01*
X153310878Y-64003596D01*
X143691322Y-64003596D01*
X143671662Y-63741253D01*
X143644560Y-63622516D01*
X143613122Y-63484771D01*
X143613120Y-63484765D01*
X143517005Y-63239868D01*
X143385464Y-63012032D01*
X143385459Y-63012026D01*
X143385457Y-63012022D01*
X143221440Y-62806352D01*
X143221437Y-62806349D01*
X143221434Y-62806345D01*
X143028580Y-62627403D01*
X143028574Y-62627399D01*
X143028571Y-62627396D01*
X142811211Y-62479203D01*
X142574181Y-62365056D01*
X142574178Y-62365055D01*
X142574176Y-62365054D01*
X142574172Y-62365052D01*
X142322793Y-62287511D01*
X142322794Y-62287511D01*
X142172625Y-62264877D01*
X142062642Y-62248300D01*
X141799558Y-62248300D01*
X141539405Y-62287511D01*
X141288027Y-62365052D01*
X141288023Y-62365054D01*
X141050988Y-62479203D01*
X140833628Y-62627396D01*
X140640764Y-62806347D01*
X140640759Y-62806352D01*
X140476742Y-63012022D01*
X140345196Y-63239865D01*
X140249077Y-63484771D01*
X140190538Y-63741251D01*
X140190538Y-63741253D01*
X140170878Y-64003596D01*
X131269700Y-64003596D01*
X131269700Y-59756096D01*
X156847680Y-59756096D01*
X156847680Y-59756103D01*
X156867685Y-59920866D01*
X156867687Y-59920877D01*
X156926544Y-60076067D01*
X156926546Y-60076071D01*
X157020835Y-60212673D01*
X157145076Y-60322741D01*
X157292047Y-60399877D01*
X157453208Y-60439600D01*
X157619192Y-60439600D01*
X157780353Y-60399877D01*
X157927324Y-60322741D01*
X158051565Y-60212673D01*
X158145854Y-60076071D01*
X158204713Y-59920874D01*
X158224720Y-59756100D01*
X158204713Y-59591326D01*
X158204712Y-59591324D01*
X158204712Y-59591322D01*
X158145855Y-59436132D01*
X158145854Y-59436129D01*
X158051565Y-59299527D01*
X157927324Y-59189459D01*
X157927323Y-59189458D01*
X157780355Y-59112324D01*
X157780354Y-59112323D01*
X157780353Y-59112323D01*
X157671909Y-59085593D01*
X157619193Y-59072600D01*
X157619192Y-59072600D01*
X157453208Y-59072600D01*
X157453206Y-59072600D01*
X157347772Y-59098587D01*
X157292047Y-59112323D01*
X157292046Y-59112323D01*
X157292044Y-59112324D01*
X157145076Y-59189458D01*
X157020836Y-59299525D01*
X156926544Y-59436132D01*
X156867687Y-59591322D01*
X156867685Y-59591333D01*
X156847680Y-59756096D01*
X131269700Y-59756096D01*
X131269700Y-57622496D01*
X161953080Y-57622496D01*
X161953080Y-57622503D01*
X161973085Y-57787266D01*
X161973087Y-57787277D01*
X162031944Y-57942467D01*
X162031946Y-57942471D01*
X162126235Y-58079073D01*
X162250476Y-58189141D01*
X162397447Y-58266277D01*
X162558608Y-58306000D01*
X162724592Y-58306000D01*
X162885753Y-58266277D01*
X163032724Y-58189141D01*
X163156965Y-58079073D01*
X163251254Y-57942471D01*
X163310113Y-57787274D01*
X163330120Y-57622500D01*
X163310113Y-57457726D01*
X163310112Y-57457724D01*
X163310112Y-57457722D01*
X163251255Y-57302532D01*
X163251254Y-57302529D01*
X163156965Y-57165927D01*
X163032724Y-57055859D01*
X163032723Y-57055858D01*
X162885755Y-56978724D01*
X162885754Y-56978723D01*
X162885753Y-56978723D01*
X162777309Y-56951993D01*
X162724593Y-56939000D01*
X162724592Y-56939000D01*
X162558608Y-56939000D01*
X162558606Y-56939000D01*
X162453172Y-56964987D01*
X162397447Y-56978723D01*
X162397446Y-56978723D01*
X162397444Y-56978724D01*
X162250476Y-57055858D01*
X162126236Y-57165925D01*
X162031944Y-57302532D01*
X161973087Y-57457722D01*
X161973085Y-57457733D01*
X161953080Y-57622496D01*
X131269700Y-57622496D01*
X131269700Y-55104700D01*
X131288006Y-55060506D01*
X131332200Y-55042200D01*
X164331900Y-55042200D01*
X164376094Y-55060506D01*
G37*
%TD.AperFunction*%
%TD*%
M02*
