%TF.GenerationSoftware,KiCad,Pcbnew,8.0.6*%
%TF.CreationDate,2024-11-27T18:57:58+00:00*%
%TF.ProjectId,wmk,776d6b2e-6b69-4636-9164-5f7063625858,rev?*%
%TF.SameCoordinates,Original*%
%TF.FileFunction,Soldermask,Bot*%
%TF.FilePolarity,Negative*%
%FSLAX46Y46*%
G04 Gerber Fmt 4.6, Leading zero omitted, Abs format (unit mm)*
G04 Created by KiCad (PCBNEW 8.0.6) date 2024-11-27 18:57:58*
%MOMM*%
%LPD*%
G01*
G04 APERTURE LIST*
G04 Aperture macros list*
%AMRoundRect*
0 Rectangle with rounded corners*
0 $1 Rounding radius*
0 $2 $3 $4 $5 $6 $7 $8 $9 X,Y pos of 4 corners*
0 Add a 4 corners polygon primitive as box body*
4,1,4,$2,$3,$4,$5,$6,$7,$8,$9,$2,$3,0*
0 Add four circle primitives for the rounded corners*
1,1,$1+$1,$2,$3*
1,1,$1+$1,$4,$5*
1,1,$1+$1,$6,$7*
1,1,$1+$1,$8,$9*
0 Add four rect primitives between the rounded corners*
20,1,$1+$1,$2,$3,$4,$5,0*
20,1,$1+$1,$4,$5,$6,$7,0*
20,1,$1+$1,$6,$7,$8,$9,0*
20,1,$1+$1,$8,$9,$2,$3,0*%
%AMFreePoly0*
4,1,25,0.375350,0.844196,0.387473,0.833842,0.833842,0.387473,0.862349,0.331525,0.863600,0.315631,0.863600,-0.315631,0.844196,-0.375350,0.833842,-0.387473,0.387473,-0.833842,0.331525,-0.862349,0.315631,-0.863600,-0.315631,-0.863600,-0.375350,-0.844196,-0.387473,-0.833842,-0.833842,-0.387473,-0.862349,-0.331525,-0.863600,-0.315631,-0.863600,0.315631,-0.844196,0.375350,-0.833842,0.387473,
-0.387473,0.833842,-0.331525,0.862349,-0.315631,0.863600,0.315631,0.863600,0.375350,0.844196,0.375350,0.844196,$1*%
G04 Aperture macros list end*
%ADD10R,1.700000X1.700000*%
%ADD11O,1.700000X1.700000*%
%ADD12O,1.625600X3.048000*%
%ADD13O,1.661200X3.119200*%
%ADD14C,3.103200*%
%ADD15O,1.727200X3.251200*%
%ADD16FreePoly0,90.000000*%
%ADD17RoundRect,0.101600X0.500000X-0.550000X0.500000X0.550000X-0.500000X0.550000X-0.500000X-0.550000X0*%
%ADD18RoundRect,0.101600X0.550000X-0.500000X0.550000X0.500000X-0.550000X0.500000X-0.550000X-0.500000X0*%
%ADD19RoundRect,0.101600X-0.500000X-0.550000X0.500000X-0.550000X0.500000X0.550000X-0.500000X0.550000X0*%
%ADD20RoundRect,0.101600X-0.500000X0.550000X-0.500000X-0.550000X0.500000X-0.550000X0.500000X0.550000X0*%
%ADD21RoundRect,0.101600X0.550000X0.500000X-0.550000X0.500000X-0.550000X-0.500000X0.550000X-0.500000X0*%
%ADD22RoundRect,0.101600X-0.550000X-0.500000X0.550000X-0.500000X0.550000X0.500000X-0.550000X0.500000X0*%
G04 APERTURE END LIST*
D10*
%TO.C,J2*%
X157200000Y-80625000D03*
D11*
X157200000Y-78085000D03*
%TD*%
D12*
%TO.C,JP3*%
X150150000Y-94750000D03*
X152690000Y-94750000D03*
%TD*%
D13*
%TO.C,X1*%
X152001100Y-66713600D03*
X149501100Y-66713600D03*
X147501100Y-66713600D03*
X145001100Y-66713600D03*
D14*
X155071100Y-64003600D03*
X141931100Y-64003600D03*
%TD*%
D10*
%TO.C,J1*%
X158500000Y-91190000D03*
D11*
X158500000Y-88650000D03*
X158500000Y-86110000D03*
%TD*%
D15*
%TO.C,JP2*%
X162257431Y-103249369D03*
X159717431Y-103249369D03*
X157177431Y-103249369D03*
X154637431Y-103249369D03*
X152097431Y-103249369D03*
X149557431Y-103249369D03*
X147017431Y-103249369D03*
X144477431Y-103249369D03*
%TD*%
D16*
%TO.C,JP1*%
X136271100Y-88583600D03*
X133731100Y-88583600D03*
X136271100Y-86043600D03*
X133731100Y-86043600D03*
X136271100Y-83503600D03*
X133731100Y-83503600D03*
X136271100Y-80963600D03*
X133731100Y-80963600D03*
X136271100Y-78423600D03*
X133731100Y-78423600D03*
%TD*%
D17*
%TO.C,C12*%
X144787584Y-84136100D03*
X144787584Y-82436100D03*
%TD*%
D18*
%TO.C,R2*%
X149900000Y-80050000D03*
X149900000Y-78350000D03*
%TD*%
D19*
%TO.C,R1*%
X154100000Y-87450000D03*
X155800000Y-87450000D03*
%TD*%
D20*
%TO.C,C7*%
X149850000Y-81350000D03*
X149850000Y-83050000D03*
%TD*%
%TO.C,C6*%
X153245100Y-78937500D03*
X153245100Y-80637500D03*
%TD*%
D21*
%TO.C,C16*%
X152355000Y-85009800D03*
X150655000Y-85009800D03*
%TD*%
D22*
%TO.C,C5*%
X145579268Y-76780438D03*
X147279268Y-76780438D03*
%TD*%
M02*
