%TF.GenerationSoftware,KiCad,Pcbnew,8.0.6*%
%TF.CreationDate,2024-11-27T18:57:58+00:00*%
%TF.ProjectId,wmk,776d6b2e-6b69-4636-9164-5f7063625858,rev?*%
%TF.SameCoordinates,Original*%
%TF.FileFunction,Legend,Bot*%
%TF.FilePolarity,Positive*%
%FSLAX46Y46*%
G04 Gerber Fmt 4.6, Leading zero omitted, Abs format (unit mm)*
G04 Created by KiCad (PCBNEW 8.0.6) date 2024-11-27 18:57:58*
%MOMM*%
%LPD*%
G01*
G04 APERTURE LIST*
%ADD10C,0.083185*%
%ADD11C,0.101600*%
G04 APERTURE END LIST*
D10*
X145980848Y-82880186D02*
X145996693Y-82864342D01*
X145996693Y-82864342D02*
X146012537Y-82816807D01*
X146012537Y-82816807D02*
X146012537Y-82785118D01*
X146012537Y-82785118D02*
X145996693Y-82737584D01*
X145996693Y-82737584D02*
X145965003Y-82705894D01*
X145965003Y-82705894D02*
X145933313Y-82690049D01*
X145933313Y-82690049D02*
X145869934Y-82674205D01*
X145869934Y-82674205D02*
X145822400Y-82674205D01*
X145822400Y-82674205D02*
X145759021Y-82690049D01*
X145759021Y-82690049D02*
X145727332Y-82705894D01*
X145727332Y-82705894D02*
X145695642Y-82737584D01*
X145695642Y-82737584D02*
X145679797Y-82785118D01*
X145679797Y-82785118D02*
X145679797Y-82816807D01*
X145679797Y-82816807D02*
X145695642Y-82864342D01*
X145695642Y-82864342D02*
X145711487Y-82880186D01*
X146012537Y-83197082D02*
X146012537Y-83006945D01*
X146012537Y-83102013D02*
X145679797Y-83102013D01*
X145679797Y-83102013D02*
X145727332Y-83070324D01*
X145727332Y-83070324D02*
X145759021Y-83038634D01*
X145759021Y-83038634D02*
X145774866Y-83006945D01*
X145711487Y-83323840D02*
X145695642Y-83339684D01*
X145695642Y-83339684D02*
X145679797Y-83371374D01*
X145679797Y-83371374D02*
X145679797Y-83450598D01*
X145679797Y-83450598D02*
X145695642Y-83482287D01*
X145695642Y-83482287D02*
X145711487Y-83498132D01*
X145711487Y-83498132D02*
X145743176Y-83513977D01*
X145743176Y-83513977D02*
X145774866Y-83513977D01*
X145774866Y-83513977D02*
X145822400Y-83498132D01*
X145822400Y-83498132D02*
X146012537Y-83307995D01*
X146012537Y-83307995D02*
X146012537Y-83513977D01*
X148178553Y-79973286D02*
X148020106Y-79862373D01*
X148178553Y-79783149D02*
X147845813Y-79783149D01*
X147845813Y-79783149D02*
X147845813Y-79909907D01*
X147845813Y-79909907D02*
X147861658Y-79941597D01*
X147861658Y-79941597D02*
X147877503Y-79957442D01*
X147877503Y-79957442D02*
X147909192Y-79973286D01*
X147909192Y-79973286D02*
X147956727Y-79973286D01*
X147956727Y-79973286D02*
X147988416Y-79957442D01*
X147988416Y-79957442D02*
X148004261Y-79941597D01*
X148004261Y-79941597D02*
X148020106Y-79909907D01*
X148020106Y-79909907D02*
X148020106Y-79783149D01*
X147877503Y-80100045D02*
X147861658Y-80115889D01*
X147861658Y-80115889D02*
X147845813Y-80147579D01*
X147845813Y-80147579D02*
X147845813Y-80226803D01*
X147845813Y-80226803D02*
X147861658Y-80258492D01*
X147861658Y-80258492D02*
X147877503Y-80274337D01*
X147877503Y-80274337D02*
X147909192Y-80290182D01*
X147909192Y-80290182D02*
X147940882Y-80290182D01*
X147940882Y-80290182D02*
X147988416Y-80274337D01*
X147988416Y-80274337D02*
X148178553Y-80084200D01*
X148178553Y-80084200D02*
X148178553Y-80290182D01*
D11*
X155717156Y-87936726D02*
X156106623Y-87380345D01*
X156384813Y-87936726D02*
X156384813Y-86768326D01*
X156384813Y-86768326D02*
X155939708Y-86768326D01*
X155939708Y-86768326D02*
X155828432Y-86823964D01*
X155828432Y-86823964D02*
X155772794Y-86879602D01*
X155772794Y-86879602D02*
X155717156Y-86990878D01*
X155717156Y-86990878D02*
X155717156Y-87157792D01*
X155717156Y-87157792D02*
X155772794Y-87269068D01*
X155772794Y-87269068D02*
X155828432Y-87324707D01*
X155828432Y-87324707D02*
X155939708Y-87380345D01*
X155939708Y-87380345D02*
X156384813Y-87380345D01*
X154604394Y-87936726D02*
X155272051Y-87936726D01*
X154938223Y-87936726D02*
X154938223Y-86768326D01*
X154938223Y-86768326D02*
X155049499Y-86935240D01*
X155049499Y-86935240D02*
X155160775Y-87046516D01*
X155160775Y-87046516D02*
X155272051Y-87102154D01*
D10*
X150264169Y-83502999D02*
X150280014Y-83487155D01*
X150280014Y-83487155D02*
X150295858Y-83439620D01*
X150295858Y-83439620D02*
X150295858Y-83407931D01*
X150295858Y-83407931D02*
X150280014Y-83360397D01*
X150280014Y-83360397D02*
X150248324Y-83328707D01*
X150248324Y-83328707D02*
X150216634Y-83312862D01*
X150216634Y-83312862D02*
X150153255Y-83297018D01*
X150153255Y-83297018D02*
X150105721Y-83297018D01*
X150105721Y-83297018D02*
X150042342Y-83312862D01*
X150042342Y-83312862D02*
X150010653Y-83328707D01*
X150010653Y-83328707D02*
X149978963Y-83360397D01*
X149978963Y-83360397D02*
X149963118Y-83407931D01*
X149963118Y-83407931D02*
X149963118Y-83439620D01*
X149963118Y-83439620D02*
X149978963Y-83487155D01*
X149978963Y-83487155D02*
X149994808Y-83502999D01*
X149963118Y-83613913D02*
X149963118Y-83835739D01*
X149963118Y-83835739D02*
X150295858Y-83693137D01*
X153271000Y-81908369D02*
X153286844Y-81924214D01*
X153286844Y-81924214D02*
X153334379Y-81940058D01*
X153334379Y-81940058D02*
X153366068Y-81940058D01*
X153366068Y-81940058D02*
X153413602Y-81924214D01*
X153413602Y-81924214D02*
X153445292Y-81892524D01*
X153445292Y-81892524D02*
X153461137Y-81860834D01*
X153461137Y-81860834D02*
X153476981Y-81797455D01*
X153476981Y-81797455D02*
X153476981Y-81749921D01*
X153476981Y-81749921D02*
X153461137Y-81686542D01*
X153461137Y-81686542D02*
X153445292Y-81654853D01*
X153445292Y-81654853D02*
X153413602Y-81623163D01*
X153413602Y-81623163D02*
X153366068Y-81607318D01*
X153366068Y-81607318D02*
X153334379Y-81607318D01*
X153334379Y-81607318D02*
X153286844Y-81623163D01*
X153286844Y-81623163D02*
X153271000Y-81639008D01*
X152985794Y-81607318D02*
X153049173Y-81607318D01*
X153049173Y-81607318D02*
X153080862Y-81623163D01*
X153080862Y-81623163D02*
X153096707Y-81639008D01*
X153096707Y-81639008D02*
X153128397Y-81686542D01*
X153128397Y-81686542D02*
X153144241Y-81749921D01*
X153144241Y-81749921D02*
X153144241Y-81876679D01*
X153144241Y-81876679D02*
X153128397Y-81908369D01*
X153128397Y-81908369D02*
X153112552Y-81924214D01*
X153112552Y-81924214D02*
X153080862Y-81940058D01*
X153080862Y-81940058D02*
X153017483Y-81940058D01*
X153017483Y-81940058D02*
X152985794Y-81924214D01*
X152985794Y-81924214D02*
X152969949Y-81908369D01*
X152969949Y-81908369D02*
X152954104Y-81876679D01*
X152954104Y-81876679D02*
X152954104Y-81797455D01*
X152954104Y-81797455D02*
X152969949Y-81765766D01*
X152969949Y-81765766D02*
X152985794Y-81749921D01*
X152985794Y-81749921D02*
X153017483Y-81734076D01*
X153017483Y-81734076D02*
X153080862Y-81734076D01*
X153080862Y-81734076D02*
X153112552Y-81749921D01*
X153112552Y-81749921D02*
X153128397Y-81765766D01*
X153128397Y-81765766D02*
X153144241Y-81797455D01*
X151731713Y-83665864D02*
X151747557Y-83681709D01*
X151747557Y-83681709D02*
X151795092Y-83697553D01*
X151795092Y-83697553D02*
X151826781Y-83697553D01*
X151826781Y-83697553D02*
X151874315Y-83681709D01*
X151874315Y-83681709D02*
X151906005Y-83650019D01*
X151906005Y-83650019D02*
X151921850Y-83618329D01*
X151921850Y-83618329D02*
X151937694Y-83554950D01*
X151937694Y-83554950D02*
X151937694Y-83507416D01*
X151937694Y-83507416D02*
X151921850Y-83444037D01*
X151921850Y-83444037D02*
X151906005Y-83412348D01*
X151906005Y-83412348D02*
X151874315Y-83380658D01*
X151874315Y-83380658D02*
X151826781Y-83364813D01*
X151826781Y-83364813D02*
X151795092Y-83364813D01*
X151795092Y-83364813D02*
X151747557Y-83380658D01*
X151747557Y-83380658D02*
X151731713Y-83396503D01*
X151414817Y-83697553D02*
X151604954Y-83697553D01*
X151509886Y-83697553D02*
X151509886Y-83364813D01*
X151509886Y-83364813D02*
X151541575Y-83412348D01*
X151541575Y-83412348D02*
X151573265Y-83444037D01*
X151573265Y-83444037D02*
X151604954Y-83459882D01*
X151129612Y-83364813D02*
X151192991Y-83364813D01*
X151192991Y-83364813D02*
X151224680Y-83380658D01*
X151224680Y-83380658D02*
X151240525Y-83396503D01*
X151240525Y-83396503D02*
X151272215Y-83444037D01*
X151272215Y-83444037D02*
X151288059Y-83507416D01*
X151288059Y-83507416D02*
X151288059Y-83634174D01*
X151288059Y-83634174D02*
X151272215Y-83665864D01*
X151272215Y-83665864D02*
X151256370Y-83681709D01*
X151256370Y-83681709D02*
X151224680Y-83697553D01*
X151224680Y-83697553D02*
X151161301Y-83697553D01*
X151161301Y-83697553D02*
X151129612Y-83681709D01*
X151129612Y-83681709D02*
X151113767Y-83665864D01*
X151113767Y-83665864D02*
X151097922Y-83634174D01*
X151097922Y-83634174D02*
X151097922Y-83554950D01*
X151097922Y-83554950D02*
X151113767Y-83523261D01*
X151113767Y-83523261D02*
X151129612Y-83507416D01*
X151129612Y-83507416D02*
X151161301Y-83491571D01*
X151161301Y-83491571D02*
X151224680Y-83491571D01*
X151224680Y-83491571D02*
X151256370Y-83507416D01*
X151256370Y-83507416D02*
X151272215Y-83523261D01*
X151272215Y-83523261D02*
X151288059Y-83554950D01*
X144081068Y-76839007D02*
X144096912Y-76854852D01*
X144096912Y-76854852D02*
X144144447Y-76870696D01*
X144144447Y-76870696D02*
X144176136Y-76870696D01*
X144176136Y-76870696D02*
X144223670Y-76854852D01*
X144223670Y-76854852D02*
X144255360Y-76823162D01*
X144255360Y-76823162D02*
X144271205Y-76791472D01*
X144271205Y-76791472D02*
X144287049Y-76728093D01*
X144287049Y-76728093D02*
X144287049Y-76680559D01*
X144287049Y-76680559D02*
X144271205Y-76617180D01*
X144271205Y-76617180D02*
X144255360Y-76585491D01*
X144255360Y-76585491D02*
X144223670Y-76553801D01*
X144223670Y-76553801D02*
X144176136Y-76537956D01*
X144176136Y-76537956D02*
X144144447Y-76537956D01*
X144144447Y-76537956D02*
X144096912Y-76553801D01*
X144096912Y-76553801D02*
X144081068Y-76569646D01*
X143780017Y-76537956D02*
X143938465Y-76537956D01*
X143938465Y-76537956D02*
X143954309Y-76696404D01*
X143954309Y-76696404D02*
X143938465Y-76680559D01*
X143938465Y-76680559D02*
X143906775Y-76664714D01*
X143906775Y-76664714D02*
X143827551Y-76664714D01*
X143827551Y-76664714D02*
X143795862Y-76680559D01*
X143795862Y-76680559D02*
X143780017Y-76696404D01*
X143780017Y-76696404D02*
X143764172Y-76728093D01*
X143764172Y-76728093D02*
X143764172Y-76807317D01*
X143764172Y-76807317D02*
X143780017Y-76839007D01*
X143780017Y-76839007D02*
X143795862Y-76854852D01*
X143795862Y-76854852D02*
X143827551Y-76870696D01*
X143827551Y-76870696D02*
X143906775Y-76870696D01*
X143906775Y-76870696D02*
X143938465Y-76854852D01*
X143938465Y-76854852D02*
X143954309Y-76839007D01*
M02*
