%TF.GenerationSoftware,KiCad,Pcbnew,9.0.2*%
%TF.CreationDate,2025-11-10T19:09:33+00:00*%
%TF.ProjectId,wmk,776d6b2e-6b69-4636-9164-5f7063625858,rev?*%
%TF.SameCoordinates,Original*%
%TF.FileFunction,Copper,L4,Bot*%
%TF.FilePolarity,Positive*%
%FSLAX46Y46*%
G04 Gerber Fmt 4.6, Leading zero omitted, Abs format (unit mm)*
G04 Created by KiCad (PCBNEW 9.0.2) date 2025-11-10 19:09:33*
%MOMM*%
%LPD*%
G01*
G04 APERTURE LIST*
%TA.AperFunction,ComponentPad*%
%ADD10R,1.700000X1.700000*%
%TD*%
%TA.AperFunction,ComponentPad*%
%ADD11C,1.700000*%
%TD*%
%TA.AperFunction,ComponentPad*%
%ADD12O,1.458000X2.916000*%
%TD*%
%TA.AperFunction,ComponentPad*%
%ADD13C,2.900000*%
%TD*%
%TA.AperFunction,ComponentPad*%
%ADD14C,2.100000*%
%TD*%
%TA.AperFunction,ComponentPad*%
%ADD15C,1.750000*%
%TD*%
%TA.AperFunction,SMDPad,CuDef*%
%ADD16R,1.000000X1.100000*%
%TD*%
%TA.AperFunction,SMDPad,CuDef*%
%ADD17R,1.100000X1.000000*%
%TD*%
%TA.AperFunction,ViaPad*%
%ADD18C,0.756400*%
%TD*%
%TA.AperFunction,ViaPad*%
%ADD19C,0.600000*%
%TD*%
%TA.AperFunction,ViaPad*%
%ADD20C,0.906400*%
%TD*%
%TA.AperFunction,Conductor*%
%ADD21C,0.254000*%
%TD*%
%TA.AperFunction,Conductor*%
%ADD22C,0.200000*%
%TD*%
%TA.AperFunction,Conductor*%
%ADD23C,0.400000*%
%TD*%
G04 APERTURE END LIST*
D10*
%TO.P,JP1,1,1*%
%TO.N,Net-(U2-PB15)*%
X136215000Y-88660000D03*
D11*
%TO.P,JP1,2,2*%
%TO.N,Net-(U2-PB9)*%
X133675000Y-88660000D03*
%TO.P,JP1,3,3*%
%TO.N,VCC*%
X136215000Y-86120000D03*
%TO.P,JP1,4,4*%
%TO.N,Net-(U2-PB8)*%
X133675000Y-86120000D03*
%TO.P,JP1,5,5*%
%TO.N,GND*%
X136215000Y-83580000D03*
%TO.P,JP1,6,6*%
%TO.N,Net-(U2-PB5)*%
X133675000Y-83580000D03*
%TO.P,JP1,7,7*%
%TO.N,Net-(U2-PB14)*%
X136215000Y-81040000D03*
%TO.P,JP1,8,8*%
%TO.N,Net-(U2-PB4)*%
X133675000Y-81040000D03*
%TO.P,JP1,9,9*%
%TO.N,Net-(U2-PB13)*%
X136215000Y-78500000D03*
%TO.P,JP1,10,10*%
%TO.N,Net-(U2-PB3)*%
X133675000Y-78500000D03*
%TD*%
D12*
%TO.P,X1,1,1*%
%TO.N,Net-(F1-Pad2)*%
X147000000Y-65300000D03*
%TO.P,X1,2,2*%
%TO.N,/USB_DM*%
X144500000Y-65300000D03*
%TO.P,X1,3,3*%
%TO.N,/USB_DP*%
X142500000Y-65300000D03*
%TO.P,X1,4,4*%
%TO.N,GND*%
X140000000Y-65300000D03*
D13*
%TO.P,X1,S1,S1*%
%TO.N,unconnected-(X1-PadS1)*%
X150070000Y-62590000D03*
%TO.P,X1,S2,S2*%
%TO.N,unconnected-(X1-PadS2)*%
X136930000Y-62590000D03*
%TD*%
D14*
%TO.P,SW1,*%
%TO.N,*%
X153000000Y-61052500D03*
X160010000Y-61052500D03*
D15*
%TO.P,SW1,1,1*%
%TO.N,GND*%
X154250000Y-58562500D03*
%TO.P,SW1,2,2*%
%TO.N,Net-(U2-PA3)*%
X158750000Y-58562500D03*
%TD*%
D10*
%TO.P,J1,1,Pin_1*%
%TO.N,/SWDIO*%
X158775000Y-95280000D03*
D11*
%TO.P,J1,2,Pin_2*%
%TO.N,/SWCLK*%
X158775000Y-97820000D03*
%TO.P,J1,3,Pin_3*%
%TO.N,GND*%
X158775000Y-100360000D03*
%TO.P,J1,4,Pin_4*%
%TO.N,VCC*%
X158775000Y-102900000D03*
%TD*%
D10*
%TO.P,JP4,1,1*%
%TO.N,/TX*%
X136240000Y-114535000D03*
D11*
%TO.P,JP4,2,2*%
%TO.N,/RX*%
X133700000Y-114535000D03*
%TO.P,JP4,3,3*%
%TO.N,unconnected-(JP4-Pad3)*%
X136240000Y-111995000D03*
%TO.P,JP4,4,4*%
%TO.N,/K1*%
X133700000Y-111995000D03*
%TO.P,JP4,5,5*%
%TO.N,GND*%
X136240000Y-109455000D03*
%TO.P,JP4,6,6*%
%TO.N,/K0*%
X133700000Y-109455000D03*
%TO.P,JP4,7,7*%
%TO.N,/RESET*%
X136240000Y-106915000D03*
%TO.P,JP4,8,8*%
%TO.N,/IRQ7*%
X133700000Y-106915000D03*
%TO.P,JP4,9,9*%
%TO.N,/CLOCK*%
X136240000Y-104375000D03*
%TO.P,JP4,10,10*%
%TO.N,/DATA*%
X133700000Y-104375000D03*
%TD*%
D16*
%TO.P,C12,1,1*%
%TO.N,VDD*%
X144787584Y-84136100D03*
%TO.P,C12,2,2*%
%TO.N,GND*%
X144787584Y-82436100D03*
%TD*%
D17*
%TO.P,R2,1,1*%
%TO.N,/NRST*%
X149900000Y-80050000D03*
%TO.P,R2,2,2*%
%TO.N,VDD*%
X149900000Y-78350000D03*
%TD*%
D16*
%TO.P,C7,1,1*%
%TO.N,/NRST*%
X149850000Y-81350000D03*
%TO.P,C7,2,2*%
%TO.N,GND*%
X149850000Y-83050000D03*
%TD*%
%TO.P,C6,1,1*%
%TO.N,VDD*%
X153245100Y-78937500D03*
%TO.P,C6,2,2*%
%TO.N,GND*%
X153245100Y-80637500D03*
%TD*%
D17*
%TO.P,C16,1,1*%
%TO.N,VDD*%
X152355000Y-85009800D03*
%TO.P,C16,2,2*%
%TO.N,GND*%
X150655000Y-85009800D03*
%TD*%
%TO.P,C5,1,1*%
%TO.N,VDD*%
X145579268Y-76780438D03*
%TO.P,C5,2,2*%
%TO.N,GND*%
X147279268Y-76780438D03*
%TD*%
D18*
%TO.N,GND*%
X151140550Y-83459450D03*
X151650000Y-79900000D03*
X146792000Y-78272700D03*
X143210600Y-82768500D03*
X149502000Y-94963600D03*
X132625000Y-56875000D03*
X148275000Y-92825000D03*
D19*
X149674500Y-86326084D03*
D20*
X153106800Y-102689400D03*
D18*
%TO.N,VDD*%
X154564200Y-94211600D03*
D19*
X154869200Y-78900000D03*
D18*
X154793000Y-83530500D03*
X139934000Y-75605700D03*
X146563400Y-83378100D03*
X159746000Y-71719500D03*
X155674200Y-96106600D03*
X152049800Y-86578500D03*
X146258600Y-75072300D03*
%TO.N,VCC*%
X156225000Y-69975000D03*
X150363600Y-102816400D03*
X151483200Y-100831000D03*
D19*
%TO.N,/NRST*%
X151100000Y-81300000D03*
D18*
%TO.N,Net-(U2-PA3)*%
X152278400Y-74767500D03*
D19*
X158500000Y-65975000D03*
D18*
%TO.N,Net-(U2-PB3)*%
X144887000Y-87873900D03*
%TO.N,Net-(U2-PB4)*%
X147325400Y-87340500D03*
%TO.N,Net-(U2-PB5)*%
X147325400Y-88559700D03*
D19*
%TO.N,Net-(U2-PB8)*%
X148031200Y-89204800D03*
%TO.N,Net-(U2-PB9)*%
X148627844Y-89741779D03*
%TO.N,/RESET*%
X141634001Y-106375000D03*
%TO.N,/DATA*%
X146650000Y-106329000D03*
%TO.N,/CLOCK*%
X146100000Y-105775000D03*
D18*
%TO.N,/SWCLK*%
X145150000Y-86500000D03*
D19*
%TO.N,/USB_DP*%
X147929600Y-82905600D03*
%TO.N,/USB_DM*%
X148539200Y-83667600D03*
D18*
%TO.N,/CONNECT*%
X134600000Y-56850000D03*
D19*
%TO.N,/K1*%
X140871738Y-112896738D03*
%TO.N,/IRQ7*%
X144325000Y-91000000D03*
X139700000Y-102375000D03*
%TD*%
D21*
%TO.N,GND*%
X152387500Y-80637500D02*
X153245100Y-80637500D01*
X147279268Y-76780438D02*
X147279268Y-77785432D01*
X144787584Y-82436100D02*
X144738984Y-82387500D01*
X144738984Y-82387500D02*
X143591600Y-82387500D01*
X147279268Y-77785432D02*
X146792000Y-78272700D01*
X150655000Y-83945000D02*
X150655000Y-85009800D01*
D22*
X149850000Y-83050000D02*
X150731100Y-83050000D01*
D21*
X151650000Y-79900000D02*
X152387500Y-80637500D01*
X151140550Y-83459450D02*
X150655000Y-83945000D01*
D22*
X150731100Y-83050000D02*
X151140550Y-83459450D01*
D21*
X143591600Y-82387500D02*
X143210600Y-82768500D01*
%TO.N,VDD*%
X152355000Y-85009800D02*
X152355000Y-86273300D01*
X145579268Y-75751632D02*
X146258600Y-75072300D01*
X154814000Y-78937500D02*
X153245100Y-78937500D01*
D22*
X149900000Y-78350000D02*
X151000000Y-78350000D01*
D21*
X145579268Y-76780438D02*
X145579268Y-75751632D01*
X144787584Y-84136100D02*
X145805400Y-84136100D01*
X152355000Y-86273300D02*
X152049800Y-86578500D01*
X154869200Y-78882300D02*
X154814000Y-78937500D01*
D22*
X151587500Y-78937500D02*
X153245100Y-78937500D01*
D21*
X145805400Y-84136100D02*
X146563400Y-83378100D01*
D22*
X151000000Y-78350000D02*
X151587500Y-78937500D01*
%TO.N,/NRST*%
X149850000Y-80100000D02*
X149900000Y-80050000D01*
X149850000Y-81350000D02*
X149850000Y-80100000D01*
X149900000Y-81300000D02*
X149850000Y-81350000D01*
X151100000Y-81300000D02*
X149900000Y-81300000D01*
D21*
%TO.N,Net-(U2-PA3)*%
X158475000Y-60075000D02*
X158750000Y-59800000D01*
X158750000Y-59800000D02*
X158750000Y-58562500D01*
X154500000Y-74767500D02*
X158500000Y-70767500D01*
X158500000Y-60100000D02*
X158475000Y-60075000D01*
X158500000Y-65975000D02*
X158500000Y-60100000D01*
X154640600Y-74767500D02*
X154500000Y-74767500D01*
X158500000Y-70767500D02*
X158500000Y-65975000D01*
X154500000Y-74767500D02*
X152278400Y-74767500D01*
%TO.N,Net-(U2-PB3)*%
X133731100Y-78423600D02*
X135028000Y-79720500D01*
X139324400Y-83530500D02*
X143667800Y-87873900D01*
X139324400Y-81092100D02*
X139324400Y-83530500D01*
X137952800Y-79720500D02*
X139324400Y-81092100D01*
X135028000Y-79720500D02*
X137952800Y-79720500D01*
X143667800Y-87873900D02*
X144887000Y-87873900D01*
%TO.N,Net-(U2-PB4)*%
X135002600Y-82235100D02*
X137724200Y-82235100D01*
X147325400Y-87340500D02*
X145801400Y-88864500D01*
X133731100Y-80963600D02*
X135002600Y-82235100D01*
X145801400Y-88864500D02*
X143515400Y-88864500D01*
X138486200Y-82997100D02*
X138486200Y-83835300D01*
X137724200Y-82235100D02*
X138486200Y-82997100D01*
X143515400Y-88864500D02*
X138486200Y-83835300D01*
%TO.N,Net-(U2-PB5)*%
X146258600Y-89626500D02*
X147325400Y-88559700D01*
X133731100Y-83503600D02*
X134977200Y-84749700D01*
X142905800Y-89626500D02*
X146258600Y-89626500D01*
X134977200Y-84749700D02*
X138029000Y-84749700D01*
X138029000Y-84749700D02*
X142905800Y-89626500D01*
D22*
%TO.N,Net-(U2-PB8)*%
X147179300Y-90056700D02*
X148031200Y-89204800D01*
X135062500Y-87375000D02*
X140045906Y-87375000D01*
X142727606Y-90056700D02*
X147179300Y-90056700D01*
X133731100Y-86043600D02*
X135062500Y-87375000D01*
X140045906Y-87375000D02*
X142727606Y-90056700D01*
%TO.N,Net-(U2-PB9)*%
X147909723Y-90459900D02*
X148627844Y-89741779D01*
X133731100Y-88583600D02*
X135607400Y-90459900D01*
X135607400Y-90459900D02*
X147909723Y-90459900D01*
D21*
%TO.N,/RESET*%
X141634001Y-106375000D02*
X141094001Y-106915000D01*
X141094001Y-106915000D02*
X136240000Y-106915000D01*
%TO.N,/DATA*%
X146329889Y-106330000D02*
X145870111Y-106330000D01*
X134805000Y-105480000D02*
X133700000Y-104375000D01*
X146490444Y-106169444D02*
X146329889Y-106330000D01*
X145870111Y-106330000D02*
X145697111Y-106157000D01*
X145697111Y-106157000D02*
X145249270Y-106157000D01*
X144572270Y-105480000D02*
X134805000Y-105480000D01*
X145249270Y-106157000D02*
X144572270Y-105480000D01*
X146650000Y-106329000D02*
X146490444Y-106169444D01*
%TO.N,/CLOCK*%
X136915000Y-105050000D02*
X136240000Y-104375000D01*
X144682500Y-105050000D02*
X136915000Y-105050000D01*
X145407500Y-105775000D02*
X144682500Y-105050000D01*
X146100000Y-105775000D02*
X145407500Y-105775000D01*
%TO.N,/SWCLK*%
X157325000Y-96325000D02*
X158775000Y-97775000D01*
X148732100Y-86632100D02*
X157325000Y-95225000D01*
X145150000Y-86500000D02*
X145282100Y-86632100D01*
X145282100Y-86632100D02*
X148732100Y-86632100D01*
X157325000Y-95225000D02*
X157325000Y-96325000D01*
D22*
%TO.N,/USB_DP*%
X147947000Y-75903403D02*
X145518597Y-73475000D01*
X147947000Y-75942170D02*
X147947000Y-75903403D01*
X142900000Y-73100000D02*
X142900000Y-65325000D01*
X147947000Y-77618706D02*
X148057268Y-77508438D01*
X147947000Y-77799078D02*
X147947000Y-77618706D01*
X145518597Y-73475000D02*
X143275000Y-73475000D01*
X143275000Y-73475000D02*
X142900000Y-73100000D01*
X148057268Y-77508438D02*
X148057268Y-76052438D01*
X147929600Y-77781678D02*
X147947000Y-77799078D01*
X147929600Y-82905600D02*
X147929600Y-77781678D01*
X148057268Y-76052438D02*
X147947000Y-75942170D01*
%TO.N,/USB_DM*%
X148385268Y-75916576D02*
X148275000Y-75806308D01*
X148350000Y-77679568D02*
X148385268Y-77644300D01*
X148539200Y-82662146D02*
X148359800Y-82482746D01*
X148350000Y-78375000D02*
X148350000Y-77679568D01*
X148359800Y-78384800D02*
X148350000Y-78375000D01*
X148539200Y-83667600D02*
X148539200Y-82662146D01*
X148275000Y-75806308D02*
X148275000Y-75767541D01*
X148359800Y-82482746D02*
X148359800Y-78384800D01*
X148385268Y-77644300D02*
X148385268Y-75916576D01*
X148275000Y-75767541D02*
X144900000Y-72392541D01*
X144900000Y-72392541D02*
X144900000Y-65325000D01*
D21*
%TO.N,/CONNECT*%
X134600000Y-56850000D02*
X134332800Y-56850000D01*
%TO.N,/K1*%
X134805000Y-113100000D02*
X133700000Y-111995000D01*
X140871738Y-112896738D02*
X140668476Y-113100000D01*
X140668476Y-113100000D02*
X134805000Y-113100000D01*
D23*
%TO.N,/IRQ7*%
X144225000Y-94550000D02*
X144225000Y-97850000D01*
X144325000Y-94450000D02*
X144225000Y-94550000D01*
X144225000Y-97850000D02*
X139700000Y-102375000D01*
X144325000Y-91000000D02*
X144325000Y-94450000D01*
%TD*%
M02*
