M48
; DRILL file {KiCad 9.0.2} date 2025-11-10T19:09:37+0000
; FORMAT={-:-/ absolute / inch / decimal}
; #@! TF.CreationDate,2025-11-10T19:09:37+00:00
; #@! TF.GenerationSoftware,Kicad,Pcbnew,9.0.2
; #@! TF.FileFunction,Plated,1,4,PTH
FMAT,2
INCH
; #@! TA.AperFunction,Plated,PTH,ViaDrill
T1C0.0118
; #@! TA.AperFunction,Plated,PTH,ViaDrill
T2C0.0138
; #@! TA.AperFunction,Plated,PTH,ViaDrill
T3C0.0197
; #@! TA.AperFunction,Plated,PTH,ComponentDrill
T4C0.0374
; #@! TA.AperFunction,Plated,PTH,ComponentDrill
T5C0.0390
; #@! TA.AperFunction,Plated,PTH,ComponentDrill
T6C0.0394
; #@! TA.AperFunction,Plated,PTH,ComponentDrill
T7C0.0512
; #@! TA.AperFunction,Plated,PTH,ComponentDrill
T8C0.0906
%
G90
G05
T1
X5.5Y-4.0305
X5.5461Y-4.4448
X5.5761Y-4.188
X5.6821Y-3.5827
X5.752Y-4.1644
X5.7736Y-4.1862
X5.824Y-3.264
X5.828Y-3.512
X5.848Y-3.294
X5.8515Y-3.5331
X5.8927Y-3.3987
X5.9488Y-3.2008
X6.0972Y-3.1063
X6.2402Y-2.5974
T2
X5.2215Y-2.2392
X5.2992Y-2.2382
X5.5092Y-2.9766
X5.6382Y-3.2586
X5.7042Y-3.4596
X5.7146Y-3.4055
X5.7582Y-2.9556
X5.7702Y-3.2826
X5.7792Y-3.0816
X5.8002Y-3.4386
X5.8002Y-3.4866
X5.8376Y-3.6545
X5.8859Y-3.7387
X5.9198Y-4.0479
X5.9504Y-3.2858
X5.9639Y-3.9697
X5.9705Y-3.1457
X5.9862Y-3.4086
X5.9952Y-2.9436
X6.0852Y-3.7091
X6.0942Y-3.2886
X6.1289Y-3.7837
X6.1506Y-2.7549
X6.2892Y-2.8236
T3
X6.0278Y-4.0429
T4
X5.5118Y-2.5709
X5.6102Y-2.5709
X5.689Y-2.5709
X5.7874Y-2.5709
T5
X6.0728Y-2.3056
X6.25Y-2.3056
T6
X5.2628Y-3.0906
X5.2628Y-3.1906
X5.2628Y-3.2906
X5.2628Y-3.3906
X5.2628Y-3.4906
X5.2638Y-4.1093
X5.2638Y-4.2093
X5.2638Y-4.3093
X5.2638Y-4.4093
X5.2638Y-4.5093
X5.3628Y-3.0906
X5.3628Y-3.1906
X5.3628Y-3.2906
X5.3628Y-3.3906
X5.3628Y-3.4906
X5.3638Y-4.1093
X5.3638Y-4.2093
X5.3638Y-4.3093
X5.3638Y-4.4093
X5.3638Y-4.5093
X6.251Y-3.7512
X6.251Y-3.8512
X6.251Y-3.9512
X6.251Y-4.0512
T7
X6.0236Y-2.4036
X6.2996Y-2.4036
T8
X5.3909Y-2.4642
X5.9083Y-2.4642
M30
