%TF.GenerationSoftware,KiCad,Pcbnew,9.0.7*%
%TF.CreationDate,2026-03-24T21:51:22+00:00*%
%TF.ProjectId,wmk,776d6b2e-6b69-4636-9164-5f7063625858,rev?*%
%TF.SameCoordinates,Original*%
%TF.FileFunction,Copper,L3,Inr*%
%TF.FilePolarity,Positive*%
%FSLAX46Y46*%
G04 Gerber Fmt 4.6, Leading zero omitted, Abs format (unit mm)*
G04 Created by KiCad (PCBNEW 9.0.7) date 2026-03-24 21:51:22*
%MOMM*%
%LPD*%
G01*
G04 APERTURE LIST*
%TA.AperFunction,ComponentPad*%
%ADD10C,2.000000*%
%TD*%
%TA.AperFunction,ComponentPad*%
%ADD11R,1.700000X1.700000*%
%TD*%
%TA.AperFunction,ComponentPad*%
%ADD12C,1.700000*%
%TD*%
%TA.AperFunction,ComponentPad*%
%ADD13O,1.458000X2.916000*%
%TD*%
%TA.AperFunction,ComponentPad*%
%ADD14C,2.900000*%
%TD*%
%TA.AperFunction,ViaPad*%
%ADD15C,0.756400*%
%TD*%
%TA.AperFunction,ViaPad*%
%ADD16C,0.600000*%
%TD*%
%TA.AperFunction,ViaPad*%
%ADD17C,0.906400*%
%TD*%
G04 APERTURE END LIST*
D10*
%TO.N,GND*%
%TO.C,PROG*%
X154150000Y-60600000D03*
X160650000Y-60600000D03*
%TO.N,Net-(U2-PA3)*%
X154150000Y-65100000D03*
X160650000Y-65100000D03*
%TD*%
D11*
%TO.N,Net-(U2-PB15)*%
%TO.C,JP1*%
X136215000Y-88660000D03*
D12*
%TO.N,Net-(U2-PB9)*%
X133675000Y-88660000D03*
%TO.N,VCC*%
X136215000Y-86120000D03*
%TO.N,Net-(U2-PB8)*%
X133675000Y-86120000D03*
%TO.N,GND*%
X136215000Y-83580000D03*
%TO.N,Net-(U2-PB5)*%
X133675000Y-83580000D03*
%TO.N,Net-(U2-PB14)*%
X136215000Y-81040000D03*
%TO.N,Net-(U2-PB4)*%
X133675000Y-81040000D03*
%TO.N,Net-(U2-PB13)*%
X136215000Y-78500000D03*
%TO.N,Net-(U2-PB3)*%
X133675000Y-78500000D03*
%TD*%
D13*
%TO.N,Net-(F1-Pad2)*%
%TO.C,X1*%
X147000000Y-65300000D03*
%TO.N,/USB_DM*%
X144500000Y-65300000D03*
%TO.N,/USB_DP*%
X142500000Y-65300000D03*
%TO.N,GND*%
X140000000Y-65300000D03*
D14*
%TO.N,unconnected-(X1-PadS1)*%
X150070000Y-62590000D03*
%TO.N,unconnected-(X1-PadS2)*%
X136930000Y-62590000D03*
%TD*%
D11*
%TO.N,/SWDIO*%
%TO.C,J1*%
X158775000Y-95280000D03*
D12*
%TO.N,/SWCLK*%
X158775000Y-97820000D03*
%TO.N,GND*%
X158775000Y-100360000D03*
%TO.N,VCC*%
X158775000Y-102900000D03*
%TD*%
D11*
%TO.N,Net-(JP3-B)*%
%TO.C,JP4*%
X136240000Y-114535000D03*
D12*
%TO.N,Net-(JP2-B)*%
X133700000Y-114535000D03*
%TO.N,unconnected-(JP4-Pad3)*%
X136240000Y-111995000D03*
%TO.N,/K1*%
X133700000Y-111995000D03*
%TO.N,GND*%
X136240000Y-109455000D03*
%TO.N,/K0*%
X133700000Y-109455000D03*
%TO.N,/RESET*%
X136240000Y-106915000D03*
%TO.N,/IRQ7*%
X133700000Y-106915000D03*
%TO.N,/CLOCK*%
X136240000Y-104375000D03*
%TO.N,/DATA*%
X133700000Y-104375000D03*
%TD*%
D15*
%TO.N,GND*%
X151140550Y-83459450D03*
X151650000Y-79900000D03*
X146792000Y-78272700D03*
X143210600Y-82768500D03*
X149502000Y-94963600D03*
X132625000Y-56875000D03*
X148275000Y-92825000D03*
D16*
X149674500Y-86326084D03*
D17*
X153106800Y-102689400D03*
D15*
%TO.N,VDD*%
X154564200Y-94211600D03*
D16*
X154869200Y-78900000D03*
D15*
X154793000Y-83530500D03*
X139934000Y-75605700D03*
X146563400Y-83378100D03*
X159746000Y-71719500D03*
X155674200Y-96106600D03*
X152049800Y-86578500D03*
X146258600Y-75072300D03*
%TO.N,VCC*%
X156225000Y-69975000D03*
X150363600Y-102816400D03*
X151483200Y-100831000D03*
D16*
%TO.N,/NRST*%
X151100000Y-81300000D03*
D15*
%TO.N,Net-(U2-PA3)*%
X152278400Y-74767500D03*
D16*
X158500000Y-68750000D03*
D15*
%TO.N,Net-(U2-PB3)*%
X144887000Y-87873900D03*
%TO.N,Net-(U2-PB4)*%
X147325400Y-87340500D03*
%TO.N,Net-(U2-PB5)*%
X147325400Y-88559700D03*
D16*
%TO.N,Net-(U2-PB8)*%
X148031200Y-89204800D03*
%TO.N,Net-(U2-PB9)*%
X148627844Y-89741779D03*
%TO.N,/RESET*%
X141634001Y-106375000D03*
%TO.N,/DATA*%
X146650000Y-106329000D03*
%TO.N,/CLOCK*%
X146100000Y-105775000D03*
D15*
%TO.N,/SWCLK*%
X145150000Y-86500000D03*
D16*
%TO.N,/USB_DP*%
X147929600Y-82905600D03*
%TO.N,/USB_DM*%
X148539200Y-83667600D03*
D15*
%TO.N,/CONNECT*%
X134600000Y-56850000D03*
D16*
%TO.N,/K1*%
X140871738Y-112896738D03*
%TO.N,/IRQ7*%
X144325000Y-91000000D03*
X139700000Y-102375000D03*
%TD*%
%TA.AperFunction,Conductor*%
%TO.N,GND*%
G36*
X163530348Y-55522406D02*
G01*
X163548654Y-55566600D01*
X163548654Y-55566694D01*
X163400343Y-154437155D01*
X163381971Y-154481321D01*
X163337850Y-154499561D01*
X131794107Y-154503037D01*
X131749911Y-154484736D01*
X131731600Y-154440544D01*
X131731600Y-150535667D01*
X156043894Y-150535667D01*
X156043894Y-150814332D01*
X156075094Y-151091243D01*
X156075097Y-151091260D01*
X156137104Y-151362933D01*
X156137105Y-151362939D01*
X156229141Y-151625963D01*
X156350057Y-151877049D01*
X156498315Y-152113001D01*
X156498327Y-152113018D01*
X156672057Y-152330868D01*
X156672062Y-152330874D01*
X156672068Y-152330881D01*
X156869119Y-152527932D01*
X156869126Y-152527938D01*
X156869131Y-152527942D01*
X157086981Y-152701672D01*
X157086987Y-152701676D01*
X157086993Y-152701681D01*
X157322951Y-152849943D01*
X157574026Y-152970854D01*
X157574032Y-152970856D01*
X157574036Y-152970858D01*
X157837060Y-153062894D01*
X158108745Y-153124904D01*
X158385664Y-153156106D01*
X158385667Y-153156106D01*
X158664333Y-153156106D01*
X158664336Y-153156106D01*
X158941255Y-153124904D01*
X159212940Y-153062894D01*
X159475974Y-152970854D01*
X159727049Y-152849943D01*
X159963007Y-152701681D01*
X160180881Y-152527932D01*
X160377932Y-152330881D01*
X160551681Y-152113007D01*
X160699943Y-151877049D01*
X160820854Y-151625974D01*
X160912894Y-151362940D01*
X160974904Y-151091255D01*
X161006106Y-150814336D01*
X161006106Y-150535664D01*
X160974904Y-150258745D01*
X160912894Y-149987060D01*
X160883007Y-149901647D01*
X160820858Y-149724036D01*
X160820856Y-149724032D01*
X160820854Y-149724026D01*
X160699943Y-149472951D01*
X160551681Y-149236993D01*
X160551676Y-149236987D01*
X160551672Y-149236981D01*
X160377942Y-149019131D01*
X160377938Y-149019126D01*
X160377932Y-149019119D01*
X160180881Y-148822068D01*
X160180874Y-148822062D01*
X160180868Y-148822057D01*
X159963018Y-148648327D01*
X159963001Y-148648315D01*
X159727049Y-148500057D01*
X159475974Y-148379146D01*
X159475971Y-148379145D01*
X159475963Y-148379141D01*
X159212939Y-148287105D01*
X159212933Y-148287104D01*
X158941260Y-148225097D01*
X158941257Y-148225096D01*
X158941255Y-148225096D01*
X158941253Y-148225095D01*
X158941243Y-148225094D01*
X158759272Y-148204591D01*
X158664336Y-148193894D01*
X158385664Y-148193894D01*
X158300464Y-148203493D01*
X158108756Y-148225094D01*
X158108739Y-148225097D01*
X157837066Y-148287104D01*
X157837060Y-148287105D01*
X157574036Y-148379141D01*
X157322950Y-148500057D01*
X157086998Y-148648315D01*
X157086981Y-148648327D01*
X156869131Y-148822057D01*
X156869111Y-148822075D01*
X156672075Y-149019111D01*
X156672057Y-149019131D01*
X156498327Y-149236981D01*
X156498315Y-149236998D01*
X156350057Y-149472950D01*
X156229141Y-149724036D01*
X156137105Y-149987060D01*
X156137104Y-149987066D01*
X156075097Y-150258739D01*
X156075094Y-150258756D01*
X156043894Y-150535667D01*
X131731600Y-150535667D01*
X131731600Y-114444078D01*
X132544700Y-114444078D01*
X132544700Y-114625921D01*
X132544701Y-114625935D01*
X132573147Y-114805532D01*
X132629341Y-114978479D01*
X132629345Y-114978487D01*
X132711900Y-115140511D01*
X132818786Y-115287626D01*
X132818793Y-115287634D01*
X132947365Y-115416206D01*
X132947373Y-115416213D01*
X133094491Y-115523101D01*
X133256519Y-115605658D01*
X133429467Y-115661852D01*
X133609076Y-115690300D01*
X133609078Y-115690300D01*
X133790922Y-115690300D01*
X133790924Y-115690300D01*
X133970533Y-115661852D01*
X134143481Y-115605658D01*
X134305509Y-115523101D01*
X134452627Y-115416213D01*
X134581213Y-115287627D01*
X134688101Y-115140509D01*
X134770658Y-114978481D01*
X134826852Y-114805533D01*
X134855300Y-114625924D01*
X134855300Y-114444076D01*
X134826852Y-114264467D01*
X134770658Y-114091519D01*
X134688101Y-113929491D01*
X134581213Y-113782373D01*
X134581206Y-113782365D01*
X134452634Y-113653793D01*
X134452626Y-113653786D01*
X134432854Y-113639421D01*
X135084700Y-113639421D01*
X135084700Y-115430578D01*
X135087662Y-115456107D01*
X135087662Y-115456109D01*
X135133766Y-115560525D01*
X135214475Y-115641234D01*
X135318891Y-115687338D01*
X135344421Y-115690300D01*
X137135578Y-115690299D01*
X137161109Y-115687338D01*
X137265525Y-115641234D01*
X137346234Y-115560525D01*
X137392338Y-115456109D01*
X137395300Y-115430579D01*
X137395299Y-113639422D01*
X137392338Y-113613891D01*
X137346234Y-113509475D01*
X137265525Y-113428766D01*
X137161109Y-113382662D01*
X137161107Y-113382661D01*
X137138928Y-113380088D01*
X137135579Y-113379700D01*
X137135578Y-113379700D01*
X135344421Y-113379700D01*
X135318890Y-113382662D01*
X135318889Y-113382662D01*
X135214473Y-113428767D01*
X135133767Y-113509473D01*
X135087661Y-113613892D01*
X135084700Y-113639421D01*
X134432854Y-113639421D01*
X134305511Y-113546900D01*
X134143487Y-113464345D01*
X134143479Y-113464341D01*
X133970531Y-113408147D01*
X133970532Y-113408147D01*
X133790935Y-113379701D01*
X133790925Y-113379700D01*
X133790924Y-113379700D01*
X133609076Y-113379700D01*
X133609074Y-113379700D01*
X133609064Y-113379701D01*
X133429467Y-113408147D01*
X133256520Y-113464341D01*
X133256512Y-113464345D01*
X133094488Y-113546900D01*
X132947373Y-113653786D01*
X132947365Y-113653793D01*
X132818793Y-113782365D01*
X132818786Y-113782373D01*
X132711900Y-113929488D01*
X132629345Y-114091512D01*
X132629341Y-114091520D01*
X132573147Y-114264467D01*
X132544701Y-114444064D01*
X132544700Y-114444078D01*
X131731600Y-114444078D01*
X131731600Y-111904078D01*
X132544700Y-111904078D01*
X132544700Y-112085921D01*
X132544701Y-112085935D01*
X132573147Y-112265532D01*
X132629341Y-112438479D01*
X132629345Y-112438487D01*
X132711900Y-112600511D01*
X132818786Y-112747626D01*
X132818793Y-112747634D01*
X132947365Y-112876206D01*
X132947373Y-112876213D01*
X133094491Y-112983101D01*
X133256519Y-113065658D01*
X133429467Y-113121852D01*
X133609076Y-113150300D01*
X133609078Y-113150300D01*
X133790922Y-113150300D01*
X133790924Y-113150300D01*
X133970533Y-113121852D01*
X134143481Y-113065658D01*
X134305509Y-112983101D01*
X134452627Y-112876213D01*
X134581213Y-112747627D01*
X134688101Y-112600509D01*
X134770658Y-112438481D01*
X134826852Y-112265533D01*
X134855300Y-112085924D01*
X134855300Y-111904078D01*
X135084700Y-111904078D01*
X135084700Y-112085921D01*
X135084701Y-112085935D01*
X135113147Y-112265532D01*
X135169341Y-112438479D01*
X135169345Y-112438487D01*
X135251900Y-112600511D01*
X135358786Y-112747626D01*
X135358793Y-112747634D01*
X135487365Y-112876206D01*
X135487373Y-112876213D01*
X135634491Y-112983101D01*
X135796519Y-113065658D01*
X135969467Y-113121852D01*
X136149076Y-113150300D01*
X136149078Y-113150300D01*
X136330922Y-113150300D01*
X136330924Y-113150300D01*
X136510533Y-113121852D01*
X136683481Y-113065658D01*
X136845509Y-112983101D01*
X136992627Y-112876213D01*
X136992634Y-112876206D01*
X137051791Y-112817050D01*
X140266438Y-112817050D01*
X140266438Y-112976425D01*
X140266439Y-112976433D01*
X140307686Y-113130371D01*
X140307690Y-113130380D01*
X140387375Y-113268397D01*
X140387382Y-113268406D01*
X140500069Y-113381093D01*
X140500078Y-113381100D01*
X140638095Y-113460785D01*
X140638098Y-113460786D01*
X140638101Y-113460788D01*
X140638102Y-113460788D01*
X140638104Y-113460789D01*
X140732312Y-113486031D01*
X140792049Y-113502038D01*
X140792050Y-113502038D01*
X140951426Y-113502038D01*
X140951427Y-113502038D01*
X141105375Y-113460788D01*
X141243401Y-113381098D01*
X141356098Y-113268401D01*
X141435788Y-113130375D01*
X141477038Y-112976427D01*
X141477038Y-112817049D01*
X141435788Y-112663101D01*
X141399651Y-112600511D01*
X141356100Y-112525078D01*
X141356093Y-112525069D01*
X141243406Y-112412382D01*
X141243397Y-112412375D01*
X141105380Y-112332690D01*
X141105371Y-112332686D01*
X140951433Y-112291439D01*
X140951428Y-112291438D01*
X140951427Y-112291438D01*
X140792049Y-112291438D01*
X140792048Y-112291438D01*
X140792042Y-112291439D01*
X140638104Y-112332686D01*
X140638095Y-112332690D01*
X140500078Y-112412375D01*
X140500069Y-112412382D01*
X140387382Y-112525069D01*
X140387375Y-112525078D01*
X140307690Y-112663095D01*
X140307686Y-112663104D01*
X140266439Y-112817042D01*
X140266438Y-112817050D01*
X137051791Y-112817050D01*
X137100082Y-112768759D01*
X137121206Y-112747634D01*
X137121213Y-112747627D01*
X137228101Y-112600509D01*
X137310658Y-112438481D01*
X137366852Y-112265533D01*
X137395300Y-112085924D01*
X137395300Y-111904076D01*
X137366852Y-111724467D01*
X137310658Y-111551519D01*
X137228101Y-111389491D01*
X137121213Y-111242373D01*
X137121206Y-111242365D01*
X136992634Y-111113793D01*
X136992626Y-111113786D01*
X136845511Y-111006900D01*
X136683487Y-110924345D01*
X136683479Y-110924341D01*
X136510531Y-110868147D01*
X136510532Y-110868147D01*
X136330935Y-110839701D01*
X136330925Y-110839700D01*
X136330924Y-110839700D01*
X136149076Y-110839700D01*
X136149074Y-110839700D01*
X136149064Y-110839701D01*
X135969467Y-110868147D01*
X135796520Y-110924341D01*
X135796512Y-110924345D01*
X135634488Y-111006900D01*
X135487373Y-111113786D01*
X135487365Y-111113793D01*
X135358793Y-111242365D01*
X135358786Y-111242373D01*
X135251900Y-111389488D01*
X135169345Y-111551512D01*
X135169341Y-111551520D01*
X135113147Y-111724467D01*
X135084701Y-111904064D01*
X135084700Y-111904078D01*
X134855300Y-111904078D01*
X134855300Y-111904076D01*
X134826852Y-111724467D01*
X134770658Y-111551519D01*
X134688101Y-111389491D01*
X134581213Y-111242373D01*
X134581206Y-111242365D01*
X134452634Y-111113793D01*
X134452626Y-111113786D01*
X134305511Y-111006900D01*
X134143487Y-110924345D01*
X134143479Y-110924341D01*
X133970531Y-110868147D01*
X133970532Y-110868147D01*
X133790935Y-110839701D01*
X133790925Y-110839700D01*
X133790924Y-110839700D01*
X133609076Y-110839700D01*
X133609074Y-110839700D01*
X133609064Y-110839701D01*
X133429467Y-110868147D01*
X133256520Y-110924341D01*
X133256512Y-110924345D01*
X133094488Y-111006900D01*
X132947373Y-111113786D01*
X132947365Y-111113793D01*
X132818793Y-111242365D01*
X132818786Y-111242373D01*
X132711900Y-111389488D01*
X132629345Y-111551512D01*
X132629341Y-111551520D01*
X132573147Y-111724467D01*
X132544701Y-111904064D01*
X132544700Y-111904078D01*
X131731600Y-111904078D01*
X131731600Y-109364078D01*
X132544700Y-109364078D01*
X132544700Y-109545921D01*
X132544701Y-109545935D01*
X132573147Y-109725532D01*
X132629341Y-109898479D01*
X132629345Y-109898487D01*
X132711900Y-110060511D01*
X132818786Y-110207626D01*
X132818793Y-110207634D01*
X132947365Y-110336206D01*
X132947373Y-110336213D01*
X133092957Y-110441987D01*
X133094491Y-110443101D01*
X133256519Y-110525658D01*
X133429467Y-110581852D01*
X133609076Y-110610300D01*
X133609078Y-110610300D01*
X133790922Y-110610300D01*
X133790924Y-110610300D01*
X133970533Y-110581852D01*
X134143481Y-110525658D01*
X134305509Y-110443101D01*
X134452627Y-110336213D01*
X134452634Y-110336206D01*
X134485226Y-110303615D01*
X134581206Y-110207634D01*
X134581213Y-110207627D01*
X134688101Y-110060509D01*
X134770658Y-109898481D01*
X134826852Y-109725533D01*
X134855300Y-109545924D01*
X134855300Y-109364180D01*
X135086000Y-109364180D01*
X135086000Y-109545819D01*
X135086001Y-109545833D01*
X135114415Y-109725228D01*
X135170546Y-109897980D01*
X135170550Y-109897988D01*
X135253011Y-110059829D01*
X135323369Y-110156668D01*
X135795293Y-109684744D01*
X135839901Y-109762007D01*
X135932993Y-109855099D01*
X136010253Y-109899705D01*
X135538330Y-110371628D01*
X135635174Y-110441989D01*
X135797011Y-110524449D01*
X135797019Y-110524453D01*
X135969772Y-110580584D01*
X135969771Y-110580584D01*
X136149166Y-110608998D01*
X136149180Y-110609000D01*
X136330820Y-110609000D01*
X136330833Y-110608998D01*
X136510228Y-110580584D01*
X136682980Y-110524453D01*
X136682988Y-110524449D01*
X136844830Y-110441987D01*
X136941669Y-110371629D01*
X136469745Y-109899705D01*
X136547007Y-109855099D01*
X136640099Y-109762007D01*
X136684705Y-109684745D01*
X137156629Y-110156669D01*
X137226987Y-110059830D01*
X137309449Y-109897988D01*
X137309453Y-109897980D01*
X137365584Y-109725228D01*
X137393998Y-109545833D01*
X137394000Y-109545819D01*
X137394000Y-109364180D01*
X137393998Y-109364166D01*
X137365584Y-109184771D01*
X137309453Y-109012019D01*
X137309449Y-109012011D01*
X137226989Y-108850174D01*
X137156628Y-108753330D01*
X136684705Y-109225253D01*
X136640099Y-109147993D01*
X136547007Y-109054901D01*
X136469744Y-109010293D01*
X136941669Y-108538369D01*
X136844829Y-108468011D01*
X136682988Y-108385550D01*
X136682980Y-108385546D01*
X136510227Y-108329415D01*
X136510228Y-108329415D01*
X136330833Y-108301001D01*
X136330820Y-108301000D01*
X136149180Y-108301000D01*
X136149166Y-108301001D01*
X135969771Y-108329415D01*
X135797019Y-108385546D01*
X135797011Y-108385550D01*
X135635170Y-108468011D01*
X135538329Y-108538369D01*
X136010254Y-109010294D01*
X135932993Y-109054901D01*
X135839901Y-109147993D01*
X135795294Y-109225254D01*
X135323369Y-108753329D01*
X135253011Y-108850170D01*
X135170550Y-109012011D01*
X135170546Y-109012019D01*
X135114415Y-109184771D01*
X135086001Y-109364166D01*
X135086000Y-109364180D01*
X134855300Y-109364180D01*
X134855300Y-109364076D01*
X134826852Y-109184467D01*
X134770658Y-109011519D01*
X134688101Y-108849491D01*
X134581213Y-108702373D01*
X134581206Y-108702365D01*
X134452634Y-108573793D01*
X134452626Y-108573786D01*
X134305511Y-108466900D01*
X134143487Y-108384345D01*
X134143479Y-108384341D01*
X133970531Y-108328147D01*
X133970532Y-108328147D01*
X133790935Y-108299701D01*
X133790925Y-108299700D01*
X133790924Y-108299700D01*
X133609076Y-108299700D01*
X133609074Y-108299700D01*
X133609064Y-108299701D01*
X133429467Y-108328147D01*
X133256520Y-108384341D01*
X133256512Y-108384345D01*
X133094488Y-108466900D01*
X132947373Y-108573786D01*
X132947365Y-108573793D01*
X132818793Y-108702365D01*
X132818786Y-108702373D01*
X132711900Y-108849488D01*
X132629345Y-109011512D01*
X132629341Y-109011520D01*
X132573147Y-109184467D01*
X132544701Y-109364064D01*
X132544700Y-109364078D01*
X131731600Y-109364078D01*
X131731600Y-106824078D01*
X132544700Y-106824078D01*
X132544700Y-107005921D01*
X132544701Y-107005935D01*
X132573147Y-107185532D01*
X132629341Y-107358479D01*
X132629345Y-107358487D01*
X132711900Y-107520511D01*
X132818786Y-107667626D01*
X132818793Y-107667634D01*
X132947365Y-107796206D01*
X132947373Y-107796213D01*
X133094491Y-107903101D01*
X133256519Y-107985658D01*
X133429467Y-108041852D01*
X133609076Y-108070300D01*
X133609078Y-108070300D01*
X133790922Y-108070300D01*
X133790924Y-108070300D01*
X133970533Y-108041852D01*
X134143481Y-107985658D01*
X134305509Y-107903101D01*
X134452627Y-107796213D01*
X134581213Y-107667627D01*
X134688101Y-107520509D01*
X134770658Y-107358481D01*
X134826852Y-107185533D01*
X134855300Y-107005924D01*
X134855300Y-106824078D01*
X135084700Y-106824078D01*
X135084700Y-107005921D01*
X135084701Y-107005935D01*
X135113147Y-107185532D01*
X135169341Y-107358479D01*
X135169345Y-107358487D01*
X135251900Y-107520511D01*
X135358786Y-107667626D01*
X135358793Y-107667634D01*
X135487365Y-107796206D01*
X135487373Y-107796213D01*
X135634491Y-107903101D01*
X135796519Y-107985658D01*
X135969467Y-108041852D01*
X136149076Y-108070300D01*
X136149078Y-108070300D01*
X136330922Y-108070300D01*
X136330924Y-108070300D01*
X136510533Y-108041852D01*
X136683481Y-107985658D01*
X136845509Y-107903101D01*
X136992627Y-107796213D01*
X137121213Y-107667627D01*
X137228101Y-107520509D01*
X137310658Y-107358481D01*
X137366852Y-107185533D01*
X137395300Y-107005924D01*
X137395300Y-106824076D01*
X137366852Y-106644467D01*
X137310658Y-106471519D01*
X137228101Y-106309491D01*
X137217799Y-106295312D01*
X141028701Y-106295312D01*
X141028701Y-106454687D01*
X141028702Y-106454695D01*
X141069949Y-106608633D01*
X141069953Y-106608642D01*
X141149638Y-106746659D01*
X141149645Y-106746668D01*
X141262332Y-106859355D01*
X141262341Y-106859362D01*
X141400358Y-106939047D01*
X141400361Y-106939048D01*
X141400364Y-106939050D01*
X141400365Y-106939050D01*
X141400367Y-106939051D01*
X141494575Y-106964293D01*
X141554312Y-106980300D01*
X141554313Y-106980300D01*
X141713689Y-106980300D01*
X141713690Y-106980300D01*
X141867638Y-106939050D01*
X142005664Y-106859360D01*
X142118361Y-106746663D01*
X142198051Y-106608637D01*
X142239301Y-106454689D01*
X142239301Y-106295311D01*
X142203681Y-106162373D01*
X142198052Y-106141366D01*
X142198048Y-106141357D01*
X142118363Y-106003340D01*
X142118356Y-106003331D01*
X142005669Y-105890644D01*
X142005660Y-105890637D01*
X141867643Y-105810952D01*
X141867634Y-105810948D01*
X141713696Y-105769701D01*
X141713691Y-105769700D01*
X141713690Y-105769700D01*
X141554312Y-105769700D01*
X141554311Y-105769700D01*
X141554305Y-105769701D01*
X141400367Y-105810948D01*
X141400358Y-105810952D01*
X141262341Y-105890637D01*
X141262332Y-105890644D01*
X141149645Y-106003331D01*
X141149638Y-106003340D01*
X141069953Y-106141357D01*
X141069949Y-106141366D01*
X141028702Y-106295304D01*
X141028701Y-106295312D01*
X137217799Y-106295312D01*
X137217793Y-106295304D01*
X137121213Y-106162373D01*
X137121206Y-106162365D01*
X136992634Y-106033793D01*
X136992626Y-106033786D01*
X136845511Y-105926900D01*
X136683487Y-105844345D01*
X136683479Y-105844341D01*
X136510531Y-105788147D01*
X136510532Y-105788147D01*
X136330935Y-105759701D01*
X136330925Y-105759700D01*
X136330924Y-105759700D01*
X136149076Y-105759700D01*
X136149074Y-105759700D01*
X136149064Y-105759701D01*
X135969467Y-105788147D01*
X135796520Y-105844341D01*
X135796512Y-105844345D01*
X135634488Y-105926900D01*
X135487373Y-106033786D01*
X135487365Y-106033793D01*
X135358793Y-106162365D01*
X135358786Y-106162373D01*
X135251900Y-106309488D01*
X135169345Y-106471512D01*
X135169341Y-106471520D01*
X135113147Y-106644467D01*
X135084701Y-106824064D01*
X135084700Y-106824078D01*
X134855300Y-106824078D01*
X134855300Y-106824076D01*
X134826852Y-106644467D01*
X134770658Y-106471519D01*
X134688101Y-106309491D01*
X134677793Y-106295304D01*
X134581213Y-106162373D01*
X134581206Y-106162365D01*
X134452634Y-106033793D01*
X134452626Y-106033786D01*
X134305511Y-105926900D01*
X134143487Y-105844345D01*
X134143479Y-105844341D01*
X133970531Y-105788147D01*
X133970532Y-105788147D01*
X133790935Y-105759701D01*
X133790925Y-105759700D01*
X133790924Y-105759700D01*
X133609076Y-105759700D01*
X133609074Y-105759700D01*
X133609064Y-105759701D01*
X133429467Y-105788147D01*
X133256520Y-105844341D01*
X133256512Y-105844345D01*
X133094488Y-105926900D01*
X132947373Y-106033786D01*
X132947365Y-106033793D01*
X132818793Y-106162365D01*
X132818786Y-106162373D01*
X132711900Y-106309488D01*
X132629345Y-106471512D01*
X132629341Y-106471520D01*
X132573147Y-106644467D01*
X132544701Y-106824064D01*
X132544700Y-106824078D01*
X131731600Y-106824078D01*
X131731600Y-105695312D01*
X145494700Y-105695312D01*
X145494700Y-105854687D01*
X145494701Y-105854695D01*
X145535948Y-106008633D01*
X145535952Y-106008642D01*
X145615637Y-106146659D01*
X145615644Y-106146668D01*
X145728331Y-106259355D01*
X145728340Y-106259362D01*
X145866357Y-106339047D01*
X145866360Y-106339048D01*
X145866363Y-106339050D01*
X145866364Y-106339050D01*
X145866366Y-106339051D01*
X145938145Y-106358283D01*
X146003536Y-106375805D01*
X146041486Y-106404925D01*
X146047730Y-106419999D01*
X146085948Y-106562633D01*
X146085952Y-106562642D01*
X146165637Y-106700659D01*
X146165644Y-106700668D01*
X146278331Y-106813355D01*
X146278340Y-106813362D01*
X146416357Y-106893047D01*
X146416360Y-106893048D01*
X146416363Y-106893050D01*
X146416364Y-106893050D01*
X146416366Y-106893051D01*
X146510574Y-106918293D01*
X146570311Y-106934300D01*
X146570312Y-106934300D01*
X146729688Y-106934300D01*
X146729689Y-106934300D01*
X146883637Y-106893050D01*
X147021663Y-106813360D01*
X147134360Y-106700663D01*
X147214050Y-106562637D01*
X147255300Y-106408689D01*
X147255300Y-106249311D01*
X147214050Y-106095363D01*
X147178502Y-106033793D01*
X147134362Y-105957340D01*
X147134355Y-105957331D01*
X147021668Y-105844644D01*
X147021659Y-105844637D01*
X146883642Y-105764952D01*
X146883633Y-105764948D01*
X146746463Y-105728194D01*
X146708512Y-105699074D01*
X146702269Y-105684000D01*
X146664051Y-105541366D01*
X146664047Y-105541357D01*
X146584362Y-105403340D01*
X146584355Y-105403331D01*
X146471668Y-105290644D01*
X146471659Y-105290637D01*
X146333642Y-105210952D01*
X146333633Y-105210948D01*
X146179695Y-105169701D01*
X146179690Y-105169700D01*
X146179689Y-105169700D01*
X146020311Y-105169700D01*
X146020310Y-105169700D01*
X146020304Y-105169701D01*
X145866366Y-105210948D01*
X145866357Y-105210952D01*
X145728340Y-105290637D01*
X145728331Y-105290644D01*
X145615644Y-105403331D01*
X145615637Y-105403340D01*
X145535952Y-105541357D01*
X145535948Y-105541366D01*
X145494701Y-105695304D01*
X145494700Y-105695312D01*
X131731600Y-105695312D01*
X131731600Y-104284078D01*
X132544700Y-104284078D01*
X132544700Y-104465921D01*
X132544701Y-104465935D01*
X132573147Y-104645532D01*
X132629341Y-104818479D01*
X132629345Y-104818487D01*
X132711900Y-104980511D01*
X132818786Y-105127626D01*
X132818793Y-105127634D01*
X132947365Y-105256206D01*
X132947373Y-105256213D01*
X133094491Y-105363101D01*
X133256519Y-105445658D01*
X133429467Y-105501852D01*
X133609076Y-105530300D01*
X133609078Y-105530300D01*
X133790922Y-105530300D01*
X133790924Y-105530300D01*
X133970533Y-105501852D01*
X134143481Y-105445658D01*
X134305509Y-105363101D01*
X134452627Y-105256213D01*
X134581213Y-105127627D01*
X134688101Y-104980509D01*
X134770658Y-104818481D01*
X134826852Y-104645533D01*
X134855300Y-104465924D01*
X134855300Y-104284078D01*
X135084700Y-104284078D01*
X135084700Y-104465921D01*
X135084701Y-104465935D01*
X135113147Y-104645532D01*
X135169341Y-104818479D01*
X135169345Y-104818487D01*
X135251900Y-104980511D01*
X135358786Y-105127626D01*
X135358793Y-105127634D01*
X135487365Y-105256206D01*
X135487373Y-105256213D01*
X135634491Y-105363101D01*
X135796519Y-105445658D01*
X135969467Y-105501852D01*
X136149076Y-105530300D01*
X136149078Y-105530300D01*
X136330922Y-105530300D01*
X136330924Y-105530300D01*
X136510533Y-105501852D01*
X136683481Y-105445658D01*
X136845509Y-105363101D01*
X136992627Y-105256213D01*
X137121213Y-105127627D01*
X137228101Y-104980509D01*
X137310658Y-104818481D01*
X137366852Y-104645533D01*
X137395300Y-104465924D01*
X137395300Y-104284076D01*
X137366852Y-104104467D01*
X137310658Y-103931519D01*
X137228101Y-103769491D01*
X137121213Y-103622373D01*
X137121206Y-103622365D01*
X136992634Y-103493793D01*
X136992626Y-103493786D01*
X136845511Y-103386900D01*
X136683487Y-103304345D01*
X136683479Y-103304341D01*
X136510531Y-103248147D01*
X136510532Y-103248147D01*
X136330935Y-103219701D01*
X136330925Y-103219700D01*
X136330924Y-103219700D01*
X136149076Y-103219700D01*
X136149074Y-103219700D01*
X136149064Y-103219701D01*
X135969467Y-103248147D01*
X135796520Y-103304341D01*
X135796512Y-103304345D01*
X135634488Y-103386900D01*
X135487373Y-103493786D01*
X135487365Y-103493793D01*
X135358793Y-103622365D01*
X135358786Y-103622373D01*
X135251900Y-103769488D01*
X135169345Y-103931512D01*
X135169341Y-103931520D01*
X135113147Y-104104467D01*
X135084701Y-104284064D01*
X135084700Y-104284078D01*
X134855300Y-104284078D01*
X134855300Y-104284076D01*
X134826852Y-104104467D01*
X134770658Y-103931519D01*
X134688101Y-103769491D01*
X134581213Y-103622373D01*
X134581206Y-103622365D01*
X134452634Y-103493793D01*
X134452626Y-103493786D01*
X134305511Y-103386900D01*
X134143487Y-103304345D01*
X134143479Y-103304341D01*
X133970531Y-103248147D01*
X133970532Y-103248147D01*
X133790935Y-103219701D01*
X133790925Y-103219700D01*
X133790924Y-103219700D01*
X133609076Y-103219700D01*
X133609074Y-103219700D01*
X133609064Y-103219701D01*
X133429467Y-103248147D01*
X133256520Y-103304341D01*
X133256512Y-103304345D01*
X133094488Y-103386900D01*
X132947373Y-103493786D01*
X132947365Y-103493793D01*
X132818793Y-103622365D01*
X132818786Y-103622373D01*
X132711900Y-103769488D01*
X132629345Y-103931512D01*
X132629341Y-103931520D01*
X132573147Y-104104467D01*
X132544701Y-104284064D01*
X132544700Y-104284078D01*
X131731600Y-104284078D01*
X131731600Y-102295312D01*
X139094700Y-102295312D01*
X139094700Y-102454687D01*
X139094701Y-102454695D01*
X139135948Y-102608633D01*
X139135952Y-102608642D01*
X139215637Y-102746659D01*
X139215644Y-102746668D01*
X139328331Y-102859355D01*
X139328340Y-102859362D01*
X139466357Y-102939047D01*
X139466360Y-102939048D01*
X139466363Y-102939050D01*
X139466364Y-102939050D01*
X139466366Y-102939051D01*
X139560574Y-102964293D01*
X139620311Y-102980300D01*
X139620312Y-102980300D01*
X139779688Y-102980300D01*
X139779689Y-102980300D01*
X139933637Y-102939050D01*
X140071663Y-102859360D01*
X140181943Y-102749080D01*
X149680100Y-102749080D01*
X149680100Y-102883719D01*
X149706366Y-103015768D01*
X149757890Y-103140160D01*
X149832690Y-103252105D01*
X149927894Y-103347309D01*
X150039839Y-103422109D01*
X150039840Y-103422109D01*
X150039841Y-103422110D01*
X150164230Y-103473633D01*
X150296281Y-103499900D01*
X150430919Y-103499900D01*
X150562970Y-103473633D01*
X150687359Y-103422110D01*
X150799306Y-103347309D01*
X150894509Y-103252106D01*
X150969310Y-103140159D01*
X151020833Y-103015770D01*
X151047100Y-102883719D01*
X151047100Y-102809078D01*
X157619700Y-102809078D01*
X157619700Y-102990921D01*
X157619701Y-102990935D01*
X157648147Y-103170532D01*
X157704341Y-103343479D01*
X157704345Y-103343487D01*
X157786900Y-103505511D01*
X157893786Y-103652626D01*
X157893793Y-103652634D01*
X158022365Y-103781206D01*
X158022373Y-103781213D01*
X158169491Y-103888101D01*
X158331519Y-103970658D01*
X158504467Y-104026852D01*
X158684076Y-104055300D01*
X158684078Y-104055300D01*
X158865922Y-104055300D01*
X158865924Y-104055300D01*
X159045533Y-104026852D01*
X159218481Y-103970658D01*
X159380509Y-103888101D01*
X159527627Y-103781213D01*
X159656213Y-103652627D01*
X159763101Y-103505509D01*
X159845658Y-103343481D01*
X159901852Y-103170533D01*
X159930300Y-102990924D01*
X159930300Y-102809076D01*
X159901852Y-102629467D01*
X159845658Y-102456519D01*
X159763101Y-102294491D01*
X159756561Y-102285490D01*
X159656213Y-102147373D01*
X159656206Y-102147365D01*
X159527634Y-102018793D01*
X159527626Y-102018786D01*
X159380511Y-101911900D01*
X159218487Y-101829345D01*
X159218479Y-101829341D01*
X159045531Y-101773147D01*
X159045532Y-101773147D01*
X158865935Y-101744701D01*
X158865925Y-101744700D01*
X158865924Y-101744700D01*
X158684076Y-101744700D01*
X158684074Y-101744700D01*
X158684064Y-101744701D01*
X158504467Y-101773147D01*
X158331520Y-101829341D01*
X158331512Y-101829345D01*
X158169488Y-101911900D01*
X158022373Y-102018786D01*
X158022365Y-102018793D01*
X157893793Y-102147365D01*
X157893786Y-102147373D01*
X157786900Y-102294488D01*
X157704345Y-102456512D01*
X157704341Y-102456520D01*
X157648147Y-102629467D01*
X157619701Y-102809064D01*
X157619700Y-102809078D01*
X151047100Y-102809078D01*
X151047100Y-102749081D01*
X151020833Y-102617030D01*
X150969310Y-102492641D01*
X150894509Y-102380694D01*
X150799306Y-102285491D01*
X150799305Y-102285490D01*
X150687360Y-102210690D01*
X150562968Y-102159166D01*
X150430919Y-102132900D01*
X150296281Y-102132900D01*
X150164231Y-102159166D01*
X150039839Y-102210690D01*
X149927894Y-102285490D01*
X149832690Y-102380694D01*
X149757890Y-102492639D01*
X149706366Y-102617031D01*
X149680100Y-102749080D01*
X140181943Y-102749080D01*
X140184360Y-102746663D01*
X140264050Y-102608637D01*
X140305300Y-102454689D01*
X140305300Y-102295311D01*
X140268820Y-102159166D01*
X140264051Y-102141366D01*
X140264047Y-102141357D01*
X140184362Y-102003340D01*
X140184355Y-102003331D01*
X140071668Y-101890644D01*
X140071659Y-101890637D01*
X139933642Y-101810952D01*
X139933633Y-101810948D01*
X139779695Y-101769701D01*
X139779690Y-101769700D01*
X139779689Y-101769700D01*
X139620311Y-101769700D01*
X139620310Y-101769700D01*
X139620304Y-101769701D01*
X139466366Y-101810948D01*
X139466357Y-101810952D01*
X139328340Y-101890637D01*
X139328331Y-101890644D01*
X139215644Y-102003331D01*
X139215637Y-102003340D01*
X139135952Y-102141357D01*
X139135948Y-102141366D01*
X139094701Y-102295304D01*
X139094700Y-102295312D01*
X131731600Y-102295312D01*
X131731600Y-100763680D01*
X150799700Y-100763680D01*
X150799700Y-100898319D01*
X150825966Y-101030368D01*
X150877490Y-101154760D01*
X150952290Y-101266705D01*
X151047494Y-101361909D01*
X151159439Y-101436709D01*
X151159440Y-101436709D01*
X151159441Y-101436710D01*
X151283830Y-101488233D01*
X151415881Y-101514500D01*
X151550519Y-101514500D01*
X151682570Y-101488233D01*
X151806959Y-101436710D01*
X151918906Y-101361909D01*
X152014109Y-101266706D01*
X152088910Y-101154759D01*
X152140433Y-101030370D01*
X152166700Y-100898319D01*
X152166700Y-100763681D01*
X152140433Y-100631630D01*
X152088910Y-100507241D01*
X152014109Y-100395294D01*
X151918906Y-100300091D01*
X151872645Y-100269180D01*
X157621000Y-100269180D01*
X157621000Y-100450819D01*
X157621001Y-100450833D01*
X157649415Y-100630228D01*
X157705546Y-100802980D01*
X157705550Y-100802988D01*
X157788011Y-100964829D01*
X157858369Y-101061668D01*
X158330293Y-100589744D01*
X158374901Y-100667007D01*
X158467993Y-100760099D01*
X158545253Y-100804705D01*
X158073330Y-101276628D01*
X158170174Y-101346989D01*
X158332011Y-101429449D01*
X158332019Y-101429453D01*
X158504772Y-101485584D01*
X158504771Y-101485584D01*
X158684166Y-101513998D01*
X158684180Y-101514000D01*
X158865820Y-101514000D01*
X158865833Y-101513998D01*
X159045228Y-101485584D01*
X159217980Y-101429453D01*
X159217988Y-101429449D01*
X159379830Y-101346987D01*
X159476669Y-101276629D01*
X159004745Y-100804705D01*
X159082007Y-100760099D01*
X159175099Y-100667007D01*
X159219705Y-100589745D01*
X159691629Y-101061669D01*
X159761987Y-100964830D01*
X159844449Y-100802988D01*
X159844453Y-100802980D01*
X159900584Y-100630228D01*
X159928998Y-100450833D01*
X159929000Y-100450819D01*
X159929000Y-100269180D01*
X159928998Y-100269166D01*
X159900584Y-100089771D01*
X159844453Y-99917019D01*
X159844449Y-99917011D01*
X159761989Y-99755174D01*
X159691628Y-99658330D01*
X159219705Y-100130253D01*
X159175099Y-100052993D01*
X159082007Y-99959901D01*
X159004744Y-99915293D01*
X159476669Y-99443369D01*
X159379829Y-99373011D01*
X159217988Y-99290550D01*
X159217980Y-99290546D01*
X159045227Y-99234415D01*
X159045228Y-99234415D01*
X158865833Y-99206001D01*
X158865820Y-99206000D01*
X158684180Y-99206000D01*
X158684166Y-99206001D01*
X158504771Y-99234415D01*
X158332019Y-99290546D01*
X158332011Y-99290550D01*
X158170170Y-99373011D01*
X158073329Y-99443369D01*
X158545254Y-99915294D01*
X158467993Y-99959901D01*
X158374901Y-100052993D01*
X158330294Y-100130254D01*
X157858369Y-99658329D01*
X157788011Y-99755170D01*
X157705550Y-99917011D01*
X157705546Y-99917019D01*
X157649415Y-100089771D01*
X157621001Y-100269166D01*
X157621000Y-100269180D01*
X151872645Y-100269180D01*
X151872624Y-100269166D01*
X151806960Y-100225290D01*
X151682568Y-100173766D01*
X151550519Y-100147500D01*
X151415881Y-100147500D01*
X151283831Y-100173766D01*
X151159439Y-100225290D01*
X151047494Y-100300090D01*
X150952290Y-100395294D01*
X150877490Y-100507239D01*
X150825966Y-100631631D01*
X150799700Y-100763680D01*
X131731600Y-100763680D01*
X131731600Y-97729078D01*
X157619700Y-97729078D01*
X157619700Y-97910921D01*
X157619701Y-97910935D01*
X157648147Y-98090532D01*
X157704341Y-98263479D01*
X157704345Y-98263487D01*
X157786900Y-98425511D01*
X157893786Y-98572626D01*
X157893793Y-98572634D01*
X158022365Y-98701206D01*
X158022373Y-98701213D01*
X158169491Y-98808101D01*
X158331519Y-98890658D01*
X158504467Y-98946852D01*
X158684076Y-98975300D01*
X158684078Y-98975300D01*
X158865922Y-98975300D01*
X158865924Y-98975300D01*
X159045533Y-98946852D01*
X159218481Y-98890658D01*
X159380509Y-98808101D01*
X159527627Y-98701213D01*
X159656213Y-98572627D01*
X159763101Y-98425509D01*
X159845658Y-98263481D01*
X159901852Y-98090533D01*
X159930300Y-97910924D01*
X159930300Y-97729076D01*
X159901852Y-97549467D01*
X159845658Y-97376519D01*
X159763101Y-97214491D01*
X159656213Y-97067373D01*
X159656206Y-97067365D01*
X159527634Y-96938793D01*
X159527626Y-96938786D01*
X159380511Y-96831900D01*
X159218487Y-96749345D01*
X159218479Y-96749341D01*
X159045531Y-96693147D01*
X159045532Y-96693147D01*
X158865935Y-96664701D01*
X158865925Y-96664700D01*
X158865924Y-96664700D01*
X158684076Y-96664700D01*
X158684074Y-96664700D01*
X158684064Y-96664701D01*
X158504467Y-96693147D01*
X158331520Y-96749341D01*
X158331512Y-96749345D01*
X158169488Y-96831900D01*
X158022373Y-96938786D01*
X158022365Y-96938793D01*
X157893793Y-97067365D01*
X157893786Y-97067373D01*
X157786900Y-97214488D01*
X157704345Y-97376512D01*
X157704341Y-97376520D01*
X157648147Y-97549467D01*
X157619701Y-97729064D01*
X157619700Y-97729078D01*
X131731600Y-97729078D01*
X131731600Y-96039280D01*
X154990700Y-96039280D01*
X154990700Y-96173919D01*
X155016966Y-96305968D01*
X155068490Y-96430360D01*
X155143290Y-96542305D01*
X155238494Y-96637509D01*
X155350439Y-96712309D01*
X155350440Y-96712309D01*
X155350441Y-96712310D01*
X155474830Y-96763833D01*
X155606881Y-96790100D01*
X155741519Y-96790100D01*
X155873570Y-96763833D01*
X155997959Y-96712310D01*
X156109906Y-96637509D01*
X156205109Y-96542306D01*
X156279910Y-96430359D01*
X156331433Y-96305970D01*
X156357700Y-96173919D01*
X156357700Y-96039281D01*
X156331433Y-95907230D01*
X156279910Y-95782841D01*
X156205109Y-95670894D01*
X156109906Y-95575691D01*
X156109905Y-95575690D01*
X155997960Y-95500890D01*
X155873568Y-95449366D01*
X155741519Y-95423100D01*
X155606881Y-95423100D01*
X155474831Y-95449366D01*
X155350439Y-95500890D01*
X155238494Y-95575690D01*
X155143290Y-95670894D01*
X155068490Y-95782839D01*
X155016966Y-95907231D01*
X154990700Y-96039280D01*
X131731600Y-96039280D01*
X131731600Y-94144280D01*
X153880700Y-94144280D01*
X153880700Y-94278919D01*
X153906966Y-94410968D01*
X153958490Y-94535360D01*
X154033290Y-94647305D01*
X154128494Y-94742509D01*
X154240439Y-94817309D01*
X154240440Y-94817309D01*
X154240441Y-94817310D01*
X154364830Y-94868833D01*
X154496881Y-94895100D01*
X154631519Y-94895100D01*
X154763570Y-94868833D01*
X154887959Y-94817310D01*
X154999906Y-94742509D01*
X155095109Y-94647306D01*
X155169910Y-94535359D01*
X155221433Y-94410970D01*
X155226714Y-94384421D01*
X157619700Y-94384421D01*
X157619700Y-96175578D01*
X157622662Y-96201107D01*
X157622662Y-96201109D01*
X157668766Y-96305525D01*
X157749475Y-96386234D01*
X157853891Y-96432338D01*
X157879421Y-96435300D01*
X159670578Y-96435299D01*
X159696109Y-96432338D01*
X159800525Y-96386234D01*
X159881234Y-96305525D01*
X159927338Y-96201109D01*
X159930300Y-96175579D01*
X159930299Y-94384422D01*
X159927338Y-94358891D01*
X159881234Y-94254475D01*
X159800525Y-94173766D01*
X159696109Y-94127662D01*
X159696107Y-94127661D01*
X159673928Y-94125088D01*
X159670579Y-94124700D01*
X159670578Y-94124700D01*
X157879421Y-94124700D01*
X157853890Y-94127662D01*
X157853889Y-94127662D01*
X157749473Y-94173767D01*
X157668767Y-94254473D01*
X157622661Y-94358892D01*
X157619700Y-94384421D01*
X155226714Y-94384421D01*
X155247700Y-94278919D01*
X155247700Y-94144281D01*
X155221433Y-94012230D01*
X155169910Y-93887841D01*
X155095109Y-93775894D01*
X154999906Y-93680691D01*
X154999905Y-93680690D01*
X154887960Y-93605890D01*
X154763568Y-93554366D01*
X154631519Y-93528100D01*
X154496881Y-93528100D01*
X154364831Y-93554366D01*
X154240439Y-93605890D01*
X154128494Y-93680690D01*
X154033290Y-93775894D01*
X153958490Y-93887839D01*
X153906966Y-94012231D01*
X153880700Y-94144280D01*
X131731600Y-94144280D01*
X131731600Y-90920312D01*
X143719700Y-90920312D01*
X143719700Y-91079687D01*
X143719701Y-91079695D01*
X143760948Y-91233633D01*
X143760952Y-91233642D01*
X143840637Y-91371659D01*
X143840644Y-91371668D01*
X143953331Y-91484355D01*
X143953340Y-91484362D01*
X144091357Y-91564047D01*
X144091360Y-91564048D01*
X144091363Y-91564050D01*
X144091364Y-91564050D01*
X144091366Y-91564051D01*
X144185574Y-91589293D01*
X144245311Y-91605300D01*
X144245312Y-91605300D01*
X144404688Y-91605300D01*
X144404689Y-91605300D01*
X144558637Y-91564050D01*
X144696663Y-91484360D01*
X144809360Y-91371663D01*
X144889050Y-91233637D01*
X144930300Y-91079689D01*
X144930300Y-90920311D01*
X144889050Y-90766363D01*
X144809360Y-90628337D01*
X144809358Y-90628335D01*
X144809355Y-90628331D01*
X144696668Y-90515644D01*
X144696659Y-90515637D01*
X144558642Y-90435952D01*
X144558633Y-90435948D01*
X144404695Y-90394701D01*
X144404690Y-90394700D01*
X144404689Y-90394700D01*
X144245311Y-90394700D01*
X144245310Y-90394700D01*
X144245304Y-90394701D01*
X144091366Y-90435948D01*
X144091357Y-90435952D01*
X143953340Y-90515637D01*
X143953331Y-90515644D01*
X143840644Y-90628331D01*
X143840637Y-90628340D01*
X143760952Y-90766357D01*
X143760948Y-90766366D01*
X143719701Y-90920304D01*
X143719700Y-90920312D01*
X131731600Y-90920312D01*
X131731600Y-88569078D01*
X132519700Y-88569078D01*
X132519700Y-88750921D01*
X132519701Y-88750935D01*
X132548147Y-88930532D01*
X132604341Y-89103479D01*
X132604345Y-89103487D01*
X132686900Y-89265511D01*
X132793786Y-89412626D01*
X132793793Y-89412634D01*
X132922365Y-89541206D01*
X132922373Y-89541213D01*
X133069491Y-89648101D01*
X133231519Y-89730658D01*
X133404467Y-89786852D01*
X133584076Y-89815300D01*
X133584078Y-89815300D01*
X133765922Y-89815300D01*
X133765924Y-89815300D01*
X133945533Y-89786852D01*
X134118481Y-89730658D01*
X134280509Y-89648101D01*
X134427627Y-89541213D01*
X134556213Y-89412627D01*
X134663101Y-89265509D01*
X134745658Y-89103481D01*
X134801852Y-88930533D01*
X134830300Y-88750924D01*
X134830300Y-88569076D01*
X134801852Y-88389467D01*
X134745658Y-88216519D01*
X134663101Y-88054491D01*
X134556213Y-87907373D01*
X134556206Y-87907365D01*
X134427634Y-87778793D01*
X134427626Y-87778786D01*
X134407854Y-87764421D01*
X135059700Y-87764421D01*
X135059700Y-89555578D01*
X135062123Y-89576459D01*
X135062662Y-89581109D01*
X135108766Y-89685525D01*
X135189475Y-89766234D01*
X135293891Y-89812338D01*
X135319421Y-89815300D01*
X137110578Y-89815299D01*
X137136109Y-89812338D01*
X137240525Y-89766234D01*
X137321234Y-89685525D01*
X137367338Y-89581109D01*
X137370300Y-89555579D01*
X137370299Y-87806580D01*
X144203500Y-87806580D01*
X144203500Y-87941219D01*
X144229766Y-88073268D01*
X144281290Y-88197660D01*
X144356090Y-88309605D01*
X144451294Y-88404809D01*
X144563239Y-88479609D01*
X144563240Y-88479609D01*
X144563241Y-88479610D01*
X144687630Y-88531133D01*
X144819681Y-88557400D01*
X144954319Y-88557400D01*
X145086370Y-88531133D01*
X145210759Y-88479610D01*
X145322706Y-88404809D01*
X145417909Y-88309606D01*
X145492710Y-88197659D01*
X145544233Y-88073270D01*
X145570500Y-87941219D01*
X145570500Y-87806581D01*
X145544233Y-87674530D01*
X145492710Y-87550141D01*
X145417909Y-87438194D01*
X145322706Y-87342991D01*
X145291407Y-87322077D01*
X145240051Y-87287762D01*
X145230308Y-87273180D01*
X146641900Y-87273180D01*
X146641900Y-87407819D01*
X146668166Y-87539868D01*
X146719690Y-87664260D01*
X146794490Y-87776205D01*
X146889694Y-87871409D01*
X146929689Y-87898133D01*
X146956265Y-87937907D01*
X146946933Y-87984823D01*
X146929689Y-88002067D01*
X146889694Y-88028790D01*
X146794490Y-88123994D01*
X146719690Y-88235939D01*
X146668166Y-88360331D01*
X146641900Y-88492380D01*
X146641900Y-88627019D01*
X146668166Y-88759068D01*
X146719690Y-88883460D01*
X146794490Y-88995405D01*
X146889694Y-89090609D01*
X147001639Y-89165409D01*
X147001640Y-89165409D01*
X147001641Y-89165410D01*
X147126030Y-89216933D01*
X147258081Y-89243200D01*
X147366878Y-89243200D01*
X147411072Y-89261506D01*
X147427248Y-89289524D01*
X147467148Y-89438433D01*
X147467152Y-89438442D01*
X147546837Y-89576459D01*
X147546844Y-89576468D01*
X147659531Y-89689155D01*
X147659540Y-89689162D01*
X147797557Y-89768847D01*
X147797560Y-89768848D01*
X147797563Y-89768850D01*
X147797564Y-89768850D01*
X147797566Y-89768851D01*
X147864748Y-89786852D01*
X147951511Y-89810100D01*
X147971540Y-89810100D01*
X148015734Y-89828406D01*
X148031910Y-89856424D01*
X148063792Y-89975412D01*
X148063796Y-89975421D01*
X148143481Y-90113438D01*
X148143488Y-90113447D01*
X148256175Y-90226134D01*
X148256184Y-90226141D01*
X148394201Y-90305826D01*
X148394204Y-90305827D01*
X148394207Y-90305829D01*
X148394208Y-90305829D01*
X148394210Y-90305830D01*
X148488418Y-90331072D01*
X148548155Y-90347079D01*
X148548156Y-90347079D01*
X148707532Y-90347079D01*
X148707533Y-90347079D01*
X148861481Y-90305829D01*
X148999507Y-90226139D01*
X149112204Y-90113442D01*
X149191894Y-89975416D01*
X149233144Y-89821468D01*
X149233144Y-89662090D01*
X149210202Y-89576468D01*
X149191895Y-89508145D01*
X149191891Y-89508136D01*
X149112206Y-89370119D01*
X149112199Y-89370110D01*
X148999512Y-89257423D01*
X148999503Y-89257416D01*
X148861486Y-89177731D01*
X148861477Y-89177727D01*
X148707539Y-89136480D01*
X148707534Y-89136479D01*
X148707533Y-89136479D01*
X148707532Y-89136479D01*
X148687504Y-89136479D01*
X148643310Y-89118173D01*
X148627134Y-89090155D01*
X148595251Y-88971166D01*
X148595247Y-88971157D01*
X148515562Y-88833140D01*
X148515555Y-88833131D01*
X148402868Y-88720444D01*
X148402859Y-88720437D01*
X148264842Y-88640752D01*
X148264833Y-88640748D01*
X148110895Y-88599501D01*
X148110890Y-88599500D01*
X148110889Y-88599500D01*
X148110888Y-88599500D01*
X148071400Y-88599500D01*
X148027206Y-88581194D01*
X148008900Y-88537000D01*
X148008900Y-88492381D01*
X147982633Y-88360330D01*
X147931110Y-88235941D01*
X147918133Y-88216520D01*
X147856309Y-88123994D01*
X147761105Y-88028790D01*
X147747130Y-88019453D01*
X147721109Y-88002065D01*
X147694534Y-87962293D01*
X147703866Y-87915377D01*
X147721108Y-87898134D01*
X147761106Y-87871409D01*
X147856309Y-87776206D01*
X147931110Y-87664259D01*
X147982633Y-87539870D01*
X148008900Y-87407819D01*
X148008900Y-87273181D01*
X147982633Y-87141130D01*
X147931110Y-87016741D01*
X147929415Y-87014205D01*
X147856309Y-86904794D01*
X147761105Y-86809590D01*
X147649160Y-86734790D01*
X147524768Y-86683266D01*
X147392719Y-86657000D01*
X147258081Y-86657000D01*
X147126031Y-86683266D01*
X147001639Y-86734790D01*
X146889694Y-86809590D01*
X146794490Y-86904794D01*
X146719690Y-87016739D01*
X146668166Y-87141131D01*
X146641900Y-87273180D01*
X145230308Y-87273180D01*
X145213475Y-87247988D01*
X145222807Y-87201072D01*
X145262579Y-87174496D01*
X145349370Y-87157233D01*
X145473759Y-87105710D01*
X145585706Y-87030909D01*
X145680909Y-86935706D01*
X145755710Y-86823759D01*
X145807233Y-86699370D01*
X145833500Y-86567319D01*
X145833500Y-86511180D01*
X151366300Y-86511180D01*
X151366300Y-86645819D01*
X151392566Y-86777868D01*
X151444090Y-86902260D01*
X151518890Y-87014205D01*
X151614094Y-87109409D01*
X151726039Y-87184209D01*
X151726040Y-87184209D01*
X151726041Y-87184210D01*
X151850430Y-87235733D01*
X151982481Y-87262000D01*
X152117119Y-87262000D01*
X152249170Y-87235733D01*
X152373559Y-87184210D01*
X152485506Y-87109409D01*
X152580709Y-87014206D01*
X152655510Y-86902259D01*
X152707033Y-86777870D01*
X152733300Y-86645819D01*
X152733300Y-86511181D01*
X152707033Y-86379130D01*
X152655510Y-86254741D01*
X152580709Y-86142794D01*
X152485506Y-86047591D01*
X152485505Y-86047590D01*
X152373560Y-85972790D01*
X152249168Y-85921266D01*
X152117119Y-85895000D01*
X151982481Y-85895000D01*
X151850431Y-85921266D01*
X151726039Y-85972790D01*
X151614094Y-86047590D01*
X151518890Y-86142794D01*
X151444090Y-86254739D01*
X151392566Y-86379131D01*
X151366300Y-86511180D01*
X145833500Y-86511180D01*
X145833500Y-86432681D01*
X145807233Y-86300630D01*
X145755710Y-86176241D01*
X145733361Y-86142794D01*
X145680909Y-86064294D01*
X145585705Y-85969090D01*
X145473760Y-85894290D01*
X145349368Y-85842766D01*
X145217319Y-85816500D01*
X145082681Y-85816500D01*
X144950631Y-85842766D01*
X144826239Y-85894290D01*
X144714294Y-85969090D01*
X144619090Y-86064294D01*
X144544290Y-86176239D01*
X144492766Y-86300631D01*
X144466500Y-86432680D01*
X144466500Y-86567319D01*
X144492766Y-86699368D01*
X144544290Y-86823760D01*
X144619090Y-86935705D01*
X144714294Y-87030909D01*
X144796948Y-87086137D01*
X144823524Y-87125911D01*
X144814192Y-87172827D01*
X144774419Y-87199403D01*
X144687630Y-87216666D01*
X144563239Y-87268190D01*
X144451294Y-87342990D01*
X144356090Y-87438194D01*
X144281290Y-87550139D01*
X144229766Y-87674531D01*
X144203500Y-87806580D01*
X137370299Y-87806580D01*
X137370299Y-87764422D01*
X137367338Y-87738891D01*
X137321234Y-87634475D01*
X137240525Y-87553766D01*
X137136109Y-87507662D01*
X137136107Y-87507661D01*
X137113928Y-87505088D01*
X137110579Y-87504700D01*
X137110578Y-87504700D01*
X135319421Y-87504700D01*
X135293890Y-87507662D01*
X135293889Y-87507662D01*
X135189473Y-87553767D01*
X135108767Y-87634473D01*
X135062661Y-87738892D01*
X135059700Y-87764421D01*
X134407854Y-87764421D01*
X134280511Y-87671900D01*
X134118487Y-87589345D01*
X134118479Y-87589341D01*
X133945531Y-87533147D01*
X133945532Y-87533147D01*
X133765935Y-87504701D01*
X133765925Y-87504700D01*
X133765924Y-87504700D01*
X133584076Y-87504700D01*
X133584074Y-87504700D01*
X133584064Y-87504701D01*
X133404467Y-87533147D01*
X133231520Y-87589341D01*
X133231512Y-87589345D01*
X133069488Y-87671900D01*
X132922373Y-87778786D01*
X132922365Y-87778793D01*
X132793793Y-87907365D01*
X132793786Y-87907373D01*
X132686900Y-88054488D01*
X132604345Y-88216512D01*
X132604341Y-88216520D01*
X132548147Y-88389467D01*
X132519701Y-88569064D01*
X132519700Y-88569078D01*
X131731600Y-88569078D01*
X131731600Y-86029078D01*
X132519700Y-86029078D01*
X132519700Y-86210921D01*
X132519701Y-86210935D01*
X132548147Y-86390532D01*
X132604341Y-86563479D01*
X132604345Y-86563487D01*
X132686900Y-86725511D01*
X132793786Y-86872626D01*
X132793793Y-86872634D01*
X132922365Y-87001206D01*
X132922373Y-87001213D01*
X133066198Y-87105709D01*
X133069491Y-87108101D01*
X133231519Y-87190658D01*
X133404467Y-87246852D01*
X133584076Y-87275300D01*
X133584078Y-87275300D01*
X133765922Y-87275300D01*
X133765924Y-87275300D01*
X133945533Y-87246852D01*
X134118481Y-87190658D01*
X134280509Y-87108101D01*
X134427627Y-87001213D01*
X134556213Y-86872627D01*
X134663101Y-86725509D01*
X134745658Y-86563481D01*
X134801852Y-86390533D01*
X134830300Y-86210924D01*
X134830300Y-86029078D01*
X135059700Y-86029078D01*
X135059700Y-86210921D01*
X135059701Y-86210935D01*
X135088147Y-86390532D01*
X135144341Y-86563479D01*
X135144345Y-86563487D01*
X135226900Y-86725511D01*
X135333786Y-86872626D01*
X135333793Y-86872634D01*
X135462365Y-87001206D01*
X135462373Y-87001213D01*
X135606198Y-87105709D01*
X135609491Y-87108101D01*
X135771519Y-87190658D01*
X135944467Y-87246852D01*
X136124076Y-87275300D01*
X136124078Y-87275300D01*
X136305922Y-87275300D01*
X136305924Y-87275300D01*
X136485533Y-87246852D01*
X136658481Y-87190658D01*
X136820509Y-87108101D01*
X136967627Y-87001213D01*
X137096213Y-86872627D01*
X137203101Y-86725509D01*
X137285658Y-86563481D01*
X137341852Y-86390533D01*
X137370300Y-86210924D01*
X137370300Y-86029076D01*
X137341852Y-85849467D01*
X137285658Y-85676519D01*
X137203101Y-85514491D01*
X137096213Y-85367373D01*
X137096206Y-85367365D01*
X136967634Y-85238793D01*
X136967626Y-85238786D01*
X136820511Y-85131900D01*
X136658487Y-85049345D01*
X136658479Y-85049341D01*
X136485531Y-84993147D01*
X136485532Y-84993147D01*
X136305935Y-84964701D01*
X136305925Y-84964700D01*
X136305924Y-84964700D01*
X136124076Y-84964700D01*
X136124074Y-84964700D01*
X136124064Y-84964701D01*
X135944467Y-84993147D01*
X135771520Y-85049341D01*
X135771512Y-85049345D01*
X135609488Y-85131900D01*
X135462373Y-85238786D01*
X135462365Y-85238793D01*
X135333793Y-85367365D01*
X135333786Y-85367373D01*
X135226900Y-85514488D01*
X135144345Y-85676512D01*
X135144341Y-85676520D01*
X135088147Y-85849467D01*
X135059701Y-86029064D01*
X135059700Y-86029078D01*
X134830300Y-86029078D01*
X134830300Y-86029076D01*
X134801852Y-85849467D01*
X134745658Y-85676519D01*
X134663101Y-85514491D01*
X134556213Y-85367373D01*
X134556206Y-85367365D01*
X134427634Y-85238793D01*
X134427626Y-85238786D01*
X134280511Y-85131900D01*
X134118487Y-85049345D01*
X134118479Y-85049341D01*
X133945531Y-84993147D01*
X133945532Y-84993147D01*
X133765935Y-84964701D01*
X133765925Y-84964700D01*
X133765924Y-84964700D01*
X133584076Y-84964700D01*
X133584074Y-84964700D01*
X133584064Y-84964701D01*
X133404467Y-84993147D01*
X133231520Y-85049341D01*
X133231512Y-85049345D01*
X133069488Y-85131900D01*
X132922373Y-85238786D01*
X132922365Y-85238793D01*
X132793793Y-85367365D01*
X132793786Y-85367373D01*
X132686900Y-85514488D01*
X132604345Y-85676512D01*
X132604341Y-85676520D01*
X132548147Y-85849467D01*
X132519701Y-86029064D01*
X132519700Y-86029078D01*
X131731600Y-86029078D01*
X131731600Y-83489078D01*
X132519700Y-83489078D01*
X132519700Y-83670921D01*
X132519701Y-83670935D01*
X132548147Y-83850532D01*
X132604341Y-84023479D01*
X132604345Y-84023487D01*
X132686900Y-84185511D01*
X132793786Y-84332626D01*
X132793793Y-84332634D01*
X132922365Y-84461206D01*
X132922373Y-84461213D01*
X133067957Y-84566987D01*
X133069491Y-84568101D01*
X133231519Y-84650658D01*
X133404467Y-84706852D01*
X133584076Y-84735300D01*
X133584078Y-84735300D01*
X133765922Y-84735300D01*
X133765924Y-84735300D01*
X133945533Y-84706852D01*
X134118481Y-84650658D01*
X134280509Y-84568101D01*
X134427627Y-84461213D01*
X134427634Y-84461206D01*
X134460226Y-84428615D01*
X134556206Y-84332634D01*
X134556213Y-84332627D01*
X134663101Y-84185509D01*
X134745658Y-84023481D01*
X134801852Y-83850533D01*
X134830300Y-83670924D01*
X134830300Y-83489180D01*
X135061000Y-83489180D01*
X135061000Y-83670819D01*
X135061001Y-83670833D01*
X135089415Y-83850228D01*
X135145546Y-84022980D01*
X135145550Y-84022988D01*
X135228011Y-84184829D01*
X135298369Y-84281668D01*
X135770293Y-83809744D01*
X135814901Y-83887007D01*
X135907993Y-83980099D01*
X135985253Y-84024705D01*
X135513330Y-84496628D01*
X135610174Y-84566989D01*
X135772011Y-84649449D01*
X135772019Y-84649453D01*
X135944772Y-84705584D01*
X135944771Y-84705584D01*
X136124166Y-84733998D01*
X136124180Y-84734000D01*
X136305820Y-84734000D01*
X136305833Y-84733998D01*
X136485228Y-84705584D01*
X136657980Y-84649453D01*
X136657988Y-84649449D01*
X136819830Y-84566987D01*
X136916669Y-84496629D01*
X136444745Y-84024705D01*
X136522007Y-83980099D01*
X136615099Y-83887007D01*
X136659705Y-83809745D01*
X137131629Y-84281669D01*
X137201987Y-84184830D01*
X137284449Y-84022988D01*
X137284453Y-84022980D01*
X137340584Y-83850228D01*
X137368998Y-83670833D01*
X137369000Y-83670819D01*
X137369000Y-83489180D01*
X137368998Y-83489164D01*
X137341807Y-83317488D01*
X137340743Y-83310780D01*
X145879900Y-83310780D01*
X145879900Y-83445419D01*
X145906166Y-83577468D01*
X145957690Y-83701860D01*
X146032490Y-83813805D01*
X146127694Y-83909009D01*
X146239639Y-83983809D01*
X146239640Y-83983809D01*
X146239641Y-83983810D01*
X146364030Y-84035333D01*
X146496081Y-84061600D01*
X146630719Y-84061600D01*
X146762770Y-84035333D01*
X146887159Y-83983810D01*
X146999106Y-83909009D01*
X147094309Y-83813806D01*
X147169110Y-83701859D01*
X147220633Y-83577470D01*
X147246900Y-83445419D01*
X147246900Y-83310781D01*
X147220633Y-83178730D01*
X147169110Y-83054341D01*
X147162196Y-83043994D01*
X147094309Y-82942394D01*
X146999105Y-82847190D01*
X146967261Y-82825912D01*
X147324300Y-82825912D01*
X147324300Y-82985287D01*
X147324301Y-82985295D01*
X147365548Y-83139233D01*
X147365552Y-83139242D01*
X147445237Y-83277259D01*
X147445244Y-83277268D01*
X147557931Y-83389955D01*
X147557940Y-83389962D01*
X147695957Y-83469647D01*
X147695960Y-83469648D01*
X147695963Y-83469650D01*
X147695964Y-83469650D01*
X147695966Y-83469651D01*
X147768417Y-83489064D01*
X147849911Y-83510900D01*
X147873083Y-83510900D01*
X147917277Y-83529206D01*
X147935583Y-83573400D01*
X147934211Y-83583817D01*
X147934435Y-83583847D01*
X147933900Y-83587912D01*
X147933900Y-83747287D01*
X147933901Y-83747295D01*
X147975148Y-83901233D01*
X147975152Y-83901242D01*
X148054837Y-84039259D01*
X148054844Y-84039268D01*
X148167531Y-84151955D01*
X148167540Y-84151962D01*
X148305557Y-84231647D01*
X148305560Y-84231648D01*
X148305563Y-84231650D01*
X148305564Y-84231650D01*
X148305566Y-84231651D01*
X148399774Y-84256893D01*
X148459511Y-84272900D01*
X148459512Y-84272900D01*
X148618888Y-84272900D01*
X148618889Y-84272900D01*
X148772837Y-84231650D01*
X148910863Y-84151960D01*
X149023560Y-84039263D01*
X149103250Y-83901237D01*
X149144500Y-83747289D01*
X149144500Y-83587911D01*
X149128770Y-83529206D01*
X149114591Y-83476287D01*
X149111079Y-83463180D01*
X154109500Y-83463180D01*
X154109500Y-83597819D01*
X154135766Y-83729868D01*
X154187290Y-83854260D01*
X154262090Y-83966205D01*
X154357294Y-84061409D01*
X154469239Y-84136209D01*
X154469240Y-84136209D01*
X154469241Y-84136210D01*
X154593630Y-84187733D01*
X154725681Y-84214000D01*
X154860319Y-84214000D01*
X154992370Y-84187733D01*
X155116759Y-84136210D01*
X155228706Y-84061409D01*
X155323909Y-83966206D01*
X155398710Y-83854259D01*
X155450233Y-83729870D01*
X155476500Y-83597819D01*
X155476500Y-83463181D01*
X155450233Y-83331130D01*
X155398710Y-83206741D01*
X155323909Y-83094794D01*
X155228706Y-82999591D01*
X155228705Y-82999590D01*
X155116760Y-82924790D01*
X154992368Y-82873266D01*
X154860319Y-82847000D01*
X154725681Y-82847000D01*
X154593631Y-82873266D01*
X154469239Y-82924790D01*
X154357294Y-82999590D01*
X154262090Y-83094794D01*
X154187290Y-83206739D01*
X154135766Y-83331131D01*
X154109500Y-83463180D01*
X149111079Y-83463180D01*
X149103251Y-83433966D01*
X149103247Y-83433957D01*
X149023562Y-83295940D01*
X149023555Y-83295931D01*
X148910868Y-83183244D01*
X148910859Y-83183237D01*
X148772842Y-83103552D01*
X148772833Y-83103548D01*
X148618895Y-83062301D01*
X148618890Y-83062300D01*
X148618889Y-83062300D01*
X148618888Y-83062300D01*
X148595717Y-83062300D01*
X148551523Y-83043994D01*
X148533217Y-82999800D01*
X148534588Y-82989382D01*
X148534365Y-82989353D01*
X148534900Y-82985287D01*
X148534900Y-82825912D01*
X148534898Y-82825904D01*
X148493651Y-82671966D01*
X148493647Y-82671957D01*
X148413962Y-82533940D01*
X148413955Y-82533931D01*
X148301268Y-82421244D01*
X148301259Y-82421237D01*
X148163242Y-82341552D01*
X148163233Y-82341548D01*
X148009295Y-82300301D01*
X148009290Y-82300300D01*
X148009289Y-82300300D01*
X147849911Y-82300300D01*
X147849910Y-82300300D01*
X147849904Y-82300301D01*
X147695966Y-82341548D01*
X147695957Y-82341552D01*
X147557940Y-82421237D01*
X147557931Y-82421244D01*
X147445244Y-82533931D01*
X147445237Y-82533940D01*
X147365552Y-82671957D01*
X147365548Y-82671966D01*
X147324301Y-82825904D01*
X147324300Y-82825912D01*
X146967261Y-82825912D01*
X146887160Y-82772390D01*
X146762768Y-82720866D01*
X146630719Y-82694600D01*
X146496081Y-82694600D01*
X146364031Y-82720866D01*
X146239639Y-82772390D01*
X146127694Y-82847190D01*
X146032490Y-82942394D01*
X145957690Y-83054339D01*
X145906166Y-83178731D01*
X145879900Y-83310780D01*
X137340743Y-83310780D01*
X137340583Y-83309770D01*
X137284453Y-83137019D01*
X137284449Y-83137011D01*
X137201989Y-82975174D01*
X137131628Y-82878330D01*
X136659705Y-83350253D01*
X136615099Y-83272993D01*
X136522007Y-83179901D01*
X136444744Y-83135293D01*
X136916669Y-82663369D01*
X136819829Y-82593011D01*
X136657988Y-82510550D01*
X136657980Y-82510546D01*
X136485227Y-82454415D01*
X136485228Y-82454415D01*
X136305833Y-82426001D01*
X136305820Y-82426000D01*
X136124180Y-82426000D01*
X136124166Y-82426001D01*
X135944771Y-82454415D01*
X135772019Y-82510546D01*
X135772011Y-82510550D01*
X135610170Y-82593011D01*
X135513329Y-82663369D01*
X135985254Y-83135294D01*
X135907993Y-83179901D01*
X135814901Y-83272993D01*
X135770294Y-83350254D01*
X135298369Y-82878329D01*
X135228011Y-82975170D01*
X135145550Y-83137011D01*
X135145546Y-83137019D01*
X135089415Y-83309771D01*
X135061001Y-83489166D01*
X135061000Y-83489180D01*
X134830300Y-83489180D01*
X134830300Y-83489076D01*
X134801852Y-83309467D01*
X134745658Y-83136519D01*
X134663101Y-82974491D01*
X134556213Y-82827373D01*
X134556206Y-82827365D01*
X134427634Y-82698793D01*
X134427626Y-82698786D01*
X134280511Y-82591900D01*
X134118487Y-82509345D01*
X134118479Y-82509341D01*
X133945531Y-82453147D01*
X133945532Y-82453147D01*
X133765935Y-82424701D01*
X133765925Y-82424700D01*
X133765924Y-82424700D01*
X133584076Y-82424700D01*
X133584074Y-82424700D01*
X133584064Y-82424701D01*
X133404467Y-82453147D01*
X133231520Y-82509341D01*
X133231512Y-82509345D01*
X133069488Y-82591900D01*
X132922373Y-82698786D01*
X132922365Y-82698793D01*
X132793793Y-82827365D01*
X132793786Y-82827373D01*
X132686900Y-82974488D01*
X132604345Y-83136512D01*
X132604341Y-83136520D01*
X132548147Y-83309467D01*
X132519701Y-83489064D01*
X132519700Y-83489078D01*
X131731600Y-83489078D01*
X131731600Y-80949078D01*
X132519700Y-80949078D01*
X132519700Y-81130921D01*
X132519701Y-81130935D01*
X132548147Y-81310532D01*
X132604341Y-81483479D01*
X132604345Y-81483487D01*
X132686900Y-81645511D01*
X132793786Y-81792626D01*
X132793793Y-81792634D01*
X132922365Y-81921206D01*
X132922373Y-81921213D01*
X133069491Y-82028101D01*
X133231519Y-82110658D01*
X133404467Y-82166852D01*
X133584076Y-82195300D01*
X133584078Y-82195300D01*
X133765922Y-82195300D01*
X133765924Y-82195300D01*
X133945533Y-82166852D01*
X134118481Y-82110658D01*
X134280509Y-82028101D01*
X134427627Y-81921213D01*
X134556213Y-81792627D01*
X134663101Y-81645509D01*
X134745658Y-81483481D01*
X134801852Y-81310533D01*
X134830300Y-81130924D01*
X134830300Y-80949078D01*
X135059700Y-80949078D01*
X135059700Y-81130921D01*
X135059701Y-81130935D01*
X135088147Y-81310532D01*
X135144341Y-81483479D01*
X135144345Y-81483487D01*
X135226900Y-81645511D01*
X135333786Y-81792626D01*
X135333793Y-81792634D01*
X135462365Y-81921206D01*
X135462373Y-81921213D01*
X135609491Y-82028101D01*
X135771519Y-82110658D01*
X135944467Y-82166852D01*
X136124076Y-82195300D01*
X136124078Y-82195300D01*
X136305922Y-82195300D01*
X136305924Y-82195300D01*
X136485533Y-82166852D01*
X136658481Y-82110658D01*
X136820509Y-82028101D01*
X136967627Y-81921213D01*
X137096213Y-81792627D01*
X137203101Y-81645509D01*
X137285658Y-81483481D01*
X137341852Y-81310533D01*
X137356142Y-81220312D01*
X150494700Y-81220312D01*
X150494700Y-81379687D01*
X150494701Y-81379695D01*
X150535948Y-81533633D01*
X150535952Y-81533642D01*
X150615637Y-81671659D01*
X150615644Y-81671668D01*
X150728331Y-81784355D01*
X150728340Y-81784362D01*
X150866357Y-81864047D01*
X150866360Y-81864048D01*
X150866363Y-81864050D01*
X150866364Y-81864050D01*
X150866366Y-81864051D01*
X150960574Y-81889293D01*
X151020311Y-81905300D01*
X151020312Y-81905300D01*
X151179688Y-81905300D01*
X151179689Y-81905300D01*
X151333637Y-81864050D01*
X151471663Y-81784360D01*
X151584360Y-81671663D01*
X151664050Y-81533637D01*
X151705300Y-81379689D01*
X151705300Y-81220311D01*
X151664050Y-81066363D01*
X151584360Y-80928337D01*
X151584358Y-80928335D01*
X151584355Y-80928331D01*
X151471668Y-80815644D01*
X151471659Y-80815637D01*
X151333642Y-80735952D01*
X151333633Y-80735948D01*
X151179695Y-80694701D01*
X151179690Y-80694700D01*
X151179689Y-80694700D01*
X151020311Y-80694700D01*
X151020310Y-80694700D01*
X151020304Y-80694701D01*
X150866366Y-80735948D01*
X150866357Y-80735952D01*
X150728340Y-80815637D01*
X150728331Y-80815644D01*
X150615644Y-80928331D01*
X150615637Y-80928340D01*
X150535952Y-81066357D01*
X150535948Y-81066366D01*
X150494701Y-81220304D01*
X150494700Y-81220312D01*
X137356142Y-81220312D01*
X137356142Y-81220311D01*
X137358340Y-81206437D01*
X137370298Y-81130935D01*
X137370300Y-81130921D01*
X137370300Y-80949078D01*
X137370298Y-80949064D01*
X137341852Y-80769467D01*
X137285658Y-80596520D01*
X137285654Y-80596512D01*
X137203099Y-80434488D01*
X137096213Y-80287373D01*
X137096206Y-80287365D01*
X136967634Y-80158793D01*
X136967626Y-80158786D01*
X136820511Y-80051900D01*
X136658487Y-79969345D01*
X136658479Y-79969341D01*
X136485531Y-79913147D01*
X136485532Y-79913147D01*
X136305935Y-79884701D01*
X136305925Y-79884700D01*
X136305924Y-79884700D01*
X136124076Y-79884700D01*
X136124074Y-79884700D01*
X136124064Y-79884701D01*
X135944467Y-79913147D01*
X135771520Y-79969341D01*
X135771512Y-79969345D01*
X135609488Y-80051900D01*
X135462373Y-80158786D01*
X135462365Y-80158793D01*
X135333793Y-80287365D01*
X135333786Y-80287373D01*
X135226900Y-80434488D01*
X135144345Y-80596512D01*
X135144341Y-80596520D01*
X135088147Y-80769467D01*
X135059701Y-80949064D01*
X135059700Y-80949078D01*
X134830300Y-80949078D01*
X134830300Y-80949076D01*
X134801852Y-80769467D01*
X134745658Y-80596519D01*
X134663101Y-80434491D01*
X134556213Y-80287373D01*
X134556206Y-80287365D01*
X134427634Y-80158793D01*
X134427626Y-80158786D01*
X134280511Y-80051900D01*
X134118487Y-79969345D01*
X134118479Y-79969341D01*
X133945531Y-79913147D01*
X133945532Y-79913147D01*
X133765935Y-79884701D01*
X133765925Y-79884700D01*
X133765924Y-79884700D01*
X133584076Y-79884700D01*
X133584074Y-79884700D01*
X133584064Y-79884701D01*
X133404467Y-79913147D01*
X133231520Y-79969341D01*
X133231512Y-79969345D01*
X133069488Y-80051900D01*
X132922373Y-80158786D01*
X132922365Y-80158793D01*
X132793793Y-80287365D01*
X132793786Y-80287373D01*
X132686900Y-80434488D01*
X132604345Y-80596512D01*
X132604341Y-80596520D01*
X132548147Y-80769467D01*
X132519701Y-80949064D01*
X132519700Y-80949078D01*
X131731600Y-80949078D01*
X131731600Y-78409078D01*
X132519700Y-78409078D01*
X132519700Y-78590921D01*
X132519701Y-78590935D01*
X132548147Y-78770532D01*
X132604341Y-78943479D01*
X132604345Y-78943487D01*
X132686900Y-79105511D01*
X132793786Y-79252626D01*
X132793793Y-79252634D01*
X132922365Y-79381206D01*
X132922373Y-79381213D01*
X133036383Y-79464047D01*
X133069491Y-79488101D01*
X133231519Y-79570658D01*
X133404467Y-79626852D01*
X133584076Y-79655300D01*
X133584078Y-79655300D01*
X133765922Y-79655300D01*
X133765924Y-79655300D01*
X133945533Y-79626852D01*
X134118481Y-79570658D01*
X134280509Y-79488101D01*
X134427627Y-79381213D01*
X134556213Y-79252627D01*
X134663101Y-79105509D01*
X134745658Y-78943481D01*
X134801852Y-78770533D01*
X134830300Y-78590924D01*
X134830300Y-78409078D01*
X135059700Y-78409078D01*
X135059700Y-78590921D01*
X135059701Y-78590935D01*
X135088147Y-78770532D01*
X135144341Y-78943479D01*
X135144345Y-78943487D01*
X135226900Y-79105511D01*
X135333786Y-79252626D01*
X135333793Y-79252634D01*
X135462365Y-79381206D01*
X135462373Y-79381213D01*
X135576383Y-79464047D01*
X135609491Y-79488101D01*
X135771519Y-79570658D01*
X135944467Y-79626852D01*
X136124076Y-79655300D01*
X136124078Y-79655300D01*
X136305922Y-79655300D01*
X136305924Y-79655300D01*
X136485533Y-79626852D01*
X136658481Y-79570658D01*
X136820509Y-79488101D01*
X136967627Y-79381213D01*
X137096213Y-79252627D01*
X137203101Y-79105509D01*
X137285658Y-78943481D01*
X137325678Y-78820312D01*
X154263900Y-78820312D01*
X154263900Y-78979687D01*
X154263901Y-78979695D01*
X154305148Y-79133633D01*
X154305152Y-79133642D01*
X154384837Y-79271659D01*
X154384844Y-79271668D01*
X154497531Y-79384355D01*
X154497540Y-79384362D01*
X154635557Y-79464047D01*
X154635560Y-79464048D01*
X154635563Y-79464050D01*
X154635564Y-79464050D01*
X154635566Y-79464051D01*
X154725316Y-79488099D01*
X154789511Y-79505300D01*
X154789512Y-79505300D01*
X154948888Y-79505300D01*
X154948889Y-79505300D01*
X155102837Y-79464050D01*
X155240863Y-79384360D01*
X155353560Y-79271663D01*
X155433250Y-79133637D01*
X155474500Y-78979689D01*
X155474500Y-78820311D01*
X155433250Y-78666363D01*
X155389701Y-78590935D01*
X155353562Y-78528340D01*
X155353555Y-78528331D01*
X155240868Y-78415644D01*
X155240859Y-78415637D01*
X155102842Y-78335952D01*
X155102833Y-78335948D01*
X154948895Y-78294701D01*
X154948890Y-78294700D01*
X154948889Y-78294700D01*
X154789511Y-78294700D01*
X154789510Y-78294700D01*
X154789504Y-78294701D01*
X154635566Y-78335948D01*
X154635557Y-78335952D01*
X154497540Y-78415637D01*
X154497531Y-78415644D01*
X154384844Y-78528331D01*
X154384837Y-78528340D01*
X154305152Y-78666357D01*
X154305148Y-78666366D01*
X154263901Y-78820304D01*
X154263900Y-78820312D01*
X137325678Y-78820312D01*
X137341852Y-78770533D01*
X137370300Y-78590924D01*
X137370300Y-78409076D01*
X137341852Y-78229467D01*
X137285658Y-78056519D01*
X137203101Y-77894491D01*
X137096213Y-77747373D01*
X137096206Y-77747365D01*
X136967634Y-77618793D01*
X136967626Y-77618786D01*
X136820511Y-77511900D01*
X136658487Y-77429345D01*
X136658479Y-77429341D01*
X136485531Y-77373147D01*
X136485532Y-77373147D01*
X136305935Y-77344701D01*
X136305925Y-77344700D01*
X136305924Y-77344700D01*
X136124076Y-77344700D01*
X136124074Y-77344700D01*
X136124064Y-77344701D01*
X135944467Y-77373147D01*
X135771520Y-77429341D01*
X135771512Y-77429345D01*
X135609488Y-77511900D01*
X135462373Y-77618786D01*
X135462365Y-77618793D01*
X135333793Y-77747365D01*
X135333786Y-77747373D01*
X135226900Y-77894488D01*
X135144345Y-78056512D01*
X135144341Y-78056520D01*
X135088147Y-78229467D01*
X135059701Y-78409064D01*
X135059700Y-78409078D01*
X134830300Y-78409078D01*
X134830300Y-78409076D01*
X134801852Y-78229467D01*
X134745658Y-78056519D01*
X134663101Y-77894491D01*
X134556213Y-77747373D01*
X134556206Y-77747365D01*
X134427634Y-77618793D01*
X134427626Y-77618786D01*
X134280511Y-77511900D01*
X134118487Y-77429345D01*
X134118479Y-77429341D01*
X133945531Y-77373147D01*
X133945532Y-77373147D01*
X133765935Y-77344701D01*
X133765925Y-77344700D01*
X133765924Y-77344700D01*
X133584076Y-77344700D01*
X133584074Y-77344700D01*
X133584064Y-77344701D01*
X133404467Y-77373147D01*
X133231520Y-77429341D01*
X133231512Y-77429345D01*
X133069488Y-77511900D01*
X132922373Y-77618786D01*
X132922365Y-77618793D01*
X132793793Y-77747365D01*
X132793786Y-77747373D01*
X132686900Y-77894488D01*
X132604345Y-78056512D01*
X132604341Y-78056520D01*
X132548147Y-78229467D01*
X132519701Y-78409064D01*
X132519700Y-78409078D01*
X131731600Y-78409078D01*
X131731600Y-75538380D01*
X139250500Y-75538380D01*
X139250500Y-75673019D01*
X139276766Y-75805068D01*
X139328290Y-75929460D01*
X139403090Y-76041405D01*
X139498294Y-76136609D01*
X139610239Y-76211409D01*
X139610240Y-76211409D01*
X139610241Y-76211410D01*
X139734630Y-76262933D01*
X139866681Y-76289200D01*
X140001319Y-76289200D01*
X140133370Y-76262933D01*
X140257759Y-76211410D01*
X140369706Y-76136609D01*
X140464909Y-76041406D01*
X140539710Y-75929459D01*
X140591233Y-75805070D01*
X140617500Y-75673019D01*
X140617500Y-75538381D01*
X140591233Y-75406330D01*
X140539710Y-75281941D01*
X140464909Y-75169994D01*
X140369706Y-75074791D01*
X140338406Y-75053877D01*
X140338406Y-75053876D01*
X140279570Y-75014563D01*
X140265227Y-75004980D01*
X145575100Y-75004980D01*
X145575100Y-75139619D01*
X145601366Y-75271668D01*
X145652890Y-75396060D01*
X145727690Y-75508005D01*
X145822894Y-75603209D01*
X145934839Y-75678009D01*
X145934840Y-75678009D01*
X145934841Y-75678010D01*
X146059230Y-75729533D01*
X146191281Y-75755800D01*
X146325919Y-75755800D01*
X146457970Y-75729533D01*
X146582359Y-75678010D01*
X146694306Y-75603209D01*
X146789509Y-75508006D01*
X146864310Y-75396059D01*
X146915833Y-75271670D01*
X146942100Y-75139619D01*
X146942100Y-75004981D01*
X146915833Y-74872930D01*
X146864310Y-74748541D01*
X146831996Y-74700180D01*
X151594900Y-74700180D01*
X151594900Y-74834819D01*
X151621166Y-74966868D01*
X151672690Y-75091260D01*
X151747490Y-75203205D01*
X151842694Y-75298409D01*
X151954639Y-75373209D01*
X151954640Y-75373209D01*
X151954641Y-75373210D01*
X152079030Y-75424733D01*
X152211081Y-75451000D01*
X152345719Y-75451000D01*
X152477770Y-75424733D01*
X152602159Y-75373210D01*
X152714106Y-75298409D01*
X152809309Y-75203206D01*
X152884110Y-75091259D01*
X152935633Y-74966870D01*
X152961900Y-74834819D01*
X152961900Y-74700181D01*
X152935633Y-74568130D01*
X152884110Y-74443741D01*
X152847399Y-74388800D01*
X152809309Y-74331794D01*
X152714105Y-74236590D01*
X152602160Y-74161790D01*
X152477768Y-74110266D01*
X152345719Y-74084000D01*
X152211081Y-74084000D01*
X152079031Y-74110266D01*
X151954639Y-74161790D01*
X151842694Y-74236590D01*
X151747490Y-74331794D01*
X151672690Y-74443739D01*
X151621166Y-74568131D01*
X151594900Y-74700180D01*
X146831996Y-74700180D01*
X146789509Y-74636594D01*
X146694306Y-74541391D01*
X146694305Y-74541390D01*
X146582360Y-74466590D01*
X146457968Y-74415066D01*
X146325919Y-74388800D01*
X146191281Y-74388800D01*
X146059231Y-74415066D01*
X145934839Y-74466590D01*
X145822894Y-74541390D01*
X145727690Y-74636594D01*
X145652890Y-74748539D01*
X145601366Y-74872931D01*
X145575100Y-75004980D01*
X140265227Y-75004980D01*
X140257759Y-74999990D01*
X140133370Y-74948467D01*
X140133368Y-74948466D01*
X140001319Y-74922200D01*
X139866681Y-74922200D01*
X139734631Y-74948466D01*
X139610239Y-74999990D01*
X139498294Y-75074790D01*
X139403090Y-75169994D01*
X139328290Y-75281939D01*
X139276766Y-75406331D01*
X139250500Y-75538380D01*
X131731600Y-75538380D01*
X131731600Y-71652180D01*
X159062500Y-71652180D01*
X159062500Y-71786819D01*
X159088766Y-71918868D01*
X159140290Y-72043260D01*
X159215090Y-72155205D01*
X159310294Y-72250409D01*
X159422239Y-72325209D01*
X159422240Y-72325209D01*
X159422241Y-72325210D01*
X159546630Y-72376733D01*
X159678681Y-72403000D01*
X159813319Y-72403000D01*
X159945370Y-72376733D01*
X160069759Y-72325210D01*
X160181706Y-72250409D01*
X160276909Y-72155206D01*
X160351710Y-72043259D01*
X160403233Y-71918870D01*
X160429500Y-71786819D01*
X160429500Y-71652181D01*
X160403233Y-71520130D01*
X160351710Y-71395741D01*
X160276909Y-71283794D01*
X160181706Y-71188591D01*
X160181705Y-71188590D01*
X160069760Y-71113790D01*
X159945368Y-71062266D01*
X159813319Y-71036000D01*
X159678681Y-71036000D01*
X159546631Y-71062266D01*
X159422239Y-71113790D01*
X159310294Y-71188590D01*
X159215090Y-71283794D01*
X159140290Y-71395739D01*
X159088766Y-71520131D01*
X159062500Y-71652180D01*
X131731600Y-71652180D01*
X131731600Y-69907680D01*
X155541500Y-69907680D01*
X155541500Y-70042319D01*
X155567766Y-70174368D01*
X155619290Y-70298760D01*
X155694090Y-70410705D01*
X155789294Y-70505909D01*
X155901239Y-70580709D01*
X155901240Y-70580709D01*
X155901241Y-70580710D01*
X156025630Y-70632233D01*
X156157681Y-70658500D01*
X156292319Y-70658500D01*
X156424370Y-70632233D01*
X156548759Y-70580710D01*
X156660706Y-70505909D01*
X156755909Y-70410706D01*
X156830710Y-70298759D01*
X156882233Y-70174370D01*
X156908500Y-70042319D01*
X156908500Y-69907681D01*
X156882233Y-69775630D01*
X156830710Y-69651241D01*
X156755909Y-69539294D01*
X156660706Y-69444091D01*
X156660705Y-69444090D01*
X156548760Y-69369290D01*
X156424368Y-69317766D01*
X156292319Y-69291500D01*
X156157681Y-69291500D01*
X156025631Y-69317766D01*
X155901239Y-69369290D01*
X155789294Y-69444090D01*
X155694090Y-69539294D01*
X155619290Y-69651239D01*
X155567766Y-69775631D01*
X155541500Y-69907680D01*
X131731600Y-69907680D01*
X131731600Y-68670312D01*
X157894700Y-68670312D01*
X157894700Y-68829687D01*
X157894701Y-68829695D01*
X157935948Y-68983633D01*
X157935952Y-68983642D01*
X158015637Y-69121659D01*
X158015644Y-69121668D01*
X158128331Y-69234355D01*
X158128340Y-69234362D01*
X158266357Y-69314047D01*
X158266360Y-69314048D01*
X158266363Y-69314050D01*
X158266364Y-69314050D01*
X158266366Y-69314051D01*
X158360574Y-69339293D01*
X158420311Y-69355300D01*
X158420312Y-69355300D01*
X158579688Y-69355300D01*
X158579689Y-69355300D01*
X158733637Y-69314050D01*
X158871663Y-69234360D01*
X158984360Y-69121663D01*
X159064050Y-68983637D01*
X159105300Y-68829689D01*
X159105300Y-68670311D01*
X159064050Y-68516363D01*
X158984360Y-68378337D01*
X158984358Y-68378335D01*
X158984355Y-68378331D01*
X158871668Y-68265644D01*
X158871659Y-68265637D01*
X158733642Y-68185952D01*
X158733633Y-68185948D01*
X158579695Y-68144701D01*
X158579690Y-68144700D01*
X158579689Y-68144700D01*
X158420311Y-68144700D01*
X158420310Y-68144700D01*
X158420304Y-68144701D01*
X158266366Y-68185948D01*
X158266357Y-68185952D01*
X158128340Y-68265637D01*
X158128331Y-68265644D01*
X158015644Y-68378331D01*
X158015637Y-68378340D01*
X157935952Y-68516357D01*
X157935948Y-68516366D01*
X157894701Y-68670304D01*
X157894700Y-68670312D01*
X131731600Y-68670312D01*
X131731600Y-64469257D01*
X138967000Y-64469257D01*
X138967000Y-65148000D01*
X139548972Y-65148000D01*
X139525000Y-65237465D01*
X139525000Y-65362535D01*
X139548972Y-65452000D01*
X138967000Y-65452000D01*
X138967000Y-66130742D01*
X139006697Y-66330313D01*
X139084567Y-66518310D01*
X139197616Y-66687498D01*
X139341501Y-66831383D01*
X139510689Y-66944432D01*
X139698685Y-67022301D01*
X139847999Y-67052002D01*
X139848000Y-67052001D01*
X139848000Y-65751028D01*
X139937465Y-65775000D01*
X140062535Y-65775000D01*
X140152000Y-65751028D01*
X140152000Y-67052002D01*
X140301314Y-67022301D01*
X140489310Y-66944432D01*
X140658498Y-66831383D01*
X140802383Y-66687498D01*
X140915432Y-66518310D01*
X140993302Y-66330313D01*
X141032999Y-66130742D01*
X141033000Y-66130742D01*
X141033000Y-65452000D01*
X140451028Y-65452000D01*
X140475000Y-65362535D01*
X140475000Y-65237465D01*
X140451028Y-65148000D01*
X141033000Y-65148000D01*
X141033000Y-64469257D01*
X141032975Y-64469129D01*
X141465700Y-64469129D01*
X141465700Y-66130870D01*
X141505446Y-66330692D01*
X141505447Y-66330695D01*
X141583415Y-66518925D01*
X141583416Y-66518928D01*
X141696605Y-66688327D01*
X141840672Y-66832394D01*
X142010071Y-66945583D01*
X142010073Y-66945583D01*
X142010075Y-66945585D01*
X142198306Y-67023553D01*
X142398130Y-67063300D01*
X142601870Y-67063300D01*
X142801694Y-67023553D01*
X142989925Y-66945585D01*
X143159328Y-66832394D01*
X143303394Y-66688328D01*
X143416585Y-66518925D01*
X143442258Y-66456944D01*
X143476083Y-66423120D01*
X143523918Y-66423121D01*
X143557742Y-66456945D01*
X143583415Y-66518925D01*
X143583416Y-66518928D01*
X143696605Y-66688327D01*
X143840672Y-66832394D01*
X144010071Y-66945583D01*
X144010073Y-66945583D01*
X144010075Y-66945585D01*
X144198306Y-67023553D01*
X144398130Y-67063300D01*
X144601870Y-67063300D01*
X144801694Y-67023553D01*
X144989925Y-66945585D01*
X145159328Y-66832394D01*
X145303394Y-66688328D01*
X145416585Y-66518925D01*
X145494553Y-66330694D01*
X145534300Y-66130870D01*
X145534300Y-64469130D01*
X145534300Y-64469129D01*
X145965700Y-64469129D01*
X145965700Y-66130870D01*
X146005446Y-66330692D01*
X146005447Y-66330695D01*
X146083415Y-66518925D01*
X146083416Y-66518928D01*
X146196605Y-66688327D01*
X146340672Y-66832394D01*
X146510071Y-66945583D01*
X146510073Y-66945583D01*
X146510075Y-66945585D01*
X146698306Y-67023553D01*
X146898130Y-67063300D01*
X147101870Y-67063300D01*
X147301694Y-67023553D01*
X147489925Y-66945585D01*
X147659328Y-66832394D01*
X147803394Y-66688328D01*
X147916585Y-66518925D01*
X147994553Y-66330694D01*
X148034300Y-66130870D01*
X148034300Y-64997273D01*
X152844700Y-64997273D01*
X152844700Y-65202726D01*
X152844701Y-65202742D01*
X152876840Y-65405655D01*
X152876840Y-65405656D01*
X152940331Y-65601062D01*
X152940332Y-65601064D01*
X153033610Y-65784129D01*
X153154374Y-65950348D01*
X153299651Y-66095625D01*
X153299654Y-66095627D01*
X153465874Y-66216392D01*
X153648939Y-66309669D01*
X153844342Y-66373159D01*
X153929867Y-66386705D01*
X154047257Y-66405298D01*
X154047263Y-66405298D01*
X154047271Y-66405300D01*
X154047273Y-66405300D01*
X154252727Y-66405300D01*
X154252729Y-66405300D01*
X154455658Y-66373159D01*
X154651061Y-66309669D01*
X154834126Y-66216392D01*
X155000346Y-66095627D01*
X155145627Y-65950346D01*
X155266392Y-65784126D01*
X155359669Y-65601061D01*
X155423159Y-65405658D01*
X155455300Y-65202729D01*
X155455300Y-64997273D01*
X159344700Y-64997273D01*
X159344700Y-65202726D01*
X159344701Y-65202742D01*
X159376840Y-65405655D01*
X159376840Y-65405656D01*
X159440331Y-65601062D01*
X159440332Y-65601064D01*
X159533610Y-65784129D01*
X159654374Y-65950348D01*
X159799651Y-66095625D01*
X159799654Y-66095627D01*
X159965874Y-66216392D01*
X160148939Y-66309669D01*
X160344342Y-66373159D01*
X160429867Y-66386705D01*
X160547257Y-66405298D01*
X160547263Y-66405298D01*
X160547271Y-66405300D01*
X160547273Y-66405300D01*
X160752727Y-66405300D01*
X160752729Y-66405300D01*
X160955658Y-66373159D01*
X161151061Y-66309669D01*
X161334126Y-66216392D01*
X161500346Y-66095627D01*
X161645627Y-65950346D01*
X161766392Y-65784126D01*
X161859669Y-65601061D01*
X161923159Y-65405658D01*
X161955300Y-65202729D01*
X161955300Y-64997271D01*
X161923159Y-64794342D01*
X161859669Y-64598939D01*
X161766392Y-64415874D01*
X161693296Y-64315265D01*
X161645625Y-64249651D01*
X161500348Y-64104374D01*
X161334129Y-63983610D01*
X161334128Y-63983609D01*
X161334126Y-63983608D01*
X161247830Y-63939637D01*
X161151064Y-63890332D01*
X161151062Y-63890331D01*
X160955656Y-63826840D01*
X160752742Y-63794701D01*
X160752730Y-63794700D01*
X160752729Y-63794700D01*
X160547271Y-63794700D01*
X160547269Y-63794700D01*
X160547257Y-63794701D01*
X160344344Y-63826840D01*
X160344343Y-63826840D01*
X160148937Y-63890331D01*
X160148935Y-63890332D01*
X159965870Y-63983610D01*
X159799651Y-64104374D01*
X159654374Y-64249651D01*
X159533610Y-64415870D01*
X159440332Y-64598935D01*
X159440331Y-64598937D01*
X159376840Y-64794343D01*
X159376840Y-64794344D01*
X159344701Y-64997257D01*
X159344700Y-64997273D01*
X155455300Y-64997273D01*
X155455300Y-64997271D01*
X155423159Y-64794342D01*
X155359669Y-64598939D01*
X155266392Y-64415874D01*
X155193296Y-64315265D01*
X155145625Y-64249651D01*
X155000348Y-64104374D01*
X154834129Y-63983610D01*
X154834128Y-63983609D01*
X154834126Y-63983608D01*
X154747830Y-63939637D01*
X154651064Y-63890332D01*
X154651062Y-63890331D01*
X154455656Y-63826840D01*
X154252742Y-63794701D01*
X154252730Y-63794700D01*
X154252729Y-63794700D01*
X154047271Y-63794700D01*
X154047269Y-63794700D01*
X154047257Y-63794701D01*
X153844344Y-63826840D01*
X153844343Y-63826840D01*
X153648937Y-63890331D01*
X153648935Y-63890332D01*
X153465870Y-63983610D01*
X153299651Y-64104374D01*
X153154374Y-64249651D01*
X153033610Y-64415870D01*
X152940332Y-64598935D01*
X152940331Y-64598937D01*
X152876840Y-64794343D01*
X152876840Y-64794344D01*
X152844701Y-64997257D01*
X152844700Y-64997273D01*
X148034300Y-64997273D01*
X148034300Y-64469130D01*
X147994553Y-64269306D01*
X147916585Y-64081075D01*
X147916583Y-64081073D01*
X147916583Y-64081071D01*
X147803394Y-63911672D01*
X147659327Y-63767605D01*
X147489928Y-63654416D01*
X147489925Y-63654415D01*
X147301695Y-63576447D01*
X147301692Y-63576446D01*
X147101870Y-63536700D01*
X146898130Y-63536700D01*
X146698307Y-63576446D01*
X146698304Y-63576447D01*
X146510074Y-63654415D01*
X146510071Y-63654416D01*
X146340672Y-63767605D01*
X146196605Y-63911672D01*
X146083416Y-64081071D01*
X146083415Y-64081074D01*
X146005447Y-64269304D01*
X146005446Y-64269307D01*
X145965700Y-64469129D01*
X145534300Y-64469129D01*
X145494553Y-64269306D01*
X145416585Y-64081075D01*
X145416583Y-64081073D01*
X145416583Y-64081071D01*
X145303394Y-63911672D01*
X145159327Y-63767605D01*
X144989928Y-63654416D01*
X144989925Y-63654415D01*
X144801695Y-63576447D01*
X144801692Y-63576446D01*
X144601870Y-63536700D01*
X144398130Y-63536700D01*
X144198307Y-63576446D01*
X144198304Y-63576447D01*
X144010074Y-63654415D01*
X144010071Y-63654416D01*
X143840672Y-63767605D01*
X143696605Y-63911672D01*
X143583416Y-64081071D01*
X143583415Y-64081074D01*
X143557742Y-64143055D01*
X143523917Y-64176880D01*
X143476082Y-64176879D01*
X143442258Y-64143055D01*
X143416585Y-64081075D01*
X143416583Y-64081073D01*
X143416583Y-64081071D01*
X143303394Y-63911672D01*
X143159327Y-63767605D01*
X142989928Y-63654416D01*
X142989925Y-63654415D01*
X142801695Y-63576447D01*
X142801692Y-63576446D01*
X142601870Y-63536700D01*
X142398130Y-63536700D01*
X142198307Y-63576446D01*
X142198304Y-63576447D01*
X142010074Y-63654415D01*
X142010071Y-63654416D01*
X141840672Y-63767605D01*
X141696605Y-63911672D01*
X141583416Y-64081071D01*
X141583415Y-64081074D01*
X141505447Y-64269304D01*
X141505446Y-64269307D01*
X141465700Y-64469129D01*
X141032975Y-64469129D01*
X140993302Y-64269686D01*
X140915432Y-64081689D01*
X140802383Y-63912501D01*
X140658498Y-63768616D01*
X140489310Y-63655567D01*
X140301313Y-63577697D01*
X140152000Y-63547997D01*
X140152000Y-64848971D01*
X140062535Y-64825000D01*
X139937465Y-64825000D01*
X139848000Y-64848971D01*
X139848000Y-63547997D01*
X139847999Y-63547997D01*
X139698686Y-63577697D01*
X139510689Y-63655567D01*
X139341501Y-63768616D01*
X139197616Y-63912501D01*
X139084567Y-64081689D01*
X139006697Y-64269686D01*
X138967000Y-64469257D01*
X131731600Y-64469257D01*
X131731600Y-62474947D01*
X135174700Y-62474947D01*
X135174700Y-62705052D01*
X135204734Y-62933179D01*
X135204734Y-62933181D01*
X135264283Y-63155421D01*
X135264289Y-63155439D01*
X135352339Y-63368009D01*
X135352342Y-63368015D01*
X135467390Y-63567285D01*
X135607464Y-63749833D01*
X135770167Y-63912536D01*
X135952715Y-64052610D01*
X136151985Y-64167658D01*
X136364567Y-64255713D01*
X136364577Y-64255715D01*
X136364578Y-64255716D01*
X136415289Y-64269304D01*
X136586823Y-64315266D01*
X136814952Y-64345300D01*
X136814958Y-64345300D01*
X137045042Y-64345300D01*
X137045048Y-64345300D01*
X137273177Y-64315266D01*
X137495433Y-64255713D01*
X137708015Y-64167658D01*
X137907285Y-64052610D01*
X138089833Y-63912536D01*
X138252536Y-63749833D01*
X138392610Y-63567285D01*
X138507658Y-63368015D01*
X138595713Y-63155433D01*
X138655266Y-62933177D01*
X138685300Y-62705048D01*
X138685300Y-62474952D01*
X138685299Y-62474947D01*
X148314700Y-62474947D01*
X148314700Y-62705052D01*
X148344734Y-62933179D01*
X148344734Y-62933181D01*
X148404283Y-63155421D01*
X148404289Y-63155439D01*
X148492339Y-63368009D01*
X148492342Y-63368015D01*
X148607390Y-63567285D01*
X148747464Y-63749833D01*
X148910167Y-63912536D01*
X149092715Y-64052610D01*
X149291985Y-64167658D01*
X149504567Y-64255713D01*
X149504577Y-64255715D01*
X149504578Y-64255716D01*
X149555289Y-64269304D01*
X149726823Y-64315266D01*
X149954952Y-64345300D01*
X149954958Y-64345300D01*
X150185042Y-64345300D01*
X150185048Y-64345300D01*
X150413177Y-64315266D01*
X150635433Y-64255713D01*
X150848015Y-64167658D01*
X151047285Y-64052610D01*
X151229833Y-63912536D01*
X151392536Y-63749833D01*
X151532610Y-63567285D01*
X151647658Y-63368015D01*
X151735713Y-63155433D01*
X151795266Y-62933177D01*
X151825300Y-62705048D01*
X151825300Y-62474952D01*
X151795266Y-62246823D01*
X151735713Y-62024567D01*
X151647658Y-61811985D01*
X151532610Y-61612715D01*
X151392536Y-61430167D01*
X151229833Y-61267464D01*
X151047285Y-61127390D01*
X150896111Y-61040110D01*
X150848021Y-61012345D01*
X150848009Y-61012339D01*
X150635439Y-60924289D01*
X150635421Y-60924283D01*
X150413180Y-60864734D01*
X150185052Y-60834700D01*
X150185048Y-60834700D01*
X149954952Y-60834700D01*
X149954947Y-60834700D01*
X149726820Y-60864734D01*
X149726818Y-60864734D01*
X149504578Y-60924283D01*
X149504560Y-60924289D01*
X149291990Y-61012339D01*
X149291978Y-61012345D01*
X149092721Y-61127386D01*
X149092718Y-61127388D01*
X149092715Y-61127390D01*
X148995886Y-61201688D01*
X148910165Y-61267465D01*
X148747465Y-61430165D01*
X148681688Y-61515886D01*
X148607390Y-61612715D01*
X148607388Y-61612718D01*
X148607386Y-61612721D01*
X148492345Y-61811978D01*
X148492339Y-61811990D01*
X148404289Y-62024560D01*
X148404283Y-62024578D01*
X148344734Y-62246818D01*
X148344734Y-62246820D01*
X148314700Y-62474947D01*
X138685299Y-62474947D01*
X138655266Y-62246823D01*
X138595713Y-62024567D01*
X138507658Y-61811985D01*
X138392610Y-61612715D01*
X138252536Y-61430167D01*
X138089833Y-61267464D01*
X137907285Y-61127390D01*
X137756111Y-61040110D01*
X137708021Y-61012345D01*
X137708009Y-61012339D01*
X137495439Y-60924289D01*
X137495421Y-60924283D01*
X137273180Y-60864734D01*
X137045052Y-60834700D01*
X137045048Y-60834700D01*
X136814952Y-60834700D01*
X136814947Y-60834700D01*
X136586820Y-60864734D01*
X136586818Y-60864734D01*
X136364578Y-60924283D01*
X136364560Y-60924289D01*
X136151990Y-61012339D01*
X136151978Y-61012345D01*
X135952721Y-61127386D01*
X135952718Y-61127388D01*
X135952715Y-61127390D01*
X135855886Y-61201688D01*
X135770165Y-61267465D01*
X135607465Y-61430165D01*
X135541688Y-61515886D01*
X135467390Y-61612715D01*
X135467388Y-61612718D01*
X135467386Y-61612721D01*
X135352345Y-61811978D01*
X135352339Y-61811990D01*
X135264289Y-62024560D01*
X135264283Y-62024578D01*
X135204734Y-62246818D01*
X135204734Y-62246820D01*
X135174700Y-62474947D01*
X131731600Y-62474947D01*
X131731600Y-60497375D01*
X152846000Y-60497375D01*
X152846000Y-60702624D01*
X152846001Y-60702640D01*
X152878108Y-60905351D01*
X152878108Y-60905352D01*
X152941535Y-61100560D01*
X152941539Y-61100568D01*
X153034718Y-61283442D01*
X153125982Y-61409056D01*
X153668690Y-60866347D01*
X153709890Y-60937708D01*
X153812292Y-61040110D01*
X153883650Y-61081308D01*
X153340941Y-61624017D01*
X153466552Y-61715279D01*
X153649431Y-61808460D01*
X153649439Y-61808464D01*
X153844647Y-61871891D01*
X154047359Y-61903998D01*
X154047375Y-61904000D01*
X154252625Y-61904000D01*
X154252640Y-61903998D01*
X154455351Y-61871891D01*
X154455352Y-61871891D01*
X154650560Y-61808464D01*
X154650568Y-61808460D01*
X154833447Y-61715279D01*
X154959057Y-61624017D01*
X154416348Y-61081308D01*
X154487708Y-61040110D01*
X154590110Y-60937708D01*
X154631308Y-60866348D01*
X155174017Y-61409057D01*
X155265279Y-61283447D01*
X155358460Y-61100568D01*
X155358464Y-61100560D01*
X155421891Y-60905352D01*
X155421891Y-60905351D01*
X155453998Y-60702640D01*
X155454000Y-60702624D01*
X155454000Y-60497375D01*
X159346000Y-60497375D01*
X159346000Y-60702624D01*
X159346001Y-60702640D01*
X159378108Y-60905351D01*
X159378108Y-60905352D01*
X159441535Y-61100560D01*
X159441539Y-61100568D01*
X159534718Y-61283442D01*
X159625982Y-61409056D01*
X160168690Y-60866347D01*
X160209890Y-60937708D01*
X160312292Y-61040110D01*
X160383650Y-61081308D01*
X159840941Y-61624017D01*
X159966552Y-61715279D01*
X160149431Y-61808460D01*
X160149439Y-61808464D01*
X160344647Y-61871891D01*
X160547359Y-61903998D01*
X160547375Y-61904000D01*
X160752625Y-61904000D01*
X160752640Y-61903998D01*
X160955351Y-61871891D01*
X160955352Y-61871891D01*
X161150560Y-61808464D01*
X161150568Y-61808460D01*
X161333447Y-61715279D01*
X161459057Y-61624017D01*
X160916348Y-61081308D01*
X160987708Y-61040110D01*
X161090110Y-60937708D01*
X161131308Y-60866348D01*
X161674017Y-61409057D01*
X161765279Y-61283447D01*
X161858460Y-61100568D01*
X161858464Y-61100560D01*
X161921891Y-60905352D01*
X161921891Y-60905351D01*
X161953998Y-60702640D01*
X161954000Y-60702624D01*
X161954000Y-60497375D01*
X161953998Y-60497359D01*
X161921891Y-60294648D01*
X161921891Y-60294647D01*
X161858464Y-60099439D01*
X161858460Y-60099431D01*
X161765279Y-59916552D01*
X161674017Y-59790941D01*
X161131308Y-60333650D01*
X161090110Y-60262292D01*
X160987708Y-60159890D01*
X160916347Y-60118690D01*
X161459056Y-59575982D01*
X161333442Y-59484718D01*
X161150568Y-59391539D01*
X161150560Y-59391535D01*
X160955352Y-59328108D01*
X160752640Y-59296001D01*
X160752625Y-59296000D01*
X160547375Y-59296000D01*
X160547359Y-59296001D01*
X160344648Y-59328108D01*
X160344647Y-59328108D01*
X160149439Y-59391535D01*
X160149431Y-59391539D01*
X159966553Y-59484719D01*
X159840941Y-59575981D01*
X160383651Y-60118691D01*
X160312292Y-60159890D01*
X160209890Y-60262292D01*
X160168691Y-60333651D01*
X159625981Y-59790941D01*
X159534719Y-59916553D01*
X159441539Y-60099431D01*
X159441535Y-60099439D01*
X159378108Y-60294647D01*
X159378108Y-60294648D01*
X159346001Y-60497359D01*
X159346000Y-60497375D01*
X155454000Y-60497375D01*
X155453998Y-60497359D01*
X155421891Y-60294648D01*
X155421891Y-60294647D01*
X155358464Y-60099439D01*
X155358460Y-60099431D01*
X155265279Y-59916552D01*
X155174017Y-59790941D01*
X154631308Y-60333650D01*
X154590110Y-60262292D01*
X154487708Y-60159890D01*
X154416347Y-60118690D01*
X154959056Y-59575982D01*
X154833442Y-59484718D01*
X154650568Y-59391539D01*
X154650560Y-59391535D01*
X154455352Y-59328108D01*
X154252640Y-59296001D01*
X154252625Y-59296000D01*
X154047375Y-59296000D01*
X154047359Y-59296001D01*
X153844648Y-59328108D01*
X153844647Y-59328108D01*
X153649439Y-59391535D01*
X153649431Y-59391539D01*
X153466553Y-59484719D01*
X153340941Y-59575981D01*
X153883651Y-60118691D01*
X153812292Y-60159890D01*
X153709890Y-60262292D01*
X153668691Y-60333651D01*
X153125981Y-59790941D01*
X153034719Y-59916553D01*
X152941539Y-60099431D01*
X152941535Y-60099439D01*
X152878108Y-60294647D01*
X152878108Y-60294648D01*
X152846001Y-60497359D01*
X152846000Y-60497375D01*
X131731600Y-60497375D01*
X131731600Y-56782680D01*
X133916500Y-56782680D01*
X133916500Y-56917319D01*
X133942766Y-57049368D01*
X133994290Y-57173760D01*
X134069090Y-57285705D01*
X134164294Y-57380909D01*
X134276239Y-57455709D01*
X134276240Y-57455709D01*
X134276241Y-57455710D01*
X134400630Y-57507233D01*
X134532681Y-57533500D01*
X134667319Y-57533500D01*
X134799370Y-57507233D01*
X134923759Y-57455710D01*
X135035706Y-57380909D01*
X135130909Y-57285706D01*
X135205710Y-57173759D01*
X135257233Y-57049370D01*
X135283500Y-56917319D01*
X135283500Y-56782681D01*
X135257233Y-56650630D01*
X135205710Y-56526241D01*
X135130909Y-56414294D01*
X135035706Y-56319091D01*
X135035705Y-56319090D01*
X134923760Y-56244290D01*
X134799368Y-56192766D01*
X134667319Y-56166500D01*
X134532681Y-56166500D01*
X134400631Y-56192766D01*
X134276239Y-56244290D01*
X134164294Y-56319090D01*
X134069090Y-56414294D01*
X133994290Y-56526239D01*
X133942766Y-56650631D01*
X133916500Y-56782680D01*
X131731600Y-56782680D01*
X131731600Y-55566600D01*
X131749906Y-55522406D01*
X131794100Y-55504100D01*
X163486154Y-55504100D01*
X163530348Y-55522406D01*
G37*
%TD.AperFunction*%
%TD*%
M02*
