%TF.GenerationSoftware,KiCad,Pcbnew,9.0.7*%
%TF.CreationDate,2026-03-24T21:51:23+00:00*%
%TF.ProjectId,wmk,776d6b2e-6b69-4636-9164-5f7063625858,rev?*%
%TF.SameCoordinates,Original*%
%TF.FileFunction,Legend,Top*%
%TF.FilePolarity,Positive*%
%FSLAX46Y46*%
G04 Gerber Fmt 4.6, Leading zero omitted, Abs format (unit mm)*
G04 Created by KiCad (PCBNEW 9.0.7) date 2026-03-24 21:51:23*
%MOMM*%
%LPD*%
G01*
G04 APERTURE LIST*
%ADD10C,0.152400*%
%ADD11C,0.162560*%
%ADD12C,0.125000*%
%ADD13C,0.304800*%
%ADD14C,0.150000*%
%ADD15C,0.083185*%
%ADD16C,0.032512*%
%ADD17C,0.093472*%
%ADD18C,0.120000*%
%ADD19C,0.254000*%
%ADD20C,0.050800*%
%ADD21C,0.063400*%
%ADD22C,0.203200*%
G04 APERTURE END LIST*
D10*
X136789720Y-68091851D02*
X136518786Y-68091851D01*
X136518786Y-68517603D02*
X136518786Y-67704803D01*
X136518786Y-67704803D02*
X136905834Y-67704803D01*
X137215472Y-68517603D02*
X137215472Y-67704803D01*
X137215472Y-67704803D02*
X137525110Y-67704803D01*
X137525110Y-67704803D02*
X137602520Y-67743508D01*
X137602520Y-67743508D02*
X137641225Y-67782213D01*
X137641225Y-67782213D02*
X137679929Y-67859622D01*
X137679929Y-67859622D02*
X137679929Y-67975737D01*
X137679929Y-67975737D02*
X137641225Y-68053146D01*
X137641225Y-68053146D02*
X137602520Y-68091851D01*
X137602520Y-68091851D02*
X137525110Y-68130556D01*
X137525110Y-68130556D02*
X137215472Y-68130556D01*
X138028272Y-67704803D02*
X138028272Y-68362784D01*
X138028272Y-68362784D02*
X138066977Y-68440194D01*
X138066977Y-68440194D02*
X138105682Y-68478899D01*
X138105682Y-68478899D02*
X138183091Y-68517603D01*
X138183091Y-68517603D02*
X138337910Y-68517603D01*
X138337910Y-68517603D02*
X138415320Y-68478899D01*
X138415320Y-68478899D02*
X138454025Y-68440194D01*
X138454025Y-68440194D02*
X138492729Y-68362784D01*
X138492729Y-68362784D02*
X138492729Y-67704803D01*
X139499053Y-68517603D02*
X139499053Y-67704803D01*
X139886101Y-67975737D02*
X139886101Y-68517603D01*
X139886101Y-68053146D02*
X139924806Y-68014441D01*
X139924806Y-68014441D02*
X140002216Y-67975737D01*
X140002216Y-67975737D02*
X140118330Y-67975737D01*
X140118330Y-67975737D02*
X140195739Y-68014441D01*
X140195739Y-68014441D02*
X140234444Y-68091851D01*
X140234444Y-68091851D02*
X140234444Y-68517603D01*
X140969834Y-68478899D02*
X140892425Y-68517603D01*
X140892425Y-68517603D02*
X140737606Y-68517603D01*
X140737606Y-68517603D02*
X140660196Y-68478899D01*
X140660196Y-68478899D02*
X140621491Y-68440194D01*
X140621491Y-68440194D02*
X140582787Y-68362784D01*
X140582787Y-68362784D02*
X140582787Y-68130556D01*
X140582787Y-68130556D02*
X140621491Y-68053146D01*
X140621491Y-68053146D02*
X140660196Y-68014441D01*
X140660196Y-68014441D02*
X140737606Y-67975737D01*
X140737606Y-67975737D02*
X140892425Y-67975737D01*
X140892425Y-67975737D02*
X140969834Y-68014441D01*
X141434292Y-68517603D02*
X141356882Y-68478899D01*
X141356882Y-68478899D02*
X141318177Y-68401489D01*
X141318177Y-68401489D02*
X141318177Y-67704803D01*
X142092272Y-67975737D02*
X142092272Y-68517603D01*
X141743929Y-67975737D02*
X141743929Y-68401489D01*
X141743929Y-68401489D02*
X141782634Y-68478899D01*
X141782634Y-68478899D02*
X141860044Y-68517603D01*
X141860044Y-68517603D02*
X141976158Y-68517603D01*
X141976158Y-68517603D02*
X142053567Y-68478899D01*
X142053567Y-68478899D02*
X142092272Y-68440194D01*
X142827662Y-68517603D02*
X142827662Y-67704803D01*
X142827662Y-68478899D02*
X142750253Y-68517603D01*
X142750253Y-68517603D02*
X142595434Y-68517603D01*
X142595434Y-68517603D02*
X142518024Y-68478899D01*
X142518024Y-68478899D02*
X142479319Y-68440194D01*
X142479319Y-68440194D02*
X142440615Y-68362784D01*
X142440615Y-68362784D02*
X142440615Y-68130556D01*
X142440615Y-68130556D02*
X142479319Y-68053146D01*
X142479319Y-68053146D02*
X142518024Y-68014441D01*
X142518024Y-68014441D02*
X142595434Y-67975737D01*
X142595434Y-67975737D02*
X142750253Y-67975737D01*
X142750253Y-67975737D02*
X142827662Y-68014441D01*
X143524347Y-68478899D02*
X143446938Y-68517603D01*
X143446938Y-68517603D02*
X143292119Y-68517603D01*
X143292119Y-68517603D02*
X143214709Y-68478899D01*
X143214709Y-68478899D02*
X143176005Y-68401489D01*
X143176005Y-68401489D02*
X143176005Y-68091851D01*
X143176005Y-68091851D02*
X143214709Y-68014441D01*
X143214709Y-68014441D02*
X143292119Y-67975737D01*
X143292119Y-67975737D02*
X143446938Y-67975737D01*
X143446938Y-67975737D02*
X143524347Y-68014441D01*
X143524347Y-68014441D02*
X143563052Y-68091851D01*
X143563052Y-68091851D02*
X143563052Y-68169260D01*
X143563052Y-68169260D02*
X143176005Y-68246670D01*
X144259738Y-68517603D02*
X144259738Y-67704803D01*
X144259738Y-68478899D02*
X144182329Y-68517603D01*
X144182329Y-68517603D02*
X144027510Y-68517603D01*
X144027510Y-68517603D02*
X143950100Y-68478899D01*
X143950100Y-68478899D02*
X143911395Y-68440194D01*
X143911395Y-68440194D02*
X143872691Y-68362784D01*
X143872691Y-68362784D02*
X143872691Y-68130556D01*
X143872691Y-68130556D02*
X143911395Y-68053146D01*
X143911395Y-68053146D02*
X143950100Y-68014441D01*
X143950100Y-68014441D02*
X144027510Y-67975737D01*
X144027510Y-67975737D02*
X144182329Y-67975737D01*
X144182329Y-67975737D02*
X144259738Y-68014441D01*
X144646785Y-68440194D02*
X144685490Y-68478899D01*
X144685490Y-68478899D02*
X144646785Y-68517603D01*
X144646785Y-68517603D02*
X144608081Y-68478899D01*
X144608081Y-68478899D02*
X144646785Y-68440194D01*
X144646785Y-68440194D02*
X144646785Y-68517603D01*
D11*
X160800470Y-95542074D02*
X160800470Y-94729274D01*
X160800470Y-94729274D02*
X160993994Y-94729274D01*
X160993994Y-94729274D02*
X161110108Y-94767979D01*
X161110108Y-94767979D02*
X161187518Y-94845389D01*
X161187518Y-94845389D02*
X161226223Y-94922798D01*
X161226223Y-94922798D02*
X161264927Y-95077617D01*
X161264927Y-95077617D02*
X161264927Y-95193731D01*
X161264927Y-95193731D02*
X161226223Y-95348550D01*
X161226223Y-95348550D02*
X161187518Y-95425960D01*
X161187518Y-95425960D02*
X161110108Y-95503370D01*
X161110108Y-95503370D02*
X160993994Y-95542074D01*
X160993994Y-95542074D02*
X160800470Y-95542074D01*
X161613270Y-95542074D02*
X161613270Y-94729274D01*
X162155137Y-94729274D02*
X162309956Y-94729274D01*
X162309956Y-94729274D02*
X162387366Y-94767979D01*
X162387366Y-94767979D02*
X162464775Y-94845389D01*
X162464775Y-94845389D02*
X162503480Y-95000208D01*
X162503480Y-95000208D02*
X162503480Y-95271141D01*
X162503480Y-95271141D02*
X162464775Y-95425960D01*
X162464775Y-95425960D02*
X162387366Y-95503370D01*
X162387366Y-95503370D02*
X162309956Y-95542074D01*
X162309956Y-95542074D02*
X162155137Y-95542074D01*
X162155137Y-95542074D02*
X162077728Y-95503370D01*
X162077728Y-95503370D02*
X162000318Y-95425960D01*
X162000318Y-95425960D02*
X161961614Y-95271141D01*
X161961614Y-95271141D02*
X161961614Y-95000208D01*
X161961614Y-95000208D02*
X162000318Y-94845389D01*
X162000318Y-94845389D02*
X162077728Y-94767979D01*
X162077728Y-94767979D02*
X162155137Y-94729274D01*
D12*
X133195331Y-118531343D02*
X133195331Y-117531343D01*
X133195331Y-117531343D02*
X133433426Y-117531343D01*
X133433426Y-117531343D02*
X133576283Y-117578962D01*
X133576283Y-117578962D02*
X133671521Y-117674200D01*
X133671521Y-117674200D02*
X133719140Y-117769438D01*
X133719140Y-117769438D02*
X133766759Y-117959914D01*
X133766759Y-117959914D02*
X133766759Y-118102771D01*
X133766759Y-118102771D02*
X133719140Y-118293247D01*
X133719140Y-118293247D02*
X133671521Y-118388485D01*
X133671521Y-118388485D02*
X133576283Y-118483724D01*
X133576283Y-118483724D02*
X133433426Y-118531343D01*
X133433426Y-118531343D02*
X133195331Y-118531343D01*
X134147712Y-118245628D02*
X134623902Y-118245628D01*
X134052474Y-118531343D02*
X134385807Y-117531343D01*
X134385807Y-117531343D02*
X134719140Y-118531343D01*
X134909617Y-117531343D02*
X135481045Y-117531343D01*
X135195331Y-118531343D02*
X135195331Y-117531343D01*
X135766760Y-118245628D02*
X136242950Y-118245628D01*
X135671522Y-118531343D02*
X136004855Y-117531343D01*
X136004855Y-117531343D02*
X136338188Y-118531343D01*
X138766760Y-118436104D02*
X138719141Y-118483724D01*
X138719141Y-118483724D02*
X138576284Y-118531343D01*
X138576284Y-118531343D02*
X138481046Y-118531343D01*
X138481046Y-118531343D02*
X138338189Y-118483724D01*
X138338189Y-118483724D02*
X138242951Y-118388485D01*
X138242951Y-118388485D02*
X138195332Y-118293247D01*
X138195332Y-118293247D02*
X138147713Y-118102771D01*
X138147713Y-118102771D02*
X138147713Y-117959914D01*
X138147713Y-117959914D02*
X138195332Y-117769438D01*
X138195332Y-117769438D02*
X138242951Y-117674200D01*
X138242951Y-117674200D02*
X138338189Y-117578962D01*
X138338189Y-117578962D02*
X138481046Y-117531343D01*
X138481046Y-117531343D02*
X138576284Y-117531343D01*
X138576284Y-117531343D02*
X138719141Y-117578962D01*
X138719141Y-117578962D02*
X138766760Y-117626581D01*
X139671522Y-118531343D02*
X139195332Y-118531343D01*
X139195332Y-118531343D02*
X139195332Y-117531343D01*
X140195332Y-117531343D02*
X140385808Y-117531343D01*
X140385808Y-117531343D02*
X140481046Y-117578962D01*
X140481046Y-117578962D02*
X140576284Y-117674200D01*
X140576284Y-117674200D02*
X140623903Y-117864676D01*
X140623903Y-117864676D02*
X140623903Y-118198009D01*
X140623903Y-118198009D02*
X140576284Y-118388485D01*
X140576284Y-118388485D02*
X140481046Y-118483724D01*
X140481046Y-118483724D02*
X140385808Y-118531343D01*
X140385808Y-118531343D02*
X140195332Y-118531343D01*
X140195332Y-118531343D02*
X140100094Y-118483724D01*
X140100094Y-118483724D02*
X140004856Y-118388485D01*
X140004856Y-118388485D02*
X139957237Y-118198009D01*
X139957237Y-118198009D02*
X139957237Y-117864676D01*
X139957237Y-117864676D02*
X140004856Y-117674200D01*
X140004856Y-117674200D02*
X140100094Y-117578962D01*
X140100094Y-117578962D02*
X140195332Y-117531343D01*
X141623903Y-118436104D02*
X141576284Y-118483724D01*
X141576284Y-118483724D02*
X141433427Y-118531343D01*
X141433427Y-118531343D02*
X141338189Y-118531343D01*
X141338189Y-118531343D02*
X141195332Y-118483724D01*
X141195332Y-118483724D02*
X141100094Y-118388485D01*
X141100094Y-118388485D02*
X141052475Y-118293247D01*
X141052475Y-118293247D02*
X141004856Y-118102771D01*
X141004856Y-118102771D02*
X141004856Y-117959914D01*
X141004856Y-117959914D02*
X141052475Y-117769438D01*
X141052475Y-117769438D02*
X141100094Y-117674200D01*
X141100094Y-117674200D02*
X141195332Y-117578962D01*
X141195332Y-117578962D02*
X141338189Y-117531343D01*
X141338189Y-117531343D02*
X141433427Y-117531343D01*
X141433427Y-117531343D02*
X141576284Y-117578962D01*
X141576284Y-117578962D02*
X141623903Y-117626581D01*
X142052475Y-118531343D02*
X142052475Y-117531343D01*
X142623903Y-118531343D02*
X142195332Y-117959914D01*
X142623903Y-117531343D02*
X142052475Y-118102771D01*
X133195331Y-120141287D02*
X133195331Y-119141287D01*
X134242949Y-120141287D02*
X133909616Y-119665096D01*
X133671521Y-120141287D02*
X133671521Y-119141287D01*
X133671521Y-119141287D02*
X134052473Y-119141287D01*
X134052473Y-119141287D02*
X134147711Y-119188906D01*
X134147711Y-119188906D02*
X134195330Y-119236525D01*
X134195330Y-119236525D02*
X134242949Y-119331763D01*
X134242949Y-119331763D02*
X134242949Y-119474620D01*
X134242949Y-119474620D02*
X134195330Y-119569858D01*
X134195330Y-119569858D02*
X134147711Y-119617477D01*
X134147711Y-119617477D02*
X134052473Y-119665096D01*
X134052473Y-119665096D02*
X133671521Y-119665096D01*
X135338187Y-120236525D02*
X135242949Y-120188906D01*
X135242949Y-120188906D02*
X135147711Y-120093668D01*
X135147711Y-120093668D02*
X135004854Y-119950810D01*
X135004854Y-119950810D02*
X134909616Y-119903191D01*
X134909616Y-119903191D02*
X134814378Y-119903191D01*
X134861997Y-120141287D02*
X134766759Y-120093668D01*
X134766759Y-120093668D02*
X134671521Y-119998429D01*
X134671521Y-119998429D02*
X134623902Y-119807953D01*
X134623902Y-119807953D02*
X134623902Y-119474620D01*
X134623902Y-119474620D02*
X134671521Y-119284144D01*
X134671521Y-119284144D02*
X134766759Y-119188906D01*
X134766759Y-119188906D02*
X134861997Y-119141287D01*
X134861997Y-119141287D02*
X135052473Y-119141287D01*
X135052473Y-119141287D02*
X135147711Y-119188906D01*
X135147711Y-119188906D02*
X135242949Y-119284144D01*
X135242949Y-119284144D02*
X135290568Y-119474620D01*
X135290568Y-119474620D02*
X135290568Y-119807953D01*
X135290568Y-119807953D02*
X135242949Y-119998429D01*
X135242949Y-119998429D02*
X135147711Y-120093668D01*
X135147711Y-120093668D02*
X135052473Y-120141287D01*
X135052473Y-120141287D02*
X134861997Y-120141287D01*
X135623902Y-119141287D02*
X136290568Y-119141287D01*
X136290568Y-119141287D02*
X135861997Y-120141287D01*
X138766759Y-120141287D02*
X138433426Y-119665096D01*
X138195331Y-120141287D02*
X138195331Y-119141287D01*
X138195331Y-119141287D02*
X138576283Y-119141287D01*
X138576283Y-119141287D02*
X138671521Y-119188906D01*
X138671521Y-119188906D02*
X138719140Y-119236525D01*
X138719140Y-119236525D02*
X138766759Y-119331763D01*
X138766759Y-119331763D02*
X138766759Y-119474620D01*
X138766759Y-119474620D02*
X138719140Y-119569858D01*
X138719140Y-119569858D02*
X138671521Y-119617477D01*
X138671521Y-119617477D02*
X138576283Y-119665096D01*
X138576283Y-119665096D02*
X138195331Y-119665096D01*
X139195331Y-119617477D02*
X139528664Y-119617477D01*
X139671521Y-120141287D02*
X139195331Y-120141287D01*
X139195331Y-120141287D02*
X139195331Y-119141287D01*
X139195331Y-119141287D02*
X139671521Y-119141287D01*
X140052474Y-120093668D02*
X140195331Y-120141287D01*
X140195331Y-120141287D02*
X140433426Y-120141287D01*
X140433426Y-120141287D02*
X140528664Y-120093668D01*
X140528664Y-120093668D02*
X140576283Y-120046048D01*
X140576283Y-120046048D02*
X140623902Y-119950810D01*
X140623902Y-119950810D02*
X140623902Y-119855572D01*
X140623902Y-119855572D02*
X140576283Y-119760334D01*
X140576283Y-119760334D02*
X140528664Y-119712715D01*
X140528664Y-119712715D02*
X140433426Y-119665096D01*
X140433426Y-119665096D02*
X140242950Y-119617477D01*
X140242950Y-119617477D02*
X140147712Y-119569858D01*
X140147712Y-119569858D02*
X140100093Y-119522239D01*
X140100093Y-119522239D02*
X140052474Y-119427001D01*
X140052474Y-119427001D02*
X140052474Y-119331763D01*
X140052474Y-119331763D02*
X140100093Y-119236525D01*
X140100093Y-119236525D02*
X140147712Y-119188906D01*
X140147712Y-119188906D02*
X140242950Y-119141287D01*
X140242950Y-119141287D02*
X140481045Y-119141287D01*
X140481045Y-119141287D02*
X140623902Y-119188906D01*
X141052474Y-119617477D02*
X141385807Y-119617477D01*
X141528664Y-120141287D02*
X141052474Y-120141287D01*
X141052474Y-120141287D02*
X141052474Y-119141287D01*
X141052474Y-119141287D02*
X141528664Y-119141287D01*
X141814379Y-119141287D02*
X142385807Y-119141287D01*
X142100093Y-120141287D02*
X142100093Y-119141287D01*
X133195331Y-121751231D02*
X133195331Y-120751231D01*
X133766759Y-121751231D02*
X133338188Y-121179802D01*
X133766759Y-120751231D02*
X133195331Y-121322659D01*
X134385807Y-120751231D02*
X134481045Y-120751231D01*
X134481045Y-120751231D02*
X134576283Y-120798850D01*
X134576283Y-120798850D02*
X134623902Y-120846469D01*
X134623902Y-120846469D02*
X134671521Y-120941707D01*
X134671521Y-120941707D02*
X134719140Y-121132183D01*
X134719140Y-121132183D02*
X134719140Y-121370278D01*
X134719140Y-121370278D02*
X134671521Y-121560754D01*
X134671521Y-121560754D02*
X134623902Y-121655992D01*
X134623902Y-121655992D02*
X134576283Y-121703612D01*
X134576283Y-121703612D02*
X134481045Y-121751231D01*
X134481045Y-121751231D02*
X134385807Y-121751231D01*
X134385807Y-121751231D02*
X134290569Y-121703612D01*
X134290569Y-121703612D02*
X134242950Y-121655992D01*
X134242950Y-121655992D02*
X134195331Y-121560754D01*
X134195331Y-121560754D02*
X134147712Y-121370278D01*
X134147712Y-121370278D02*
X134147712Y-121132183D01*
X134147712Y-121132183D02*
X134195331Y-120941707D01*
X134195331Y-120941707D02*
X134242950Y-120846469D01*
X134242950Y-120846469D02*
X134290569Y-120798850D01*
X134290569Y-120798850D02*
X134385807Y-120751231D01*
X138719141Y-120798850D02*
X138623903Y-120751231D01*
X138623903Y-120751231D02*
X138481046Y-120751231D01*
X138481046Y-120751231D02*
X138338189Y-120798850D01*
X138338189Y-120798850D02*
X138242951Y-120894088D01*
X138242951Y-120894088D02*
X138195332Y-120989326D01*
X138195332Y-120989326D02*
X138147713Y-121179802D01*
X138147713Y-121179802D02*
X138147713Y-121322659D01*
X138147713Y-121322659D02*
X138195332Y-121513135D01*
X138195332Y-121513135D02*
X138242951Y-121608373D01*
X138242951Y-121608373D02*
X138338189Y-121703612D01*
X138338189Y-121703612D02*
X138481046Y-121751231D01*
X138481046Y-121751231D02*
X138576284Y-121751231D01*
X138576284Y-121751231D02*
X138719141Y-121703612D01*
X138719141Y-121703612D02*
X138766760Y-121655992D01*
X138766760Y-121655992D02*
X138766760Y-121322659D01*
X138766760Y-121322659D02*
X138576284Y-121322659D01*
X139195332Y-121751231D02*
X139195332Y-120751231D01*
X139195332Y-120751231D02*
X139766760Y-121751231D01*
X139766760Y-121751231D02*
X139766760Y-120751231D01*
X140242951Y-121751231D02*
X140242951Y-120751231D01*
X140242951Y-120751231D02*
X140481046Y-120751231D01*
X140481046Y-120751231D02*
X140623903Y-120798850D01*
X140623903Y-120798850D02*
X140719141Y-120894088D01*
X140719141Y-120894088D02*
X140766760Y-120989326D01*
X140766760Y-120989326D02*
X140814379Y-121179802D01*
X140814379Y-121179802D02*
X140814379Y-121322659D01*
X140814379Y-121322659D02*
X140766760Y-121513135D01*
X140766760Y-121513135D02*
X140719141Y-121608373D01*
X140719141Y-121608373D02*
X140623903Y-121703612D01*
X140623903Y-121703612D02*
X140481046Y-121751231D01*
X140481046Y-121751231D02*
X140242951Y-121751231D01*
X133195331Y-123361175D02*
X133195331Y-122361175D01*
X133766759Y-123361175D02*
X133338188Y-122789746D01*
X133766759Y-122361175D02*
X133195331Y-122932603D01*
X134719140Y-123361175D02*
X134147712Y-123361175D01*
X134433426Y-123361175D02*
X134433426Y-122361175D01*
X134433426Y-122361175D02*
X134338188Y-122504032D01*
X134338188Y-122504032D02*
X134242950Y-122599270D01*
X134242950Y-122599270D02*
X134147712Y-122646889D01*
X133766759Y-124971119D02*
X133433426Y-124494928D01*
X133195331Y-124971119D02*
X133195331Y-123971119D01*
X133195331Y-123971119D02*
X133576283Y-123971119D01*
X133576283Y-123971119D02*
X133671521Y-124018738D01*
X133671521Y-124018738D02*
X133719140Y-124066357D01*
X133719140Y-124066357D02*
X133766759Y-124161595D01*
X133766759Y-124161595D02*
X133766759Y-124304452D01*
X133766759Y-124304452D02*
X133719140Y-124399690D01*
X133719140Y-124399690D02*
X133671521Y-124447309D01*
X133671521Y-124447309D02*
X133576283Y-124494928D01*
X133576283Y-124494928D02*
X133195331Y-124494928D01*
X134100093Y-123971119D02*
X134766759Y-124971119D01*
X134766759Y-123971119D02*
X134100093Y-124971119D01*
X138052475Y-123971119D02*
X138623903Y-123971119D01*
X138338189Y-124971119D02*
X138338189Y-123971119D01*
X138861999Y-123971119D02*
X139528665Y-124971119D01*
X139528665Y-123971119D02*
X138861999Y-124971119D01*
D10*
X161130834Y-102554803D02*
X160743786Y-102554803D01*
X160743786Y-102554803D02*
X160705082Y-102941851D01*
X160705082Y-102941851D02*
X160743786Y-102903146D01*
X160743786Y-102903146D02*
X160821196Y-102864441D01*
X160821196Y-102864441D02*
X161014720Y-102864441D01*
X161014720Y-102864441D02*
X161092129Y-102903146D01*
X161092129Y-102903146D02*
X161130834Y-102941851D01*
X161130834Y-102941851D02*
X161169539Y-103019260D01*
X161169539Y-103019260D02*
X161169539Y-103212784D01*
X161169539Y-103212784D02*
X161130834Y-103290194D01*
X161130834Y-103290194D02*
X161092129Y-103328899D01*
X161092129Y-103328899D02*
X161014720Y-103367603D01*
X161014720Y-103367603D02*
X160821196Y-103367603D01*
X160821196Y-103367603D02*
X160743786Y-103328899D01*
X160743786Y-103328899D02*
X160705082Y-103290194D01*
X161401767Y-102554803D02*
X161672700Y-103367603D01*
X161672700Y-103367603D02*
X161943634Y-102554803D01*
D13*
X133609240Y-151397641D02*
X133101240Y-150671927D01*
X132738383Y-151397641D02*
X132738383Y-149873641D01*
X132738383Y-149873641D02*
X133318954Y-149873641D01*
X133318954Y-149873641D02*
X133464097Y-149946212D01*
X133464097Y-149946212D02*
X133536668Y-150018784D01*
X133536668Y-150018784D02*
X133609240Y-150163927D01*
X133609240Y-150163927D02*
X133609240Y-150381641D01*
X133609240Y-150381641D02*
X133536668Y-150526784D01*
X133536668Y-150526784D02*
X133464097Y-150599355D01*
X133464097Y-150599355D02*
X133318954Y-150671927D01*
X133318954Y-150671927D02*
X132738383Y-150671927D01*
X134262383Y-151397641D02*
X134262383Y-149873641D01*
X134915525Y-151325070D02*
X135133240Y-151397641D01*
X135133240Y-151397641D02*
X135496097Y-151397641D01*
X135496097Y-151397641D02*
X135641240Y-151325070D01*
X135641240Y-151325070D02*
X135713811Y-151252498D01*
X135713811Y-151252498D02*
X135786382Y-151107355D01*
X135786382Y-151107355D02*
X135786382Y-150962212D01*
X135786382Y-150962212D02*
X135713811Y-150817070D01*
X135713811Y-150817070D02*
X135641240Y-150744498D01*
X135641240Y-150744498D02*
X135496097Y-150671927D01*
X135496097Y-150671927D02*
X135205811Y-150599355D01*
X135205811Y-150599355D02*
X135060668Y-150526784D01*
X135060668Y-150526784D02*
X134988097Y-150454212D01*
X134988097Y-150454212D02*
X134915525Y-150309070D01*
X134915525Y-150309070D02*
X134915525Y-150163927D01*
X134915525Y-150163927D02*
X134988097Y-150018784D01*
X134988097Y-150018784D02*
X135060668Y-149946212D01*
X135060668Y-149946212D02*
X135205811Y-149873641D01*
X135205811Y-149873641D02*
X135568668Y-149873641D01*
X135568668Y-149873641D02*
X135786382Y-149946212D01*
X136439526Y-151397641D02*
X136439526Y-149873641D01*
X137310383Y-151397641D02*
X136657240Y-150526784D01*
X137310383Y-149873641D02*
X136439526Y-150744498D01*
X138253811Y-150671927D02*
X138253811Y-151397641D01*
X137745811Y-149873641D02*
X138253811Y-150671927D01*
X138253811Y-150671927D02*
X138761811Y-149873641D01*
X140140669Y-151397641D02*
X139632669Y-150671927D01*
X139269812Y-151397641D02*
X139269812Y-149873641D01*
X139269812Y-149873641D02*
X139850383Y-149873641D01*
X139850383Y-149873641D02*
X139995526Y-149946212D01*
X139995526Y-149946212D02*
X140068097Y-150018784D01*
X140068097Y-150018784D02*
X140140669Y-150163927D01*
X140140669Y-150163927D02*
X140140669Y-150381641D01*
X140140669Y-150381641D02*
X140068097Y-150526784D01*
X140068097Y-150526784D02*
X139995526Y-150599355D01*
X139995526Y-150599355D02*
X139850383Y-150671927D01*
X139850383Y-150671927D02*
X139269812Y-150671927D01*
X140793812Y-150599355D02*
X141301812Y-150599355D01*
X141519526Y-151397641D02*
X140793812Y-151397641D01*
X140793812Y-151397641D02*
X140793812Y-149873641D01*
X140793812Y-149873641D02*
X141519526Y-149873641D01*
X142100097Y-150962212D02*
X142825812Y-150962212D01*
X141954954Y-151397641D02*
X142462954Y-149873641D01*
X142462954Y-149873641D02*
X142970954Y-151397641D01*
X144277240Y-151397641D02*
X143406383Y-151397641D01*
X143841812Y-151397641D02*
X143841812Y-149873641D01*
X143841812Y-149873641D02*
X143696669Y-150091355D01*
X143696669Y-150091355D02*
X143551526Y-150236498D01*
X143551526Y-150236498D02*
X143406383Y-150309070D01*
X144857812Y-150018784D02*
X144930384Y-149946212D01*
X144930384Y-149946212D02*
X145075527Y-149873641D01*
X145075527Y-149873641D02*
X145438384Y-149873641D01*
X145438384Y-149873641D02*
X145583527Y-149946212D01*
X145583527Y-149946212D02*
X145656098Y-150018784D01*
X145656098Y-150018784D02*
X145728669Y-150163927D01*
X145728669Y-150163927D02*
X145728669Y-150309070D01*
X145728669Y-150309070D02*
X145656098Y-150526784D01*
X145656098Y-150526784D02*
X144785241Y-151397641D01*
X144785241Y-151397641D02*
X145728669Y-151397641D01*
X146672098Y-149873641D02*
X146817241Y-149873641D01*
X146817241Y-149873641D02*
X146962384Y-149946212D01*
X146962384Y-149946212D02*
X147034956Y-150018784D01*
X147034956Y-150018784D02*
X147107527Y-150163927D01*
X147107527Y-150163927D02*
X147180098Y-150454212D01*
X147180098Y-150454212D02*
X147180098Y-150817070D01*
X147180098Y-150817070D02*
X147107527Y-151107355D01*
X147107527Y-151107355D02*
X147034956Y-151252498D01*
X147034956Y-151252498D02*
X146962384Y-151325070D01*
X146962384Y-151325070D02*
X146817241Y-151397641D01*
X146817241Y-151397641D02*
X146672098Y-151397641D01*
X146672098Y-151397641D02*
X146526956Y-151325070D01*
X146526956Y-151325070D02*
X146454384Y-151252498D01*
X146454384Y-151252498D02*
X146381813Y-151107355D01*
X146381813Y-151107355D02*
X146309241Y-150817070D01*
X146309241Y-150817070D02*
X146309241Y-150454212D01*
X146309241Y-150454212D02*
X146381813Y-150163927D01*
X146381813Y-150163927D02*
X146454384Y-150018784D01*
X146454384Y-150018784D02*
X146526956Y-149946212D01*
X146526956Y-149946212D02*
X146672098Y-149873641D01*
X148123527Y-149873641D02*
X148268670Y-149873641D01*
X148268670Y-149873641D02*
X148413813Y-149946212D01*
X148413813Y-149946212D02*
X148486385Y-150018784D01*
X148486385Y-150018784D02*
X148558956Y-150163927D01*
X148558956Y-150163927D02*
X148631527Y-150454212D01*
X148631527Y-150454212D02*
X148631527Y-150817070D01*
X148631527Y-150817070D02*
X148558956Y-151107355D01*
X148558956Y-151107355D02*
X148486385Y-151252498D01*
X148486385Y-151252498D02*
X148413813Y-151325070D01*
X148413813Y-151325070D02*
X148268670Y-151397641D01*
X148268670Y-151397641D02*
X148123527Y-151397641D01*
X148123527Y-151397641D02*
X147978385Y-151325070D01*
X147978385Y-151325070D02*
X147905813Y-151252498D01*
X147905813Y-151252498D02*
X147833242Y-151107355D01*
X147833242Y-151107355D02*
X147760670Y-150817070D01*
X147760670Y-150817070D02*
X147760670Y-150454212D01*
X147760670Y-150454212D02*
X147833242Y-150163927D01*
X147833242Y-150163927D02*
X147905813Y-150018784D01*
X147905813Y-150018784D02*
X147978385Y-149946212D01*
X147978385Y-149946212D02*
X148123527Y-149873641D01*
D12*
X133070331Y-92956343D02*
X133070331Y-91956343D01*
X133070331Y-91956343D02*
X133403664Y-92670628D01*
X133403664Y-92670628D02*
X133736997Y-91956343D01*
X133736997Y-91956343D02*
X133736997Y-92956343D01*
X134546521Y-92432533D02*
X134689378Y-92480152D01*
X134689378Y-92480152D02*
X134736997Y-92527771D01*
X134736997Y-92527771D02*
X134784616Y-92623009D01*
X134784616Y-92623009D02*
X134784616Y-92765866D01*
X134784616Y-92765866D02*
X134736997Y-92861104D01*
X134736997Y-92861104D02*
X134689378Y-92908724D01*
X134689378Y-92908724D02*
X134594140Y-92956343D01*
X134594140Y-92956343D02*
X134213188Y-92956343D01*
X134213188Y-92956343D02*
X134213188Y-91956343D01*
X134213188Y-91956343D02*
X134546521Y-91956343D01*
X134546521Y-91956343D02*
X134641759Y-92003962D01*
X134641759Y-92003962D02*
X134689378Y-92051581D01*
X134689378Y-92051581D02*
X134736997Y-92146819D01*
X134736997Y-92146819D02*
X134736997Y-92242057D01*
X134736997Y-92242057D02*
X134689378Y-92337295D01*
X134689378Y-92337295D02*
X134641759Y-92384914D01*
X134641759Y-92384914D02*
X134546521Y-92432533D01*
X134546521Y-92432533D02*
X134213188Y-92432533D01*
X133641759Y-94566287D02*
X133308426Y-94090096D01*
X133070331Y-94566287D02*
X133070331Y-93566287D01*
X133070331Y-93566287D02*
X133451283Y-93566287D01*
X133451283Y-93566287D02*
X133546521Y-93613906D01*
X133546521Y-93613906D02*
X133594140Y-93661525D01*
X133594140Y-93661525D02*
X133641759Y-93756763D01*
X133641759Y-93756763D02*
X133641759Y-93899620D01*
X133641759Y-93899620D02*
X133594140Y-93994858D01*
X133594140Y-93994858D02*
X133546521Y-94042477D01*
X133546521Y-94042477D02*
X133451283Y-94090096D01*
X133451283Y-94090096D02*
X133070331Y-94090096D01*
X134070331Y-94566287D02*
X134070331Y-93566287D01*
X135070330Y-93613906D02*
X134975092Y-93566287D01*
X134975092Y-93566287D02*
X134832235Y-93566287D01*
X134832235Y-93566287D02*
X134689378Y-93613906D01*
X134689378Y-93613906D02*
X134594140Y-93709144D01*
X134594140Y-93709144D02*
X134546521Y-93804382D01*
X134546521Y-93804382D02*
X134498902Y-93994858D01*
X134498902Y-93994858D02*
X134498902Y-94137715D01*
X134498902Y-94137715D02*
X134546521Y-94328191D01*
X134546521Y-94328191D02*
X134594140Y-94423429D01*
X134594140Y-94423429D02*
X134689378Y-94518668D01*
X134689378Y-94518668D02*
X134832235Y-94566287D01*
X134832235Y-94566287D02*
X134927473Y-94566287D01*
X134927473Y-94566287D02*
X135070330Y-94518668D01*
X135070330Y-94518668D02*
X135117949Y-94471048D01*
X135117949Y-94471048D02*
X135117949Y-94137715D01*
X135117949Y-94137715D02*
X134927473Y-94137715D01*
X135546521Y-94566287D02*
X135546521Y-93566287D01*
X135546521Y-94042477D02*
X136117949Y-94042477D01*
X136117949Y-94566287D02*
X136117949Y-93566287D01*
X136451283Y-93566287D02*
X137022711Y-93566287D01*
X136736997Y-94566287D02*
X136736997Y-93566287D01*
X139451283Y-94566287D02*
X139117950Y-94090096D01*
X138879855Y-94566287D02*
X138879855Y-93566287D01*
X138879855Y-93566287D02*
X139260807Y-93566287D01*
X139260807Y-93566287D02*
X139356045Y-93613906D01*
X139356045Y-93613906D02*
X139403664Y-93661525D01*
X139403664Y-93661525D02*
X139451283Y-93756763D01*
X139451283Y-93756763D02*
X139451283Y-93899620D01*
X139451283Y-93899620D02*
X139403664Y-93994858D01*
X139403664Y-93994858D02*
X139356045Y-94042477D01*
X139356045Y-94042477D02*
X139260807Y-94090096D01*
X139260807Y-94090096D02*
X138879855Y-94090096D01*
X140213188Y-94042477D02*
X140356045Y-94090096D01*
X140356045Y-94090096D02*
X140403664Y-94137715D01*
X140403664Y-94137715D02*
X140451283Y-94232953D01*
X140451283Y-94232953D02*
X140451283Y-94375810D01*
X140451283Y-94375810D02*
X140403664Y-94471048D01*
X140403664Y-94471048D02*
X140356045Y-94518668D01*
X140356045Y-94518668D02*
X140260807Y-94566287D01*
X140260807Y-94566287D02*
X139879855Y-94566287D01*
X139879855Y-94566287D02*
X139879855Y-93566287D01*
X139879855Y-93566287D02*
X140213188Y-93566287D01*
X140213188Y-93566287D02*
X140308426Y-93613906D01*
X140308426Y-93613906D02*
X140356045Y-93661525D01*
X140356045Y-93661525D02*
X140403664Y-93756763D01*
X140403664Y-93756763D02*
X140403664Y-93852001D01*
X140403664Y-93852001D02*
X140356045Y-93947239D01*
X140356045Y-93947239D02*
X140308426Y-93994858D01*
X140308426Y-93994858D02*
X140213188Y-94042477D01*
X140213188Y-94042477D02*
X139879855Y-94042477D01*
X133546521Y-96176231D02*
X133070331Y-96176231D01*
X133070331Y-96176231D02*
X133070331Y-95176231D01*
X133879855Y-95652421D02*
X134213188Y-95652421D01*
X134356045Y-96176231D02*
X133879855Y-96176231D01*
X133879855Y-96176231D02*
X133879855Y-95176231D01*
X133879855Y-95176231D02*
X134356045Y-95176231D01*
X135117950Y-95652421D02*
X134784617Y-95652421D01*
X134784617Y-96176231D02*
X134784617Y-95176231D01*
X134784617Y-95176231D02*
X135260807Y-95176231D01*
X135498903Y-95176231D02*
X136070331Y-95176231D01*
X135784617Y-96176231D02*
X135784617Y-95176231D01*
X139213189Y-95223850D02*
X139117951Y-95176231D01*
X139117951Y-95176231D02*
X138975094Y-95176231D01*
X138975094Y-95176231D02*
X138832237Y-95223850D01*
X138832237Y-95223850D02*
X138736999Y-95319088D01*
X138736999Y-95319088D02*
X138689380Y-95414326D01*
X138689380Y-95414326D02*
X138641761Y-95604802D01*
X138641761Y-95604802D02*
X138641761Y-95747659D01*
X138641761Y-95747659D02*
X138689380Y-95938135D01*
X138689380Y-95938135D02*
X138736999Y-96033373D01*
X138736999Y-96033373D02*
X138832237Y-96128612D01*
X138832237Y-96128612D02*
X138975094Y-96176231D01*
X138975094Y-96176231D02*
X139070332Y-96176231D01*
X139070332Y-96176231D02*
X139213189Y-96128612D01*
X139213189Y-96128612D02*
X139260808Y-96080992D01*
X139260808Y-96080992D02*
X139260808Y-95747659D01*
X139260808Y-95747659D02*
X139070332Y-95747659D01*
X139689380Y-96176231D02*
X139689380Y-95176231D01*
X139689380Y-95176231D02*
X140260808Y-96176231D01*
X140260808Y-96176231D02*
X140260808Y-95176231D01*
X140736999Y-96176231D02*
X140736999Y-95176231D01*
X140736999Y-95176231D02*
X140975094Y-95176231D01*
X140975094Y-95176231D02*
X141117951Y-95223850D01*
X141117951Y-95223850D02*
X141213189Y-95319088D01*
X141213189Y-95319088D02*
X141260808Y-95414326D01*
X141260808Y-95414326D02*
X141308427Y-95604802D01*
X141308427Y-95604802D02*
X141308427Y-95747659D01*
X141308427Y-95747659D02*
X141260808Y-95938135D01*
X141260808Y-95938135D02*
X141213189Y-96033373D01*
X141213189Y-96033373D02*
X141117951Y-96128612D01*
X141117951Y-96128612D02*
X140975094Y-96176231D01*
X140975094Y-96176231D02*
X140736999Y-96176231D01*
X133070331Y-97786175D02*
X133070331Y-96786175D01*
X133070331Y-96786175D02*
X133308426Y-96786175D01*
X133308426Y-96786175D02*
X133451283Y-96833794D01*
X133451283Y-96833794D02*
X133546521Y-96929032D01*
X133546521Y-96929032D02*
X133594140Y-97024270D01*
X133594140Y-97024270D02*
X133641759Y-97214746D01*
X133641759Y-97214746D02*
X133641759Y-97357603D01*
X133641759Y-97357603D02*
X133594140Y-97548079D01*
X133594140Y-97548079D02*
X133546521Y-97643317D01*
X133546521Y-97643317D02*
X133451283Y-97738556D01*
X133451283Y-97738556D02*
X133308426Y-97786175D01*
X133308426Y-97786175D02*
X133070331Y-97786175D01*
X134260807Y-96786175D02*
X134451283Y-96786175D01*
X134451283Y-96786175D02*
X134546521Y-96833794D01*
X134546521Y-96833794D02*
X134641759Y-96929032D01*
X134641759Y-96929032D02*
X134689378Y-97119508D01*
X134689378Y-97119508D02*
X134689378Y-97452841D01*
X134689378Y-97452841D02*
X134641759Y-97643317D01*
X134641759Y-97643317D02*
X134546521Y-97738556D01*
X134546521Y-97738556D02*
X134451283Y-97786175D01*
X134451283Y-97786175D02*
X134260807Y-97786175D01*
X134260807Y-97786175D02*
X134165569Y-97738556D01*
X134165569Y-97738556D02*
X134070331Y-97643317D01*
X134070331Y-97643317D02*
X134022712Y-97452841D01*
X134022712Y-97452841D02*
X134022712Y-97119508D01*
X134022712Y-97119508D02*
X134070331Y-96929032D01*
X134070331Y-96929032D02*
X134165569Y-96833794D01*
X134165569Y-96833794D02*
X134260807Y-96786175D01*
X135022712Y-96786175D02*
X135260807Y-97786175D01*
X135260807Y-97786175D02*
X135451283Y-97071889D01*
X135451283Y-97071889D02*
X135641759Y-97786175D01*
X135641759Y-97786175D02*
X135879855Y-96786175D01*
X136260807Y-97786175D02*
X136260807Y-96786175D01*
X136260807Y-96786175D02*
X136832235Y-97786175D01*
X136832235Y-97786175D02*
X136832235Y-96786175D01*
X140070331Y-96786175D02*
X139594141Y-96786175D01*
X139594141Y-96786175D02*
X139546522Y-97262365D01*
X139546522Y-97262365D02*
X139594141Y-97214746D01*
X139594141Y-97214746D02*
X139689379Y-97167127D01*
X139689379Y-97167127D02*
X139927474Y-97167127D01*
X139927474Y-97167127D02*
X140022712Y-97214746D01*
X140022712Y-97214746D02*
X140070331Y-97262365D01*
X140070331Y-97262365D02*
X140117950Y-97357603D01*
X140117950Y-97357603D02*
X140117950Y-97595698D01*
X140117950Y-97595698D02*
X140070331Y-97690936D01*
X140070331Y-97690936D02*
X140022712Y-97738556D01*
X140022712Y-97738556D02*
X139927474Y-97786175D01*
X139927474Y-97786175D02*
X139689379Y-97786175D01*
X139689379Y-97786175D02*
X139594141Y-97738556D01*
X139594141Y-97738556D02*
X139546522Y-97690936D01*
X140403665Y-96786175D02*
X140736998Y-97786175D01*
X140736998Y-97786175D02*
X141070331Y-96786175D01*
X133070331Y-98396119D02*
X133070331Y-99205642D01*
X133070331Y-99205642D02*
X133117950Y-99300880D01*
X133117950Y-99300880D02*
X133165569Y-99348500D01*
X133165569Y-99348500D02*
X133260807Y-99396119D01*
X133260807Y-99396119D02*
X133451283Y-99396119D01*
X133451283Y-99396119D02*
X133546521Y-99348500D01*
X133546521Y-99348500D02*
X133594140Y-99300880D01*
X133594140Y-99300880D02*
X133641759Y-99205642D01*
X133641759Y-99205642D02*
X133641759Y-98396119D01*
X134117950Y-99396119D02*
X134117950Y-98396119D01*
X134117950Y-98396119D02*
X134498902Y-98396119D01*
X134498902Y-98396119D02*
X134594140Y-98443738D01*
X134594140Y-98443738D02*
X134641759Y-98491357D01*
X134641759Y-98491357D02*
X134689378Y-98586595D01*
X134689378Y-98586595D02*
X134689378Y-98729452D01*
X134689378Y-98729452D02*
X134641759Y-98824690D01*
X134641759Y-98824690D02*
X134594140Y-98872309D01*
X134594140Y-98872309D02*
X134498902Y-98919928D01*
X134498902Y-98919928D02*
X134117950Y-98919928D01*
X139403665Y-99396119D02*
X138927475Y-99396119D01*
X138927475Y-99396119D02*
X138927475Y-98396119D01*
X140070332Y-98872309D02*
X140213189Y-98919928D01*
X140213189Y-98919928D02*
X140260808Y-98967547D01*
X140260808Y-98967547D02*
X140308427Y-99062785D01*
X140308427Y-99062785D02*
X140308427Y-99205642D01*
X140308427Y-99205642D02*
X140260808Y-99300880D01*
X140260808Y-99300880D02*
X140213189Y-99348500D01*
X140213189Y-99348500D02*
X140117951Y-99396119D01*
X140117951Y-99396119D02*
X139736999Y-99396119D01*
X139736999Y-99396119D02*
X139736999Y-98396119D01*
X139736999Y-98396119D02*
X140070332Y-98396119D01*
X140070332Y-98396119D02*
X140165570Y-98443738D01*
X140165570Y-98443738D02*
X140213189Y-98491357D01*
X140213189Y-98491357D02*
X140260808Y-98586595D01*
X140260808Y-98586595D02*
X140260808Y-98681833D01*
X140260808Y-98681833D02*
X140213189Y-98777071D01*
X140213189Y-98777071D02*
X140165570Y-98824690D01*
X140165570Y-98824690D02*
X140070332Y-98872309D01*
X140070332Y-98872309D02*
X139736999Y-98872309D01*
D10*
X156533243Y-153815194D02*
X156494539Y-153853899D01*
X156494539Y-153853899D02*
X156378424Y-153892603D01*
X156378424Y-153892603D02*
X156301015Y-153892603D01*
X156301015Y-153892603D02*
X156184901Y-153853899D01*
X156184901Y-153853899D02*
X156107491Y-153776489D01*
X156107491Y-153776489D02*
X156068786Y-153699079D01*
X156068786Y-153699079D02*
X156030082Y-153544260D01*
X156030082Y-153544260D02*
X156030082Y-153428146D01*
X156030082Y-153428146D02*
X156068786Y-153273327D01*
X156068786Y-153273327D02*
X156107491Y-153195918D01*
X156107491Y-153195918D02*
X156184901Y-153118508D01*
X156184901Y-153118508D02*
X156301015Y-153079803D01*
X156301015Y-153079803D02*
X156378424Y-153079803D01*
X156378424Y-153079803D02*
X156494539Y-153118508D01*
X156494539Y-153118508D02*
X156533243Y-153157213D01*
X156881586Y-153892603D02*
X156881586Y-153079803D01*
X157229929Y-153892603D02*
X157229929Y-153466851D01*
X157229929Y-153466851D02*
X157191224Y-153389441D01*
X157191224Y-153389441D02*
X157113815Y-153350737D01*
X157113815Y-153350737D02*
X156997701Y-153350737D01*
X156997701Y-153350737D02*
X156920291Y-153389441D01*
X156920291Y-153389441D02*
X156881586Y-153428146D01*
X157926614Y-153853899D02*
X157849205Y-153892603D01*
X157849205Y-153892603D02*
X157694386Y-153892603D01*
X157694386Y-153892603D02*
X157616976Y-153853899D01*
X157616976Y-153853899D02*
X157578272Y-153776489D01*
X157578272Y-153776489D02*
X157578272Y-153466851D01*
X157578272Y-153466851D02*
X157616976Y-153389441D01*
X157616976Y-153389441D02*
X157694386Y-153350737D01*
X157694386Y-153350737D02*
X157849205Y-153350737D01*
X157849205Y-153350737D02*
X157926614Y-153389441D01*
X157926614Y-153389441D02*
X157965319Y-153466851D01*
X157965319Y-153466851D02*
X157965319Y-153544260D01*
X157965319Y-153544260D02*
X157578272Y-153621670D01*
X158662005Y-153853899D02*
X158584596Y-153892603D01*
X158584596Y-153892603D02*
X158429777Y-153892603D01*
X158429777Y-153892603D02*
X158352367Y-153853899D01*
X158352367Y-153853899D02*
X158313662Y-153815194D01*
X158313662Y-153815194D02*
X158274958Y-153737784D01*
X158274958Y-153737784D02*
X158274958Y-153505556D01*
X158274958Y-153505556D02*
X158313662Y-153428146D01*
X158313662Y-153428146D02*
X158352367Y-153389441D01*
X158352367Y-153389441D02*
X158429777Y-153350737D01*
X158429777Y-153350737D02*
X158584596Y-153350737D01*
X158584596Y-153350737D02*
X158662005Y-153389441D01*
X159010348Y-153892603D02*
X159010348Y-153079803D01*
X159087758Y-153582965D02*
X159319986Y-153892603D01*
X159319986Y-153350737D02*
X159010348Y-153660375D01*
X160287605Y-153892603D02*
X160287605Y-153079803D01*
X160287605Y-153079803D02*
X160597243Y-153079803D01*
X160597243Y-153079803D02*
X160674653Y-153118508D01*
X160674653Y-153118508D02*
X160713358Y-153157213D01*
X160713358Y-153157213D02*
X160752062Y-153234622D01*
X160752062Y-153234622D02*
X160752062Y-153350737D01*
X160752062Y-153350737D02*
X160713358Y-153428146D01*
X160713358Y-153428146D02*
X160674653Y-153466851D01*
X160674653Y-153466851D02*
X160597243Y-153505556D01*
X160597243Y-153505556D02*
X160287605Y-153505556D01*
X161061701Y-153853899D02*
X161177815Y-153892603D01*
X161177815Y-153892603D02*
X161371339Y-153892603D01*
X161371339Y-153892603D02*
X161448748Y-153853899D01*
X161448748Y-153853899D02*
X161487453Y-153815194D01*
X161487453Y-153815194D02*
X161526158Y-153737784D01*
X161526158Y-153737784D02*
X161526158Y-153660375D01*
X161526158Y-153660375D02*
X161487453Y-153582965D01*
X161487453Y-153582965D02*
X161448748Y-153544260D01*
X161448748Y-153544260D02*
X161371339Y-153505556D01*
X161371339Y-153505556D02*
X161216520Y-153466851D01*
X161216520Y-153466851D02*
X161139110Y-153428146D01*
X161139110Y-153428146D02*
X161100405Y-153389441D01*
X161100405Y-153389441D02*
X161061701Y-153312032D01*
X161061701Y-153312032D02*
X161061701Y-153234622D01*
X161061701Y-153234622D02*
X161100405Y-153157213D01*
X161100405Y-153157213D02*
X161139110Y-153118508D01*
X161139110Y-153118508D02*
X161216520Y-153079803D01*
X161216520Y-153079803D02*
X161410043Y-153079803D01*
X161410043Y-153079803D02*
X161526158Y-153118508D01*
X161874500Y-153079803D02*
X161874500Y-153737784D01*
X161874500Y-153737784D02*
X161913205Y-153815194D01*
X161913205Y-153815194D02*
X161951910Y-153853899D01*
X161951910Y-153853899D02*
X162029319Y-153892603D01*
X162029319Y-153892603D02*
X162184138Y-153892603D01*
X162184138Y-153892603D02*
X162261548Y-153853899D01*
X162261548Y-153853899D02*
X162300253Y-153815194D01*
X162300253Y-153815194D02*
X162338957Y-153737784D01*
X162338957Y-153737784D02*
X162338957Y-153079803D01*
X160994539Y-99943508D02*
X160917129Y-99904803D01*
X160917129Y-99904803D02*
X160801015Y-99904803D01*
X160801015Y-99904803D02*
X160684901Y-99943508D01*
X160684901Y-99943508D02*
X160607491Y-100020918D01*
X160607491Y-100020918D02*
X160568786Y-100098327D01*
X160568786Y-100098327D02*
X160530082Y-100253146D01*
X160530082Y-100253146D02*
X160530082Y-100369260D01*
X160530082Y-100369260D02*
X160568786Y-100524079D01*
X160568786Y-100524079D02*
X160607491Y-100601489D01*
X160607491Y-100601489D02*
X160684901Y-100678899D01*
X160684901Y-100678899D02*
X160801015Y-100717603D01*
X160801015Y-100717603D02*
X160878424Y-100717603D01*
X160878424Y-100717603D02*
X160994539Y-100678899D01*
X160994539Y-100678899D02*
X161033243Y-100640194D01*
X161033243Y-100640194D02*
X161033243Y-100369260D01*
X161033243Y-100369260D02*
X160878424Y-100369260D01*
X161381586Y-100717603D02*
X161381586Y-99904803D01*
X161381586Y-99904803D02*
X161846043Y-100717603D01*
X161846043Y-100717603D02*
X161846043Y-99904803D01*
X162233091Y-100717603D02*
X162233091Y-99904803D01*
X162233091Y-99904803D02*
X162426615Y-99904803D01*
X162426615Y-99904803D02*
X162542729Y-99943508D01*
X162542729Y-99943508D02*
X162620139Y-100020918D01*
X162620139Y-100020918D02*
X162658844Y-100098327D01*
X162658844Y-100098327D02*
X162697548Y-100253146D01*
X162697548Y-100253146D02*
X162697548Y-100369260D01*
X162697548Y-100369260D02*
X162658844Y-100524079D01*
X162658844Y-100524079D02*
X162620139Y-100601489D01*
X162620139Y-100601489D02*
X162542729Y-100678899D01*
X162542729Y-100678899D02*
X162426615Y-100717603D01*
X162426615Y-100717603D02*
X162233091Y-100717603D01*
D11*
X161314927Y-98064665D02*
X161276223Y-98103370D01*
X161276223Y-98103370D02*
X161160108Y-98142074D01*
X161160108Y-98142074D02*
X161082699Y-98142074D01*
X161082699Y-98142074D02*
X160966585Y-98103370D01*
X160966585Y-98103370D02*
X160889175Y-98025960D01*
X160889175Y-98025960D02*
X160850470Y-97948550D01*
X160850470Y-97948550D02*
X160811766Y-97793731D01*
X160811766Y-97793731D02*
X160811766Y-97677617D01*
X160811766Y-97677617D02*
X160850470Y-97522798D01*
X160850470Y-97522798D02*
X160889175Y-97445389D01*
X160889175Y-97445389D02*
X160966585Y-97367979D01*
X160966585Y-97367979D02*
X161082699Y-97329274D01*
X161082699Y-97329274D02*
X161160108Y-97329274D01*
X161160108Y-97329274D02*
X161276223Y-97367979D01*
X161276223Y-97367979D02*
X161314927Y-97406684D01*
X162050318Y-98142074D02*
X161663270Y-98142074D01*
X161663270Y-98142074D02*
X161663270Y-97329274D01*
X162321251Y-98142074D02*
X162321251Y-97329274D01*
X162785708Y-98142074D02*
X162437366Y-97677617D01*
X162785708Y-97329274D02*
X162321251Y-97793731D01*
D10*
X140114720Y-153141851D02*
X140230834Y-153180556D01*
X140230834Y-153180556D02*
X140269539Y-153219260D01*
X140269539Y-153219260D02*
X140308243Y-153296670D01*
X140308243Y-153296670D02*
X140308243Y-153412784D01*
X140308243Y-153412784D02*
X140269539Y-153490194D01*
X140269539Y-153490194D02*
X140230834Y-153528899D01*
X140230834Y-153528899D02*
X140153424Y-153567603D01*
X140153424Y-153567603D02*
X139843786Y-153567603D01*
X139843786Y-153567603D02*
X139843786Y-152754803D01*
X139843786Y-152754803D02*
X140114720Y-152754803D01*
X140114720Y-152754803D02*
X140192129Y-152793508D01*
X140192129Y-152793508D02*
X140230834Y-152832213D01*
X140230834Y-152832213D02*
X140269539Y-152909622D01*
X140269539Y-152909622D02*
X140269539Y-152987032D01*
X140269539Y-152987032D02*
X140230834Y-153064441D01*
X140230834Y-153064441D02*
X140192129Y-153103146D01*
X140192129Y-153103146D02*
X140114720Y-153141851D01*
X140114720Y-153141851D02*
X139843786Y-153141851D01*
X140966224Y-153528899D02*
X140888815Y-153567603D01*
X140888815Y-153567603D02*
X140733996Y-153567603D01*
X140733996Y-153567603D02*
X140656586Y-153528899D01*
X140656586Y-153528899D02*
X140617882Y-153451489D01*
X140617882Y-153451489D02*
X140617882Y-153141851D01*
X140617882Y-153141851D02*
X140656586Y-153064441D01*
X140656586Y-153064441D02*
X140733996Y-153025737D01*
X140733996Y-153025737D02*
X140888815Y-153025737D01*
X140888815Y-153025737D02*
X140966224Y-153064441D01*
X140966224Y-153064441D02*
X141004929Y-153141851D01*
X141004929Y-153141851D02*
X141004929Y-153219260D01*
X141004929Y-153219260D02*
X140617882Y-153296670D01*
X141469387Y-153567603D02*
X141391977Y-153528899D01*
X141391977Y-153528899D02*
X141353272Y-153451489D01*
X141353272Y-153451489D02*
X141353272Y-152754803D01*
X141895139Y-153567603D02*
X141817729Y-153528899D01*
X141817729Y-153528899D02*
X141779024Y-153451489D01*
X141779024Y-153451489D02*
X141779024Y-152754803D01*
X142824052Y-153141851D02*
X143094986Y-153141851D01*
X143211100Y-153567603D02*
X142824052Y-153567603D01*
X142824052Y-153567603D02*
X142824052Y-152754803D01*
X142824052Y-152754803D02*
X143211100Y-152754803D01*
X143559442Y-153025737D02*
X143559442Y-153567603D01*
X143559442Y-153103146D02*
X143598147Y-153064441D01*
X143598147Y-153064441D02*
X143675557Y-153025737D01*
X143675557Y-153025737D02*
X143791671Y-153025737D01*
X143791671Y-153025737D02*
X143869080Y-153064441D01*
X143869080Y-153064441D02*
X143907785Y-153141851D01*
X143907785Y-153141851D02*
X143907785Y-153567603D01*
X144643175Y-153567603D02*
X144643175Y-152754803D01*
X144643175Y-153528899D02*
X144565766Y-153567603D01*
X144565766Y-153567603D02*
X144410947Y-153567603D01*
X144410947Y-153567603D02*
X144333537Y-153528899D01*
X144333537Y-153528899D02*
X144294832Y-153490194D01*
X144294832Y-153490194D02*
X144256128Y-153412784D01*
X144256128Y-153412784D02*
X144256128Y-153180556D01*
X144256128Y-153180556D02*
X144294832Y-153103146D01*
X144294832Y-153103146D02*
X144333537Y-153064441D01*
X144333537Y-153064441D02*
X144410947Y-153025737D01*
X144410947Y-153025737D02*
X144565766Y-153025737D01*
X144565766Y-153025737D02*
X144643175Y-153064441D01*
X145649498Y-153141851D02*
X145920432Y-153141851D01*
X146036546Y-153567603D02*
X145649498Y-153567603D01*
X145649498Y-153567603D02*
X145649498Y-152754803D01*
X145649498Y-152754803D02*
X146036546Y-152754803D01*
X146733231Y-153567603D02*
X146733231Y-152754803D01*
X146733231Y-153528899D02*
X146655822Y-153567603D01*
X146655822Y-153567603D02*
X146501003Y-153567603D01*
X146501003Y-153567603D02*
X146423593Y-153528899D01*
X146423593Y-153528899D02*
X146384888Y-153490194D01*
X146384888Y-153490194D02*
X146346184Y-153412784D01*
X146346184Y-153412784D02*
X146346184Y-153180556D01*
X146346184Y-153180556D02*
X146384888Y-153103146D01*
X146384888Y-153103146D02*
X146423593Y-153064441D01*
X146423593Y-153064441D02*
X146501003Y-153025737D01*
X146501003Y-153025737D02*
X146655822Y-153025737D01*
X146655822Y-153025737D02*
X146733231Y-153064441D01*
X147120278Y-153567603D02*
X147120278Y-153025737D01*
X147120278Y-152754803D02*
X147081574Y-152793508D01*
X147081574Y-152793508D02*
X147120278Y-152832213D01*
X147120278Y-152832213D02*
X147158983Y-152793508D01*
X147158983Y-152793508D02*
X147120278Y-152754803D01*
X147120278Y-152754803D02*
X147120278Y-152832213D01*
X147391212Y-153025737D02*
X147700850Y-153025737D01*
X147507326Y-152754803D02*
X147507326Y-153451489D01*
X147507326Y-153451489D02*
X147546031Y-153528899D01*
X147546031Y-153528899D02*
X147623441Y-153567603D01*
X147623441Y-153567603D02*
X147700850Y-153567603D01*
X147971783Y-153567603D02*
X147971783Y-153025737D01*
X147971783Y-152754803D02*
X147933079Y-152793508D01*
X147933079Y-152793508D02*
X147971783Y-152832213D01*
X147971783Y-152832213D02*
X148010488Y-152793508D01*
X148010488Y-152793508D02*
X147971783Y-152754803D01*
X147971783Y-152754803D02*
X147971783Y-152832213D01*
X148474946Y-153567603D02*
X148397536Y-153528899D01*
X148397536Y-153528899D02*
X148358831Y-153490194D01*
X148358831Y-153490194D02*
X148320127Y-153412784D01*
X148320127Y-153412784D02*
X148320127Y-153180556D01*
X148320127Y-153180556D02*
X148358831Y-153103146D01*
X148358831Y-153103146D02*
X148397536Y-153064441D01*
X148397536Y-153064441D02*
X148474946Y-153025737D01*
X148474946Y-153025737D02*
X148591060Y-153025737D01*
X148591060Y-153025737D02*
X148668469Y-153064441D01*
X148668469Y-153064441D02*
X148707174Y-153103146D01*
X148707174Y-153103146D02*
X148745879Y-153180556D01*
X148745879Y-153180556D02*
X148745879Y-153412784D01*
X148745879Y-153412784D02*
X148707174Y-153490194D01*
X148707174Y-153490194D02*
X148668469Y-153528899D01*
X148668469Y-153528899D02*
X148591060Y-153567603D01*
X148591060Y-153567603D02*
X148474946Y-153567603D01*
X149094221Y-153025737D02*
X149094221Y-153567603D01*
X149094221Y-153103146D02*
X149132926Y-153064441D01*
X149132926Y-153064441D02*
X149210336Y-153025737D01*
X149210336Y-153025737D02*
X149326450Y-153025737D01*
X149326450Y-153025737D02*
X149403859Y-153064441D01*
X149403859Y-153064441D02*
X149442564Y-153141851D01*
X149442564Y-153141851D02*
X149442564Y-153567603D01*
D14*
X155614286Y-58929819D02*
X155614286Y-57929819D01*
X155614286Y-57929819D02*
X155995238Y-57929819D01*
X155995238Y-57929819D02*
X156090476Y-57977438D01*
X156090476Y-57977438D02*
X156138095Y-58025057D01*
X156138095Y-58025057D02*
X156185714Y-58120295D01*
X156185714Y-58120295D02*
X156185714Y-58263152D01*
X156185714Y-58263152D02*
X156138095Y-58358390D01*
X156138095Y-58358390D02*
X156090476Y-58406009D01*
X156090476Y-58406009D02*
X155995238Y-58453628D01*
X155995238Y-58453628D02*
X155614286Y-58453628D01*
X157185714Y-58929819D02*
X156852381Y-58453628D01*
X156614286Y-58929819D02*
X156614286Y-57929819D01*
X156614286Y-57929819D02*
X156995238Y-57929819D01*
X156995238Y-57929819D02*
X157090476Y-57977438D01*
X157090476Y-57977438D02*
X157138095Y-58025057D01*
X157138095Y-58025057D02*
X157185714Y-58120295D01*
X157185714Y-58120295D02*
X157185714Y-58263152D01*
X157185714Y-58263152D02*
X157138095Y-58358390D01*
X157138095Y-58358390D02*
X157090476Y-58406009D01*
X157090476Y-58406009D02*
X156995238Y-58453628D01*
X156995238Y-58453628D02*
X156614286Y-58453628D01*
X157804762Y-57929819D02*
X157995238Y-57929819D01*
X157995238Y-57929819D02*
X158090476Y-57977438D01*
X158090476Y-57977438D02*
X158185714Y-58072676D01*
X158185714Y-58072676D02*
X158233333Y-58263152D01*
X158233333Y-58263152D02*
X158233333Y-58596485D01*
X158233333Y-58596485D02*
X158185714Y-58786961D01*
X158185714Y-58786961D02*
X158090476Y-58882200D01*
X158090476Y-58882200D02*
X157995238Y-58929819D01*
X157995238Y-58929819D02*
X157804762Y-58929819D01*
X157804762Y-58929819D02*
X157709524Y-58882200D01*
X157709524Y-58882200D02*
X157614286Y-58786961D01*
X157614286Y-58786961D02*
X157566667Y-58596485D01*
X157566667Y-58596485D02*
X157566667Y-58263152D01*
X157566667Y-58263152D02*
X157614286Y-58072676D01*
X157614286Y-58072676D02*
X157709524Y-57977438D01*
X157709524Y-57977438D02*
X157804762Y-57929819D01*
X159185714Y-57977438D02*
X159090476Y-57929819D01*
X159090476Y-57929819D02*
X158947619Y-57929819D01*
X158947619Y-57929819D02*
X158804762Y-57977438D01*
X158804762Y-57977438D02*
X158709524Y-58072676D01*
X158709524Y-58072676D02*
X158661905Y-58167914D01*
X158661905Y-58167914D02*
X158614286Y-58358390D01*
X158614286Y-58358390D02*
X158614286Y-58501247D01*
X158614286Y-58501247D02*
X158661905Y-58691723D01*
X158661905Y-58691723D02*
X158709524Y-58786961D01*
X158709524Y-58786961D02*
X158804762Y-58882200D01*
X158804762Y-58882200D02*
X158947619Y-58929819D01*
X158947619Y-58929819D02*
X159042857Y-58929819D01*
X159042857Y-58929819D02*
X159185714Y-58882200D01*
X159185714Y-58882200D02*
X159233333Y-58834580D01*
X159233333Y-58834580D02*
X159233333Y-58501247D01*
X159233333Y-58501247D02*
X159042857Y-58501247D01*
D15*
X151023104Y-91587569D02*
X151007260Y-91603414D01*
X151007260Y-91603414D02*
X150959725Y-91619258D01*
X150959725Y-91619258D02*
X150928036Y-91619258D01*
X150928036Y-91619258D02*
X150880502Y-91603414D01*
X150880502Y-91603414D02*
X150848812Y-91571724D01*
X150848812Y-91571724D02*
X150832967Y-91540034D01*
X150832967Y-91540034D02*
X150817123Y-91476655D01*
X150817123Y-91476655D02*
X150817123Y-91429121D01*
X150817123Y-91429121D02*
X150832967Y-91365742D01*
X150832967Y-91365742D02*
X150848812Y-91334053D01*
X150848812Y-91334053D02*
X150880502Y-91302363D01*
X150880502Y-91302363D02*
X150928036Y-91286518D01*
X150928036Y-91286518D02*
X150959725Y-91286518D01*
X150959725Y-91286518D02*
X151007260Y-91302363D01*
X151007260Y-91302363D02*
X151023104Y-91318208D01*
X151340000Y-91619258D02*
X151149863Y-91619258D01*
X151244931Y-91619258D02*
X151244931Y-91286518D01*
X151244931Y-91286518D02*
X151213242Y-91334053D01*
X151213242Y-91334053D02*
X151181552Y-91365742D01*
X151181552Y-91365742D02*
X151149863Y-91381587D01*
X151450913Y-91286518D02*
X151656895Y-91286518D01*
X151656895Y-91286518D02*
X151545981Y-91413276D01*
X151545981Y-91413276D02*
X151593516Y-91413276D01*
X151593516Y-91413276D02*
X151625205Y-91429121D01*
X151625205Y-91429121D02*
X151641050Y-91444966D01*
X151641050Y-91444966D02*
X151656895Y-91476655D01*
X151656895Y-91476655D02*
X151656895Y-91555879D01*
X151656895Y-91555879D02*
X151641050Y-91587569D01*
X151641050Y-91587569D02*
X151625205Y-91603414D01*
X151625205Y-91603414D02*
X151593516Y-91619258D01*
X151593516Y-91619258D02*
X151498447Y-91619258D01*
X151498447Y-91619258D02*
X151466758Y-91603414D01*
X151466758Y-91603414D02*
X151450913Y-91587569D01*
D16*
X147420409Y-60306707D02*
X147545039Y-60306707D01*
X147598451Y-60502553D02*
X147420409Y-60502553D01*
X147420409Y-60502553D02*
X147420409Y-60128665D01*
X147420409Y-60128665D02*
X147598451Y-60128665D01*
X148221598Y-60502553D02*
X148043556Y-60502553D01*
X148043556Y-60502553D02*
X148043556Y-60128665D01*
X148631094Y-60306707D02*
X148755724Y-60306707D01*
X148809136Y-60502553D02*
X148631094Y-60502553D01*
X148631094Y-60502553D02*
X148631094Y-60128665D01*
X148631094Y-60128665D02*
X148809136Y-60128665D01*
X149467892Y-60466944D02*
X149450088Y-60484749D01*
X149450088Y-60484749D02*
X149396675Y-60502553D01*
X149396675Y-60502553D02*
X149361067Y-60502553D01*
X149361067Y-60502553D02*
X149307654Y-60484749D01*
X149307654Y-60484749D02*
X149272046Y-60449140D01*
X149272046Y-60449140D02*
X149254241Y-60413532D01*
X149254241Y-60413532D02*
X149236437Y-60342315D01*
X149236437Y-60342315D02*
X149236437Y-60288902D01*
X149236437Y-60288902D02*
X149254241Y-60217686D01*
X149254241Y-60217686D02*
X149272046Y-60182077D01*
X149272046Y-60182077D02*
X149307654Y-60146469D01*
X149307654Y-60146469D02*
X149361067Y-60128665D01*
X149361067Y-60128665D02*
X149396675Y-60128665D01*
X149396675Y-60128665D02*
X149450088Y-60146469D01*
X149450088Y-60146469D02*
X149467892Y-60164273D01*
X149859584Y-60128665D02*
X150073234Y-60128665D01*
X149966409Y-60502553D02*
X149966409Y-60128665D01*
X150696381Y-60502553D02*
X150571751Y-60324511D01*
X150482730Y-60502553D02*
X150482730Y-60128665D01*
X150482730Y-60128665D02*
X150625164Y-60128665D01*
X150625164Y-60128665D02*
X150660772Y-60146469D01*
X150660772Y-60146469D02*
X150678577Y-60164273D01*
X150678577Y-60164273D02*
X150696381Y-60199881D01*
X150696381Y-60199881D02*
X150696381Y-60253294D01*
X150696381Y-60253294D02*
X150678577Y-60288902D01*
X150678577Y-60288902D02*
X150660772Y-60306707D01*
X150660772Y-60306707D02*
X150625164Y-60324511D01*
X150625164Y-60324511D02*
X150482730Y-60324511D01*
X151212702Y-60128665D02*
X151283919Y-60128665D01*
X151283919Y-60128665D02*
X151319527Y-60146469D01*
X151319527Y-60146469D02*
X151355136Y-60182077D01*
X151355136Y-60182077D02*
X151372940Y-60253294D01*
X151372940Y-60253294D02*
X151372940Y-60377923D01*
X151372940Y-60377923D02*
X151355136Y-60449140D01*
X151355136Y-60449140D02*
X151319527Y-60484749D01*
X151319527Y-60484749D02*
X151283919Y-60502553D01*
X151283919Y-60502553D02*
X151212702Y-60502553D01*
X151212702Y-60502553D02*
X151177094Y-60484749D01*
X151177094Y-60484749D02*
X151141485Y-60449140D01*
X151141485Y-60449140D02*
X151123681Y-60377923D01*
X151123681Y-60377923D02*
X151123681Y-60253294D01*
X151123681Y-60253294D02*
X151141485Y-60182077D01*
X151141485Y-60182077D02*
X151177094Y-60146469D01*
X151177094Y-60146469D02*
X151212702Y-60128665D01*
X151818044Y-60502553D02*
X151818044Y-60128665D01*
X151818044Y-60128665D02*
X152031695Y-60502553D01*
X152031695Y-60502553D02*
X152031695Y-60128665D01*
X152494603Y-60502553D02*
X152494603Y-60128665D01*
X153171163Y-60466944D02*
X153153359Y-60484749D01*
X153153359Y-60484749D02*
X153099946Y-60502553D01*
X153099946Y-60502553D02*
X153064338Y-60502553D01*
X153064338Y-60502553D02*
X153010925Y-60484749D01*
X153010925Y-60484749D02*
X152975317Y-60449140D01*
X152975317Y-60449140D02*
X152957512Y-60413532D01*
X152957512Y-60413532D02*
X152939708Y-60342315D01*
X152939708Y-60342315D02*
X152939708Y-60288902D01*
X152939708Y-60288902D02*
X152957512Y-60217686D01*
X152957512Y-60217686D02*
X152975317Y-60182077D01*
X152975317Y-60182077D02*
X153010925Y-60146469D01*
X153010925Y-60146469D02*
X153064338Y-60128665D01*
X153064338Y-60128665D02*
X153099946Y-60128665D01*
X153099946Y-60128665D02*
X153153359Y-60146469D01*
X153153359Y-60146469D02*
X153171163Y-60164273D01*
X153598463Y-60484749D02*
X153651876Y-60502553D01*
X153651876Y-60502553D02*
X153740897Y-60502553D01*
X153740897Y-60502553D02*
X153776505Y-60484749D01*
X153776505Y-60484749D02*
X153794309Y-60466944D01*
X153794309Y-60466944D02*
X153812114Y-60431336D01*
X153812114Y-60431336D02*
X153812114Y-60395728D01*
X153812114Y-60395728D02*
X153794309Y-60360119D01*
X153794309Y-60360119D02*
X153776505Y-60342315D01*
X153776505Y-60342315D02*
X153740897Y-60324511D01*
X153740897Y-60324511D02*
X153669680Y-60306707D01*
X153669680Y-60306707D02*
X153634072Y-60288902D01*
X153634072Y-60288902D02*
X153616267Y-60271098D01*
X153616267Y-60271098D02*
X153598463Y-60235490D01*
X153598463Y-60235490D02*
X153598463Y-60199881D01*
X153598463Y-60199881D02*
X153616267Y-60164273D01*
X153616267Y-60164273D02*
X153634072Y-60146469D01*
X153634072Y-60146469D02*
X153669680Y-60128665D01*
X153669680Y-60128665D02*
X153758701Y-60128665D01*
X153758701Y-60128665D02*
X153812114Y-60146469D01*
D14*
X160333333Y-70634819D02*
X160000000Y-70158628D01*
X159761905Y-70634819D02*
X159761905Y-69634819D01*
X159761905Y-69634819D02*
X160142857Y-69634819D01*
X160142857Y-69634819D02*
X160238095Y-69682438D01*
X160238095Y-69682438D02*
X160285714Y-69730057D01*
X160285714Y-69730057D02*
X160333333Y-69825295D01*
X160333333Y-69825295D02*
X160333333Y-69968152D01*
X160333333Y-69968152D02*
X160285714Y-70063390D01*
X160285714Y-70063390D02*
X160238095Y-70111009D01*
X160238095Y-70111009D02*
X160142857Y-70158628D01*
X160142857Y-70158628D02*
X159761905Y-70158628D01*
X161238095Y-69634819D02*
X160761905Y-69634819D01*
X160761905Y-69634819D02*
X160714286Y-70111009D01*
X160714286Y-70111009D02*
X160761905Y-70063390D01*
X160761905Y-70063390D02*
X160857143Y-70015771D01*
X160857143Y-70015771D02*
X161095238Y-70015771D01*
X161095238Y-70015771D02*
X161190476Y-70063390D01*
X161190476Y-70063390D02*
X161238095Y-70111009D01*
X161238095Y-70111009D02*
X161285714Y-70206247D01*
X161285714Y-70206247D02*
X161285714Y-70444342D01*
X161285714Y-70444342D02*
X161238095Y-70539580D01*
X161238095Y-70539580D02*
X161190476Y-70587200D01*
X161190476Y-70587200D02*
X161095238Y-70634819D01*
X161095238Y-70634819D02*
X160857143Y-70634819D01*
X160857143Y-70634819D02*
X160761905Y-70587200D01*
X160761905Y-70587200D02*
X160714286Y-70539580D01*
D17*
X148701851Y-72506415D02*
X148309675Y-72506415D01*
X148309675Y-73122692D02*
X148309675Y-71946164D01*
X148309675Y-71946164D02*
X148869927Y-71946164D01*
X149934405Y-73122692D02*
X149262103Y-73122692D01*
X149598254Y-73122692D02*
X149598254Y-71946164D01*
X149598254Y-71946164D02*
X149486204Y-72114239D01*
X149486204Y-72114239D02*
X149374153Y-72226289D01*
X149374153Y-72226289D02*
X149262103Y-72282315D01*
D15*
X149118686Y-102850864D02*
X149102842Y-102866709D01*
X149102842Y-102866709D02*
X149055307Y-102882553D01*
X149055307Y-102882553D02*
X149023618Y-102882553D01*
X149023618Y-102882553D02*
X148976084Y-102866709D01*
X148976084Y-102866709D02*
X148944394Y-102835019D01*
X148944394Y-102835019D02*
X148928549Y-102803329D01*
X148928549Y-102803329D02*
X148912705Y-102739950D01*
X148912705Y-102739950D02*
X148912705Y-102692416D01*
X148912705Y-102692416D02*
X148928549Y-102629037D01*
X148928549Y-102629037D02*
X148944394Y-102597348D01*
X148944394Y-102597348D02*
X148976084Y-102565658D01*
X148976084Y-102565658D02*
X149023618Y-102549813D01*
X149023618Y-102549813D02*
X149055307Y-102549813D01*
X149055307Y-102549813D02*
X149102842Y-102565658D01*
X149102842Y-102565658D02*
X149118686Y-102581503D01*
X149229600Y-102549813D02*
X149435582Y-102549813D01*
X149435582Y-102549813D02*
X149324668Y-102676571D01*
X149324668Y-102676571D02*
X149372203Y-102676571D01*
X149372203Y-102676571D02*
X149403892Y-102692416D01*
X149403892Y-102692416D02*
X149419737Y-102708261D01*
X149419737Y-102708261D02*
X149435582Y-102739950D01*
X149435582Y-102739950D02*
X149435582Y-102819174D01*
X149435582Y-102819174D02*
X149419737Y-102850864D01*
X149419737Y-102850864D02*
X149403892Y-102866709D01*
X149403892Y-102866709D02*
X149372203Y-102882553D01*
X149372203Y-102882553D02*
X149277134Y-102882553D01*
X149277134Y-102882553D02*
X149245445Y-102866709D01*
X149245445Y-102866709D02*
X149229600Y-102850864D01*
X132219258Y-61787786D02*
X131886518Y-61787786D01*
X131886518Y-61787786D02*
X131886518Y-61661028D01*
X131886518Y-61661028D02*
X131902363Y-61629338D01*
X131902363Y-61629338D02*
X131918208Y-61613493D01*
X131918208Y-61613493D02*
X131949897Y-61597649D01*
X131949897Y-61597649D02*
X131997432Y-61597649D01*
X131997432Y-61597649D02*
X132029121Y-61613493D01*
X132029121Y-61613493D02*
X132044966Y-61629338D01*
X132044966Y-61629338D02*
X132060811Y-61661028D01*
X132060811Y-61661028D02*
X132060811Y-61787786D01*
X131886518Y-61391667D02*
X131886518Y-61328288D01*
X131886518Y-61328288D02*
X131902363Y-61296598D01*
X131902363Y-61296598D02*
X131934053Y-61264909D01*
X131934053Y-61264909D02*
X131997432Y-61249064D01*
X131997432Y-61249064D02*
X132108345Y-61249064D01*
X132108345Y-61249064D02*
X132171724Y-61264909D01*
X132171724Y-61264909D02*
X132203414Y-61296598D01*
X132203414Y-61296598D02*
X132219258Y-61328288D01*
X132219258Y-61328288D02*
X132219258Y-61391667D01*
X132219258Y-61391667D02*
X132203414Y-61423356D01*
X132203414Y-61423356D02*
X132171724Y-61455046D01*
X132171724Y-61455046D02*
X132108345Y-61470890D01*
X132108345Y-61470890D02*
X131997432Y-61470890D01*
X131997432Y-61470890D02*
X131934053Y-61455046D01*
X131934053Y-61455046D02*
X131902363Y-61423356D01*
X131902363Y-61423356D02*
X131886518Y-61391667D01*
X131886518Y-61138150D02*
X132219258Y-61058926D01*
X132219258Y-61058926D02*
X131981587Y-60995547D01*
X131981587Y-60995547D02*
X132219258Y-60932168D01*
X132219258Y-60932168D02*
X131886518Y-60852945D01*
X132044966Y-60726187D02*
X132044966Y-60615273D01*
X132219258Y-60567739D02*
X132219258Y-60726187D01*
X132219258Y-60726187D02*
X131886518Y-60726187D01*
X131886518Y-60726187D02*
X131886518Y-60567739D01*
X132219258Y-60235000D02*
X132060811Y-60345913D01*
X132219258Y-60425137D02*
X131886518Y-60425137D01*
X131886518Y-60425137D02*
X131886518Y-60298379D01*
X131886518Y-60298379D02*
X131902363Y-60266689D01*
X131902363Y-60266689D02*
X131918208Y-60250844D01*
X131918208Y-60250844D02*
X131949897Y-60235000D01*
X131949897Y-60235000D02*
X131997432Y-60235000D01*
X131997432Y-60235000D02*
X132029121Y-60250844D01*
X132029121Y-60250844D02*
X132044966Y-60266689D01*
X132044966Y-60266689D02*
X132060811Y-60298379D01*
X132060811Y-60298379D02*
X132060811Y-60425137D01*
X131886518Y-60029018D02*
X131886518Y-59997328D01*
X131886518Y-59997328D02*
X131902363Y-59965639D01*
X131902363Y-59965639D02*
X131918208Y-59949794D01*
X131918208Y-59949794D02*
X131949897Y-59933949D01*
X131949897Y-59933949D02*
X132013276Y-59918104D01*
X132013276Y-59918104D02*
X132092500Y-59918104D01*
X132092500Y-59918104D02*
X132155879Y-59933949D01*
X132155879Y-59933949D02*
X132187569Y-59949794D01*
X132187569Y-59949794D02*
X132203414Y-59965639D01*
X132203414Y-59965639D02*
X132219258Y-59997328D01*
X132219258Y-59997328D02*
X132219258Y-60029018D01*
X132219258Y-60029018D02*
X132203414Y-60060707D01*
X132203414Y-60060707D02*
X132187569Y-60076552D01*
X132187569Y-60076552D02*
X132155879Y-60092397D01*
X132155879Y-60092397D02*
X132092500Y-60108241D01*
X132092500Y-60108241D02*
X132013276Y-60108241D01*
X132013276Y-60108241D02*
X131949897Y-60092397D01*
X131949897Y-60092397D02*
X131918208Y-60076552D01*
X131918208Y-60076552D02*
X131902363Y-60060707D01*
X131902363Y-60060707D02*
X131886518Y-60029018D01*
D14*
X158441666Y-92354819D02*
X158441666Y-93069104D01*
X158441666Y-93069104D02*
X158394047Y-93211961D01*
X158394047Y-93211961D02*
X158298809Y-93307200D01*
X158298809Y-93307200D02*
X158155952Y-93354819D01*
X158155952Y-93354819D02*
X158060714Y-93354819D01*
X159441666Y-93354819D02*
X158870238Y-93354819D01*
X159155952Y-93354819D02*
X159155952Y-92354819D01*
X159155952Y-92354819D02*
X159060714Y-92497676D01*
X159060714Y-92497676D02*
X158965476Y-92592914D01*
X158965476Y-92592914D02*
X158870238Y-92640533D01*
D15*
X132524086Y-67679953D02*
X132413173Y-67521506D01*
X132333949Y-67679953D02*
X132333949Y-67347213D01*
X132333949Y-67347213D02*
X132460707Y-67347213D01*
X132460707Y-67347213D02*
X132492397Y-67363058D01*
X132492397Y-67363058D02*
X132508242Y-67378903D01*
X132508242Y-67378903D02*
X132524086Y-67410592D01*
X132524086Y-67410592D02*
X132524086Y-67458127D01*
X132524086Y-67458127D02*
X132508242Y-67489816D01*
X132508242Y-67489816D02*
X132492397Y-67505661D01*
X132492397Y-67505661D02*
X132460707Y-67521506D01*
X132460707Y-67521506D02*
X132333949Y-67521506D01*
X132635000Y-67347213D02*
X132840982Y-67347213D01*
X132840982Y-67347213D02*
X132730068Y-67473971D01*
X132730068Y-67473971D02*
X132777603Y-67473971D01*
X132777603Y-67473971D02*
X132809292Y-67489816D01*
X132809292Y-67489816D02*
X132825137Y-67505661D01*
X132825137Y-67505661D02*
X132840982Y-67537350D01*
X132840982Y-67537350D02*
X132840982Y-67616574D01*
X132840982Y-67616574D02*
X132825137Y-67648264D01*
X132825137Y-67648264D02*
X132809292Y-67664109D01*
X132809292Y-67664109D02*
X132777603Y-67679953D01*
X132777603Y-67679953D02*
X132682534Y-67679953D01*
X132682534Y-67679953D02*
X132650845Y-67664109D01*
X132650845Y-67664109D02*
X132635000Y-67648264D01*
D14*
X148063095Y-85954819D02*
X148063095Y-86764342D01*
X148063095Y-86764342D02*
X148110714Y-86859580D01*
X148110714Y-86859580D02*
X148158333Y-86907200D01*
X148158333Y-86907200D02*
X148253571Y-86954819D01*
X148253571Y-86954819D02*
X148444047Y-86954819D01*
X148444047Y-86954819D02*
X148539285Y-86907200D01*
X148539285Y-86907200D02*
X148586904Y-86859580D01*
X148586904Y-86859580D02*
X148634523Y-86764342D01*
X148634523Y-86764342D02*
X148634523Y-85954819D01*
X149063095Y-86050057D02*
X149110714Y-86002438D01*
X149110714Y-86002438D02*
X149205952Y-85954819D01*
X149205952Y-85954819D02*
X149444047Y-85954819D01*
X149444047Y-85954819D02*
X149539285Y-86002438D01*
X149539285Y-86002438D02*
X149586904Y-86050057D01*
X149586904Y-86050057D02*
X149634523Y-86145295D01*
X149634523Y-86145295D02*
X149634523Y-86240533D01*
X149634523Y-86240533D02*
X149586904Y-86383390D01*
X149586904Y-86383390D02*
X149015476Y-86954819D01*
X149015476Y-86954819D02*
X149634523Y-86954819D01*
D15*
X134474086Y-67654953D02*
X134363173Y-67496506D01*
X134283949Y-67654953D02*
X134283949Y-67322213D01*
X134283949Y-67322213D02*
X134410707Y-67322213D01*
X134410707Y-67322213D02*
X134442397Y-67338058D01*
X134442397Y-67338058D02*
X134458242Y-67353903D01*
X134458242Y-67353903D02*
X134474086Y-67385592D01*
X134474086Y-67385592D02*
X134474086Y-67433127D01*
X134474086Y-67433127D02*
X134458242Y-67464816D01*
X134458242Y-67464816D02*
X134442397Y-67480661D01*
X134442397Y-67480661D02*
X134410707Y-67496506D01*
X134410707Y-67496506D02*
X134283949Y-67496506D01*
X134759292Y-67433127D02*
X134759292Y-67654953D01*
X134680068Y-67306369D02*
X134600845Y-67544040D01*
X134600845Y-67544040D02*
X134806826Y-67544040D01*
X134137569Y-62068061D02*
X134153414Y-62083905D01*
X134153414Y-62083905D02*
X134169258Y-62131440D01*
X134169258Y-62131440D02*
X134169258Y-62163129D01*
X134169258Y-62163129D02*
X134153414Y-62210663D01*
X134153414Y-62210663D02*
X134121724Y-62242353D01*
X134121724Y-62242353D02*
X134090034Y-62258198D01*
X134090034Y-62258198D02*
X134026655Y-62274042D01*
X134026655Y-62274042D02*
X133979121Y-62274042D01*
X133979121Y-62274042D02*
X133915742Y-62258198D01*
X133915742Y-62258198D02*
X133884053Y-62242353D01*
X133884053Y-62242353D02*
X133852363Y-62210663D01*
X133852363Y-62210663D02*
X133836518Y-62163129D01*
X133836518Y-62163129D02*
X133836518Y-62131440D01*
X133836518Y-62131440D02*
X133852363Y-62083905D01*
X133852363Y-62083905D02*
X133868208Y-62068061D01*
X133836518Y-61862079D02*
X133836518Y-61798700D01*
X133836518Y-61798700D02*
X133852363Y-61767010D01*
X133852363Y-61767010D02*
X133884053Y-61735321D01*
X133884053Y-61735321D02*
X133947432Y-61719476D01*
X133947432Y-61719476D02*
X134058345Y-61719476D01*
X134058345Y-61719476D02*
X134121724Y-61735321D01*
X134121724Y-61735321D02*
X134153414Y-61767010D01*
X134153414Y-61767010D02*
X134169258Y-61798700D01*
X134169258Y-61798700D02*
X134169258Y-61862079D01*
X134169258Y-61862079D02*
X134153414Y-61893768D01*
X134153414Y-61893768D02*
X134121724Y-61925458D01*
X134121724Y-61925458D02*
X134058345Y-61941302D01*
X134058345Y-61941302D02*
X133947432Y-61941302D01*
X133947432Y-61941302D02*
X133884053Y-61925458D01*
X133884053Y-61925458D02*
X133852363Y-61893768D01*
X133852363Y-61893768D02*
X133836518Y-61862079D01*
X134169258Y-61576873D02*
X133836518Y-61576873D01*
X133836518Y-61576873D02*
X134169258Y-61386736D01*
X134169258Y-61386736D02*
X133836518Y-61386736D01*
X134169258Y-61228288D02*
X133836518Y-61228288D01*
X133836518Y-61228288D02*
X134169258Y-61038151D01*
X134169258Y-61038151D02*
X133836518Y-61038151D01*
X133994966Y-60879703D02*
X133994966Y-60768789D01*
X134169258Y-60721255D02*
X134169258Y-60879703D01*
X134169258Y-60879703D02*
X133836518Y-60879703D01*
X133836518Y-60879703D02*
X133836518Y-60721255D01*
X134137569Y-60388516D02*
X134153414Y-60404360D01*
X134153414Y-60404360D02*
X134169258Y-60451895D01*
X134169258Y-60451895D02*
X134169258Y-60483584D01*
X134169258Y-60483584D02*
X134153414Y-60531118D01*
X134153414Y-60531118D02*
X134121724Y-60562808D01*
X134121724Y-60562808D02*
X134090034Y-60578653D01*
X134090034Y-60578653D02*
X134026655Y-60594497D01*
X134026655Y-60594497D02*
X133979121Y-60594497D01*
X133979121Y-60594497D02*
X133915742Y-60578653D01*
X133915742Y-60578653D02*
X133884053Y-60562808D01*
X133884053Y-60562808D02*
X133852363Y-60531118D01*
X133852363Y-60531118D02*
X133836518Y-60483584D01*
X133836518Y-60483584D02*
X133836518Y-60451895D01*
X133836518Y-60451895D02*
X133852363Y-60404360D01*
X133852363Y-60404360D02*
X133868208Y-60388516D01*
X133836518Y-60293447D02*
X133836518Y-60103310D01*
X134169258Y-60198378D02*
X133836518Y-60198378D01*
X133836518Y-59929018D02*
X133836518Y-59897328D01*
X133836518Y-59897328D02*
X133852363Y-59865639D01*
X133852363Y-59865639D02*
X133868208Y-59849794D01*
X133868208Y-59849794D02*
X133899897Y-59833949D01*
X133899897Y-59833949D02*
X133963276Y-59818104D01*
X133963276Y-59818104D02*
X134042500Y-59818104D01*
X134042500Y-59818104D02*
X134105879Y-59833949D01*
X134105879Y-59833949D02*
X134137569Y-59849794D01*
X134137569Y-59849794D02*
X134153414Y-59865639D01*
X134153414Y-59865639D02*
X134169258Y-59897328D01*
X134169258Y-59897328D02*
X134169258Y-59929018D01*
X134169258Y-59929018D02*
X134153414Y-59960707D01*
X134153414Y-59960707D02*
X134137569Y-59976552D01*
X134137569Y-59976552D02*
X134105879Y-59992397D01*
X134105879Y-59992397D02*
X134042500Y-60008241D01*
X134042500Y-60008241D02*
X133963276Y-60008241D01*
X133963276Y-60008241D02*
X133899897Y-59992397D01*
X133899897Y-59992397D02*
X133868208Y-59976552D01*
X133868208Y-59976552D02*
X133852363Y-59960707D01*
X133852363Y-59960707D02*
X133836518Y-59929018D01*
D18*
%TO.C,JP3*%
X139350000Y-126150000D02*
X139350000Y-126750000D01*
X138650000Y-127450000D02*
X137250000Y-127450000D01*
X137250000Y-125450000D02*
X138650000Y-125450000D01*
X136550000Y-126750000D02*
X136550000Y-126150000D01*
X139350000Y-126750000D02*
G75*
G02*
X138650000Y-127450000I-699999J-1D01*
G01*
X138650000Y-125450000D02*
G75*
G02*
X139350000Y-126150000I1J-699999D01*
G01*
X137250000Y-127450000D02*
G75*
G02*
X136550000Y-126750000I0J700000D01*
G01*
X136550000Y-126150000D02*
G75*
G02*
X137250000Y-125450000I700000J0D01*
G01*
%TO.C,JP2*%
X136000000Y-126150000D02*
X136000000Y-126750000D01*
X135300000Y-127450000D02*
X133900000Y-127450000D01*
X133900000Y-125450000D02*
X135300000Y-125450000D01*
X133200000Y-126750000D02*
X133200000Y-126150000D01*
X136000000Y-126750000D02*
G75*
G02*
X135300000Y-127450000I-699999J-1D01*
G01*
X135300000Y-125450000D02*
G75*
G02*
X136000000Y-126150000I1J-699999D01*
G01*
X133900000Y-127450000D02*
G75*
G02*
X133200000Y-126750000I0J700000D01*
G01*
X133200000Y-126150000D02*
G75*
G02*
X133900000Y-125450000I700000J0D01*
G01*
%TO.C,PROG*%
X153900000Y-62100000D02*
X153900000Y-63600000D01*
X155150000Y-66100000D02*
X159650000Y-66100000D01*
X159650000Y-59600000D02*
X155150000Y-59600000D01*
X160900000Y-63600000D02*
X160900000Y-62100000D01*
%TO.C,JP1*%
X132295000Y-90040000D02*
X132295000Y-77120000D01*
X134945000Y-87390000D02*
X134945000Y-90040000D01*
X134945000Y-90040000D02*
X132295000Y-90040000D01*
X137595000Y-77120000D02*
X132295000Y-77120000D01*
X137595000Y-87390000D02*
X134945000Y-87390000D01*
X137595000Y-87390000D02*
X137595000Y-77120000D01*
X137595000Y-88660000D02*
X137595000Y-90040000D01*
X137595000Y-90040000D02*
X136215000Y-90040000D01*
D19*
%TO.C,X1*%
X136100000Y-52400000D02*
X136100000Y-66700000D01*
X136100000Y-66700000D02*
X150900000Y-66700000D01*
D20*
X139335000Y-62490000D02*
X139335000Y-61615000D01*
X139340000Y-62990000D02*
X139340000Y-63435000D01*
D10*
X139690000Y-53870000D02*
X138420000Y-59720000D01*
D20*
X139835000Y-62490000D02*
X139335000Y-62490000D01*
X139835000Y-62490000D02*
X139835000Y-61990000D01*
D10*
X140960000Y-53870000D02*
X139690000Y-53870000D01*
D20*
X141335000Y-61490000D02*
X141835000Y-62240000D01*
X142085000Y-61490000D02*
X141335000Y-61490000D01*
D10*
X142230000Y-59720000D02*
X140960000Y-53870000D01*
D20*
X142585000Y-61490000D02*
X142585000Y-62240000D01*
X142585000Y-62240000D02*
X142085000Y-61490000D01*
X142585000Y-62615000D02*
X142210000Y-62615000D01*
X142585000Y-62990000D02*
X142210000Y-62990000D01*
X142585000Y-62990000D02*
X142585000Y-62615000D01*
X143210000Y-61490000D02*
X142585000Y-61490000D01*
X143210000Y-63490000D02*
X141835000Y-63490000D01*
X143210000Y-63490000D02*
X143210000Y-61490000D01*
X143460000Y-61490000D02*
X143460000Y-61990000D01*
X143460000Y-61990000D02*
X144585000Y-61990000D01*
X143460000Y-62240000D02*
X143460000Y-62740000D01*
X143460000Y-62740000D02*
X144585000Y-62740000D01*
X143460000Y-62990000D02*
X143460000Y-63490000D01*
X143460000Y-63490000D02*
X145210000Y-63490000D01*
X144585000Y-61990000D02*
X144585000Y-62240000D01*
X144585000Y-62240000D02*
X143460000Y-62240000D01*
X144585000Y-62740000D02*
X144585000Y-62990000D01*
X144585000Y-62990000D02*
X143460000Y-62990000D01*
X145210000Y-61490000D02*
X143460000Y-61490000D01*
X145210000Y-63490000D02*
X145210000Y-61490000D01*
X145960000Y-61490000D02*
X146710000Y-61490000D01*
X145960000Y-61990000D02*
X146710000Y-61490000D01*
X145960000Y-62990000D02*
X146710000Y-62490000D01*
X145960000Y-63490000D02*
X146710000Y-63490000D01*
D10*
X146040000Y-53870000D02*
X144770000Y-59720000D01*
D20*
X146710000Y-61490000D02*
X146710000Y-62490000D01*
X146710000Y-62490000D02*
X145960000Y-61990000D01*
X146710000Y-62490000D02*
X146710000Y-63490000D01*
X146710000Y-63490000D02*
X145960000Y-62990000D01*
X146710000Y-63490000D02*
X147335000Y-63490000D01*
D10*
X147310000Y-53870000D02*
X146040000Y-53870000D01*
D20*
X147335000Y-61490000D02*
X146710000Y-61490000D01*
X147335000Y-63490000D02*
X147335000Y-61490000D01*
D10*
X148580000Y-59720000D02*
X147310000Y-53870000D01*
D19*
X150900000Y-52400000D02*
X136100000Y-52400000D01*
X150900000Y-66700000D02*
X150900000Y-52400000D01*
D20*
X139335000Y-61615000D02*
G75*
G02*
X140085000Y-61490000I760400J-2249900D01*
G01*
X139835000Y-61990000D02*
G75*
G02*
X139835000Y-62990000I0J-500000D01*
G01*
X139835000Y-62990000D02*
G75*
G02*
X139335000Y-62990000I-250000J1875028D01*
G01*
X140085000Y-61490000D02*
G75*
G02*
X140085000Y-63490000I0J-1000000D01*
G01*
X140085000Y-63490000D02*
G75*
G02*
X139325000Y-63434999I-119600J3625700D01*
G01*
X141835000Y-63490000D02*
G75*
G02*
X141835000Y-62240000I0J625000D01*
G01*
X142210000Y-62990000D02*
G75*
G02*
X142210000Y-62615000I0J187500D01*
G01*
X145960000Y-62490000D02*
G75*
G02*
X145960000Y-61490000I0J500000D01*
G01*
X145960000Y-63490000D02*
G75*
G02*
X145960000Y-62490000I0J500000D01*
G01*
D18*
%TO.C,R5*%
X160737258Y-68227500D02*
X160262742Y-68227500D01*
X160737258Y-69272500D02*
X160262742Y-69272500D01*
D21*
%TO.C,POWER0*%
X132300000Y-57900000D02*
X132450000Y-57750000D01*
X132450000Y-57750000D02*
X132625000Y-57925000D01*
X132475000Y-58075000D02*
X132300000Y-57900000D01*
X132625000Y-57925000D02*
X132475000Y-58075000D01*
D12*
X132937500Y-57650000D02*
G75*
G02*
X132812500Y-57650000I-62500J0D01*
G01*
X132812500Y-57650000D02*
G75*
G02*
X132937500Y-57650000I62500J0D01*
G01*
D18*
%TO.C,J1*%
X157395000Y-93900000D02*
X158775000Y-93900000D01*
X157395000Y-95280000D02*
X157395000Y-93900000D01*
X157395000Y-96550000D02*
X157395000Y-104280000D01*
X157395000Y-96550000D02*
X160155000Y-96550000D01*
X157395000Y-104280000D02*
X160155000Y-104280000D01*
X160155000Y-96550000D02*
X160155000Y-104280000D01*
%TO.C,U2*%
X145417200Y-77177300D02*
X145417200Y-77627300D01*
X145417200Y-84397300D02*
X145417200Y-83947300D01*
X145867200Y-77177300D02*
X145417200Y-77177300D01*
X145867200Y-84397300D02*
X145417200Y-84397300D01*
X152187200Y-77177300D02*
X152637200Y-77177300D01*
X152187200Y-84397300D02*
X152637200Y-84397300D01*
X152637200Y-77177300D02*
X152637200Y-77627300D01*
X152637200Y-84397300D02*
X152637200Y-83947300D01*
X153567200Y-84417300D02*
X152887200Y-84417300D01*
X153227200Y-83947300D01*
X153567200Y-84417300D01*
G36*
X153567200Y-84417300D02*
G01*
X152887200Y-84417300D01*
X153227200Y-83947300D01*
X153567200Y-84417300D01*
G37*
D22*
%TO.C,IC1*%
X150097000Y-95298000D02*
X153653000Y-95298000D01*
X150097000Y-101852000D02*
X150097000Y-95298000D01*
X153653000Y-95298000D02*
X153653000Y-101852000D01*
X153653000Y-101852000D02*
X150097000Y-101852000D01*
D21*
%TO.C,CONNECT0*%
X134350000Y-57900000D02*
X134500000Y-57750000D01*
X134500000Y-57750000D02*
X134675000Y-57925000D01*
X134525000Y-58075000D02*
X134350000Y-57900000D01*
X134675000Y-57925000D02*
X134525000Y-58075000D01*
D12*
X134987500Y-57650000D02*
G75*
G02*
X134862500Y-57650000I-62500J0D01*
G01*
X134862500Y-57650000D02*
G75*
G02*
X134987500Y-57650000I62500J0D01*
G01*
D18*
%TO.C,JP4*%
X132320000Y-115915000D02*
X132320000Y-102995000D01*
X134970000Y-113265000D02*
X134970000Y-115915000D01*
X134970000Y-115915000D02*
X132320000Y-115915000D01*
X137620000Y-102995000D02*
X132320000Y-102995000D01*
X137620000Y-113265000D02*
X134970000Y-113265000D01*
X137620000Y-113265000D02*
X137620000Y-102995000D01*
X137620000Y-114535000D02*
X137620000Y-115915000D01*
X137620000Y-115915000D02*
X136240000Y-115915000D01*
%TD*%
M02*
