%TF.GenerationSoftware,KiCad,Pcbnew,9.0.2*%
%TF.CreationDate,2025-11-10T19:09:34+00:00*%
%TF.ProjectId,wmk,776d6b2e-6b69-4636-9164-5f7063625858,rev?*%
%TF.SameCoordinates,Original*%
%TF.FileFunction,Soldermask,Bot*%
%TF.FilePolarity,Negative*%
%FSLAX46Y46*%
G04 Gerber Fmt 4.6, Leading zero omitted, Abs format (unit mm)*
G04 Created by KiCad (PCBNEW 9.0.2) date 2025-11-10 19:09:34*
%MOMM*%
%LPD*%
G01*
G04 APERTURE LIST*
G04 APERTURE END LIST*
G36*
X137090000Y-115385000D02*
G01*
X135390000Y-115385000D01*
X135390000Y-113685000D01*
X137090000Y-113685000D01*
X137090000Y-115385000D01*
G37*
G36*
X133946742Y-113721601D02*
G01*
X134100687Y-113785367D01*
X134239234Y-113877941D01*
X134357059Y-113995766D01*
X134449633Y-114134313D01*
X134513399Y-114288258D01*
X134545907Y-114451685D01*
X134545907Y-114618315D01*
X134513399Y-114781742D01*
X134449633Y-114935687D01*
X134357059Y-115074234D01*
X134239234Y-115192059D01*
X134100687Y-115284633D01*
X133946742Y-115348399D01*
X133783315Y-115380907D01*
X133616685Y-115380907D01*
X133453258Y-115348399D01*
X133299313Y-115284633D01*
X133160766Y-115192059D01*
X133042941Y-115074234D01*
X132950367Y-114935687D01*
X132886601Y-114781742D01*
X132854093Y-114618315D01*
X132854093Y-114451685D01*
X132886601Y-114288258D01*
X132950367Y-114134313D01*
X133042941Y-113995766D01*
X133160766Y-113877941D01*
X133299313Y-113785367D01*
X133453258Y-113721601D01*
X133616685Y-113689093D01*
X133783315Y-113689093D01*
X133946742Y-113721601D01*
G37*
G36*
X133946742Y-111181601D02*
G01*
X134100687Y-111245367D01*
X134239234Y-111337941D01*
X134357059Y-111455766D01*
X134449633Y-111594313D01*
X134513399Y-111748258D01*
X134545907Y-111911685D01*
X134545907Y-112078315D01*
X134513399Y-112241742D01*
X134449633Y-112395687D01*
X134357059Y-112534234D01*
X134239234Y-112652059D01*
X134100687Y-112744633D01*
X133946742Y-112808399D01*
X133783315Y-112840907D01*
X133616685Y-112840907D01*
X133453258Y-112808399D01*
X133299313Y-112744633D01*
X133160766Y-112652059D01*
X133042941Y-112534234D01*
X132950367Y-112395687D01*
X132886601Y-112241742D01*
X132854093Y-112078315D01*
X132854093Y-111911685D01*
X132886601Y-111748258D01*
X132950367Y-111594313D01*
X133042941Y-111455766D01*
X133160766Y-111337941D01*
X133299313Y-111245367D01*
X133453258Y-111181601D01*
X133616685Y-111149093D01*
X133783315Y-111149093D01*
X133946742Y-111181601D01*
G37*
G36*
X136486742Y-111181601D02*
G01*
X136640687Y-111245367D01*
X136779234Y-111337941D01*
X136897059Y-111455766D01*
X136989633Y-111594313D01*
X137053399Y-111748258D01*
X137085907Y-111911685D01*
X137085907Y-112078315D01*
X137053399Y-112241742D01*
X136989633Y-112395687D01*
X136897059Y-112534234D01*
X136779234Y-112652059D01*
X136640687Y-112744633D01*
X136486742Y-112808399D01*
X136323315Y-112840907D01*
X136156685Y-112840907D01*
X135993258Y-112808399D01*
X135839313Y-112744633D01*
X135700766Y-112652059D01*
X135582941Y-112534234D01*
X135490367Y-112395687D01*
X135426601Y-112241742D01*
X135394093Y-112078315D01*
X135394093Y-111911685D01*
X135426601Y-111748258D01*
X135490367Y-111594313D01*
X135582941Y-111455766D01*
X135700766Y-111337941D01*
X135839313Y-111245367D01*
X135993258Y-111181601D01*
X136156685Y-111149093D01*
X136323315Y-111149093D01*
X136486742Y-111181601D01*
G37*
G36*
X133946742Y-108641601D02*
G01*
X134100687Y-108705367D01*
X134239234Y-108797941D01*
X134357059Y-108915766D01*
X134449633Y-109054313D01*
X134513399Y-109208258D01*
X134545907Y-109371685D01*
X134545907Y-109538315D01*
X134513399Y-109701742D01*
X134449633Y-109855687D01*
X134357059Y-109994234D01*
X134239234Y-110112059D01*
X134100687Y-110204633D01*
X133946742Y-110268399D01*
X133783315Y-110300907D01*
X133616685Y-110300907D01*
X133453258Y-110268399D01*
X133299313Y-110204633D01*
X133160766Y-110112059D01*
X133042941Y-109994234D01*
X132950367Y-109855687D01*
X132886601Y-109701742D01*
X132854093Y-109538315D01*
X132854093Y-109371685D01*
X132886601Y-109208258D01*
X132950367Y-109054313D01*
X133042941Y-108915766D01*
X133160766Y-108797941D01*
X133299313Y-108705367D01*
X133453258Y-108641601D01*
X133616685Y-108609093D01*
X133783315Y-108609093D01*
X133946742Y-108641601D01*
G37*
G36*
X136486742Y-108641601D02*
G01*
X136640687Y-108705367D01*
X136779234Y-108797941D01*
X136897059Y-108915766D01*
X136989633Y-109054313D01*
X137053399Y-109208258D01*
X137085907Y-109371685D01*
X137085907Y-109538315D01*
X137053399Y-109701742D01*
X136989633Y-109855687D01*
X136897059Y-109994234D01*
X136779234Y-110112059D01*
X136640687Y-110204633D01*
X136486742Y-110268399D01*
X136323315Y-110300907D01*
X136156685Y-110300907D01*
X135993258Y-110268399D01*
X135839313Y-110204633D01*
X135700766Y-110112059D01*
X135582941Y-109994234D01*
X135490367Y-109855687D01*
X135426601Y-109701742D01*
X135394093Y-109538315D01*
X135394093Y-109371685D01*
X135426601Y-109208258D01*
X135490367Y-109054313D01*
X135582941Y-108915766D01*
X135700766Y-108797941D01*
X135839313Y-108705367D01*
X135993258Y-108641601D01*
X136156685Y-108609093D01*
X136323315Y-108609093D01*
X136486742Y-108641601D01*
G37*
G36*
X133946742Y-106101601D02*
G01*
X134100687Y-106165367D01*
X134239234Y-106257941D01*
X134357059Y-106375766D01*
X134449633Y-106514313D01*
X134513399Y-106668258D01*
X134545907Y-106831685D01*
X134545907Y-106998315D01*
X134513399Y-107161742D01*
X134449633Y-107315687D01*
X134357059Y-107454234D01*
X134239234Y-107572059D01*
X134100687Y-107664633D01*
X133946742Y-107728399D01*
X133783315Y-107760907D01*
X133616685Y-107760907D01*
X133453258Y-107728399D01*
X133299313Y-107664633D01*
X133160766Y-107572059D01*
X133042941Y-107454234D01*
X132950367Y-107315687D01*
X132886601Y-107161742D01*
X132854093Y-106998315D01*
X132854093Y-106831685D01*
X132886601Y-106668258D01*
X132950367Y-106514313D01*
X133042941Y-106375766D01*
X133160766Y-106257941D01*
X133299313Y-106165367D01*
X133453258Y-106101601D01*
X133616685Y-106069093D01*
X133783315Y-106069093D01*
X133946742Y-106101601D01*
G37*
G36*
X136486742Y-106101601D02*
G01*
X136640687Y-106165367D01*
X136779234Y-106257941D01*
X136897059Y-106375766D01*
X136989633Y-106514313D01*
X137053399Y-106668258D01*
X137085907Y-106831685D01*
X137085907Y-106998315D01*
X137053399Y-107161742D01*
X136989633Y-107315687D01*
X136897059Y-107454234D01*
X136779234Y-107572059D01*
X136640687Y-107664633D01*
X136486742Y-107728399D01*
X136323315Y-107760907D01*
X136156685Y-107760907D01*
X135993258Y-107728399D01*
X135839313Y-107664633D01*
X135700766Y-107572059D01*
X135582941Y-107454234D01*
X135490367Y-107315687D01*
X135426601Y-107161742D01*
X135394093Y-106998315D01*
X135394093Y-106831685D01*
X135426601Y-106668258D01*
X135490367Y-106514313D01*
X135582941Y-106375766D01*
X135700766Y-106257941D01*
X135839313Y-106165367D01*
X135993258Y-106101601D01*
X136156685Y-106069093D01*
X136323315Y-106069093D01*
X136486742Y-106101601D01*
G37*
G36*
X133946742Y-103561601D02*
G01*
X134100687Y-103625367D01*
X134239234Y-103717941D01*
X134357059Y-103835766D01*
X134449633Y-103974313D01*
X134513399Y-104128258D01*
X134545907Y-104291685D01*
X134545907Y-104458315D01*
X134513399Y-104621742D01*
X134449633Y-104775687D01*
X134357059Y-104914234D01*
X134239234Y-105032059D01*
X134100687Y-105124633D01*
X133946742Y-105188399D01*
X133783315Y-105220907D01*
X133616685Y-105220907D01*
X133453258Y-105188399D01*
X133299313Y-105124633D01*
X133160766Y-105032059D01*
X133042941Y-104914234D01*
X132950367Y-104775687D01*
X132886601Y-104621742D01*
X132854093Y-104458315D01*
X132854093Y-104291685D01*
X132886601Y-104128258D01*
X132950367Y-103974313D01*
X133042941Y-103835766D01*
X133160766Y-103717941D01*
X133299313Y-103625367D01*
X133453258Y-103561601D01*
X133616685Y-103529093D01*
X133783315Y-103529093D01*
X133946742Y-103561601D01*
G37*
G36*
X136486742Y-103561601D02*
G01*
X136640687Y-103625367D01*
X136779234Y-103717941D01*
X136897059Y-103835766D01*
X136989633Y-103974313D01*
X137053399Y-104128258D01*
X137085907Y-104291685D01*
X137085907Y-104458315D01*
X137053399Y-104621742D01*
X136989633Y-104775687D01*
X136897059Y-104914234D01*
X136779234Y-105032059D01*
X136640687Y-105124633D01*
X136486742Y-105188399D01*
X136323315Y-105220907D01*
X136156685Y-105220907D01*
X135993258Y-105188399D01*
X135839313Y-105124633D01*
X135700766Y-105032059D01*
X135582941Y-104914234D01*
X135490367Y-104775687D01*
X135426601Y-104621742D01*
X135394093Y-104458315D01*
X135394093Y-104291685D01*
X135426601Y-104128258D01*
X135490367Y-103974313D01*
X135582941Y-103835766D01*
X135700766Y-103717941D01*
X135839313Y-103625367D01*
X135993258Y-103561601D01*
X136156685Y-103529093D01*
X136323315Y-103529093D01*
X136486742Y-103561601D01*
G37*
G36*
X159021742Y-102086601D02*
G01*
X159175687Y-102150367D01*
X159314234Y-102242941D01*
X159432059Y-102360766D01*
X159524633Y-102499313D01*
X159588399Y-102653258D01*
X159620907Y-102816685D01*
X159620907Y-102983315D01*
X159588399Y-103146742D01*
X159524633Y-103300687D01*
X159432059Y-103439234D01*
X159314234Y-103557059D01*
X159175687Y-103649633D01*
X159021742Y-103713399D01*
X158858315Y-103745907D01*
X158691685Y-103745907D01*
X158528258Y-103713399D01*
X158374313Y-103649633D01*
X158235766Y-103557059D01*
X158117941Y-103439234D01*
X158025367Y-103300687D01*
X157961601Y-103146742D01*
X157929093Y-102983315D01*
X157929093Y-102816685D01*
X157961601Y-102653258D01*
X158025367Y-102499313D01*
X158117941Y-102360766D01*
X158235766Y-102242941D01*
X158374313Y-102150367D01*
X158528258Y-102086601D01*
X158691685Y-102054093D01*
X158858315Y-102054093D01*
X159021742Y-102086601D01*
G37*
G36*
X159021742Y-99546601D02*
G01*
X159175687Y-99610367D01*
X159314234Y-99702941D01*
X159432059Y-99820766D01*
X159524633Y-99959313D01*
X159588399Y-100113258D01*
X159620907Y-100276685D01*
X159620907Y-100443315D01*
X159588399Y-100606742D01*
X159524633Y-100760687D01*
X159432059Y-100899234D01*
X159314234Y-101017059D01*
X159175687Y-101109633D01*
X159021742Y-101173399D01*
X158858315Y-101205907D01*
X158691685Y-101205907D01*
X158528258Y-101173399D01*
X158374313Y-101109633D01*
X158235766Y-101017059D01*
X158117941Y-100899234D01*
X158025367Y-100760687D01*
X157961601Y-100606742D01*
X157929093Y-100443315D01*
X157929093Y-100276685D01*
X157961601Y-100113258D01*
X158025367Y-99959313D01*
X158117941Y-99820766D01*
X158235766Y-99702941D01*
X158374313Y-99610367D01*
X158528258Y-99546601D01*
X158691685Y-99514093D01*
X158858315Y-99514093D01*
X159021742Y-99546601D01*
G37*
G36*
X159021742Y-97006601D02*
G01*
X159175687Y-97070367D01*
X159314234Y-97162941D01*
X159432059Y-97280766D01*
X159524633Y-97419313D01*
X159588399Y-97573258D01*
X159620907Y-97736685D01*
X159620907Y-97903315D01*
X159588399Y-98066742D01*
X159524633Y-98220687D01*
X159432059Y-98359234D01*
X159314234Y-98477059D01*
X159175687Y-98569633D01*
X159021742Y-98633399D01*
X158858315Y-98665907D01*
X158691685Y-98665907D01*
X158528258Y-98633399D01*
X158374313Y-98569633D01*
X158235766Y-98477059D01*
X158117941Y-98359234D01*
X158025367Y-98220687D01*
X157961601Y-98066742D01*
X157929093Y-97903315D01*
X157929093Y-97736685D01*
X157961601Y-97573258D01*
X158025367Y-97419313D01*
X158117941Y-97280766D01*
X158235766Y-97162941D01*
X158374313Y-97070367D01*
X158528258Y-97006601D01*
X158691685Y-96974093D01*
X158858315Y-96974093D01*
X159021742Y-97006601D01*
G37*
G36*
X159625000Y-96130000D02*
G01*
X157925000Y-96130000D01*
X157925000Y-94430000D01*
X159625000Y-94430000D01*
X159625000Y-96130000D01*
G37*
G36*
X137065000Y-89510000D02*
G01*
X135365000Y-89510000D01*
X135365000Y-87810000D01*
X137065000Y-87810000D01*
X137065000Y-89510000D01*
G37*
G36*
X133921742Y-87846601D02*
G01*
X134075687Y-87910367D01*
X134214234Y-88002941D01*
X134332059Y-88120766D01*
X134424633Y-88259313D01*
X134488399Y-88413258D01*
X134520907Y-88576685D01*
X134520907Y-88743315D01*
X134488399Y-88906742D01*
X134424633Y-89060687D01*
X134332059Y-89199234D01*
X134214234Y-89317059D01*
X134075687Y-89409633D01*
X133921742Y-89473399D01*
X133758315Y-89505907D01*
X133591685Y-89505907D01*
X133428258Y-89473399D01*
X133274313Y-89409633D01*
X133135766Y-89317059D01*
X133017941Y-89199234D01*
X132925367Y-89060687D01*
X132861601Y-88906742D01*
X132829093Y-88743315D01*
X132829093Y-88576685D01*
X132861601Y-88413258D01*
X132925367Y-88259313D01*
X133017941Y-88120766D01*
X133135766Y-88002941D01*
X133274313Y-87910367D01*
X133428258Y-87846601D01*
X133591685Y-87814093D01*
X133758315Y-87814093D01*
X133921742Y-87846601D01*
G37*
G36*
X133921742Y-85306601D02*
G01*
X134075687Y-85370367D01*
X134214234Y-85462941D01*
X134332059Y-85580766D01*
X134424633Y-85719313D01*
X134488399Y-85873258D01*
X134520907Y-86036685D01*
X134520907Y-86203315D01*
X134488399Y-86366742D01*
X134424633Y-86520687D01*
X134332059Y-86659234D01*
X134214234Y-86777059D01*
X134075687Y-86869633D01*
X133921742Y-86933399D01*
X133758315Y-86965907D01*
X133591685Y-86965907D01*
X133428258Y-86933399D01*
X133274313Y-86869633D01*
X133135766Y-86777059D01*
X133017941Y-86659234D01*
X132925367Y-86520687D01*
X132861601Y-86366742D01*
X132829093Y-86203315D01*
X132829093Y-86036685D01*
X132861601Y-85873258D01*
X132925367Y-85719313D01*
X133017941Y-85580766D01*
X133135766Y-85462941D01*
X133274313Y-85370367D01*
X133428258Y-85306601D01*
X133591685Y-85274093D01*
X133758315Y-85274093D01*
X133921742Y-85306601D01*
G37*
G36*
X136461742Y-85306601D02*
G01*
X136615687Y-85370367D01*
X136754234Y-85462941D01*
X136872059Y-85580766D01*
X136964633Y-85719313D01*
X137028399Y-85873258D01*
X137060907Y-86036685D01*
X137060907Y-86203315D01*
X137028399Y-86366742D01*
X136964633Y-86520687D01*
X136872059Y-86659234D01*
X136754234Y-86777059D01*
X136615687Y-86869633D01*
X136461742Y-86933399D01*
X136298315Y-86965907D01*
X136131685Y-86965907D01*
X135968258Y-86933399D01*
X135814313Y-86869633D01*
X135675766Y-86777059D01*
X135557941Y-86659234D01*
X135465367Y-86520687D01*
X135401601Y-86366742D01*
X135369093Y-86203315D01*
X135369093Y-86036685D01*
X135401601Y-85873258D01*
X135465367Y-85719313D01*
X135557941Y-85580766D01*
X135675766Y-85462941D01*
X135814313Y-85370367D01*
X135968258Y-85306601D01*
X136131685Y-85274093D01*
X136298315Y-85274093D01*
X136461742Y-85306601D01*
G37*
G36*
X151243881Y-84415934D02*
G01*
X151276842Y-84437958D01*
X151298866Y-84470919D01*
X151306600Y-84509800D01*
X151306600Y-85509800D01*
X151298866Y-85548681D01*
X151276842Y-85581642D01*
X151243881Y-85603666D01*
X151205000Y-85611400D01*
X150105000Y-85611400D01*
X150066119Y-85603666D01*
X150033158Y-85581642D01*
X150011134Y-85548681D01*
X150003400Y-85509800D01*
X150003400Y-84509800D01*
X150011134Y-84470919D01*
X150033158Y-84437958D01*
X150066119Y-84415934D01*
X150105000Y-84408200D01*
X151205000Y-84408200D01*
X151243881Y-84415934D01*
G37*
G36*
X152943881Y-84415934D02*
G01*
X152976842Y-84437958D01*
X152998866Y-84470919D01*
X153006600Y-84509800D01*
X153006600Y-85509800D01*
X152998866Y-85548681D01*
X152976842Y-85581642D01*
X152943881Y-85603666D01*
X152905000Y-85611400D01*
X151805000Y-85611400D01*
X151766119Y-85603666D01*
X151733158Y-85581642D01*
X151711134Y-85548681D01*
X151703400Y-85509800D01*
X151703400Y-84509800D01*
X151711134Y-84470919D01*
X151733158Y-84437958D01*
X151766119Y-84415934D01*
X151805000Y-84408200D01*
X152905000Y-84408200D01*
X152943881Y-84415934D01*
G37*
G36*
X145326465Y-83492234D02*
G01*
X145359426Y-83514258D01*
X145381450Y-83547219D01*
X145389184Y-83586100D01*
X145389184Y-84686100D01*
X145381450Y-84724981D01*
X145359426Y-84757942D01*
X145326465Y-84779966D01*
X145287584Y-84787700D01*
X144287584Y-84787700D01*
X144248703Y-84779966D01*
X144215742Y-84757942D01*
X144193718Y-84724981D01*
X144185984Y-84686100D01*
X144185984Y-83586100D01*
X144193718Y-83547219D01*
X144215742Y-83514258D01*
X144248703Y-83492234D01*
X144287584Y-83484500D01*
X145287584Y-83484500D01*
X145326465Y-83492234D01*
G37*
G36*
X133921742Y-82766601D02*
G01*
X134075687Y-82830367D01*
X134214234Y-82922941D01*
X134332059Y-83040766D01*
X134424633Y-83179313D01*
X134488399Y-83333258D01*
X134520907Y-83496685D01*
X134520907Y-83663315D01*
X134488399Y-83826742D01*
X134424633Y-83980687D01*
X134332059Y-84119234D01*
X134214234Y-84237059D01*
X134075687Y-84329633D01*
X133921742Y-84393399D01*
X133758315Y-84425907D01*
X133591685Y-84425907D01*
X133428258Y-84393399D01*
X133274313Y-84329633D01*
X133135766Y-84237059D01*
X133017941Y-84119234D01*
X132925367Y-83980687D01*
X132861601Y-83826742D01*
X132829093Y-83663315D01*
X132829093Y-83496685D01*
X132861601Y-83333258D01*
X132925367Y-83179313D01*
X133017941Y-83040766D01*
X133135766Y-82922941D01*
X133274313Y-82830367D01*
X133428258Y-82766601D01*
X133591685Y-82734093D01*
X133758315Y-82734093D01*
X133921742Y-82766601D01*
G37*
G36*
X136461742Y-82766601D02*
G01*
X136615687Y-82830367D01*
X136754234Y-82922941D01*
X136872059Y-83040766D01*
X136964633Y-83179313D01*
X137028399Y-83333258D01*
X137060907Y-83496685D01*
X137060907Y-83663315D01*
X137028399Y-83826742D01*
X136964633Y-83980687D01*
X136872059Y-84119234D01*
X136754234Y-84237059D01*
X136615687Y-84329633D01*
X136461742Y-84393399D01*
X136298315Y-84425907D01*
X136131685Y-84425907D01*
X135968258Y-84393399D01*
X135814313Y-84329633D01*
X135675766Y-84237059D01*
X135557941Y-84119234D01*
X135465367Y-83980687D01*
X135401601Y-83826742D01*
X135369093Y-83663315D01*
X135369093Y-83496685D01*
X135401601Y-83333258D01*
X135465367Y-83179313D01*
X135557941Y-83040766D01*
X135675766Y-82922941D01*
X135814313Y-82830367D01*
X135968258Y-82766601D01*
X136131685Y-82734093D01*
X136298315Y-82734093D01*
X136461742Y-82766601D01*
G37*
G36*
X150388881Y-82406134D02*
G01*
X150421842Y-82428158D01*
X150443866Y-82461119D01*
X150451600Y-82500000D01*
X150451600Y-83600000D01*
X150443866Y-83638881D01*
X150421842Y-83671842D01*
X150388881Y-83693866D01*
X150350000Y-83701600D01*
X149350000Y-83701600D01*
X149311119Y-83693866D01*
X149278158Y-83671842D01*
X149256134Y-83638881D01*
X149248400Y-83600000D01*
X149248400Y-82500000D01*
X149256134Y-82461119D01*
X149278158Y-82428158D01*
X149311119Y-82406134D01*
X149350000Y-82398400D01*
X150350000Y-82398400D01*
X150388881Y-82406134D01*
G37*
G36*
X145326465Y-81792234D02*
G01*
X145359426Y-81814258D01*
X145381450Y-81847219D01*
X145389184Y-81886100D01*
X145389184Y-82986100D01*
X145381450Y-83024981D01*
X145359426Y-83057942D01*
X145326465Y-83079966D01*
X145287584Y-83087700D01*
X144287584Y-83087700D01*
X144248703Y-83079966D01*
X144215742Y-83057942D01*
X144193718Y-83024981D01*
X144185984Y-82986100D01*
X144185984Y-81886100D01*
X144193718Y-81847219D01*
X144215742Y-81814258D01*
X144248703Y-81792234D01*
X144287584Y-81784500D01*
X145287584Y-81784500D01*
X145326465Y-81792234D01*
G37*
G36*
X150488881Y-79456134D02*
G01*
X150521842Y-79478158D01*
X150543866Y-79511119D01*
X150551600Y-79550000D01*
X150551600Y-80550000D01*
X150543866Y-80588881D01*
X150521842Y-80621842D01*
X150488881Y-80643866D01*
X150450000Y-80651600D01*
X150444079Y-80651600D01*
X150434691Y-80653467D01*
X150410144Y-80712725D01*
X150419338Y-80726484D01*
X150421842Y-80728158D01*
X150443866Y-80761119D01*
X150451600Y-80800000D01*
X150451600Y-81900000D01*
X150443866Y-81938881D01*
X150421842Y-81971842D01*
X150388881Y-81993866D01*
X150350000Y-82001600D01*
X149350000Y-82001600D01*
X149311119Y-81993866D01*
X149278158Y-81971842D01*
X149256134Y-81938881D01*
X149248400Y-81900000D01*
X149248400Y-80800000D01*
X149256134Y-80761119D01*
X149278158Y-80728158D01*
X149311119Y-80706134D01*
X149311792Y-80706000D01*
X149311792Y-80643999D01*
X149311119Y-80643866D01*
X149278158Y-80621842D01*
X149256134Y-80588881D01*
X149248400Y-80550000D01*
X149248400Y-79550000D01*
X149256134Y-79511119D01*
X149278158Y-79478158D01*
X149311119Y-79456134D01*
X149350000Y-79448400D01*
X150450000Y-79448400D01*
X150488881Y-79456134D01*
G37*
G36*
X133921742Y-80226601D02*
G01*
X134075687Y-80290367D01*
X134214234Y-80382941D01*
X134332059Y-80500766D01*
X134424633Y-80639313D01*
X134488399Y-80793258D01*
X134520907Y-80956685D01*
X134520907Y-81123315D01*
X134488399Y-81286742D01*
X134424633Y-81440687D01*
X134332059Y-81579234D01*
X134214234Y-81697059D01*
X134075687Y-81789633D01*
X133921742Y-81853399D01*
X133758315Y-81885907D01*
X133591685Y-81885907D01*
X133428258Y-81853399D01*
X133274313Y-81789633D01*
X133135766Y-81697059D01*
X133017941Y-81579234D01*
X132925367Y-81440687D01*
X132861601Y-81286742D01*
X132829093Y-81123315D01*
X132829093Y-80956685D01*
X132861601Y-80793258D01*
X132925367Y-80639313D01*
X133017941Y-80500766D01*
X133135766Y-80382941D01*
X133274313Y-80290367D01*
X133428258Y-80226601D01*
X133591685Y-80194093D01*
X133758315Y-80194093D01*
X133921742Y-80226601D01*
G37*
G36*
X136461742Y-80226601D02*
G01*
X136615687Y-80290367D01*
X136754234Y-80382941D01*
X136872059Y-80500766D01*
X136964633Y-80639313D01*
X137028399Y-80793258D01*
X137060907Y-80956685D01*
X137060907Y-81123315D01*
X137028399Y-81286742D01*
X136964633Y-81440687D01*
X136872059Y-81579234D01*
X136754234Y-81697059D01*
X136615687Y-81789633D01*
X136461742Y-81853399D01*
X136298315Y-81885907D01*
X136131685Y-81885907D01*
X135968258Y-81853399D01*
X135814313Y-81789633D01*
X135675766Y-81697059D01*
X135557941Y-81579234D01*
X135465367Y-81440687D01*
X135401601Y-81286742D01*
X135369093Y-81123315D01*
X135369093Y-80956685D01*
X135401601Y-80793258D01*
X135465367Y-80639313D01*
X135557941Y-80500766D01*
X135675766Y-80382941D01*
X135814313Y-80290367D01*
X135968258Y-80226601D01*
X136131685Y-80194093D01*
X136298315Y-80194093D01*
X136461742Y-80226601D01*
G37*
G36*
X153783981Y-79993634D02*
G01*
X153816942Y-80015658D01*
X153838966Y-80048619D01*
X153846700Y-80087500D01*
X153846700Y-81187500D01*
X153838966Y-81226381D01*
X153816942Y-81259342D01*
X153783981Y-81281366D01*
X153745100Y-81289100D01*
X152745100Y-81289100D01*
X152706219Y-81281366D01*
X152673258Y-81259342D01*
X152651234Y-81226381D01*
X152643500Y-81187500D01*
X152643500Y-80087500D01*
X152651234Y-80048619D01*
X152673258Y-80015658D01*
X152706219Y-79993634D01*
X152745100Y-79985900D01*
X153745100Y-79985900D01*
X153783981Y-79993634D01*
G37*
G36*
X153783981Y-78293634D02*
G01*
X153816942Y-78315658D01*
X153838966Y-78348619D01*
X153846700Y-78387500D01*
X153846700Y-79487500D01*
X153838966Y-79526381D01*
X153816942Y-79559342D01*
X153783981Y-79581366D01*
X153745100Y-79589100D01*
X152745100Y-79589100D01*
X152706219Y-79581366D01*
X152673258Y-79559342D01*
X152651234Y-79526381D01*
X152643500Y-79487500D01*
X152643500Y-78387500D01*
X152651234Y-78348619D01*
X152673258Y-78315658D01*
X152706219Y-78293634D01*
X152745100Y-78285900D01*
X153745100Y-78285900D01*
X153783981Y-78293634D01*
G37*
G36*
X133921742Y-77686601D02*
G01*
X134075687Y-77750367D01*
X134214234Y-77842941D01*
X134332059Y-77960766D01*
X134424633Y-78099313D01*
X134488399Y-78253258D01*
X134520907Y-78416685D01*
X134520907Y-78583315D01*
X134488399Y-78746742D01*
X134424633Y-78900687D01*
X134332059Y-79039234D01*
X134214234Y-79157059D01*
X134075687Y-79249633D01*
X133921742Y-79313399D01*
X133758315Y-79345907D01*
X133591685Y-79345907D01*
X133428258Y-79313399D01*
X133274313Y-79249633D01*
X133135766Y-79157059D01*
X133017941Y-79039234D01*
X132925367Y-78900687D01*
X132861601Y-78746742D01*
X132829093Y-78583315D01*
X132829093Y-78416685D01*
X132861601Y-78253258D01*
X132925367Y-78099313D01*
X133017941Y-77960766D01*
X133135766Y-77842941D01*
X133274313Y-77750367D01*
X133428258Y-77686601D01*
X133591685Y-77654093D01*
X133758315Y-77654093D01*
X133921742Y-77686601D01*
G37*
G36*
X136461742Y-77686601D02*
G01*
X136615687Y-77750367D01*
X136754234Y-77842941D01*
X136872059Y-77960766D01*
X136964633Y-78099313D01*
X137028399Y-78253258D01*
X137060907Y-78416685D01*
X137060907Y-78583315D01*
X137028399Y-78746742D01*
X136964633Y-78900687D01*
X136872059Y-79039234D01*
X136754234Y-79157059D01*
X136615687Y-79249633D01*
X136461742Y-79313399D01*
X136298315Y-79345907D01*
X136131685Y-79345907D01*
X135968258Y-79313399D01*
X135814313Y-79249633D01*
X135675766Y-79157059D01*
X135557941Y-79039234D01*
X135465367Y-78900687D01*
X135401601Y-78746742D01*
X135369093Y-78583315D01*
X135369093Y-78416685D01*
X135401601Y-78253258D01*
X135465367Y-78099313D01*
X135557941Y-77960766D01*
X135675766Y-77842941D01*
X135814313Y-77750367D01*
X135968258Y-77686601D01*
X136131685Y-77654093D01*
X136298315Y-77654093D01*
X136461742Y-77686601D01*
G37*
G36*
X150488881Y-77756134D02*
G01*
X150521842Y-77778158D01*
X150543866Y-77811119D01*
X150551600Y-77850000D01*
X150551600Y-78850000D01*
X150543866Y-78888881D01*
X150521842Y-78921842D01*
X150488881Y-78943866D01*
X150450000Y-78951600D01*
X149350000Y-78951600D01*
X149311119Y-78943866D01*
X149278158Y-78921842D01*
X149256134Y-78888881D01*
X149248400Y-78850000D01*
X149248400Y-77850000D01*
X149256134Y-77811119D01*
X149278158Y-77778158D01*
X149311119Y-77756134D01*
X149350000Y-77748400D01*
X150450000Y-77748400D01*
X150488881Y-77756134D01*
G37*
G36*
X146168149Y-76186572D02*
G01*
X146201110Y-76208596D01*
X146223134Y-76241557D01*
X146230868Y-76280438D01*
X146230868Y-77280438D01*
X146223134Y-77319319D01*
X146201110Y-77352280D01*
X146168149Y-77374304D01*
X146129268Y-77382038D01*
X145029268Y-77382038D01*
X144990387Y-77374304D01*
X144957426Y-77352280D01*
X144935402Y-77319319D01*
X144927668Y-77280438D01*
X144927668Y-76280438D01*
X144935402Y-76241557D01*
X144957426Y-76208596D01*
X144990387Y-76186572D01*
X145029268Y-76178838D01*
X146129268Y-76178838D01*
X146168149Y-76186572D01*
G37*
G36*
X147868149Y-76186572D02*
G01*
X147901110Y-76208596D01*
X147923134Y-76241557D01*
X147930868Y-76280438D01*
X147930868Y-77280438D01*
X147923134Y-77319319D01*
X147901110Y-77352280D01*
X147868149Y-77374304D01*
X147829268Y-77382038D01*
X146729268Y-77382038D01*
X146690387Y-77374304D01*
X146657426Y-77352280D01*
X146635402Y-77319319D01*
X146627668Y-77280438D01*
X146627668Y-76280438D01*
X146635402Y-76241557D01*
X146657426Y-76208596D01*
X146690387Y-76186572D01*
X146729268Y-76178838D01*
X147829268Y-76178838D01*
X147868149Y-76186572D01*
G37*
G36*
X140241110Y-63776165D02*
G01*
X140391542Y-63838476D01*
X140526927Y-63928938D01*
X140642062Y-64044073D01*
X140732524Y-64179458D01*
X140794835Y-64329890D01*
X140826600Y-64489587D01*
X140830600Y-64571000D01*
X140830600Y-66029000D01*
X140826600Y-66110413D01*
X140794835Y-66270110D01*
X140732524Y-66420542D01*
X140642062Y-66555927D01*
X140526927Y-66671062D01*
X140391542Y-66761524D01*
X140241110Y-66823835D01*
X140081413Y-66855600D01*
X139918587Y-66855600D01*
X139758890Y-66823835D01*
X139608458Y-66761524D01*
X139473073Y-66671062D01*
X139357938Y-66555927D01*
X139267476Y-66420542D01*
X139205165Y-66270110D01*
X139173400Y-66110413D01*
X139169400Y-66029000D01*
X139169400Y-64571000D01*
X139173400Y-64489587D01*
X139205165Y-64329890D01*
X139267476Y-64179458D01*
X139357938Y-64044073D01*
X139473073Y-63928938D01*
X139608458Y-63838476D01*
X139758890Y-63776165D01*
X139918587Y-63744400D01*
X140081413Y-63744400D01*
X140241110Y-63776165D01*
G37*
G36*
X142741110Y-63776165D02*
G01*
X142891542Y-63838476D01*
X143026927Y-63928938D01*
X143142062Y-64044073D01*
X143232524Y-64179458D01*
X143294835Y-64329890D01*
X143326600Y-64489587D01*
X143330600Y-64571000D01*
X143330600Y-66029000D01*
X143326600Y-66110413D01*
X143294835Y-66270110D01*
X143232524Y-66420542D01*
X143142062Y-66555927D01*
X143026927Y-66671062D01*
X142891542Y-66761524D01*
X142741110Y-66823835D01*
X142581413Y-66855600D01*
X142418587Y-66855600D01*
X142258890Y-66823835D01*
X142108458Y-66761524D01*
X141973073Y-66671062D01*
X141857938Y-66555927D01*
X141767476Y-66420542D01*
X141705165Y-66270110D01*
X141673400Y-66110413D01*
X141669400Y-66029000D01*
X141669400Y-64571000D01*
X141673400Y-64489587D01*
X141705165Y-64329890D01*
X141767476Y-64179458D01*
X141857938Y-64044073D01*
X141973073Y-63928938D01*
X142108458Y-63838476D01*
X142258890Y-63776165D01*
X142418587Y-63744400D01*
X142581413Y-63744400D01*
X142741110Y-63776165D01*
G37*
G36*
X144741110Y-63776165D02*
G01*
X144891542Y-63838476D01*
X145026927Y-63928938D01*
X145142062Y-64044073D01*
X145232524Y-64179458D01*
X145294835Y-64329890D01*
X145326600Y-64489587D01*
X145330600Y-64571000D01*
X145330600Y-66029000D01*
X145326600Y-66110413D01*
X145294835Y-66270110D01*
X145232524Y-66420542D01*
X145142062Y-66555927D01*
X145026927Y-66671062D01*
X144891542Y-66761524D01*
X144741110Y-66823835D01*
X144581413Y-66855600D01*
X144418587Y-66855600D01*
X144258890Y-66823835D01*
X144108458Y-66761524D01*
X143973073Y-66671062D01*
X143857938Y-66555927D01*
X143767476Y-66420542D01*
X143705165Y-66270110D01*
X143673400Y-66110413D01*
X143669400Y-66029000D01*
X143669400Y-64571000D01*
X143673400Y-64489587D01*
X143705165Y-64329890D01*
X143767476Y-64179458D01*
X143857938Y-64044073D01*
X143973073Y-63928938D01*
X144108458Y-63838476D01*
X144258890Y-63776165D01*
X144418587Y-63744400D01*
X144581413Y-63744400D01*
X144741110Y-63776165D01*
G37*
G36*
X147241110Y-63776165D02*
G01*
X147391542Y-63838476D01*
X147526927Y-63928938D01*
X147642062Y-64044073D01*
X147732524Y-64179458D01*
X147794835Y-64329890D01*
X147826600Y-64489587D01*
X147830600Y-64571000D01*
X147830600Y-66029000D01*
X147826600Y-66110413D01*
X147794835Y-66270110D01*
X147732524Y-66420542D01*
X147642062Y-66555927D01*
X147526927Y-66671062D01*
X147391542Y-66761524D01*
X147241110Y-66823835D01*
X147081413Y-66855600D01*
X146918587Y-66855600D01*
X146758890Y-66823835D01*
X146608458Y-66761524D01*
X146473073Y-66671062D01*
X146357938Y-66555927D01*
X146267476Y-66420542D01*
X146205165Y-66270110D01*
X146173400Y-66110413D01*
X146169400Y-66029000D01*
X146169400Y-64571000D01*
X146173400Y-64489587D01*
X146205165Y-64329890D01*
X146267476Y-64179458D01*
X146357938Y-64044073D01*
X146473073Y-63928938D01*
X146608458Y-63838476D01*
X146758890Y-63776165D01*
X146918587Y-63744400D01*
X147081413Y-63744400D01*
X147241110Y-63776165D01*
G37*
G36*
X137292214Y-61081271D02*
G01*
X137523772Y-61156509D01*
X137740709Y-61267044D01*
X137937684Y-61410154D01*
X138109846Y-61582316D01*
X138252956Y-61779291D01*
X138363491Y-61996228D01*
X138438729Y-62227786D01*
X138476817Y-62468263D01*
X138476817Y-62711737D01*
X138438729Y-62952214D01*
X138363491Y-63183772D01*
X138252956Y-63400709D01*
X138109846Y-63597684D01*
X137937684Y-63769846D01*
X137740709Y-63912956D01*
X137523772Y-64023491D01*
X137292214Y-64098729D01*
X137051737Y-64136817D01*
X136808263Y-64136817D01*
X136567786Y-64098729D01*
X136336228Y-64023491D01*
X136119291Y-63912956D01*
X135922316Y-63769846D01*
X135750154Y-63597684D01*
X135607044Y-63400709D01*
X135496509Y-63183772D01*
X135421271Y-62952214D01*
X135383183Y-62711737D01*
X135383183Y-62468263D01*
X135421271Y-62227786D01*
X135496509Y-61996228D01*
X135607044Y-61779291D01*
X135750154Y-61582316D01*
X135922316Y-61410154D01*
X136119291Y-61267044D01*
X136336228Y-61156509D01*
X136567786Y-61081271D01*
X136808263Y-61043183D01*
X137051737Y-61043183D01*
X137292214Y-61081271D01*
G37*
G36*
X150432214Y-61081271D02*
G01*
X150663772Y-61156509D01*
X150880709Y-61267044D01*
X151077684Y-61410154D01*
X151249846Y-61582316D01*
X151392956Y-61779291D01*
X151503491Y-61996228D01*
X151578729Y-62227786D01*
X151616817Y-62468263D01*
X151616817Y-62711737D01*
X151578729Y-62952214D01*
X151503491Y-63183772D01*
X151392956Y-63400709D01*
X151249846Y-63597684D01*
X151077684Y-63769846D01*
X150880709Y-63912956D01*
X150663772Y-64023491D01*
X150432214Y-64098729D01*
X150191737Y-64136817D01*
X149948263Y-64136817D01*
X149707786Y-64098729D01*
X149476228Y-64023491D01*
X149259291Y-63912956D01*
X149062316Y-63769846D01*
X148890154Y-63597684D01*
X148747044Y-63400709D01*
X148636509Y-63183772D01*
X148561271Y-62952214D01*
X148523183Y-62711737D01*
X148523183Y-62468263D01*
X148561271Y-62227786D01*
X148636509Y-61996228D01*
X148747044Y-61779291D01*
X148890154Y-61582316D01*
X149062316Y-61410154D01*
X149259291Y-61267044D01*
X149476228Y-61156509D01*
X149707786Y-61081271D01*
X149948263Y-61043183D01*
X150191737Y-61043183D01*
X150432214Y-61081271D01*
G37*
G36*
X153092687Y-60007556D02*
G01*
X153102918Y-60007556D01*
X153142893Y-60015507D01*
X153245074Y-60031691D01*
X153277943Y-60042370D01*
X153304799Y-60047713D01*
X153342700Y-60063412D01*
X153401741Y-60082596D01*
X153457052Y-60110778D01*
X153494967Y-60126483D01*
X153517742Y-60141701D01*
X153548528Y-60157387D01*
X153632217Y-60218190D01*
X153666113Y-60240839D01*
X153673347Y-60248073D01*
X153681798Y-60254213D01*
X153798286Y-60370701D01*
X153804425Y-60379151D01*
X153811661Y-60386387D01*
X153834312Y-60420287D01*
X153895112Y-60503971D01*
X153910796Y-60534754D01*
X153926017Y-60557533D01*
X153941723Y-60595452D01*
X153969903Y-60650758D01*
X153989084Y-60709792D01*
X154004787Y-60747701D01*
X154010130Y-60774562D01*
X154020808Y-60807425D01*
X154036990Y-60909598D01*
X154044944Y-60949582D01*
X154044944Y-60959813D01*
X154046578Y-60970130D01*
X154046578Y-61134869D01*
X154044944Y-61145185D01*
X154044944Y-61155418D01*
X154036990Y-61195405D01*
X154020808Y-61297574D01*
X154010130Y-61330435D01*
X154004787Y-61357299D01*
X153989083Y-61395211D01*
X153969903Y-61454241D01*
X153941726Y-61509541D01*
X153926017Y-61547467D01*
X153910794Y-61570249D01*
X153895112Y-61601028D01*
X153834320Y-61684700D01*
X153811661Y-61718613D01*
X153804423Y-61725850D01*
X153798286Y-61734298D01*
X153681798Y-61850786D01*
X153673350Y-61856923D01*
X153666113Y-61864161D01*
X153632200Y-61886820D01*
X153548528Y-61947612D01*
X153517749Y-61963294D01*
X153494967Y-61978517D01*
X153457041Y-61994226D01*
X153401741Y-62022403D01*
X153342711Y-62041583D01*
X153304799Y-62057287D01*
X153277935Y-62062630D01*
X153245074Y-62073308D01*
X153142902Y-62089490D01*
X153102918Y-62097444D01*
X153092687Y-62097444D01*
X153082370Y-62099078D01*
X152917630Y-62099078D01*
X152907313Y-62097444D01*
X152897082Y-62097444D01*
X152857098Y-62089490D01*
X152754925Y-62073308D01*
X152722062Y-62062630D01*
X152695201Y-62057287D01*
X152657292Y-62041584D01*
X152598258Y-62022403D01*
X152542952Y-61994223D01*
X152505033Y-61978517D01*
X152482254Y-61963296D01*
X152451471Y-61947612D01*
X152367787Y-61886812D01*
X152333887Y-61864161D01*
X152326651Y-61856925D01*
X152318201Y-61850786D01*
X152201713Y-61734298D01*
X152195573Y-61725847D01*
X152188339Y-61718613D01*
X152165690Y-61684717D01*
X152104887Y-61601028D01*
X152089201Y-61570242D01*
X152073983Y-61547467D01*
X152058278Y-61509552D01*
X152030096Y-61454241D01*
X152010912Y-61395200D01*
X151995213Y-61357299D01*
X151989870Y-61330443D01*
X151979191Y-61297574D01*
X151963008Y-61195395D01*
X151955056Y-61155418D01*
X151955056Y-61145186D01*
X151953422Y-61134869D01*
X151953422Y-60970130D01*
X151955056Y-60959812D01*
X151955056Y-60949582D01*
X151963007Y-60909608D01*
X151979191Y-60807425D01*
X151989871Y-60774554D01*
X151995213Y-60747701D01*
X152010910Y-60709803D01*
X152030096Y-60650758D01*
X152058280Y-60595442D01*
X152073983Y-60557533D01*
X152089199Y-60534760D01*
X152104887Y-60503971D01*
X152165699Y-60420270D01*
X152188339Y-60386387D01*
X152195570Y-60379155D01*
X152201713Y-60370701D01*
X152318201Y-60254213D01*
X152326655Y-60248070D01*
X152333887Y-60240839D01*
X152367770Y-60218199D01*
X152451471Y-60157387D01*
X152482260Y-60141699D01*
X152505033Y-60126483D01*
X152542942Y-60110780D01*
X152598258Y-60082596D01*
X152657303Y-60063410D01*
X152695201Y-60047713D01*
X152722054Y-60042371D01*
X152754925Y-60031691D01*
X152857108Y-60015507D01*
X152897082Y-60007556D01*
X152907313Y-60007556D01*
X152917630Y-60005922D01*
X153082370Y-60005922D01*
X153092687Y-60007556D01*
G37*
G36*
X160102687Y-60007556D02*
G01*
X160112918Y-60007556D01*
X160152893Y-60015507D01*
X160255074Y-60031691D01*
X160287943Y-60042370D01*
X160314799Y-60047713D01*
X160352700Y-60063412D01*
X160411741Y-60082596D01*
X160467052Y-60110778D01*
X160504967Y-60126483D01*
X160527742Y-60141701D01*
X160558528Y-60157387D01*
X160642217Y-60218190D01*
X160676113Y-60240839D01*
X160683347Y-60248073D01*
X160691798Y-60254213D01*
X160808286Y-60370701D01*
X160814425Y-60379151D01*
X160821661Y-60386387D01*
X160844312Y-60420287D01*
X160905112Y-60503971D01*
X160920796Y-60534754D01*
X160936017Y-60557533D01*
X160951723Y-60595452D01*
X160979903Y-60650758D01*
X160999084Y-60709792D01*
X161014787Y-60747701D01*
X161020130Y-60774562D01*
X161030808Y-60807425D01*
X161046990Y-60909598D01*
X161054944Y-60949582D01*
X161054944Y-60959813D01*
X161056578Y-60970130D01*
X161056578Y-61134869D01*
X161054944Y-61145185D01*
X161054944Y-61155418D01*
X161046990Y-61195405D01*
X161030808Y-61297574D01*
X161020130Y-61330435D01*
X161014787Y-61357299D01*
X160999083Y-61395211D01*
X160979903Y-61454241D01*
X160951726Y-61509541D01*
X160936017Y-61547467D01*
X160920794Y-61570249D01*
X160905112Y-61601028D01*
X160844320Y-61684700D01*
X160821661Y-61718613D01*
X160814423Y-61725850D01*
X160808286Y-61734298D01*
X160691798Y-61850786D01*
X160683350Y-61856923D01*
X160676113Y-61864161D01*
X160642200Y-61886820D01*
X160558528Y-61947612D01*
X160527749Y-61963294D01*
X160504967Y-61978517D01*
X160467041Y-61994226D01*
X160411741Y-62022403D01*
X160352711Y-62041583D01*
X160314799Y-62057287D01*
X160287935Y-62062630D01*
X160255074Y-62073308D01*
X160152902Y-62089490D01*
X160112918Y-62097444D01*
X160102687Y-62097444D01*
X160092370Y-62099078D01*
X159927630Y-62099078D01*
X159917313Y-62097444D01*
X159907082Y-62097444D01*
X159867098Y-62089490D01*
X159764925Y-62073308D01*
X159732062Y-62062630D01*
X159705201Y-62057287D01*
X159667292Y-62041584D01*
X159608258Y-62022403D01*
X159552952Y-61994223D01*
X159515033Y-61978517D01*
X159492254Y-61963296D01*
X159461471Y-61947612D01*
X159377787Y-61886812D01*
X159343887Y-61864161D01*
X159336651Y-61856925D01*
X159328201Y-61850786D01*
X159211713Y-61734298D01*
X159205573Y-61725847D01*
X159198339Y-61718613D01*
X159175690Y-61684717D01*
X159114887Y-61601028D01*
X159099201Y-61570242D01*
X159083983Y-61547467D01*
X159068278Y-61509552D01*
X159040096Y-61454241D01*
X159020912Y-61395200D01*
X159005213Y-61357299D01*
X158999870Y-61330443D01*
X158989191Y-61297574D01*
X158973008Y-61195395D01*
X158965056Y-61155418D01*
X158965056Y-61145186D01*
X158963422Y-61134869D01*
X158963422Y-60970130D01*
X158965056Y-60959812D01*
X158965056Y-60949582D01*
X158973007Y-60909608D01*
X158989191Y-60807425D01*
X158999871Y-60774554D01*
X159005213Y-60747701D01*
X159020910Y-60709803D01*
X159040096Y-60650758D01*
X159068280Y-60595442D01*
X159083983Y-60557533D01*
X159099199Y-60534760D01*
X159114887Y-60503971D01*
X159175699Y-60420270D01*
X159198339Y-60386387D01*
X159205570Y-60379155D01*
X159211713Y-60370701D01*
X159328201Y-60254213D01*
X159336655Y-60248070D01*
X159343887Y-60240839D01*
X159377770Y-60218199D01*
X159461471Y-60157387D01*
X159492260Y-60141699D01*
X159515033Y-60126483D01*
X159552942Y-60110780D01*
X159608258Y-60082596D01*
X159667303Y-60063410D01*
X159705201Y-60047713D01*
X159732054Y-60042371D01*
X159764925Y-60031691D01*
X159867108Y-60015507D01*
X159907082Y-60007556D01*
X159917313Y-60007556D01*
X159927630Y-60005922D01*
X160092370Y-60005922D01*
X160102687Y-60007556D01*
G37*
G36*
X154503999Y-57725177D02*
G01*
X154662472Y-57790819D01*
X154805094Y-57886116D01*
X154926384Y-58007406D01*
X155021681Y-58150028D01*
X155087323Y-58308501D01*
X155120787Y-58476735D01*
X155120787Y-58648265D01*
X155087323Y-58816499D01*
X155021681Y-58974972D01*
X154926384Y-59117594D01*
X154805094Y-59238884D01*
X154662472Y-59334181D01*
X154503999Y-59399823D01*
X154335765Y-59433287D01*
X154164235Y-59433287D01*
X153996001Y-59399823D01*
X153837528Y-59334181D01*
X153694906Y-59238884D01*
X153573616Y-59117594D01*
X153478319Y-58974972D01*
X153412677Y-58816499D01*
X153379213Y-58648265D01*
X153379213Y-58476735D01*
X153412677Y-58308501D01*
X153478319Y-58150028D01*
X153573616Y-58007406D01*
X153694906Y-57886116D01*
X153837528Y-57790819D01*
X153996001Y-57725177D01*
X154164235Y-57691713D01*
X154335765Y-57691713D01*
X154503999Y-57725177D01*
G37*
G36*
X159003999Y-57725177D02*
G01*
X159162472Y-57790819D01*
X159305094Y-57886116D01*
X159426384Y-58007406D01*
X159521681Y-58150028D01*
X159587323Y-58308501D01*
X159620787Y-58476735D01*
X159620787Y-58648265D01*
X159587323Y-58816499D01*
X159521681Y-58974972D01*
X159426384Y-59117594D01*
X159305094Y-59238884D01*
X159162472Y-59334181D01*
X159003999Y-59399823D01*
X158835765Y-59433287D01*
X158664235Y-59433287D01*
X158496001Y-59399823D01*
X158337528Y-59334181D01*
X158194906Y-59238884D01*
X158073616Y-59117594D01*
X157978319Y-58974972D01*
X157912677Y-58816499D01*
X157879213Y-58648265D01*
X157879213Y-58476735D01*
X157912677Y-58308501D01*
X157978319Y-58150028D01*
X158073616Y-58007406D01*
X158194906Y-57886116D01*
X158337528Y-57790819D01*
X158496001Y-57725177D01*
X158664235Y-57691713D01*
X158835765Y-57691713D01*
X159003999Y-57725177D01*
G37*
M02*
