%TF.GenerationSoftware,KiCad,Pcbnew,9.0.2*%
%TF.CreationDate,2025-11-10T19:09:33+00:00*%
%TF.ProjectId,wmk,776d6b2e-6b69-4636-9164-5f7063625858,rev?*%
%TF.SameCoordinates,Original*%
%TF.FileFunction,Paste,Top*%
%TF.FilePolarity,Positive*%
%FSLAX46Y46*%
G04 Gerber Fmt 4.6, Leading zero omitted, Abs format (unit mm)*
G04 Created by KiCad (PCBNEW 9.0.2) date 2025-11-10 19:09:33*
%MOMM*%
%LPD*%
G01*
G04 APERTURE LIST*
G04 Aperture macros list*
%AMRoundRect*
0 Rectangle with rounded corners*
0 $1 Rounding radius*
0 $2 $3 $4 $5 $6 $7 $8 $9 X,Y pos of 4 corners*
0 Add a 4 corners polygon primitive as box body*
4,1,4,$2,$3,$4,$5,$6,$7,$8,$9,$2,$3,0*
0 Add four circle primitives for the rounded corners*
1,1,$1+$1,$2,$3*
1,1,$1+$1,$4,$5*
1,1,$1+$1,$6,$7*
1,1,$1+$1,$8,$9*
0 Add four rect primitives between the rounded corners*
20,1,$1+$1,$2,$3,$4,$5,0*
20,1,$1+$1,$4,$5,$6,$7,0*
20,1,$1+$1,$6,$7,$8,$9,0*
20,1,$1+$1,$8,$9,$2,$3,0*%
G04 Aperture macros list end*
%ADD10R,1.600000X1.800000*%
%ADD11RoundRect,0.200000X0.200000X0.275000X-0.200000X0.275000X-0.200000X-0.275000X0.200000X-0.275000X0*%
%ADD12R,1.600000X1.803000*%
%ADD13R,1.200000X1.200000*%
%ADD14R,1.100000X1.000000*%
%ADD15RoundRect,0.075000X0.662500X0.075000X-0.662500X0.075000X-0.662500X-0.075000X0.662500X-0.075000X0*%
%ADD16RoundRect,0.075000X0.075000X0.662500X-0.075000X0.662500X-0.075000X-0.662500X0.075000X-0.662500X0*%
%ADD17R,2.235000X1.219000*%
%ADD18R,2.200000X3.600000*%
G04 APERTURE END LIST*
D10*
%TO.C,C13*%
X152900000Y-92850000D03*
X150100000Y-92850000D03*
%TD*%
D11*
%TO.C,R5*%
X161375000Y-67500000D03*
X159725000Y-67500000D03*
%TD*%
D12*
%TO.C,F1*%
X150372000Y-70625000D03*
X147528000Y-70625000D03*
%TD*%
D10*
%TO.C,C3*%
X150325000Y-104350000D03*
X153125000Y-104350000D03*
%TD*%
D13*
%TO.C,POWER0*%
X132475000Y-58975000D03*
X132475000Y-56875000D03*
%TD*%
D14*
%TO.C,R3*%
X132600000Y-70225000D03*
X132600000Y-68525000D03*
%TD*%
D15*
%TO.C,U2*%
X153189700Y-83537300D03*
X153189700Y-83037300D03*
X153189700Y-82537300D03*
X153189700Y-82037300D03*
X153189700Y-81537300D03*
X153189700Y-81037300D03*
X153189700Y-80537300D03*
X153189700Y-80037300D03*
X153189700Y-79537300D03*
X153189700Y-79037300D03*
X153189700Y-78537300D03*
X153189700Y-78037300D03*
D16*
X151777200Y-76624800D03*
X151277200Y-76624800D03*
X150777200Y-76624800D03*
X150277200Y-76624800D03*
X149777200Y-76624800D03*
X149277200Y-76624800D03*
X148777200Y-76624800D03*
X148277200Y-76624800D03*
X147777200Y-76624800D03*
X147277200Y-76624800D03*
X146777200Y-76624800D03*
X146277200Y-76624800D03*
D15*
X144864700Y-78037300D03*
X144864700Y-78537300D03*
X144864700Y-79037300D03*
X144864700Y-79537300D03*
X144864700Y-80037300D03*
X144864700Y-80537300D03*
X144864700Y-81037300D03*
X144864700Y-81537300D03*
X144864700Y-82037300D03*
X144864700Y-82537300D03*
X144864700Y-83037300D03*
X144864700Y-83537300D03*
D16*
X146277200Y-84949800D03*
X146777200Y-84949800D03*
X147277200Y-84949800D03*
X147777200Y-84949800D03*
X148277200Y-84949800D03*
X148777200Y-84949800D03*
X149277200Y-84949800D03*
X149777200Y-84949800D03*
X150277200Y-84949800D03*
X150777200Y-84949800D03*
X151277200Y-84949800D03*
X151777200Y-84949800D03*
%TD*%
D17*
%TO.C,IC1*%
X148776000Y-96264000D03*
X148776000Y-98575000D03*
X148776000Y-100886000D03*
D18*
X154974000Y-98575000D03*
%TD*%
D14*
%TO.C,R4*%
X134575000Y-70225000D03*
X134575000Y-68525000D03*
%TD*%
D13*
%TO.C,CONNECT0*%
X134525000Y-58975000D03*
X134525000Y-56875000D03*
%TD*%
M02*
