%TF.GenerationSoftware,KiCad,Pcbnew,9.0.7*%
%TF.CreationDate,2026-03-24T21:51:23+00:00*%
%TF.ProjectId,wmk,776d6b2e-6b69-4636-9164-5f7063625858,rev?*%
%TF.SameCoordinates,Original*%
%TF.FileFunction,Soldermask,Top*%
%TF.FilePolarity,Negative*%
%FSLAX46Y46*%
G04 Gerber Fmt 4.6, Leading zero omitted, Abs format (unit mm)*
G04 Created by KiCad (PCBNEW 9.0.7) date 2026-03-24 21:51:23*
%MOMM*%
%LPD*%
G01*
G04 APERTURE LIST*
G04 APERTURE END LIST*
G36*
X134453536Y-125696464D02*
G01*
X134454895Y-125699748D01*
X134456162Y-125700000D01*
X134743838Y-125700000D01*
X134745104Y-125699748D01*
X134746464Y-125696464D01*
X134750000Y-125695000D01*
X135250000Y-125695000D01*
X135253536Y-125696464D01*
X135254701Y-125699278D01*
X135311327Y-125699278D01*
X135315263Y-125699278D01*
X135316557Y-125699448D01*
X135442636Y-125733230D01*
X135443842Y-125733730D01*
X135447244Y-125735694D01*
X135447246Y-125735695D01*
X135553473Y-125797025D01*
X135553475Y-125797026D01*
X135556881Y-125798993D01*
X135557917Y-125799787D01*
X135650213Y-125892083D01*
X135651007Y-125893119D01*
X135716270Y-126006158D01*
X135716770Y-126007364D01*
X135750552Y-126133443D01*
X135750722Y-126134737D01*
X135750722Y-126195298D01*
X135753536Y-126196464D01*
X135755000Y-126200000D01*
X135755000Y-126700000D01*
X135753536Y-126703536D01*
X135750722Y-126704701D01*
X135750722Y-126765263D01*
X135750552Y-126766557D01*
X135716770Y-126892636D01*
X135716270Y-126893842D01*
X135651007Y-127006881D01*
X135650213Y-127007917D01*
X135557917Y-127100213D01*
X135556881Y-127101007D01*
X135443842Y-127166270D01*
X135442636Y-127166770D01*
X135316557Y-127200552D01*
X135315263Y-127200722D01*
X135254701Y-127200722D01*
X135253536Y-127203536D01*
X135250000Y-127205000D01*
X135238066Y-127205000D01*
X134761934Y-127205000D01*
X134750000Y-127205000D01*
X134746464Y-127203536D01*
X134745104Y-127200251D01*
X134743838Y-127200000D01*
X134456162Y-127200000D01*
X134454895Y-127200251D01*
X134453536Y-127203536D01*
X134450000Y-127205000D01*
X134438066Y-127205000D01*
X133961934Y-127205000D01*
X133950000Y-127205000D01*
X133946464Y-127203536D01*
X133945299Y-127200722D01*
X133888673Y-127200722D01*
X133884737Y-127200722D01*
X133883443Y-127200552D01*
X133757364Y-127166770D01*
X133756158Y-127166270D01*
X133643119Y-127101007D01*
X133642083Y-127100213D01*
X133549787Y-127007917D01*
X133548993Y-127006881D01*
X133483730Y-126893842D01*
X133483230Y-126892636D01*
X133449448Y-126766557D01*
X133449278Y-126765263D01*
X133449278Y-126704701D01*
X133446464Y-126703536D01*
X133445000Y-126700000D01*
X133445000Y-126200000D01*
X133446464Y-126196464D01*
X133449278Y-126195298D01*
X133449278Y-126134737D01*
X133449448Y-126133443D01*
X133483230Y-126007364D01*
X133483730Y-126006158D01*
X133485692Y-126002758D01*
X133485695Y-126002753D01*
X133547025Y-125896526D01*
X133547028Y-125896520D01*
X133548993Y-125893119D01*
X133549787Y-125892083D01*
X133642083Y-125799787D01*
X133643119Y-125798993D01*
X133646520Y-125797028D01*
X133646526Y-125797025D01*
X133752753Y-125735695D01*
X133752758Y-125735692D01*
X133756158Y-125733730D01*
X133757364Y-125733230D01*
X133883443Y-125699448D01*
X133884737Y-125699278D01*
X133945299Y-125699278D01*
X133946464Y-125696464D01*
X133950000Y-125695000D01*
X134450000Y-125695000D01*
X134453536Y-125696464D01*
G37*
G36*
X137803536Y-125696464D02*
G01*
X137804895Y-125699748D01*
X137806162Y-125700000D01*
X138093838Y-125700000D01*
X138095104Y-125699748D01*
X138096464Y-125696464D01*
X138100000Y-125695000D01*
X138600000Y-125695000D01*
X138603536Y-125696464D01*
X138604701Y-125699278D01*
X138661327Y-125699278D01*
X138665263Y-125699278D01*
X138666557Y-125699448D01*
X138792636Y-125733230D01*
X138793842Y-125733730D01*
X138797244Y-125735694D01*
X138797246Y-125735695D01*
X138903473Y-125797025D01*
X138903475Y-125797026D01*
X138906881Y-125798993D01*
X138907917Y-125799787D01*
X139000213Y-125892083D01*
X139001007Y-125893119D01*
X139066270Y-126006158D01*
X139066770Y-126007364D01*
X139100552Y-126133443D01*
X139100722Y-126134737D01*
X139100722Y-126195298D01*
X139103536Y-126196464D01*
X139105000Y-126200000D01*
X139105000Y-126700000D01*
X139103536Y-126703536D01*
X139100722Y-126704701D01*
X139100722Y-126765263D01*
X139100552Y-126766557D01*
X139066770Y-126892636D01*
X139066270Y-126893842D01*
X139001007Y-127006881D01*
X139000213Y-127007917D01*
X138907917Y-127100213D01*
X138906881Y-127101007D01*
X138793842Y-127166270D01*
X138792636Y-127166770D01*
X138666557Y-127200552D01*
X138665263Y-127200722D01*
X138604701Y-127200722D01*
X138603536Y-127203536D01*
X138600000Y-127205000D01*
X138588066Y-127205000D01*
X138111934Y-127205000D01*
X138100000Y-127205000D01*
X138096464Y-127203536D01*
X138095104Y-127200251D01*
X138093838Y-127200000D01*
X137806162Y-127200000D01*
X137804895Y-127200251D01*
X137803536Y-127203536D01*
X137800000Y-127205000D01*
X137788066Y-127205000D01*
X137311934Y-127205000D01*
X137300000Y-127205000D01*
X137296464Y-127203536D01*
X137295299Y-127200722D01*
X137238673Y-127200722D01*
X137234737Y-127200722D01*
X137233443Y-127200552D01*
X137107364Y-127166770D01*
X137106158Y-127166270D01*
X136993119Y-127101007D01*
X136992083Y-127100213D01*
X136899787Y-127007917D01*
X136898993Y-127006881D01*
X136833730Y-126893842D01*
X136833230Y-126892636D01*
X136799448Y-126766557D01*
X136799278Y-126765263D01*
X136799278Y-126704701D01*
X136796464Y-126703536D01*
X136795000Y-126700000D01*
X136795000Y-126200000D01*
X136796464Y-126196464D01*
X136799278Y-126195298D01*
X136799278Y-126134737D01*
X136799448Y-126133443D01*
X136833230Y-126007364D01*
X136833730Y-126006158D01*
X136835692Y-126002758D01*
X136835695Y-126002753D01*
X136897025Y-125896526D01*
X136897028Y-125896520D01*
X136898993Y-125893119D01*
X136899787Y-125892083D01*
X136992083Y-125799787D01*
X136993119Y-125798993D01*
X136996520Y-125797028D01*
X136996526Y-125797025D01*
X137102753Y-125735695D01*
X137102758Y-125735692D01*
X137106158Y-125733730D01*
X137107364Y-125733230D01*
X137233443Y-125699448D01*
X137234737Y-125699278D01*
X137295299Y-125699278D01*
X137296464Y-125696464D01*
X137300000Y-125695000D01*
X137800000Y-125695000D01*
X137803536Y-125696464D01*
G37*
G36*
X137090000Y-115385000D02*
G01*
X135390000Y-115385000D01*
X135390000Y-113685000D01*
X137090000Y-113685000D01*
X137090000Y-115385000D01*
G37*
G36*
X133946742Y-113721601D02*
G01*
X134100687Y-113785367D01*
X134239234Y-113877941D01*
X134357059Y-113995766D01*
X134449633Y-114134313D01*
X134513399Y-114288258D01*
X134545907Y-114451685D01*
X134545907Y-114618315D01*
X134513399Y-114781742D01*
X134449633Y-114935687D01*
X134357059Y-115074234D01*
X134239234Y-115192059D01*
X134100687Y-115284633D01*
X133946742Y-115348399D01*
X133783315Y-115380907D01*
X133616685Y-115380907D01*
X133453258Y-115348399D01*
X133299313Y-115284633D01*
X133160766Y-115192059D01*
X133042941Y-115074234D01*
X132950367Y-114935687D01*
X132886601Y-114781742D01*
X132854093Y-114618315D01*
X132854093Y-114451685D01*
X132886601Y-114288258D01*
X132950367Y-114134313D01*
X133042941Y-113995766D01*
X133160766Y-113877941D01*
X133299313Y-113785367D01*
X133453258Y-113721601D01*
X133616685Y-113689093D01*
X133783315Y-113689093D01*
X133946742Y-113721601D01*
G37*
G36*
X133946742Y-111181601D02*
G01*
X134100687Y-111245367D01*
X134239234Y-111337941D01*
X134357059Y-111455766D01*
X134449633Y-111594313D01*
X134513399Y-111748258D01*
X134545907Y-111911685D01*
X134545907Y-112078315D01*
X134513399Y-112241742D01*
X134449633Y-112395687D01*
X134357059Y-112534234D01*
X134239234Y-112652059D01*
X134100687Y-112744633D01*
X133946742Y-112808399D01*
X133783315Y-112840907D01*
X133616685Y-112840907D01*
X133453258Y-112808399D01*
X133299313Y-112744633D01*
X133160766Y-112652059D01*
X133042941Y-112534234D01*
X132950367Y-112395687D01*
X132886601Y-112241742D01*
X132854093Y-112078315D01*
X132854093Y-111911685D01*
X132886601Y-111748258D01*
X132950367Y-111594313D01*
X133042941Y-111455766D01*
X133160766Y-111337941D01*
X133299313Y-111245367D01*
X133453258Y-111181601D01*
X133616685Y-111149093D01*
X133783315Y-111149093D01*
X133946742Y-111181601D01*
G37*
G36*
X136486742Y-111181601D02*
G01*
X136640687Y-111245367D01*
X136779234Y-111337941D01*
X136897059Y-111455766D01*
X136989633Y-111594313D01*
X137053399Y-111748258D01*
X137085907Y-111911685D01*
X137085907Y-112078315D01*
X137053399Y-112241742D01*
X136989633Y-112395687D01*
X136897059Y-112534234D01*
X136779234Y-112652059D01*
X136640687Y-112744633D01*
X136486742Y-112808399D01*
X136323315Y-112840907D01*
X136156685Y-112840907D01*
X135993258Y-112808399D01*
X135839313Y-112744633D01*
X135700766Y-112652059D01*
X135582941Y-112534234D01*
X135490367Y-112395687D01*
X135426601Y-112241742D01*
X135394093Y-112078315D01*
X135394093Y-111911685D01*
X135426601Y-111748258D01*
X135490367Y-111594313D01*
X135582941Y-111455766D01*
X135700766Y-111337941D01*
X135839313Y-111245367D01*
X135993258Y-111181601D01*
X136156685Y-111149093D01*
X136323315Y-111149093D01*
X136486742Y-111181601D01*
G37*
G36*
X133946742Y-108641601D02*
G01*
X134100687Y-108705367D01*
X134239234Y-108797941D01*
X134357059Y-108915766D01*
X134449633Y-109054313D01*
X134513399Y-109208258D01*
X134545907Y-109371685D01*
X134545907Y-109538315D01*
X134513399Y-109701742D01*
X134449633Y-109855687D01*
X134357059Y-109994234D01*
X134239234Y-110112059D01*
X134100687Y-110204633D01*
X133946742Y-110268399D01*
X133783315Y-110300907D01*
X133616685Y-110300907D01*
X133453258Y-110268399D01*
X133299313Y-110204633D01*
X133160766Y-110112059D01*
X133042941Y-109994234D01*
X132950367Y-109855687D01*
X132886601Y-109701742D01*
X132854093Y-109538315D01*
X132854093Y-109371685D01*
X132886601Y-109208258D01*
X132950367Y-109054313D01*
X133042941Y-108915766D01*
X133160766Y-108797941D01*
X133299313Y-108705367D01*
X133453258Y-108641601D01*
X133616685Y-108609093D01*
X133783315Y-108609093D01*
X133946742Y-108641601D01*
G37*
G36*
X136486742Y-108641601D02*
G01*
X136640687Y-108705367D01*
X136779234Y-108797941D01*
X136897059Y-108915766D01*
X136989633Y-109054313D01*
X137053399Y-109208258D01*
X137085907Y-109371685D01*
X137085907Y-109538315D01*
X137053399Y-109701742D01*
X136989633Y-109855687D01*
X136897059Y-109994234D01*
X136779234Y-110112059D01*
X136640687Y-110204633D01*
X136486742Y-110268399D01*
X136323315Y-110300907D01*
X136156685Y-110300907D01*
X135993258Y-110268399D01*
X135839313Y-110204633D01*
X135700766Y-110112059D01*
X135582941Y-109994234D01*
X135490367Y-109855687D01*
X135426601Y-109701742D01*
X135394093Y-109538315D01*
X135394093Y-109371685D01*
X135426601Y-109208258D01*
X135490367Y-109054313D01*
X135582941Y-108915766D01*
X135700766Y-108797941D01*
X135839313Y-108705367D01*
X135993258Y-108641601D01*
X136156685Y-108609093D01*
X136323315Y-108609093D01*
X136486742Y-108641601D01*
G37*
G36*
X133946742Y-106101601D02*
G01*
X134100687Y-106165367D01*
X134239234Y-106257941D01*
X134357059Y-106375766D01*
X134449633Y-106514313D01*
X134513399Y-106668258D01*
X134545907Y-106831685D01*
X134545907Y-106998315D01*
X134513399Y-107161742D01*
X134449633Y-107315687D01*
X134357059Y-107454234D01*
X134239234Y-107572059D01*
X134100687Y-107664633D01*
X133946742Y-107728399D01*
X133783315Y-107760907D01*
X133616685Y-107760907D01*
X133453258Y-107728399D01*
X133299313Y-107664633D01*
X133160766Y-107572059D01*
X133042941Y-107454234D01*
X132950367Y-107315687D01*
X132886601Y-107161742D01*
X132854093Y-106998315D01*
X132854093Y-106831685D01*
X132886601Y-106668258D01*
X132950367Y-106514313D01*
X133042941Y-106375766D01*
X133160766Y-106257941D01*
X133299313Y-106165367D01*
X133453258Y-106101601D01*
X133616685Y-106069093D01*
X133783315Y-106069093D01*
X133946742Y-106101601D01*
G37*
G36*
X136486742Y-106101601D02*
G01*
X136640687Y-106165367D01*
X136779234Y-106257941D01*
X136897059Y-106375766D01*
X136989633Y-106514313D01*
X137053399Y-106668258D01*
X137085907Y-106831685D01*
X137085907Y-106998315D01*
X137053399Y-107161742D01*
X136989633Y-107315687D01*
X136897059Y-107454234D01*
X136779234Y-107572059D01*
X136640687Y-107664633D01*
X136486742Y-107728399D01*
X136323315Y-107760907D01*
X136156685Y-107760907D01*
X135993258Y-107728399D01*
X135839313Y-107664633D01*
X135700766Y-107572059D01*
X135582941Y-107454234D01*
X135490367Y-107315687D01*
X135426601Y-107161742D01*
X135394093Y-106998315D01*
X135394093Y-106831685D01*
X135426601Y-106668258D01*
X135490367Y-106514313D01*
X135582941Y-106375766D01*
X135700766Y-106257941D01*
X135839313Y-106165367D01*
X135993258Y-106101601D01*
X136156685Y-106069093D01*
X136323315Y-106069093D01*
X136486742Y-106101601D01*
G37*
G36*
X151163881Y-103356134D02*
G01*
X151196842Y-103378158D01*
X151218866Y-103411119D01*
X151226600Y-103450000D01*
X151226600Y-105250000D01*
X151218866Y-105288881D01*
X151196842Y-105321842D01*
X151163881Y-105343866D01*
X151125000Y-105351600D01*
X149525000Y-105351600D01*
X149486119Y-105343866D01*
X149453158Y-105321842D01*
X149431134Y-105288881D01*
X149423400Y-105250000D01*
X149423400Y-103450000D01*
X149431134Y-103411119D01*
X149453158Y-103378158D01*
X149486119Y-103356134D01*
X149525000Y-103348400D01*
X151125000Y-103348400D01*
X151163881Y-103356134D01*
G37*
G36*
X153963881Y-103356134D02*
G01*
X153996842Y-103378158D01*
X154018866Y-103411119D01*
X154026600Y-103450000D01*
X154026600Y-105250000D01*
X154018866Y-105288881D01*
X153996842Y-105321842D01*
X153963881Y-105343866D01*
X153925000Y-105351600D01*
X152325000Y-105351600D01*
X152286119Y-105343866D01*
X152253158Y-105321842D01*
X152231134Y-105288881D01*
X152223400Y-105250000D01*
X152223400Y-103450000D01*
X152231134Y-103411119D01*
X152253158Y-103378158D01*
X152286119Y-103356134D01*
X152325000Y-103348400D01*
X153925000Y-103348400D01*
X153963881Y-103356134D01*
G37*
G36*
X133946742Y-103561601D02*
G01*
X134100687Y-103625367D01*
X134239234Y-103717941D01*
X134357059Y-103835766D01*
X134449633Y-103974313D01*
X134513399Y-104128258D01*
X134545907Y-104291685D01*
X134545907Y-104458315D01*
X134513399Y-104621742D01*
X134449633Y-104775687D01*
X134357059Y-104914234D01*
X134239234Y-105032059D01*
X134100687Y-105124633D01*
X133946742Y-105188399D01*
X133783315Y-105220907D01*
X133616685Y-105220907D01*
X133453258Y-105188399D01*
X133299313Y-105124633D01*
X133160766Y-105032059D01*
X133042941Y-104914234D01*
X132950367Y-104775687D01*
X132886601Y-104621742D01*
X132854093Y-104458315D01*
X132854093Y-104291685D01*
X132886601Y-104128258D01*
X132950367Y-103974313D01*
X133042941Y-103835766D01*
X133160766Y-103717941D01*
X133299313Y-103625367D01*
X133453258Y-103561601D01*
X133616685Y-103529093D01*
X133783315Y-103529093D01*
X133946742Y-103561601D01*
G37*
G36*
X136486742Y-103561601D02*
G01*
X136640687Y-103625367D01*
X136779234Y-103717941D01*
X136897059Y-103835766D01*
X136989633Y-103974313D01*
X137053399Y-104128258D01*
X137085907Y-104291685D01*
X137085907Y-104458315D01*
X137053399Y-104621742D01*
X136989633Y-104775687D01*
X136897059Y-104914234D01*
X136779234Y-105032059D01*
X136640687Y-105124633D01*
X136486742Y-105188399D01*
X136323315Y-105220907D01*
X136156685Y-105220907D01*
X135993258Y-105188399D01*
X135839313Y-105124633D01*
X135700766Y-105032059D01*
X135582941Y-104914234D01*
X135490367Y-104775687D01*
X135426601Y-104621742D01*
X135394093Y-104458315D01*
X135394093Y-104291685D01*
X135426601Y-104128258D01*
X135490367Y-103974313D01*
X135582941Y-103835766D01*
X135700766Y-103717941D01*
X135839313Y-103625367D01*
X135993258Y-103561601D01*
X136156685Y-103529093D01*
X136323315Y-103529093D01*
X136486742Y-103561601D01*
G37*
G36*
X159021742Y-102086601D02*
G01*
X159175687Y-102150367D01*
X159314234Y-102242941D01*
X159432059Y-102360766D01*
X159524633Y-102499313D01*
X159588399Y-102653258D01*
X159620907Y-102816685D01*
X159620907Y-102983315D01*
X159588399Y-103146742D01*
X159524633Y-103300687D01*
X159432059Y-103439234D01*
X159314234Y-103557059D01*
X159175687Y-103649633D01*
X159021742Y-103713399D01*
X158858315Y-103745907D01*
X158691685Y-103745907D01*
X158528258Y-103713399D01*
X158374313Y-103649633D01*
X158235766Y-103557059D01*
X158117941Y-103439234D01*
X158025367Y-103300687D01*
X157961601Y-103146742D01*
X157929093Y-102983315D01*
X157929093Y-102816685D01*
X157961601Y-102653258D01*
X158025367Y-102499313D01*
X158117941Y-102360766D01*
X158235766Y-102242941D01*
X158374313Y-102150367D01*
X158528258Y-102086601D01*
X158691685Y-102054093D01*
X158858315Y-102054093D01*
X159021742Y-102086601D01*
G37*
G36*
X149932381Y-100182634D02*
G01*
X149965342Y-100204658D01*
X149987366Y-100237619D01*
X149995100Y-100276500D01*
X149995100Y-101495500D01*
X149987366Y-101534381D01*
X149965342Y-101567342D01*
X149932381Y-101589366D01*
X149893500Y-101597100D01*
X147658500Y-101597100D01*
X147619619Y-101589366D01*
X147586658Y-101567342D01*
X147564634Y-101534381D01*
X147556900Y-101495500D01*
X147556900Y-100276500D01*
X147564634Y-100237619D01*
X147586658Y-100204658D01*
X147619619Y-100182634D01*
X147658500Y-100174900D01*
X149893500Y-100174900D01*
X149932381Y-100182634D01*
G37*
G36*
X159021742Y-99546601D02*
G01*
X159175687Y-99610367D01*
X159314234Y-99702941D01*
X159432059Y-99820766D01*
X159524633Y-99959313D01*
X159588399Y-100113258D01*
X159620907Y-100276685D01*
X159620907Y-100443315D01*
X159588399Y-100606742D01*
X159524633Y-100760687D01*
X159432059Y-100899234D01*
X159314234Y-101017059D01*
X159175687Y-101109633D01*
X159021742Y-101173399D01*
X158858315Y-101205907D01*
X158691685Y-101205907D01*
X158528258Y-101173399D01*
X158374313Y-101109633D01*
X158235766Y-101017059D01*
X158117941Y-100899234D01*
X158025367Y-100760687D01*
X157961601Y-100606742D01*
X157929093Y-100443315D01*
X157929093Y-100276685D01*
X157961601Y-100113258D01*
X158025367Y-99959313D01*
X158117941Y-99820766D01*
X158235766Y-99702941D01*
X158374313Y-99610367D01*
X158528258Y-99546601D01*
X158691685Y-99514093D01*
X158858315Y-99514093D01*
X159021742Y-99546601D01*
G37*
G36*
X156112881Y-96681134D02*
G01*
X156145842Y-96703158D01*
X156167866Y-96736119D01*
X156175600Y-96775000D01*
X156175600Y-100375000D01*
X156167866Y-100413881D01*
X156145842Y-100446842D01*
X156112881Y-100468866D01*
X156074000Y-100476600D01*
X153874000Y-100476600D01*
X153835119Y-100468866D01*
X153802158Y-100446842D01*
X153780134Y-100413881D01*
X153772400Y-100375000D01*
X153772400Y-96775000D01*
X153780134Y-96736119D01*
X153802158Y-96703158D01*
X153835119Y-96681134D01*
X153874000Y-96673400D01*
X156074000Y-96673400D01*
X156112881Y-96681134D01*
G37*
G36*
X149932381Y-97871634D02*
G01*
X149965342Y-97893658D01*
X149987366Y-97926619D01*
X149995100Y-97965500D01*
X149995100Y-99184500D01*
X149987366Y-99223381D01*
X149965342Y-99256342D01*
X149932381Y-99278366D01*
X149893500Y-99286100D01*
X147658500Y-99286100D01*
X147619619Y-99278366D01*
X147586658Y-99256342D01*
X147564634Y-99223381D01*
X147556900Y-99184500D01*
X147556900Y-97965500D01*
X147564634Y-97926619D01*
X147586658Y-97893658D01*
X147619619Y-97871634D01*
X147658500Y-97863900D01*
X149893500Y-97863900D01*
X149932381Y-97871634D01*
G37*
G36*
X159021742Y-97006601D02*
G01*
X159175687Y-97070367D01*
X159314234Y-97162941D01*
X159432059Y-97280766D01*
X159524633Y-97419313D01*
X159588399Y-97573258D01*
X159620907Y-97736685D01*
X159620907Y-97903315D01*
X159588399Y-98066742D01*
X159524633Y-98220687D01*
X159432059Y-98359234D01*
X159314234Y-98477059D01*
X159175687Y-98569633D01*
X159021742Y-98633399D01*
X158858315Y-98665907D01*
X158691685Y-98665907D01*
X158528258Y-98633399D01*
X158374313Y-98569633D01*
X158235766Y-98477059D01*
X158117941Y-98359234D01*
X158025367Y-98220687D01*
X157961601Y-98066742D01*
X157929093Y-97903315D01*
X157929093Y-97736685D01*
X157961601Y-97573258D01*
X158025367Y-97419313D01*
X158117941Y-97280766D01*
X158235766Y-97162941D01*
X158374313Y-97070367D01*
X158528258Y-97006601D01*
X158691685Y-96974093D01*
X158858315Y-96974093D01*
X159021742Y-97006601D01*
G37*
G36*
X149932381Y-95560634D02*
G01*
X149965342Y-95582658D01*
X149987366Y-95615619D01*
X149995100Y-95654500D01*
X149995100Y-96873500D01*
X149987366Y-96912381D01*
X149965342Y-96945342D01*
X149932381Y-96967366D01*
X149893500Y-96975100D01*
X147658500Y-96975100D01*
X147619619Y-96967366D01*
X147586658Y-96945342D01*
X147564634Y-96912381D01*
X147556900Y-96873500D01*
X147556900Y-95654500D01*
X147564634Y-95615619D01*
X147586658Y-95582658D01*
X147619619Y-95560634D01*
X147658500Y-95552900D01*
X149893500Y-95552900D01*
X149932381Y-95560634D01*
G37*
G36*
X159625000Y-96130000D02*
G01*
X157925000Y-96130000D01*
X157925000Y-94430000D01*
X159625000Y-94430000D01*
X159625000Y-96130000D01*
G37*
G36*
X150938881Y-91856134D02*
G01*
X150971842Y-91878158D01*
X150993866Y-91911119D01*
X151001600Y-91950000D01*
X151001600Y-93750000D01*
X150993866Y-93788881D01*
X150971842Y-93821842D01*
X150938881Y-93843866D01*
X150900000Y-93851600D01*
X149300000Y-93851600D01*
X149261119Y-93843866D01*
X149228158Y-93821842D01*
X149206134Y-93788881D01*
X149198400Y-93750000D01*
X149198400Y-91950000D01*
X149206134Y-91911119D01*
X149228158Y-91878158D01*
X149261119Y-91856134D01*
X149300000Y-91848400D01*
X150900000Y-91848400D01*
X150938881Y-91856134D01*
G37*
G36*
X153738881Y-91856134D02*
G01*
X153771842Y-91878158D01*
X153793866Y-91911119D01*
X153801600Y-91950000D01*
X153801600Y-93750000D01*
X153793866Y-93788881D01*
X153771842Y-93821842D01*
X153738881Y-93843866D01*
X153700000Y-93851600D01*
X152100000Y-93851600D01*
X152061119Y-93843866D01*
X152028158Y-93821842D01*
X152006134Y-93788881D01*
X151998400Y-93750000D01*
X151998400Y-91950000D01*
X152006134Y-91911119D01*
X152028158Y-91878158D01*
X152061119Y-91856134D01*
X152100000Y-91848400D01*
X153700000Y-91848400D01*
X153738881Y-91856134D01*
G37*
G36*
X137065000Y-89510000D02*
G01*
X135365000Y-89510000D01*
X135365000Y-87810000D01*
X137065000Y-87810000D01*
X137065000Y-89510000D01*
G37*
G36*
X133921742Y-87846601D02*
G01*
X134075687Y-87910367D01*
X134214234Y-88002941D01*
X134332059Y-88120766D01*
X134424633Y-88259313D01*
X134488399Y-88413258D01*
X134520907Y-88576685D01*
X134520907Y-88743315D01*
X134488399Y-88906742D01*
X134424633Y-89060687D01*
X134332059Y-89199234D01*
X134214234Y-89317059D01*
X134075687Y-89409633D01*
X133921742Y-89473399D01*
X133758315Y-89505907D01*
X133591685Y-89505907D01*
X133428258Y-89473399D01*
X133274313Y-89409633D01*
X133135766Y-89317059D01*
X133017941Y-89199234D01*
X132925367Y-89060687D01*
X132861601Y-88906742D01*
X132829093Y-88743315D01*
X132829093Y-88576685D01*
X132861601Y-88413258D01*
X132925367Y-88259313D01*
X133017941Y-88120766D01*
X133135766Y-88002941D01*
X133274313Y-87910367D01*
X133428258Y-87846601D01*
X133591685Y-87814093D01*
X133758315Y-87814093D01*
X133921742Y-87846601D01*
G37*
G36*
X133921742Y-85306601D02*
G01*
X134075687Y-85370367D01*
X134214234Y-85462941D01*
X134332059Y-85580766D01*
X134424633Y-85719313D01*
X134488399Y-85873258D01*
X134520907Y-86036685D01*
X134520907Y-86203315D01*
X134488399Y-86366742D01*
X134424633Y-86520687D01*
X134332059Y-86659234D01*
X134214234Y-86777059D01*
X134075687Y-86869633D01*
X133921742Y-86933399D01*
X133758315Y-86965907D01*
X133591685Y-86965907D01*
X133428258Y-86933399D01*
X133274313Y-86869633D01*
X133135766Y-86777059D01*
X133017941Y-86659234D01*
X132925367Y-86520687D01*
X132861601Y-86366742D01*
X132829093Y-86203315D01*
X132829093Y-86036685D01*
X132861601Y-85873258D01*
X132925367Y-85719313D01*
X133017941Y-85580766D01*
X133135766Y-85462941D01*
X133274313Y-85370367D01*
X133428258Y-85306601D01*
X133591685Y-85274093D01*
X133758315Y-85274093D01*
X133921742Y-85306601D01*
G37*
G36*
X136461742Y-85306601D02*
G01*
X136615687Y-85370367D01*
X136754234Y-85462941D01*
X136872059Y-85580766D01*
X136964633Y-85719313D01*
X137028399Y-85873258D01*
X137060907Y-86036685D01*
X137060907Y-86203315D01*
X137028399Y-86366742D01*
X136964633Y-86520687D01*
X136872059Y-86659234D01*
X136754234Y-86777059D01*
X136615687Y-86869633D01*
X136461742Y-86933399D01*
X136298315Y-86965907D01*
X136131685Y-86965907D01*
X135968258Y-86933399D01*
X135814313Y-86869633D01*
X135675766Y-86777059D01*
X135557941Y-86659234D01*
X135465367Y-86520687D01*
X135401601Y-86366742D01*
X135369093Y-86203315D01*
X135369093Y-86036685D01*
X135401601Y-85873258D01*
X135465367Y-85719313D01*
X135557941Y-85580766D01*
X135675766Y-85462941D01*
X135814313Y-85370367D01*
X135968258Y-85306601D01*
X136131685Y-85274093D01*
X136298315Y-85274093D01*
X136461742Y-85306601D01*
G37*
G36*
X146380901Y-84218009D02*
G01*
X146405233Y-84234267D01*
X146421491Y-84258599D01*
X146427200Y-84287300D01*
X146427200Y-85612300D01*
X146421491Y-85641001D01*
X146405233Y-85665333D01*
X146380901Y-85681591D01*
X146352200Y-85687300D01*
X146202200Y-85687300D01*
X146173499Y-85681591D01*
X146149167Y-85665333D01*
X146132909Y-85641001D01*
X146127200Y-85612300D01*
X146127200Y-84287300D01*
X146132909Y-84258599D01*
X146149167Y-84234267D01*
X146173499Y-84218009D01*
X146202200Y-84212300D01*
X146352200Y-84212300D01*
X146380901Y-84218009D01*
G37*
G36*
X146880901Y-84218009D02*
G01*
X146905233Y-84234267D01*
X146921491Y-84258599D01*
X146927200Y-84287300D01*
X146927200Y-85612300D01*
X146921491Y-85641001D01*
X146905233Y-85665333D01*
X146880901Y-85681591D01*
X146852200Y-85687300D01*
X146702200Y-85687300D01*
X146673499Y-85681591D01*
X146649167Y-85665333D01*
X146632909Y-85641001D01*
X146627200Y-85612300D01*
X146627200Y-84287300D01*
X146632909Y-84258599D01*
X146649167Y-84234267D01*
X146673499Y-84218009D01*
X146702200Y-84212300D01*
X146852200Y-84212300D01*
X146880901Y-84218009D01*
G37*
G36*
X147380901Y-84218009D02*
G01*
X147405233Y-84234267D01*
X147421491Y-84258599D01*
X147427200Y-84287300D01*
X147427200Y-85612300D01*
X147421491Y-85641001D01*
X147405233Y-85665333D01*
X147380901Y-85681591D01*
X147352200Y-85687300D01*
X147202200Y-85687300D01*
X147173499Y-85681591D01*
X147149167Y-85665333D01*
X147132909Y-85641001D01*
X147127200Y-85612300D01*
X147127200Y-84287300D01*
X147132909Y-84258599D01*
X147149167Y-84234267D01*
X147173499Y-84218009D01*
X147202200Y-84212300D01*
X147352200Y-84212300D01*
X147380901Y-84218009D01*
G37*
G36*
X147880901Y-84218009D02*
G01*
X147905233Y-84234267D01*
X147921491Y-84258599D01*
X147927200Y-84287300D01*
X147927200Y-85612300D01*
X147921491Y-85641001D01*
X147905233Y-85665333D01*
X147880901Y-85681591D01*
X147852200Y-85687300D01*
X147702200Y-85687300D01*
X147673499Y-85681591D01*
X147649167Y-85665333D01*
X147632909Y-85641001D01*
X147627200Y-85612300D01*
X147627200Y-84287300D01*
X147632909Y-84258599D01*
X147649167Y-84234267D01*
X147673499Y-84218009D01*
X147702200Y-84212300D01*
X147852200Y-84212300D01*
X147880901Y-84218009D01*
G37*
G36*
X148380901Y-84218009D02*
G01*
X148405233Y-84234267D01*
X148421491Y-84258599D01*
X148427200Y-84287300D01*
X148427200Y-85612300D01*
X148421491Y-85641001D01*
X148405233Y-85665333D01*
X148380901Y-85681591D01*
X148352200Y-85687300D01*
X148202200Y-85687300D01*
X148173499Y-85681591D01*
X148149167Y-85665333D01*
X148132909Y-85641001D01*
X148127200Y-85612300D01*
X148127200Y-84287300D01*
X148132909Y-84258599D01*
X148149167Y-84234267D01*
X148173499Y-84218009D01*
X148202200Y-84212300D01*
X148352200Y-84212300D01*
X148380901Y-84218009D01*
G37*
G36*
X148880901Y-84218009D02*
G01*
X148905233Y-84234267D01*
X148921491Y-84258599D01*
X148927200Y-84287300D01*
X148927200Y-85612300D01*
X148921491Y-85641001D01*
X148905233Y-85665333D01*
X148880901Y-85681591D01*
X148852200Y-85687300D01*
X148702200Y-85687300D01*
X148673499Y-85681591D01*
X148649167Y-85665333D01*
X148632909Y-85641001D01*
X148627200Y-85612300D01*
X148627200Y-84287300D01*
X148632909Y-84258599D01*
X148649167Y-84234267D01*
X148673499Y-84218009D01*
X148702200Y-84212300D01*
X148852200Y-84212300D01*
X148880901Y-84218009D01*
G37*
G36*
X149380901Y-84218009D02*
G01*
X149405233Y-84234267D01*
X149421491Y-84258599D01*
X149427200Y-84287300D01*
X149427200Y-85612300D01*
X149421491Y-85641001D01*
X149405233Y-85665333D01*
X149380901Y-85681591D01*
X149352200Y-85687300D01*
X149202200Y-85687300D01*
X149173499Y-85681591D01*
X149149167Y-85665333D01*
X149132909Y-85641001D01*
X149127200Y-85612300D01*
X149127200Y-84287300D01*
X149132909Y-84258599D01*
X149149167Y-84234267D01*
X149173499Y-84218009D01*
X149202200Y-84212300D01*
X149352200Y-84212300D01*
X149380901Y-84218009D01*
G37*
G36*
X149880901Y-84218009D02*
G01*
X149905233Y-84234267D01*
X149921491Y-84258599D01*
X149927200Y-84287300D01*
X149927200Y-85612300D01*
X149921491Y-85641001D01*
X149905233Y-85665333D01*
X149880901Y-85681591D01*
X149852200Y-85687300D01*
X149702200Y-85687300D01*
X149673499Y-85681591D01*
X149649167Y-85665333D01*
X149632909Y-85641001D01*
X149627200Y-85612300D01*
X149627200Y-84287300D01*
X149632909Y-84258599D01*
X149649167Y-84234267D01*
X149673499Y-84218009D01*
X149702200Y-84212300D01*
X149852200Y-84212300D01*
X149880901Y-84218009D01*
G37*
G36*
X150380901Y-84218009D02*
G01*
X150405233Y-84234267D01*
X150421491Y-84258599D01*
X150427200Y-84287300D01*
X150427200Y-85612300D01*
X150421491Y-85641001D01*
X150405233Y-85665333D01*
X150380901Y-85681591D01*
X150352200Y-85687300D01*
X150202200Y-85687300D01*
X150173499Y-85681591D01*
X150149167Y-85665333D01*
X150132909Y-85641001D01*
X150127200Y-85612300D01*
X150127200Y-84287300D01*
X150132909Y-84258599D01*
X150149167Y-84234267D01*
X150173499Y-84218009D01*
X150202200Y-84212300D01*
X150352200Y-84212300D01*
X150380901Y-84218009D01*
G37*
G36*
X150880901Y-84218009D02*
G01*
X150905233Y-84234267D01*
X150921491Y-84258599D01*
X150927200Y-84287300D01*
X150927200Y-85612300D01*
X150921491Y-85641001D01*
X150905233Y-85665333D01*
X150880901Y-85681591D01*
X150852200Y-85687300D01*
X150702200Y-85687300D01*
X150673499Y-85681591D01*
X150649167Y-85665333D01*
X150632909Y-85641001D01*
X150627200Y-85612300D01*
X150627200Y-84287300D01*
X150632909Y-84258599D01*
X150649167Y-84234267D01*
X150673499Y-84218009D01*
X150702200Y-84212300D01*
X150852200Y-84212300D01*
X150880901Y-84218009D01*
G37*
G36*
X151380901Y-84218009D02*
G01*
X151405233Y-84234267D01*
X151421491Y-84258599D01*
X151427200Y-84287300D01*
X151427200Y-85612300D01*
X151421491Y-85641001D01*
X151405233Y-85665333D01*
X151380901Y-85681591D01*
X151352200Y-85687300D01*
X151202200Y-85687300D01*
X151173499Y-85681591D01*
X151149167Y-85665333D01*
X151132909Y-85641001D01*
X151127200Y-85612300D01*
X151127200Y-84287300D01*
X151132909Y-84258599D01*
X151149167Y-84234267D01*
X151173499Y-84218009D01*
X151202200Y-84212300D01*
X151352200Y-84212300D01*
X151380901Y-84218009D01*
G37*
G36*
X151880901Y-84218009D02*
G01*
X151905233Y-84234267D01*
X151921491Y-84258599D01*
X151927200Y-84287300D01*
X151927200Y-85612300D01*
X151921491Y-85641001D01*
X151905233Y-85665333D01*
X151880901Y-85681591D01*
X151852200Y-85687300D01*
X151702200Y-85687300D01*
X151673499Y-85681591D01*
X151649167Y-85665333D01*
X151632909Y-85641001D01*
X151627200Y-85612300D01*
X151627200Y-84287300D01*
X151632909Y-84258599D01*
X151649167Y-84234267D01*
X151673499Y-84218009D01*
X151702200Y-84212300D01*
X151852200Y-84212300D01*
X151880901Y-84218009D01*
G37*
G36*
X133921742Y-82766601D02*
G01*
X134075687Y-82830367D01*
X134214234Y-82922941D01*
X134332059Y-83040766D01*
X134424633Y-83179313D01*
X134488399Y-83333258D01*
X134520907Y-83496685D01*
X134520907Y-83663315D01*
X134488399Y-83826742D01*
X134424633Y-83980687D01*
X134332059Y-84119234D01*
X134214234Y-84237059D01*
X134075687Y-84329633D01*
X133921742Y-84393399D01*
X133758315Y-84425907D01*
X133591685Y-84425907D01*
X133428258Y-84393399D01*
X133274313Y-84329633D01*
X133135766Y-84237059D01*
X133017941Y-84119234D01*
X132925367Y-83980687D01*
X132861601Y-83826742D01*
X132829093Y-83663315D01*
X132829093Y-83496685D01*
X132861601Y-83333258D01*
X132925367Y-83179313D01*
X133017941Y-83040766D01*
X133135766Y-82922941D01*
X133274313Y-82830367D01*
X133428258Y-82766601D01*
X133591685Y-82734093D01*
X133758315Y-82734093D01*
X133921742Y-82766601D01*
G37*
G36*
X136461742Y-82766601D02*
G01*
X136615687Y-82830367D01*
X136754234Y-82922941D01*
X136872059Y-83040766D01*
X136964633Y-83179313D01*
X137028399Y-83333258D01*
X137060907Y-83496685D01*
X137060907Y-83663315D01*
X137028399Y-83826742D01*
X136964633Y-83980687D01*
X136872059Y-84119234D01*
X136754234Y-84237059D01*
X136615687Y-84329633D01*
X136461742Y-84393399D01*
X136298315Y-84425907D01*
X136131685Y-84425907D01*
X135968258Y-84393399D01*
X135814313Y-84329633D01*
X135675766Y-84237059D01*
X135557941Y-84119234D01*
X135465367Y-83980687D01*
X135401601Y-83826742D01*
X135369093Y-83663315D01*
X135369093Y-83496685D01*
X135401601Y-83333258D01*
X135465367Y-83179313D01*
X135557941Y-83040766D01*
X135675766Y-82922941D01*
X135814313Y-82830367D01*
X135968258Y-82766601D01*
X136131685Y-82734093D01*
X136298315Y-82734093D01*
X136461742Y-82766601D01*
G37*
G36*
X145555901Y-83393009D02*
G01*
X145580233Y-83409267D01*
X145596491Y-83433599D01*
X145602200Y-83462300D01*
X145602200Y-83612300D01*
X145596491Y-83641001D01*
X145580233Y-83665333D01*
X145555901Y-83681591D01*
X145527200Y-83687300D01*
X144202200Y-83687300D01*
X144173499Y-83681591D01*
X144149167Y-83665333D01*
X144132909Y-83641001D01*
X144127200Y-83612300D01*
X144127200Y-83462300D01*
X144132909Y-83433599D01*
X144149167Y-83409267D01*
X144173499Y-83393009D01*
X144202200Y-83387300D01*
X145527200Y-83387300D01*
X145555901Y-83393009D01*
G37*
G36*
X153880901Y-83393009D02*
G01*
X153905233Y-83409267D01*
X153921491Y-83433599D01*
X153927200Y-83462300D01*
X153927200Y-83612300D01*
X153921491Y-83641001D01*
X153905233Y-83665333D01*
X153880901Y-83681591D01*
X153852200Y-83687300D01*
X152527200Y-83687300D01*
X152498499Y-83681591D01*
X152474167Y-83665333D01*
X152457909Y-83641001D01*
X152452200Y-83612300D01*
X152452200Y-83462300D01*
X152457909Y-83433599D01*
X152474167Y-83409267D01*
X152498499Y-83393009D01*
X152527200Y-83387300D01*
X153852200Y-83387300D01*
X153880901Y-83393009D01*
G37*
G36*
X145555901Y-82893009D02*
G01*
X145580233Y-82909267D01*
X145596491Y-82933599D01*
X145602200Y-82962300D01*
X145602200Y-83112300D01*
X145596491Y-83141001D01*
X145580233Y-83165333D01*
X145555901Y-83181591D01*
X145527200Y-83187300D01*
X144202200Y-83187300D01*
X144173499Y-83181591D01*
X144149167Y-83165333D01*
X144132909Y-83141001D01*
X144127200Y-83112300D01*
X144127200Y-82962300D01*
X144132909Y-82933599D01*
X144149167Y-82909267D01*
X144173499Y-82893009D01*
X144202200Y-82887300D01*
X145527200Y-82887300D01*
X145555901Y-82893009D01*
G37*
G36*
X153880901Y-82893009D02*
G01*
X153905233Y-82909267D01*
X153921491Y-82933599D01*
X153927200Y-82962300D01*
X153927200Y-83112300D01*
X153921491Y-83141001D01*
X153905233Y-83165333D01*
X153880901Y-83181591D01*
X153852200Y-83187300D01*
X152527200Y-83187300D01*
X152498499Y-83181591D01*
X152474167Y-83165333D01*
X152457909Y-83141001D01*
X152452200Y-83112300D01*
X152452200Y-82962300D01*
X152457909Y-82933599D01*
X152474167Y-82909267D01*
X152498499Y-82893009D01*
X152527200Y-82887300D01*
X153852200Y-82887300D01*
X153880901Y-82893009D01*
G37*
G36*
X145555901Y-82393009D02*
G01*
X145580233Y-82409267D01*
X145596491Y-82433599D01*
X145602200Y-82462300D01*
X145602200Y-82612300D01*
X145596491Y-82641001D01*
X145580233Y-82665333D01*
X145555901Y-82681591D01*
X145527200Y-82687300D01*
X144202200Y-82687300D01*
X144173499Y-82681591D01*
X144149167Y-82665333D01*
X144132909Y-82641001D01*
X144127200Y-82612300D01*
X144127200Y-82462300D01*
X144132909Y-82433599D01*
X144149167Y-82409267D01*
X144173499Y-82393009D01*
X144202200Y-82387300D01*
X145527200Y-82387300D01*
X145555901Y-82393009D01*
G37*
G36*
X153880901Y-82393009D02*
G01*
X153905233Y-82409267D01*
X153921491Y-82433599D01*
X153927200Y-82462300D01*
X153927200Y-82612300D01*
X153921491Y-82641001D01*
X153905233Y-82665333D01*
X153880901Y-82681591D01*
X153852200Y-82687300D01*
X152527200Y-82687300D01*
X152498499Y-82681591D01*
X152474167Y-82665333D01*
X152457909Y-82641001D01*
X152452200Y-82612300D01*
X152452200Y-82462300D01*
X152457909Y-82433599D01*
X152474167Y-82409267D01*
X152498499Y-82393009D01*
X152527200Y-82387300D01*
X153852200Y-82387300D01*
X153880901Y-82393009D01*
G37*
G36*
X145555901Y-81893009D02*
G01*
X145580233Y-81909267D01*
X145596491Y-81933599D01*
X145602200Y-81962300D01*
X145602200Y-82112300D01*
X145596491Y-82141001D01*
X145580233Y-82165333D01*
X145555901Y-82181591D01*
X145527200Y-82187300D01*
X144202200Y-82187300D01*
X144173499Y-82181591D01*
X144149167Y-82165333D01*
X144132909Y-82141001D01*
X144127200Y-82112300D01*
X144127200Y-81962300D01*
X144132909Y-81933599D01*
X144149167Y-81909267D01*
X144173499Y-81893009D01*
X144202200Y-81887300D01*
X145527200Y-81887300D01*
X145555901Y-81893009D01*
G37*
G36*
X153880901Y-81893009D02*
G01*
X153905233Y-81909267D01*
X153921491Y-81933599D01*
X153927200Y-81962300D01*
X153927200Y-82112300D01*
X153921491Y-82141001D01*
X153905233Y-82165333D01*
X153880901Y-82181591D01*
X153852200Y-82187300D01*
X152527200Y-82187300D01*
X152498499Y-82181591D01*
X152474167Y-82165333D01*
X152457909Y-82141001D01*
X152452200Y-82112300D01*
X152452200Y-81962300D01*
X152457909Y-81933599D01*
X152474167Y-81909267D01*
X152498499Y-81893009D01*
X152527200Y-81887300D01*
X153852200Y-81887300D01*
X153880901Y-81893009D01*
G37*
G36*
X133921742Y-80226601D02*
G01*
X134075687Y-80290367D01*
X134214234Y-80382941D01*
X134332059Y-80500766D01*
X134424633Y-80639313D01*
X134488399Y-80793258D01*
X134520907Y-80956685D01*
X134520907Y-81123315D01*
X134488399Y-81286742D01*
X134424633Y-81440687D01*
X134332059Y-81579234D01*
X134214234Y-81697059D01*
X134075687Y-81789633D01*
X133921742Y-81853399D01*
X133758315Y-81885907D01*
X133591685Y-81885907D01*
X133428258Y-81853399D01*
X133274313Y-81789633D01*
X133135766Y-81697059D01*
X133017941Y-81579234D01*
X132925367Y-81440687D01*
X132861601Y-81286742D01*
X132829093Y-81123315D01*
X132829093Y-80956685D01*
X132861601Y-80793258D01*
X132925367Y-80639313D01*
X133017941Y-80500766D01*
X133135766Y-80382941D01*
X133274313Y-80290367D01*
X133428258Y-80226601D01*
X133591685Y-80194093D01*
X133758315Y-80194093D01*
X133921742Y-80226601D01*
G37*
G36*
X136461742Y-80226601D02*
G01*
X136615687Y-80290367D01*
X136754234Y-80382941D01*
X136872059Y-80500766D01*
X136964633Y-80639313D01*
X137028399Y-80793258D01*
X137060907Y-80956685D01*
X137060907Y-81123315D01*
X137028399Y-81286742D01*
X136964633Y-81440687D01*
X136872059Y-81579234D01*
X136754234Y-81697059D01*
X136615687Y-81789633D01*
X136461742Y-81853399D01*
X136298315Y-81885907D01*
X136131685Y-81885907D01*
X135968258Y-81853399D01*
X135814313Y-81789633D01*
X135675766Y-81697059D01*
X135557941Y-81579234D01*
X135465367Y-81440687D01*
X135401601Y-81286742D01*
X135369093Y-81123315D01*
X135369093Y-80956685D01*
X135401601Y-80793258D01*
X135465367Y-80639313D01*
X135557941Y-80500766D01*
X135675766Y-80382941D01*
X135814313Y-80290367D01*
X135968258Y-80226601D01*
X136131685Y-80194093D01*
X136298315Y-80194093D01*
X136461742Y-80226601D01*
G37*
G36*
X145555901Y-81393009D02*
G01*
X145580233Y-81409267D01*
X145596491Y-81433599D01*
X145602200Y-81462300D01*
X145602200Y-81612300D01*
X145596491Y-81641001D01*
X145580233Y-81665333D01*
X145555901Y-81681591D01*
X145527200Y-81687300D01*
X144202200Y-81687300D01*
X144173499Y-81681591D01*
X144149167Y-81665333D01*
X144132909Y-81641001D01*
X144127200Y-81612300D01*
X144127200Y-81462300D01*
X144132909Y-81433599D01*
X144149167Y-81409267D01*
X144173499Y-81393009D01*
X144202200Y-81387300D01*
X145527200Y-81387300D01*
X145555901Y-81393009D01*
G37*
G36*
X153880901Y-81393009D02*
G01*
X153905233Y-81409267D01*
X153921491Y-81433599D01*
X153927200Y-81462300D01*
X153927200Y-81612300D01*
X153921491Y-81641001D01*
X153905233Y-81665333D01*
X153880901Y-81681591D01*
X153852200Y-81687300D01*
X152527200Y-81687300D01*
X152498499Y-81681591D01*
X152474167Y-81665333D01*
X152457909Y-81641001D01*
X152452200Y-81612300D01*
X152452200Y-81462300D01*
X152457909Y-81433599D01*
X152474167Y-81409267D01*
X152498499Y-81393009D01*
X152527200Y-81387300D01*
X153852200Y-81387300D01*
X153880901Y-81393009D01*
G37*
G36*
X145555901Y-80893009D02*
G01*
X145580233Y-80909267D01*
X145596491Y-80933599D01*
X145602200Y-80962300D01*
X145602200Y-81112300D01*
X145596491Y-81141001D01*
X145580233Y-81165333D01*
X145555901Y-81181591D01*
X145527200Y-81187300D01*
X144202200Y-81187300D01*
X144173499Y-81181591D01*
X144149167Y-81165333D01*
X144132909Y-81141001D01*
X144127200Y-81112300D01*
X144127200Y-80962300D01*
X144132909Y-80933599D01*
X144149167Y-80909267D01*
X144173499Y-80893009D01*
X144202200Y-80887300D01*
X145527200Y-80887300D01*
X145555901Y-80893009D01*
G37*
G36*
X153880901Y-80893009D02*
G01*
X153905233Y-80909267D01*
X153921491Y-80933599D01*
X153927200Y-80962300D01*
X153927200Y-81112300D01*
X153921491Y-81141001D01*
X153905233Y-81165333D01*
X153880901Y-81181591D01*
X153852200Y-81187300D01*
X152527200Y-81187300D01*
X152498499Y-81181591D01*
X152474167Y-81165333D01*
X152457909Y-81141001D01*
X152452200Y-81112300D01*
X152452200Y-80962300D01*
X152457909Y-80933599D01*
X152474167Y-80909267D01*
X152498499Y-80893009D01*
X152527200Y-80887300D01*
X153852200Y-80887300D01*
X153880901Y-80893009D01*
G37*
G36*
X145555901Y-80393009D02*
G01*
X145580233Y-80409267D01*
X145596491Y-80433599D01*
X145602200Y-80462300D01*
X145602200Y-80612300D01*
X145596491Y-80641001D01*
X145580233Y-80665333D01*
X145555901Y-80681591D01*
X145527200Y-80687300D01*
X144202200Y-80687300D01*
X144173499Y-80681591D01*
X144149167Y-80665333D01*
X144132909Y-80641001D01*
X144127200Y-80612300D01*
X144127200Y-80462300D01*
X144132909Y-80433599D01*
X144149167Y-80409267D01*
X144173499Y-80393009D01*
X144202200Y-80387300D01*
X145527200Y-80387300D01*
X145555901Y-80393009D01*
G37*
G36*
X153880901Y-80393009D02*
G01*
X153905233Y-80409267D01*
X153921491Y-80433599D01*
X153927200Y-80462300D01*
X153927200Y-80612300D01*
X153921491Y-80641001D01*
X153905233Y-80665333D01*
X153880901Y-80681591D01*
X153852200Y-80687300D01*
X152527200Y-80687300D01*
X152498499Y-80681591D01*
X152474167Y-80665333D01*
X152457909Y-80641001D01*
X152452200Y-80612300D01*
X152452200Y-80462300D01*
X152457909Y-80433599D01*
X152474167Y-80409267D01*
X152498499Y-80393009D01*
X152527200Y-80387300D01*
X153852200Y-80387300D01*
X153880901Y-80393009D01*
G37*
G36*
X145555901Y-79893009D02*
G01*
X145580233Y-79909267D01*
X145596491Y-79933599D01*
X145602200Y-79962300D01*
X145602200Y-80112300D01*
X145596491Y-80141001D01*
X145580233Y-80165333D01*
X145555901Y-80181591D01*
X145527200Y-80187300D01*
X144202200Y-80187300D01*
X144173499Y-80181591D01*
X144149167Y-80165333D01*
X144132909Y-80141001D01*
X144127200Y-80112300D01*
X144127200Y-79962300D01*
X144132909Y-79933599D01*
X144149167Y-79909267D01*
X144173499Y-79893009D01*
X144202200Y-79887300D01*
X145527200Y-79887300D01*
X145555901Y-79893009D01*
G37*
G36*
X153880901Y-79893009D02*
G01*
X153905233Y-79909267D01*
X153921491Y-79933599D01*
X153927200Y-79962300D01*
X153927200Y-80112300D01*
X153921491Y-80141001D01*
X153905233Y-80165333D01*
X153880901Y-80181591D01*
X153852200Y-80187300D01*
X152527200Y-80187300D01*
X152498499Y-80181591D01*
X152474167Y-80165333D01*
X152457909Y-80141001D01*
X152452200Y-80112300D01*
X152452200Y-79962300D01*
X152457909Y-79933599D01*
X152474167Y-79909267D01*
X152498499Y-79893009D01*
X152527200Y-79887300D01*
X153852200Y-79887300D01*
X153880901Y-79893009D01*
G37*
G36*
X145555901Y-79393009D02*
G01*
X145580233Y-79409267D01*
X145596491Y-79433599D01*
X145602200Y-79462300D01*
X145602200Y-79612300D01*
X145596491Y-79641001D01*
X145580233Y-79665333D01*
X145555901Y-79681591D01*
X145527200Y-79687300D01*
X144202200Y-79687300D01*
X144173499Y-79681591D01*
X144149167Y-79665333D01*
X144132909Y-79641001D01*
X144127200Y-79612300D01*
X144127200Y-79462300D01*
X144132909Y-79433599D01*
X144149167Y-79409267D01*
X144173499Y-79393009D01*
X144202200Y-79387300D01*
X145527200Y-79387300D01*
X145555901Y-79393009D01*
G37*
G36*
X153880901Y-79393009D02*
G01*
X153905233Y-79409267D01*
X153921491Y-79433599D01*
X153927200Y-79462300D01*
X153927200Y-79612300D01*
X153921491Y-79641001D01*
X153905233Y-79665333D01*
X153880901Y-79681591D01*
X153852200Y-79687300D01*
X152527200Y-79687300D01*
X152498499Y-79681591D01*
X152474167Y-79665333D01*
X152457909Y-79641001D01*
X152452200Y-79612300D01*
X152452200Y-79462300D01*
X152457909Y-79433599D01*
X152474167Y-79409267D01*
X152498499Y-79393009D01*
X152527200Y-79387300D01*
X153852200Y-79387300D01*
X153880901Y-79393009D01*
G37*
G36*
X133921742Y-77686601D02*
G01*
X134075687Y-77750367D01*
X134214234Y-77842941D01*
X134332059Y-77960766D01*
X134424633Y-78099313D01*
X134488399Y-78253258D01*
X134520907Y-78416685D01*
X134520907Y-78583315D01*
X134488399Y-78746742D01*
X134424633Y-78900687D01*
X134332059Y-79039234D01*
X134214234Y-79157059D01*
X134075687Y-79249633D01*
X133921742Y-79313399D01*
X133758315Y-79345907D01*
X133591685Y-79345907D01*
X133428258Y-79313399D01*
X133274313Y-79249633D01*
X133135766Y-79157059D01*
X133017941Y-79039234D01*
X132925367Y-78900687D01*
X132861601Y-78746742D01*
X132829093Y-78583315D01*
X132829093Y-78416685D01*
X132861601Y-78253258D01*
X132925367Y-78099313D01*
X133017941Y-77960766D01*
X133135766Y-77842941D01*
X133274313Y-77750367D01*
X133428258Y-77686601D01*
X133591685Y-77654093D01*
X133758315Y-77654093D01*
X133921742Y-77686601D01*
G37*
G36*
X136461742Y-77686601D02*
G01*
X136615687Y-77750367D01*
X136754234Y-77842941D01*
X136872059Y-77960766D01*
X136964633Y-78099313D01*
X137028399Y-78253258D01*
X137060907Y-78416685D01*
X137060907Y-78583315D01*
X137028399Y-78746742D01*
X136964633Y-78900687D01*
X136872059Y-79039234D01*
X136754234Y-79157059D01*
X136615687Y-79249633D01*
X136461742Y-79313399D01*
X136298315Y-79345907D01*
X136131685Y-79345907D01*
X135968258Y-79313399D01*
X135814313Y-79249633D01*
X135675766Y-79157059D01*
X135557941Y-79039234D01*
X135465367Y-78900687D01*
X135401601Y-78746742D01*
X135369093Y-78583315D01*
X135369093Y-78416685D01*
X135401601Y-78253258D01*
X135465367Y-78099313D01*
X135557941Y-77960766D01*
X135675766Y-77842941D01*
X135814313Y-77750367D01*
X135968258Y-77686601D01*
X136131685Y-77654093D01*
X136298315Y-77654093D01*
X136461742Y-77686601D01*
G37*
G36*
X145555901Y-78893009D02*
G01*
X145580233Y-78909267D01*
X145596491Y-78933599D01*
X145602200Y-78962300D01*
X145602200Y-79112300D01*
X145596491Y-79141001D01*
X145580233Y-79165333D01*
X145555901Y-79181591D01*
X145527200Y-79187300D01*
X144202200Y-79187300D01*
X144173499Y-79181591D01*
X144149167Y-79165333D01*
X144132909Y-79141001D01*
X144127200Y-79112300D01*
X144127200Y-78962300D01*
X144132909Y-78933599D01*
X144149167Y-78909267D01*
X144173499Y-78893009D01*
X144202200Y-78887300D01*
X145527200Y-78887300D01*
X145555901Y-78893009D01*
G37*
G36*
X153880901Y-78893009D02*
G01*
X153905233Y-78909267D01*
X153921491Y-78933599D01*
X153927200Y-78962300D01*
X153927200Y-79112300D01*
X153921491Y-79141001D01*
X153905233Y-79165333D01*
X153880901Y-79181591D01*
X153852200Y-79187300D01*
X152527200Y-79187300D01*
X152498499Y-79181591D01*
X152474167Y-79165333D01*
X152457909Y-79141001D01*
X152452200Y-79112300D01*
X152452200Y-78962300D01*
X152457909Y-78933599D01*
X152474167Y-78909267D01*
X152498499Y-78893009D01*
X152527200Y-78887300D01*
X153852200Y-78887300D01*
X153880901Y-78893009D01*
G37*
G36*
X145555901Y-78393009D02*
G01*
X145580233Y-78409267D01*
X145596491Y-78433599D01*
X145602200Y-78462300D01*
X145602200Y-78612300D01*
X145596491Y-78641001D01*
X145580233Y-78665333D01*
X145555901Y-78681591D01*
X145527200Y-78687300D01*
X144202200Y-78687300D01*
X144173499Y-78681591D01*
X144149167Y-78665333D01*
X144132909Y-78641001D01*
X144127200Y-78612300D01*
X144127200Y-78462300D01*
X144132909Y-78433599D01*
X144149167Y-78409267D01*
X144173499Y-78393009D01*
X144202200Y-78387300D01*
X145527200Y-78387300D01*
X145555901Y-78393009D01*
G37*
G36*
X153880901Y-78393009D02*
G01*
X153905233Y-78409267D01*
X153921491Y-78433599D01*
X153927200Y-78462300D01*
X153927200Y-78612300D01*
X153921491Y-78641001D01*
X153905233Y-78665333D01*
X153880901Y-78681591D01*
X153852200Y-78687300D01*
X152527200Y-78687300D01*
X152498499Y-78681591D01*
X152474167Y-78665333D01*
X152457909Y-78641001D01*
X152452200Y-78612300D01*
X152452200Y-78462300D01*
X152457909Y-78433599D01*
X152474167Y-78409267D01*
X152498499Y-78393009D01*
X152527200Y-78387300D01*
X153852200Y-78387300D01*
X153880901Y-78393009D01*
G37*
G36*
X145555901Y-77893009D02*
G01*
X145580233Y-77909267D01*
X145596491Y-77933599D01*
X145602200Y-77962300D01*
X145602200Y-78112300D01*
X145596491Y-78141001D01*
X145580233Y-78165333D01*
X145555901Y-78181591D01*
X145527200Y-78187300D01*
X144202200Y-78187300D01*
X144173499Y-78181591D01*
X144149167Y-78165333D01*
X144132909Y-78141001D01*
X144127200Y-78112300D01*
X144127200Y-77962300D01*
X144132909Y-77933599D01*
X144149167Y-77909267D01*
X144173499Y-77893009D01*
X144202200Y-77887300D01*
X145527200Y-77887300D01*
X145555901Y-77893009D01*
G37*
G36*
X153880901Y-77893009D02*
G01*
X153905233Y-77909267D01*
X153921491Y-77933599D01*
X153927200Y-77962300D01*
X153927200Y-78112300D01*
X153921491Y-78141001D01*
X153905233Y-78165333D01*
X153880901Y-78181591D01*
X153852200Y-78187300D01*
X152527200Y-78187300D01*
X152498499Y-78181591D01*
X152474167Y-78165333D01*
X152457909Y-78141001D01*
X152452200Y-78112300D01*
X152452200Y-77962300D01*
X152457909Y-77933599D01*
X152474167Y-77909267D01*
X152498499Y-77893009D01*
X152527200Y-77887300D01*
X153852200Y-77887300D01*
X153880901Y-77893009D01*
G37*
G36*
X146380901Y-75893009D02*
G01*
X146405233Y-75909267D01*
X146421491Y-75933599D01*
X146427200Y-75962300D01*
X146427200Y-77287300D01*
X146421491Y-77316001D01*
X146405233Y-77340333D01*
X146380901Y-77356591D01*
X146352200Y-77362300D01*
X146202200Y-77362300D01*
X146173499Y-77356591D01*
X146149167Y-77340333D01*
X146132909Y-77316001D01*
X146127200Y-77287300D01*
X146127200Y-75962300D01*
X146132909Y-75933599D01*
X146149167Y-75909267D01*
X146173499Y-75893009D01*
X146202200Y-75887300D01*
X146352200Y-75887300D01*
X146380901Y-75893009D01*
G37*
G36*
X146880901Y-75893009D02*
G01*
X146905233Y-75909267D01*
X146921491Y-75933599D01*
X146927200Y-75962300D01*
X146927200Y-77287300D01*
X146921491Y-77316001D01*
X146905233Y-77340333D01*
X146880901Y-77356591D01*
X146852200Y-77362300D01*
X146702200Y-77362300D01*
X146673499Y-77356591D01*
X146649167Y-77340333D01*
X146632909Y-77316001D01*
X146627200Y-77287300D01*
X146627200Y-75962300D01*
X146632909Y-75933599D01*
X146649167Y-75909267D01*
X146673499Y-75893009D01*
X146702200Y-75887300D01*
X146852200Y-75887300D01*
X146880901Y-75893009D01*
G37*
G36*
X147380901Y-75893009D02*
G01*
X147405233Y-75909267D01*
X147421491Y-75933599D01*
X147427200Y-75962300D01*
X147427200Y-77287300D01*
X147421491Y-77316001D01*
X147405233Y-77340333D01*
X147380901Y-77356591D01*
X147352200Y-77362300D01*
X147202200Y-77362300D01*
X147173499Y-77356591D01*
X147149167Y-77340333D01*
X147132909Y-77316001D01*
X147127200Y-77287300D01*
X147127200Y-75962300D01*
X147132909Y-75933599D01*
X147149167Y-75909267D01*
X147173499Y-75893009D01*
X147202200Y-75887300D01*
X147352200Y-75887300D01*
X147380901Y-75893009D01*
G37*
G36*
X147880901Y-75893009D02*
G01*
X147905233Y-75909267D01*
X147921491Y-75933599D01*
X147927200Y-75962300D01*
X147927200Y-77287300D01*
X147921491Y-77316001D01*
X147905233Y-77340333D01*
X147880901Y-77356591D01*
X147852200Y-77362300D01*
X147702200Y-77362300D01*
X147673499Y-77356591D01*
X147649167Y-77340333D01*
X147632909Y-77316001D01*
X147627200Y-77287300D01*
X147627200Y-75962300D01*
X147632909Y-75933599D01*
X147649167Y-75909267D01*
X147673499Y-75893009D01*
X147702200Y-75887300D01*
X147852200Y-75887300D01*
X147880901Y-75893009D01*
G37*
G36*
X148380901Y-75893009D02*
G01*
X148405233Y-75909267D01*
X148421491Y-75933599D01*
X148427200Y-75962300D01*
X148427200Y-77287300D01*
X148421491Y-77316001D01*
X148405233Y-77340333D01*
X148380901Y-77356591D01*
X148352200Y-77362300D01*
X148202200Y-77362300D01*
X148173499Y-77356591D01*
X148149167Y-77340333D01*
X148132909Y-77316001D01*
X148127200Y-77287300D01*
X148127200Y-75962300D01*
X148132909Y-75933599D01*
X148149167Y-75909267D01*
X148173499Y-75893009D01*
X148202200Y-75887300D01*
X148352200Y-75887300D01*
X148380901Y-75893009D01*
G37*
G36*
X148880901Y-75893009D02*
G01*
X148905233Y-75909267D01*
X148921491Y-75933599D01*
X148927200Y-75962300D01*
X148927200Y-77287300D01*
X148921491Y-77316001D01*
X148905233Y-77340333D01*
X148880901Y-77356591D01*
X148852200Y-77362300D01*
X148702200Y-77362300D01*
X148673499Y-77356591D01*
X148649167Y-77340333D01*
X148632909Y-77316001D01*
X148627200Y-77287300D01*
X148627200Y-75962300D01*
X148632909Y-75933599D01*
X148649167Y-75909267D01*
X148673499Y-75893009D01*
X148702200Y-75887300D01*
X148852200Y-75887300D01*
X148880901Y-75893009D01*
G37*
G36*
X149380901Y-75893009D02*
G01*
X149405233Y-75909267D01*
X149421491Y-75933599D01*
X149427200Y-75962300D01*
X149427200Y-77287300D01*
X149421491Y-77316001D01*
X149405233Y-77340333D01*
X149380901Y-77356591D01*
X149352200Y-77362300D01*
X149202200Y-77362300D01*
X149173499Y-77356591D01*
X149149167Y-77340333D01*
X149132909Y-77316001D01*
X149127200Y-77287300D01*
X149127200Y-75962300D01*
X149132909Y-75933599D01*
X149149167Y-75909267D01*
X149173499Y-75893009D01*
X149202200Y-75887300D01*
X149352200Y-75887300D01*
X149380901Y-75893009D01*
G37*
G36*
X149880901Y-75893009D02*
G01*
X149905233Y-75909267D01*
X149921491Y-75933599D01*
X149927200Y-75962300D01*
X149927200Y-77287300D01*
X149921491Y-77316001D01*
X149905233Y-77340333D01*
X149880901Y-77356591D01*
X149852200Y-77362300D01*
X149702200Y-77362300D01*
X149673499Y-77356591D01*
X149649167Y-77340333D01*
X149632909Y-77316001D01*
X149627200Y-77287300D01*
X149627200Y-75962300D01*
X149632909Y-75933599D01*
X149649167Y-75909267D01*
X149673499Y-75893009D01*
X149702200Y-75887300D01*
X149852200Y-75887300D01*
X149880901Y-75893009D01*
G37*
G36*
X150380901Y-75893009D02*
G01*
X150405233Y-75909267D01*
X150421491Y-75933599D01*
X150427200Y-75962300D01*
X150427200Y-77287300D01*
X150421491Y-77316001D01*
X150405233Y-77340333D01*
X150380901Y-77356591D01*
X150352200Y-77362300D01*
X150202200Y-77362300D01*
X150173499Y-77356591D01*
X150149167Y-77340333D01*
X150132909Y-77316001D01*
X150127200Y-77287300D01*
X150127200Y-75962300D01*
X150132909Y-75933599D01*
X150149167Y-75909267D01*
X150173499Y-75893009D01*
X150202200Y-75887300D01*
X150352200Y-75887300D01*
X150380901Y-75893009D01*
G37*
G36*
X150880901Y-75893009D02*
G01*
X150905233Y-75909267D01*
X150921491Y-75933599D01*
X150927200Y-75962300D01*
X150927200Y-77287300D01*
X150921491Y-77316001D01*
X150905233Y-77340333D01*
X150880901Y-77356591D01*
X150852200Y-77362300D01*
X150702200Y-77362300D01*
X150673499Y-77356591D01*
X150649167Y-77340333D01*
X150632909Y-77316001D01*
X150627200Y-77287300D01*
X150627200Y-75962300D01*
X150632909Y-75933599D01*
X150649167Y-75909267D01*
X150673499Y-75893009D01*
X150702200Y-75887300D01*
X150852200Y-75887300D01*
X150880901Y-75893009D01*
G37*
G36*
X151380901Y-75893009D02*
G01*
X151405233Y-75909267D01*
X151421491Y-75933599D01*
X151427200Y-75962300D01*
X151427200Y-77287300D01*
X151421491Y-77316001D01*
X151405233Y-77340333D01*
X151380901Y-77356591D01*
X151352200Y-77362300D01*
X151202200Y-77362300D01*
X151173499Y-77356591D01*
X151149167Y-77340333D01*
X151132909Y-77316001D01*
X151127200Y-77287300D01*
X151127200Y-75962300D01*
X151132909Y-75933599D01*
X151149167Y-75909267D01*
X151173499Y-75893009D01*
X151202200Y-75887300D01*
X151352200Y-75887300D01*
X151380901Y-75893009D01*
G37*
G36*
X151880901Y-75893009D02*
G01*
X151905233Y-75909267D01*
X151921491Y-75933599D01*
X151927200Y-75962300D01*
X151927200Y-77287300D01*
X151921491Y-77316001D01*
X151905233Y-77340333D01*
X151880901Y-77356591D01*
X151852200Y-77362300D01*
X151702200Y-77362300D01*
X151673499Y-77356591D01*
X151649167Y-77340333D01*
X151632909Y-77316001D01*
X151627200Y-77287300D01*
X151627200Y-75962300D01*
X151632909Y-75933599D01*
X151649167Y-75909267D01*
X151673499Y-75893009D01*
X151702200Y-75887300D01*
X151852200Y-75887300D01*
X151880901Y-75893009D01*
G37*
G36*
X148366881Y-69629634D02*
G01*
X148399842Y-69651658D01*
X148421866Y-69684619D01*
X148429600Y-69723500D01*
X148429600Y-71526500D01*
X148421866Y-71565381D01*
X148399842Y-71598342D01*
X148366881Y-71620366D01*
X148328000Y-71628100D01*
X146728000Y-71628100D01*
X146689119Y-71620366D01*
X146656158Y-71598342D01*
X146634134Y-71565381D01*
X146626400Y-71526500D01*
X146626400Y-69723500D01*
X146634134Y-69684619D01*
X146656158Y-69651658D01*
X146689119Y-69629634D01*
X146728000Y-69621900D01*
X148328000Y-69621900D01*
X148366881Y-69629634D01*
G37*
G36*
X151210881Y-69629634D02*
G01*
X151243842Y-69651658D01*
X151265866Y-69684619D01*
X151273600Y-69723500D01*
X151273600Y-71526500D01*
X151265866Y-71565381D01*
X151243842Y-71598342D01*
X151210881Y-71620366D01*
X151172000Y-71628100D01*
X149572000Y-71628100D01*
X149533119Y-71620366D01*
X149500158Y-71598342D01*
X149478134Y-71565381D01*
X149470400Y-71526500D01*
X149470400Y-69723500D01*
X149478134Y-69684619D01*
X149500158Y-69651658D01*
X149533119Y-69629634D01*
X149572000Y-69621900D01*
X151172000Y-69621900D01*
X151210881Y-69629634D01*
G37*
G36*
X133188881Y-69631134D02*
G01*
X133221842Y-69653158D01*
X133243866Y-69686119D01*
X133251600Y-69725000D01*
X133251600Y-70725000D01*
X133243866Y-70763881D01*
X133221842Y-70796842D01*
X133188881Y-70818866D01*
X133150000Y-70826600D01*
X132050000Y-70826600D01*
X132011119Y-70818866D01*
X131978158Y-70796842D01*
X131956134Y-70763881D01*
X131948400Y-70725000D01*
X131948400Y-69725000D01*
X131956134Y-69686119D01*
X131978158Y-69653158D01*
X132011119Y-69631134D01*
X132050000Y-69623400D01*
X133150000Y-69623400D01*
X133188881Y-69631134D01*
G37*
G36*
X135163881Y-69631134D02*
G01*
X135196842Y-69653158D01*
X135218866Y-69686119D01*
X135226600Y-69725000D01*
X135226600Y-70725000D01*
X135218866Y-70763881D01*
X135196842Y-70796842D01*
X135163881Y-70818866D01*
X135125000Y-70826600D01*
X134025000Y-70826600D01*
X133986119Y-70818866D01*
X133953158Y-70796842D01*
X133931134Y-70763881D01*
X133923400Y-70725000D01*
X133923400Y-69725000D01*
X133931134Y-69686119D01*
X133953158Y-69653158D01*
X133986119Y-69631134D01*
X134025000Y-69623400D01*
X135125000Y-69623400D01*
X135163881Y-69631134D01*
G37*
G36*
X159951537Y-68290224D02*
G01*
X160016421Y-68333579D01*
X160059776Y-68398463D01*
X160075000Y-68475000D01*
X160075000Y-69025000D01*
X160059776Y-69101537D01*
X160016421Y-69166421D01*
X159951537Y-69209776D01*
X159875000Y-69225000D01*
X159475000Y-69225000D01*
X159398463Y-69209776D01*
X159333579Y-69166421D01*
X159290224Y-69101537D01*
X159275000Y-69025000D01*
X159275000Y-68475000D01*
X159290224Y-68398463D01*
X159333579Y-68333579D01*
X159398463Y-68290224D01*
X159475000Y-68275000D01*
X159875000Y-68275000D01*
X159951537Y-68290224D01*
G37*
G36*
X161601537Y-68290224D02*
G01*
X161666421Y-68333579D01*
X161709776Y-68398463D01*
X161725000Y-68475000D01*
X161725000Y-69025000D01*
X161709776Y-69101537D01*
X161666421Y-69166421D01*
X161601537Y-69209776D01*
X161525000Y-69225000D01*
X161125000Y-69225000D01*
X161048463Y-69209776D01*
X160983579Y-69166421D01*
X160940224Y-69101537D01*
X160925000Y-69025000D01*
X160925000Y-68475000D01*
X160940224Y-68398463D01*
X160983579Y-68333579D01*
X161048463Y-68290224D01*
X161125000Y-68275000D01*
X161525000Y-68275000D01*
X161601537Y-68290224D01*
G37*
G36*
X133188881Y-67931134D02*
G01*
X133221842Y-67953158D01*
X133243866Y-67986119D01*
X133251600Y-68025000D01*
X133251600Y-69025000D01*
X133243866Y-69063881D01*
X133221842Y-69096842D01*
X133188881Y-69118866D01*
X133150000Y-69126600D01*
X132050000Y-69126600D01*
X132011119Y-69118866D01*
X131978158Y-69096842D01*
X131956134Y-69063881D01*
X131948400Y-69025000D01*
X131948400Y-68025000D01*
X131956134Y-67986119D01*
X131978158Y-67953158D01*
X132011119Y-67931134D01*
X132050000Y-67923400D01*
X133150000Y-67923400D01*
X133188881Y-67931134D01*
G37*
G36*
X135163881Y-67931134D02*
G01*
X135196842Y-67953158D01*
X135218866Y-67986119D01*
X135226600Y-68025000D01*
X135226600Y-69025000D01*
X135218866Y-69063881D01*
X135196842Y-69096842D01*
X135163881Y-69118866D01*
X135125000Y-69126600D01*
X134025000Y-69126600D01*
X133986119Y-69118866D01*
X133953158Y-69096842D01*
X133931134Y-69063881D01*
X133923400Y-69025000D01*
X133923400Y-68025000D01*
X133931134Y-67986119D01*
X133953158Y-67953158D01*
X133986119Y-67931134D01*
X134025000Y-67923400D01*
X135125000Y-67923400D01*
X135163881Y-67931134D01*
G37*
G36*
X140241110Y-63776165D02*
G01*
X140391542Y-63838476D01*
X140526927Y-63928938D01*
X140642062Y-64044073D01*
X140732524Y-64179458D01*
X140794835Y-64329890D01*
X140826600Y-64489587D01*
X140830600Y-64571000D01*
X140830600Y-66029000D01*
X140826600Y-66110413D01*
X140794835Y-66270110D01*
X140732524Y-66420542D01*
X140642062Y-66555927D01*
X140526927Y-66671062D01*
X140391542Y-66761524D01*
X140241110Y-66823835D01*
X140081413Y-66855600D01*
X139918587Y-66855600D01*
X139758890Y-66823835D01*
X139608458Y-66761524D01*
X139473073Y-66671062D01*
X139357938Y-66555927D01*
X139267476Y-66420542D01*
X139205165Y-66270110D01*
X139173400Y-66110413D01*
X139169400Y-66029000D01*
X139169400Y-64571000D01*
X139173400Y-64489587D01*
X139205165Y-64329890D01*
X139267476Y-64179458D01*
X139357938Y-64044073D01*
X139473073Y-63928938D01*
X139608458Y-63838476D01*
X139758890Y-63776165D01*
X139918587Y-63744400D01*
X140081413Y-63744400D01*
X140241110Y-63776165D01*
G37*
G36*
X142741110Y-63776165D02*
G01*
X142891542Y-63838476D01*
X143026927Y-63928938D01*
X143142062Y-64044073D01*
X143232524Y-64179458D01*
X143294835Y-64329890D01*
X143326600Y-64489587D01*
X143330600Y-64571000D01*
X143330600Y-66029000D01*
X143326600Y-66110413D01*
X143294835Y-66270110D01*
X143232524Y-66420542D01*
X143142062Y-66555927D01*
X143026927Y-66671062D01*
X142891542Y-66761524D01*
X142741110Y-66823835D01*
X142581413Y-66855600D01*
X142418587Y-66855600D01*
X142258890Y-66823835D01*
X142108458Y-66761524D01*
X141973073Y-66671062D01*
X141857938Y-66555927D01*
X141767476Y-66420542D01*
X141705165Y-66270110D01*
X141673400Y-66110413D01*
X141669400Y-66029000D01*
X141669400Y-64571000D01*
X141673400Y-64489587D01*
X141705165Y-64329890D01*
X141767476Y-64179458D01*
X141857938Y-64044073D01*
X141973073Y-63928938D01*
X142108458Y-63838476D01*
X142258890Y-63776165D01*
X142418587Y-63744400D01*
X142581413Y-63744400D01*
X142741110Y-63776165D01*
G37*
G36*
X144741110Y-63776165D02*
G01*
X144891542Y-63838476D01*
X145026927Y-63928938D01*
X145142062Y-64044073D01*
X145232524Y-64179458D01*
X145294835Y-64329890D01*
X145326600Y-64489587D01*
X145330600Y-64571000D01*
X145330600Y-66029000D01*
X145326600Y-66110413D01*
X145294835Y-66270110D01*
X145232524Y-66420542D01*
X145142062Y-66555927D01*
X145026927Y-66671062D01*
X144891542Y-66761524D01*
X144741110Y-66823835D01*
X144581413Y-66855600D01*
X144418587Y-66855600D01*
X144258890Y-66823835D01*
X144108458Y-66761524D01*
X143973073Y-66671062D01*
X143857938Y-66555927D01*
X143767476Y-66420542D01*
X143705165Y-66270110D01*
X143673400Y-66110413D01*
X143669400Y-66029000D01*
X143669400Y-64571000D01*
X143673400Y-64489587D01*
X143705165Y-64329890D01*
X143767476Y-64179458D01*
X143857938Y-64044073D01*
X143973073Y-63928938D01*
X144108458Y-63838476D01*
X144258890Y-63776165D01*
X144418587Y-63744400D01*
X144581413Y-63744400D01*
X144741110Y-63776165D01*
G37*
G36*
X147241110Y-63776165D02*
G01*
X147391542Y-63838476D01*
X147526927Y-63928938D01*
X147642062Y-64044073D01*
X147732524Y-64179458D01*
X147794835Y-64329890D01*
X147826600Y-64489587D01*
X147830600Y-64571000D01*
X147830600Y-66029000D01*
X147826600Y-66110413D01*
X147794835Y-66270110D01*
X147732524Y-66420542D01*
X147642062Y-66555927D01*
X147526927Y-66671062D01*
X147391542Y-66761524D01*
X147241110Y-66823835D01*
X147081413Y-66855600D01*
X146918587Y-66855600D01*
X146758890Y-66823835D01*
X146608458Y-66761524D01*
X146473073Y-66671062D01*
X146357938Y-66555927D01*
X146267476Y-66420542D01*
X146205165Y-66270110D01*
X146173400Y-66110413D01*
X146169400Y-66029000D01*
X146169400Y-64571000D01*
X146173400Y-64489587D01*
X146205165Y-64329890D01*
X146267476Y-64179458D01*
X146357938Y-64044073D01*
X146473073Y-63928938D01*
X146608458Y-63838476D01*
X146758890Y-63776165D01*
X146918587Y-63744400D01*
X147081413Y-63744400D01*
X147241110Y-63776165D01*
G37*
G36*
X154440285Y-64143060D02*
G01*
X154621397Y-64218079D01*
X154784393Y-64326990D01*
X154923010Y-64465607D01*
X155031921Y-64628603D01*
X155106940Y-64809715D01*
X155145185Y-65001983D01*
X155145185Y-65198017D01*
X155106940Y-65390285D01*
X155031921Y-65571397D01*
X154923010Y-65734393D01*
X154784393Y-65873010D01*
X154621397Y-65981921D01*
X154440285Y-66056940D01*
X154248017Y-66095185D01*
X154051983Y-66095185D01*
X153859715Y-66056940D01*
X153678603Y-65981921D01*
X153515607Y-65873010D01*
X153376990Y-65734393D01*
X153268079Y-65571397D01*
X153193060Y-65390285D01*
X153154815Y-65198017D01*
X153154815Y-65001983D01*
X153193060Y-64809715D01*
X153268079Y-64628603D01*
X153376990Y-64465607D01*
X153515607Y-64326990D01*
X153678603Y-64218079D01*
X153859715Y-64143060D01*
X154051983Y-64104815D01*
X154248017Y-64104815D01*
X154440285Y-64143060D01*
G37*
G36*
X160940285Y-64143060D02*
G01*
X161121397Y-64218079D01*
X161284393Y-64326990D01*
X161423010Y-64465607D01*
X161531921Y-64628603D01*
X161606940Y-64809715D01*
X161645185Y-65001983D01*
X161645185Y-65198017D01*
X161606940Y-65390285D01*
X161531921Y-65571397D01*
X161423010Y-65734393D01*
X161284393Y-65873010D01*
X161121397Y-65981921D01*
X160940285Y-66056940D01*
X160748017Y-66095185D01*
X160551983Y-66095185D01*
X160359715Y-66056940D01*
X160178603Y-65981921D01*
X160015607Y-65873010D01*
X159876990Y-65734393D01*
X159768079Y-65571397D01*
X159693060Y-65390285D01*
X159654815Y-65198017D01*
X159654815Y-65001983D01*
X159693060Y-64809715D01*
X159768079Y-64628603D01*
X159876990Y-64465607D01*
X160015607Y-64326990D01*
X160178603Y-64218079D01*
X160359715Y-64143060D01*
X160551983Y-64104815D01*
X160748017Y-64104815D01*
X160940285Y-64143060D01*
G37*
G36*
X137292214Y-61081271D02*
G01*
X137523772Y-61156509D01*
X137740709Y-61267044D01*
X137937684Y-61410154D01*
X138109846Y-61582316D01*
X138252956Y-61779291D01*
X138363491Y-61996228D01*
X138438729Y-62227786D01*
X138476817Y-62468263D01*
X138476817Y-62711737D01*
X138438729Y-62952214D01*
X138363491Y-63183772D01*
X138252956Y-63400709D01*
X138109846Y-63597684D01*
X137937684Y-63769846D01*
X137740709Y-63912956D01*
X137523772Y-64023491D01*
X137292214Y-64098729D01*
X137051737Y-64136817D01*
X136808263Y-64136817D01*
X136567786Y-64098729D01*
X136336228Y-64023491D01*
X136119291Y-63912956D01*
X135922316Y-63769846D01*
X135750154Y-63597684D01*
X135607044Y-63400709D01*
X135496509Y-63183772D01*
X135421271Y-62952214D01*
X135383183Y-62711737D01*
X135383183Y-62468263D01*
X135421271Y-62227786D01*
X135496509Y-61996228D01*
X135607044Y-61779291D01*
X135750154Y-61582316D01*
X135922316Y-61410154D01*
X136119291Y-61267044D01*
X136336228Y-61156509D01*
X136567786Y-61081271D01*
X136808263Y-61043183D01*
X137051737Y-61043183D01*
X137292214Y-61081271D01*
G37*
G36*
X150432214Y-61081271D02*
G01*
X150663772Y-61156509D01*
X150880709Y-61267044D01*
X151077684Y-61410154D01*
X151249846Y-61582316D01*
X151392956Y-61779291D01*
X151503491Y-61996228D01*
X151578729Y-62227786D01*
X151616817Y-62468263D01*
X151616817Y-62711737D01*
X151578729Y-62952214D01*
X151503491Y-63183772D01*
X151392956Y-63400709D01*
X151249846Y-63597684D01*
X151077684Y-63769846D01*
X150880709Y-63912956D01*
X150663772Y-64023491D01*
X150432214Y-64098729D01*
X150191737Y-64136817D01*
X149948263Y-64136817D01*
X149707786Y-64098729D01*
X149476228Y-64023491D01*
X149259291Y-63912956D01*
X149062316Y-63769846D01*
X148890154Y-63597684D01*
X148747044Y-63400709D01*
X148636509Y-63183772D01*
X148561271Y-62952214D01*
X148523183Y-62711737D01*
X148523183Y-62468263D01*
X148561271Y-62227786D01*
X148636509Y-61996228D01*
X148747044Y-61779291D01*
X148890154Y-61582316D01*
X149062316Y-61410154D01*
X149259291Y-61267044D01*
X149476228Y-61156509D01*
X149707786Y-61081271D01*
X149948263Y-61043183D01*
X150191737Y-61043183D01*
X150432214Y-61081271D01*
G37*
G36*
X154440285Y-59643060D02*
G01*
X154621397Y-59718079D01*
X154784393Y-59826990D01*
X154923010Y-59965607D01*
X155031921Y-60128603D01*
X155106940Y-60309715D01*
X155145185Y-60501983D01*
X155145185Y-60698017D01*
X155106940Y-60890285D01*
X155031921Y-61071397D01*
X154923010Y-61234393D01*
X154784393Y-61373010D01*
X154621397Y-61481921D01*
X154440285Y-61556940D01*
X154248017Y-61595185D01*
X154051983Y-61595185D01*
X153859715Y-61556940D01*
X153678603Y-61481921D01*
X153515607Y-61373010D01*
X153376990Y-61234393D01*
X153268079Y-61071397D01*
X153193060Y-60890285D01*
X153154815Y-60698017D01*
X153154815Y-60501983D01*
X153193060Y-60309715D01*
X153268079Y-60128603D01*
X153376990Y-59965607D01*
X153515607Y-59826990D01*
X153678603Y-59718079D01*
X153859715Y-59643060D01*
X154051983Y-59604815D01*
X154248017Y-59604815D01*
X154440285Y-59643060D01*
G37*
G36*
X160940285Y-59643060D02*
G01*
X161121397Y-59718079D01*
X161284393Y-59826990D01*
X161423010Y-59965607D01*
X161531921Y-60128603D01*
X161606940Y-60309715D01*
X161645185Y-60501983D01*
X161645185Y-60698017D01*
X161606940Y-60890285D01*
X161531921Y-61071397D01*
X161423010Y-61234393D01*
X161284393Y-61373010D01*
X161121397Y-61481921D01*
X160940285Y-61556940D01*
X160748017Y-61595185D01*
X160551983Y-61595185D01*
X160359715Y-61556940D01*
X160178603Y-61481921D01*
X160015607Y-61373010D01*
X159876990Y-61234393D01*
X159768079Y-61071397D01*
X159693060Y-60890285D01*
X159654815Y-60698017D01*
X159654815Y-60501983D01*
X159693060Y-60309715D01*
X159768079Y-60128603D01*
X159876990Y-59965607D01*
X160015607Y-59826990D01*
X160178603Y-59718079D01*
X160359715Y-59643060D01*
X160551983Y-59604815D01*
X160748017Y-59604815D01*
X160940285Y-59643060D01*
G37*
G36*
X133113881Y-58281134D02*
G01*
X133146842Y-58303158D01*
X133168866Y-58336119D01*
X133176600Y-58375000D01*
X133176600Y-59575000D01*
X133168866Y-59613881D01*
X133146842Y-59646842D01*
X133113881Y-59668866D01*
X133075000Y-59676600D01*
X131875000Y-59676600D01*
X131836119Y-59668866D01*
X131803158Y-59646842D01*
X131781134Y-59613881D01*
X131773400Y-59575000D01*
X131773400Y-58375000D01*
X131781134Y-58336119D01*
X131803158Y-58303158D01*
X131836119Y-58281134D01*
X131875000Y-58273400D01*
X133075000Y-58273400D01*
X133113881Y-58281134D01*
G37*
G36*
X135163881Y-58281134D02*
G01*
X135196842Y-58303158D01*
X135218866Y-58336119D01*
X135226600Y-58375000D01*
X135226600Y-59575000D01*
X135218866Y-59613881D01*
X135196842Y-59646842D01*
X135163881Y-59668866D01*
X135125000Y-59676600D01*
X133925000Y-59676600D01*
X133886119Y-59668866D01*
X133853158Y-59646842D01*
X133831134Y-59613881D01*
X133823400Y-59575000D01*
X133823400Y-58375000D01*
X133831134Y-58336119D01*
X133853158Y-58303158D01*
X133886119Y-58281134D01*
X133925000Y-58273400D01*
X135125000Y-58273400D01*
X135163881Y-58281134D01*
G37*
G36*
X133113881Y-56181134D02*
G01*
X133146842Y-56203158D01*
X133168866Y-56236119D01*
X133176600Y-56275000D01*
X133176600Y-57475000D01*
X133168866Y-57513881D01*
X133146842Y-57546842D01*
X133113881Y-57568866D01*
X133075000Y-57576600D01*
X131875000Y-57576600D01*
X131836119Y-57568866D01*
X131803158Y-57546842D01*
X131781134Y-57513881D01*
X131773400Y-57475000D01*
X131773400Y-56275000D01*
X131781134Y-56236119D01*
X131803158Y-56203158D01*
X131836119Y-56181134D01*
X131875000Y-56173400D01*
X133075000Y-56173400D01*
X133113881Y-56181134D01*
G37*
G36*
X135163881Y-56181134D02*
G01*
X135196842Y-56203158D01*
X135218866Y-56236119D01*
X135226600Y-56275000D01*
X135226600Y-57475000D01*
X135218866Y-57513881D01*
X135196842Y-57546842D01*
X135163881Y-57568866D01*
X135125000Y-57576600D01*
X133925000Y-57576600D01*
X133886119Y-57568866D01*
X133853158Y-57546842D01*
X133831134Y-57513881D01*
X133823400Y-57475000D01*
X133823400Y-56275000D01*
X133831134Y-56236119D01*
X133853158Y-56203158D01*
X133886119Y-56181134D01*
X133925000Y-56173400D01*
X135125000Y-56173400D01*
X135163881Y-56181134D01*
G37*
M02*
