%TF.GenerationSoftware,KiCad,Pcbnew,7.0.9*%
%TF.CreationDate,2024-03-16T10:18:05+00:00*%
%TF.ProjectId,wmk,776d6b2e-6b69-4636-9164-5f7063625858,rev?*%
%TF.SameCoordinates,Original*%
%TF.FileFunction,Plated,1,4,PTH,Drill*%
%TF.FilePolarity,Positive*%
%FSLAX46Y46*%
G04 Gerber Fmt 4.6, Leading zero omitted, Abs format (unit mm)*
G04 Created by KiCad (PCBNEW 7.0.9) date 2024-03-16 10:18:05*
%MOMM*%
%LPD*%
G01*
G04 APERTURE LIST*
%TA.AperFunction,ViaDrill*%
%ADD10C,0.300000*%
%TD*%
%TA.AperFunction,ViaDrill*%
%ADD11C,0.350000*%
%TD*%
%TA.AperFunction,ViaDrill*%
%ADD12C,0.500000*%
%TD*%
%TA.AperFunction,ComponentDrill*%
%ADD13C,0.812800*%
%TD*%
%TA.AperFunction,ComponentDrill*%
%ADD14C,0.914400*%
%TD*%
%TA.AperFunction,ComponentDrill*%
%ADD15C,0.950000*%
%TD*%
%TA.AperFunction,ComponentDrill*%
%ADD16C,1.000000*%
%TD*%
%TA.AperFunction,ComponentDrill*%
%ADD17C,1.016000*%
%TD*%
%TA.AperFunction,ComponentDrill*%
%ADD18C,2.300000*%
%TD*%
G04 APERTURE END LIST*
D10*
X147929600Y-82905600D03*
X148031200Y-89204800D03*
X148539200Y-83667600D03*
X148627844Y-89741779D03*
X149674500Y-86326084D03*
X158292800Y-87985600D03*
D11*
X135514400Y-92064900D03*
X135590600Y-94274700D03*
X135819200Y-58536900D03*
X137038400Y-103190100D03*
X137571800Y-100142100D03*
X139857800Y-93512700D03*
X139934000Y-75605700D03*
X141762800Y-95417700D03*
X143210600Y-82768500D03*
X143820200Y-85816500D03*
X144887000Y-87873900D03*
X145115600Y-98237100D03*
X145191800Y-96484500D03*
X146258600Y-75072300D03*
X146563400Y-83378100D03*
X146792000Y-78272700D03*
X147325400Y-87340500D03*
X147325400Y-88559700D03*
X150221000Y-83149500D03*
X151287800Y-96103500D03*
X151592600Y-80711100D03*
X152049800Y-86578500D03*
X152278400Y-74767500D03*
X154793000Y-83530500D03*
X154869200Y-77205900D03*
X154869200Y-78882300D03*
X157536200Y-59756100D03*
X159746000Y-71719500D03*
X162641600Y-57622500D03*
D12*
X139781600Y-103063100D03*
X143083600Y-100713600D03*
X160546100Y-119446100D03*
D13*
%TO.C,Q1*%
X148766337Y-92882875D03*
X153592337Y-92882875D03*
D14*
%TO.C,JP3*%
X159359600Y-96418400D03*
%TO.C,PROGRAMER0*%
X159501100Y-78403600D03*
X159501100Y-80943600D03*
X159501100Y-83483600D03*
%TO.C,JP3*%
X161899600Y-96418400D03*
%TO.C,PROGRAMER0*%
X162041100Y-78403600D03*
X162041100Y-80943600D03*
X162041100Y-83483600D03*
D15*
%TO.C,X1*%
X145001100Y-66713600D03*
X147501100Y-66713600D03*
X149501100Y-66713600D03*
X152001100Y-66713600D03*
D16*
%TO.C,J1*%
X160782000Y-87528400D03*
X160782000Y-90068400D03*
X160782000Y-92608400D03*
D17*
%TO.C,JP1*%
X133731100Y-78423600D03*
X133731100Y-80963600D03*
X133731100Y-83503600D03*
X133731100Y-86043600D03*
X133731100Y-88583600D03*
X136271100Y-78423600D03*
X136271100Y-80963600D03*
X136271100Y-83503600D03*
X136271100Y-86043600D03*
X136271100Y-88583600D03*
%TO.C,JP2*%
X144477431Y-103249369D03*
X147017431Y-103249369D03*
X149557431Y-103249369D03*
X152097431Y-103249369D03*
X154637431Y-103249369D03*
X157177431Y-103249369D03*
X159717431Y-103249369D03*
X162257431Y-103249369D03*
D18*
%TO.C,X1*%
X141931100Y-64003600D03*
X155071100Y-64003600D03*
M02*
