%TF.GenerationSoftware,KiCad,Pcbnew,7.0.9*%
%TF.CreationDate,2024-03-16T10:18:14+00:00*%
%TF.ProjectId,wmk,776d6b2e-6b69-4636-9164-5f7063625858,rev?*%
%TF.SameCoordinates,Original*%
%TF.FileFunction,Legend,Bot*%
%TF.FilePolarity,Positive*%
%FSLAX46Y46*%
G04 Gerber Fmt 4.6, Leading zero omitted, Abs format (unit mm)*
G04 Created by KiCad (PCBNEW 7.0.9) date 2024-03-16 10:18:14*
%MOMM*%
%LPD*%
G01*
G04 APERTURE LIST*
%ADD10C,0.083185*%
%ADD11C,0.101600*%
G04 APERTURE END LIST*
D10*
X153428678Y-96657452D02*
X153444522Y-96673297D01*
X153444522Y-96673297D02*
X153492057Y-96689141D01*
X153492057Y-96689141D02*
X153523746Y-96689141D01*
X153523746Y-96689141D02*
X153571280Y-96673297D01*
X153571280Y-96673297D02*
X153602970Y-96641607D01*
X153602970Y-96641607D02*
X153618815Y-96609917D01*
X153618815Y-96609917D02*
X153634659Y-96546538D01*
X153634659Y-96546538D02*
X153634659Y-96499004D01*
X153634659Y-96499004D02*
X153618815Y-96435625D01*
X153618815Y-96435625D02*
X153602970Y-96403936D01*
X153602970Y-96403936D02*
X153571280Y-96372246D01*
X153571280Y-96372246D02*
X153523746Y-96356401D01*
X153523746Y-96356401D02*
X153492057Y-96356401D01*
X153492057Y-96356401D02*
X153444522Y-96372246D01*
X153444522Y-96372246D02*
X153428678Y-96388091D01*
X153111782Y-96689141D02*
X153301919Y-96689141D01*
X153206851Y-96689141D02*
X153206851Y-96356401D01*
X153206851Y-96356401D02*
X153238540Y-96403936D01*
X153238540Y-96403936D02*
X153270230Y-96435625D01*
X153270230Y-96435625D02*
X153301919Y-96451470D01*
X152794887Y-96689141D02*
X152985024Y-96689141D01*
X152889956Y-96689141D02*
X152889956Y-96356401D01*
X152889956Y-96356401D02*
X152921645Y-96403936D01*
X152921645Y-96403936D02*
X152953335Y-96435625D01*
X152953335Y-96435625D02*
X152985024Y-96451470D01*
X145980848Y-82880186D02*
X145996693Y-82864342D01*
X145996693Y-82864342D02*
X146012537Y-82816807D01*
X146012537Y-82816807D02*
X146012537Y-82785118D01*
X146012537Y-82785118D02*
X145996693Y-82737584D01*
X145996693Y-82737584D02*
X145965003Y-82705894D01*
X145965003Y-82705894D02*
X145933313Y-82690049D01*
X145933313Y-82690049D02*
X145869934Y-82674205D01*
X145869934Y-82674205D02*
X145822400Y-82674205D01*
X145822400Y-82674205D02*
X145759021Y-82690049D01*
X145759021Y-82690049D02*
X145727332Y-82705894D01*
X145727332Y-82705894D02*
X145695642Y-82737584D01*
X145695642Y-82737584D02*
X145679797Y-82785118D01*
X145679797Y-82785118D02*
X145679797Y-82816807D01*
X145679797Y-82816807D02*
X145695642Y-82864342D01*
X145695642Y-82864342D02*
X145711487Y-82880186D01*
X146012537Y-83197082D02*
X146012537Y-83006945D01*
X146012537Y-83102013D02*
X145679797Y-83102013D01*
X145679797Y-83102013D02*
X145727332Y-83070324D01*
X145727332Y-83070324D02*
X145759021Y-83038634D01*
X145759021Y-83038634D02*
X145774866Y-83006945D01*
X145711487Y-83323840D02*
X145695642Y-83339684D01*
X145695642Y-83339684D02*
X145679797Y-83371374D01*
X145679797Y-83371374D02*
X145679797Y-83450598D01*
X145679797Y-83450598D02*
X145695642Y-83482287D01*
X145695642Y-83482287D02*
X145711487Y-83498132D01*
X145711487Y-83498132D02*
X145743176Y-83513977D01*
X145743176Y-83513977D02*
X145774866Y-83513977D01*
X145774866Y-83513977D02*
X145822400Y-83498132D01*
X145822400Y-83498132D02*
X146012537Y-83307995D01*
X146012537Y-83307995D02*
X146012537Y-83513977D01*
X154825021Y-79903471D02*
X154666574Y-79792558D01*
X154825021Y-79713334D02*
X154492281Y-79713334D01*
X154492281Y-79713334D02*
X154492281Y-79840092D01*
X154492281Y-79840092D02*
X154508126Y-79871782D01*
X154508126Y-79871782D02*
X154523971Y-79887627D01*
X154523971Y-79887627D02*
X154555660Y-79903471D01*
X154555660Y-79903471D02*
X154603195Y-79903471D01*
X154603195Y-79903471D02*
X154634884Y-79887627D01*
X154634884Y-79887627D02*
X154650729Y-79871782D01*
X154650729Y-79871782D02*
X154666574Y-79840092D01*
X154666574Y-79840092D02*
X154666574Y-79713334D01*
X154523971Y-80030230D02*
X154508126Y-80046074D01*
X154508126Y-80046074D02*
X154492281Y-80077764D01*
X154492281Y-80077764D02*
X154492281Y-80156988D01*
X154492281Y-80156988D02*
X154508126Y-80188677D01*
X154508126Y-80188677D02*
X154523971Y-80204522D01*
X154523971Y-80204522D02*
X154555660Y-80220367D01*
X154555660Y-80220367D02*
X154587350Y-80220367D01*
X154587350Y-80220367D02*
X154634884Y-80204522D01*
X154634884Y-80204522D02*
X154825021Y-80014385D01*
X154825021Y-80014385D02*
X154825021Y-80220367D01*
D11*
X155388756Y-87710326D02*
X155778223Y-87153945D01*
X156056413Y-87710326D02*
X156056413Y-86541926D01*
X156056413Y-86541926D02*
X155611308Y-86541926D01*
X155611308Y-86541926D02*
X155500032Y-86597564D01*
X155500032Y-86597564D02*
X155444394Y-86653202D01*
X155444394Y-86653202D02*
X155388756Y-86764478D01*
X155388756Y-86764478D02*
X155388756Y-86931392D01*
X155388756Y-86931392D02*
X155444394Y-87042668D01*
X155444394Y-87042668D02*
X155500032Y-87098307D01*
X155500032Y-87098307D02*
X155611308Y-87153945D01*
X155611308Y-87153945D02*
X156056413Y-87153945D01*
X154275994Y-87710326D02*
X154943651Y-87710326D01*
X154609823Y-87710326D02*
X154609823Y-86541926D01*
X154609823Y-86541926D02*
X154721099Y-86708840D01*
X154721099Y-86708840D02*
X154832375Y-86820116D01*
X154832375Y-86820116D02*
X154943651Y-86875754D01*
D10*
X149554385Y-96690529D02*
X149570229Y-96706374D01*
X149570229Y-96706374D02*
X149617764Y-96722218D01*
X149617764Y-96722218D02*
X149649453Y-96722218D01*
X149649453Y-96722218D02*
X149696987Y-96706374D01*
X149696987Y-96706374D02*
X149728677Y-96674684D01*
X149728677Y-96674684D02*
X149744522Y-96642994D01*
X149744522Y-96642994D02*
X149760366Y-96579615D01*
X149760366Y-96579615D02*
X149760366Y-96532081D01*
X149760366Y-96532081D02*
X149744522Y-96468702D01*
X149744522Y-96468702D02*
X149728677Y-96437013D01*
X149728677Y-96437013D02*
X149696987Y-96405323D01*
X149696987Y-96405323D02*
X149649453Y-96389478D01*
X149649453Y-96389478D02*
X149617764Y-96389478D01*
X149617764Y-96389478D02*
X149570229Y-96405323D01*
X149570229Y-96405323D02*
X149554385Y-96421168D01*
X149237489Y-96722218D02*
X149427626Y-96722218D01*
X149332558Y-96722218D02*
X149332558Y-96389478D01*
X149332558Y-96389478D02*
X149364247Y-96437013D01*
X149364247Y-96437013D02*
X149395937Y-96468702D01*
X149395937Y-96468702D02*
X149427626Y-96484547D01*
X149031508Y-96389478D02*
X148999818Y-96389478D01*
X148999818Y-96389478D02*
X148968129Y-96405323D01*
X148968129Y-96405323D02*
X148952284Y-96421168D01*
X148952284Y-96421168D02*
X148936439Y-96452857D01*
X148936439Y-96452857D02*
X148920594Y-96516236D01*
X148920594Y-96516236D02*
X148920594Y-96595460D01*
X148920594Y-96595460D02*
X148936439Y-96658839D01*
X148936439Y-96658839D02*
X148952284Y-96690529D01*
X148952284Y-96690529D02*
X148968129Y-96706374D01*
X148968129Y-96706374D02*
X148999818Y-96722218D01*
X148999818Y-96722218D02*
X149031508Y-96722218D01*
X149031508Y-96722218D02*
X149063197Y-96706374D01*
X149063197Y-96706374D02*
X149079042Y-96690529D01*
X149079042Y-96690529D02*
X149094887Y-96658839D01*
X149094887Y-96658839D02*
X149110731Y-96595460D01*
X149110731Y-96595460D02*
X149110731Y-96516236D01*
X149110731Y-96516236D02*
X149094887Y-96452857D01*
X149094887Y-96452857D02*
X149079042Y-96421168D01*
X149079042Y-96421168D02*
X149063197Y-96405323D01*
X149063197Y-96405323D02*
X149031508Y-96389478D01*
X156956684Y-84301771D02*
X156972529Y-84285927D01*
X156972529Y-84285927D02*
X156988373Y-84238392D01*
X156988373Y-84238392D02*
X156988373Y-84206703D01*
X156988373Y-84206703D02*
X156972529Y-84159169D01*
X156972529Y-84159169D02*
X156940839Y-84127479D01*
X156940839Y-84127479D02*
X156909149Y-84111634D01*
X156909149Y-84111634D02*
X156845770Y-84095790D01*
X156845770Y-84095790D02*
X156798236Y-84095790D01*
X156798236Y-84095790D02*
X156734857Y-84111634D01*
X156734857Y-84111634D02*
X156703168Y-84127479D01*
X156703168Y-84127479D02*
X156671478Y-84159169D01*
X156671478Y-84159169D02*
X156655633Y-84206703D01*
X156655633Y-84206703D02*
X156655633Y-84238392D01*
X156655633Y-84238392D02*
X156671478Y-84285927D01*
X156671478Y-84285927D02*
X156687323Y-84301771D01*
X156655633Y-84412685D02*
X156655633Y-84634511D01*
X156655633Y-84634511D02*
X156988373Y-84491909D01*
X153271000Y-81908369D02*
X153286844Y-81924214D01*
X153286844Y-81924214D02*
X153334379Y-81940058D01*
X153334379Y-81940058D02*
X153366068Y-81940058D01*
X153366068Y-81940058D02*
X153413602Y-81924214D01*
X153413602Y-81924214D02*
X153445292Y-81892524D01*
X153445292Y-81892524D02*
X153461137Y-81860834D01*
X153461137Y-81860834D02*
X153476981Y-81797455D01*
X153476981Y-81797455D02*
X153476981Y-81749921D01*
X153476981Y-81749921D02*
X153461137Y-81686542D01*
X153461137Y-81686542D02*
X153445292Y-81654853D01*
X153445292Y-81654853D02*
X153413602Y-81623163D01*
X153413602Y-81623163D02*
X153366068Y-81607318D01*
X153366068Y-81607318D02*
X153334379Y-81607318D01*
X153334379Y-81607318D02*
X153286844Y-81623163D01*
X153286844Y-81623163D02*
X153271000Y-81639008D01*
X152985794Y-81607318D02*
X153049173Y-81607318D01*
X153049173Y-81607318D02*
X153080862Y-81623163D01*
X153080862Y-81623163D02*
X153096707Y-81639008D01*
X153096707Y-81639008D02*
X153128397Y-81686542D01*
X153128397Y-81686542D02*
X153144241Y-81749921D01*
X153144241Y-81749921D02*
X153144241Y-81876679D01*
X153144241Y-81876679D02*
X153128397Y-81908369D01*
X153128397Y-81908369D02*
X153112552Y-81924214D01*
X153112552Y-81924214D02*
X153080862Y-81940058D01*
X153080862Y-81940058D02*
X153017483Y-81940058D01*
X153017483Y-81940058D02*
X152985794Y-81924214D01*
X152985794Y-81924214D02*
X152969949Y-81908369D01*
X152969949Y-81908369D02*
X152954104Y-81876679D01*
X152954104Y-81876679D02*
X152954104Y-81797455D01*
X152954104Y-81797455D02*
X152969949Y-81765766D01*
X152969949Y-81765766D02*
X152985794Y-81749921D01*
X152985794Y-81749921D02*
X153017483Y-81734076D01*
X153017483Y-81734076D02*
X153080862Y-81734076D01*
X153080862Y-81734076D02*
X153112552Y-81749921D01*
X153112552Y-81749921D02*
X153128397Y-81765766D01*
X153128397Y-81765766D02*
X153144241Y-81797455D01*
X151731713Y-83665864D02*
X151747557Y-83681709D01*
X151747557Y-83681709D02*
X151795092Y-83697553D01*
X151795092Y-83697553D02*
X151826781Y-83697553D01*
X151826781Y-83697553D02*
X151874315Y-83681709D01*
X151874315Y-83681709D02*
X151906005Y-83650019D01*
X151906005Y-83650019D02*
X151921850Y-83618329D01*
X151921850Y-83618329D02*
X151937694Y-83554950D01*
X151937694Y-83554950D02*
X151937694Y-83507416D01*
X151937694Y-83507416D02*
X151921850Y-83444037D01*
X151921850Y-83444037D02*
X151906005Y-83412348D01*
X151906005Y-83412348D02*
X151874315Y-83380658D01*
X151874315Y-83380658D02*
X151826781Y-83364813D01*
X151826781Y-83364813D02*
X151795092Y-83364813D01*
X151795092Y-83364813D02*
X151747557Y-83380658D01*
X151747557Y-83380658D02*
X151731713Y-83396503D01*
X151414817Y-83697553D02*
X151604954Y-83697553D01*
X151509886Y-83697553D02*
X151509886Y-83364813D01*
X151509886Y-83364813D02*
X151541575Y-83412348D01*
X151541575Y-83412348D02*
X151573265Y-83444037D01*
X151573265Y-83444037D02*
X151604954Y-83459882D01*
X151129612Y-83364813D02*
X151192991Y-83364813D01*
X151192991Y-83364813D02*
X151224680Y-83380658D01*
X151224680Y-83380658D02*
X151240525Y-83396503D01*
X151240525Y-83396503D02*
X151272215Y-83444037D01*
X151272215Y-83444037D02*
X151288059Y-83507416D01*
X151288059Y-83507416D02*
X151288059Y-83634174D01*
X151288059Y-83634174D02*
X151272215Y-83665864D01*
X151272215Y-83665864D02*
X151256370Y-83681709D01*
X151256370Y-83681709D02*
X151224680Y-83697553D01*
X151224680Y-83697553D02*
X151161301Y-83697553D01*
X151161301Y-83697553D02*
X151129612Y-83681709D01*
X151129612Y-83681709D02*
X151113767Y-83665864D01*
X151113767Y-83665864D02*
X151097922Y-83634174D01*
X151097922Y-83634174D02*
X151097922Y-83554950D01*
X151097922Y-83554950D02*
X151113767Y-83523261D01*
X151113767Y-83523261D02*
X151129612Y-83507416D01*
X151129612Y-83507416D02*
X151161301Y-83491571D01*
X151161301Y-83491571D02*
X151224680Y-83491571D01*
X151224680Y-83491571D02*
X151256370Y-83507416D01*
X151256370Y-83507416D02*
X151272215Y-83523261D01*
X151272215Y-83523261D02*
X151288059Y-83554950D01*
X144081068Y-76839007D02*
X144096912Y-76854852D01*
X144096912Y-76854852D02*
X144144447Y-76870696D01*
X144144447Y-76870696D02*
X144176136Y-76870696D01*
X144176136Y-76870696D02*
X144223670Y-76854852D01*
X144223670Y-76854852D02*
X144255360Y-76823162D01*
X144255360Y-76823162D02*
X144271205Y-76791472D01*
X144271205Y-76791472D02*
X144287049Y-76728093D01*
X144287049Y-76728093D02*
X144287049Y-76680559D01*
X144287049Y-76680559D02*
X144271205Y-76617180D01*
X144271205Y-76617180D02*
X144255360Y-76585491D01*
X144255360Y-76585491D02*
X144223670Y-76553801D01*
X144223670Y-76553801D02*
X144176136Y-76537956D01*
X144176136Y-76537956D02*
X144144447Y-76537956D01*
X144144447Y-76537956D02*
X144096912Y-76553801D01*
X144096912Y-76553801D02*
X144081068Y-76569646D01*
X143780017Y-76537956D02*
X143938465Y-76537956D01*
X143938465Y-76537956D02*
X143954309Y-76696404D01*
X143954309Y-76696404D02*
X143938465Y-76680559D01*
X143938465Y-76680559D02*
X143906775Y-76664714D01*
X143906775Y-76664714D02*
X143827551Y-76664714D01*
X143827551Y-76664714D02*
X143795862Y-76680559D01*
X143795862Y-76680559D02*
X143780017Y-76696404D01*
X143780017Y-76696404D02*
X143764172Y-76728093D01*
X143764172Y-76728093D02*
X143764172Y-76807317D01*
X143764172Y-76807317D02*
X143780017Y-76839007D01*
X143780017Y-76839007D02*
X143795862Y-76854852D01*
X143795862Y-76854852D02*
X143827551Y-76870696D01*
X143827551Y-76870696D02*
X143906775Y-76870696D01*
X143906775Y-76870696D02*
X143938465Y-76854852D01*
X143938465Y-76854852D02*
X143954309Y-76839007D01*
M02*
