%TF.GenerationSoftware,KiCad,Pcbnew,7.0.9*%
%TF.CreationDate,2024-03-16T10:18:14+00:00*%
%TF.ProjectId,wmk,776d6b2e-6b69-4636-9164-5f7063625858,rev?*%
%TF.SameCoordinates,Original*%
%TF.FileFunction,Copper,L4,Bot*%
%TF.FilePolarity,Positive*%
%FSLAX46Y46*%
G04 Gerber Fmt 4.6, Leading zero omitted, Abs format (unit mm)*
G04 Created by KiCad (PCBNEW 7.0.9) date 2024-03-16 10:18:14*
%MOMM*%
%LPD*%
G01*
G04 APERTURE LIST*
G04 Aperture macros list*
%AMOutline5P*
0 Free polygon, 5 corners , with rotation*
0 The origin of the aperture is its center*
0 number of corners: always 5*
0 $1 to $10 corner X, Y*
0 $11 Rotation angle, in degrees counterclockwise*
0 create outline with 5 corners*
4,1,5,$1,$2,$3,$4,$5,$6,$7,$8,$9,$10,$1,$2,$11*%
%AMOutline6P*
0 Free polygon, 6 corners , with rotation*
0 The origin of the aperture is its center*
0 number of corners: always 6*
0 $1 to $12 corner X, Y*
0 $13 Rotation angle, in degrees counterclockwise*
0 create outline with 6 corners*
4,1,6,$1,$2,$3,$4,$5,$6,$7,$8,$9,$10,$11,$12,$1,$2,$13*%
%AMOutline7P*
0 Free polygon, 7 corners , with rotation*
0 The origin of the aperture is its center*
0 number of corners: always 7*
0 $1 to $14 corner X, Y*
0 $15 Rotation angle, in degrees counterclockwise*
0 create outline with 7 corners*
4,1,7,$1,$2,$3,$4,$5,$6,$7,$8,$9,$10,$11,$12,$13,$14,$1,$2,$15*%
%AMOutline8P*
0 Free polygon, 8 corners , with rotation*
0 The origin of the aperture is its center*
0 number of corners: always 8*
0 $1 to $16 corner X, Y*
0 $17 Rotation angle, in degrees counterclockwise*
0 create outline with 8 corners*
4,1,8,$1,$2,$3,$4,$5,$6,$7,$8,$9,$10,$11,$12,$13,$14,$15,$16,$1,$2,$17*%
G04 Aperture macros list end*
%TA.AperFunction,ComponentPad*%
%ADD10O,1.422400X2.844800*%
%TD*%
%TA.AperFunction,ComponentPad*%
%ADD11Outline8P,-0.711200X0.294589X-0.294589X0.711200X0.294589X0.711200X0.711200X0.294589X0.711200X-0.294589X0.294589X-0.711200X-0.294589X-0.711200X-0.711200X-0.294589X90.000000*%
%TD*%
%TA.AperFunction,ComponentPad*%
%ADD12O,1.458000X2.916000*%
%TD*%
%TA.AperFunction,ComponentPad*%
%ADD13C,2.900000*%
%TD*%
%TA.AperFunction,ComponentPad*%
%ADD14R,1.700000X1.700000*%
%TD*%
%TA.AperFunction,ComponentPad*%
%ADD15O,1.700000X1.700000*%
%TD*%
%TA.AperFunction,ComponentPad*%
%ADD16O,1.524000X3.048000*%
%TD*%
%TA.AperFunction,ComponentPad*%
%ADD17Outline8P,-0.762000X0.315631X-0.315631X0.762000X0.315631X0.762000X0.762000X0.315631X0.762000X-0.315631X0.315631X-0.762000X-0.315631X-0.762000X-0.762000X-0.315631X90.000000*%
%TD*%
%TA.AperFunction,ComponentPad*%
%ADD18C,1.320800*%
%TD*%
%TA.AperFunction,SMDPad,CuDef*%
%ADD19R,1.100000X1.000000*%
%TD*%
%TA.AperFunction,SMDPad,CuDef*%
%ADD20R,1.000000X1.100000*%
%TD*%
%TA.AperFunction,ViaPad*%
%ADD21C,0.756400*%
%TD*%
%TA.AperFunction,ViaPad*%
%ADD22C,0.906400*%
%TD*%
%TA.AperFunction,ViaPad*%
%ADD23C,0.600000*%
%TD*%
%TA.AperFunction,Conductor*%
%ADD24C,0.254000*%
%TD*%
%TA.AperFunction,Conductor*%
%ADD25C,0.200000*%
%TD*%
G04 APERTURE END LIST*
D10*
%TO.P,JP3,1,1*%
%TO.N,/RX*%
X159359600Y-96418400D03*
%TO.P,JP3,2,2*%
%TO.N,/TX*%
X161899600Y-96418400D03*
%TD*%
D11*
%TO.P,PROGRAMER0,1,1*%
%TO.N,VCC*%
X162041100Y-83483600D03*
%TO.P,PROGRAMER0,2,2*%
%TO.N,GND*%
X159501100Y-83483600D03*
%TO.P,PROGRAMER0,3,3*%
%TO.N,VDD*%
X162041100Y-80943600D03*
%TO.P,PROGRAMER0,4,4*%
%TO.N,/NRST*%
X159501100Y-80943600D03*
%TO.P,PROGRAMER0,5,5*%
%TO.N,/SWCLK*%
X162041100Y-78403600D03*
%TO.P,PROGRAMER0,6,6*%
%TO.N,/SWDIO*%
X159501100Y-78403600D03*
%TD*%
D12*
%TO.P,X1,1,1*%
%TO.N,Net-(F1-Pad2)*%
X152001100Y-66713600D03*
%TO.P,X1,2,2*%
%TO.N,/USB_DM*%
X149501100Y-66713600D03*
%TO.P,X1,3,3*%
%TO.N,/USB_DP*%
X147501100Y-66713600D03*
%TO.P,X1,4,4*%
%TO.N,GND*%
X145001100Y-66713600D03*
D13*
%TO.P,X1,S1,S1*%
%TO.N,unconnected-(X1-PadS1)*%
X155071100Y-64003600D03*
%TO.P,X1,S2,S2*%
%TO.N,unconnected-(X1-PadS2)*%
X141931100Y-64003600D03*
%TD*%
D14*
%TO.P,J1,1,Pin_1*%
%TO.N,GND*%
X160782000Y-92608400D03*
D15*
%TO.P,J1,2,Pin_2*%
%TO.N,Net-(J1-Pin_2)*%
X160782000Y-90068400D03*
%TO.P,J1,3,Pin_3*%
%TO.N,VDD*%
X160782000Y-87528400D03*
%TD*%
D16*
%TO.P,JP2,1,1*%
%TO.N,/CLOCK*%
X162257431Y-103249369D03*
%TO.P,JP2,2,2*%
%TO.N,/DATA*%
X159717431Y-103249369D03*
%TO.P,JP2,3,3*%
%TO.N,/RESET*%
X157177431Y-103249369D03*
%TO.P,JP2,4,4*%
%TO.N,VCC*%
X154637431Y-103249369D03*
%TO.P,JP2,5,5*%
%TO.N,unconnected-(JP2-Pad5)*%
X152097431Y-103249369D03*
%TO.P,JP2,6,6*%
%TO.N,GND*%
X149557431Y-103249369D03*
%TO.P,JP2,7,7*%
%TO.N,/STATUS*%
X147017431Y-103249369D03*
%TO.P,JP2,8,8*%
%TO.N,/INUSE*%
X144477431Y-103249369D03*
%TD*%
D17*
%TO.P,JP1,1,1*%
%TO.N,Net-(U2-PB15)*%
X136271100Y-88583600D03*
%TO.P,JP1,2,2*%
%TO.N,Net-(U2-PB9)*%
X133731100Y-88583600D03*
%TO.P,JP1,3,3*%
%TO.N,VCC*%
X136271100Y-86043600D03*
%TO.P,JP1,4,4*%
%TO.N,Net-(U2-PB8)*%
X133731100Y-86043600D03*
%TO.P,JP1,5,5*%
%TO.N,GND*%
X136271100Y-83503600D03*
%TO.P,JP1,6,6*%
%TO.N,Net-(U2-PB5)*%
X133731100Y-83503600D03*
%TO.P,JP1,7,7*%
%TO.N,Net-(U2-PB14)*%
X136271100Y-80963600D03*
%TO.P,JP1,8,8*%
%TO.N,Net-(U2-PB4)*%
X133731100Y-80963600D03*
%TO.P,JP1,9,9*%
%TO.N,Net-(U2-PB13)*%
X136271100Y-78423600D03*
%TO.P,JP1,10,10*%
%TO.N,Net-(U2-PB3)*%
X133731100Y-78423600D03*
%TD*%
D18*
%TO.P,Q1,1,1*%
%TO.N,Net-(U2-PD1_OSC_OUT)*%
X153592337Y-92882875D03*
%TO.P,Q1,2,2*%
%TO.N,Net-(U2-PD0_OSC_IN)*%
X148766337Y-92882875D03*
%TD*%
D19*
%TO.P,C11,1,1*%
%TO.N,Net-(U2-PD1_OSC_OUT)*%
X154011965Y-94800988D03*
%TO.P,C11,2,2*%
%TO.N,GND*%
X152311965Y-94800988D03*
%TD*%
D20*
%TO.P,C12,1,1*%
%TO.N,VDD*%
X144787584Y-84136100D03*
%TO.P,C12,2,2*%
%TO.N,GND*%
X144787584Y-82436100D03*
%TD*%
D19*
%TO.P,R2,1,1*%
%TO.N,/NRST*%
X156546468Y-79980185D03*
%TO.P,R2,2,2*%
%TO.N,VDD*%
X156546468Y-78280185D03*
%TD*%
D20*
%TO.P,R1,1,1*%
%TO.N,Net-(U2-BOOT0)*%
X153771600Y-87223600D03*
%TO.P,R1,2,2*%
%TO.N,Net-(J1-Pin_2)*%
X155471600Y-87223600D03*
%TD*%
D19*
%TO.P,C10,1,1*%
%TO.N,Net-(U2-PD0_OSC_IN)*%
X148655690Y-94803160D03*
%TO.P,C10,2,2*%
%TO.N,GND*%
X150355690Y-94803160D03*
%TD*%
D20*
%TO.P,C7,1,1*%
%TO.N,/NRST*%
X156542515Y-82148772D03*
%TO.P,C7,2,2*%
%TO.N,GND*%
X156542515Y-83848772D03*
%TD*%
%TO.P,C6,1,1*%
%TO.N,VDD*%
X153245100Y-78937500D03*
%TO.P,C6,2,2*%
%TO.N,GND*%
X153245100Y-80637500D03*
%TD*%
D19*
%TO.P,C16,1,1*%
%TO.N,VDD*%
X152355000Y-85009800D03*
%TO.P,C16,2,2*%
%TO.N,GND*%
X150655000Y-85009800D03*
%TD*%
%TO.P,C5,1,1*%
%TO.N,VDD*%
X145579268Y-76780438D03*
%TO.P,C5,2,2*%
%TO.N,GND*%
X147279268Y-76780438D03*
%TD*%
D21*
%TO.N,GND*%
X150221000Y-83149500D03*
X151592600Y-80711100D03*
X146792000Y-78272700D03*
X143210600Y-82768500D03*
X151287800Y-96103500D03*
X135590600Y-94274700D03*
X135819200Y-58536900D03*
D22*
X160546100Y-119446100D03*
X143083600Y-100713600D03*
D21*
X135514400Y-92064900D03*
D22*
X139781600Y-103063100D03*
D21*
%TO.N,VDD*%
X139857800Y-93512700D03*
X154793000Y-83530500D03*
X139934000Y-75605700D03*
X146563400Y-83378100D03*
X159746000Y-71719500D03*
X141762800Y-95417700D03*
X152049800Y-86578500D03*
X146258600Y-75072300D03*
X154869200Y-78882300D03*
%TO.N,VCC*%
X157536200Y-59756100D03*
X137038400Y-103190100D03*
X137571800Y-100142100D03*
%TO.N,Net-(U2-PA3)*%
X152278400Y-74767500D03*
X162641600Y-57622500D03*
%TO.N,Net-(U2-PB3)*%
X144887000Y-87873900D03*
%TO.N,Net-(U2-PB4)*%
X147325400Y-87340500D03*
%TO.N,Net-(U2-PB5)*%
X147325400Y-88559700D03*
D23*
%TO.N,Net-(U2-PB8)*%
X148031200Y-89204800D03*
%TO.N,Net-(U2-PB9)*%
X148627844Y-89741779D03*
D21*
%TO.N,/TX*%
X145115600Y-98237100D03*
%TO.N,/RX*%
X145191800Y-96484500D03*
%TO.N,/SWCLK*%
X143820200Y-85816500D03*
D23*
%TO.N,Net-(U2-BOOT0)*%
X149674500Y-86326084D03*
%TO.N,/USB_DP*%
X147929600Y-82905600D03*
%TO.N,/USB_DM*%
X148539200Y-83667600D03*
D21*
%TO.N,unconnected-(U2-PA2-Pad12)*%
X154869200Y-77205900D03*
D23*
%TO.N,Net-(J1-Pin_2)*%
X158292800Y-87985600D03*
%TD*%
D24*
%TO.N,GND*%
X150355690Y-95171391D02*
X151287800Y-96103500D01*
X150221000Y-83149500D02*
X150655000Y-83583500D01*
X150355690Y-94803160D02*
X150355690Y-95171391D01*
X151666200Y-80637500D02*
X153245100Y-80637500D01*
X152311965Y-94800988D02*
X151287800Y-95825154D01*
X150655000Y-83583500D02*
X150655000Y-85009800D01*
X159501100Y-83483600D02*
X159135928Y-83848772D01*
X147279268Y-76780438D02*
X147279268Y-77785432D01*
X144787584Y-82436100D02*
X144738984Y-82387500D01*
X144738984Y-82387500D02*
X143591600Y-82387500D01*
X147279268Y-77785432D02*
X146792000Y-78272700D01*
X151287800Y-95825154D02*
X151287800Y-96103500D01*
X143591600Y-82387500D02*
X143210600Y-82768500D01*
X159135928Y-83848772D02*
X156542515Y-83848772D01*
X151592600Y-80711100D02*
X151666200Y-80637500D01*
%TO.N,VDD*%
X152355000Y-85009800D02*
X152355000Y-86273300D01*
D25*
X160782000Y-87528400D02*
X160782000Y-82202700D01*
D24*
X145579268Y-75751632D02*
X146258600Y-75072300D01*
X156546468Y-78280185D02*
X155471315Y-78280185D01*
X155471315Y-78280185D02*
X154869200Y-78882300D01*
X154814000Y-78937500D02*
X153245100Y-78937500D01*
X145579268Y-76780438D02*
X145579268Y-75751632D01*
X144787584Y-84136100D02*
X145805400Y-84136100D01*
X152355000Y-86273300D02*
X152049800Y-86578500D01*
X154869200Y-78882300D02*
X154814000Y-78937500D01*
X145805400Y-84136100D02*
X146563400Y-83378100D01*
D25*
X160782000Y-82202700D02*
X162041100Y-80943600D01*
D24*
%TO.N,/NRST*%
X159501100Y-80943600D02*
X156550368Y-80943600D01*
X156546468Y-82144819D02*
X156542515Y-82148772D01*
X156546468Y-80939700D02*
X156546468Y-82144819D01*
X156546468Y-79980185D02*
X156546468Y-80939700D01*
X156550368Y-80943600D02*
X156546468Y-80939700D01*
%TO.N,Net-(U2-PD0_OSC_IN)*%
X148687275Y-94025875D02*
X148655690Y-94094288D01*
X148655690Y-94803160D02*
X148655690Y-94094288D01*
X148687275Y-92961938D02*
X148687275Y-94025875D01*
X148687275Y-92961938D02*
X148766337Y-92882875D01*
%TO.N,Net-(U2-PD1_OSC_OUT)*%
X153924971Y-93215510D02*
X153924971Y-93340075D01*
X153924971Y-93215510D02*
X153592337Y-92882875D01*
X154011965Y-93515841D02*
X153924971Y-93340075D01*
X154011965Y-94800988D02*
X154011965Y-93515841D01*
%TO.N,Net-(U2-PA3)*%
X160889000Y-68519100D02*
X160889000Y-58232100D01*
X161574800Y-57546300D02*
X162565400Y-57546300D01*
X152278400Y-74767500D02*
X154640600Y-74767500D01*
X160889000Y-58232100D02*
X161574800Y-57546300D01*
X162565400Y-57546300D02*
X162641600Y-57622500D01*
X154640600Y-74767500D02*
X160889000Y-68519100D01*
%TO.N,Net-(U2-PB3)*%
X133731100Y-78423600D02*
X135028000Y-79720500D01*
X139324400Y-83530500D02*
X143667800Y-87873900D01*
X139324400Y-81092100D02*
X139324400Y-83530500D01*
X137952800Y-79720500D02*
X139324400Y-81092100D01*
X135028000Y-79720500D02*
X137952800Y-79720500D01*
X143667800Y-87873900D02*
X144887000Y-87873900D01*
%TO.N,Net-(U2-PB4)*%
X135002600Y-82235100D02*
X137724200Y-82235100D01*
X147325400Y-87340500D02*
X145801400Y-88864500D01*
X133731100Y-80963600D02*
X135002600Y-82235100D01*
X145801400Y-88864500D02*
X143515400Y-88864500D01*
X138486200Y-82997100D02*
X138486200Y-83835300D01*
X137724200Y-82235100D02*
X138486200Y-82997100D01*
X143515400Y-88864500D02*
X138486200Y-83835300D01*
%TO.N,Net-(U2-PB5)*%
X146258600Y-89626500D02*
X147325400Y-88559700D01*
X133731100Y-83503600D02*
X134977200Y-84749700D01*
X142905800Y-89626500D02*
X146258600Y-89626500D01*
X134977200Y-84749700D02*
X138029000Y-84749700D01*
X138029000Y-84749700D02*
X142905800Y-89626500D01*
D25*
%TO.N,Net-(U2-PB8)*%
X142727606Y-90056700D02*
X147179300Y-90056700D01*
X139779706Y-87108800D02*
X142727606Y-90056700D01*
X133731100Y-86043600D02*
X134796300Y-87108800D01*
X147179300Y-90056700D02*
X148031200Y-89204800D01*
X134796300Y-87108800D02*
X139779706Y-87108800D01*
%TO.N,Net-(U2-PB9)*%
X147909723Y-90459900D02*
X148627844Y-89741779D01*
X133731100Y-88583600D02*
X135607400Y-90459900D01*
X135607400Y-90459900D02*
X147909723Y-90459900D01*
D24*
%TO.N,/TX*%
X160965200Y-98237100D02*
X161930400Y-97271900D01*
X161930400Y-97271900D02*
X161930400Y-95417700D01*
X145115600Y-98237100D02*
X160965200Y-98237100D01*
%TO.N,/RX*%
X158450600Y-97551300D02*
X159390400Y-96611500D01*
X159390400Y-96611500D02*
X159390400Y-95417700D01*
X145191800Y-96484500D02*
X146258600Y-97551300D01*
X146258600Y-97551300D02*
X158450600Y-97551300D01*
%TO.N,/SWCLK*%
X143820200Y-86045100D02*
X143820200Y-85816500D01*
X163632200Y-86426100D02*
X161270000Y-88788300D01*
X149697700Y-87122000D02*
X148894800Y-87122000D01*
X161270000Y-88788300D02*
X151364000Y-88788300D01*
X148894800Y-87122000D02*
X148275100Y-86502300D01*
X151364000Y-88788300D02*
X149697700Y-87122000D01*
X163632200Y-79994700D02*
X163632200Y-86426100D01*
X162041100Y-78403600D02*
X163632200Y-79994700D01*
X148275100Y-86502300D02*
X144277400Y-86502300D01*
X144277400Y-86502300D02*
X143820200Y-86045100D01*
D25*
%TO.N,Net-(U2-BOOT0)*%
X153735300Y-87259900D02*
X153771600Y-87223600D01*
X149674500Y-86326084D02*
X150608316Y-87259900D01*
X150608316Y-87259900D02*
X153735300Y-87259900D01*
D24*
%TO.N,/USB_DP*%
X148159468Y-67371968D02*
X147501100Y-66713600D01*
X147929600Y-77781678D02*
X148159468Y-77551810D01*
X147929600Y-82905600D02*
X147929600Y-77781678D01*
X148159468Y-77551810D02*
X148159468Y-67371968D01*
D25*
%TO.N,/USB_DM*%
X148539200Y-81991200D02*
X149501100Y-81029300D01*
X148539200Y-83667600D02*
X148539200Y-81991200D01*
X149501100Y-81029300D02*
X149501100Y-66713600D01*
%TO.N,Net-(J1-Pin_2)*%
X157530800Y-87223600D02*
X158292800Y-87985600D01*
X155471600Y-87223600D02*
X157530800Y-87223600D01*
%TD*%
M02*
