%TF.GenerationSoftware,KiCad,Pcbnew,7.0.9*%
%TF.CreationDate,2024-03-16T10:18:13+00:00*%
%TF.ProjectId,wmk,776d6b2e-6b69-4636-9164-5f7063625858,rev?*%
%TF.SameCoordinates,Original*%
%TF.FileFunction,Copper,L2,Inr*%
%TF.FilePolarity,Positive*%
%FSLAX46Y46*%
G04 Gerber Fmt 4.6, Leading zero omitted, Abs format (unit mm)*
G04 Created by KiCad (PCBNEW 7.0.9) date 2024-03-16 10:18:13*
%MOMM*%
%LPD*%
G01*
G04 APERTURE LIST*
G04 Aperture macros list*
%AMOutline5P*
0 Free polygon, 5 corners , with rotation*
0 The origin of the aperture is its center*
0 number of corners: always 5*
0 $1 to $10 corner X, Y*
0 $11 Rotation angle, in degrees counterclockwise*
0 create outline with 5 corners*
4,1,5,$1,$2,$3,$4,$5,$6,$7,$8,$9,$10,$1,$2,$11*%
%AMOutline6P*
0 Free polygon, 6 corners , with rotation*
0 The origin of the aperture is its center*
0 number of corners: always 6*
0 $1 to $12 corner X, Y*
0 $13 Rotation angle, in degrees counterclockwise*
0 create outline with 6 corners*
4,1,6,$1,$2,$3,$4,$5,$6,$7,$8,$9,$10,$11,$12,$1,$2,$13*%
%AMOutline7P*
0 Free polygon, 7 corners , with rotation*
0 The origin of the aperture is its center*
0 number of corners: always 7*
0 $1 to $14 corner X, Y*
0 $15 Rotation angle, in degrees counterclockwise*
0 create outline with 7 corners*
4,1,7,$1,$2,$3,$4,$5,$6,$7,$8,$9,$10,$11,$12,$13,$14,$1,$2,$15*%
%AMOutline8P*
0 Free polygon, 8 corners , with rotation*
0 The origin of the aperture is its center*
0 number of corners: always 8*
0 $1 to $16 corner X, Y*
0 $17 Rotation angle, in degrees counterclockwise*
0 create outline with 8 corners*
4,1,8,$1,$2,$3,$4,$5,$6,$7,$8,$9,$10,$11,$12,$13,$14,$15,$16,$1,$2,$17*%
G04 Aperture macros list end*
%TA.AperFunction,ComponentPad*%
%ADD10O,1.422400X2.844800*%
%TD*%
%TA.AperFunction,ComponentPad*%
%ADD11Outline8P,-0.711200X0.294589X-0.294589X0.711200X0.294589X0.711200X0.711200X0.294589X0.711200X-0.294589X0.294589X-0.711200X-0.294589X-0.711200X-0.711200X-0.294589X90.000000*%
%TD*%
%TA.AperFunction,ComponentPad*%
%ADD12O,1.458000X2.916000*%
%TD*%
%TA.AperFunction,ComponentPad*%
%ADD13C,2.900000*%
%TD*%
%TA.AperFunction,ComponentPad*%
%ADD14R,1.700000X1.700000*%
%TD*%
%TA.AperFunction,ComponentPad*%
%ADD15O,1.700000X1.700000*%
%TD*%
%TA.AperFunction,ComponentPad*%
%ADD16O,1.524000X3.048000*%
%TD*%
%TA.AperFunction,ComponentPad*%
%ADD17Outline8P,-0.762000X0.315631X-0.315631X0.762000X0.315631X0.762000X0.762000X0.315631X0.762000X-0.315631X0.315631X-0.762000X-0.315631X-0.762000X-0.762000X-0.315631X90.000000*%
%TD*%
%TA.AperFunction,ComponentPad*%
%ADD18C,1.320800*%
%TD*%
%TA.AperFunction,ViaPad*%
%ADD19C,0.756400*%
%TD*%
%TA.AperFunction,ViaPad*%
%ADD20C,0.906400*%
%TD*%
%TA.AperFunction,ViaPad*%
%ADD21C,0.600000*%
%TD*%
G04 APERTURE END LIST*
D10*
%TO.N,/RX*%
%TO.C,JP3*%
X159359600Y-96418400D03*
%TO.N,/TX*%
X161899600Y-96418400D03*
%TD*%
D11*
%TO.N,VCC*%
%TO.C,PROGRAMER0*%
X162041100Y-83483600D03*
%TO.N,GND*%
X159501100Y-83483600D03*
%TO.N,VDD*%
X162041100Y-80943600D03*
%TO.N,/NRST*%
X159501100Y-80943600D03*
%TO.N,/SWCLK*%
X162041100Y-78403600D03*
%TO.N,/SWDIO*%
X159501100Y-78403600D03*
%TD*%
D12*
%TO.N,Net-(F1-Pad2)*%
%TO.C,X1*%
X152001100Y-66713600D03*
%TO.N,/USB_DM*%
X149501100Y-66713600D03*
%TO.N,/USB_DP*%
X147501100Y-66713600D03*
%TO.N,GND*%
X145001100Y-66713600D03*
D13*
%TO.N,unconnected-(X1-PadS1)*%
X155071100Y-64003600D03*
%TO.N,unconnected-(X1-PadS2)*%
X141931100Y-64003600D03*
%TD*%
D14*
%TO.N,GND*%
%TO.C,J1*%
X160782000Y-92608400D03*
D15*
%TO.N,Net-(J1-Pin_2)*%
X160782000Y-90068400D03*
%TO.N,VDD*%
X160782000Y-87528400D03*
%TD*%
D16*
%TO.N,/CLOCK*%
%TO.C,JP2*%
X162257431Y-103249369D03*
%TO.N,/DATA*%
X159717431Y-103249369D03*
%TO.N,/RESET*%
X157177431Y-103249369D03*
%TO.N,VCC*%
X154637431Y-103249369D03*
%TO.N,unconnected-(JP2-Pad5)*%
X152097431Y-103249369D03*
%TO.N,GND*%
X149557431Y-103249369D03*
%TO.N,/STATUS*%
X147017431Y-103249369D03*
%TO.N,/INUSE*%
X144477431Y-103249369D03*
%TD*%
D17*
%TO.N,Net-(U2-PB15)*%
%TO.C,JP1*%
X136271100Y-88583600D03*
%TO.N,Net-(U2-PB9)*%
X133731100Y-88583600D03*
%TO.N,VCC*%
X136271100Y-86043600D03*
%TO.N,Net-(U2-PB8)*%
X133731100Y-86043600D03*
%TO.N,GND*%
X136271100Y-83503600D03*
%TO.N,Net-(U2-PB5)*%
X133731100Y-83503600D03*
%TO.N,Net-(U2-PB14)*%
X136271100Y-80963600D03*
%TO.N,Net-(U2-PB4)*%
X133731100Y-80963600D03*
%TO.N,Net-(U2-PB13)*%
X136271100Y-78423600D03*
%TO.N,Net-(U2-PB3)*%
X133731100Y-78423600D03*
%TD*%
D18*
%TO.N,Net-(U2-PD1_OSC_OUT)*%
%TO.C,Q1*%
X153592337Y-92882875D03*
%TO.N,Net-(U2-PD0_OSC_IN)*%
X148766337Y-92882875D03*
%TD*%
D19*
%TO.N,GND*%
X150221000Y-83149500D03*
X151592600Y-80711100D03*
X146792000Y-78272700D03*
X143210600Y-82768500D03*
X151287800Y-96103500D03*
X135590600Y-94274700D03*
X135819200Y-58536900D03*
D20*
X160546100Y-119446100D03*
X143083600Y-100713600D03*
D19*
X135514400Y-92064900D03*
D20*
X139781600Y-103063100D03*
D19*
%TO.N,VDD*%
X139857800Y-93512700D03*
X154793000Y-83530500D03*
X139934000Y-75605700D03*
X146563400Y-83378100D03*
X159746000Y-71719500D03*
X141762800Y-95417700D03*
X152049800Y-86578500D03*
X146258600Y-75072300D03*
X154869200Y-78882300D03*
%TO.N,VCC*%
X157536200Y-59756100D03*
X137038400Y-103190100D03*
X137571800Y-100142100D03*
%TO.N,Net-(U2-PA3)*%
X152278400Y-74767500D03*
X162641600Y-57622500D03*
%TO.N,Net-(U2-PB3)*%
X144887000Y-87873900D03*
%TO.N,Net-(U2-PB4)*%
X147325400Y-87340500D03*
%TO.N,Net-(U2-PB5)*%
X147325400Y-88559700D03*
D21*
%TO.N,Net-(U2-PB8)*%
X148031200Y-89204800D03*
%TO.N,Net-(U2-PB9)*%
X148627844Y-89741779D03*
D19*
%TO.N,/TX*%
X145115600Y-98237100D03*
%TO.N,/RX*%
X145191800Y-96484500D03*
%TO.N,/SWCLK*%
X143820200Y-85816500D03*
D21*
%TO.N,Net-(U2-BOOT0)*%
X149674500Y-86326084D03*
%TO.N,/USB_DP*%
X147929600Y-82905600D03*
%TO.N,/USB_DM*%
X148539200Y-83667600D03*
D19*
%TO.N,unconnected-(U2-PA2-Pad12)*%
X154869200Y-77205900D03*
D21*
%TO.N,Net-(J1-Pin_2)*%
X158292800Y-87985600D03*
%TD*%
%TA.AperFunction,Conductor*%
%TO.N,VCC*%
G36*
X165714194Y-55060506D02*
G01*
X165732500Y-55104700D01*
X165732500Y-154902500D01*
X165714194Y-154946694D01*
X165670000Y-154965000D01*
X131332200Y-154965000D01*
X131288006Y-154946694D01*
X131269700Y-154902500D01*
X131269700Y-149573192D01*
X157096786Y-149573192D01*
X157118628Y-149771697D01*
X157127214Y-149849724D01*
X157197580Y-150118876D01*
X157306384Y-150374914D01*
X157380465Y-150496300D01*
X157451311Y-150612386D01*
X157629261Y-150826215D01*
X157629275Y-150826229D01*
X157836447Y-151011855D01*
X157836452Y-151011859D01*
X157836457Y-151011863D01*
X158068473Y-151165363D01*
X158320367Y-151283446D01*
X158586769Y-151363595D01*
X158862001Y-151404100D01*
X158862002Y-151404100D01*
X159070569Y-151404100D01*
X159278546Y-151388878D01*
X159278548Y-151388877D01*
X159278555Y-151388877D01*
X159550097Y-151328388D01*
X159809938Y-151229008D01*
X160052540Y-151092853D01*
X160272732Y-150922826D01*
X160465822Y-150722551D01*
X160627693Y-150496296D01*
X160754897Y-150248883D01*
X160844721Y-149985586D01*
X160895252Y-149712016D01*
X160905413Y-149434004D01*
X160874986Y-149157476D01*
X160804620Y-148888324D01*
X160695816Y-148632286D01*
X160550892Y-148394819D01*
X160550890Y-148394817D01*
X160550888Y-148394813D01*
X160372938Y-148180984D01*
X160372924Y-148180970D01*
X160165752Y-147995344D01*
X160165745Y-147995339D01*
X160165743Y-147995337D01*
X159933727Y-147841837D01*
X159681833Y-147723754D01*
X159681830Y-147723753D01*
X159681828Y-147723752D01*
X159415440Y-147643607D01*
X159415426Y-147643604D01*
X159140205Y-147603100D01*
X159140199Y-147603100D01*
X158931637Y-147603100D01*
X158931631Y-147603100D01*
X158723653Y-147618321D01*
X158452103Y-147678812D01*
X158452101Y-147678812D01*
X158192260Y-147778192D01*
X157949660Y-147914346D01*
X157729469Y-148084373D01*
X157729467Y-148084374D01*
X157536374Y-148284653D01*
X157536373Y-148284654D01*
X157374510Y-148510899D01*
X157374507Y-148510903D01*
X157247302Y-148758318D01*
X157157480Y-149021612D01*
X157157477Y-149021620D01*
X157106949Y-149295175D01*
X157106947Y-149295196D01*
X157096786Y-149573192D01*
X131269700Y-149573192D01*
X131269700Y-119446102D01*
X159884375Y-119446102D01*
X159903602Y-119604454D01*
X159903603Y-119604457D01*
X159903603Y-119604458D01*
X159903604Y-119604461D01*
X159948271Y-119722240D01*
X159960173Y-119753622D01*
X160050789Y-119884902D01*
X160050792Y-119884905D01*
X160170197Y-119990689D01*
X160311449Y-120064824D01*
X160466338Y-120103000D01*
X160466339Y-120103000D01*
X160625861Y-120103000D01*
X160625862Y-120103000D01*
X160780751Y-120064824D01*
X160922003Y-119990689D01*
X161041408Y-119884905D01*
X161132028Y-119753619D01*
X161188596Y-119604461D01*
X161207825Y-119446100D01*
X161188596Y-119287739D01*
X161132028Y-119138581D01*
X161132026Y-119138579D01*
X161132026Y-119138577D01*
X161041410Y-119007297D01*
X161041406Y-119007293D01*
X160922002Y-118901510D01*
X160780752Y-118827376D01*
X160625864Y-118789200D01*
X160625862Y-118789200D01*
X160466338Y-118789200D01*
X160466335Y-118789200D01*
X160311447Y-118827376D01*
X160170197Y-118901510D01*
X160050793Y-119007293D01*
X160050789Y-119007297D01*
X159960173Y-119138577D01*
X159903603Y-119287742D01*
X159903602Y-119287745D01*
X159884375Y-119446097D01*
X159884375Y-119446102D01*
X131269700Y-119446102D01*
X131269700Y-104060348D01*
X143511731Y-104060348D01*
X143526620Y-104206762D01*
X143526620Y-104206763D01*
X143556487Y-104301955D01*
X143585417Y-104394162D01*
X143680732Y-104565888D01*
X143680736Y-104565893D01*
X143680737Y-104565894D01*
X143808660Y-104714906D01*
X143808662Y-104714907D01*
X143808665Y-104714911D01*
X143963976Y-104835131D01*
X144140309Y-104921626D01*
X144330443Y-104970855D01*
X144526595Y-104980803D01*
X144720734Y-104951062D01*
X144904913Y-104882850D01*
X145071590Y-104778959D01*
X145213942Y-104643643D01*
X145326142Y-104482442D01*
X145403595Y-104301955D01*
X145443131Y-104109571D01*
X145443131Y-104060348D01*
X146051731Y-104060348D01*
X146066620Y-104206762D01*
X146066620Y-104206763D01*
X146096487Y-104301955D01*
X146125417Y-104394162D01*
X146220732Y-104565888D01*
X146220736Y-104565893D01*
X146220737Y-104565894D01*
X146348660Y-104714906D01*
X146348662Y-104714907D01*
X146348665Y-104714911D01*
X146503976Y-104835131D01*
X146680309Y-104921626D01*
X146870443Y-104970855D01*
X147066595Y-104980803D01*
X147260734Y-104951062D01*
X147444913Y-104882850D01*
X147611590Y-104778959D01*
X147753942Y-104643643D01*
X147866142Y-104482442D01*
X147943595Y-104301955D01*
X147983131Y-104109571D01*
X147983131Y-104060348D01*
X148591731Y-104060348D01*
X148606620Y-104206762D01*
X148606620Y-104206763D01*
X148636487Y-104301955D01*
X148665417Y-104394162D01*
X148760732Y-104565888D01*
X148760736Y-104565893D01*
X148760737Y-104565894D01*
X148888660Y-104714906D01*
X148888662Y-104714907D01*
X148888665Y-104714911D01*
X149043976Y-104835131D01*
X149220309Y-104921626D01*
X149410443Y-104970855D01*
X149606595Y-104980803D01*
X149800734Y-104951062D01*
X149984913Y-104882850D01*
X150151590Y-104778959D01*
X150293942Y-104643643D01*
X150406142Y-104482442D01*
X150483595Y-104301955D01*
X150523131Y-104109571D01*
X150523131Y-104060348D01*
X151131731Y-104060348D01*
X151146620Y-104206762D01*
X151146620Y-104206763D01*
X151176487Y-104301955D01*
X151205417Y-104394162D01*
X151300732Y-104565888D01*
X151300736Y-104565893D01*
X151300737Y-104565894D01*
X151428660Y-104714906D01*
X151428662Y-104714907D01*
X151428665Y-104714911D01*
X151583976Y-104835131D01*
X151760309Y-104921626D01*
X151950443Y-104970855D01*
X152146595Y-104980803D01*
X152340734Y-104951062D01*
X152524913Y-104882850D01*
X152691590Y-104778959D01*
X152833942Y-104643643D01*
X152946142Y-104482442D01*
X153023595Y-104301955D01*
X153063131Y-104109571D01*
X153063131Y-104063735D01*
X153571431Y-104063735D01*
X153586854Y-104220340D01*
X153647811Y-104421286D01*
X153746792Y-104606466D01*
X153746796Y-104606472D01*
X153880008Y-104768791D01*
X154042327Y-104902003D01*
X154042333Y-104902007D01*
X154227513Y-105000988D01*
X154428454Y-105061943D01*
X154428462Y-105061945D01*
X154485431Y-105067555D01*
X154485431Y-103738420D01*
X154492839Y-103741804D01*
X154601097Y-103757369D01*
X154673765Y-103757369D01*
X154782023Y-103741804D01*
X154789431Y-103738420D01*
X154789431Y-105067555D01*
X154846399Y-105061945D01*
X154846407Y-105061943D01*
X155047348Y-105000988D01*
X155232528Y-104902007D01*
X155232534Y-104902003D01*
X155394853Y-104768791D01*
X155528065Y-104606472D01*
X155528069Y-104606466D01*
X155627050Y-104421286D01*
X155688007Y-104220340D01*
X155703431Y-104063735D01*
X155703431Y-104060348D01*
X156211731Y-104060348D01*
X156226620Y-104206762D01*
X156226620Y-104206763D01*
X156256487Y-104301955D01*
X156285417Y-104394162D01*
X156380732Y-104565888D01*
X156380736Y-104565893D01*
X156380737Y-104565894D01*
X156508660Y-104714906D01*
X156508662Y-104714907D01*
X156508665Y-104714911D01*
X156663976Y-104835131D01*
X156840309Y-104921626D01*
X157030443Y-104970855D01*
X157226595Y-104980803D01*
X157420734Y-104951062D01*
X157604913Y-104882850D01*
X157771590Y-104778959D01*
X157913942Y-104643643D01*
X158026142Y-104482442D01*
X158103595Y-104301955D01*
X158143131Y-104109571D01*
X158143131Y-104060348D01*
X158751731Y-104060348D01*
X158766620Y-104206762D01*
X158766620Y-104206763D01*
X158796487Y-104301955D01*
X158825417Y-104394162D01*
X158920732Y-104565888D01*
X158920736Y-104565893D01*
X158920737Y-104565894D01*
X159048660Y-104714906D01*
X159048662Y-104714907D01*
X159048665Y-104714911D01*
X159203976Y-104835131D01*
X159380309Y-104921626D01*
X159570443Y-104970855D01*
X159766595Y-104980803D01*
X159960734Y-104951062D01*
X160144913Y-104882850D01*
X160311590Y-104778959D01*
X160453942Y-104643643D01*
X160566142Y-104482442D01*
X160643595Y-104301955D01*
X160683131Y-104109571D01*
X160683131Y-104060348D01*
X161291731Y-104060348D01*
X161306620Y-104206762D01*
X161306620Y-104206763D01*
X161336487Y-104301955D01*
X161365417Y-104394162D01*
X161460732Y-104565888D01*
X161460736Y-104565893D01*
X161460737Y-104565894D01*
X161588660Y-104714906D01*
X161588662Y-104714907D01*
X161588665Y-104714911D01*
X161743976Y-104835131D01*
X161920309Y-104921626D01*
X162110443Y-104970855D01*
X162306595Y-104980803D01*
X162500734Y-104951062D01*
X162684913Y-104882850D01*
X162851590Y-104778959D01*
X162993942Y-104643643D01*
X163106142Y-104482442D01*
X163183595Y-104301955D01*
X163223131Y-104109571D01*
X163223131Y-102438397D01*
X163223131Y-102438389D01*
X163208241Y-102291975D01*
X163208241Y-102291974D01*
X163208241Y-102291973D01*
X163149445Y-102104576D01*
X163054130Y-101932850D01*
X162987379Y-101855095D01*
X162926201Y-101783831D01*
X162926199Y-101783829D01*
X162926197Y-101783827D01*
X162770886Y-101663607D01*
X162594553Y-101577112D01*
X162404419Y-101527883D01*
X162208267Y-101517935D01*
X162208266Y-101517935D01*
X162208261Y-101517935D01*
X162014133Y-101547675D01*
X162014128Y-101547676D01*
X161829948Y-101615888D01*
X161663276Y-101719775D01*
X161663274Y-101719776D01*
X161520920Y-101855093D01*
X161408719Y-102016297D01*
X161331266Y-102196783D01*
X161291731Y-102389165D01*
X161291731Y-104060348D01*
X160683131Y-104060348D01*
X160683131Y-102438397D01*
X160683131Y-102438389D01*
X160668241Y-102291975D01*
X160668241Y-102291974D01*
X160668241Y-102291973D01*
X160609445Y-102104576D01*
X160514130Y-101932850D01*
X160447379Y-101855095D01*
X160386201Y-101783831D01*
X160386199Y-101783829D01*
X160386197Y-101783827D01*
X160230886Y-101663607D01*
X160054553Y-101577112D01*
X159864419Y-101527883D01*
X159668267Y-101517935D01*
X159668266Y-101517935D01*
X159668261Y-101517935D01*
X159474133Y-101547675D01*
X159474128Y-101547676D01*
X159289948Y-101615888D01*
X159123276Y-101719775D01*
X159123274Y-101719776D01*
X158980920Y-101855093D01*
X158868719Y-102016297D01*
X158791266Y-102196783D01*
X158751731Y-102389165D01*
X158751731Y-104060348D01*
X158143131Y-104060348D01*
X158143131Y-102438397D01*
X158143131Y-102438389D01*
X158128241Y-102291975D01*
X158128241Y-102291974D01*
X158128241Y-102291973D01*
X158069445Y-102104576D01*
X157974130Y-101932850D01*
X157907379Y-101855095D01*
X157846201Y-101783831D01*
X157846199Y-101783829D01*
X157846197Y-101783827D01*
X157690886Y-101663607D01*
X157514553Y-101577112D01*
X157324419Y-101527883D01*
X157128267Y-101517935D01*
X157128266Y-101517935D01*
X157128261Y-101517935D01*
X156934133Y-101547675D01*
X156934128Y-101547676D01*
X156749948Y-101615888D01*
X156583276Y-101719775D01*
X156583274Y-101719776D01*
X156440920Y-101855093D01*
X156328719Y-102016297D01*
X156251266Y-102196783D01*
X156211731Y-102389165D01*
X156211731Y-104060348D01*
X155703431Y-104060348D01*
X155703431Y-103401369D01*
X155122246Y-103401369D01*
X155145431Y-103322408D01*
X155145431Y-103176330D01*
X155122246Y-103097369D01*
X155703431Y-103097369D01*
X155703431Y-102435002D01*
X155688007Y-102278397D01*
X155627050Y-102077451D01*
X155528069Y-101892271D01*
X155528065Y-101892265D01*
X155394853Y-101729946D01*
X155232534Y-101596734D01*
X155232528Y-101596730D01*
X155047348Y-101497749D01*
X154846403Y-101436792D01*
X154789431Y-101431180D01*
X154789431Y-102760317D01*
X154782023Y-102756934D01*
X154673765Y-102741369D01*
X154601097Y-102741369D01*
X154492839Y-102756934D01*
X154485431Y-102760317D01*
X154485431Y-101431181D01*
X154485430Y-101431180D01*
X154428458Y-101436792D01*
X154227513Y-101497749D01*
X154042333Y-101596730D01*
X154042327Y-101596734D01*
X153880008Y-101729946D01*
X153746796Y-101892265D01*
X153746792Y-101892271D01*
X153647811Y-102077451D01*
X153586854Y-102278397D01*
X153571431Y-102435002D01*
X153571431Y-103097369D01*
X154152616Y-103097369D01*
X154129431Y-103176330D01*
X154129431Y-103322408D01*
X154152616Y-103401369D01*
X153571431Y-103401369D01*
X153571431Y-104063735D01*
X153063131Y-104063735D01*
X153063131Y-102438397D01*
X153063131Y-102438389D01*
X153048241Y-102291975D01*
X153048241Y-102291974D01*
X153048241Y-102291973D01*
X152989445Y-102104576D01*
X152894130Y-101932850D01*
X152827379Y-101855095D01*
X152766201Y-101783831D01*
X152766199Y-101783829D01*
X152766197Y-101783827D01*
X152610886Y-101663607D01*
X152434553Y-101577112D01*
X152244419Y-101527883D01*
X152048267Y-101517935D01*
X152048266Y-101517935D01*
X152048261Y-101517935D01*
X151854133Y-101547675D01*
X151854128Y-101547676D01*
X151669948Y-101615888D01*
X151503276Y-101719775D01*
X151503274Y-101719776D01*
X151360920Y-101855093D01*
X151248719Y-102016297D01*
X151171266Y-102196783D01*
X151131731Y-102389165D01*
X151131731Y-104060348D01*
X150523131Y-104060348D01*
X150523131Y-102438397D01*
X150523131Y-102438389D01*
X150508241Y-102291975D01*
X150508241Y-102291974D01*
X150508241Y-102291973D01*
X150449445Y-102104576D01*
X150354130Y-101932850D01*
X150287379Y-101855095D01*
X150226201Y-101783831D01*
X150226199Y-101783829D01*
X150226197Y-101783827D01*
X150070886Y-101663607D01*
X149894553Y-101577112D01*
X149704419Y-101527883D01*
X149508267Y-101517935D01*
X149508266Y-101517935D01*
X149508261Y-101517935D01*
X149314133Y-101547675D01*
X149314128Y-101547676D01*
X149129948Y-101615888D01*
X148963276Y-101719775D01*
X148963274Y-101719776D01*
X148820920Y-101855093D01*
X148708719Y-102016297D01*
X148631266Y-102196783D01*
X148591731Y-102389165D01*
X148591731Y-104060348D01*
X147983131Y-104060348D01*
X147983131Y-102438397D01*
X147983131Y-102438389D01*
X147968241Y-102291975D01*
X147968241Y-102291974D01*
X147968241Y-102291973D01*
X147909445Y-102104576D01*
X147814130Y-101932850D01*
X147747379Y-101855095D01*
X147686201Y-101783831D01*
X147686199Y-101783829D01*
X147686197Y-101783827D01*
X147530886Y-101663607D01*
X147354553Y-101577112D01*
X147164419Y-101527883D01*
X146968267Y-101517935D01*
X146968266Y-101517935D01*
X146968261Y-101517935D01*
X146774133Y-101547675D01*
X146774128Y-101547676D01*
X146589948Y-101615888D01*
X146423276Y-101719775D01*
X146423274Y-101719776D01*
X146280920Y-101855093D01*
X146168719Y-102016297D01*
X146091266Y-102196783D01*
X146051731Y-102389165D01*
X146051731Y-104060348D01*
X145443131Y-104060348D01*
X145443131Y-102438397D01*
X145443131Y-102438389D01*
X145428241Y-102291975D01*
X145428241Y-102291974D01*
X145428241Y-102291973D01*
X145369445Y-102104576D01*
X145274130Y-101932850D01*
X145207379Y-101855095D01*
X145146201Y-101783831D01*
X145146199Y-101783829D01*
X145146197Y-101783827D01*
X144990886Y-101663607D01*
X144814553Y-101577112D01*
X144624419Y-101527883D01*
X144428267Y-101517935D01*
X144428266Y-101517935D01*
X144428261Y-101517935D01*
X144234133Y-101547675D01*
X144234128Y-101547676D01*
X144049948Y-101615888D01*
X143883276Y-101719775D01*
X143883274Y-101719776D01*
X143740920Y-101855093D01*
X143628719Y-102016297D01*
X143551266Y-102196783D01*
X143511731Y-102389165D01*
X143511731Y-104060348D01*
X131269700Y-104060348D01*
X131269700Y-103063102D01*
X139119875Y-103063102D01*
X139139102Y-103221454D01*
X139139103Y-103221457D01*
X139139103Y-103221458D01*
X139139104Y-103221461D01*
X139177388Y-103322408D01*
X139195673Y-103370622D01*
X139286289Y-103501902D01*
X139286293Y-103501906D01*
X139405697Y-103607689D01*
X139545609Y-103681121D01*
X139546949Y-103681824D01*
X139701838Y-103720000D01*
X139701839Y-103720000D01*
X139861361Y-103720000D01*
X139861362Y-103720000D01*
X140016251Y-103681824D01*
X140157503Y-103607689D01*
X140276908Y-103501905D01*
X140367528Y-103370619D01*
X140424096Y-103221461D01*
X140443325Y-103063100D01*
X140424096Y-102904739D01*
X140367528Y-102755581D01*
X140367526Y-102755579D01*
X140367526Y-102755577D01*
X140276910Y-102624297D01*
X140276906Y-102624293D01*
X140157502Y-102518510D01*
X140016252Y-102444376D01*
X139861364Y-102406200D01*
X139861362Y-102406200D01*
X139701838Y-102406200D01*
X139701835Y-102406200D01*
X139546947Y-102444376D01*
X139405697Y-102518510D01*
X139286293Y-102624293D01*
X139286289Y-102624297D01*
X139195673Y-102755577D01*
X139139103Y-102904742D01*
X139139102Y-102904745D01*
X139119875Y-103063097D01*
X139119875Y-103063102D01*
X131269700Y-103063102D01*
X131269700Y-100713602D01*
X142421875Y-100713602D01*
X142441102Y-100871954D01*
X142441103Y-100871957D01*
X142441103Y-100871958D01*
X142441104Y-100871961D01*
X142485771Y-100989740D01*
X142497673Y-101021122D01*
X142588289Y-101152402D01*
X142588292Y-101152405D01*
X142707697Y-101258189D01*
X142848949Y-101332324D01*
X143003838Y-101370500D01*
X143003839Y-101370500D01*
X143163361Y-101370500D01*
X143163362Y-101370500D01*
X143318251Y-101332324D01*
X143459503Y-101258189D01*
X143578908Y-101152405D01*
X143669528Y-101021119D01*
X143726096Y-100871961D01*
X143745325Y-100713600D01*
X143726096Y-100555239D01*
X143669528Y-100406081D01*
X143669526Y-100406079D01*
X143669526Y-100406077D01*
X143578910Y-100274797D01*
X143578906Y-100274793D01*
X143459502Y-100169010D01*
X143318252Y-100094876D01*
X143163364Y-100056700D01*
X143163362Y-100056700D01*
X143003838Y-100056700D01*
X143003835Y-100056700D01*
X142848947Y-100094876D01*
X142707697Y-100169010D01*
X142588293Y-100274793D01*
X142588289Y-100274797D01*
X142497673Y-100406077D01*
X142441103Y-100555242D01*
X142441102Y-100555245D01*
X142421875Y-100713597D01*
X142421875Y-100713602D01*
X131269700Y-100713602D01*
X131269700Y-99185383D01*
X138607700Y-99185383D01*
X138607859Y-99191151D01*
X138608400Y-99200930D01*
X138608401Y-99200935D01*
X138633969Y-99290075D01*
X138633970Y-99290078D01*
X138657042Y-99331974D01*
X138657044Y-99331977D01*
X138709483Y-99394271D01*
X139132357Y-99732571D01*
X139132359Y-99732572D01*
X139177888Y-99757805D01*
X139193648Y-99766539D01*
X139232691Y-99780235D01*
X139290008Y-99789996D01*
X139301773Y-99792000D01*
X139301774Y-99792000D01*
X159391717Y-99792000D01*
X159471584Y-99776113D01*
X159515778Y-99757807D01*
X159583484Y-99712567D01*
X160688067Y-98607984D01*
X160733307Y-98540278D01*
X160751613Y-98496084D01*
X160767500Y-98416217D01*
X160767500Y-97177554D01*
X160984700Y-97177554D01*
X160999763Y-97320868D01*
X161059190Y-97503767D01*
X161155352Y-97670325D01*
X161155351Y-97670325D01*
X161284034Y-97813243D01*
X161284035Y-97813244D01*
X161284040Y-97813249D01*
X161439630Y-97926291D01*
X161538892Y-97970485D01*
X161615311Y-98004510D01*
X161615315Y-98004511D01*
X161615323Y-98004515D01*
X161615326Y-98004515D01*
X161615327Y-98004516D01*
X161803440Y-98044500D01*
X161995760Y-98044500D01*
X162183872Y-98004516D01*
X162183871Y-98004516D01*
X162183877Y-98004515D01*
X162359570Y-97926291D01*
X162515160Y-97813249D01*
X162643847Y-97670327D01*
X162740007Y-97503773D01*
X162799437Y-97320866D01*
X162814500Y-97177552D01*
X162814500Y-95659248D01*
X162799437Y-95515934D01*
X162740007Y-95333027D01*
X162643847Y-95166473D01*
X162515160Y-95023551D01*
X162359570Y-94910509D01*
X162359568Y-94910508D01*
X162183888Y-94832289D01*
X162183872Y-94832283D01*
X161995760Y-94792300D01*
X161803440Y-94792300D01*
X161615327Y-94832283D01*
X161615311Y-94832289D01*
X161439631Y-94910508D01*
X161439630Y-94910509D01*
X161284040Y-95023551D01*
X161284039Y-95023552D01*
X161284035Y-95023555D01*
X161284034Y-95023556D01*
X161155352Y-95166474D01*
X161059190Y-95333032D01*
X160999763Y-95515931D01*
X160984700Y-95659245D01*
X160984700Y-97177554D01*
X160767500Y-97177554D01*
X160767500Y-93724600D01*
X160785806Y-93680406D01*
X160830000Y-93662100D01*
X161652063Y-93662100D01*
X161652064Y-93662100D01*
X161711480Y-93650281D01*
X161778860Y-93605260D01*
X161823881Y-93537880D01*
X161835700Y-93478464D01*
X161835700Y-91738336D01*
X161823881Y-91678920D01*
X161778860Y-91611540D01*
X161711480Y-91566519D01*
X161652064Y-91554700D01*
X161652063Y-91554700D01*
X160830000Y-91554700D01*
X160785806Y-91536394D01*
X160767500Y-91492200D01*
X160767500Y-91185272D01*
X160785806Y-91141078D01*
X160823872Y-91123073D01*
X160988561Y-91106853D01*
X161187184Y-91046602D01*
X161370237Y-90948758D01*
X161530683Y-90817083D01*
X161662358Y-90656637D01*
X161760202Y-90473584D01*
X161820453Y-90274961D01*
X161840798Y-90068400D01*
X161820453Y-89861839D01*
X161760202Y-89663216D01*
X161662358Y-89480163D01*
X161530683Y-89319717D01*
X161370237Y-89188042D01*
X161370231Y-89188038D01*
X161271187Y-89135098D01*
X161187184Y-89090198D01*
X161187181Y-89090197D01*
X161187179Y-89090196D01*
X160988562Y-89029947D01*
X160988557Y-89029946D01*
X160823874Y-89013726D01*
X160781687Y-88991176D01*
X160767500Y-88951527D01*
X160767500Y-88712566D01*
X160767500Y-88712565D01*
X160758872Y-88655539D01*
X160770361Y-88609106D01*
X160811319Y-88584394D01*
X160814515Y-88583995D01*
X160988561Y-88566853D01*
X161187184Y-88506602D01*
X161370237Y-88408758D01*
X161530683Y-88277083D01*
X161662358Y-88116637D01*
X161760202Y-87933584D01*
X161820453Y-87734961D01*
X161840798Y-87528400D01*
X161820453Y-87321839D01*
X161760202Y-87123216D01*
X161662358Y-86940163D01*
X161530683Y-86779717D01*
X161370237Y-86648042D01*
X161370231Y-86648038D01*
X161271187Y-86595098D01*
X161187184Y-86550198D01*
X161187181Y-86550197D01*
X161187179Y-86550196D01*
X160988562Y-86489947D01*
X160988556Y-86489946D01*
X160811946Y-86472551D01*
X160769759Y-86450001D01*
X160755873Y-86404226D01*
X160756773Y-86398158D01*
X160760526Y-86379295D01*
X160767500Y-86344233D01*
X160767500Y-83390639D01*
X160785805Y-83346446D01*
X160919207Y-83213044D01*
X160963400Y-83194739D01*
X161007594Y-83213045D01*
X161025900Y-83257239D01*
X161025900Y-83331600D01*
X161606835Y-83331600D01*
X161580029Y-83449047D01*
X161590328Y-83586486D01*
X161609604Y-83635600D01*
X161025900Y-83635600D01*
X161025900Y-83828661D01*
X161025901Y-83828683D01*
X161027293Y-83842020D01*
X161027295Y-83842027D01*
X161070784Y-83947020D01*
X161070789Y-83947027D01*
X161079242Y-83957450D01*
X161079251Y-83957460D01*
X161567238Y-84445446D01*
X161567250Y-84445457D01*
X161577673Y-84453912D01*
X161682679Y-84497407D01*
X161696033Y-84498800D01*
X161889100Y-84498800D01*
X161889100Y-83915170D01*
X161972188Y-83940800D01*
X162075360Y-83940800D01*
X162177384Y-83925422D01*
X162193100Y-83917853D01*
X162193100Y-84498800D01*
X162386162Y-84498800D01*
X162386183Y-84498798D01*
X162399520Y-84497406D01*
X162399527Y-84497404D01*
X162504520Y-84453915D01*
X162504527Y-84453910D01*
X162514950Y-84445457D01*
X162514960Y-84445448D01*
X163002946Y-83957461D01*
X163002957Y-83957449D01*
X163011412Y-83947026D01*
X163054907Y-83842020D01*
X163056300Y-83828666D01*
X163056300Y-83635600D01*
X162475365Y-83635600D01*
X162502171Y-83518153D01*
X162491872Y-83380714D01*
X162472596Y-83331600D01*
X163056300Y-83331600D01*
X163056300Y-83138538D01*
X163056298Y-83138516D01*
X163054906Y-83125179D01*
X163054904Y-83125172D01*
X163011415Y-83020179D01*
X163011410Y-83020172D01*
X163002957Y-83009749D01*
X163002948Y-83009739D01*
X162594502Y-82601294D01*
X162576196Y-82557100D01*
X162594502Y-82512906D01*
X162638696Y-82494600D01*
X162896917Y-82494600D01*
X162976784Y-82478713D01*
X163020978Y-82460407D01*
X163088684Y-82415167D01*
X163507467Y-81996384D01*
X163552707Y-81928678D01*
X163571013Y-81884484D01*
X163586900Y-81804617D01*
X163586900Y-80074783D01*
X163571013Y-79994916D01*
X163552707Y-79950722D01*
X163507467Y-79883016D01*
X163012484Y-79388033D01*
X162996693Y-79377482D01*
X162944779Y-79342794D01*
X162944780Y-79342794D01*
X162944778Y-79342793D01*
X162900584Y-79324487D01*
X162900582Y-79324486D01*
X162820718Y-79308600D01*
X162820717Y-79308600D01*
X162580853Y-79308600D01*
X162536659Y-79290294D01*
X162518353Y-79246100D01*
X162536659Y-79201906D01*
X162614317Y-79124248D01*
X162910526Y-78828038D01*
X162944182Y-78777669D01*
X162956000Y-78718254D01*
X162956001Y-78088946D01*
X162944182Y-78029531D01*
X162943484Y-78028487D01*
X162910525Y-77979160D01*
X162910523Y-77979158D01*
X162465539Y-77534175D01*
X162465534Y-77534171D01*
X162415172Y-77500520D01*
X162415167Y-77500517D01*
X162355754Y-77488700D01*
X162355752Y-77488699D01*
X161726446Y-77488699D01*
X161667030Y-77500518D01*
X161667029Y-77500518D01*
X161616660Y-77534174D01*
X161616658Y-77534176D01*
X161255194Y-77895641D01*
X161211000Y-77913947D01*
X161166806Y-77895641D01*
X161148500Y-77851447D01*
X161148500Y-71540383D01*
X161132613Y-71460516D01*
X161114307Y-71416322D01*
X161069067Y-71348616D01*
X160269284Y-70548833D01*
X160201578Y-70503593D01*
X160157384Y-70485287D01*
X160157382Y-70485286D01*
X160077518Y-70469400D01*
X160077517Y-70469400D01*
X149127483Y-70469400D01*
X149127481Y-70469400D01*
X149047617Y-70485286D01*
X149047616Y-70485286D01*
X149003424Y-70503592D01*
X149003420Y-70503594D01*
X148935716Y-70548832D01*
X145756854Y-73727694D01*
X145712660Y-73746000D01*
X138878898Y-73746000D01*
X138799034Y-73761886D01*
X138754845Y-73780190D01*
X138754832Y-73780197D01*
X138695642Y-73817388D01*
X138695640Y-73817390D01*
X138641895Y-73893134D01*
X138623585Y-73937338D01*
X138607700Y-74017198D01*
X138607700Y-99185383D01*
X131269700Y-99185383D01*
X131269700Y-94274702D01*
X135003679Y-94274702D01*
X135023676Y-94426599D01*
X135023677Y-94426605D01*
X135023678Y-94426606D01*
X135082312Y-94568161D01*
X135175584Y-94689716D01*
X135297139Y-94782988D01*
X135438694Y-94841622D01*
X135438698Y-94841622D01*
X135438700Y-94841623D01*
X135590597Y-94861621D01*
X135590600Y-94861621D01*
X135590603Y-94861621D01*
X135742499Y-94841623D01*
X135742499Y-94841622D01*
X135742506Y-94841622D01*
X135884061Y-94782988D01*
X136005616Y-94689716D01*
X136098888Y-94568161D01*
X136157522Y-94426606D01*
X136177521Y-94274700D01*
X136157522Y-94122794D01*
X136098888Y-93981240D01*
X136005616Y-93859684D01*
X136005614Y-93859683D01*
X136005614Y-93859682D01*
X135884061Y-93766412D01*
X135884058Y-93766410D01*
X135742509Y-93707779D01*
X135742499Y-93707776D01*
X135590603Y-93687779D01*
X135590597Y-93687779D01*
X135438700Y-93707776D01*
X135438690Y-93707779D01*
X135297143Y-93766410D01*
X135175584Y-93859684D01*
X135082310Y-93981243D01*
X135023679Y-94122790D01*
X135023676Y-94122800D01*
X135003679Y-94274697D01*
X135003679Y-94274702D01*
X131269700Y-94274702D01*
X131269700Y-92064902D01*
X134927479Y-92064902D01*
X134947476Y-92216799D01*
X134947477Y-92216805D01*
X134947478Y-92216806D01*
X135006112Y-92358361D01*
X135099384Y-92479916D01*
X135220939Y-92573188D01*
X135362494Y-92631822D01*
X135362498Y-92631822D01*
X135362500Y-92631823D01*
X135514397Y-92651821D01*
X135514400Y-92651821D01*
X135514403Y-92651821D01*
X135666299Y-92631823D01*
X135666299Y-92631822D01*
X135666306Y-92631822D01*
X135807861Y-92573188D01*
X135929416Y-92479916D01*
X136022688Y-92358361D01*
X136081322Y-92216806D01*
X136101321Y-92064900D01*
X136081322Y-91912994D01*
X136022688Y-91771440D01*
X135929416Y-91649884D01*
X135929414Y-91649883D01*
X135929414Y-91649882D01*
X135807861Y-91556612D01*
X135807858Y-91556610D01*
X135666309Y-91497979D01*
X135666299Y-91497976D01*
X135514403Y-91477979D01*
X135514397Y-91477979D01*
X135362500Y-91497976D01*
X135362490Y-91497979D01*
X135220943Y-91556610D01*
X135099384Y-91649884D01*
X135006110Y-91771443D01*
X134947479Y-91912990D01*
X134947476Y-91913000D01*
X134927479Y-92064897D01*
X134927479Y-92064902D01*
X131269700Y-92064902D01*
X131269700Y-88919296D01*
X132765399Y-88919296D01*
X132777218Y-88978711D01*
X132777218Y-88978712D01*
X132810874Y-89029081D01*
X133285617Y-89503824D01*
X133285623Y-89503829D01*
X133335987Y-89537480D01*
X133335989Y-89537481D01*
X133395405Y-89549300D01*
X134066796Y-89549301D01*
X134126211Y-89537482D01*
X134176582Y-89503825D01*
X134651326Y-89029081D01*
X134684981Y-88978711D01*
X134696800Y-88919296D01*
X135305399Y-88919296D01*
X135317218Y-88978711D01*
X135317218Y-88978712D01*
X135350874Y-89029081D01*
X135825617Y-89503824D01*
X135825623Y-89503829D01*
X135875987Y-89537480D01*
X135875989Y-89537481D01*
X135935405Y-89549300D01*
X136606796Y-89549301D01*
X136666211Y-89537482D01*
X136716582Y-89503825D01*
X137191326Y-89029081D01*
X137224981Y-88978711D01*
X137236800Y-88919295D01*
X137236801Y-88247904D01*
X137224982Y-88188489D01*
X137191325Y-88138118D01*
X136716581Y-87663374D01*
X136716579Y-87663373D01*
X136716576Y-87663370D01*
X136666212Y-87629719D01*
X136606794Y-87617899D01*
X135935404Y-87617899D01*
X135875988Y-87629718D01*
X135875987Y-87629718D01*
X135825618Y-87663374D01*
X135350875Y-88138117D01*
X135350870Y-88138123D01*
X135317219Y-88188487D01*
X135305399Y-88247905D01*
X135305399Y-88583992D01*
X135305399Y-88919296D01*
X134696800Y-88919296D01*
X134696800Y-88919295D01*
X134696801Y-88247904D01*
X134684982Y-88188489D01*
X134651325Y-88138118D01*
X134176581Y-87663374D01*
X134176579Y-87663373D01*
X134176576Y-87663370D01*
X134126212Y-87629719D01*
X134066794Y-87617899D01*
X133395404Y-87617899D01*
X133335988Y-87629718D01*
X133335987Y-87629718D01*
X133285618Y-87663374D01*
X132810875Y-88138117D01*
X132810870Y-88138123D01*
X132777219Y-88188487D01*
X132765399Y-88247905D01*
X132765399Y-88583992D01*
X132765399Y-88919296D01*
X131269700Y-88919296D01*
X131269700Y-86379296D01*
X132765399Y-86379296D01*
X132774312Y-86424100D01*
X132777218Y-86438711D01*
X132777218Y-86438712D01*
X132810874Y-86489081D01*
X133285617Y-86963824D01*
X133285623Y-86963829D01*
X133335987Y-86997480D01*
X133335989Y-86997481D01*
X133395405Y-87009300D01*
X134066796Y-87009301D01*
X134126211Y-86997482D01*
X134176582Y-86963825D01*
X134651326Y-86489081D01*
X134684981Y-86438711D01*
X134690751Y-86409703D01*
X135205100Y-86409703D01*
X135205101Y-86409725D01*
X135206493Y-86423062D01*
X135206495Y-86423069D01*
X135249984Y-86528062D01*
X135249989Y-86528069D01*
X135258442Y-86538492D01*
X135258451Y-86538502D01*
X135776190Y-87056242D01*
X135776202Y-87056253D01*
X135786631Y-87064713D01*
X135891637Y-87108206D01*
X135891634Y-87108206D01*
X135904999Y-87109600D01*
X136119100Y-87109600D01*
X136119100Y-86532651D01*
X136126508Y-86536035D01*
X136234766Y-86551600D01*
X136307434Y-86551600D01*
X136415692Y-86536035D01*
X136423100Y-86532651D01*
X136423100Y-87109600D01*
X136637204Y-87109600D01*
X136637225Y-87109598D01*
X136650562Y-87108206D01*
X136650569Y-87108204D01*
X136755562Y-87064715D01*
X136755569Y-87064710D01*
X136765992Y-87056257D01*
X136766002Y-87056248D01*
X137283742Y-86538509D01*
X137283753Y-86538497D01*
X137292213Y-86528068D01*
X137335706Y-86423063D01*
X137337100Y-86409700D01*
X137337100Y-86195600D01*
X136755915Y-86195600D01*
X136779100Y-86116639D01*
X136779100Y-85970561D01*
X136755915Y-85891600D01*
X137337100Y-85891600D01*
X137337100Y-85677496D01*
X137337098Y-85677474D01*
X137335706Y-85664137D01*
X137335704Y-85664130D01*
X137292215Y-85559137D01*
X137292210Y-85559130D01*
X137283757Y-85548707D01*
X137283748Y-85548697D01*
X136766009Y-85030957D01*
X136765997Y-85030946D01*
X136755568Y-85022486D01*
X136650562Y-84978993D01*
X136650565Y-84978993D01*
X136637201Y-84977600D01*
X136423100Y-84977600D01*
X136423100Y-85554548D01*
X136415692Y-85551165D01*
X136307434Y-85535600D01*
X136234766Y-85535600D01*
X136126508Y-85551165D01*
X136119100Y-85554548D01*
X136119100Y-84977600D01*
X135904996Y-84977600D01*
X135904974Y-84977601D01*
X135891637Y-84978993D01*
X135891630Y-84978995D01*
X135786637Y-85022484D01*
X135786630Y-85022489D01*
X135776207Y-85030942D01*
X135776197Y-85030951D01*
X135258457Y-85548690D01*
X135258446Y-85548702D01*
X135249986Y-85559131D01*
X135206493Y-85664136D01*
X135205100Y-85677499D01*
X135205100Y-85891600D01*
X135786285Y-85891600D01*
X135763100Y-85970561D01*
X135763100Y-86116639D01*
X135786285Y-86195600D01*
X135205100Y-86195600D01*
X135205100Y-86409703D01*
X134690751Y-86409703D01*
X134696800Y-86379295D01*
X134696801Y-85707904D01*
X134684982Y-85648489D01*
X134651325Y-85598118D01*
X134176581Y-85123374D01*
X134176579Y-85123373D01*
X134176576Y-85123370D01*
X134126212Y-85089719D01*
X134066794Y-85077899D01*
X133395404Y-85077899D01*
X133335988Y-85089718D01*
X133335987Y-85089718D01*
X133285618Y-85123374D01*
X132810875Y-85598117D01*
X132810870Y-85598123D01*
X132777219Y-85648487D01*
X132765399Y-85707905D01*
X132765399Y-86116639D01*
X132765399Y-86379296D01*
X131269700Y-86379296D01*
X131269700Y-83839295D01*
X132765399Y-83839295D01*
X132777218Y-83898711D01*
X132777218Y-83898712D01*
X132810874Y-83949081D01*
X133285617Y-84423824D01*
X133285623Y-84423829D01*
X133335987Y-84457480D01*
X133335989Y-84457481D01*
X133395405Y-84469300D01*
X134066796Y-84469301D01*
X134126211Y-84457482D01*
X134176582Y-84423825D01*
X134651326Y-83949081D01*
X134684981Y-83898711D01*
X134696800Y-83839295D01*
X135305399Y-83839295D01*
X135317218Y-83898711D01*
X135317218Y-83898712D01*
X135350874Y-83949081D01*
X135825617Y-84423824D01*
X135825623Y-84423829D01*
X135875987Y-84457480D01*
X135875989Y-84457481D01*
X135935405Y-84469300D01*
X136606796Y-84469301D01*
X136666211Y-84457482D01*
X136716582Y-84423825D01*
X137191326Y-83949081D01*
X137224981Y-83898711D01*
X137236800Y-83839295D01*
X137236801Y-83167904D01*
X137224982Y-83108489D01*
X137191325Y-83058118D01*
X136716581Y-82583374D01*
X136716579Y-82583373D01*
X136716576Y-82583370D01*
X136666212Y-82549719D01*
X136606794Y-82537899D01*
X135935404Y-82537899D01*
X135875988Y-82549718D01*
X135875987Y-82549718D01*
X135825618Y-82583374D01*
X135350875Y-83058117D01*
X135350870Y-83058123D01*
X135317219Y-83108487D01*
X135305399Y-83167905D01*
X135305399Y-83839295D01*
X134696800Y-83839295D01*
X134696801Y-83167904D01*
X134684982Y-83108489D01*
X134651325Y-83058118D01*
X134176581Y-82583374D01*
X134176579Y-82583373D01*
X134176576Y-82583370D01*
X134126212Y-82549719D01*
X134066794Y-82537899D01*
X133395404Y-82537899D01*
X133335988Y-82549718D01*
X133335987Y-82549718D01*
X133285618Y-82583374D01*
X132810875Y-83058117D01*
X132810870Y-83058123D01*
X132777219Y-83108487D01*
X132765399Y-83167905D01*
X132765399Y-83839295D01*
X131269700Y-83839295D01*
X131269700Y-81299295D01*
X132765399Y-81299295D01*
X132777218Y-81358711D01*
X132777218Y-81358712D01*
X132810874Y-81409081D01*
X133285617Y-81883824D01*
X133285623Y-81883829D01*
X133335987Y-81917480D01*
X133335989Y-81917481D01*
X133395405Y-81929300D01*
X134066796Y-81929301D01*
X134126211Y-81917482D01*
X134176582Y-81883825D01*
X134651326Y-81409081D01*
X134684981Y-81358711D01*
X134696800Y-81299295D01*
X135305399Y-81299295D01*
X135317218Y-81358711D01*
X135317218Y-81358712D01*
X135350874Y-81409081D01*
X135825617Y-81883824D01*
X135825623Y-81883829D01*
X135875987Y-81917480D01*
X135875989Y-81917481D01*
X135935405Y-81929300D01*
X136606796Y-81929301D01*
X136666211Y-81917482D01*
X136716582Y-81883825D01*
X137191326Y-81409081D01*
X137224981Y-81358711D01*
X137236800Y-81299295D01*
X137236801Y-80627904D01*
X137224982Y-80568489D01*
X137191325Y-80518118D01*
X136716581Y-80043374D01*
X136716579Y-80043373D01*
X136716576Y-80043370D01*
X136666212Y-80009719D01*
X136606794Y-79997899D01*
X135935404Y-79997899D01*
X135875988Y-80009718D01*
X135875987Y-80009718D01*
X135825618Y-80043374D01*
X135350875Y-80518117D01*
X135350870Y-80518123D01*
X135317219Y-80568487D01*
X135305399Y-80627905D01*
X135305399Y-81299295D01*
X134696800Y-81299295D01*
X134696801Y-80627904D01*
X134684982Y-80568489D01*
X134651325Y-80518118D01*
X134176581Y-80043374D01*
X134176579Y-80043373D01*
X134176576Y-80043370D01*
X134126212Y-80009719D01*
X134066794Y-79997899D01*
X133395404Y-79997899D01*
X133335988Y-80009718D01*
X133335987Y-80009718D01*
X133285618Y-80043374D01*
X132810875Y-80518117D01*
X132810870Y-80518123D01*
X132777219Y-80568487D01*
X132765399Y-80627905D01*
X132765399Y-81299295D01*
X131269700Y-81299295D01*
X131269700Y-78759296D01*
X132765399Y-78759296D01*
X132772174Y-78793356D01*
X132777218Y-78818711D01*
X132777218Y-78818712D01*
X132810874Y-78869081D01*
X133285617Y-79343824D01*
X133285623Y-79343829D01*
X133335987Y-79377480D01*
X133335989Y-79377481D01*
X133395405Y-79389300D01*
X134066796Y-79389301D01*
X134126211Y-79377482D01*
X134176582Y-79343825D01*
X134651326Y-78869081D01*
X134684981Y-78818711D01*
X134696800Y-78759296D01*
X135305399Y-78759296D01*
X135312174Y-78793356D01*
X135317218Y-78818711D01*
X135317218Y-78818712D01*
X135350874Y-78869081D01*
X135825617Y-79343824D01*
X135825623Y-79343829D01*
X135875987Y-79377480D01*
X135875989Y-79377481D01*
X135935405Y-79389300D01*
X136606796Y-79389301D01*
X136666211Y-79377482D01*
X136716582Y-79343825D01*
X137191326Y-78869081D01*
X137224981Y-78818711D01*
X137236800Y-78759295D01*
X137236801Y-78087904D01*
X137224982Y-78028489D01*
X137191325Y-77978118D01*
X136716581Y-77503374D01*
X136716579Y-77503373D01*
X136716576Y-77503370D01*
X136666212Y-77469719D01*
X136606794Y-77457899D01*
X135935404Y-77457899D01*
X135875988Y-77469718D01*
X135875987Y-77469718D01*
X135825618Y-77503374D01*
X135350875Y-77978117D01*
X135350870Y-77978123D01*
X135317219Y-78028487D01*
X135305399Y-78087905D01*
X135305399Y-78696117D01*
X135305399Y-78759296D01*
X134696800Y-78759296D01*
X134696800Y-78759295D01*
X134696801Y-78087904D01*
X134684982Y-78028489D01*
X134651325Y-77978118D01*
X134176581Y-77503374D01*
X134176579Y-77503373D01*
X134176576Y-77503370D01*
X134126212Y-77469719D01*
X134066794Y-77457899D01*
X133395404Y-77457899D01*
X133335988Y-77469718D01*
X133335987Y-77469718D01*
X133285618Y-77503374D01*
X132810875Y-77978117D01*
X132810870Y-77978123D01*
X132777219Y-78028487D01*
X132765399Y-78087905D01*
X132765399Y-78696117D01*
X132765399Y-78759296D01*
X131269700Y-78759296D01*
X131269700Y-67491487D01*
X144068400Y-67491487D01*
X144083756Y-67637589D01*
X144144339Y-67824047D01*
X144144341Y-67824051D01*
X144144342Y-67824053D01*
X144242373Y-67993847D01*
X144373564Y-68139549D01*
X144532181Y-68254792D01*
X144711292Y-68334537D01*
X144711295Y-68334537D01*
X144711296Y-68334538D01*
X144903069Y-68375300D01*
X145099131Y-68375300D01*
X145290903Y-68334538D01*
X145290902Y-68334538D01*
X145290908Y-68334537D01*
X145470019Y-68254792D01*
X145628636Y-68139549D01*
X145759827Y-67993847D01*
X145857858Y-67824053D01*
X145918444Y-67637587D01*
X145933800Y-67491487D01*
X146568400Y-67491487D01*
X146583756Y-67637589D01*
X146644339Y-67824047D01*
X146644341Y-67824051D01*
X146644342Y-67824053D01*
X146742373Y-67993847D01*
X146873564Y-68139549D01*
X147032181Y-68254792D01*
X147211292Y-68334537D01*
X147211295Y-68334537D01*
X147211296Y-68334538D01*
X147403069Y-68375300D01*
X147599131Y-68375300D01*
X147790903Y-68334538D01*
X147790902Y-68334538D01*
X147790908Y-68334537D01*
X147970019Y-68254792D01*
X148128636Y-68139549D01*
X148259827Y-67993847D01*
X148357858Y-67824053D01*
X148418444Y-67637587D01*
X148433800Y-67491487D01*
X148568400Y-67491487D01*
X148583756Y-67637589D01*
X148644339Y-67824047D01*
X148644341Y-67824051D01*
X148644342Y-67824053D01*
X148742373Y-67993847D01*
X148873564Y-68139549D01*
X149032181Y-68254792D01*
X149211292Y-68334537D01*
X149211295Y-68334537D01*
X149211296Y-68334538D01*
X149403069Y-68375300D01*
X149599131Y-68375300D01*
X149790903Y-68334538D01*
X149790902Y-68334538D01*
X149790908Y-68334537D01*
X149970019Y-68254792D01*
X150128636Y-68139549D01*
X150259827Y-67993847D01*
X150357858Y-67824053D01*
X150418444Y-67637587D01*
X150433800Y-67491487D01*
X151068400Y-67491487D01*
X151083756Y-67637589D01*
X151144339Y-67824047D01*
X151144341Y-67824051D01*
X151144342Y-67824053D01*
X151242373Y-67993847D01*
X151373564Y-68139549D01*
X151532181Y-68254792D01*
X151711292Y-68334537D01*
X151711295Y-68334537D01*
X151711296Y-68334538D01*
X151903069Y-68375300D01*
X152099131Y-68375300D01*
X152290903Y-68334538D01*
X152290902Y-68334538D01*
X152290908Y-68334537D01*
X152470019Y-68254792D01*
X152628636Y-68139549D01*
X152759827Y-67993847D01*
X152857858Y-67824053D01*
X152918444Y-67637587D01*
X152933800Y-67491485D01*
X152933800Y-65935715D01*
X152918444Y-65789613D01*
X152877115Y-65662414D01*
X152857860Y-65603152D01*
X152857859Y-65603150D01*
X152857858Y-65603147D01*
X152759827Y-65433353D01*
X152628636Y-65287651D01*
X152593559Y-65262166D01*
X152470024Y-65172411D01*
X152470021Y-65172409D01*
X152470019Y-65172408D01*
X152345099Y-65116790D01*
X152290911Y-65092664D01*
X152290903Y-65092661D01*
X152099131Y-65051900D01*
X151903069Y-65051900D01*
X151711296Y-65092661D01*
X151711288Y-65092664D01*
X151585226Y-65148790D01*
X151532181Y-65172408D01*
X151532179Y-65172408D01*
X151532175Y-65172411D01*
X151373566Y-65287649D01*
X151373564Y-65287650D01*
X151373564Y-65287651D01*
X151286103Y-65384785D01*
X151242372Y-65433354D01*
X151144339Y-65603152D01*
X151083756Y-65789610D01*
X151068400Y-65935712D01*
X151068400Y-67491487D01*
X150433800Y-67491487D01*
X150433800Y-67491485D01*
X150433800Y-65935715D01*
X150418444Y-65789613D01*
X150377115Y-65662414D01*
X150357860Y-65603152D01*
X150357859Y-65603150D01*
X150357858Y-65603147D01*
X150259827Y-65433353D01*
X150128636Y-65287651D01*
X150093559Y-65262166D01*
X149970024Y-65172411D01*
X149970021Y-65172409D01*
X149970019Y-65172408D01*
X149845099Y-65116790D01*
X149790911Y-65092664D01*
X149790903Y-65092661D01*
X149599131Y-65051900D01*
X149403069Y-65051900D01*
X149211296Y-65092661D01*
X149211288Y-65092664D01*
X149085226Y-65148790D01*
X149032181Y-65172408D01*
X149032179Y-65172408D01*
X149032175Y-65172411D01*
X148873566Y-65287649D01*
X148873564Y-65287650D01*
X148873564Y-65287651D01*
X148786103Y-65384785D01*
X148742372Y-65433354D01*
X148644339Y-65603152D01*
X148583756Y-65789610D01*
X148568400Y-65935712D01*
X148568400Y-67491487D01*
X148433800Y-67491487D01*
X148433800Y-67491485D01*
X148433800Y-65935715D01*
X148418444Y-65789613D01*
X148377115Y-65662414D01*
X148357860Y-65603152D01*
X148357859Y-65603150D01*
X148357858Y-65603147D01*
X148259827Y-65433353D01*
X148128636Y-65287651D01*
X148093559Y-65262166D01*
X147970024Y-65172411D01*
X147970021Y-65172409D01*
X147970019Y-65172408D01*
X147845099Y-65116790D01*
X147790911Y-65092664D01*
X147790903Y-65092661D01*
X147599131Y-65051900D01*
X147403069Y-65051900D01*
X147211296Y-65092661D01*
X147211288Y-65092664D01*
X147085226Y-65148790D01*
X147032181Y-65172408D01*
X147032179Y-65172408D01*
X147032175Y-65172411D01*
X146873566Y-65287649D01*
X146873564Y-65287650D01*
X146873564Y-65287651D01*
X146786103Y-65384785D01*
X146742372Y-65433354D01*
X146644339Y-65603152D01*
X146583756Y-65789610D01*
X146568400Y-65935712D01*
X146568400Y-67491487D01*
X145933800Y-67491487D01*
X145933800Y-67491485D01*
X145933800Y-65935715D01*
X145918444Y-65789613D01*
X145877115Y-65662414D01*
X145857860Y-65603152D01*
X145857859Y-65603150D01*
X145857858Y-65603147D01*
X145759827Y-65433353D01*
X145628636Y-65287651D01*
X145593559Y-65262166D01*
X145470024Y-65172411D01*
X145470021Y-65172409D01*
X145470019Y-65172408D01*
X145345099Y-65116790D01*
X145290911Y-65092664D01*
X145290903Y-65092661D01*
X145099131Y-65051900D01*
X144903069Y-65051900D01*
X144711296Y-65092661D01*
X144711288Y-65092664D01*
X144585226Y-65148790D01*
X144532181Y-65172408D01*
X144532179Y-65172408D01*
X144532175Y-65172411D01*
X144373566Y-65287649D01*
X144373564Y-65287650D01*
X144373564Y-65287651D01*
X144286103Y-65384785D01*
X144242372Y-65433354D01*
X144144339Y-65603152D01*
X144083756Y-65789610D01*
X144068400Y-65935712D01*
X144068400Y-67491487D01*
X131269700Y-67491487D01*
X131269700Y-64003604D01*
X140272286Y-64003604D01*
X140292707Y-64263089D01*
X140292708Y-64263093D01*
X140353472Y-64516196D01*
X140353475Y-64516205D01*
X140453083Y-64756681D01*
X140453085Y-64756684D01*
X140589088Y-64978622D01*
X140758140Y-65176559D01*
X140877502Y-65278502D01*
X140956074Y-65345609D01*
X141178014Y-65481614D01*
X141178016Y-65481615D01*
X141178018Y-65481616D01*
X141298256Y-65531420D01*
X141418498Y-65581226D01*
X141671604Y-65641991D01*
X141671606Y-65641991D01*
X141671610Y-65641992D01*
X141931096Y-65662414D01*
X141931100Y-65662414D01*
X141931104Y-65662414D01*
X142190589Y-65641992D01*
X142190591Y-65641991D01*
X142190596Y-65641991D01*
X142443702Y-65581226D01*
X142684186Y-65481614D01*
X142906126Y-65345609D01*
X143104059Y-65176559D01*
X143273109Y-64978626D01*
X143409114Y-64756686D01*
X143508726Y-64516202D01*
X143569491Y-64263096D01*
X143589914Y-64003604D01*
X153412286Y-64003604D01*
X153432707Y-64263089D01*
X153432708Y-64263093D01*
X153493472Y-64516196D01*
X153493475Y-64516205D01*
X153593083Y-64756681D01*
X153593085Y-64756684D01*
X153729088Y-64978622D01*
X153898140Y-65176559D01*
X154017502Y-65278502D01*
X154096074Y-65345609D01*
X154318014Y-65481614D01*
X154318016Y-65481615D01*
X154318018Y-65481616D01*
X154438256Y-65531420D01*
X154558498Y-65581226D01*
X154811604Y-65641991D01*
X154811606Y-65641991D01*
X154811610Y-65641992D01*
X155071096Y-65662414D01*
X155071100Y-65662414D01*
X155071104Y-65662414D01*
X155330589Y-65641992D01*
X155330591Y-65641991D01*
X155330596Y-65641991D01*
X155583702Y-65581226D01*
X155824186Y-65481614D01*
X156046126Y-65345609D01*
X156244059Y-65176559D01*
X156413109Y-64978626D01*
X156549114Y-64756686D01*
X156648726Y-64516202D01*
X156709491Y-64263096D01*
X156729914Y-64003600D01*
X156729914Y-64003595D01*
X156709492Y-63744110D01*
X156709491Y-63744106D01*
X156648727Y-63491003D01*
X156648726Y-63490998D01*
X156549114Y-63250514D01*
X156413109Y-63028574D01*
X156346002Y-62950002D01*
X156244059Y-62830640D01*
X156046122Y-62661588D01*
X155824184Y-62525585D01*
X155824181Y-62525583D01*
X155583705Y-62425975D01*
X155583696Y-62425972D01*
X155330593Y-62365208D01*
X155330589Y-62365207D01*
X155071104Y-62344786D01*
X155071096Y-62344786D01*
X154811610Y-62365207D01*
X154811606Y-62365208D01*
X154558503Y-62425972D01*
X154558494Y-62425975D01*
X154318018Y-62525583D01*
X154318015Y-62525585D01*
X154096077Y-62661588D01*
X153898140Y-62830640D01*
X153729088Y-63028577D01*
X153593085Y-63250515D01*
X153593083Y-63250518D01*
X153493475Y-63490994D01*
X153493472Y-63491003D01*
X153432708Y-63744106D01*
X153432707Y-63744110D01*
X153412286Y-64003595D01*
X153412286Y-64003604D01*
X143589914Y-64003604D01*
X143589914Y-64003600D01*
X143589914Y-64003595D01*
X143569492Y-63744110D01*
X143569491Y-63744106D01*
X143508727Y-63491003D01*
X143508726Y-63490998D01*
X143409114Y-63250514D01*
X143273109Y-63028574D01*
X143206002Y-62950002D01*
X143104059Y-62830640D01*
X142906122Y-62661588D01*
X142684184Y-62525585D01*
X142684181Y-62525583D01*
X142443705Y-62425975D01*
X142443696Y-62425972D01*
X142190593Y-62365208D01*
X142190589Y-62365207D01*
X141931104Y-62344786D01*
X141931096Y-62344786D01*
X141671610Y-62365207D01*
X141671606Y-62365208D01*
X141418503Y-62425972D01*
X141418494Y-62425975D01*
X141178018Y-62525583D01*
X141178015Y-62525585D01*
X140956077Y-62661588D01*
X140758140Y-62830640D01*
X140589088Y-63028577D01*
X140453085Y-63250515D01*
X140453083Y-63250518D01*
X140353475Y-63490994D01*
X140353472Y-63491003D01*
X140292708Y-63744106D01*
X140292707Y-63744110D01*
X140272286Y-64003595D01*
X140272286Y-64003604D01*
X131269700Y-64003604D01*
X131269700Y-58536902D01*
X135232279Y-58536902D01*
X135252276Y-58688799D01*
X135252277Y-58688805D01*
X135252278Y-58688806D01*
X135310912Y-58830361D01*
X135404184Y-58951916D01*
X135525739Y-59045188D01*
X135667294Y-59103822D01*
X135667298Y-59103822D01*
X135667300Y-59103823D01*
X135819197Y-59123821D01*
X135819200Y-59123821D01*
X135819203Y-59123821D01*
X135971099Y-59103823D01*
X135971099Y-59103822D01*
X135971106Y-59103822D01*
X136112661Y-59045188D01*
X136234216Y-58951916D01*
X136327488Y-58830361D01*
X136386122Y-58688806D01*
X136406121Y-58536900D01*
X136386122Y-58384994D01*
X136327488Y-58243440D01*
X136234216Y-58121884D01*
X136234214Y-58121883D01*
X136234214Y-58121882D01*
X136112661Y-58028612D01*
X136112658Y-58028610D01*
X135971109Y-57969979D01*
X135971099Y-57969976D01*
X135819203Y-57949979D01*
X135819197Y-57949979D01*
X135667300Y-57969976D01*
X135667290Y-57969979D01*
X135525743Y-58028610D01*
X135525740Y-58028611D01*
X135525740Y-58028612D01*
X135404184Y-58121884D01*
X135337016Y-58209421D01*
X135310910Y-58243443D01*
X135252279Y-58384990D01*
X135252276Y-58385000D01*
X135232279Y-58536897D01*
X135232279Y-58536902D01*
X131269700Y-58536902D01*
X131269700Y-57622502D01*
X162054679Y-57622502D01*
X162074676Y-57774399D01*
X162074677Y-57774405D01*
X162074678Y-57774406D01*
X162133312Y-57915961D01*
X162226584Y-58037516D01*
X162348139Y-58130788D01*
X162489694Y-58189422D01*
X162489698Y-58189422D01*
X162489700Y-58189423D01*
X162641597Y-58209421D01*
X162641600Y-58209421D01*
X162641603Y-58209421D01*
X162793499Y-58189423D01*
X162793499Y-58189422D01*
X162793506Y-58189422D01*
X162935061Y-58130788D01*
X163056616Y-58037516D01*
X163149888Y-57915961D01*
X163208522Y-57774406D01*
X163228521Y-57622500D01*
X163208522Y-57470594D01*
X163149888Y-57329040D01*
X163056616Y-57207484D01*
X163056614Y-57207483D01*
X163056614Y-57207482D01*
X162935061Y-57114212D01*
X162935058Y-57114210D01*
X162793509Y-57055579D01*
X162793499Y-57055576D01*
X162641603Y-57035579D01*
X162641597Y-57035579D01*
X162489700Y-57055576D01*
X162489690Y-57055579D01*
X162348143Y-57114210D01*
X162226584Y-57207484D01*
X162133310Y-57329043D01*
X162074679Y-57470590D01*
X162074676Y-57470600D01*
X162054679Y-57622497D01*
X162054679Y-57622502D01*
X131269700Y-57622502D01*
X131269700Y-55104700D01*
X131288006Y-55060506D01*
X131332200Y-55042200D01*
X165670000Y-55042200D01*
X165714194Y-55060506D01*
G37*
%TD.AperFunction*%
%TD*%
%TA.AperFunction,Conductor*%
%TO.N,VDD*%
G36*
X160121711Y-70696406D02*
G01*
X160921494Y-71496189D01*
X160939800Y-71540383D01*
X160939800Y-79210694D01*
X161246406Y-79517300D01*
X162820717Y-79517300D01*
X162864911Y-79535606D01*
X163359894Y-80030589D01*
X163378200Y-80074783D01*
X163378200Y-81804617D01*
X163359894Y-81848811D01*
X162941111Y-82267594D01*
X162896917Y-82285900D01*
X161551206Y-82285900D01*
X160558800Y-83278306D01*
X160558800Y-86344233D01*
X160540494Y-86388427D01*
X160507786Y-86405669D01*
X160464842Y-86413697D01*
X160265415Y-86490955D01*
X160083575Y-86603546D01*
X159925528Y-86747626D01*
X159925521Y-86747633D01*
X159796649Y-86918289D01*
X159796646Y-86918295D01*
X159701317Y-87109740D01*
X159642789Y-87315441D01*
X159642787Y-87315452D01*
X159637140Y-87376399D01*
X159637141Y-87376400D01*
X160305523Y-87376400D01*
X160282000Y-87456511D01*
X160282000Y-87600289D01*
X160305523Y-87680400D01*
X159637140Y-87680400D01*
X159642787Y-87741347D01*
X159642789Y-87741358D01*
X159701317Y-87947059D01*
X159796646Y-88138504D01*
X159796649Y-88138510D01*
X159925521Y-88309166D01*
X159925528Y-88309173D01*
X160083575Y-88453253D01*
X160265415Y-88565844D01*
X160464844Y-88643103D01*
X160507783Y-88651129D01*
X160547862Y-88677243D01*
X160558800Y-88712565D01*
X160558800Y-88988640D01*
X160540494Y-89032834D01*
X160514443Y-89048449D01*
X160424520Y-89075727D01*
X160376816Y-89090198D01*
X160376814Y-89090198D01*
X160376814Y-89090199D01*
X160193768Y-89188038D01*
X160193762Y-89188042D01*
X160033317Y-89319717D01*
X159901642Y-89480162D01*
X159901638Y-89480168D01*
X159803796Y-89663220D01*
X159743547Y-89861837D01*
X159743546Y-89861842D01*
X159723202Y-90068398D01*
X159723202Y-90068401D01*
X159743546Y-90274957D01*
X159743547Y-90274961D01*
X159803798Y-90473584D01*
X159848698Y-90557587D01*
X159901638Y-90656631D01*
X159901642Y-90656637D01*
X160033317Y-90817083D01*
X160193763Y-90948758D01*
X160193765Y-90948759D01*
X160193768Y-90948761D01*
X160376814Y-91046601D01*
X160376816Y-91046602D01*
X160514443Y-91088350D01*
X160551420Y-91118695D01*
X160558800Y-91148158D01*
X160558800Y-91492200D01*
X160540494Y-91536394D01*
X160496300Y-91554700D01*
X159911936Y-91554700D01*
X159882228Y-91560609D01*
X159852519Y-91566519D01*
X159852518Y-91566519D01*
X159785140Y-91611540D01*
X159740119Y-91678918D01*
X159740119Y-91678919D01*
X159728300Y-91738336D01*
X159728300Y-93478463D01*
X159728299Y-93478463D01*
X159740119Y-93537880D01*
X159740119Y-93537881D01*
X159762629Y-93571570D01*
X159785140Y-93605260D01*
X159852520Y-93650281D01*
X159911936Y-93662100D01*
X159911937Y-93662100D01*
X160496300Y-93662100D01*
X160540494Y-93680406D01*
X160558800Y-93724600D01*
X160558800Y-98416217D01*
X160540494Y-98460411D01*
X159435911Y-99564994D01*
X159391717Y-99583300D01*
X139301774Y-99583300D01*
X139262731Y-99569604D01*
X138839857Y-99231304D01*
X138816782Y-99189402D01*
X138816400Y-99182500D01*
X138816400Y-98237102D01*
X144528679Y-98237102D01*
X144548676Y-98388999D01*
X144548677Y-98389005D01*
X144548678Y-98389006D01*
X144607312Y-98530561D01*
X144700584Y-98652116D01*
X144822139Y-98745388D01*
X144963694Y-98804022D01*
X144963698Y-98804022D01*
X144963700Y-98804023D01*
X145115597Y-98824021D01*
X145115600Y-98824021D01*
X145115603Y-98824021D01*
X145267499Y-98804023D01*
X145267499Y-98804022D01*
X145267506Y-98804022D01*
X145409061Y-98745388D01*
X145530616Y-98652116D01*
X145623888Y-98530561D01*
X145682522Y-98389006D01*
X145702521Y-98237100D01*
X145682522Y-98085194D01*
X145623888Y-97943640D01*
X145530616Y-97822084D01*
X145530614Y-97822083D01*
X145530614Y-97822082D01*
X145409061Y-97728812D01*
X145409058Y-97728810D01*
X145267509Y-97670179D01*
X145267499Y-97670176D01*
X145115603Y-97650179D01*
X145115597Y-97650179D01*
X144963700Y-97670176D01*
X144963690Y-97670179D01*
X144822143Y-97728810D01*
X144700584Y-97822084D01*
X144607310Y-97943643D01*
X144548679Y-98085190D01*
X144548676Y-98085200D01*
X144528679Y-98237097D01*
X144528679Y-98237102D01*
X138816400Y-98237102D01*
X138816400Y-97177554D01*
X158444700Y-97177554D01*
X158459763Y-97320868D01*
X158519190Y-97503767D01*
X158615352Y-97670325D01*
X158615351Y-97670325D01*
X158744034Y-97813243D01*
X158744035Y-97813244D01*
X158744040Y-97813249D01*
X158899630Y-97926291D01*
X158998892Y-97970485D01*
X159075311Y-98004510D01*
X159075315Y-98004511D01*
X159075323Y-98004515D01*
X159075326Y-98004515D01*
X159075327Y-98004516D01*
X159263440Y-98044500D01*
X159455760Y-98044500D01*
X159643872Y-98004516D01*
X159643871Y-98004516D01*
X159643877Y-98004515D01*
X159819570Y-97926291D01*
X159975160Y-97813249D01*
X160103847Y-97670327D01*
X160200007Y-97503773D01*
X160259437Y-97320866D01*
X160274500Y-97177552D01*
X160274500Y-95659248D01*
X160259437Y-95515934D01*
X160200007Y-95333027D01*
X160103847Y-95166473D01*
X159975160Y-95023551D01*
X159819570Y-94910509D01*
X159819568Y-94910508D01*
X159643888Y-94832289D01*
X159643872Y-94832283D01*
X159455760Y-94792300D01*
X159263440Y-94792300D01*
X159075327Y-94832283D01*
X159075311Y-94832289D01*
X158899631Y-94910508D01*
X158899630Y-94910509D01*
X158744040Y-95023551D01*
X158744039Y-95023552D01*
X158744035Y-95023555D01*
X158744034Y-95023556D01*
X158615352Y-95166474D01*
X158519190Y-95333032D01*
X158459763Y-95515931D01*
X158444700Y-95659245D01*
X158444700Y-97177554D01*
X138816400Y-97177554D01*
X138816400Y-96484502D01*
X144604879Y-96484502D01*
X144624876Y-96636399D01*
X144624879Y-96636409D01*
X144647251Y-96690421D01*
X144683512Y-96777961D01*
X144776784Y-96899516D01*
X144898339Y-96992788D01*
X145039894Y-97051422D01*
X145039898Y-97051422D01*
X145039900Y-97051423D01*
X145191797Y-97071421D01*
X145191800Y-97071421D01*
X145191803Y-97071421D01*
X145343699Y-97051423D01*
X145343699Y-97051422D01*
X145343706Y-97051422D01*
X145485261Y-96992788D01*
X145606816Y-96899516D01*
X145700088Y-96777961D01*
X145758722Y-96636406D01*
X145778721Y-96484500D01*
X145758722Y-96332594D01*
X145700088Y-96191040D01*
X145632919Y-96103502D01*
X150700879Y-96103502D01*
X150720876Y-96255399D01*
X150720879Y-96255409D01*
X150752848Y-96332590D01*
X150779512Y-96396961D01*
X150872784Y-96518516D01*
X150994339Y-96611788D01*
X151135894Y-96670422D01*
X151135898Y-96670422D01*
X151135900Y-96670423D01*
X151287797Y-96690421D01*
X151287800Y-96690421D01*
X151287803Y-96690421D01*
X151439699Y-96670423D01*
X151439699Y-96670422D01*
X151439706Y-96670422D01*
X151581261Y-96611788D01*
X151702816Y-96518516D01*
X151796088Y-96396961D01*
X151854722Y-96255406D01*
X151874721Y-96103500D01*
X151870242Y-96069482D01*
X151854723Y-95951600D01*
X151854722Y-95951598D01*
X151854722Y-95951594D01*
X151796088Y-95810040D01*
X151702816Y-95688484D01*
X151702814Y-95688483D01*
X151702814Y-95688482D01*
X151581261Y-95595212D01*
X151581258Y-95595210D01*
X151439709Y-95536579D01*
X151439699Y-95536576D01*
X151287803Y-95516579D01*
X151287797Y-95516579D01*
X151135900Y-95536576D01*
X151135890Y-95536579D01*
X150994343Y-95595210D01*
X150994340Y-95595211D01*
X150994340Y-95595212D01*
X150910886Y-95659248D01*
X150872784Y-95688484D01*
X150779510Y-95810043D01*
X150720879Y-95951590D01*
X150720876Y-95951600D01*
X150700879Y-96103497D01*
X150700879Y-96103502D01*
X145632919Y-96103502D01*
X145606816Y-96069484D01*
X145606814Y-96069483D01*
X145606814Y-96069482D01*
X145485261Y-95976212D01*
X145485258Y-95976210D01*
X145343709Y-95917579D01*
X145343699Y-95917576D01*
X145191803Y-95897579D01*
X145191797Y-95897579D01*
X145039900Y-95917576D01*
X145039890Y-95917579D01*
X144898343Y-95976210D01*
X144776784Y-96069484D01*
X144683510Y-96191043D01*
X144624879Y-96332590D01*
X144624876Y-96332600D01*
X144604879Y-96484497D01*
X144604879Y-96484502D01*
X138816400Y-96484502D01*
X138816400Y-92882875D01*
X147897477Y-92882875D01*
X147916464Y-93063523D01*
X147972591Y-93236266D01*
X147972593Y-93236270D01*
X147972594Y-93236272D01*
X148063414Y-93393578D01*
X148133013Y-93470875D01*
X148184950Y-93528558D01*
X148184952Y-93528560D01*
X148184956Y-93528564D01*
X148263501Y-93585630D01*
X148331902Y-93635327D01*
X148331904Y-93635328D01*
X148331907Y-93635330D01*
X148425659Y-93677071D01*
X148497832Y-93709205D01*
X148497835Y-93709206D01*
X148497844Y-93709210D01*
X148675516Y-93746975D01*
X148857158Y-93746975D01*
X149034830Y-93709210D01*
X149200767Y-93635330D01*
X149347718Y-93528564D01*
X149469260Y-93393578D01*
X149560080Y-93236272D01*
X149616210Y-93063521D01*
X149635197Y-92882875D01*
X152723477Y-92882875D01*
X152742464Y-93063523D01*
X152798591Y-93236266D01*
X152798593Y-93236270D01*
X152798594Y-93236272D01*
X152889414Y-93393578D01*
X152959013Y-93470875D01*
X153010950Y-93528558D01*
X153010952Y-93528560D01*
X153010956Y-93528564D01*
X153089501Y-93585630D01*
X153157902Y-93635327D01*
X153157904Y-93635328D01*
X153157907Y-93635330D01*
X153251659Y-93677071D01*
X153323832Y-93709205D01*
X153323835Y-93709206D01*
X153323844Y-93709210D01*
X153501516Y-93746975D01*
X153683158Y-93746975D01*
X153860830Y-93709210D01*
X154026767Y-93635330D01*
X154173718Y-93528564D01*
X154295260Y-93393578D01*
X154386080Y-93236272D01*
X154442210Y-93063521D01*
X154461197Y-92882875D01*
X154442210Y-92702229D01*
X154386080Y-92529478D01*
X154295260Y-92372172D01*
X154173718Y-92237186D01*
X154124734Y-92201597D01*
X154026771Y-92130422D01*
X154026765Y-92130419D01*
X153860841Y-92056544D01*
X153860824Y-92056538D01*
X153683158Y-92018775D01*
X153501516Y-92018775D01*
X153323849Y-92056538D01*
X153323832Y-92056544D01*
X153157908Y-92130419D01*
X153157902Y-92130422D01*
X153010957Y-92237185D01*
X153010950Y-92237191D01*
X152889413Y-92372173D01*
X152798591Y-92529483D01*
X152742464Y-92702226D01*
X152723477Y-92882875D01*
X149635197Y-92882875D01*
X149616210Y-92702229D01*
X149560080Y-92529478D01*
X149469260Y-92372172D01*
X149347718Y-92237186D01*
X149298734Y-92201597D01*
X149200771Y-92130422D01*
X149200765Y-92130419D01*
X149034841Y-92056544D01*
X149034824Y-92056538D01*
X148857158Y-92018775D01*
X148675516Y-92018775D01*
X148497849Y-92056538D01*
X148497832Y-92056544D01*
X148331908Y-92130419D01*
X148331902Y-92130422D01*
X148184957Y-92237185D01*
X148184950Y-92237191D01*
X148063413Y-92372173D01*
X147972591Y-92529483D01*
X147916464Y-92702226D01*
X147897477Y-92882875D01*
X138816400Y-92882875D01*
X138816400Y-88559702D01*
X146738479Y-88559702D01*
X146758476Y-88711599D01*
X146758479Y-88711609D01*
X146771028Y-88741906D01*
X146817112Y-88853161D01*
X146910384Y-88974716D01*
X147031939Y-89067988D01*
X147173494Y-89126622D01*
X147173498Y-89126622D01*
X147173500Y-89126623D01*
X147325397Y-89146621D01*
X147325400Y-89146621D01*
X147325403Y-89146621D01*
X147452888Y-89129837D01*
X147499093Y-89142217D01*
X147523011Y-89183644D01*
X147522910Y-89200696D01*
X147522320Y-89204799D01*
X147542932Y-89348166D01*
X147542933Y-89348168D01*
X147603103Y-89479921D01*
X147697954Y-89589386D01*
X147819804Y-89667694D01*
X147819806Y-89667694D01*
X147819807Y-89667695D01*
X147958776Y-89708499D01*
X147958778Y-89708500D01*
X148060023Y-89708500D01*
X148104217Y-89726806D01*
X148121887Y-89762106D01*
X148139576Y-89885145D01*
X148139577Y-89885147D01*
X148199747Y-90016900D01*
X148294598Y-90126365D01*
X148416448Y-90204673D01*
X148416450Y-90204673D01*
X148416451Y-90204674D01*
X148555420Y-90245478D01*
X148555422Y-90245479D01*
X148555423Y-90245479D01*
X148700266Y-90245479D01*
X148700266Y-90245478D01*
X148839240Y-90204673D01*
X148961090Y-90126365D01*
X149055941Y-90016900D01*
X149116111Y-89885147D01*
X149136724Y-89741779D01*
X149116111Y-89598411D01*
X149055941Y-89466658D01*
X148961090Y-89357193D01*
X148839240Y-89278885D01*
X148839238Y-89278884D01*
X148839236Y-89278883D01*
X148700267Y-89238079D01*
X148700265Y-89238079D01*
X148599021Y-89238079D01*
X148554827Y-89219773D01*
X148537157Y-89184473D01*
X148528839Y-89126620D01*
X148519467Y-89061432D01*
X148459297Y-88929679D01*
X148364446Y-88820214D01*
X148242596Y-88741906D01*
X148242594Y-88741905D01*
X148242592Y-88741904D01*
X148103623Y-88701100D01*
X148103621Y-88701100D01*
X147964973Y-88701100D01*
X147920779Y-88682794D01*
X147902473Y-88638600D01*
X147903008Y-88630442D01*
X147912321Y-88559702D01*
X147912321Y-88559697D01*
X147892323Y-88407800D01*
X147892322Y-88407798D01*
X147892322Y-88407794D01*
X147833688Y-88266240D01*
X147740416Y-88144684D01*
X147740414Y-88144683D01*
X147740414Y-88144682D01*
X147618862Y-88051413D01*
X147618861Y-88051412D01*
X147513672Y-88007841D01*
X147491432Y-87985600D01*
X157783920Y-87985600D01*
X157804532Y-88128966D01*
X157804533Y-88128968D01*
X157864703Y-88260721D01*
X157959554Y-88370186D01*
X158081404Y-88448494D01*
X158081406Y-88448494D01*
X158081407Y-88448495D01*
X158220376Y-88489299D01*
X158220378Y-88489300D01*
X158220379Y-88489300D01*
X158365222Y-88489300D01*
X158365222Y-88489299D01*
X158504196Y-88448494D01*
X158626046Y-88370186D01*
X158720897Y-88260721D01*
X158781067Y-88128968D01*
X158801680Y-87985600D01*
X158781067Y-87842232D01*
X158720897Y-87710479D01*
X158626046Y-87601014D01*
X158504196Y-87522706D01*
X158504194Y-87522705D01*
X158504192Y-87522704D01*
X158365223Y-87481900D01*
X158365221Y-87481900D01*
X158220379Y-87481900D01*
X158220377Y-87481900D01*
X158081407Y-87522704D01*
X157959556Y-87601012D01*
X157864702Y-87710480D01*
X157804532Y-87842233D01*
X157783920Y-87985600D01*
X147491432Y-87985600D01*
X147479850Y-87974018D01*
X147479849Y-87926182D01*
X147513674Y-87892358D01*
X147513674Y-87892357D01*
X147618861Y-87848788D01*
X147740416Y-87755516D01*
X147833688Y-87633961D01*
X147892322Y-87492406D01*
X147912321Y-87340500D01*
X147909023Y-87315452D01*
X147892323Y-87188600D01*
X147892322Y-87188598D01*
X147892322Y-87188594D01*
X147833688Y-87047040D01*
X147740416Y-86925484D01*
X147740414Y-86925483D01*
X147740414Y-86925482D01*
X147618861Y-86832212D01*
X147618858Y-86832210D01*
X147477309Y-86773579D01*
X147477299Y-86773576D01*
X147325403Y-86753579D01*
X147325397Y-86753579D01*
X147173500Y-86773576D01*
X147173490Y-86773579D01*
X147031943Y-86832210D01*
X147031940Y-86832211D01*
X147031940Y-86832212D01*
X146910384Y-86925484D01*
X146819660Y-87043720D01*
X146817110Y-87047043D01*
X146758479Y-87188590D01*
X146758476Y-87188600D01*
X146738479Y-87340497D01*
X146738479Y-87340502D01*
X146758476Y-87492399D01*
X146758479Y-87492409D01*
X146803164Y-87600289D01*
X146817112Y-87633961D01*
X146910384Y-87755516D01*
X147031939Y-87848788D01*
X147057071Y-87859198D01*
X147137125Y-87892358D01*
X147170949Y-87926182D01*
X147170949Y-87974018D01*
X147137125Y-88007842D01*
X147031943Y-88051410D01*
X147031940Y-88051411D01*
X147031940Y-88051412D01*
X146910384Y-88144684D01*
X146821349Y-88260719D01*
X146817110Y-88266243D01*
X146758479Y-88407790D01*
X146758476Y-88407800D01*
X146738479Y-88559697D01*
X146738479Y-88559702D01*
X138816400Y-88559702D01*
X138816400Y-87873902D01*
X144300079Y-87873902D01*
X144320076Y-88025799D01*
X144320079Y-88025809D01*
X144366761Y-88138510D01*
X144378712Y-88167361D01*
X144471984Y-88288916D01*
X144593539Y-88382188D01*
X144735094Y-88440822D01*
X144735098Y-88440822D01*
X144735100Y-88440823D01*
X144886997Y-88460821D01*
X144887000Y-88460821D01*
X144887003Y-88460821D01*
X145038899Y-88440823D01*
X145038899Y-88440822D01*
X145038906Y-88440822D01*
X145180461Y-88382188D01*
X145302016Y-88288916D01*
X145395288Y-88167361D01*
X145453922Y-88025806D01*
X145453923Y-88025799D01*
X145473921Y-87873902D01*
X145473921Y-87873897D01*
X145453923Y-87722000D01*
X145453922Y-87721998D01*
X145453922Y-87721994D01*
X145395288Y-87580440D01*
X145302016Y-87458884D01*
X145302014Y-87458883D01*
X145302014Y-87458882D01*
X145180461Y-87365612D01*
X145180458Y-87365610D01*
X145038909Y-87306979D01*
X145038899Y-87306976D01*
X144887003Y-87286979D01*
X144886997Y-87286979D01*
X144735100Y-87306976D01*
X144735090Y-87306979D01*
X144593543Y-87365610D01*
X144471984Y-87458884D01*
X144378710Y-87580443D01*
X144320079Y-87721990D01*
X144320076Y-87722000D01*
X144300079Y-87873897D01*
X144300079Y-87873902D01*
X138816400Y-87873902D01*
X138816400Y-85816502D01*
X143233279Y-85816502D01*
X143253276Y-85968399D01*
X143253279Y-85968409D01*
X143287474Y-86050964D01*
X143311912Y-86109961D01*
X143405184Y-86231516D01*
X143526739Y-86324788D01*
X143668294Y-86383422D01*
X143668298Y-86383422D01*
X143668300Y-86383423D01*
X143820197Y-86403421D01*
X143820200Y-86403421D01*
X143820203Y-86403421D01*
X143972099Y-86383423D01*
X143972099Y-86383422D01*
X143972106Y-86383422D01*
X144110532Y-86326084D01*
X149165620Y-86326084D01*
X149186232Y-86469450D01*
X149186233Y-86469452D01*
X149246403Y-86601205D01*
X149341254Y-86710670D01*
X149463104Y-86788978D01*
X149463106Y-86788978D01*
X149463107Y-86788979D01*
X149602076Y-86829783D01*
X149602078Y-86829784D01*
X149602079Y-86829784D01*
X149746922Y-86829784D01*
X149746922Y-86829783D01*
X149885896Y-86788978D01*
X150007746Y-86710670D01*
X150102597Y-86601205D01*
X150162767Y-86469452D01*
X150183380Y-86326084D01*
X150162767Y-86182716D01*
X150102597Y-86050963D01*
X150007746Y-85941498D01*
X149885896Y-85863190D01*
X149885894Y-85863189D01*
X149885892Y-85863188D01*
X149746923Y-85822384D01*
X149746921Y-85822384D01*
X149602079Y-85822384D01*
X149602077Y-85822384D01*
X149463107Y-85863188D01*
X149341256Y-85941496D01*
X149341254Y-85941497D01*
X149341254Y-85941498D01*
X149317938Y-85968406D01*
X149246402Y-86050964D01*
X149186232Y-86182717D01*
X149165620Y-86326084D01*
X144110532Y-86326084D01*
X144113661Y-86324788D01*
X144235216Y-86231516D01*
X144328488Y-86109961D01*
X144387122Y-85968406D01*
X144400974Y-85863190D01*
X144407121Y-85816502D01*
X144407121Y-85816497D01*
X144387123Y-85664600D01*
X144387122Y-85664598D01*
X144387122Y-85664594D01*
X144328488Y-85523040D01*
X144235216Y-85401484D01*
X144235214Y-85401483D01*
X144235214Y-85401482D01*
X144113661Y-85308212D01*
X144113658Y-85308210D01*
X143972109Y-85249579D01*
X143972099Y-85249576D01*
X143820203Y-85229579D01*
X143820197Y-85229579D01*
X143668300Y-85249576D01*
X143668290Y-85249579D01*
X143526743Y-85308210D01*
X143405184Y-85401484D01*
X143311910Y-85523043D01*
X143253279Y-85664590D01*
X143253276Y-85664600D01*
X143233279Y-85816497D01*
X143233279Y-85816502D01*
X138816400Y-85816502D01*
X138816400Y-82768502D01*
X142623679Y-82768502D01*
X142643676Y-82920399D01*
X142643679Y-82920409D01*
X142701152Y-83059162D01*
X142702312Y-83061961D01*
X142795584Y-83183516D01*
X142917139Y-83276788D01*
X143058694Y-83335422D01*
X143058698Y-83335422D01*
X143058700Y-83335423D01*
X143210597Y-83355421D01*
X143210600Y-83355421D01*
X143210603Y-83355421D01*
X143362499Y-83335423D01*
X143362499Y-83335422D01*
X143362506Y-83335422D01*
X143504061Y-83276788D01*
X143625616Y-83183516D01*
X143718888Y-83061961D01*
X143777522Y-82920406D01*
X143779471Y-82905600D01*
X147420720Y-82905600D01*
X147441332Y-83048966D01*
X147496126Y-83168946D01*
X147501503Y-83180721D01*
X147596354Y-83290186D01*
X147718204Y-83368494D01*
X147718206Y-83368494D01*
X147718207Y-83368495D01*
X147857176Y-83409299D01*
X147857178Y-83409300D01*
X148006169Y-83409300D01*
X148050363Y-83427606D01*
X148068669Y-83471800D01*
X148063021Y-83497764D01*
X148050932Y-83524233D01*
X148030320Y-83667600D01*
X148050932Y-83810966D01*
X148050933Y-83810968D01*
X148111103Y-83942721D01*
X148205954Y-84052186D01*
X148327804Y-84130494D01*
X148327806Y-84130494D01*
X148327807Y-84130495D01*
X148466776Y-84171299D01*
X148466778Y-84171300D01*
X148466779Y-84171300D01*
X148611622Y-84171300D01*
X148611622Y-84171299D01*
X148750596Y-84130494D01*
X148872446Y-84052186D01*
X148967297Y-83942721D01*
X149027467Y-83810968D01*
X149029295Y-83798253D01*
X158586199Y-83798253D01*
X158598018Y-83857669D01*
X158598018Y-83857670D01*
X158631674Y-83908039D01*
X158631675Y-83908040D01*
X159076662Y-84353026D01*
X159127031Y-84386682D01*
X159186446Y-84398500D01*
X159815754Y-84398501D01*
X159875169Y-84386682D01*
X159925540Y-84353025D01*
X160370526Y-83908038D01*
X160404182Y-83857669D01*
X160416000Y-83798254D01*
X160416001Y-83168946D01*
X160404182Y-83109531D01*
X160404179Y-83109527D01*
X160370525Y-83059160D01*
X160370523Y-83059158D01*
X159925539Y-82614175D01*
X159925534Y-82614171D01*
X159875172Y-82580520D01*
X159875167Y-82580517D01*
X159815754Y-82568700D01*
X159815752Y-82568699D01*
X159186446Y-82568699D01*
X159127030Y-82580518D01*
X159127029Y-82580518D01*
X159076660Y-82614174D01*
X159076658Y-82614176D01*
X158631675Y-83059160D01*
X158631671Y-83059165D01*
X158598020Y-83109527D01*
X158598017Y-83109532D01*
X158586200Y-83168945D01*
X158586199Y-83168947D01*
X158586199Y-83798253D01*
X149029295Y-83798253D01*
X149048080Y-83667600D01*
X149027467Y-83524232D01*
X148967297Y-83392479D01*
X148872446Y-83283014D01*
X148750596Y-83204706D01*
X148750594Y-83204705D01*
X148750592Y-83204704D01*
X148611623Y-83163900D01*
X148611621Y-83163900D01*
X148466779Y-83163900D01*
X148462631Y-83163900D01*
X148427872Y-83149502D01*
X149634079Y-83149502D01*
X149654076Y-83301399D01*
X149654079Y-83301409D01*
X149706351Y-83427606D01*
X149712712Y-83442961D01*
X149805984Y-83564516D01*
X149927539Y-83657788D01*
X150069094Y-83716422D01*
X150069098Y-83716422D01*
X150069100Y-83716423D01*
X150220997Y-83736421D01*
X150221000Y-83736421D01*
X150221003Y-83736421D01*
X150372899Y-83716423D01*
X150372899Y-83716422D01*
X150372906Y-83716422D01*
X150514461Y-83657788D01*
X150636016Y-83564516D01*
X150729288Y-83442961D01*
X150787922Y-83301406D01*
X150807921Y-83149500D01*
X150802658Y-83109527D01*
X150787923Y-82997600D01*
X150787922Y-82997598D01*
X150787922Y-82997594D01*
X150729288Y-82856040D01*
X150636016Y-82734484D01*
X150636014Y-82734483D01*
X150636014Y-82734482D01*
X150514461Y-82641212D01*
X150514458Y-82641210D01*
X150372909Y-82582579D01*
X150372899Y-82582576D01*
X150221003Y-82562579D01*
X150220997Y-82562579D01*
X150069100Y-82582576D01*
X150069090Y-82582579D01*
X149927543Y-82641210D01*
X149927540Y-82641211D01*
X149927540Y-82641212D01*
X149805984Y-82734484D01*
X149784693Y-82762232D01*
X149712710Y-82856043D01*
X149654079Y-82997590D01*
X149654076Y-82997600D01*
X149634079Y-83149497D01*
X149634079Y-83149502D01*
X148427872Y-83149502D01*
X148418437Y-83145594D01*
X148400131Y-83101400D01*
X148405779Y-83075436D01*
X148411933Y-83061961D01*
X148417867Y-83048968D01*
X148438480Y-82905600D01*
X148417867Y-82762232D01*
X148357697Y-82630479D01*
X148262846Y-82521014D01*
X148140996Y-82442706D01*
X148140994Y-82442705D01*
X148140992Y-82442704D01*
X148002023Y-82401900D01*
X148002021Y-82401900D01*
X147857179Y-82401900D01*
X147857177Y-82401900D01*
X147718207Y-82442704D01*
X147596356Y-82521012D01*
X147501502Y-82630480D01*
X147441332Y-82762233D01*
X147420720Y-82905600D01*
X143779471Y-82905600D01*
X143797521Y-82768500D01*
X143793042Y-82734482D01*
X143777523Y-82616600D01*
X143777522Y-82616598D01*
X143777522Y-82616594D01*
X143718888Y-82475040D01*
X143625616Y-82353484D01*
X143625614Y-82353483D01*
X143625614Y-82353482D01*
X143504061Y-82260212D01*
X143504058Y-82260210D01*
X143362509Y-82201579D01*
X143362499Y-82201576D01*
X143210603Y-82181579D01*
X143210597Y-82181579D01*
X143058700Y-82201576D01*
X143058690Y-82201579D01*
X142917143Y-82260210D01*
X142917140Y-82260211D01*
X142917140Y-82260212D01*
X142795584Y-82353484D01*
X142727123Y-82442706D01*
X142702310Y-82475043D01*
X142643679Y-82616590D01*
X142643676Y-82616600D01*
X142623679Y-82768497D01*
X142623679Y-82768502D01*
X138816400Y-82768502D01*
X138816400Y-80711102D01*
X151005679Y-80711102D01*
X151025676Y-80862999D01*
X151025677Y-80863005D01*
X151025678Y-80863006D01*
X151084312Y-81004561D01*
X151177584Y-81126116D01*
X151299139Y-81219388D01*
X151440694Y-81278022D01*
X151440698Y-81278022D01*
X151440700Y-81278023D01*
X151592597Y-81298021D01*
X151592600Y-81298021D01*
X151592603Y-81298021D01*
X151744499Y-81278023D01*
X151744499Y-81278022D01*
X151744506Y-81278022D01*
X151792230Y-81258254D01*
X158586199Y-81258254D01*
X158598018Y-81317667D01*
X158598018Y-81317669D01*
X158598018Y-81317670D01*
X158631674Y-81368039D01*
X158631675Y-81368040D01*
X159076662Y-81813026D01*
X159127031Y-81846682D01*
X159186446Y-81858500D01*
X159815754Y-81858501D01*
X159875169Y-81846682D01*
X159925540Y-81813025D01*
X160370526Y-81368038D01*
X160404182Y-81317669D01*
X160409952Y-81288661D01*
X161025900Y-81288661D01*
X161025901Y-81288683D01*
X161027293Y-81302020D01*
X161027295Y-81302027D01*
X161070784Y-81407020D01*
X161070789Y-81407027D01*
X161079242Y-81417450D01*
X161079251Y-81417460D01*
X161567238Y-81905446D01*
X161567250Y-81905457D01*
X161577673Y-81913912D01*
X161682679Y-81957407D01*
X161696033Y-81958800D01*
X161889100Y-81958800D01*
X161889100Y-81375170D01*
X161972188Y-81400800D01*
X162075360Y-81400800D01*
X162177384Y-81385422D01*
X162193100Y-81377853D01*
X162193100Y-81958800D01*
X162386162Y-81958800D01*
X162386183Y-81958798D01*
X162399520Y-81957406D01*
X162399527Y-81957404D01*
X162504520Y-81913915D01*
X162504527Y-81913910D01*
X162514950Y-81905457D01*
X162514960Y-81905448D01*
X163002946Y-81417461D01*
X163002957Y-81417449D01*
X163011412Y-81407026D01*
X163054907Y-81302020D01*
X163056300Y-81288666D01*
X163056300Y-81095600D01*
X162475365Y-81095600D01*
X162502171Y-80978153D01*
X162491872Y-80840714D01*
X162472596Y-80791600D01*
X163056300Y-80791600D01*
X163056300Y-80598538D01*
X163056298Y-80598516D01*
X163054906Y-80585179D01*
X163054904Y-80585172D01*
X163011415Y-80480179D01*
X163011410Y-80480172D01*
X163002957Y-80469749D01*
X163002948Y-80469739D01*
X162514961Y-79981753D01*
X162514949Y-79981742D01*
X162504526Y-79973287D01*
X162399520Y-79929792D01*
X162386167Y-79928400D01*
X162193100Y-79928400D01*
X162193100Y-80512029D01*
X162110012Y-80486400D01*
X162006840Y-80486400D01*
X161904816Y-80501778D01*
X161889100Y-80509346D01*
X161889100Y-79928400D01*
X161696038Y-79928400D01*
X161696016Y-79928401D01*
X161682679Y-79929793D01*
X161682672Y-79929795D01*
X161577679Y-79973284D01*
X161577672Y-79973289D01*
X161567249Y-79981742D01*
X161567239Y-79981751D01*
X161079253Y-80469738D01*
X161079242Y-80469750D01*
X161070787Y-80480173D01*
X161027292Y-80585179D01*
X161025900Y-80598533D01*
X161025900Y-80791600D01*
X161606835Y-80791600D01*
X161580029Y-80909047D01*
X161590328Y-81046486D01*
X161609604Y-81095600D01*
X161025900Y-81095600D01*
X161025900Y-81288661D01*
X160409952Y-81288661D01*
X160416000Y-81258254D01*
X160416001Y-80628946D01*
X160404182Y-80569531D01*
X160404179Y-80569527D01*
X160370525Y-80519160D01*
X160370523Y-80519158D01*
X159925539Y-80074175D01*
X159925534Y-80074171D01*
X159875172Y-80040520D01*
X159875167Y-80040517D01*
X159815754Y-80028700D01*
X159815752Y-80028699D01*
X159186446Y-80028699D01*
X159127030Y-80040518D01*
X159127029Y-80040518D01*
X159076660Y-80074174D01*
X159076658Y-80074176D01*
X158631675Y-80519160D01*
X158631671Y-80519165D01*
X158598020Y-80569527D01*
X158598017Y-80569532D01*
X158586200Y-80628945D01*
X158586199Y-80628947D01*
X158586199Y-80978153D01*
X158586199Y-81258254D01*
X151792230Y-81258254D01*
X151886061Y-81219388D01*
X152007616Y-81126116D01*
X152100888Y-81004561D01*
X152159522Y-80863006D01*
X152171151Y-80774679D01*
X152179521Y-80711102D01*
X152179521Y-80711097D01*
X152159523Y-80559200D01*
X152159522Y-80559198D01*
X152159522Y-80559194D01*
X152100888Y-80417640D01*
X152007616Y-80296084D01*
X152007614Y-80296083D01*
X152007614Y-80296082D01*
X151886061Y-80202812D01*
X151886058Y-80202810D01*
X151744509Y-80144179D01*
X151744499Y-80144176D01*
X151592603Y-80124179D01*
X151592597Y-80124179D01*
X151440700Y-80144176D01*
X151440690Y-80144179D01*
X151299143Y-80202810D01*
X151177584Y-80296084D01*
X151084310Y-80417643D01*
X151025679Y-80559190D01*
X151025676Y-80559200D01*
X151005679Y-80711097D01*
X151005679Y-80711102D01*
X138816400Y-80711102D01*
X138816400Y-78272702D01*
X146205079Y-78272702D01*
X146225076Y-78424599D01*
X146225077Y-78424605D01*
X146225078Y-78424606D01*
X146283712Y-78566161D01*
X146376984Y-78687716D01*
X146498539Y-78780988D01*
X146640094Y-78839622D01*
X146640098Y-78839622D01*
X146640100Y-78839623D01*
X146791997Y-78859621D01*
X146792000Y-78859621D01*
X146792003Y-78859621D01*
X146943899Y-78839623D01*
X146943899Y-78839622D01*
X146943906Y-78839622D01*
X147085461Y-78780988D01*
X147167219Y-78718253D01*
X158586199Y-78718253D01*
X158598018Y-78777669D01*
X158598018Y-78777670D01*
X158631674Y-78828039D01*
X158631675Y-78828040D01*
X159076662Y-79273026D01*
X159127031Y-79306682D01*
X159186446Y-79318500D01*
X159815754Y-79318501D01*
X159875169Y-79306682D01*
X159925540Y-79273025D01*
X160370526Y-78828038D01*
X160404182Y-78777669D01*
X160416000Y-78718254D01*
X160416001Y-78088946D01*
X160404182Y-78029531D01*
X160404179Y-78029527D01*
X160370525Y-77979160D01*
X160370523Y-77979158D01*
X159925539Y-77534175D01*
X159925534Y-77534171D01*
X159875172Y-77500520D01*
X159875167Y-77500517D01*
X159815754Y-77488700D01*
X159815752Y-77488699D01*
X159186446Y-77488699D01*
X159127030Y-77500518D01*
X159127029Y-77500518D01*
X159076660Y-77534174D01*
X159076658Y-77534176D01*
X158631675Y-77979160D01*
X158631671Y-77979165D01*
X158598020Y-78029527D01*
X158598017Y-78029532D01*
X158586200Y-78088945D01*
X158586199Y-78088947D01*
X158586199Y-78718253D01*
X147167219Y-78718253D01*
X147207016Y-78687716D01*
X147300288Y-78566161D01*
X147358922Y-78424606D01*
X147378921Y-78272700D01*
X147358922Y-78120794D01*
X147300288Y-77979240D01*
X147207016Y-77857684D01*
X147207014Y-77857683D01*
X147207014Y-77857682D01*
X147085461Y-77764412D01*
X147085458Y-77764410D01*
X146943909Y-77705779D01*
X146943899Y-77705776D01*
X146792003Y-77685779D01*
X146791997Y-77685779D01*
X146640100Y-77705776D01*
X146640090Y-77705779D01*
X146498543Y-77764410D01*
X146498540Y-77764411D01*
X146498540Y-77764412D01*
X146376984Y-77857684D01*
X146283774Y-77979160D01*
X146283710Y-77979243D01*
X146225079Y-78120790D01*
X146225076Y-78120800D01*
X146205079Y-78272697D01*
X146205079Y-78272702D01*
X138816400Y-78272702D01*
X138816400Y-77205902D01*
X154282279Y-77205902D01*
X154302276Y-77357799D01*
X154302279Y-77357809D01*
X154356495Y-77488699D01*
X154360912Y-77499361D01*
X154454184Y-77620916D01*
X154575739Y-77714188D01*
X154717294Y-77772822D01*
X154717298Y-77772822D01*
X154717300Y-77772823D01*
X154869197Y-77792821D01*
X154869200Y-77792821D01*
X154869203Y-77792821D01*
X155021099Y-77772823D01*
X155021099Y-77772822D01*
X155021106Y-77772822D01*
X155162661Y-77714188D01*
X155284216Y-77620916D01*
X155377488Y-77499361D01*
X155436122Y-77357806D01*
X155456121Y-77205900D01*
X155436122Y-77053994D01*
X155377488Y-76912440D01*
X155284216Y-76790884D01*
X155284214Y-76790883D01*
X155284214Y-76790882D01*
X155162661Y-76697612D01*
X155162658Y-76697610D01*
X155021109Y-76638979D01*
X155021099Y-76638976D01*
X154869203Y-76618979D01*
X154869197Y-76618979D01*
X154717300Y-76638976D01*
X154717290Y-76638979D01*
X154575743Y-76697610D01*
X154454184Y-76790884D01*
X154360910Y-76912443D01*
X154302279Y-77053990D01*
X154302276Y-77054000D01*
X154282279Y-77205897D01*
X154282279Y-77205902D01*
X138816400Y-77205902D01*
X138816400Y-74767502D01*
X151691479Y-74767502D01*
X151711476Y-74919399D01*
X151711477Y-74919405D01*
X151711478Y-74919406D01*
X151770112Y-75060961D01*
X151863384Y-75182516D01*
X151984939Y-75275788D01*
X152126494Y-75334422D01*
X152126498Y-75334422D01*
X152126500Y-75334423D01*
X152278397Y-75354421D01*
X152278400Y-75354421D01*
X152278403Y-75354421D01*
X152430299Y-75334423D01*
X152430299Y-75334422D01*
X152430306Y-75334422D01*
X152571861Y-75275788D01*
X152693416Y-75182516D01*
X152786688Y-75060961D01*
X152845322Y-74919406D01*
X152865321Y-74767500D01*
X152845322Y-74615594D01*
X152786688Y-74474040D01*
X152693416Y-74352484D01*
X152693414Y-74352483D01*
X152693414Y-74352482D01*
X152571861Y-74259212D01*
X152571858Y-74259210D01*
X152430309Y-74200579D01*
X152430299Y-74200576D01*
X152278403Y-74180579D01*
X152278397Y-74180579D01*
X152126500Y-74200576D01*
X152126490Y-74200579D01*
X151984943Y-74259210D01*
X151863384Y-74352484D01*
X151770110Y-74474043D01*
X151711479Y-74615590D01*
X151711476Y-74615600D01*
X151691479Y-74767497D01*
X151691479Y-74767502D01*
X138816400Y-74767502D01*
X138816400Y-74017200D01*
X138834706Y-73973006D01*
X138878900Y-73954700D01*
X145824994Y-73954700D01*
X149083289Y-70696406D01*
X149127483Y-70678100D01*
X160077517Y-70678100D01*
X160121711Y-70696406D01*
G37*
%TD.AperFunction*%
%TD*%
M02*
