%TF.GenerationSoftware,KiCad,Pcbnew,7.0.9*%
%TF.CreationDate,2024-03-16T10:18:14+00:00*%
%TF.ProjectId,wmk,776d6b2e-6b69-4636-9164-5f7063625858,rev?*%
%TF.SameCoordinates,Original*%
%TF.FileFunction,Soldermask,Top*%
%TF.FilePolarity,Negative*%
%FSLAX46Y46*%
G04 Gerber Fmt 4.6, Leading zero omitted, Abs format (unit mm)*
G04 Created by KiCad (PCBNEW 7.0.9) date 2024-03-16 10:18:14*
%MOMM*%
%LPD*%
G01*
G04 APERTURE LIST*
G04 Aperture macros list*
%AMRoundRect*
0 Rectangle with rounded corners*
0 $1 Rounding radius*
0 $2 $3 $4 $5 $6 $7 $8 $9 X,Y pos of 4 corners*
0 Add a 4 corners polygon primitive as box body*
4,1,4,$2,$3,$4,$5,$6,$7,$8,$9,$2,$3,0*
0 Add four circle primitives for the rounded corners*
1,1,$1+$1,$2,$3*
1,1,$1+$1,$4,$5*
1,1,$1+$1,$6,$7*
1,1,$1+$1,$8,$9*
0 Add four rect primitives between the rounded corners*
20,1,$1+$1,$2,$3,$4,$5,0*
20,1,$1+$1,$4,$5,$6,$7,0*
20,1,$1+$1,$6,$7,$8,$9,0*
20,1,$1+$1,$8,$9,$2,$3,0*%
%AMFreePoly0*
4,1,25,0.354308,0.793396,0.366431,0.783042,0.783042,0.366431,0.811549,0.310483,0.812800,0.294589,0.812800,-0.294589,0.793396,-0.354308,0.783042,-0.366431,0.366431,-0.783042,0.310483,-0.811549,0.294589,-0.812800,-0.294589,-0.812800,-0.354308,-0.793396,-0.366431,-0.783042,-0.783042,-0.366431,-0.811549,-0.310483,-0.812800,-0.294589,-0.812800,0.294589,-0.793396,0.354308,-0.783042,0.366431,
-0.366431,0.783042,-0.310483,0.811549,-0.294589,0.812800,0.294589,0.812800,0.354308,0.793396,0.354308,0.793396,$1*%
%AMFreePoly1*
4,1,25,0.375350,0.844196,0.387473,0.833842,0.833842,0.387473,0.862349,0.331525,0.863600,0.315631,0.863600,-0.315631,0.844196,-0.375350,0.833842,-0.387473,0.387473,-0.833842,0.331525,-0.862349,0.315631,-0.863600,-0.315631,-0.863600,-0.375350,-0.844196,-0.387473,-0.833842,-0.833842,-0.387473,-0.862349,-0.331525,-0.863600,-0.315631,-0.863600,0.315631,-0.844196,0.375350,-0.833842,0.387473,
-0.387473,0.833842,-0.331525,0.862349,-0.315631,0.863600,0.315631,0.863600,0.375350,0.844196,0.375350,0.844196,$1*%
G04 Aperture macros list end*
%ADD10O,1.625600X3.048000*%
%ADD11FreePoly0,90.000000*%
%ADD12RoundRect,0.101600X0.800000X0.900000X-0.800000X0.900000X-0.800000X-0.900000X0.800000X-0.900000X0*%
%ADD13O,1.661200X3.119200*%
%ADD14C,3.103200*%
%ADD15RoundRect,0.101600X-0.901500X0.800000X-0.901500X-0.800000X0.901500X-0.800000X0.901500X0.800000X0*%
%ADD16C,3.300000*%
%ADD17RoundRect,0.101600X-0.800000X-0.900000X0.800000X-0.900000X0.800000X0.900000X-0.800000X0.900000X0*%
%ADD18RoundRect,0.101600X-0.600000X0.600000X-0.600000X-0.600000X0.600000X-0.600000X0.600000X0.600000X0*%
%ADD19R,1.700000X1.700000*%
%ADD20O,1.700000X1.700000*%
%ADD21RoundRect,0.101600X0.550000X-0.500000X0.550000X0.500000X-0.550000X0.500000X-0.550000X-0.500000X0*%
%ADD22RoundRect,0.171600X-0.710000X0.070000X-0.710000X-0.070000X0.710000X-0.070000X0.710000X0.070000X0*%
%ADD23RoundRect,0.171600X0.070000X0.710000X-0.070000X0.710000X-0.070000X-0.710000X0.070000X-0.710000X0*%
%ADD24RoundRect,0.101600X-1.117500X0.609500X-1.117500X-0.609500X1.117500X-0.609500X1.117500X0.609500X0*%
%ADD25RoundRect,0.101600X-1.100000X1.800000X-1.100000X-1.800000X1.100000X-1.800000X1.100000X1.800000X0*%
%ADD26O,1.727200X3.251200*%
%ADD27FreePoly1,90.000000*%
%ADD28C,1.524000*%
G04 APERTURE END LIST*
D10*
%TO.C,JP3*%
X159359600Y-96418400D03*
X161899600Y-96418400D03*
%TD*%
D11*
%TO.C,PROGRAMER0*%
X162041100Y-83483600D03*
X159501100Y-83483600D03*
X162041100Y-80943600D03*
X159501100Y-80943600D03*
X162041100Y-78403600D03*
X159501100Y-78403600D03*
%TD*%
D12*
%TO.C,C13*%
X139893600Y-92026100D03*
X137093600Y-92026100D03*
%TD*%
D13*
%TO.C,X1*%
X152001100Y-66713600D03*
X149501100Y-66713600D03*
X147501100Y-66713600D03*
X145001100Y-66713600D03*
D14*
X155071100Y-64003600D03*
X141931100Y-64003600D03*
%TD*%
D15*
%TO.C,F1*%
X159009400Y-61890100D03*
X159009400Y-64734100D03*
%TD*%
D16*
%TO.C,U$1*%
X159001100Y-149503600D03*
%TD*%
D17*
%TO.C,C3*%
X136999800Y-104723700D03*
X139799800Y-104723700D03*
%TD*%
D18*
%TO.C,POWER0*%
X135770100Y-61912600D03*
X135770100Y-59812600D03*
%TD*%
D19*
%TO.C,J1*%
X160782000Y-92608400D03*
D20*
X160782000Y-90068400D03*
X160782000Y-87528400D03*
%TD*%
D21*
%TO.C,R3*%
X135820100Y-65336400D03*
X135820100Y-63636400D03*
%TD*%
D22*
%TO.C,U2*%
X153207200Y-83537300D03*
X153207200Y-83037300D03*
X153207200Y-82537300D03*
X153207200Y-82037300D03*
X153207200Y-81537300D03*
X153207200Y-81037300D03*
X153207200Y-80537300D03*
X153207200Y-80037300D03*
X153207200Y-79537300D03*
X153207200Y-79037300D03*
X153207200Y-78537300D03*
X153207200Y-78037300D03*
D23*
X151777200Y-76607300D03*
X151277200Y-76607300D03*
X150777200Y-76607300D03*
X150277200Y-76607300D03*
X149777200Y-76607300D03*
X149277200Y-76607300D03*
X148777200Y-76607300D03*
X148277200Y-76607300D03*
X147777200Y-76607300D03*
X147277200Y-76607300D03*
X146777200Y-76607300D03*
X146277200Y-76607300D03*
D22*
X144847200Y-78037300D03*
X144847200Y-78537300D03*
X144847200Y-79037300D03*
X144847200Y-79537300D03*
X144847200Y-80037300D03*
X144847200Y-80537300D03*
X144847200Y-81037300D03*
X144847200Y-81537300D03*
X144847200Y-82037300D03*
X144847200Y-82537300D03*
X144847200Y-83037300D03*
X144847200Y-83537300D03*
D23*
X146277200Y-84967300D03*
X146777200Y-84967300D03*
X147277200Y-84967300D03*
X147777200Y-84967300D03*
X148277200Y-84967300D03*
X148777200Y-84967300D03*
X149277200Y-84967300D03*
X149777200Y-84967300D03*
X150277200Y-84967300D03*
X150777200Y-84967300D03*
X151277200Y-84967300D03*
X151777200Y-84967300D03*
%TD*%
D24*
%TO.C,IC1*%
X135589600Y-95500100D03*
X135589600Y-97811100D03*
X135589600Y-100122100D03*
D25*
X141787600Y-97811100D03*
%TD*%
D26*
%TO.C,JP2*%
X162257431Y-103249369D03*
X159717431Y-103249369D03*
X157177431Y-103249369D03*
X154637431Y-103249369D03*
X152097431Y-103249369D03*
X149557431Y-103249369D03*
X147017431Y-103249369D03*
X144477431Y-103249369D03*
%TD*%
D21*
%TO.C,R4*%
X162834900Y-65731400D03*
X162834900Y-64031400D03*
%TD*%
D18*
%TO.C,CONNECT0*%
X162772900Y-61836400D03*
X162772900Y-59736400D03*
%TD*%
D27*
%TO.C,JP1*%
X136271100Y-88583600D03*
X133731100Y-88583600D03*
X136271100Y-86043600D03*
X133731100Y-86043600D03*
X136271100Y-83503600D03*
X133731100Y-83503600D03*
X136271100Y-80963600D03*
X133731100Y-80963600D03*
X136271100Y-78423600D03*
X133731100Y-78423600D03*
%TD*%
D28*
%TO.C,Q1*%
X153592337Y-92882875D03*
X148766337Y-92882875D03*
%TD*%
M02*
