%TF.GenerationSoftware,KiCad,Pcbnew,7.0.9*%
%TF.CreationDate,2024-03-16T10:18:14+00:00*%
%TF.ProjectId,wmk,776d6b2e-6b69-4636-9164-5f7063625858,rev?*%
%TF.SameCoordinates,Original*%
%TF.FileFunction,Copper,L3,Inr*%
%TF.FilePolarity,Positive*%
%FSLAX46Y46*%
G04 Gerber Fmt 4.6, Leading zero omitted, Abs format (unit mm)*
G04 Created by KiCad (PCBNEW 7.0.9) date 2024-03-16 10:18:14*
%MOMM*%
%LPD*%
G01*
G04 APERTURE LIST*
G04 Aperture macros list*
%AMOutline5P*
0 Free polygon, 5 corners , with rotation*
0 The origin of the aperture is its center*
0 number of corners: always 5*
0 $1 to $10 corner X, Y*
0 $11 Rotation angle, in degrees counterclockwise*
0 create outline with 5 corners*
4,1,5,$1,$2,$3,$4,$5,$6,$7,$8,$9,$10,$1,$2,$11*%
%AMOutline6P*
0 Free polygon, 6 corners , with rotation*
0 The origin of the aperture is its center*
0 number of corners: always 6*
0 $1 to $12 corner X, Y*
0 $13 Rotation angle, in degrees counterclockwise*
0 create outline with 6 corners*
4,1,6,$1,$2,$3,$4,$5,$6,$7,$8,$9,$10,$11,$12,$1,$2,$13*%
%AMOutline7P*
0 Free polygon, 7 corners , with rotation*
0 The origin of the aperture is its center*
0 number of corners: always 7*
0 $1 to $14 corner X, Y*
0 $15 Rotation angle, in degrees counterclockwise*
0 create outline with 7 corners*
4,1,7,$1,$2,$3,$4,$5,$6,$7,$8,$9,$10,$11,$12,$13,$14,$1,$2,$15*%
%AMOutline8P*
0 Free polygon, 8 corners , with rotation*
0 The origin of the aperture is its center*
0 number of corners: always 8*
0 $1 to $16 corner X, Y*
0 $17 Rotation angle, in degrees counterclockwise*
0 create outline with 8 corners*
4,1,8,$1,$2,$3,$4,$5,$6,$7,$8,$9,$10,$11,$12,$13,$14,$15,$16,$1,$2,$17*%
G04 Aperture macros list end*
%TA.AperFunction,ComponentPad*%
%ADD10O,1.422400X2.844800*%
%TD*%
%TA.AperFunction,ComponentPad*%
%ADD11Outline8P,-0.711200X0.294589X-0.294589X0.711200X0.294589X0.711200X0.711200X0.294589X0.711200X-0.294589X0.294589X-0.711200X-0.294589X-0.711200X-0.711200X-0.294589X90.000000*%
%TD*%
%TA.AperFunction,ComponentPad*%
%ADD12O,1.458000X2.916000*%
%TD*%
%TA.AperFunction,ComponentPad*%
%ADD13C,2.900000*%
%TD*%
%TA.AperFunction,ComponentPad*%
%ADD14R,1.700000X1.700000*%
%TD*%
%TA.AperFunction,ComponentPad*%
%ADD15O,1.700000X1.700000*%
%TD*%
%TA.AperFunction,ComponentPad*%
%ADD16O,1.524000X3.048000*%
%TD*%
%TA.AperFunction,ComponentPad*%
%ADD17Outline8P,-0.762000X0.315631X-0.315631X0.762000X0.315631X0.762000X0.762000X0.315631X0.762000X-0.315631X0.315631X-0.762000X-0.315631X-0.762000X-0.762000X-0.315631X90.000000*%
%TD*%
%TA.AperFunction,ComponentPad*%
%ADD18C,1.320800*%
%TD*%
%TA.AperFunction,ViaPad*%
%ADD19C,0.756400*%
%TD*%
%TA.AperFunction,ViaPad*%
%ADD20C,0.906400*%
%TD*%
%TA.AperFunction,ViaPad*%
%ADD21C,0.600000*%
%TD*%
G04 APERTURE END LIST*
D10*
%TO.N,/RX*%
%TO.C,JP3*%
X159359600Y-96418400D03*
%TO.N,/TX*%
X161899600Y-96418400D03*
%TD*%
D11*
%TO.N,VCC*%
%TO.C,PROGRAMER0*%
X162041100Y-83483600D03*
%TO.N,GND*%
X159501100Y-83483600D03*
%TO.N,VDD*%
X162041100Y-80943600D03*
%TO.N,/NRST*%
X159501100Y-80943600D03*
%TO.N,/SWCLK*%
X162041100Y-78403600D03*
%TO.N,/SWDIO*%
X159501100Y-78403600D03*
%TD*%
D12*
%TO.N,Net-(F1-Pad2)*%
%TO.C,X1*%
X152001100Y-66713600D03*
%TO.N,/USB_DM*%
X149501100Y-66713600D03*
%TO.N,/USB_DP*%
X147501100Y-66713600D03*
%TO.N,GND*%
X145001100Y-66713600D03*
D13*
%TO.N,unconnected-(X1-PadS1)*%
X155071100Y-64003600D03*
%TO.N,unconnected-(X1-PadS2)*%
X141931100Y-64003600D03*
%TD*%
D14*
%TO.N,GND*%
%TO.C,J1*%
X160782000Y-92608400D03*
D15*
%TO.N,Net-(J1-Pin_2)*%
X160782000Y-90068400D03*
%TO.N,VDD*%
X160782000Y-87528400D03*
%TD*%
D16*
%TO.N,/CLOCK*%
%TO.C,JP2*%
X162257431Y-103249369D03*
%TO.N,/DATA*%
X159717431Y-103249369D03*
%TO.N,/RESET*%
X157177431Y-103249369D03*
%TO.N,VCC*%
X154637431Y-103249369D03*
%TO.N,unconnected-(JP2-Pad5)*%
X152097431Y-103249369D03*
%TO.N,GND*%
X149557431Y-103249369D03*
%TO.N,/STATUS*%
X147017431Y-103249369D03*
%TO.N,/INUSE*%
X144477431Y-103249369D03*
%TD*%
D17*
%TO.N,Net-(U2-PB15)*%
%TO.C,JP1*%
X136271100Y-88583600D03*
%TO.N,Net-(U2-PB9)*%
X133731100Y-88583600D03*
%TO.N,VCC*%
X136271100Y-86043600D03*
%TO.N,Net-(U2-PB8)*%
X133731100Y-86043600D03*
%TO.N,GND*%
X136271100Y-83503600D03*
%TO.N,Net-(U2-PB5)*%
X133731100Y-83503600D03*
%TO.N,Net-(U2-PB14)*%
X136271100Y-80963600D03*
%TO.N,Net-(U2-PB4)*%
X133731100Y-80963600D03*
%TO.N,Net-(U2-PB13)*%
X136271100Y-78423600D03*
%TO.N,Net-(U2-PB3)*%
X133731100Y-78423600D03*
%TD*%
D18*
%TO.N,Net-(U2-PD1_OSC_OUT)*%
%TO.C,Q1*%
X153592337Y-92882875D03*
%TO.N,Net-(U2-PD0_OSC_IN)*%
X148766337Y-92882875D03*
%TD*%
D19*
%TO.N,GND*%
X150221000Y-83149500D03*
X151592600Y-80711100D03*
X146792000Y-78272700D03*
X143210600Y-82768500D03*
X151287800Y-96103500D03*
X135590600Y-94274700D03*
X135819200Y-58536900D03*
D20*
X160546100Y-119446100D03*
X143083600Y-100713600D03*
D19*
X135514400Y-92064900D03*
D20*
X139781600Y-103063100D03*
D19*
%TO.N,VDD*%
X139857800Y-93512700D03*
X154793000Y-83530500D03*
X139934000Y-75605700D03*
X146563400Y-83378100D03*
X159746000Y-71719500D03*
X141762800Y-95417700D03*
X152049800Y-86578500D03*
X146258600Y-75072300D03*
X154869200Y-78882300D03*
%TO.N,VCC*%
X157536200Y-59756100D03*
X137038400Y-103190100D03*
X137571800Y-100142100D03*
%TO.N,Net-(U2-PA3)*%
X152278400Y-74767500D03*
X162641600Y-57622500D03*
%TO.N,Net-(U2-PB3)*%
X144887000Y-87873900D03*
%TO.N,Net-(U2-PB4)*%
X147325400Y-87340500D03*
%TO.N,Net-(U2-PB5)*%
X147325400Y-88559700D03*
D21*
%TO.N,Net-(U2-PB8)*%
X148031200Y-89204800D03*
%TO.N,Net-(U2-PB9)*%
X148627844Y-89741779D03*
D19*
%TO.N,/TX*%
X145115600Y-98237100D03*
%TO.N,/RX*%
X145191800Y-96484500D03*
%TO.N,/SWCLK*%
X143820200Y-85816500D03*
D21*
%TO.N,Net-(U2-BOOT0)*%
X149674500Y-86326084D03*
%TO.N,/USB_DP*%
X147929600Y-82905600D03*
%TO.N,/USB_DM*%
X148539200Y-83667600D03*
D19*
%TO.N,unconnected-(U2-PA2-Pad12)*%
X154869200Y-77205900D03*
D21*
%TO.N,Net-(J1-Pin_2)*%
X158292800Y-87985600D03*
%TD*%
%TA.AperFunction,Conductor*%
%TO.N,GND*%
G36*
X165714194Y-55060506D02*
G01*
X165732500Y-55104700D01*
X165732500Y-154902500D01*
X165714194Y-154946694D01*
X165670000Y-154965000D01*
X131332200Y-154965000D01*
X131288006Y-154946694D01*
X131269700Y-154902500D01*
X131269700Y-149573192D01*
X157096786Y-149573192D01*
X157118628Y-149771697D01*
X157127214Y-149849724D01*
X157197580Y-150118876D01*
X157306384Y-150374914D01*
X157380465Y-150496300D01*
X157451311Y-150612386D01*
X157629261Y-150826215D01*
X157629275Y-150826229D01*
X157836447Y-151011855D01*
X157836452Y-151011859D01*
X157836457Y-151011863D01*
X158068473Y-151165363D01*
X158320367Y-151283446D01*
X158586769Y-151363595D01*
X158862001Y-151404100D01*
X158862002Y-151404100D01*
X159070569Y-151404100D01*
X159278546Y-151388878D01*
X159278548Y-151388877D01*
X159278555Y-151388877D01*
X159550097Y-151328388D01*
X159809938Y-151229008D01*
X160052540Y-151092853D01*
X160272732Y-150922826D01*
X160465822Y-150722551D01*
X160627693Y-150496296D01*
X160754897Y-150248883D01*
X160844721Y-149985586D01*
X160895252Y-149712016D01*
X160905413Y-149434004D01*
X160874986Y-149157476D01*
X160804620Y-148888324D01*
X160695816Y-148632286D01*
X160550892Y-148394819D01*
X160550890Y-148394817D01*
X160550888Y-148394813D01*
X160372938Y-148180984D01*
X160372924Y-148180970D01*
X160165752Y-147995344D01*
X160165745Y-147995339D01*
X160165743Y-147995337D01*
X159933727Y-147841837D01*
X159681833Y-147723754D01*
X159681830Y-147723753D01*
X159681828Y-147723752D01*
X159415440Y-147643607D01*
X159415426Y-147643604D01*
X159140205Y-147603100D01*
X159140199Y-147603100D01*
X158931637Y-147603100D01*
X158931631Y-147603100D01*
X158723653Y-147618321D01*
X158452103Y-147678812D01*
X158452101Y-147678812D01*
X158192260Y-147778192D01*
X157949660Y-147914346D01*
X157729469Y-148084373D01*
X157729467Y-148084374D01*
X157536374Y-148284653D01*
X157536373Y-148284654D01*
X157374510Y-148510899D01*
X157374507Y-148510903D01*
X157247302Y-148758318D01*
X157157480Y-149021612D01*
X157157477Y-149021620D01*
X157106949Y-149295175D01*
X157106947Y-149295196D01*
X157096786Y-149573192D01*
X131269700Y-149573192D01*
X131269700Y-104063796D01*
X143410131Y-104063796D01*
X143425573Y-104220592D01*
X143425573Y-104220593D01*
X143425574Y-104220596D01*
X143486452Y-104421286D01*
X143486604Y-104421786D01*
X143585706Y-104607192D01*
X143585708Y-104607196D01*
X143585710Y-104607198D01*
X143719084Y-104769716D01*
X143881602Y-104903090D01*
X143881605Y-104903091D01*
X143881607Y-104903093D01*
X144064755Y-105000988D01*
X144067017Y-105002197D01*
X144268204Y-105063226D01*
X144477431Y-105083833D01*
X144686658Y-105063226D01*
X144887845Y-105002197D01*
X145073260Y-104903090D01*
X145235778Y-104769716D01*
X145369152Y-104607198D01*
X145468259Y-104421783D01*
X145529288Y-104220596D01*
X145544731Y-104063800D01*
X145544731Y-104063796D01*
X145950131Y-104063796D01*
X145965573Y-104220592D01*
X145965573Y-104220593D01*
X145965574Y-104220596D01*
X146026452Y-104421286D01*
X146026604Y-104421786D01*
X146125706Y-104607192D01*
X146125708Y-104607196D01*
X146125710Y-104607198D01*
X146259084Y-104769716D01*
X146421602Y-104903090D01*
X146421605Y-104903091D01*
X146421607Y-104903093D01*
X146604755Y-105000988D01*
X146607017Y-105002197D01*
X146808204Y-105063226D01*
X147017431Y-105083833D01*
X147226658Y-105063226D01*
X147427845Y-105002197D01*
X147613260Y-104903090D01*
X147775778Y-104769716D01*
X147909152Y-104607198D01*
X148008259Y-104421783D01*
X148069288Y-104220596D01*
X148084731Y-104063800D01*
X148084731Y-104063735D01*
X148491431Y-104063735D01*
X148506854Y-104220340D01*
X148567811Y-104421286D01*
X148666792Y-104606466D01*
X148666796Y-104606472D01*
X148800008Y-104768791D01*
X148962327Y-104902003D01*
X148962333Y-104902007D01*
X149147513Y-105000988D01*
X149348454Y-105061943D01*
X149348462Y-105061945D01*
X149405431Y-105067555D01*
X149405431Y-103738420D01*
X149412839Y-103741804D01*
X149521097Y-103757369D01*
X149593765Y-103757369D01*
X149702023Y-103741804D01*
X149709431Y-103738420D01*
X149709431Y-105067555D01*
X149766399Y-105061945D01*
X149766407Y-105061943D01*
X149967348Y-105000988D01*
X150152528Y-104902007D01*
X150152534Y-104902003D01*
X150314853Y-104768791D01*
X150448065Y-104606472D01*
X150448069Y-104606466D01*
X150547050Y-104421286D01*
X150608007Y-104220340D01*
X150623425Y-104063796D01*
X151030131Y-104063796D01*
X151045573Y-104220592D01*
X151045573Y-104220593D01*
X151045574Y-104220596D01*
X151106452Y-104421286D01*
X151106604Y-104421786D01*
X151205706Y-104607192D01*
X151205708Y-104607196D01*
X151205710Y-104607198D01*
X151339084Y-104769716D01*
X151501602Y-104903090D01*
X151501605Y-104903091D01*
X151501607Y-104903093D01*
X151684755Y-105000988D01*
X151687017Y-105002197D01*
X151888204Y-105063226D01*
X152097431Y-105083833D01*
X152306658Y-105063226D01*
X152507845Y-105002197D01*
X152693260Y-104903090D01*
X152855778Y-104769716D01*
X152989152Y-104607198D01*
X153088259Y-104421783D01*
X153149288Y-104220596D01*
X153164731Y-104063800D01*
X153164731Y-104063796D01*
X153570131Y-104063796D01*
X153585573Y-104220592D01*
X153585573Y-104220593D01*
X153585574Y-104220596D01*
X153646452Y-104421286D01*
X153646604Y-104421786D01*
X153745706Y-104607192D01*
X153745708Y-104607196D01*
X153745710Y-104607198D01*
X153879084Y-104769716D01*
X154041602Y-104903090D01*
X154041605Y-104903091D01*
X154041607Y-104903093D01*
X154224755Y-105000988D01*
X154227017Y-105002197D01*
X154428204Y-105063226D01*
X154637431Y-105083833D01*
X154846658Y-105063226D01*
X155047845Y-105002197D01*
X155233260Y-104903090D01*
X155395778Y-104769716D01*
X155529152Y-104607198D01*
X155628259Y-104421783D01*
X155689288Y-104220596D01*
X155704731Y-104063800D01*
X155704731Y-104063796D01*
X156110131Y-104063796D01*
X156125573Y-104220592D01*
X156125573Y-104220593D01*
X156125574Y-104220596D01*
X156186452Y-104421286D01*
X156186604Y-104421786D01*
X156285706Y-104607192D01*
X156285708Y-104607196D01*
X156285710Y-104607198D01*
X156419084Y-104769716D01*
X156581602Y-104903090D01*
X156581605Y-104903091D01*
X156581607Y-104903093D01*
X156764755Y-105000988D01*
X156767017Y-105002197D01*
X156968204Y-105063226D01*
X157177431Y-105083833D01*
X157386658Y-105063226D01*
X157587845Y-105002197D01*
X157773260Y-104903090D01*
X157935778Y-104769716D01*
X158069152Y-104607198D01*
X158168259Y-104421783D01*
X158229288Y-104220596D01*
X158244731Y-104063800D01*
X158244731Y-104063796D01*
X158650131Y-104063796D01*
X158665573Y-104220592D01*
X158665573Y-104220593D01*
X158665574Y-104220596D01*
X158726452Y-104421286D01*
X158726604Y-104421786D01*
X158825706Y-104607192D01*
X158825708Y-104607196D01*
X158825710Y-104607198D01*
X158959084Y-104769716D01*
X159121602Y-104903090D01*
X159121605Y-104903091D01*
X159121607Y-104903093D01*
X159304755Y-105000988D01*
X159307017Y-105002197D01*
X159508204Y-105063226D01*
X159717431Y-105083833D01*
X159926658Y-105063226D01*
X160127845Y-105002197D01*
X160313260Y-104903090D01*
X160475778Y-104769716D01*
X160609152Y-104607198D01*
X160708259Y-104421783D01*
X160769288Y-104220596D01*
X160784731Y-104063800D01*
X160784731Y-104063796D01*
X161190131Y-104063796D01*
X161205573Y-104220592D01*
X161205573Y-104220593D01*
X161205574Y-104220596D01*
X161266452Y-104421286D01*
X161266604Y-104421786D01*
X161365706Y-104607192D01*
X161365708Y-104607196D01*
X161365710Y-104607198D01*
X161499084Y-104769716D01*
X161661602Y-104903090D01*
X161661605Y-104903091D01*
X161661607Y-104903093D01*
X161844755Y-105000988D01*
X161847017Y-105002197D01*
X162048204Y-105063226D01*
X162257431Y-105083833D01*
X162466658Y-105063226D01*
X162667845Y-105002197D01*
X162853260Y-104903090D01*
X163015778Y-104769716D01*
X163149152Y-104607198D01*
X163248259Y-104421783D01*
X163309288Y-104220596D01*
X163324731Y-104063800D01*
X163324731Y-102434938D01*
X163309288Y-102278142D01*
X163248259Y-102076955D01*
X163149152Y-101891540D01*
X163015778Y-101729022D01*
X162854578Y-101596730D01*
X162853265Y-101595652D01*
X162853263Y-101595651D01*
X162853260Y-101595648D01*
X162853258Y-101595646D01*
X162853254Y-101595644D01*
X162667848Y-101496542D01*
X162667845Y-101496541D01*
X162466658Y-101435512D01*
X162466655Y-101435511D01*
X162466654Y-101435511D01*
X162257431Y-101414905D01*
X162048207Y-101435511D01*
X162048205Y-101435511D01*
X162048204Y-101435512D01*
X161930094Y-101471339D01*
X161847013Y-101496542D01*
X161661607Y-101595644D01*
X161661596Y-101595652D01*
X161499085Y-101729020D01*
X161499082Y-101729023D01*
X161365714Y-101891534D01*
X161365706Y-101891545D01*
X161266604Y-102076951D01*
X161205574Y-102278143D01*
X161205573Y-102278145D01*
X161190131Y-102434941D01*
X161190131Y-104063796D01*
X160784731Y-104063796D01*
X160784731Y-102434938D01*
X160769288Y-102278142D01*
X160708259Y-102076955D01*
X160609152Y-101891540D01*
X160475778Y-101729022D01*
X160314578Y-101596730D01*
X160313265Y-101595652D01*
X160313263Y-101595651D01*
X160313260Y-101595648D01*
X160313258Y-101595646D01*
X160313254Y-101595644D01*
X160127848Y-101496542D01*
X160127845Y-101496541D01*
X159926658Y-101435512D01*
X159926655Y-101435511D01*
X159926654Y-101435511D01*
X159717431Y-101414905D01*
X159508207Y-101435511D01*
X159508205Y-101435511D01*
X159508204Y-101435512D01*
X159390094Y-101471339D01*
X159307013Y-101496542D01*
X159121607Y-101595644D01*
X159121596Y-101595652D01*
X158959085Y-101729020D01*
X158959082Y-101729023D01*
X158825714Y-101891534D01*
X158825706Y-101891545D01*
X158726604Y-102076951D01*
X158665574Y-102278143D01*
X158665573Y-102278145D01*
X158650131Y-102434941D01*
X158650131Y-104063796D01*
X158244731Y-104063796D01*
X158244731Y-102434938D01*
X158229288Y-102278142D01*
X158168259Y-102076955D01*
X158069152Y-101891540D01*
X157935778Y-101729022D01*
X157774578Y-101596730D01*
X157773265Y-101595652D01*
X157773263Y-101595651D01*
X157773260Y-101595648D01*
X157773258Y-101595646D01*
X157773254Y-101595644D01*
X157587848Y-101496542D01*
X157587845Y-101496541D01*
X157386658Y-101435512D01*
X157386655Y-101435511D01*
X157386654Y-101435511D01*
X157177431Y-101414905D01*
X156968207Y-101435511D01*
X156968205Y-101435511D01*
X156968204Y-101435512D01*
X156850094Y-101471339D01*
X156767013Y-101496542D01*
X156581607Y-101595644D01*
X156581596Y-101595652D01*
X156419085Y-101729020D01*
X156419082Y-101729023D01*
X156285714Y-101891534D01*
X156285706Y-101891545D01*
X156186604Y-102076951D01*
X156125574Y-102278143D01*
X156125573Y-102278145D01*
X156110131Y-102434941D01*
X156110131Y-104063796D01*
X155704731Y-104063796D01*
X155704731Y-102434938D01*
X155689288Y-102278142D01*
X155628259Y-102076955D01*
X155529152Y-101891540D01*
X155395778Y-101729022D01*
X155234578Y-101596730D01*
X155233265Y-101595652D01*
X155233263Y-101595651D01*
X155233260Y-101595648D01*
X155233258Y-101595646D01*
X155233254Y-101595644D01*
X155047848Y-101496542D01*
X155047845Y-101496541D01*
X154846658Y-101435512D01*
X154846655Y-101435511D01*
X154846654Y-101435511D01*
X154637431Y-101414905D01*
X154428207Y-101435511D01*
X154428205Y-101435511D01*
X154428204Y-101435512D01*
X154310094Y-101471339D01*
X154227013Y-101496542D01*
X154041607Y-101595644D01*
X154041596Y-101595652D01*
X153879085Y-101729020D01*
X153879082Y-101729023D01*
X153745714Y-101891534D01*
X153745706Y-101891545D01*
X153646604Y-102076951D01*
X153585574Y-102278143D01*
X153585573Y-102278145D01*
X153570131Y-102434941D01*
X153570131Y-104063796D01*
X153164731Y-104063796D01*
X153164731Y-102434938D01*
X153149288Y-102278142D01*
X153088259Y-102076955D01*
X152989152Y-101891540D01*
X152855778Y-101729022D01*
X152694578Y-101596730D01*
X152693265Y-101595652D01*
X152693263Y-101595651D01*
X152693260Y-101595648D01*
X152693258Y-101595646D01*
X152693254Y-101595644D01*
X152507848Y-101496542D01*
X152507845Y-101496541D01*
X152306658Y-101435512D01*
X152306655Y-101435511D01*
X152306654Y-101435511D01*
X152097431Y-101414905D01*
X151888207Y-101435511D01*
X151888205Y-101435511D01*
X151888204Y-101435512D01*
X151770094Y-101471339D01*
X151687013Y-101496542D01*
X151501607Y-101595644D01*
X151501596Y-101595652D01*
X151339085Y-101729020D01*
X151339082Y-101729023D01*
X151205714Y-101891534D01*
X151205706Y-101891545D01*
X151106604Y-102076951D01*
X151045574Y-102278143D01*
X151045573Y-102278145D01*
X151030131Y-102434941D01*
X151030131Y-104063796D01*
X150623425Y-104063796D01*
X150623431Y-104063735D01*
X150623431Y-103401369D01*
X150042246Y-103401369D01*
X150065431Y-103322408D01*
X150065431Y-103176330D01*
X150042246Y-103097369D01*
X150623431Y-103097369D01*
X150623431Y-102435002D01*
X150608007Y-102278397D01*
X150547050Y-102077451D01*
X150448069Y-101892271D01*
X150448065Y-101892265D01*
X150314853Y-101729946D01*
X150152534Y-101596734D01*
X150152528Y-101596730D01*
X149967348Y-101497749D01*
X149766403Y-101436792D01*
X149709431Y-101431180D01*
X149709431Y-102760317D01*
X149702023Y-102756934D01*
X149593765Y-102741369D01*
X149521097Y-102741369D01*
X149412839Y-102756934D01*
X149405431Y-102760317D01*
X149405431Y-101431181D01*
X149405430Y-101431180D01*
X149348458Y-101436792D01*
X149147513Y-101497749D01*
X148962333Y-101596730D01*
X148962327Y-101596734D01*
X148800008Y-101729946D01*
X148666796Y-101892265D01*
X148666792Y-101892271D01*
X148567811Y-102077451D01*
X148506854Y-102278397D01*
X148491431Y-102435002D01*
X148491431Y-103097369D01*
X149072616Y-103097369D01*
X149049431Y-103176330D01*
X149049431Y-103322408D01*
X149072616Y-103401369D01*
X148491431Y-103401369D01*
X148491431Y-104063735D01*
X148084731Y-104063735D01*
X148084731Y-102434938D01*
X148069288Y-102278142D01*
X148008259Y-102076955D01*
X147909152Y-101891540D01*
X147775778Y-101729022D01*
X147614578Y-101596730D01*
X147613265Y-101595652D01*
X147613263Y-101595651D01*
X147613260Y-101595648D01*
X147613258Y-101595646D01*
X147613254Y-101595644D01*
X147427848Y-101496542D01*
X147427845Y-101496541D01*
X147226658Y-101435512D01*
X147226655Y-101435511D01*
X147226654Y-101435511D01*
X147017431Y-101414905D01*
X146808207Y-101435511D01*
X146808205Y-101435511D01*
X146808204Y-101435512D01*
X146690094Y-101471339D01*
X146607013Y-101496542D01*
X146421607Y-101595644D01*
X146421596Y-101595652D01*
X146259085Y-101729020D01*
X146259082Y-101729023D01*
X146125714Y-101891534D01*
X146125706Y-101891545D01*
X146026604Y-102076951D01*
X145965574Y-102278143D01*
X145965573Y-102278145D01*
X145950131Y-102434941D01*
X145950131Y-104063796D01*
X145544731Y-104063796D01*
X145544731Y-102434938D01*
X145529288Y-102278142D01*
X145468259Y-102076955D01*
X145369152Y-101891540D01*
X145235778Y-101729022D01*
X145074578Y-101596730D01*
X145073265Y-101595652D01*
X145073263Y-101595651D01*
X145073260Y-101595648D01*
X145073258Y-101595646D01*
X145073254Y-101595644D01*
X144887848Y-101496542D01*
X144887845Y-101496541D01*
X144686658Y-101435512D01*
X144686655Y-101435511D01*
X144686654Y-101435511D01*
X144477431Y-101414905D01*
X144268207Y-101435511D01*
X144268205Y-101435511D01*
X144268204Y-101435512D01*
X144150094Y-101471339D01*
X144067013Y-101496542D01*
X143881607Y-101595644D01*
X143881596Y-101595652D01*
X143719085Y-101729020D01*
X143719082Y-101729023D01*
X143585714Y-101891534D01*
X143585706Y-101891545D01*
X143486604Y-102076951D01*
X143425574Y-102278143D01*
X143425573Y-102278145D01*
X143410131Y-102434941D01*
X143410131Y-104063796D01*
X131269700Y-104063796D01*
X131269700Y-103190103D01*
X136349880Y-103190103D01*
X136369885Y-103354866D01*
X136369887Y-103354877D01*
X136428744Y-103510067D01*
X136428746Y-103510071D01*
X136523035Y-103646673D01*
X136647276Y-103756741D01*
X136794247Y-103833877D01*
X136955408Y-103873600D01*
X137121392Y-103873600D01*
X137282553Y-103833877D01*
X137429524Y-103756741D01*
X137553765Y-103646673D01*
X137648054Y-103510071D01*
X137706913Y-103354874D01*
X137726920Y-103190100D01*
X137708229Y-103036168D01*
X137706914Y-103025333D01*
X137706912Y-103025322D01*
X137648055Y-102870132D01*
X137648054Y-102870129D01*
X137553765Y-102733527D01*
X137429524Y-102623459D01*
X137429523Y-102623458D01*
X137282555Y-102546324D01*
X137282554Y-102546323D01*
X137282553Y-102546323D01*
X137174109Y-102519593D01*
X137121393Y-102506600D01*
X137121392Y-102506600D01*
X136955408Y-102506600D01*
X136955406Y-102506600D01*
X136849972Y-102532587D01*
X136794247Y-102546323D01*
X136794246Y-102546323D01*
X136794244Y-102546324D01*
X136647276Y-102623458D01*
X136523036Y-102733525D01*
X136428744Y-102870132D01*
X136369887Y-103025322D01*
X136369885Y-103025333D01*
X136349880Y-103190096D01*
X136349880Y-103190103D01*
X131269700Y-103190103D01*
X131269700Y-100142103D01*
X136883280Y-100142103D01*
X136903285Y-100306866D01*
X136903287Y-100306877D01*
X136962144Y-100462067D01*
X136962146Y-100462071D01*
X137056435Y-100598673D01*
X137180676Y-100708741D01*
X137327647Y-100785877D01*
X137488808Y-100825600D01*
X137654792Y-100825600D01*
X137815953Y-100785877D01*
X137962924Y-100708741D01*
X138087165Y-100598673D01*
X138181454Y-100462071D01*
X138240313Y-100306874D01*
X138260320Y-100142100D01*
X138240313Y-99977326D01*
X138240312Y-99977324D01*
X138240312Y-99977322D01*
X138181455Y-99822132D01*
X138181454Y-99822129D01*
X138087165Y-99685527D01*
X137962924Y-99575459D01*
X137962923Y-99575458D01*
X137815955Y-99498324D01*
X137815954Y-99498323D01*
X137815953Y-99498323D01*
X137707509Y-99471593D01*
X137654793Y-99458600D01*
X137654792Y-99458600D01*
X137488808Y-99458600D01*
X137488806Y-99458600D01*
X137383372Y-99484587D01*
X137327647Y-99498323D01*
X137327646Y-99498323D01*
X137327644Y-99498324D01*
X137180676Y-99575458D01*
X137056436Y-99685525D01*
X136962144Y-99822132D01*
X136903287Y-99977322D01*
X136903285Y-99977333D01*
X136883280Y-100142096D01*
X136883280Y-100142103D01*
X131269700Y-100142103D01*
X131269700Y-98237103D01*
X144427080Y-98237103D01*
X144447085Y-98401866D01*
X144447087Y-98401877D01*
X144505944Y-98557067D01*
X144505946Y-98557071D01*
X144600235Y-98693673D01*
X144724476Y-98803741D01*
X144871447Y-98880877D01*
X145032608Y-98920600D01*
X145198592Y-98920600D01*
X145359753Y-98880877D01*
X145506724Y-98803741D01*
X145630965Y-98693673D01*
X145725254Y-98557071D01*
X145784113Y-98401874D01*
X145804120Y-98237100D01*
X145784113Y-98072326D01*
X145784112Y-98072324D01*
X145784112Y-98072322D01*
X145725255Y-97917132D01*
X145725254Y-97917129D01*
X145630965Y-97780527D01*
X145536760Y-97697069D01*
X145506723Y-97670458D01*
X145359755Y-97593324D01*
X145359754Y-97593323D01*
X145359753Y-97593323D01*
X145251309Y-97566593D01*
X145198593Y-97553600D01*
X145198592Y-97553600D01*
X145032608Y-97553600D01*
X145032606Y-97553600D01*
X144927172Y-97579587D01*
X144871447Y-97593323D01*
X144871446Y-97593323D01*
X144871444Y-97593324D01*
X144724476Y-97670458D01*
X144600236Y-97780525D01*
X144505944Y-97917132D01*
X144447087Y-98072322D01*
X144447085Y-98072333D01*
X144427080Y-98237096D01*
X144427080Y-98237103D01*
X131269700Y-98237103D01*
X131269700Y-97179530D01*
X158343100Y-97179530D01*
X158357807Y-97328867D01*
X158357808Y-97328869D01*
X158415933Y-97520480D01*
X158415934Y-97520481D01*
X158510318Y-97697063D01*
X158510326Y-97697074D01*
X158578813Y-97780527D01*
X158637348Y-97851852D01*
X158792131Y-97978878D01*
X158792134Y-97978879D01*
X158792136Y-97978881D01*
X158838082Y-98003439D01*
X158968720Y-98073267D01*
X159160331Y-98131392D01*
X159359600Y-98151018D01*
X159558869Y-98131392D01*
X159750480Y-98073267D01*
X159927069Y-97978878D01*
X160081852Y-97851852D01*
X160208878Y-97697069D01*
X160303267Y-97520480D01*
X160361392Y-97328869D01*
X160376100Y-97179534D01*
X160376100Y-97179530D01*
X160883100Y-97179530D01*
X160897807Y-97328867D01*
X160897808Y-97328869D01*
X160955933Y-97520480D01*
X160955934Y-97520481D01*
X161050318Y-97697063D01*
X161050326Y-97697074D01*
X161118813Y-97780527D01*
X161177348Y-97851852D01*
X161332131Y-97978878D01*
X161332134Y-97978879D01*
X161332136Y-97978881D01*
X161378082Y-98003439D01*
X161508720Y-98073267D01*
X161700331Y-98131392D01*
X161899600Y-98151018D01*
X162098869Y-98131392D01*
X162290480Y-98073267D01*
X162467069Y-97978878D01*
X162621852Y-97851852D01*
X162748878Y-97697069D01*
X162843267Y-97520480D01*
X162901392Y-97328869D01*
X162916100Y-97179534D01*
X162916100Y-95657266D01*
X162901392Y-95507931D01*
X162843267Y-95316320D01*
X162748878Y-95139731D01*
X162621852Y-94984948D01*
X162592823Y-94961125D01*
X162467074Y-94857926D01*
X162467072Y-94857925D01*
X162467069Y-94857922D01*
X162467067Y-94857920D01*
X162467063Y-94857918D01*
X162309918Y-94773923D01*
X162290480Y-94763533D01*
X162168009Y-94726381D01*
X162098867Y-94705407D01*
X161899600Y-94685782D01*
X161700332Y-94705407D01*
X161605417Y-94734200D01*
X161508720Y-94763533D01*
X161508718Y-94763533D01*
X161508718Y-94763534D01*
X161332136Y-94857918D01*
X161332125Y-94857926D01*
X161177349Y-94984946D01*
X161177346Y-94984949D01*
X161050326Y-95139725D01*
X161050318Y-95139736D01*
X160955934Y-95316318D01*
X160897807Y-95507932D01*
X160883100Y-95657269D01*
X160883100Y-97179530D01*
X160376100Y-97179530D01*
X160376100Y-95657266D01*
X160361392Y-95507931D01*
X160303267Y-95316320D01*
X160208878Y-95139731D01*
X160081852Y-94984948D01*
X160052823Y-94961125D01*
X159927074Y-94857926D01*
X159927072Y-94857925D01*
X159927069Y-94857922D01*
X159927067Y-94857920D01*
X159927063Y-94857918D01*
X159769918Y-94773923D01*
X159750480Y-94763533D01*
X159628009Y-94726381D01*
X159558867Y-94705407D01*
X159359600Y-94685782D01*
X159160332Y-94705407D01*
X159065417Y-94734200D01*
X158968720Y-94763533D01*
X158968718Y-94763533D01*
X158968718Y-94763534D01*
X158792136Y-94857918D01*
X158792125Y-94857926D01*
X158637349Y-94984946D01*
X158637346Y-94984949D01*
X158510326Y-95139725D01*
X158510318Y-95139736D01*
X158415934Y-95316318D01*
X158357807Y-95507932D01*
X158343100Y-95657269D01*
X158343100Y-97179530D01*
X131269700Y-97179530D01*
X131269700Y-96484503D01*
X144503280Y-96484503D01*
X144523285Y-96649266D01*
X144523287Y-96649277D01*
X144582144Y-96804467D01*
X144582146Y-96804471D01*
X144676435Y-96941073D01*
X144800676Y-97051141D01*
X144947647Y-97128277D01*
X145108808Y-97168000D01*
X145274792Y-97168000D01*
X145435953Y-97128277D01*
X145582924Y-97051141D01*
X145707165Y-96941073D01*
X145801454Y-96804471D01*
X145860313Y-96649274D01*
X145880320Y-96484500D01*
X145860313Y-96319726D01*
X145860312Y-96319724D01*
X145860312Y-96319722D01*
X145801455Y-96164532D01*
X145801454Y-96164529D01*
X145707165Y-96027927D01*
X145582924Y-95917859D01*
X145582923Y-95917858D01*
X145435955Y-95840724D01*
X145435954Y-95840723D01*
X145435953Y-95840723D01*
X145327509Y-95813993D01*
X145274793Y-95801000D01*
X145274792Y-95801000D01*
X145108808Y-95801000D01*
X145108806Y-95801000D01*
X145003372Y-95826987D01*
X144947647Y-95840723D01*
X144947646Y-95840723D01*
X144947644Y-95840724D01*
X144800676Y-95917858D01*
X144676436Y-96027925D01*
X144582144Y-96164532D01*
X144523287Y-96319722D01*
X144523285Y-96319733D01*
X144503280Y-96484496D01*
X144503280Y-96484503D01*
X131269700Y-96484503D01*
X131269700Y-95417703D01*
X141074280Y-95417703D01*
X141094285Y-95582466D01*
X141094287Y-95582477D01*
X141153144Y-95737667D01*
X141153146Y-95737671D01*
X141247435Y-95874273D01*
X141371676Y-95984341D01*
X141518647Y-96061477D01*
X141679808Y-96101200D01*
X141845792Y-96101200D01*
X142006953Y-96061477D01*
X142153924Y-95984341D01*
X142278165Y-95874273D01*
X142372454Y-95737671D01*
X142431313Y-95582474D01*
X142451320Y-95417700D01*
X142439010Y-95316320D01*
X142431314Y-95252933D01*
X142431312Y-95252922D01*
X142372455Y-95097732D01*
X142372454Y-95097729D01*
X142278165Y-94961127D01*
X142153924Y-94851059D01*
X142153923Y-94851058D01*
X142006955Y-94773924D01*
X142006954Y-94773923D01*
X142006953Y-94773923D01*
X141898509Y-94747193D01*
X141845793Y-94734200D01*
X141845792Y-94734200D01*
X141679808Y-94734200D01*
X141679806Y-94734200D01*
X141574372Y-94760187D01*
X141518647Y-94773923D01*
X141518646Y-94773923D01*
X141518644Y-94773924D01*
X141371676Y-94851058D01*
X141247436Y-94961125D01*
X141153144Y-95097732D01*
X141094287Y-95252922D01*
X141094285Y-95252933D01*
X141074280Y-95417696D01*
X141074280Y-95417703D01*
X131269700Y-95417703D01*
X131269700Y-93512703D01*
X139169280Y-93512703D01*
X139189285Y-93677466D01*
X139189287Y-93677477D01*
X139227936Y-93779383D01*
X139248146Y-93832671D01*
X139342435Y-93969273D01*
X139466676Y-94079341D01*
X139613647Y-94156477D01*
X139774808Y-94196200D01*
X139940792Y-94196200D01*
X140101953Y-94156477D01*
X140248924Y-94079341D01*
X140373165Y-93969273D01*
X140467454Y-93832671D01*
X140521672Y-93689711D01*
X140526312Y-93677477D01*
X140526314Y-93677466D01*
X140546320Y-93512703D01*
X140546320Y-93512696D01*
X140526314Y-93347933D01*
X140526312Y-93347922D01*
X140467455Y-93192732D01*
X140467454Y-93192729D01*
X140373165Y-93056127D01*
X140347457Y-93033352D01*
X140248923Y-92946058D01*
X140128537Y-92882875D01*
X147795964Y-92882875D01*
X147814608Y-93072183D01*
X147814609Y-93072185D01*
X147869829Y-93254221D01*
X147869830Y-93254222D01*
X147959497Y-93421979D01*
X147959501Y-93421985D01*
X148080180Y-93569032D01*
X148227227Y-93689711D01*
X148227229Y-93689712D01*
X148227232Y-93689714D01*
X148270882Y-93713045D01*
X148394991Y-93779383D01*
X148577027Y-93834603D01*
X148766337Y-93853248D01*
X148955647Y-93834603D01*
X149137683Y-93779383D01*
X149305447Y-93689711D01*
X149452494Y-93569032D01*
X149573173Y-93421985D01*
X149662845Y-93254221D01*
X149718065Y-93072185D01*
X149736710Y-92882875D01*
X152621964Y-92882875D01*
X152640608Y-93072183D01*
X152640609Y-93072185D01*
X152695829Y-93254221D01*
X152695830Y-93254222D01*
X152785497Y-93421979D01*
X152785501Y-93421985D01*
X152906180Y-93569032D01*
X153053227Y-93689711D01*
X153053229Y-93689712D01*
X153053232Y-93689714D01*
X153096882Y-93713045D01*
X153220991Y-93779383D01*
X153403027Y-93834603D01*
X153592337Y-93853248D01*
X153781647Y-93834603D01*
X153963683Y-93779383D01*
X154131447Y-93689711D01*
X154278494Y-93569032D01*
X154399173Y-93421985D01*
X154488845Y-93254221D01*
X154544065Y-93072185D01*
X154562710Y-92882875D01*
X154544065Y-92693565D01*
X154488845Y-92511529D01*
X154459378Y-92456400D01*
X159628000Y-92456400D01*
X160305523Y-92456400D01*
X160282000Y-92536511D01*
X160282000Y-92680289D01*
X160305523Y-92760400D01*
X159628001Y-92760400D01*
X159628001Y-93503788D01*
X159630949Y-93529207D01*
X159630949Y-93529208D01*
X159676857Y-93633178D01*
X159757221Y-93713542D01*
X159861194Y-93759451D01*
X159886611Y-93762399D01*
X160630000Y-93762399D01*
X160630000Y-93088656D01*
X160639685Y-93093080D01*
X160746237Y-93108400D01*
X160817763Y-93108400D01*
X160924315Y-93093080D01*
X160934000Y-93088656D01*
X160934000Y-93762399D01*
X161677388Y-93762399D01*
X161702807Y-93759450D01*
X161702808Y-93759450D01*
X161806778Y-93713542D01*
X161887142Y-93633178D01*
X161933051Y-93529205D01*
X161936000Y-93503788D01*
X161936000Y-92760400D01*
X161258477Y-92760400D01*
X161282000Y-92680289D01*
X161282000Y-92536511D01*
X161258477Y-92456400D01*
X161935999Y-92456400D01*
X161935999Y-91713011D01*
X161933050Y-91687592D01*
X161933050Y-91687591D01*
X161887142Y-91583621D01*
X161806778Y-91503257D01*
X161702805Y-91457348D01*
X161677389Y-91454400D01*
X160934000Y-91454400D01*
X160934000Y-92128143D01*
X160924315Y-92123720D01*
X160817763Y-92108400D01*
X160746237Y-92108400D01*
X160639685Y-92123720D01*
X160630000Y-92128143D01*
X160630000Y-91454400D01*
X159886611Y-91454400D01*
X159861192Y-91457349D01*
X159861191Y-91457349D01*
X159757221Y-91503257D01*
X159676857Y-91583621D01*
X159630948Y-91687594D01*
X159628000Y-91713011D01*
X159628000Y-92456400D01*
X154459378Y-92456400D01*
X154399173Y-92343765D01*
X154278494Y-92196718D01*
X154131447Y-92076039D01*
X154131441Y-92076035D01*
X154025737Y-92019535D01*
X153963683Y-91986367D01*
X153847332Y-91951072D01*
X153781645Y-91931146D01*
X153592337Y-91912502D01*
X153403028Y-91931146D01*
X153286676Y-91966441D01*
X153220991Y-91986367D01*
X153220989Y-91986367D01*
X153220989Y-91986368D01*
X153053232Y-92076035D01*
X153053226Y-92076039D01*
X152906180Y-92196718D01*
X152785501Y-92343764D01*
X152785497Y-92343770D01*
X152695830Y-92511527D01*
X152640608Y-92693566D01*
X152621964Y-92882874D01*
X152621964Y-92882875D01*
X149736710Y-92882875D01*
X149718065Y-92693565D01*
X149662845Y-92511529D01*
X149573173Y-92343765D01*
X149452494Y-92196718D01*
X149305447Y-92076039D01*
X149305441Y-92076035D01*
X149199737Y-92019535D01*
X149137683Y-91986367D01*
X149021332Y-91951072D01*
X148955645Y-91931146D01*
X148766337Y-91912502D01*
X148577028Y-91931146D01*
X148460676Y-91966441D01*
X148394991Y-91986367D01*
X148394989Y-91986367D01*
X148394989Y-91986368D01*
X148227232Y-92076035D01*
X148227226Y-92076039D01*
X148080180Y-92196718D01*
X147959501Y-92343764D01*
X147959497Y-92343770D01*
X147869830Y-92511527D01*
X147814608Y-92693566D01*
X147795964Y-92882874D01*
X147795964Y-92882875D01*
X140128537Y-92882875D01*
X140101955Y-92868924D01*
X140101954Y-92868923D01*
X140101953Y-92868923D01*
X139993509Y-92842193D01*
X139940793Y-92829200D01*
X139940792Y-92829200D01*
X139774808Y-92829200D01*
X139774806Y-92829200D01*
X139669372Y-92855187D01*
X139613647Y-92868923D01*
X139613646Y-92868923D01*
X139613644Y-92868924D01*
X139466676Y-92946058D01*
X139342436Y-93056125D01*
X139248144Y-93192732D01*
X139189287Y-93347922D01*
X139189285Y-93347933D01*
X139169280Y-93512696D01*
X139169280Y-93512703D01*
X131269700Y-93512703D01*
X131269700Y-88949916D01*
X132663799Y-88949916D01*
X132665199Y-88963333D01*
X132665202Y-88963345D01*
X132708876Y-89068783D01*
X132708878Y-89068786D01*
X132708880Y-89068790D01*
X132717383Y-89079274D01*
X133235430Y-89597322D01*
X133245910Y-89605820D01*
X133351362Y-89649500D01*
X133364782Y-89650900D01*
X134097414Y-89650901D01*
X134110838Y-89649500D01*
X134216290Y-89605820D01*
X134226774Y-89597317D01*
X134744822Y-89079270D01*
X134753320Y-89068790D01*
X134797000Y-88963338D01*
X134798400Y-88949918D01*
X134798400Y-88949916D01*
X135203799Y-88949916D01*
X135205199Y-88963333D01*
X135205202Y-88963345D01*
X135248876Y-89068783D01*
X135248878Y-89068786D01*
X135248880Y-89068790D01*
X135257383Y-89079274D01*
X135775430Y-89597322D01*
X135785910Y-89605820D01*
X135891362Y-89649500D01*
X135904782Y-89650900D01*
X136637414Y-89650901D01*
X136650838Y-89649500D01*
X136756290Y-89605820D01*
X136766774Y-89597317D01*
X137284822Y-89079270D01*
X137293320Y-89068790D01*
X137337000Y-88963338D01*
X137338400Y-88949918D01*
X137338401Y-88559703D01*
X146636880Y-88559703D01*
X146656885Y-88724466D01*
X146656887Y-88724477D01*
X146715744Y-88879667D01*
X146715746Y-88879671D01*
X146773495Y-88963335D01*
X146810036Y-89016274D01*
X146934276Y-89126341D01*
X147081247Y-89203477D01*
X147242408Y-89243200D01*
X147370921Y-89243200D01*
X147415115Y-89261506D01*
X147432886Y-89297542D01*
X147441478Y-89362808D01*
X147441481Y-89362818D01*
X147502470Y-89510059D01*
X147502472Y-89510062D01*
X147599494Y-89636505D01*
X147725937Y-89733527D01*
X147725940Y-89733529D01*
X147745860Y-89741780D01*
X147873185Y-89794520D01*
X147873191Y-89794520D01*
X147873192Y-89794521D01*
X147895377Y-89797441D01*
X147979380Y-89808500D01*
X148020807Y-89832417D01*
X148033188Y-89862307D01*
X148038122Y-89899786D01*
X148038125Y-89899797D01*
X148099114Y-90047038D01*
X148099116Y-90047041D01*
X148196138Y-90173484D01*
X148322581Y-90270506D01*
X148322584Y-90270508D01*
X148349358Y-90281598D01*
X148469829Y-90331499D01*
X148469833Y-90331499D01*
X148469835Y-90331500D01*
X148627842Y-90352302D01*
X148627844Y-90352302D01*
X148627846Y-90352302D01*
X148785852Y-90331500D01*
X148785852Y-90331499D01*
X148785859Y-90331499D01*
X148933106Y-90270507D01*
X149059549Y-90173484D01*
X149140180Y-90068403D01*
X159621751Y-90068403D01*
X159641504Y-90281587D01*
X159641506Y-90281598D01*
X159700100Y-90487530D01*
X159795536Y-90679192D01*
X159924566Y-90850055D01*
X160031887Y-90947891D01*
X160082789Y-90994295D01*
X160082790Y-90994296D01*
X160082794Y-90994299D01*
X160264833Y-91107012D01*
X160464483Y-91184357D01*
X160674946Y-91223700D01*
X160674949Y-91223700D01*
X160889051Y-91223700D01*
X160889054Y-91223700D01*
X161099517Y-91184357D01*
X161299167Y-91107012D01*
X161481206Y-90994299D01*
X161639434Y-90850055D01*
X161768464Y-90679192D01*
X161863900Y-90487530D01*
X161922494Y-90281595D01*
X161922495Y-90281587D01*
X161942249Y-90068403D01*
X161942249Y-90068396D01*
X161922495Y-89855212D01*
X161922493Y-89855201D01*
X161905227Y-89794518D01*
X161863900Y-89649270D01*
X161768464Y-89457608D01*
X161639434Y-89286745D01*
X161491691Y-89152059D01*
X161481210Y-89142504D01*
X161481207Y-89142502D01*
X161481206Y-89142501D01*
X161299167Y-89029788D01*
X161299165Y-89029787D01*
X161099514Y-88952442D01*
X160889056Y-88913100D01*
X160889054Y-88913100D01*
X160674946Y-88913100D01*
X160674943Y-88913100D01*
X160464485Y-88952442D01*
X160264834Y-89029787D01*
X160082789Y-89142504D01*
X159924564Y-89286747D01*
X159924562Y-89286749D01*
X159795536Y-89457608D01*
X159700100Y-89649269D01*
X159641506Y-89855201D01*
X159641504Y-89855212D01*
X159621751Y-90068396D01*
X159621751Y-90068403D01*
X149140180Y-90068403D01*
X149156572Y-90047041D01*
X149217564Y-89899794D01*
X149229583Y-89808500D01*
X149238367Y-89741780D01*
X149238367Y-89741777D01*
X149217565Y-89583770D01*
X149217564Y-89583768D01*
X149217564Y-89583764D01*
X149156572Y-89436518D01*
X149059549Y-89310074D01*
X149059547Y-89310073D01*
X149059547Y-89310072D01*
X148933106Y-89213051D01*
X148933103Y-89213049D01*
X148785862Y-89152060D01*
X148785852Y-89152057D01*
X148679661Y-89138077D01*
X148638234Y-89114160D01*
X148625854Y-89084271D01*
X148620920Y-89046785D01*
X148559928Y-88899539D01*
X148462905Y-88773095D01*
X148462903Y-88773094D01*
X148462903Y-88773093D01*
X148336462Y-88676072D01*
X148336459Y-88676070D01*
X148189218Y-88615081D01*
X148189216Y-88615080D01*
X148189215Y-88615080D01*
X148189213Y-88615079D01*
X148189207Y-88615078D01*
X148065951Y-88598851D01*
X148024524Y-88574933D01*
X148012065Y-88544419D01*
X147993914Y-88394933D01*
X147993912Y-88394922D01*
X147935055Y-88239732D01*
X147935054Y-88239729D01*
X147840765Y-88103127D01*
X147835447Y-88098416D01*
X147720839Y-87996882D01*
X147715346Y-87985601D01*
X157682277Y-87985601D01*
X157703078Y-88143608D01*
X157703081Y-88143618D01*
X157764070Y-88290859D01*
X157764072Y-88290862D01*
X157861094Y-88417305D01*
X157958117Y-88491752D01*
X157987538Y-88514328D01*
X158134785Y-88575320D01*
X158134789Y-88575320D01*
X158134791Y-88575321D01*
X158292798Y-88596123D01*
X158292800Y-88596123D01*
X158292802Y-88596123D01*
X158450808Y-88575321D01*
X158450808Y-88575320D01*
X158450815Y-88575320D01*
X158598062Y-88514328D01*
X158724505Y-88417305D01*
X158821528Y-88290862D01*
X158882520Y-88143615D01*
X158883102Y-88139192D01*
X158903323Y-87985601D01*
X158903323Y-87985598D01*
X158882521Y-87827591D01*
X158882520Y-87827589D01*
X158882520Y-87827585D01*
X158833452Y-87709126D01*
X158821529Y-87680341D01*
X158821527Y-87680338D01*
X158736778Y-87569890D01*
X158724505Y-87553895D01*
X158724503Y-87553894D01*
X158724503Y-87553893D01*
X158691284Y-87528403D01*
X159621751Y-87528403D01*
X159641504Y-87741587D01*
X159641506Y-87741598D01*
X159688608Y-87907141D01*
X159700100Y-87947530D01*
X159795536Y-88139192D01*
X159924566Y-88310055D01*
X160017661Y-88394922D01*
X160082789Y-88454295D01*
X160082790Y-88454296D01*
X160082794Y-88454299D01*
X160264833Y-88567012D01*
X160464483Y-88644357D01*
X160674946Y-88683700D01*
X160674949Y-88683700D01*
X160889051Y-88683700D01*
X160889054Y-88683700D01*
X161099517Y-88644357D01*
X161299167Y-88567012D01*
X161481206Y-88454299D01*
X161639434Y-88310055D01*
X161768464Y-88139192D01*
X161863900Y-87947530D01*
X161922494Y-87741595D01*
X161930011Y-87660471D01*
X161942249Y-87528403D01*
X161942249Y-87528396D01*
X161922495Y-87315212D01*
X161922493Y-87315201D01*
X161898286Y-87230123D01*
X161863900Y-87109270D01*
X161768464Y-86917608D01*
X161639434Y-86746745D01*
X161540171Y-86656255D01*
X161481210Y-86602504D01*
X161481207Y-86602502D01*
X161481206Y-86602501D01*
X161299167Y-86489788D01*
X161299165Y-86489787D01*
X161127627Y-86423333D01*
X161099517Y-86412443D01*
X161099516Y-86412442D01*
X161099514Y-86412442D01*
X160889056Y-86373100D01*
X160889054Y-86373100D01*
X160674946Y-86373100D01*
X160674943Y-86373100D01*
X160464485Y-86412442D01*
X160264834Y-86489787D01*
X160082789Y-86602504D01*
X159924564Y-86746747D01*
X159924562Y-86746749D01*
X159795536Y-86917608D01*
X159700100Y-87109269D01*
X159641506Y-87315201D01*
X159641504Y-87315212D01*
X159621751Y-87528396D01*
X159621751Y-87528403D01*
X158691284Y-87528403D01*
X158598062Y-87456872D01*
X158598059Y-87456870D01*
X158450818Y-87395881D01*
X158450808Y-87395878D01*
X158292802Y-87375077D01*
X158292798Y-87375077D01*
X158134791Y-87395878D01*
X158134781Y-87395881D01*
X157987541Y-87456870D01*
X157987538Y-87456872D01*
X157861095Y-87553895D01*
X157764072Y-87680338D01*
X157764070Y-87680341D01*
X157703081Y-87827581D01*
X157703078Y-87827591D01*
X157682277Y-87985598D01*
X157682277Y-87985601D01*
X147715346Y-87985601D01*
X147699898Y-87953874D01*
X147715502Y-87908655D01*
X147720839Y-87903318D01*
X147840765Y-87797073D01*
X147935054Y-87660471D01*
X147993913Y-87505274D01*
X148013920Y-87340500D01*
X148010848Y-87315201D01*
X147993914Y-87175733D01*
X147993912Y-87175722D01*
X147935055Y-87020532D01*
X147935054Y-87020529D01*
X147840765Y-86883927D01*
X147716524Y-86773859D01*
X147716523Y-86773858D01*
X147569555Y-86696724D01*
X147569554Y-86696723D01*
X147569553Y-86696723D01*
X147461109Y-86669993D01*
X147408393Y-86657000D01*
X147408392Y-86657000D01*
X147242408Y-86657000D01*
X147242406Y-86657000D01*
X147136972Y-86682987D01*
X147081247Y-86696723D01*
X147081246Y-86696723D01*
X147081244Y-86696724D01*
X146934276Y-86773858D01*
X146810036Y-86883925D01*
X146715744Y-87020532D01*
X146656887Y-87175722D01*
X146656885Y-87175733D01*
X146636880Y-87340496D01*
X146636880Y-87340503D01*
X146656885Y-87505266D01*
X146656887Y-87505277D01*
X146715744Y-87660467D01*
X146715746Y-87660471D01*
X146749335Y-87709133D01*
X146810036Y-87797074D01*
X146929960Y-87903318D01*
X146950901Y-87946327D01*
X146935297Y-87991545D01*
X146929960Y-87996882D01*
X146810036Y-88103125D01*
X146715744Y-88239732D01*
X146656887Y-88394922D01*
X146656885Y-88394933D01*
X146636880Y-88559696D01*
X146636880Y-88559703D01*
X137338401Y-88559703D01*
X137338401Y-88217286D01*
X137337000Y-88203862D01*
X137310213Y-88139192D01*
X137293323Y-88098416D01*
X137293321Y-88098414D01*
X137293320Y-88098410D01*
X137284817Y-88087926D01*
X137070794Y-87873903D01*
X144198480Y-87873903D01*
X144218485Y-88038666D01*
X144218487Y-88038677D01*
X144258286Y-88143615D01*
X144277346Y-88193871D01*
X144371635Y-88330473D01*
X144495876Y-88440541D01*
X144642847Y-88517677D01*
X144804008Y-88557400D01*
X144969992Y-88557400D01*
X145131153Y-88517677D01*
X145278124Y-88440541D01*
X145402365Y-88330473D01*
X145496654Y-88193871D01*
X145555513Y-88038674D01*
X145555514Y-88038666D01*
X145575520Y-87873903D01*
X145575520Y-87873896D01*
X145555514Y-87709133D01*
X145555512Y-87709122D01*
X145496655Y-87553932D01*
X145496654Y-87553929D01*
X145402365Y-87417327D01*
X145378157Y-87395881D01*
X145278123Y-87307258D01*
X145131155Y-87230124D01*
X145131154Y-87230123D01*
X145131153Y-87230123D01*
X145022709Y-87203393D01*
X144969993Y-87190400D01*
X144969992Y-87190400D01*
X144804008Y-87190400D01*
X144804006Y-87190400D01*
X144698572Y-87216387D01*
X144642847Y-87230123D01*
X144642846Y-87230123D01*
X144642844Y-87230124D01*
X144495876Y-87307258D01*
X144371636Y-87417325D01*
X144294970Y-87528396D01*
X144277370Y-87553895D01*
X144277344Y-87553932D01*
X144218487Y-87709122D01*
X144218485Y-87709133D01*
X144198480Y-87873896D01*
X144198480Y-87873903D01*
X137070794Y-87873903D01*
X136766770Y-87569878D01*
X136756290Y-87561380D01*
X136756289Y-87561379D01*
X136676660Y-87528396D01*
X136650838Y-87517700D01*
X136650837Y-87517699D01*
X136650835Y-87517699D01*
X136639780Y-87516546D01*
X136637418Y-87516300D01*
X136637416Y-87516299D01*
X136637407Y-87516299D01*
X135904783Y-87516299D01*
X135891366Y-87517699D01*
X135891354Y-87517702D01*
X135785916Y-87561376D01*
X135785909Y-87561381D01*
X135775428Y-87569881D01*
X135775418Y-87569890D01*
X135257381Y-88087926D01*
X135257376Y-88087932D01*
X135248879Y-88098410D01*
X135205199Y-88203864D01*
X135203799Y-88217285D01*
X135203799Y-88949916D01*
X134798400Y-88949916D01*
X134798401Y-88217286D01*
X134797000Y-88203862D01*
X134770213Y-88139192D01*
X134753323Y-88098416D01*
X134753321Y-88098414D01*
X134753320Y-88098410D01*
X134744817Y-88087926D01*
X134226770Y-87569878D01*
X134216290Y-87561380D01*
X134216289Y-87561379D01*
X134136660Y-87528396D01*
X134110838Y-87517700D01*
X134110837Y-87517699D01*
X134110835Y-87517699D01*
X134099780Y-87516546D01*
X134097418Y-87516300D01*
X134097416Y-87516299D01*
X134097407Y-87516299D01*
X133364783Y-87516299D01*
X133351366Y-87517699D01*
X133351354Y-87517702D01*
X133245916Y-87561376D01*
X133245909Y-87561381D01*
X133235428Y-87569881D01*
X133235418Y-87569890D01*
X132717381Y-88087926D01*
X132717376Y-88087932D01*
X132708879Y-88098410D01*
X132665199Y-88203864D01*
X132663799Y-88217285D01*
X132663799Y-88949916D01*
X131269700Y-88949916D01*
X131269700Y-86409916D01*
X132663799Y-86409916D01*
X132665199Y-86423333D01*
X132665202Y-86423345D01*
X132708876Y-86528783D01*
X132708878Y-86528786D01*
X132708880Y-86528790D01*
X132717383Y-86539274D01*
X133235430Y-87057322D01*
X133245910Y-87065820D01*
X133351362Y-87109500D01*
X133364782Y-87110900D01*
X134097414Y-87110901D01*
X134110838Y-87109500D01*
X134216290Y-87065820D01*
X134226774Y-87057317D01*
X134744822Y-86539270D01*
X134753320Y-86528790D01*
X134797000Y-86423338D01*
X134798400Y-86409918D01*
X134798400Y-86409916D01*
X135203799Y-86409916D01*
X135205199Y-86423333D01*
X135205202Y-86423345D01*
X135248876Y-86528783D01*
X135248878Y-86528786D01*
X135248880Y-86528790D01*
X135257383Y-86539274D01*
X135775430Y-87057322D01*
X135785910Y-87065820D01*
X135891362Y-87109500D01*
X135904782Y-87110900D01*
X136637414Y-87110901D01*
X136650838Y-87109500D01*
X136756290Y-87065820D01*
X136766774Y-87057317D01*
X137284822Y-86539270D01*
X137293320Y-86528790D01*
X137337000Y-86423338D01*
X137338400Y-86409918D01*
X137338401Y-85816503D01*
X143131680Y-85816503D01*
X143151685Y-85981266D01*
X143151687Y-85981277D01*
X143205029Y-86121925D01*
X143210546Y-86136471D01*
X143304835Y-86273073D01*
X143429076Y-86383141D01*
X143576047Y-86460277D01*
X143737208Y-86500000D01*
X143903192Y-86500000D01*
X144064353Y-86460277D01*
X144211324Y-86383141D01*
X144275727Y-86326085D01*
X149063977Y-86326085D01*
X149084778Y-86484092D01*
X149084781Y-86484102D01*
X149145770Y-86631343D01*
X149145772Y-86631346D01*
X149242794Y-86757789D01*
X149339817Y-86832236D01*
X149369238Y-86854812D01*
X149516485Y-86915804D01*
X149516489Y-86915804D01*
X149516491Y-86915805D01*
X149674498Y-86936607D01*
X149674500Y-86936607D01*
X149674502Y-86936607D01*
X149832508Y-86915805D01*
X149832508Y-86915804D01*
X149832515Y-86915804D01*
X149979762Y-86854812D01*
X150106205Y-86757789D01*
X150203228Y-86631346D01*
X150225116Y-86578503D01*
X151361280Y-86578503D01*
X151381285Y-86743266D01*
X151381287Y-86743277D01*
X151434629Y-86883925D01*
X151440146Y-86898471D01*
X151524396Y-87020529D01*
X151534436Y-87035074D01*
X151618185Y-87109269D01*
X151658676Y-87145141D01*
X151805647Y-87222277D01*
X151966808Y-87262000D01*
X152132792Y-87262000D01*
X152293953Y-87222277D01*
X152440924Y-87145141D01*
X152565165Y-87035073D01*
X152659454Y-86898471D01*
X152718313Y-86743274D01*
X152723965Y-86696723D01*
X152738320Y-86578503D01*
X152738320Y-86578496D01*
X152718314Y-86413733D01*
X152718312Y-86413722D01*
X152659455Y-86258532D01*
X152659454Y-86258529D01*
X152565165Y-86121927D01*
X152440924Y-86011859D01*
X152440923Y-86011858D01*
X152293955Y-85934724D01*
X152293954Y-85934723D01*
X152293953Y-85934723D01*
X152185509Y-85907993D01*
X152132793Y-85895000D01*
X152132792Y-85895000D01*
X151966808Y-85895000D01*
X151966806Y-85895000D01*
X151861372Y-85920987D01*
X151805647Y-85934723D01*
X151805646Y-85934723D01*
X151805644Y-85934724D01*
X151658676Y-86011858D01*
X151534436Y-86121925D01*
X151440144Y-86258532D01*
X151381287Y-86413722D01*
X151381285Y-86413733D01*
X151361280Y-86578496D01*
X151361280Y-86578503D01*
X150225116Y-86578503D01*
X150264220Y-86484099D01*
X150267356Y-86460277D01*
X150285023Y-86326085D01*
X150285023Y-86326082D01*
X150264221Y-86168075D01*
X150264220Y-86168073D01*
X150264220Y-86168069D01*
X150203228Y-86020823D01*
X150106205Y-85894379D01*
X150106203Y-85894378D01*
X150106203Y-85894377D01*
X149979762Y-85797356D01*
X149979759Y-85797354D01*
X149832518Y-85736365D01*
X149832508Y-85736362D01*
X149674502Y-85715561D01*
X149674498Y-85715561D01*
X149516491Y-85736362D01*
X149516481Y-85736365D01*
X149369241Y-85797354D01*
X149369238Y-85797356D01*
X149242795Y-85894379D01*
X149145772Y-86020822D01*
X149145770Y-86020825D01*
X149084781Y-86168065D01*
X149084778Y-86168075D01*
X149063977Y-86326082D01*
X149063977Y-86326085D01*
X144275727Y-86326085D01*
X144335565Y-86273073D01*
X144429854Y-86136471D01*
X144488713Y-85981274D01*
X144494365Y-85934723D01*
X144508720Y-85816503D01*
X144508720Y-85816496D01*
X144488714Y-85651733D01*
X144488712Y-85651722D01*
X144429855Y-85496532D01*
X144429854Y-85496529D01*
X144335565Y-85359927D01*
X144211324Y-85249859D01*
X144211323Y-85249858D01*
X144064355Y-85172724D01*
X144064354Y-85172723D01*
X144064353Y-85172723D01*
X143955909Y-85145993D01*
X143903193Y-85133000D01*
X143903192Y-85133000D01*
X143737208Y-85133000D01*
X143737206Y-85133000D01*
X143631772Y-85158987D01*
X143576047Y-85172723D01*
X143576046Y-85172723D01*
X143576044Y-85172724D01*
X143429076Y-85249858D01*
X143304836Y-85359925D01*
X143210544Y-85496532D01*
X143151687Y-85651722D01*
X143151685Y-85651733D01*
X143131680Y-85816496D01*
X143131680Y-85816503D01*
X137338401Y-85816503D01*
X137338401Y-85677286D01*
X137337000Y-85663862D01*
X137331973Y-85651726D01*
X137293323Y-85558416D01*
X137293321Y-85558414D01*
X137293320Y-85558410D01*
X137284817Y-85547926D01*
X136766770Y-85029878D01*
X136756290Y-85021380D01*
X136756289Y-85021379D01*
X136681722Y-84990493D01*
X136650838Y-84977700D01*
X136650837Y-84977699D01*
X136650835Y-84977699D01*
X136639780Y-84976546D01*
X136637418Y-84976300D01*
X136637416Y-84976299D01*
X136637407Y-84976299D01*
X135904783Y-84976299D01*
X135891366Y-84977699D01*
X135891354Y-84977702D01*
X135785916Y-85021376D01*
X135785909Y-85021381D01*
X135775428Y-85029881D01*
X135775418Y-85029890D01*
X135257381Y-85547926D01*
X135257376Y-85547932D01*
X135248879Y-85558410D01*
X135205199Y-85663864D01*
X135203799Y-85677285D01*
X135203799Y-86409916D01*
X134798400Y-86409916D01*
X134798401Y-85677286D01*
X134797000Y-85663862D01*
X134791973Y-85651726D01*
X134753323Y-85558416D01*
X134753321Y-85558414D01*
X134753320Y-85558410D01*
X134744817Y-85547926D01*
X134226770Y-85029878D01*
X134216290Y-85021380D01*
X134216289Y-85021379D01*
X134141722Y-84990493D01*
X134110838Y-84977700D01*
X134110837Y-84977699D01*
X134110835Y-84977699D01*
X134099780Y-84976546D01*
X134097418Y-84976300D01*
X134097416Y-84976299D01*
X134097407Y-84976299D01*
X133364783Y-84976299D01*
X133351366Y-84977699D01*
X133351354Y-84977702D01*
X133245916Y-85021376D01*
X133245909Y-85021381D01*
X133235428Y-85029881D01*
X133235418Y-85029890D01*
X132717381Y-85547926D01*
X132717376Y-85547932D01*
X132708879Y-85558410D01*
X132665199Y-85663864D01*
X132663799Y-85677285D01*
X132663799Y-86409916D01*
X131269700Y-86409916D01*
X131269700Y-83869916D01*
X132663799Y-83869916D01*
X132665199Y-83883333D01*
X132665202Y-83883345D01*
X132708876Y-83988783D01*
X132708878Y-83988786D01*
X132708880Y-83988790D01*
X132717383Y-83999274D01*
X133235430Y-84517322D01*
X133245910Y-84525820D01*
X133351362Y-84569500D01*
X133364782Y-84570900D01*
X134097414Y-84570901D01*
X134110838Y-84569500D01*
X134216290Y-84525820D01*
X134226774Y-84517317D01*
X134744822Y-83999270D01*
X134753320Y-83988790D01*
X134797000Y-83883338D01*
X134798400Y-83869918D01*
X134798400Y-83869703D01*
X135205100Y-83869703D01*
X135205101Y-83869725D01*
X135206493Y-83883062D01*
X135206495Y-83883069D01*
X135249984Y-83988062D01*
X135249989Y-83988069D01*
X135258442Y-83998492D01*
X135258451Y-83998502D01*
X135776190Y-84516242D01*
X135776202Y-84516253D01*
X135786631Y-84524713D01*
X135891637Y-84568206D01*
X135891634Y-84568206D01*
X135904999Y-84569600D01*
X136119100Y-84569600D01*
X136119100Y-83992651D01*
X136126508Y-83996035D01*
X136234766Y-84011600D01*
X136307434Y-84011600D01*
X136415692Y-83996035D01*
X136423100Y-83992651D01*
X136423100Y-84569600D01*
X136637204Y-84569600D01*
X136637225Y-84569598D01*
X136650562Y-84568206D01*
X136650569Y-84568204D01*
X136755562Y-84524715D01*
X136755569Y-84524710D01*
X136765992Y-84516257D01*
X136766002Y-84516248D01*
X137283742Y-83998509D01*
X137283753Y-83998497D01*
X137292213Y-83988068D01*
X137335706Y-83883063D01*
X137337100Y-83869700D01*
X137337100Y-83655600D01*
X136755915Y-83655600D01*
X136779100Y-83576639D01*
X136779100Y-83430561D01*
X136763697Y-83378103D01*
X145874880Y-83378103D01*
X145894885Y-83542866D01*
X145894887Y-83542877D01*
X145952682Y-83695266D01*
X145953746Y-83698071D01*
X146044031Y-83828872D01*
X146048036Y-83834674D01*
X146150469Y-83925422D01*
X146172276Y-83944741D01*
X146319247Y-84021877D01*
X146480408Y-84061600D01*
X146646392Y-84061600D01*
X146807553Y-84021877D01*
X146954524Y-83944741D01*
X147078765Y-83834673D01*
X147173054Y-83698071D01*
X147231913Y-83542874D01*
X147233415Y-83530503D01*
X147251920Y-83378103D01*
X147251920Y-83378096D01*
X147231914Y-83213333D01*
X147231912Y-83213322D01*
X147175136Y-83063618D01*
X147173054Y-83058129D01*
X147078765Y-82921527D01*
X147060788Y-82905601D01*
X147319077Y-82905601D01*
X147339878Y-83063608D01*
X147339881Y-83063618D01*
X147400870Y-83210859D01*
X147400872Y-83210862D01*
X147497894Y-83337305D01*
X147594917Y-83411752D01*
X147624338Y-83434328D01*
X147771585Y-83495320D01*
X147771591Y-83495320D01*
X147771592Y-83495321D01*
X147810623Y-83500459D01*
X147886328Y-83510426D01*
X147927755Y-83534343D01*
X147940136Y-83580548D01*
X147928677Y-83667596D01*
X147928677Y-83667602D01*
X147949478Y-83825608D01*
X147949481Y-83825618D01*
X148010470Y-83972859D01*
X148010472Y-83972862D01*
X148107494Y-84099305D01*
X148204517Y-84173752D01*
X148233938Y-84196328D01*
X148381185Y-84257320D01*
X148381189Y-84257320D01*
X148381191Y-84257321D01*
X148539198Y-84278123D01*
X148539200Y-84278123D01*
X148539202Y-84278123D01*
X148697208Y-84257321D01*
X148697208Y-84257320D01*
X148697215Y-84257320D01*
X148844462Y-84196328D01*
X148970905Y-84099305D01*
X149067928Y-83972862D01*
X149128920Y-83825615D01*
X149129325Y-83822537D01*
X149149723Y-83667601D01*
X149149723Y-83667598D01*
X149131674Y-83530503D01*
X154104480Y-83530503D01*
X154124485Y-83695266D01*
X154124487Y-83695277D01*
X154183344Y-83850467D01*
X154183346Y-83850471D01*
X154257725Y-83958228D01*
X154277636Y-83987074D01*
X154401876Y-84097141D01*
X154548847Y-84174277D01*
X154710008Y-84214000D01*
X154875992Y-84214000D01*
X155037153Y-84174277D01*
X155184124Y-84097141D01*
X155308365Y-83987073D01*
X155402654Y-83850471D01*
X155410926Y-83828661D01*
X158485900Y-83828661D01*
X158485901Y-83828683D01*
X158487293Y-83842020D01*
X158487295Y-83842027D01*
X158530784Y-83947020D01*
X158530789Y-83947027D01*
X158539242Y-83957450D01*
X158539251Y-83957460D01*
X159027238Y-84445446D01*
X159027250Y-84445457D01*
X159037673Y-84453912D01*
X159142679Y-84497407D01*
X159156033Y-84498800D01*
X159349100Y-84498800D01*
X159349100Y-83915170D01*
X159432188Y-83940800D01*
X159535360Y-83940800D01*
X159637384Y-83925422D01*
X159653100Y-83917853D01*
X159653100Y-84498800D01*
X159846162Y-84498800D01*
X159846183Y-84498798D01*
X159859520Y-84497406D01*
X159859527Y-84497404D01*
X159964520Y-84453915D01*
X159964527Y-84453910D01*
X159974950Y-84445457D01*
X159974960Y-84445448D01*
X160462946Y-83957461D01*
X160462957Y-83957449D01*
X160471412Y-83947026D01*
X160514907Y-83842020D01*
X160516278Y-83828875D01*
X161024600Y-83828875D01*
X161025205Y-83834673D01*
X161026000Y-83842296D01*
X161069679Y-83947748D01*
X161078176Y-83958225D01*
X161078180Y-83958229D01*
X161566472Y-84446522D01*
X161576952Y-84455020D01*
X161682404Y-84498700D01*
X161695824Y-84500100D01*
X161695827Y-84500100D01*
X162386372Y-84500100D01*
X162386375Y-84500100D01*
X162399796Y-84498700D01*
X162505249Y-84455020D01*
X162515729Y-84446520D01*
X163004022Y-83958228D01*
X163012520Y-83947748D01*
X163056200Y-83842296D01*
X163057600Y-83828876D01*
X163057600Y-83138325D01*
X163056200Y-83124904D01*
X163012520Y-83019451D01*
X163011675Y-83018409D01*
X163004021Y-83008972D01*
X162515731Y-82520681D01*
X162515730Y-82520680D01*
X162515728Y-82520678D01*
X162506613Y-82513287D01*
X162505247Y-82512179D01*
X162430680Y-82481293D01*
X162399796Y-82468500D01*
X162399795Y-82468499D01*
X162399793Y-82468499D01*
X162390573Y-82467537D01*
X162386376Y-82467100D01*
X161695825Y-82467100D01*
X161685759Y-82468150D01*
X161682403Y-82468500D01*
X161576951Y-82512179D01*
X161566472Y-82520678D01*
X161078181Y-83008968D01*
X161078176Y-83008974D01*
X161069679Y-83019452D01*
X161025999Y-83124906D01*
X161025971Y-83125179D01*
X161024600Y-83138324D01*
X161024600Y-83828875D01*
X160516278Y-83828875D01*
X160516300Y-83828666D01*
X160516300Y-83635600D01*
X159935365Y-83635600D01*
X159962171Y-83518153D01*
X159951872Y-83380714D01*
X159932596Y-83331600D01*
X160516300Y-83331600D01*
X160516300Y-83138538D01*
X160516298Y-83138516D01*
X160514906Y-83125179D01*
X160514904Y-83125172D01*
X160471415Y-83020179D01*
X160471410Y-83020172D01*
X160462957Y-83009749D01*
X160462948Y-83009739D01*
X159974961Y-82521753D01*
X159974949Y-82521742D01*
X159964526Y-82513287D01*
X159859520Y-82469792D01*
X159846167Y-82468400D01*
X159653100Y-82468400D01*
X159653100Y-83052029D01*
X159570012Y-83026400D01*
X159466840Y-83026400D01*
X159364816Y-83041778D01*
X159349100Y-83049346D01*
X159349100Y-82468400D01*
X159156038Y-82468400D01*
X159156016Y-82468401D01*
X159142679Y-82469793D01*
X159142672Y-82469795D01*
X159037679Y-82513284D01*
X159037672Y-82513289D01*
X159027249Y-82521742D01*
X159027239Y-82521751D01*
X158539253Y-83009738D01*
X158539242Y-83009750D01*
X158530787Y-83020173D01*
X158487292Y-83125179D01*
X158485900Y-83138533D01*
X158485900Y-83331600D01*
X159066835Y-83331600D01*
X159040029Y-83449047D01*
X159050328Y-83586486D01*
X159069604Y-83635600D01*
X158485900Y-83635600D01*
X158485900Y-83828661D01*
X155410926Y-83828661D01*
X155461513Y-83695274D01*
X155464873Y-83667600D01*
X155481520Y-83530503D01*
X155481520Y-83530496D01*
X155461514Y-83365733D01*
X155461512Y-83365722D01*
X155402655Y-83210532D01*
X155402654Y-83210529D01*
X155308365Y-83073927D01*
X155306018Y-83071848D01*
X155184123Y-82963858D01*
X155037155Y-82886724D01*
X155037154Y-82886723D01*
X155037153Y-82886723D01*
X154928709Y-82859993D01*
X154875993Y-82847000D01*
X154875992Y-82847000D01*
X154710008Y-82847000D01*
X154710006Y-82847000D01*
X154604572Y-82872987D01*
X154548847Y-82886723D01*
X154548846Y-82886723D01*
X154548844Y-82886724D01*
X154401876Y-82963858D01*
X154277636Y-83073925D01*
X154183344Y-83210532D01*
X154124487Y-83365722D01*
X154124485Y-83365733D01*
X154104480Y-83530496D01*
X154104480Y-83530503D01*
X149131674Y-83530503D01*
X149128921Y-83509591D01*
X149128920Y-83509589D01*
X149128920Y-83509585D01*
X149074458Y-83378103D01*
X149067929Y-83362341D01*
X149067927Y-83362338D01*
X148970905Y-83235895D01*
X148970903Y-83235894D01*
X148970903Y-83235893D01*
X148844462Y-83138872D01*
X148844459Y-83138870D01*
X148697218Y-83077881D01*
X148697208Y-83077878D01*
X148582469Y-83062773D01*
X148541042Y-83038856D01*
X148528662Y-82992651D01*
X148540123Y-82905600D01*
X148519320Y-82747585D01*
X148458328Y-82600339D01*
X148361305Y-82473895D01*
X148361303Y-82473894D01*
X148361303Y-82473893D01*
X148234862Y-82376872D01*
X148234859Y-82376870D01*
X148087618Y-82315881D01*
X148087608Y-82315878D01*
X147929602Y-82295077D01*
X147929598Y-82295077D01*
X147771591Y-82315878D01*
X147771581Y-82315881D01*
X147624341Y-82376870D01*
X147624338Y-82376872D01*
X147497895Y-82473895D01*
X147400872Y-82600338D01*
X147400870Y-82600341D01*
X147339881Y-82747581D01*
X147339878Y-82747591D01*
X147319077Y-82905598D01*
X147319077Y-82905601D01*
X147060788Y-82905601D01*
X146954523Y-82811458D01*
X146807555Y-82734324D01*
X146807554Y-82734323D01*
X146807553Y-82734323D01*
X146699109Y-82707593D01*
X146646393Y-82694600D01*
X146646392Y-82694600D01*
X146480408Y-82694600D01*
X146480406Y-82694600D01*
X146374972Y-82720587D01*
X146319247Y-82734323D01*
X146319246Y-82734323D01*
X146319244Y-82734324D01*
X146172276Y-82811458D01*
X146048036Y-82921525D01*
X145953744Y-83058132D01*
X145894887Y-83213322D01*
X145894885Y-83213333D01*
X145874880Y-83378096D01*
X145874880Y-83378103D01*
X136763697Y-83378103D01*
X136755915Y-83351600D01*
X137337100Y-83351600D01*
X137337100Y-83137496D01*
X137337098Y-83137474D01*
X137335706Y-83124137D01*
X137335704Y-83124130D01*
X137292215Y-83019137D01*
X137292210Y-83019130D01*
X137283757Y-83008707D01*
X137283748Y-83008697D01*
X136766009Y-82490957D01*
X136765997Y-82490946D01*
X136755568Y-82482486D01*
X136650562Y-82438993D01*
X136650565Y-82438993D01*
X136637201Y-82437600D01*
X136423100Y-82437600D01*
X136423100Y-83014548D01*
X136415692Y-83011165D01*
X136307434Y-82995600D01*
X136234766Y-82995600D01*
X136126508Y-83011165D01*
X136119100Y-83014548D01*
X136119100Y-82437600D01*
X135904996Y-82437600D01*
X135904974Y-82437601D01*
X135891637Y-82438993D01*
X135891630Y-82438995D01*
X135786637Y-82482484D01*
X135786630Y-82482489D01*
X135776207Y-82490942D01*
X135776197Y-82490951D01*
X135258457Y-83008690D01*
X135258446Y-83008702D01*
X135249986Y-83019131D01*
X135206493Y-83124136D01*
X135205100Y-83137499D01*
X135205100Y-83351600D01*
X135786285Y-83351600D01*
X135763100Y-83430561D01*
X135763100Y-83576639D01*
X135786285Y-83655600D01*
X135205100Y-83655600D01*
X135205100Y-83869703D01*
X134798400Y-83869703D01*
X134798401Y-83137286D01*
X134797000Y-83123862D01*
X134796997Y-83123854D01*
X134753323Y-83018416D01*
X134753321Y-83018414D01*
X134753320Y-83018410D01*
X134744817Y-83007926D01*
X134226770Y-82489878D01*
X134217654Y-82482486D01*
X134216289Y-82481379D01*
X134113964Y-82438995D01*
X134110838Y-82437700D01*
X134110837Y-82437699D01*
X134110835Y-82437699D01*
X134099780Y-82436546D01*
X134097418Y-82436300D01*
X134097416Y-82436299D01*
X134097407Y-82436299D01*
X133364783Y-82436299D01*
X133351366Y-82437699D01*
X133351354Y-82437702D01*
X133245916Y-82481376D01*
X133245909Y-82481381D01*
X133235428Y-82489881D01*
X133235418Y-82489890D01*
X132717381Y-83007926D01*
X132717376Y-83007932D01*
X132708879Y-83018410D01*
X132665199Y-83123864D01*
X132663799Y-83137285D01*
X132663799Y-83869916D01*
X131269700Y-83869916D01*
X131269700Y-81329916D01*
X132663799Y-81329916D01*
X132665199Y-81343333D01*
X132665202Y-81343345D01*
X132708876Y-81448783D01*
X132708878Y-81448786D01*
X132708880Y-81448790D01*
X132717383Y-81459274D01*
X133235430Y-81977322D01*
X133245910Y-81985820D01*
X133351362Y-82029500D01*
X133364782Y-82030900D01*
X134097414Y-82030901D01*
X134110838Y-82029500D01*
X134216290Y-81985820D01*
X134226774Y-81977317D01*
X134744822Y-81459270D01*
X134753320Y-81448790D01*
X134797000Y-81343338D01*
X134798400Y-81329918D01*
X134798400Y-81329916D01*
X135203799Y-81329916D01*
X135205199Y-81343333D01*
X135205202Y-81343345D01*
X135248876Y-81448783D01*
X135248878Y-81448786D01*
X135248880Y-81448790D01*
X135257383Y-81459274D01*
X135775430Y-81977322D01*
X135785910Y-81985820D01*
X135891362Y-82029500D01*
X135904782Y-82030900D01*
X136637414Y-82030901D01*
X136650838Y-82029500D01*
X136756290Y-81985820D01*
X136766774Y-81977317D01*
X137284822Y-81459270D01*
X137293320Y-81448790D01*
X137337000Y-81343338D01*
X137338400Y-81329918D01*
X137338400Y-81288875D01*
X158484600Y-81288875D01*
X158486000Y-81302293D01*
X158486000Y-81302296D01*
X158529679Y-81407748D01*
X158538176Y-81418225D01*
X158538180Y-81418229D01*
X159026472Y-81906522D01*
X159036952Y-81915020D01*
X159142404Y-81958700D01*
X159155824Y-81960100D01*
X159155827Y-81960100D01*
X159846372Y-81960100D01*
X159846375Y-81960100D01*
X159859796Y-81958700D01*
X159965249Y-81915020D01*
X159975729Y-81906520D01*
X160464022Y-81418228D01*
X160472520Y-81407748D01*
X160516200Y-81302296D01*
X160517600Y-81288876D01*
X160517600Y-81288875D01*
X161024600Y-81288875D01*
X161026000Y-81302293D01*
X161026000Y-81302296D01*
X161069679Y-81407748D01*
X161078176Y-81418225D01*
X161078180Y-81418229D01*
X161566472Y-81906522D01*
X161576952Y-81915020D01*
X161682404Y-81958700D01*
X161695824Y-81960100D01*
X161695827Y-81960100D01*
X162386372Y-81960100D01*
X162386375Y-81960100D01*
X162399796Y-81958700D01*
X162505249Y-81915020D01*
X162515729Y-81906520D01*
X163004022Y-81418228D01*
X163012520Y-81407748D01*
X163056200Y-81302296D01*
X163057600Y-81288876D01*
X163057600Y-80598325D01*
X163056200Y-80584904D01*
X163012520Y-80479451D01*
X163011675Y-80478409D01*
X163004021Y-80468972D01*
X162515731Y-79980681D01*
X162515730Y-79980680D01*
X162515728Y-79980678D01*
X162505248Y-79972180D01*
X162505247Y-79972179D01*
X162430680Y-79941293D01*
X162399796Y-79928500D01*
X162399795Y-79928499D01*
X162399793Y-79928499D01*
X162390573Y-79927537D01*
X162386376Y-79927100D01*
X161695825Y-79927100D01*
X161685759Y-79928150D01*
X161682403Y-79928500D01*
X161576951Y-79972179D01*
X161566472Y-79980678D01*
X161078181Y-80468968D01*
X161078176Y-80468974D01*
X161069679Y-80479452D01*
X161025999Y-80584906D01*
X161024996Y-80594523D01*
X161024600Y-80598324D01*
X161024600Y-81288875D01*
X160517600Y-81288875D01*
X160517600Y-80598325D01*
X160516200Y-80584904D01*
X160472520Y-80479451D01*
X160471675Y-80478409D01*
X160464021Y-80468972D01*
X159975731Y-79980681D01*
X159975730Y-79980680D01*
X159975728Y-79980678D01*
X159965248Y-79972180D01*
X159965247Y-79972179D01*
X159890680Y-79941293D01*
X159859796Y-79928500D01*
X159859795Y-79928499D01*
X159859793Y-79928499D01*
X159850573Y-79927537D01*
X159846376Y-79927100D01*
X159155825Y-79927100D01*
X159145759Y-79928150D01*
X159142403Y-79928500D01*
X159036951Y-79972179D01*
X159026472Y-79980678D01*
X158538181Y-80468968D01*
X158538176Y-80468974D01*
X158529679Y-80479452D01*
X158485999Y-80584906D01*
X158484996Y-80594523D01*
X158484600Y-80598324D01*
X158484600Y-81288875D01*
X137338400Y-81288875D01*
X137338401Y-80597286D01*
X137337000Y-80583862D01*
X137293752Y-80479452D01*
X137293323Y-80478416D01*
X137293321Y-80478414D01*
X137293320Y-80478410D01*
X137284817Y-80467926D01*
X136766770Y-79949878D01*
X136756290Y-79941380D01*
X136756289Y-79941379D01*
X136681722Y-79910493D01*
X136650838Y-79897700D01*
X136650837Y-79897699D01*
X136650835Y-79897699D01*
X136639780Y-79896546D01*
X136637418Y-79896300D01*
X136637416Y-79896299D01*
X136637407Y-79896299D01*
X135904783Y-79896299D01*
X135891366Y-79897699D01*
X135891354Y-79897702D01*
X135785916Y-79941376D01*
X135785909Y-79941381D01*
X135775428Y-79949881D01*
X135775418Y-79949890D01*
X135257381Y-80467926D01*
X135257376Y-80467932D01*
X135248879Y-80478410D01*
X135205199Y-80583864D01*
X135203799Y-80597285D01*
X135203799Y-81329916D01*
X134798400Y-81329916D01*
X134798401Y-80597286D01*
X134797000Y-80583862D01*
X134753752Y-80479452D01*
X134753323Y-80478416D01*
X134753321Y-80478414D01*
X134753320Y-80478410D01*
X134744817Y-80467926D01*
X134226770Y-79949878D01*
X134216290Y-79941380D01*
X134216289Y-79941379D01*
X134141722Y-79910493D01*
X134110838Y-79897700D01*
X134110837Y-79897699D01*
X134110835Y-79897699D01*
X134099780Y-79896546D01*
X134097418Y-79896300D01*
X134097416Y-79896299D01*
X134097407Y-79896299D01*
X133364783Y-79896299D01*
X133351366Y-79897699D01*
X133351354Y-79897702D01*
X133245916Y-79941376D01*
X133245909Y-79941381D01*
X133235428Y-79949881D01*
X133235418Y-79949890D01*
X132717381Y-80467926D01*
X132717376Y-80467932D01*
X132708879Y-80478410D01*
X132665199Y-80583864D01*
X132663799Y-80597285D01*
X132663799Y-81329916D01*
X131269700Y-81329916D01*
X131269700Y-78789916D01*
X132663799Y-78789916D01*
X132665199Y-78803333D01*
X132665202Y-78803345D01*
X132708876Y-78908783D01*
X132708878Y-78908786D01*
X132708880Y-78908790D01*
X132717383Y-78919274D01*
X133235430Y-79437322D01*
X133245910Y-79445820D01*
X133351362Y-79489500D01*
X133364782Y-79490900D01*
X134097414Y-79490901D01*
X134110838Y-79489500D01*
X134163564Y-79467660D01*
X134216283Y-79445823D01*
X134216283Y-79445822D01*
X134216290Y-79445820D01*
X134226774Y-79437317D01*
X134744822Y-78919270D01*
X134753320Y-78908790D01*
X134797000Y-78803338D01*
X134798400Y-78789918D01*
X134798400Y-78789916D01*
X135203799Y-78789916D01*
X135205199Y-78803333D01*
X135205202Y-78803345D01*
X135248876Y-78908783D01*
X135248878Y-78908786D01*
X135248880Y-78908790D01*
X135257383Y-78919274D01*
X135775430Y-79437322D01*
X135785910Y-79445820D01*
X135891362Y-79489500D01*
X135904782Y-79490900D01*
X136637414Y-79490901D01*
X136650838Y-79489500D01*
X136703564Y-79467660D01*
X136756283Y-79445823D01*
X136756283Y-79445822D01*
X136756290Y-79445820D01*
X136766774Y-79437317D01*
X137284822Y-78919270D01*
X137293320Y-78908790D01*
X137304291Y-78882303D01*
X154180680Y-78882303D01*
X154200685Y-79047066D01*
X154200687Y-79047077D01*
X154259544Y-79202267D01*
X154259546Y-79202271D01*
X154353835Y-79338873D01*
X154478076Y-79448941D01*
X154625047Y-79526077D01*
X154786208Y-79565800D01*
X154952192Y-79565800D01*
X155113353Y-79526077D01*
X155260324Y-79448941D01*
X155384565Y-79338873D01*
X155478854Y-79202271D01*
X155537713Y-79047074D01*
X155553231Y-78919270D01*
X155557720Y-78882303D01*
X155557720Y-78882296D01*
X155541520Y-78748875D01*
X158484600Y-78748875D01*
X158486000Y-78762293D01*
X158486000Y-78762296D01*
X158529679Y-78867748D01*
X158538176Y-78878225D01*
X158538180Y-78878229D01*
X159026472Y-79366522D01*
X159036952Y-79375020D01*
X159142404Y-79418700D01*
X159155824Y-79420100D01*
X159155827Y-79420100D01*
X159846372Y-79420100D01*
X159846375Y-79420100D01*
X159859796Y-79418700D01*
X159965249Y-79375020D01*
X159975729Y-79366520D01*
X160464022Y-78878228D01*
X160472520Y-78867748D01*
X160516200Y-78762296D01*
X160517600Y-78748876D01*
X160517600Y-78748875D01*
X161024600Y-78748875D01*
X161026000Y-78762293D01*
X161026000Y-78762296D01*
X161069679Y-78867748D01*
X161078176Y-78878225D01*
X161078180Y-78878229D01*
X161566472Y-79366522D01*
X161576952Y-79375020D01*
X161682404Y-79418700D01*
X161695824Y-79420100D01*
X161695827Y-79420100D01*
X162386372Y-79420100D01*
X162386375Y-79420100D01*
X162399796Y-79418700D01*
X162505249Y-79375020D01*
X162515729Y-79366520D01*
X163004022Y-78878228D01*
X163012520Y-78867748D01*
X163056200Y-78762296D01*
X163057600Y-78748876D01*
X163057600Y-78058325D01*
X163056200Y-78044904D01*
X163012520Y-77939451D01*
X163011675Y-77938409D01*
X163004021Y-77928972D01*
X162515731Y-77440681D01*
X162515730Y-77440680D01*
X162515728Y-77440678D01*
X162505248Y-77432180D01*
X162505247Y-77432179D01*
X162430680Y-77401293D01*
X162399796Y-77388500D01*
X162399795Y-77388499D01*
X162399793Y-77388499D01*
X162390573Y-77387537D01*
X162386376Y-77387100D01*
X161695825Y-77387100D01*
X161685759Y-77388150D01*
X161682403Y-77388500D01*
X161576951Y-77432179D01*
X161566472Y-77440678D01*
X161078181Y-77928968D01*
X161078176Y-77928974D01*
X161069679Y-77939452D01*
X161025999Y-78044906D01*
X161024996Y-78054523D01*
X161024600Y-78058324D01*
X161024600Y-78748875D01*
X160517600Y-78748875D01*
X160517600Y-78058325D01*
X160516200Y-78044904D01*
X160472520Y-77939451D01*
X160471675Y-77938409D01*
X160464021Y-77928972D01*
X159975731Y-77440681D01*
X159975730Y-77440680D01*
X159975728Y-77440678D01*
X159965248Y-77432180D01*
X159965247Y-77432179D01*
X159890680Y-77401293D01*
X159859796Y-77388500D01*
X159859795Y-77388499D01*
X159859793Y-77388499D01*
X159850573Y-77387537D01*
X159846376Y-77387100D01*
X159155825Y-77387100D01*
X159145759Y-77388150D01*
X159142403Y-77388500D01*
X159036951Y-77432179D01*
X159026472Y-77440678D01*
X158538181Y-77928968D01*
X158538176Y-77928974D01*
X158529679Y-77939452D01*
X158485999Y-78044906D01*
X158484996Y-78054523D01*
X158484600Y-78058324D01*
X158484600Y-78748875D01*
X155541520Y-78748875D01*
X155537714Y-78717533D01*
X155537712Y-78717522D01*
X155478855Y-78562332D01*
X155478854Y-78562329D01*
X155384565Y-78425727D01*
X155260324Y-78315659D01*
X155260323Y-78315658D01*
X155113355Y-78238524D01*
X155113354Y-78238523D01*
X155113353Y-78238523D01*
X155004909Y-78211793D01*
X154952193Y-78198800D01*
X154952192Y-78198800D01*
X154786208Y-78198800D01*
X154786206Y-78198800D01*
X154680772Y-78224787D01*
X154625047Y-78238523D01*
X154625046Y-78238523D01*
X154625044Y-78238524D01*
X154478076Y-78315658D01*
X154353836Y-78425725D01*
X154259544Y-78562332D01*
X154200687Y-78717522D01*
X154200685Y-78717533D01*
X154180680Y-78882296D01*
X154180680Y-78882303D01*
X137304291Y-78882303D01*
X137337000Y-78803338D01*
X137338400Y-78789918D01*
X137338401Y-78057286D01*
X137337000Y-78043862D01*
X137293752Y-77939452D01*
X137293323Y-77938416D01*
X137293321Y-77938414D01*
X137293320Y-77938410D01*
X137284817Y-77927926D01*
X136766770Y-77409878D01*
X136756290Y-77401380D01*
X136756289Y-77401379D01*
X136681722Y-77370493D01*
X136650838Y-77357700D01*
X136650837Y-77357699D01*
X136650835Y-77357699D01*
X136639780Y-77356546D01*
X136637418Y-77356300D01*
X136637416Y-77356299D01*
X136637407Y-77356299D01*
X135904783Y-77356299D01*
X135891366Y-77357699D01*
X135891354Y-77357702D01*
X135785916Y-77401376D01*
X135785909Y-77401381D01*
X135775428Y-77409881D01*
X135775418Y-77409890D01*
X135257381Y-77927926D01*
X135257376Y-77927932D01*
X135248879Y-77938410D01*
X135205199Y-78043864D01*
X135203799Y-78057285D01*
X135203799Y-78789916D01*
X134798400Y-78789916D01*
X134798401Y-78057286D01*
X134797000Y-78043862D01*
X134753752Y-77939452D01*
X134753323Y-77938416D01*
X134753321Y-77938414D01*
X134753320Y-77938410D01*
X134744817Y-77927926D01*
X134226770Y-77409878D01*
X134216290Y-77401380D01*
X134216289Y-77401379D01*
X134141722Y-77370493D01*
X134110838Y-77357700D01*
X134110837Y-77357699D01*
X134110835Y-77357699D01*
X134099780Y-77356546D01*
X134097418Y-77356300D01*
X134097416Y-77356299D01*
X134097407Y-77356299D01*
X133364783Y-77356299D01*
X133351366Y-77357699D01*
X133351354Y-77357702D01*
X133245916Y-77401376D01*
X133245909Y-77401381D01*
X133235428Y-77409881D01*
X133235418Y-77409890D01*
X132717381Y-77927926D01*
X132717376Y-77927932D01*
X132708879Y-77938410D01*
X132665199Y-78043864D01*
X132663799Y-78057285D01*
X132663799Y-78789916D01*
X131269700Y-78789916D01*
X131269700Y-77205903D01*
X154180680Y-77205903D01*
X154200685Y-77370666D01*
X154200687Y-77370677D01*
X154227237Y-77440681D01*
X154259546Y-77525871D01*
X154353835Y-77662473D01*
X154478076Y-77772541D01*
X154625047Y-77849677D01*
X154786208Y-77889400D01*
X154952192Y-77889400D01*
X155113353Y-77849677D01*
X155260324Y-77772541D01*
X155384565Y-77662473D01*
X155478854Y-77525871D01*
X155537713Y-77370674D01*
X155557720Y-77205900D01*
X155537713Y-77041126D01*
X155537712Y-77041124D01*
X155537712Y-77041122D01*
X155478855Y-76885932D01*
X155478854Y-76885929D01*
X155384565Y-76749327D01*
X155260324Y-76639259D01*
X155260323Y-76639258D01*
X155113355Y-76562124D01*
X155113354Y-76562123D01*
X155113353Y-76562123D01*
X155004909Y-76535393D01*
X154952193Y-76522400D01*
X154952192Y-76522400D01*
X154786208Y-76522400D01*
X154786206Y-76522400D01*
X154680772Y-76548387D01*
X154625047Y-76562123D01*
X154625046Y-76562123D01*
X154625044Y-76562124D01*
X154478076Y-76639258D01*
X154353836Y-76749325D01*
X154259544Y-76885932D01*
X154200687Y-77041122D01*
X154200685Y-77041133D01*
X154180680Y-77205896D01*
X154180680Y-77205903D01*
X131269700Y-77205903D01*
X131269700Y-75605703D01*
X139245480Y-75605703D01*
X139265485Y-75770466D01*
X139265487Y-75770477D01*
X139324344Y-75925667D01*
X139324346Y-75925671D01*
X139418635Y-76062273D01*
X139542876Y-76172341D01*
X139689847Y-76249477D01*
X139851008Y-76289200D01*
X140016992Y-76289200D01*
X140178153Y-76249477D01*
X140325124Y-76172341D01*
X140449365Y-76062273D01*
X140543654Y-75925671D01*
X140602513Y-75770474D01*
X140622520Y-75605700D01*
X140602513Y-75440926D01*
X140602512Y-75440924D01*
X140602512Y-75440922D01*
X140543655Y-75285732D01*
X140543654Y-75285729D01*
X140449365Y-75149127D01*
X140362649Y-75072303D01*
X145570080Y-75072303D01*
X145590085Y-75237066D01*
X145590087Y-75237077D01*
X145648944Y-75392267D01*
X145648946Y-75392271D01*
X145743235Y-75528873D01*
X145867476Y-75638941D01*
X146014447Y-75716077D01*
X146175608Y-75755800D01*
X146341592Y-75755800D01*
X146502753Y-75716077D01*
X146649724Y-75638941D01*
X146773965Y-75528873D01*
X146868254Y-75392271D01*
X146927113Y-75237074D01*
X146927114Y-75237066D01*
X146947120Y-75072303D01*
X146947120Y-75072296D01*
X146927114Y-74907533D01*
X146927112Y-74907522D01*
X146874009Y-74767503D01*
X151589880Y-74767503D01*
X151609885Y-74932266D01*
X151609887Y-74932277D01*
X151662992Y-75072300D01*
X151668746Y-75087471D01*
X151763035Y-75224073D01*
X151887276Y-75334141D01*
X152034247Y-75411277D01*
X152195408Y-75451000D01*
X152361392Y-75451000D01*
X152522553Y-75411277D01*
X152669524Y-75334141D01*
X152793765Y-75224073D01*
X152888054Y-75087471D01*
X152946913Y-74932274D01*
X152966920Y-74767500D01*
X152965078Y-74752332D01*
X152946914Y-74602733D01*
X152946912Y-74602722D01*
X152888055Y-74447532D01*
X152888054Y-74447529D01*
X152793765Y-74310927D01*
X152669524Y-74200859D01*
X152669523Y-74200858D01*
X152522555Y-74123724D01*
X152522554Y-74123723D01*
X152522553Y-74123723D01*
X152414109Y-74096993D01*
X152361393Y-74084000D01*
X152361392Y-74084000D01*
X152195408Y-74084000D01*
X152195406Y-74084000D01*
X152089972Y-74109987D01*
X152034247Y-74123723D01*
X152034246Y-74123723D01*
X152034244Y-74123724D01*
X151887276Y-74200858D01*
X151763036Y-74310925D01*
X151668744Y-74447532D01*
X151609887Y-74602722D01*
X151609885Y-74602733D01*
X151589880Y-74767496D01*
X151589880Y-74767503D01*
X146874009Y-74767503D01*
X146868255Y-74752332D01*
X146868254Y-74752329D01*
X146773965Y-74615727D01*
X146759285Y-74602722D01*
X146649723Y-74505658D01*
X146502755Y-74428524D01*
X146502754Y-74428523D01*
X146502753Y-74428523D01*
X146394309Y-74401793D01*
X146341593Y-74388800D01*
X146341592Y-74388800D01*
X146175608Y-74388800D01*
X146175606Y-74388800D01*
X146070172Y-74414787D01*
X146014447Y-74428523D01*
X146014446Y-74428523D01*
X146014444Y-74428524D01*
X145867476Y-74505658D01*
X145743236Y-74615725D01*
X145648944Y-74752332D01*
X145590087Y-74907522D01*
X145590085Y-74907533D01*
X145570080Y-75072296D01*
X145570080Y-75072303D01*
X140362649Y-75072303D01*
X140325124Y-75039059D01*
X140325123Y-75039058D01*
X140178155Y-74961924D01*
X140178154Y-74961923D01*
X140178153Y-74961923D01*
X140057876Y-74932277D01*
X140016993Y-74922200D01*
X140016992Y-74922200D01*
X139851008Y-74922200D01*
X139851006Y-74922200D01*
X139745572Y-74948187D01*
X139689847Y-74961923D01*
X139689846Y-74961923D01*
X139689844Y-74961924D01*
X139542876Y-75039058D01*
X139418636Y-75149125D01*
X139324344Y-75285732D01*
X139265487Y-75440922D01*
X139265485Y-75440933D01*
X139245480Y-75605696D01*
X139245480Y-75605703D01*
X131269700Y-75605703D01*
X131269700Y-71719503D01*
X159057480Y-71719503D01*
X159077485Y-71884266D01*
X159077487Y-71884277D01*
X159136344Y-72039467D01*
X159136346Y-72039471D01*
X159230635Y-72176073D01*
X159354876Y-72286141D01*
X159501847Y-72363277D01*
X159663008Y-72403000D01*
X159828992Y-72403000D01*
X159990153Y-72363277D01*
X160137124Y-72286141D01*
X160261365Y-72176073D01*
X160355654Y-72039471D01*
X160414513Y-71884274D01*
X160434520Y-71719500D01*
X160414513Y-71554726D01*
X160414512Y-71554724D01*
X160414512Y-71554722D01*
X160355655Y-71399532D01*
X160355654Y-71399529D01*
X160261365Y-71262927D01*
X160137124Y-71152859D01*
X160137123Y-71152858D01*
X159990155Y-71075724D01*
X159990154Y-71075723D01*
X159990153Y-71075723D01*
X159881709Y-71048993D01*
X159828993Y-71036000D01*
X159828992Y-71036000D01*
X159663008Y-71036000D01*
X159663006Y-71036000D01*
X159557572Y-71061987D01*
X159501847Y-71075723D01*
X159501846Y-71075723D01*
X159501844Y-71075724D01*
X159354876Y-71152858D01*
X159230636Y-71262925D01*
X159136344Y-71399532D01*
X159077487Y-71554722D01*
X159077485Y-71554733D01*
X159057480Y-71719496D01*
X159057480Y-71719503D01*
X131269700Y-71719503D01*
X131269700Y-67493340D01*
X143968100Y-67493340D01*
X143983046Y-67645101D01*
X144042116Y-67839826D01*
X144138032Y-68019275D01*
X144138036Y-68019281D01*
X144267125Y-68176574D01*
X144424418Y-68305663D01*
X144424424Y-68305667D01*
X144603873Y-68401583D01*
X144798598Y-68460652D01*
X144798600Y-68460653D01*
X144849100Y-68465626D01*
X144849100Y-67166373D01*
X144865901Y-67174046D01*
X144967125Y-67188600D01*
X145035075Y-67188600D01*
X145136299Y-67174046D01*
X145153100Y-67166373D01*
X145153100Y-68465626D01*
X145203599Y-68460653D01*
X145203601Y-68460652D01*
X145398326Y-68401583D01*
X145577775Y-68305667D01*
X145577781Y-68305663D01*
X145735074Y-68176574D01*
X145864163Y-68019281D01*
X145864167Y-68019275D01*
X145960083Y-67839826D01*
X146019153Y-67645101D01*
X146034093Y-67493412D01*
X146466800Y-67493412D01*
X146481764Y-67645354D01*
X146481765Y-67645359D01*
X146540755Y-67839826D01*
X146540907Y-67840325D01*
X146584980Y-67922780D01*
X146636945Y-68020001D01*
X146636949Y-68020007D01*
X146766200Y-68177500D01*
X146923693Y-68306751D01*
X146923695Y-68306752D01*
X146923698Y-68306754D01*
X146963845Y-68328212D01*
X147103375Y-68402793D01*
X147298342Y-68461935D01*
X147501100Y-68481905D01*
X147703858Y-68461935D01*
X147898825Y-68402793D01*
X148078507Y-68306751D01*
X148236000Y-68177500D01*
X148365251Y-68020007D01*
X148445980Y-67868974D01*
X148482957Y-67838627D01*
X148530562Y-67843316D01*
X148556220Y-67868974D01*
X148636945Y-68020001D01*
X148636949Y-68020007D01*
X148766200Y-68177500D01*
X148923693Y-68306751D01*
X148923695Y-68306752D01*
X148923698Y-68306754D01*
X148963845Y-68328212D01*
X149103375Y-68402793D01*
X149298342Y-68461935D01*
X149501100Y-68481905D01*
X149703858Y-68461935D01*
X149898825Y-68402793D01*
X150078507Y-68306751D01*
X150236000Y-68177500D01*
X150365251Y-68020007D01*
X150461293Y-67840325D01*
X150520435Y-67645358D01*
X150535400Y-67493416D01*
X150535400Y-67493412D01*
X150966800Y-67493412D01*
X150981764Y-67645354D01*
X150981765Y-67645359D01*
X151040755Y-67839826D01*
X151040907Y-67840325D01*
X151084980Y-67922780D01*
X151136945Y-68020001D01*
X151136949Y-68020007D01*
X151266200Y-68177500D01*
X151423693Y-68306751D01*
X151423695Y-68306752D01*
X151423698Y-68306754D01*
X151463845Y-68328212D01*
X151603375Y-68402793D01*
X151798342Y-68461935D01*
X152001100Y-68481905D01*
X152203858Y-68461935D01*
X152398825Y-68402793D01*
X152578507Y-68306751D01*
X152736000Y-68177500D01*
X152865251Y-68020007D01*
X152961293Y-67840325D01*
X153020435Y-67645358D01*
X153035400Y-67493416D01*
X153035400Y-65933784D01*
X153020435Y-65781842D01*
X152961293Y-65586875D01*
X152865251Y-65407193D01*
X152736000Y-65249700D01*
X152578507Y-65120449D01*
X152578501Y-65120445D01*
X152481280Y-65068480D01*
X152398825Y-65024407D01*
X152398822Y-65024406D01*
X152398820Y-65024405D01*
X152203859Y-64965265D01*
X152203854Y-64965264D01*
X152001100Y-64945295D01*
X151798345Y-64965264D01*
X151798340Y-64965265D01*
X151603379Y-65024405D01*
X151423698Y-65120445D01*
X151423692Y-65120449D01*
X151266200Y-65249700D01*
X151136949Y-65407192D01*
X151136945Y-65407198D01*
X151040905Y-65586879D01*
X150981765Y-65781840D01*
X150981764Y-65781845D01*
X150966800Y-65933787D01*
X150966800Y-67493412D01*
X150535400Y-67493412D01*
X150535400Y-65933784D01*
X150520435Y-65781842D01*
X150461293Y-65586875D01*
X150365251Y-65407193D01*
X150236000Y-65249700D01*
X150078507Y-65120449D01*
X150078501Y-65120445D01*
X149981280Y-65068480D01*
X149898825Y-65024407D01*
X149898822Y-65024406D01*
X149898820Y-65024405D01*
X149703859Y-64965265D01*
X149703854Y-64965264D01*
X149501100Y-64945295D01*
X149298345Y-64965264D01*
X149298340Y-64965265D01*
X149103379Y-65024405D01*
X148923698Y-65120445D01*
X148923692Y-65120449D01*
X148766200Y-65249700D01*
X148636949Y-65407192D01*
X148636945Y-65407198D01*
X148556220Y-65558226D01*
X148519243Y-65588573D01*
X148471638Y-65583884D01*
X148445980Y-65558226D01*
X148365254Y-65407198D01*
X148365250Y-65407192D01*
X148236000Y-65249700D01*
X148078507Y-65120449D01*
X148078501Y-65120445D01*
X147981280Y-65068480D01*
X147898825Y-65024407D01*
X147898822Y-65024406D01*
X147898820Y-65024405D01*
X147703859Y-64965265D01*
X147703854Y-64965264D01*
X147501100Y-64945295D01*
X147298345Y-64965264D01*
X147298340Y-64965265D01*
X147103379Y-65024405D01*
X146923698Y-65120445D01*
X146923692Y-65120449D01*
X146766200Y-65249700D01*
X146636949Y-65407192D01*
X146636945Y-65407198D01*
X146540905Y-65586879D01*
X146481765Y-65781840D01*
X146481764Y-65781845D01*
X146466800Y-65933787D01*
X146466800Y-67493412D01*
X146034093Y-67493412D01*
X146034100Y-67493340D01*
X146034100Y-66865600D01*
X145451522Y-66865600D01*
X145476100Y-66781895D01*
X145476100Y-66645305D01*
X145451522Y-66561600D01*
X146034100Y-66561600D01*
X146034100Y-65933859D01*
X146019153Y-65782098D01*
X145960083Y-65587373D01*
X145864167Y-65407924D01*
X145864163Y-65407918D01*
X145735074Y-65250625D01*
X145577781Y-65121536D01*
X145577775Y-65121532D01*
X145398326Y-65025616D01*
X145203602Y-64966547D01*
X145203600Y-64966546D01*
X145153100Y-64961571D01*
X145153100Y-66260826D01*
X145136299Y-66253154D01*
X145035075Y-66238600D01*
X144967125Y-66238600D01*
X144865901Y-66253154D01*
X144849100Y-66260826D01*
X144849100Y-64961572D01*
X144849099Y-64961571D01*
X144798599Y-64966546D01*
X144798597Y-64966547D01*
X144603873Y-65025616D01*
X144424424Y-65121532D01*
X144424418Y-65121536D01*
X144267125Y-65250625D01*
X144138036Y-65407918D01*
X144138032Y-65407924D01*
X144042116Y-65587373D01*
X143983046Y-65782098D01*
X143968100Y-65933859D01*
X143968100Y-66561600D01*
X144550678Y-66561600D01*
X144526100Y-66645305D01*
X144526100Y-66781895D01*
X144550678Y-66865600D01*
X143968100Y-66865600D01*
X143968100Y-67493340D01*
X131269700Y-67493340D01*
X131269700Y-64003603D01*
X140170878Y-64003603D01*
X140190538Y-64265946D01*
X140190538Y-64265948D01*
X140249077Y-64522428D01*
X140249080Y-64522435D01*
X140345195Y-64767332D01*
X140476736Y-64995168D01*
X140476738Y-64995171D01*
X140476742Y-64995177D01*
X140640759Y-65200847D01*
X140640762Y-65200850D01*
X140640766Y-65200855D01*
X140833620Y-65379797D01*
X140833625Y-65379800D01*
X140833628Y-65379803D01*
X140970924Y-65473409D01*
X141050989Y-65527997D01*
X141288019Y-65642144D01*
X141288024Y-65642145D01*
X141288027Y-65642147D01*
X141539406Y-65719688D01*
X141539409Y-65719688D01*
X141539414Y-65719690D01*
X141799558Y-65758900D01*
X141799564Y-65758900D01*
X142062636Y-65758900D01*
X142062642Y-65758900D01*
X142322786Y-65719690D01*
X142322791Y-65719688D01*
X142322794Y-65719688D01*
X142574172Y-65642147D01*
X142574173Y-65642146D01*
X142574181Y-65642144D01*
X142811211Y-65527997D01*
X143028580Y-65379797D01*
X143221434Y-65200855D01*
X143385464Y-64995168D01*
X143517005Y-64767332D01*
X143613120Y-64522435D01*
X143671662Y-64265947D01*
X143691322Y-64003603D01*
X153310878Y-64003603D01*
X153330538Y-64265946D01*
X153330538Y-64265948D01*
X153389077Y-64522428D01*
X153389080Y-64522435D01*
X153485195Y-64767332D01*
X153616736Y-64995168D01*
X153616738Y-64995171D01*
X153616742Y-64995177D01*
X153780759Y-65200847D01*
X153780762Y-65200850D01*
X153780766Y-65200855D01*
X153973620Y-65379797D01*
X153973625Y-65379800D01*
X153973628Y-65379803D01*
X154110924Y-65473409D01*
X154190989Y-65527997D01*
X154428019Y-65642144D01*
X154428024Y-65642145D01*
X154428027Y-65642147D01*
X154679406Y-65719688D01*
X154679409Y-65719688D01*
X154679414Y-65719690D01*
X154939558Y-65758900D01*
X154939564Y-65758900D01*
X155202636Y-65758900D01*
X155202642Y-65758900D01*
X155462786Y-65719690D01*
X155462791Y-65719688D01*
X155462794Y-65719688D01*
X155714172Y-65642147D01*
X155714173Y-65642146D01*
X155714181Y-65642144D01*
X155951211Y-65527997D01*
X156168580Y-65379797D01*
X156361434Y-65200855D01*
X156525464Y-64995168D01*
X156657005Y-64767332D01*
X156753120Y-64522435D01*
X156811662Y-64265947D01*
X156831322Y-64003600D01*
X156811662Y-63741253D01*
X156784560Y-63622516D01*
X156753122Y-63484771D01*
X156753120Y-63484765D01*
X156657005Y-63239868D01*
X156525464Y-63012032D01*
X156525459Y-63012026D01*
X156525457Y-63012022D01*
X156361440Y-62806352D01*
X156361437Y-62806349D01*
X156361434Y-62806345D01*
X156168580Y-62627403D01*
X156168574Y-62627399D01*
X156168571Y-62627396D01*
X155951211Y-62479203D01*
X155714181Y-62365056D01*
X155714178Y-62365055D01*
X155714176Y-62365054D01*
X155714172Y-62365052D01*
X155462793Y-62287511D01*
X155462794Y-62287511D01*
X155312625Y-62264877D01*
X155202642Y-62248300D01*
X154939558Y-62248300D01*
X154679405Y-62287511D01*
X154428027Y-62365052D01*
X154428023Y-62365054D01*
X154190988Y-62479203D01*
X153973628Y-62627396D01*
X153780764Y-62806347D01*
X153780759Y-62806352D01*
X153616742Y-63012022D01*
X153485196Y-63239865D01*
X153389077Y-63484771D01*
X153330538Y-63741251D01*
X153330538Y-63741253D01*
X153310878Y-64003596D01*
X153310878Y-64003603D01*
X143691322Y-64003603D01*
X143691322Y-64003600D01*
X143671662Y-63741253D01*
X143644560Y-63622516D01*
X143613122Y-63484771D01*
X143613120Y-63484765D01*
X143517005Y-63239868D01*
X143385464Y-63012032D01*
X143385459Y-63012026D01*
X143385457Y-63012022D01*
X143221440Y-62806352D01*
X143221437Y-62806349D01*
X143221434Y-62806345D01*
X143028580Y-62627403D01*
X143028574Y-62627399D01*
X143028571Y-62627396D01*
X142811211Y-62479203D01*
X142574181Y-62365056D01*
X142574178Y-62365055D01*
X142574176Y-62365054D01*
X142574172Y-62365052D01*
X142322793Y-62287511D01*
X142322794Y-62287511D01*
X142172625Y-62264877D01*
X142062642Y-62248300D01*
X141799558Y-62248300D01*
X141539405Y-62287511D01*
X141288027Y-62365052D01*
X141288023Y-62365054D01*
X141050988Y-62479203D01*
X140833628Y-62627396D01*
X140640764Y-62806347D01*
X140640759Y-62806352D01*
X140476742Y-63012022D01*
X140345196Y-63239865D01*
X140249077Y-63484771D01*
X140190538Y-63741251D01*
X140190538Y-63741253D01*
X140170878Y-64003596D01*
X140170878Y-64003603D01*
X131269700Y-64003603D01*
X131269700Y-59756103D01*
X156847680Y-59756103D01*
X156867685Y-59920866D01*
X156867687Y-59920877D01*
X156926544Y-60076067D01*
X156926546Y-60076071D01*
X157020835Y-60212673D01*
X157145076Y-60322741D01*
X157292047Y-60399877D01*
X157453208Y-60439600D01*
X157619192Y-60439600D01*
X157780353Y-60399877D01*
X157927324Y-60322741D01*
X158051565Y-60212673D01*
X158145854Y-60076071D01*
X158204713Y-59920874D01*
X158224720Y-59756100D01*
X158204713Y-59591326D01*
X158204712Y-59591324D01*
X158204712Y-59591322D01*
X158145855Y-59436132D01*
X158145854Y-59436129D01*
X158051565Y-59299527D01*
X157927324Y-59189459D01*
X157927323Y-59189458D01*
X157780355Y-59112324D01*
X157780354Y-59112323D01*
X157780353Y-59112323D01*
X157671909Y-59085593D01*
X157619193Y-59072600D01*
X157619192Y-59072600D01*
X157453208Y-59072600D01*
X157453206Y-59072600D01*
X157347772Y-59098587D01*
X157292047Y-59112323D01*
X157292046Y-59112323D01*
X157292044Y-59112324D01*
X157145076Y-59189458D01*
X157020836Y-59299525D01*
X156926544Y-59436132D01*
X156867687Y-59591322D01*
X156867685Y-59591333D01*
X156847680Y-59756096D01*
X156847680Y-59756103D01*
X131269700Y-59756103D01*
X131269700Y-57622503D01*
X161953080Y-57622503D01*
X161973085Y-57787266D01*
X161973087Y-57787277D01*
X162031944Y-57942467D01*
X162031946Y-57942471D01*
X162126235Y-58079073D01*
X162250476Y-58189141D01*
X162397447Y-58266277D01*
X162558608Y-58306000D01*
X162724592Y-58306000D01*
X162885753Y-58266277D01*
X163032724Y-58189141D01*
X163156965Y-58079073D01*
X163251254Y-57942471D01*
X163310113Y-57787274D01*
X163330120Y-57622500D01*
X163310113Y-57457726D01*
X163310112Y-57457724D01*
X163310112Y-57457722D01*
X163251255Y-57302532D01*
X163251254Y-57302529D01*
X163156965Y-57165927D01*
X163032724Y-57055859D01*
X163032723Y-57055858D01*
X162885755Y-56978724D01*
X162885754Y-56978723D01*
X162885753Y-56978723D01*
X162777309Y-56951993D01*
X162724593Y-56939000D01*
X162724592Y-56939000D01*
X162558608Y-56939000D01*
X162558606Y-56939000D01*
X162453172Y-56964987D01*
X162397447Y-56978723D01*
X162397446Y-56978723D01*
X162397444Y-56978724D01*
X162250476Y-57055858D01*
X162126236Y-57165925D01*
X162031944Y-57302532D01*
X161973087Y-57457722D01*
X161973085Y-57457733D01*
X161953080Y-57622496D01*
X161953080Y-57622503D01*
X131269700Y-57622503D01*
X131269700Y-55104700D01*
X131288006Y-55060506D01*
X131332200Y-55042200D01*
X165670000Y-55042200D01*
X165714194Y-55060506D01*
G37*
%TD.AperFunction*%
%TD*%
M02*
